<svg xmlns="http://www.w3.org/2000/svg" xmlns:xlink="http://www.w3.org/1999/xlink" width="349.77" height="333.242" viewBox="0 0 349.77 333.242">
  <defs>
    <linearGradient id="linear-gradient" x1="97.603" y1="0.5" x2="96.64" y2="0.5" gradientUnits="objectBoundingBox">
      <stop offset="0" stop-color="#9ea5a9"/>
      <stop offset="0.22" stop-color="#dee5e9"/>
      <stop offset="0.41" stop-color="#d1d8dc"/>
      <stop offset="0.84" stop-color="#9ea5a9"/>
      <stop offset="1" stop-color="#6f7980"/>
    </linearGradient>
    <linearGradient id="linear-gradient-2" x1="97.604" y1="0.5" x2="96.641" y2="0.5" xlink:href="#linear-gradient"/>
    <linearGradient id="linear-gradient-3" x1="97.518" y1="0.5" x2="96.556" y2="0.5" xlink:href="#linear-gradient"/>
    <linearGradient id="linear-gradient-4" x1="-12.361" y1="-0.013" x2="-12.361" y2="1.025" gradientUnits="objectBoundingBox">
      <stop offset="0" stop-color="#4a5659"/>
      <stop offset="1" stop-color="#1f2426"/>
    </linearGradient>
    <linearGradient id="linear-gradient-5" x1="-6.051" y1="0.287" x2="-6.529" y2="0.705" xlink:href="#linear-gradient-4"/>
    <linearGradient id="linear-gradient-6" x1="55.572" y1="0.287" x2="55.093" y2="0.705" xlink:href="#linear-gradient-4"/>
    <linearGradient id="linear-gradient-7" x1="-7.878" y1="0.052" x2="-7.653" y2="0.936" xlink:href="#linear-gradient-4"/>
    <linearGradient id="linear-gradient-8" x1="71.078" y1="0.052" x2="71.303" y2="0.936" xlink:href="#linear-gradient-4"/>
    <linearGradient id="linear-gradient-9" x1="-2.672" y1="-0.016" x2="-1.807" y2="1.015" gradientUnits="objectBoundingBox">
      <stop offset="0" stop-color="#6f8085"/>
      <stop offset="0.23" stop-color="#1f2426"/>
    </linearGradient>
    <linearGradient id="linear-gradient-10" x1="-5.435" y1="0.5" x2="-4.435" y2="0.5" gradientUnits="objectBoundingBox">
      <stop offset="0" stop-color="#2e3638"/>
      <stop offset="0.76" stop-color="#171b1c"/>
    </linearGradient>
    <linearGradient id="linear-gradient-11" x1="-5.435" y1="0.5" x2="-4.435" y2="0.5" xlink:href="#linear-gradient-4"/>
    <linearGradient id="linear-gradient-12" x1="-20.268" y1="1.004" x2="-20.415" y2="-0.004" xlink:href="#linear-gradient-9"/>
    <linearGradient id="linear-gradient-13" x1="-1.91" y1="0.5" x2="-0.91" y2="0.5" xlink:href="#linear-gradient-9"/>
    <linearGradient id="linear-gradient-14" x1="-1.023" y1="0.792" x2="-1.941" y2="0.127" xlink:href="#linear-gradient-9"/>
    <linearGradient id="linear-gradient-15" x1="0.949" y1="0.049" x2="-0.313" y2="0.658" gradientUnits="objectBoundingBox">
      <stop offset="0" stop-color="#fff"/>
      <stop offset="1" stop-color="#fff"/>
    </linearGradient>
  </defs>
  <g id="Grupo_131836" data-name="Grupo 131836" transform="translate(-1894 -408.074)">
    <g id="_1_1_B" data-name="1_1_B" transform="translate(1870.93 379.634)">
      <g id="Layer_1">
        <path id="Trazado_116080" data-name="Trazado 116080" d="M371.55,267.82,193.73,165.15,83.55,228.77l34.82,20.11L25.14,302.7c-2.76,1.59-2.76,4.2,0,5.8l90.04,51.99a11.162,11.162,0,0,0,10.04,0l93.23-53.82,42.92,24.78,110.18-63.61Z" fill="#e8e8e8" opacity="0.59"/>
        <g id="Grupo_112074" data-name="Grupo 112074">
          <g id="Grupo_112067" data-name="Grupo 112067">
            <g id="Grupo_112065" data-name="Grupo 112065">
              <path id="Trazado_116081" data-name="Trazado 116081" d="M269.57,205.59a8.715,8.715,0,0,0-8.04,0,2.869,2.869,0,0,0-1.66,2.36V321.01a2.856,2.856,0,0,0,1.66,2.36,8.715,8.715,0,0,0,8.04,0,2.882,2.882,0,0,0,1.67-2.36V207.95a2.882,2.882,0,0,0-1.67-2.36Z" fill="url(#linear-gradient)"/>
              <path id="Trazado_116082" data-name="Trazado 116082" d="M269.57,205.59c2.22,1.31,2.22,3.42,0,4.72a8.715,8.715,0,0,1-8.04,0c-2.22-1.3-2.22-3.42,0-4.72A8.715,8.715,0,0,1,269.57,205.59Z" fill="#b8bfc3"/>
            </g>
            <g id="Grupo_112066" data-name="Grupo 112066">
              <path id="Trazado_116083" data-name="Trazado 116083" d="M269.57,205.59a8.715,8.715,0,0,0-8.04,0,2.869,2.869,0,0,0-1.66,2.36v20.8a2.856,2.856,0,0,0,1.66,2.36,8.715,8.715,0,0,0,8.04,0,2.882,2.882,0,0,0,1.67-2.36v-20.8A2.882,2.882,0,0,0,269.57,205.59Z" opacity="0.2"/>
              <path id="Trazado_116084" data-name="Trazado 116084" d="M269.57,205.59c2.22,1.31,2.22,3.42,0,4.72a8.715,8.715,0,0,1-8.04,0c-2.22-1.3-2.22-3.42,0-4.72A8.715,8.715,0,0,1,269.57,205.59Z" fill="#b8bfc3"/>
            </g>
          </g>
          <g id="Grupo_112070" data-name="Grupo 112070">
            <g id="Grupo_112068" data-name="Grupo 112068">
              <path id="Trazado_116085" data-name="Trazado 116085" d="M362.29,151.67a8.715,8.715,0,0,0-8.04,0,2.882,2.882,0,0,0-1.67,2.36V267.09a2.849,2.849,0,0,0,1.67,2.36,8.715,8.715,0,0,0,8.04,0,2.869,2.869,0,0,0,1.66-2.36V154.03A2.89,2.89,0,0,0,362.29,151.67Z" fill="url(#linear-gradient-2)"/>
              <path id="Trazado_116086" data-name="Trazado 116086" d="M362.29,151.67c2.22,1.31,2.22,3.42,0,4.72a8.715,8.715,0,0,1-8.04,0c-2.22-1.3-2.22-3.42,0-4.72A8.715,8.715,0,0,1,362.29,151.67Z" fill="#b8bfc3"/>
            </g>
            <g id="Grupo_112069" data-name="Grupo 112069">
              <path id="Trazado_116087" data-name="Trazado 116087" d="M362.29,151.67a8.715,8.715,0,0,0-8.04,0,2.882,2.882,0,0,0-1.67,2.36v20.8a2.849,2.849,0,0,0,1.67,2.36,8.715,8.715,0,0,0,8.04,0,2.869,2.869,0,0,0,1.66-2.36v-20.8A2.89,2.89,0,0,0,362.29,151.67Z" opacity="0.2"/>
              <path id="Trazado_116088" data-name="Trazado 116088" d="M362.29,151.67c2.22,1.31,2.22,3.42,0,4.72a8.715,8.715,0,0,1-8.04,0c-2.22-1.3-2.22-3.42,0-4.72A8.715,8.715,0,0,1,362.29,151.67Z" fill="#b8bfc3"/>
            </g>
          </g>
          <g id="Grupo_112073" data-name="Grupo 112073">
            <g id="Grupo_112071" data-name="Grupo 112071">
              <path id="Trazado_116089" data-name="Trazado 116089" d="M111.12,114.88a8.715,8.715,0,0,0-8.04,0,2.882,2.882,0,0,0-1.67,2.36V230.3a2.849,2.849,0,0,0,1.67,2.36,8.715,8.715,0,0,0,8.04,0,2.882,2.882,0,0,0,1.67-2.36V117.24A2.882,2.882,0,0,0,111.12,114.88Z" fill="url(#linear-gradient-3)"/>
              <path id="Trazado_116090" data-name="Trazado 116090" d="M111.12,114.88c2.22,1.31,2.22,3.42,0,4.72a8.715,8.715,0,0,1-8.04,0c-2.22-1.3-2.22-3.42,0-4.72A8.715,8.715,0,0,1,111.12,114.88Z" fill="#b8bfc3"/>
            </g>
            <g id="Grupo_112072" data-name="Grupo 112072">
              <path id="Trazado_116091" data-name="Trazado 116091" d="M111.12,114.88a8.715,8.715,0,0,0-8.04,0,2.882,2.882,0,0,0-1.67,2.36v20.8a2.849,2.849,0,0,0,1.67,2.36,8.715,8.715,0,0,0,8.04,0,2.882,2.882,0,0,0,1.67-2.36v-20.8a2.882,2.882,0,0,0-1.67-2.36Z" opacity="0.2"/>
              <path id="Trazado_116092" data-name="Trazado 116092" d="M111.12,114.88c2.22,1.31,2.22,3.42,0,4.72a8.715,8.715,0,0,1-8.04,0c-2.22-1.3-2.22-3.42,0-4.72A8.715,8.715,0,0,1,111.12,114.88Z" fill="#b8bfc3"/>
            </g>
          </g>
          <path id="Trazado_116093" data-name="Trazado 116093" d="M265.86,226.15,93.2,126.47V118.9l172.66,99.68Z" fill="#b9ddfc"/>
          <path id="Trazado_116094" data-name="Trazado 116094" d="M265.86,226.15v-7.57l106.98-61.76v7.57Z" fill="#b9ddfc"/>
          <path id="Trazado_116095" data-name="Trazado 116095" d="M265.86,218.58,93.2,118.9,200.18,57.13l172.66,99.69Z" fill="#ecf2f9"/>
        </g>
        <g id="Grupo_112079" data-name="Grupo 112079">
          <g id="laptop">
            <path id="Trazado_116096" data-name="Trazado 116096" d="M302.76,143.67,222.77,97.49a5.06,5.06,0,0,0-5.05,0L167.81,126.3a2.065,2.065,0,0,0,0,3.58l79.3,45.78a6.442,6.442,0,0,0,6.44,0l21.3-12.3s.07.06.11.09a3.239,3.239,0,0,0,1.39,1.42,8.263,8.263,0,0,0,7.5.01c2.06-1.19,2.05-3.13-.02-4.33a7.1,7.1,0,0,0-2.67-.84l4.92-2.84,4.74-2.74,11.95-6.9a2.065,2.065,0,0,0,0-3.58Z" fill="#659cdb" opacity="0.22"/>
            <path id="Trazado_116097" data-name="Trazado 116097" d="M241.83,172.37l-74.24-42.86c-2.22-1.31-1.69-4.63-.4-5.38l48.52-25.75a1.9,1.9,0,0,1,1.93,0l76.63,42c1.29.74,1.93,4-.34,5.4l-46.07,26.6a6.016,6.016,0,0,1-6.03,0Z" fill="#2b63a2"/>
            <path id="Trazado_116098" data-name="Trazado 116098" d="M276.71,155.45l-3.07,1.77c-.14.08-.26,0-.26-.2v-.94a.617.617,0,0,1,.26-.49l3.07-1.77c.14-.08.26,0,.26.2v.94A.617.617,0,0,1,276.71,155.45Z" fill="#0b3259"/>
            <path id="Trazado_116099" data-name="Trazado 116099" d="M276.72,155.31l-3.09,1.78c-.06.03-.1,0-.1-.08v-.37a.256.256,0,0,1,.1-.19l3.09-1.78c.06-.03.1,0,.1.08v.37A.256.256,0,0,1,276.72,155.31Z" fill="#3882c6"/>
            <path id="Trazado_116100" data-name="Trazado 116100" d="M280.62,153.2l-3.07,1.77c-.14.08-.26,0-.26-.2v-.94a.617.617,0,0,1,.26-.49l3.07-1.77c.14-.08.26,0,.26.2v.94A.617.617,0,0,1,280.62,153.2Z" fill="#0b3259"/>
            <path id="Trazado_116101" data-name="Trazado 116101" d="M280.63,153.05l-3.09,1.78c-.06.03-.1,0-.1-.08v-.37a.256.256,0,0,1,.1-.19l3.09-1.78c.06-.03.1,0,.1.08v.37A.256.256,0,0,1,280.63,153.05Z" fill="#3882c6"/>
            <path id="Trazado_116102" data-name="Trazado 116102" d="M291.96,145.75a1.516,1.516,0,0,1-.69,1.18c-.38.22-.69.04-.69-.39a1.516,1.516,0,0,1,.69-1.18C291.65,145.14,291.96,145.32,291.96,145.75Z" fill="#0b3259"/>
            <path id="Trazado_116103" data-name="Trazado 116103" d="M291.51,146.01a.556.556,0,0,1-.23.41c-.13.07-.24.01-.24-.13a.554.554,0,0,1,.24-.41C291.41,145.81,291.51,145.87,291.51,146.01Z" fill="#3882c6"/>
            <path id="Trazado_116104" data-name="Trazado 116104" d="M264.77,161.54a.946.946,0,0,1-.43.74c-.24.14-.43.03-.43-.24a.946.946,0,0,1,.43-.74C264.58,161.16,264.77,161.27,264.77,161.54Z" fill="#0b3259"/>
            <path id="Trazado_116105" data-name="Trazado 116105" d="M263.45,162.34a.946.946,0,0,1-.43.74c-.24.14-.43.03-.43-.25a.931.931,0,0,1,.43-.74c.24-.14.43-.03.43.24Z" fill="#0b3259"/>
            <path id="Trazado_116106" data-name="Trazado 116106" d="M241.83,170.02l-74.24-42.86a1.934,1.934,0,0,1,0-3.35l46.15-26.64a5.882,5.882,0,0,1,5.88,0l74.31,42.91a1.934,1.934,0,0,1,0,3.35l-46.07,26.6a6.016,6.016,0,0,1-6.03,0Z" fill="#e6f9ff"/>
            <path id="Trazado_116107" data-name="Trazado 116107" d="M244.84,170.94a6.091,6.091,0,0,1-3.07-.82l-74.24-42.86a.117.117,0,0,1,.12-.2l74.24,42.86a5.938,5.938,0,0,0,5.91,0l46.07-26.6a.117.117,0,1,1,.12.2l-46.07,26.6a6.117,6.117,0,0,1-3.07.82Z" fill="#fff"/>
            <path id="Trazado_116108" data-name="Trazado 116108" d="M220.92,103.41a3.452,3.452,0,0,1-3.1,0c-.86-.5-.86-1.3,0-1.79a3.452,3.452,0,0,1,3.1,0C221.78,102.12,221.78,102.92,220.92,103.41Z" fill="#273a49"/>
            <path id="Trazado_116109" data-name="Trazado 116109" d="M220.92,103.14a3.452,3.452,0,0,1-3.1,0c-.86-.5-.86-1.3,0-1.79a3.452,3.452,0,0,1,3.1,0C221.78,101.85,221.78,102.65,220.92,103.14Z" fill="#96ceea"/>
            <path id="Trazado_116110" data-name="Trazado 116110" d="M294.31,139.13,218.63,93.87a1.952,1.952,0,0,1-.97-1.69l-1.35-57.19c0-1.5,1.41-2.71,4.27-1.04l75.52,43.6a4.254,4.254,0,0,1,2.12,3.68v55.22c.02,2.02-2.62,3.43-3.92,2.68Z" fill="#2b63a2"/>
            <path id="Trazado_116111" data-name="Trazado 116111" d="M293.91,139.05l-75.68-43.7a3.935,3.935,0,0,1-1.96-3.4V35.05a1.077,1.077,0,0,1,1.62-.93L295,78.64a3.675,3.675,0,0,1,1.84,3.18v55.55a1.951,1.951,0,0,1-2.92,1.69Z" fill="#69a0df"/>
            <path id="Trazado_116112" data-name="Trazado 116112" d="M259.2,59.01c0,.37-.26.52-.59.34a1.311,1.311,0,0,1-.59-1.01c0-.37.26-.52.59-.34A1.311,1.311,0,0,1,259.2,59.01Z" fill="#2e455b"/>
            <path id="Trazado_116113" data-name="Trazado 116113" d="M251.37,54.64c0,.15-.11.21-.24.14a.537.537,0,0,1-.24-.41c0-.15.11-.21.24-.14A.537.537,0,0,1,251.37,54.64Z" fill="#2e455b"/>
            <path id="Trazado_116114" data-name="Trazado 116114" d="M260.29,59.84c0,.15-.11.21-.24.14a.537.537,0,0,1-.24-.41c0-.15.11-.21.24-.14A.537.537,0,0,1,260.29,59.84Z" fill="#2e455b"/>
            <path id="Trazado_116115" data-name="Trazado 116115" d="M296.71,137.36h.24V81.81a3.8,3.8,0,0,0-1.89-3.28L217.95,34.01a1.173,1.173,0,0,0-1.2,0,1.2,1.2,0,0,0-.6,1.04h.24a.942.942,0,0,1,.48-.83.967.967,0,0,1,.96,0l77.11,44.52a3.553,3.553,0,0,1,1.78,3.08v55.55Z" fill="#bde3ff"/>
            <path id="Trazado_116116" data-name="Trazado 116116" d="M291.96,135.82,220.63,94.64a3.192,3.192,0,0,1-1.59-2.75V39.3a1.394,1.394,0,0,1,2.09-1.21l71.33,41.18a3.192,3.192,0,0,1,1.59,2.75V134.6a1.394,1.394,0,0,1-2.09,1.21Z" fill="#2b63a2"/>
            <path id="Trazado_116117" data-name="Trazado 116117" d="M292.46,79.28,269.71,66.15l-50.14,27.5a3.212,3.212,0,0,0,1.05.99l71.33,41.18a1.391,1.391,0,0,0,2.09-1.21V82.03a3.167,3.167,0,0,0-1.59-2.75Z" fill="#b8e1ff" opacity="0.12"/>
            <path id="Trazado_116118" data-name="Trazado 116118" d="M274.29,68.78l-6.35-3.67L219.05,91.93a3.151,3.151,0,0,0,.96,2.23l3.91,2.26L274.3,68.79Z" fill="#b8e1ff" opacity="0.12"/>
            <path id="Trazado_116119" data-name="Trazado 116119" d="M292.17,135.67,220.84,94.49a3.192,3.192,0,0,1-1.59-2.75V39.15a1.349,1.349,0,0,1,.5-1.06,1.38,1.38,0,0,0-.71,1.21V91.88a3.167,3.167,0,0,0,1.59,2.75l71.33,41.18a1.4,1.4,0,0,0,1.6-.14A1.405,1.405,0,0,1,292.17,135.67Z" fill="#acdcf9"/>
            <path id="Trazado_116120" data-name="Trazado 116120" d="M288.36,129.71,225.27,93.29a2.814,2.814,0,0,1-1.41-2.44V44.34a1.236,1.236,0,0,1,1.85-1.07L288.8,79.69a2.814,2.814,0,0,1,1.41,2.44v46.51A1.236,1.236,0,0,1,288.36,129.71Z" fill="#90b9dd"/>
            <path id="Trazado_116121" data-name="Trazado 116121" d="M287.87,130.18,224.78,93.76a2.814,2.814,0,0,1-1.41-2.44V44.81a1.236,1.236,0,0,1,1.85-1.07l63.09,36.42a2.814,2.814,0,0,1,1.41,2.44v46.51a1.236,1.236,0,0,1-1.85,1.07Z" fill="#eef8ff"/>
            <path id="Trazado_116122" data-name="Trazado 116122" d="M275.08,108.46,235.33,85.51a1.147,1.147,0,0,1-.48-.93h0c0-.36.22-.52.48-.37l39.75,22.95a1.147,1.147,0,0,1,.48.93h0c0,.36-.22.52-.48.37Zm.48,2.52h0a1.19,1.19,0,0,0-.48-.93L235.33,87.1c-.27-.15-.48.01-.48.37h0a1.19,1.19,0,0,0,.48.93l39.75,22.95c.27.15.48-.01.48-.37Zm0,2.88h0a1.19,1.19,0,0,0-.48-.93L235.33,89.98c-.27-.15-.48.01-.48.37h0a1.19,1.19,0,0,0,.48.93l39.75,22.95C275.35,114.38,275.56,114.22,275.56,113.86Z" fill="#bed2ea"/>
            <path id="Trazado_116123" data-name="Trazado 116123" d="M225.22,43.65a1.23,1.23,0,0,0-1.75.59,2.792,2.792,0,0,0,1.31,1.7l63.09,36.42a1.23,1.23,0,0,0,1.75-.59,2.792,2.792,0,0,0-1.31-1.7L225.22,43.65Z" fill="#acdcf9"/>
            <path id="Trazado_116124" data-name="Trazado 116124" d="M288.25,82.15a.165.165,0,0,1-.15-.09l-1.22-2.11a.175.175,0,1,1,.3-.18l1.22,2.11a.178.178,0,0,1-.06.24.149.149,0,0,1-.09.02Z" fill="#2b63a2"/>
            <path id="Trazado_116125" data-name="Trazado 116125" d="M287.02,81.44a.165.165,0,0,1-.15-.09.173.173,0,0,1,.07-.24l1.22-.7a.177.177,0,1,1,.17.31l-1.22.7A.412.412,0,0,1,287.02,81.44Z" fill="#2b63a2"/>
            <path id="Trazado_116126" data-name="Trazado 116126" d="M293.35,139.74v-1.67a2.925,2.925,0,0,0-1.28,2.25.756.756,0,0,0,.01.15l1.26-.73Z" fill="#2b63a2"/>
            <path id="Trazado_116127" data-name="Trazado 116127" d="M293.35,138.07l-2.46-1.42-4.39-2.54a2.933,2.933,0,0,0-1.27,2.26.756.756,0,0,0,.01.15l6.84,3.95s-.01-.09-.01-.15A2.925,2.925,0,0,1,293.35,138.07Z" fill="#5187bc"/>
            <path id="Trazado_116128" data-name="Trazado 116128" d="M225.11,100.37V98.7a2.925,2.925,0,0,0-1.28,2.25.757.757,0,0,0,.01.15l1.26-.73Z" fill="#2b63a2"/>
            <path id="Trazado_116129" data-name="Trazado 116129" d="M225.11,98.7l-2.46-1.42-4.39-2.54A2.933,2.933,0,0,0,216.99,97a.757.757,0,0,0,.01.15l6.84,3.95s-.01-.09-.01-.15a2.925,2.925,0,0,1,1.28-2.25Z" fill="#5187bc"/>
            <path id="Trazado_116130" data-name="Trazado 116130" d="M201.62,120.43l-9.29-5.36c-.07-.04-.06-.11.02-.15l3.57-2.06a.269.269,0,0,1,.26-.01l9.29,5.36c.07.04.06.11-.02.15l-3.57,2.06A.269.269,0,0,1,201.62,120.43Zm8.49.45-3.66-2.11a.3.3,0,0,0-.26.01l-3.57,2.06c-.08.05-.09.11-.02.15l3.66,2.11a.3.3,0,0,0,.26-.01l3.57-2.06C210.17,120.98,210.18,120.92,210.11,120.88Zm4.64,2.68-3.66-2.11a.3.3,0,0,0-.26.01l-3.57,2.06c-.08.05-.09.11-.02.15l3.66,2.11a.3.3,0,0,0,.26-.01l3.57-2.06C214.81,123.66,214.82,123.6,214.75,123.56Zm4.64,2.68-3.66-2.11a.3.3,0,0,0-.26.01l-3.57,2.06c-.08.05-.09.11-.02.15l3.66,2.11a.3.3,0,0,0,.26-.01l3.57-2.06C219.45,126.34,219.46,126.28,219.39,126.24Zm4.64,2.68-3.66-2.11a.3.3,0,0,0-.26.01l-3.57,2.06c-.08.05-.09.11-.02.15l3.66,2.11a.3.3,0,0,0,.26-.01l3.57-2.06c.08-.05.09-.11.02-.15Zm4.64,2.68-3.66-2.11a.3.3,0,0,0-.26.01l-3.57,2.06c-.08.05-.09.11-.02.15l3.66,2.11a.3.3,0,0,0,.26-.01l3.57-2.06C228.73,131.7,228.74,131.64,228.67,131.6Zm4.64,2.68-3.66-2.11a.3.3,0,0,0-.26.01l-3.57,2.06c-.08.05-.09.11-.02.15l3.66,2.11a.3.3,0,0,0,.26-.01l3.57-2.06C233.37,134.38,233.38,134.32,233.31,134.28Zm4.64,2.68-3.66-2.11a.3.3,0,0,0-.26.01l-3.57,2.06c-.08.05-.09.11-.02.15l3.66,2.11a.3.3,0,0,0,.26-.01l3.57-2.06C238.01,137.06,238.02,137,237.95,136.96Zm4.64,2.68-3.66-2.11a.3.3,0,0,0-.26.01l-3.57,2.06c-.08.05-.09.11-.02.15l3.66,2.11a.3.3,0,0,0,.26-.01l3.57-2.06C242.65,139.74,242.66,139.68,242.59,139.64Zm4.64,2.68-3.66-2.11a.3.3,0,0,0-.26.01l-3.57,2.06c-.08.05-.09.11-.02.15l3.66,2.11a.3.3,0,0,0,.26-.01l3.57-2.06C247.29,142.42,247.3,142.36,247.23,142.32Zm4.64,2.68-3.66-2.11a.3.3,0,0,0-.26.01l-3.57,2.06c-.08.05-.09.11-.02.15l3.66,2.11a.3.3,0,0,0,.26-.01l3.57-2.06C251.93,145.1,251.94,145.04,251.87,145Zm10.38,5.99-3.66-2.11a.3.3,0,0,0-.26.01l-3.57,2.06c-.08.05-.09.11-.02.15l3.66,2.11a.3.3,0,0,0,.26-.01l3.57-2.06c.08-.05.09-.11.02-.15Zm4.64,2.68-3.66-2.11a.3.3,0,0,0-.26.01l-3.57,2.06c-.08.05-.09.11-.02.15l3.66,2.11a.3.3,0,0,0,.26-.01l3.57-2.06C266.95,153.77,266.96,153.71,266.89,153.67Zm-9.28-5.36-4.76-2.75a.3.3,0,0,0-.26.01l-3.57,2.06c-.08.05-.09.11-.02.15l4.76,2.75a.3.3,0,0,0,.26-.01l3.57-2.06c.08-.05.09-.11.02-.15Zm-49.09-29.24-3.66-2.11c-.07-.04-.06-.11.02-.15l3.57-2.06a.269.269,0,0,1,.26-.01l3.66,2.11c.07.04.06.11-.02.15l-3.57,2.06A.269.269,0,0,1,208.52,119.07Zm8.49.45-3.66-2.11a.3.3,0,0,0-.26.01l-3.57,2.06c-.08.05-.09.11-.02.15l3.66,2.11a.3.3,0,0,0,.26-.01l3.57-2.06C217.07,119.62,217.08,119.56,217.01,119.52Zm4.64,2.68-3.66-2.11a.3.3,0,0,0-.26.01l-3.57,2.06c-.08.05-.09.11-.02.15l3.66,2.11a.3.3,0,0,0,.26-.01l3.57-2.06C221.71,122.3,221.72,122.24,221.65,122.2Zm4.64,2.68-3.66-2.11a.3.3,0,0,0-.26.01l-3.57,2.06c-.08.05-.09.11-.02.15l3.66,2.11a.3.3,0,0,0,.26-.01l3.57-2.06C226.35,124.98,226.36,124.92,226.29,124.88Zm4.64,2.68-3.66-2.11a.3.3,0,0,0-.26.01l-3.57,2.06c-.08.05-.09.11-.02.15l3.66,2.11a.3.3,0,0,0,.26-.01l3.57-2.06c.08-.05.09-.11.02-.15Zm4.64,2.68-3.66-2.11a.3.3,0,0,0-.26.01l-3.57,2.06c-.08.05-.09.11-.02.15l3.66,2.11a.3.3,0,0,0,.26-.01l3.57-2.06C235.63,130.34,235.64,130.28,235.57,130.24Zm4.64,2.68-3.66-2.11a.3.3,0,0,0-.26.01l-3.57,2.06c-.08.05-.09.11-.02.15l3.66,2.11a.3.3,0,0,0,.26-.01l3.57-2.06C240.27,133.02,240.28,132.96,240.21,132.92Zm4.64,2.68-3.66-2.11a.3.3,0,0,0-.26.01l-3.57,2.06c-.08.05-.09.11-.02.15l3.66,2.11a.3.3,0,0,0,.26-.01l3.57-2.06C244.91,135.7,244.92,135.64,244.85,135.6Zm4.64,2.68-3.66-2.11a.3.3,0,0,0-.26.01L242,138.24c-.08.05-.09.11-.02.15l3.66,2.11a.3.3,0,0,0,.26-.01l3.57-2.06C249.55,138.38,249.56,138.32,249.49,138.28Zm4.64,2.68-3.66-2.11a.3.3,0,0,0-.26.01l-3.57,2.06c-.08.05-.09.11-.02.15l3.66,2.11a.3.3,0,0,0,.26-.01l3.57-2.06C254.19,141.06,254.2,141,254.13,140.96Zm4.64,2.68-3.66-2.11a.3.3,0,0,0-.26.01l-3.57,2.06c-.08.05-.09.11-.02.15l3.66,2.11a.3.3,0,0,0,.26-.01l3.57-2.06c.08-.05.09-.11.02-.15Zm8.09,4.67-7.11-4.11a.3.3,0,0,0-.26.01l-3.57,2.06c-.08.05-.09.11-.02.15l7.11,4.11a.3.3,0,0,0,.26-.01l3.57-2.06C266.92,148.41,266.93,148.35,266.86,148.31Zm4.64,2.68-3.66-2.11a.3.3,0,0,0-.26.01l-3.57,2.06c-.08.05-.09.11-.02.15l3.66,2.11a.3.3,0,0,0,.26-.01l3.57-2.06C271.56,151.09,271.57,151.03,271.5,150.99Zm-63.79-36.83-6.92-4a.3.3,0,0,0-.26.01l-3.57,2.06c-.08.05-.09.11-.02.15l6.92,4a.3.3,0,0,0,.26-.01l3.57-2.06C207.77,114.26,207.78,114.2,207.71,114.16Zm4.22,1.54-3.66-2.11c-.07-.04-.06-.11.02-.15l3.57-2.06a.269.269,0,0,1,.26-.01l3.66,2.11c.07.04.06.11-.02.15l-3.57,2.06A.269.269,0,0,1,211.93,115.7Zm8.5.46-3.66-2.11a.3.3,0,0,0-.26.01l-3.57,2.06c-.08.05-.09.11-.02.15l3.66,2.11a.3.3,0,0,0,.26-.01l3.57-2.06C220.49,116.26,220.5,116.2,220.43,116.16Zm4.64,2.68-3.66-2.11a.3.3,0,0,0-.26.01l-3.57,2.06c-.08.05-.09.11-.02.15l3.66,2.11a.3.3,0,0,0,.26-.01l3.57-2.06C225.13,118.94,225.14,118.88,225.07,118.84Zm4.64,2.68-3.66-2.11a.3.3,0,0,0-.26.01l-3.57,2.06c-.08.05-.09.11-.02.15l3.66,2.11a.3.3,0,0,0,.26-.01l3.57-2.06C229.77,121.62,229.78,121.56,229.71,121.52Zm4.64,2.68-3.66-2.11a.3.3,0,0,0-.26.01l-3.57,2.06c-.08.05-.09.11-.02.15l3.66,2.11a.3.3,0,0,0,.26-.01l3.57-2.06C234.41,124.3,234.42,124.24,234.35,124.2Zm4.64,2.68-3.66-2.11a.3.3,0,0,0-.26.01l-3.57,2.06c-.08.05-.09.11-.02.15l3.66,2.11a.3.3,0,0,0,.26-.01l3.57-2.06c.08-.05.09-.11.02-.15Zm4.64,2.68-3.66-2.11a.3.3,0,0,0-.26.01l-3.57,2.06c-.08.05-.09.11-.02.15l3.66,2.11a.3.3,0,0,0,.26-.01l3.57-2.06c.08-.05.09-.11.02-.15Zm4.64,2.68-3.66-2.11a.3.3,0,0,0-.26.01l-3.57,2.06c-.08.05-.09.11-.02.15l3.66,2.11a.3.3,0,0,0,.26-.01l3.57-2.06C248.33,132.34,248.34,132.28,248.27,132.24Zm4.64,2.68-3.66-2.11a.3.3,0,0,0-.26.01l-3.57,2.06c-.08.05-.09.11-.02.15l3.66,2.11a.3.3,0,0,0,.26-.01l3.57-2.06C252.97,135.02,252.98,134.96,252.91,134.92Zm4.64,2.68-3.66-2.11a.3.3,0,0,0-.26.01l-3.57,2.06c-.08.05-.09.11-.02.15l3.66,2.11a.3.3,0,0,0,.26-.01l3.57-2.06c.08-.05.09-.11.02-.15Zm4.64,2.68-3.66-2.11a.3.3,0,0,0-.26.01l-3.57,2.06c-.08.05-.09.11-.02.15l3.66,2.11a.3.3,0,0,0,.26-.01l3.57-2.06c.08-.05.09-.11.02-.15Zm4.64,2.68-3.66-2.11a.3.3,0,0,0-.26.01l-3.57,2.06c-.08.05-.09.11-.02.15l3.66,2.11a.3.3,0,0,0,.26-.01l3.57-2.06C266.89,143.06,266.9,143,266.83,142.96Zm4.64,2.68-3.66-2.11a.3.3,0,0,0-.26.01l-3.57,2.06c-.08.05-.09.11-.02.15l3.66,2.11a.3.3,0,0,0,.26-.01l3.57-2.06C271.53,145.74,271.54,145.68,271.47,145.64Zm4.64,2.68-3.66-2.11a.3.3,0,0,0-.26.01l-3.57,2.06c-.08.05-.09.11-.02.15l3.66,2.11a.3.3,0,0,0,.26-.01l3.57-2.06C276.17,148.42,276.18,148.36,276.11,148.32ZM211.12,110.8l-5.72-3.3a.3.3,0,0,0-.26.01l-3.57,2.06c-.08.05-.09.11-.02.15l5.72,3.3a.3.3,0,0,0,.26-.01l3.57-2.06C211.18,110.9,211.19,110.84,211.12,110.8Zm3.14.91-3.66-2.11c-.07-.04-.06-.11.02-.15l3.57-2.06a.269.269,0,0,1,.26-.01l3.66,2.11c.07.04.06.11-.02.15l-3.57,2.06A.269.269,0,0,1,214.26,111.71Zm8.5.46-3.66-2.11a.3.3,0,0,0-.26.01l-3.57,2.06c-.08.05-.09.11-.02.15l3.66,2.11a.3.3,0,0,0,.26-.01l3.57-2.06C222.82,112.27,222.83,112.21,222.76,112.17Zm4.65,2.68-3.66-2.11a.3.3,0,0,0-.26.01l-3.57,2.06c-.08.05-.09.11-.02.15l3.66,2.11a.3.3,0,0,0,.26-.01l3.57-2.06C227.47,114.95,227.48,114.89,227.41,114.85Zm4.65,2.68-3.66-2.11a.3.3,0,0,0-.26.01l-3.57,2.06c-.08.05-.09.11-.02.15l3.66,2.11a.3.3,0,0,0,.26-.01l3.57-2.06C232.12,117.63,232.13,117.57,232.06,117.53Zm4.65,2.68-3.66-2.11a.3.3,0,0,0-.26.01l-3.57,2.06c-.08.05-.09.11-.02.15l3.66,2.11a.3.3,0,0,0,.26-.01l3.57-2.06C236.77,120.31,236.78,120.25,236.71,120.21Zm4.65,2.68-3.66-2.11a.3.3,0,0,0-.26.01l-3.57,2.06c-.08.05-.09.11-.02.15l3.66,2.11a.3.3,0,0,0,.26-.01l3.57-2.06C241.42,122.99,241.43,122.93,241.36,122.89Zm4.65,2.68-3.66-2.11a.3.3,0,0,0-.26.01l-3.57,2.06c-.08.05-.09.11-.02.15l3.66,2.11a.3.3,0,0,0,.26-.01l3.57-2.06C246.07,125.67,246.08,125.61,246.01,125.57Zm4.65,2.68L247,126.14a.3.3,0,0,0-.26.01l-3.57,2.06c-.08.05-.09.11-.02.15l3.66,2.11a.3.3,0,0,0,.26-.01l3.57-2.06c.08-.05.09-.11.02-.15Zm4.65,2.68-3.66-2.11a.3.3,0,0,0-.26.01l-3.57,2.06c-.08.05-.09.11-.02.15l3.66,2.11a.3.3,0,0,0,.26-.01l3.57-2.06C255.37,131.03,255.38,130.97,255.31,130.93Zm4.65,2.68-3.66-2.11a.3.3,0,0,0-.26.01l-3.57,2.06c-.08.05-.09.11-.02.15l3.66,2.11a.3.3,0,0,0,.26-.01l3.57-2.06c.08-.05.09-.11.02-.15Zm4.65,2.68-3.66-2.11a.3.3,0,0,0-.26.01l-3.57,2.06c-.08.05-.09.11-.02.15l3.66,2.11a.3.3,0,0,0,.26-.01l3.57-2.06C264.67,136.39,264.68,136.33,264.61,136.29Zm4.65,2.68-3.66-2.11a.3.3,0,0,0-.26.01l-3.57,2.06c-.08.05-.09.11-.02.15l3.66,2.11a.3.3,0,0,0,.26-.01l3.57-2.06C269.32,139.07,269.33,139.01,269.26,138.97Zm6.87,3.97-5.88-3.4a.3.3,0,0,0-.26.01l-3.57,2.06c-.08.05-.09.11-.02.15l5.88,3.4a.3.3,0,0,0,.26-.01l3.57-2.06C276.19,143.04,276.2,142.98,276.13,142.94Zm4.65,2.68-3.66-2.11a.3.3,0,0,0-.26.01l-3.57,2.06c-.08.05-.09.11-.02.15l3.66,2.11a.3.3,0,0,0,.26-.01l3.57-2.06C280.84,145.72,280.85,145.66,280.78,145.62ZM213.5,106.78l-3.43-1.98a.3.3,0,0,0-.26.01l-3.57,2.06c-.08.05-.09.11-.02.15l3.43,1.98a.3.3,0,0,0,.26-.01l3.57-2.06C213.56,106.88,213.57,106.82,213.5,106.78Zm5.14,1.56-3.32-1.92c-.07-.04-.06-.11.02-.15l2.15-1.24a.269.269,0,0,1,.26-.01l3.32,1.92c.07.04.06.11-.02.15l-2.15,1.24A.269.269,0,0,1,218.64,108.34Zm6.67,1.04-3.32-1.92a.3.3,0,0,0-.26.01l-2.15,1.24c-.08.05-.09.11-.02.15l3.32,1.92a.3.3,0,0,0,.26-.01l2.15-1.24C225.37,109.48,225.38,109.42,225.31,109.38Zm4.24,2.45-3.32-1.92a.3.3,0,0,0-.26.01l-2.15,1.24c-.08.05-.09.11-.02.15l3.32,1.92a.3.3,0,0,0,.26-.01l2.15-1.24C229.61,111.93,229.62,111.87,229.55,111.83Zm4.24,2.45-3.32-1.92a.3.3,0,0,0-.26.01l-2.15,1.24c-.08.05-.09.11-.02.15l3.32,1.92a.3.3,0,0,0,.26-.01l2.15-1.24C233.85,114.38,233.86,114.32,233.79,114.28Zm4.24,2.45-3.32-1.92a.3.3,0,0,0-.26.01l-2.15,1.24c-.08.05-.09.11-.02.15l3.32,1.92a.3.3,0,0,0,.26-.01l2.15-1.24C238.09,116.83,238.1,116.77,238.03,116.73Zm4.24,2.45-3.32-1.92a.3.3,0,0,0-.26.01l-2.15,1.24c-.08.05-.09.11-.02.15l3.32,1.92a.3.3,0,0,0,.26-.01l2.15-1.24C242.33,119.28,242.34,119.22,242.27,119.18Zm4.24,2.45-3.32-1.92a.3.3,0,0,0-.26.01l-2.15,1.24c-.08.05-.09.11-.02.15l3.32,1.92a.3.3,0,0,0,.26-.01l2.15-1.24C246.57,121.73,246.58,121.67,246.51,121.63Zm4.24,2.45-3.32-1.92a.3.3,0,0,0-.26.01l-2.15,1.24c-.08.05-.09.11-.02.15l3.32,1.92a.3.3,0,0,0,.26-.01l2.15-1.24C250.81,124.18,250.82,124.12,250.75,124.08Zm4.24,2.45-3.32-1.92a.3.3,0,0,0-.26.01l-2.15,1.24c-.08.05-.09.11-.02.15l3.32,1.92a.3.3,0,0,0,.26-.01l2.15-1.24C255.05,126.63,255.06,126.57,254.99,126.53Zm4.24,2.45-3.32-1.92a.3.3,0,0,0-.26.01l-2.15,1.24c-.08.05-.09.11-.02.15l3.32,1.92a.3.3,0,0,0,.26-.01l2.15-1.24C259.29,129.08,259.3,129.02,259.23,128.98Zm4.24,2.45-3.32-1.92a.3.3,0,0,0-.26.01l-2.15,1.24c-.08.05-.09.11-.02.15l3.32,1.92a.3.3,0,0,0,.26-.01l2.15-1.24C263.53,131.53,263.54,131.47,263.47,131.43Zm4.24,2.45-3.32-1.92a.3.3,0,0,0-.26.01l-2.15,1.24c-.08.05-.09.11-.02.15l3.32,1.92a.3.3,0,0,0,.26-.01l2.15-1.24C267.77,133.98,267.78,133.92,267.71,133.88Zm-50.9-29.39-3.11-1.8a.3.3,0,0,0-.26.01l-2.15,1.24c-.08.05-.09.11-.02.15l3.11,1.8a.3.3,0,0,0,.26-.01l2.15-1.24C216.87,104.59,216.88,104.53,216.81,104.49Zm-25.79,15.46-3.61-2.08c-.07-.04-.06-.11.02-.15l3.82-2.2a.269.269,0,0,1,.26-.01l3.61,2.08c.07.04.06.11-.02.15l-3.82,2.2A.269.269,0,0,1,191.02,119.95Zm8.73.31-3.61-2.08a.3.3,0,0,0-.26.01l-3.82,2.2c-.08.05-.09.11-.02.15l3.61,2.08a.3.3,0,0,0,.26-.01l3.82-2.2C199.81,120.36,199.82,120.3,199.75,120.26Zm4.63,2.67-3.61-2.08a.3.3,0,0,0-.26.01l-3.82,2.2c-.08.05-.09.11-.02.15l3.61,2.08a.3.3,0,0,0,.26-.01l3.82-2.2C204.44,123.03,204.45,122.97,204.38,122.93Zm4.63,2.67-3.61-2.08a.3.3,0,0,0-.26.01l-3.82,2.2c-.08.05-.09.11-.02.15l3.61,2.08a.3.3,0,0,0,.26-.01l3.82-2.2C209.07,125.7,209.08,125.64,209.01,125.6Zm25.42,14.68-3.61-2.08a.3.3,0,0,0-.26.01l-3.82,2.2c-.08.05-.09.11-.02.15l3.61,2.08a.3.3,0,0,0,.26-.01l3.82-2.2C234.49,140.38,234.5,140.32,234.43,140.28Zm4.63,2.67-3.61-2.08a.3.3,0,0,0-.26.01l-3.82,2.2c-.08.05-.09.11-.02.15l3.61,2.08a.3.3,0,0,0,.26-.01l3.82-2.2C239.12,143.05,239.13,142.99,239.06,142.95Zm4.63,2.67-3.61-2.08a.3.3,0,0,0-.26.01l-3.82,2.2c-.08.05-.09.11-.02.15l3.61,2.08a.3.3,0,0,0,.26-.01l3.82-2.2C243.75,145.72,243.76,145.66,243.69,145.62Zm4.63,2.67-3.61-2.08a.3.3,0,0,0-.26.01l-3.82,2.2c-.08.05-.09.11-.02.15l3.61,2.08a.3.3,0,0,0,.26-.01l3.82-2.2C248.38,148.39,248.39,148.33,248.32,148.29Zm4.63,2.67-3.61-2.08a.3.3,0,0,0-.26.01l-3.82,2.2c-.08.05-.09.11-.02.15l3.61,2.08a.3.3,0,0,0,.26-.01l3.82-2.2C253.01,151.06,253.02,151,252.95,150.96Zm4.63,2.67-3.61-2.08a.3.3,0,0,0-.26.01l-3.82,2.2c-.08.05-.09.11-.02.15l3.61,2.08a.3.3,0,0,0,.26-.01l3.82-2.2c.08-.05.09-.11.02-.15Zm4.63,2.67-3.61-2.08a.3.3,0,0,0-.26.01l-3.82,2.2c-.08.05-.09.11-.02.15l3.61,2.08a.3.3,0,0,0,.26-.01l3.82-2.2C262.27,156.4,262.28,156.34,262.21,156.3Zm-32.42-18.72-19.77-11.41a.3.3,0,0,0-.26.01l-3.82,2.2c-.08.05-.09.11-.02.15l19.77,11.41a.3.3,0,0,0,.26-.01l3.82-2.2c.08-.05.09-.11.02-.15Z" fill="#c7ebff"/>
            <path id="Trazado_116131" data-name="Trazado 116131" d="M219.63,149.55l-18.56-10.73a.628.628,0,0,1,0-1.08l6.92-3.99a1.826,1.826,0,0,1,1.81,0l18.56,10.73a.628.628,0,0,1,0,1.08l-6.92,3.99A1.826,1.826,0,0,1,219.63,149.55Z" fill="#c7ebff"/>
            <path id="Trazado_116132" data-name="Trazado 116132" d="M205.33,146.51l-9.21-5.31a.282.282,0,0,1,0-.49l3.16-1.83a.822.822,0,0,1,.83,0l9.21,5.31a.282.282,0,0,1,0,.49l-3.16,1.83A.822.822,0,0,1,205.33,146.51Z" fill="#c7ebff"/>
            <path id="Trazado_116133" data-name="Trazado 116133" d="M215.65,152.52l-9.21-5.31a.282.282,0,0,1,0-.49l3.16-1.83a.822.822,0,0,1,.83,0l9.21,5.31a.282.282,0,0,1,0,.49l-3.16,1.83A.822.822,0,0,1,215.65,152.52Z" fill="#c7ebff"/>
          </g>
          <g id="_404">
            <g id="Grupo_112075" data-name="Grupo 112075">
              <path id="Trazado_116134" data-name="Trazado 116134" d="M237.79,73.55l4.09-2.38,2.68,1.54-4.1,2.38Z" fill="#cae5ff"/>
              <path id="Trazado_116135" data-name="Trazado 116135" d="M243.32,79.78l4.09-2.38-.01,2.92-4.09,2.38Z" fill="#567eb7"/>
              <path id="Trazado_116136" data-name="Trazado 116136" d="M240.47,70.5l4.1-2.38-2.69,3.05-4.09,2.38Z" fill="#567eb7"/>
              <path id="Trazado_116137" data-name="Trazado 116137" d="M245.17,77.81l4.1-2.38-.01,3.03-4.09,2.38Z" fill="#567eb7"/>
              <path id="Trazado_116138" data-name="Trazado 116138" d="M243.33,76.74l4.09-2.38,1.85,1.07-4.1,2.38Z" fill="#cae5ff"/>
              <path id="Trazado_116139" data-name="Trazado 116139" d="M243.35,67.76l4.1-2.38-.03,8.98-4.09,2.38Z" fill="#567eb7"/>
              <path id="Trazado_116140" data-name="Trazado 116140" d="M240.76,66.26l4.09-2.38,2.6,1.5-4.1,2.38Z" fill="#cae5ff"/>
            </g>
            <g id="Grupo_112076" data-name="Grupo 112076">
              <path id="Trazado_116141" data-name="Trazado 116141" d="M256.86,82.54a1.036,1.036,0,0,1-.81-.03c-.26-.1-.36-.17-.61-.02.07-.04.15-.09.22-.13-1.54-.89-2.05-2.83-2.25-4.47a11.457,11.457,0,0,1,.02-3.15,2.616,2.616,0,0,1,.96-1.95c-.69.4-1.39.81-2.08,1.21-.67.39-1.4.74-2.03,1.19-.97.69-1.05,2.31-1.08,3.39a9.812,9.812,0,0,0,.65,3.94c.4,1,1.24,2.42,2.47,2.46a2.165,2.165,0,0,0,1.15-.45c.39-.23.77-.46,1.16-.68.78-.45,1.56-.91,2.34-1.36a1.089,1.089,0,0,0-.11.06Z" fill="#567eb7"/>
              <path id="Trazado_116142" data-name="Trazado 116142" d="M260.91,80.2a15.452,15.452,0,0,0-1.23-5.4,11.438,11.438,0,0,0-3.3-4.42c-1-.82-2.6-1.48-3.85-.84-.65.33-1.28.74-1.91,1.11-.76.44-1.52.88-2.28,1.33a2.569,2.569,0,0,1,1.92-.21,4.779,4.779,0,0,1,1.03.4c.22.11.24.13.3.16a10.094,10.094,0,0,1,4.1,5.21,13.226,13.226,0,0,1,.9,7.6,4.367,4.367,0,0,1-1.77,2.94l2.64-1.53a8.185,8.185,0,0,0,2.16-1.45,7,7,0,0,0,1.28-4.87Zm-5.35-10.19Z" fill="#567eb7"/>
              <path id="Trazado_116143" data-name="Trazado 116143" d="M256.38,70.38c-1-.82-2.6-1.48-3.85-.84-.65.33-1.28.74-1.91,1.11s-1.25.72-1.87,1.09a.34.34,0,0,1,.14.02,2.885,2.885,0,0,1,1.37,0,4.779,4.779,0,0,1,1.03.4c.22.11.24.13.3.16a8.214,8.214,0,0,1,2.33,2.06l4.07-2.36a11.34,11.34,0,0,0-1.62-1.63Z" fill="#cae5ff"/>
              <path id="Trazado_116144" data-name="Trazado 116144" d="M254.44,82.74c0-.27-.02-.53-.04-.8,0-.08-.08-.72-.01-.55-.02-.06-.04-.12-.06-.19l-3.98,2.31a2.622,2.622,0,0,0,1.97,1.46,2.165,2.165,0,0,0,1.15-.45c.31-.18.62-.36.93-.55.02-.41.03-.83.04-1.25Z" fill="#acdcf9"/>
            </g>
            <g id="Grupo_112077" data-name="Grupo 112077">
              <path id="Trazado_116145" data-name="Trazado 116145" d="M261.25,87.09l4.09-2.38,2.68,1.55-4.1,2.38Z" fill="#cae5ff"/>
              <path id="Trazado_116146" data-name="Trazado 116146" d="M266.78,93.32l4.09-2.38v2.92l-4.1,2.38Z" fill="#567eb7"/>
              <path id="Trazado_116147" data-name="Trazado 116147" d="M263.94,84.05l4.09-2.38-2.69,3.04-4.09,2.38Z" fill="#567eb7"/>
              <path id="Trazado_116148" data-name="Trazado 116148" d="M268.63,91.35l4.1-2.37-.01,3.03-4.09,2.38Z" fill="#567eb7"/>
              <path id="Trazado_116149" data-name="Trazado 116149" d="M266.79,90.29l4.09-2.38,1.85,1.07-4.1,2.37Z" fill="#cae5ff"/>
              <path id="Trazado_116150" data-name="Trazado 116150" d="M266.81,81.31l4.1-2.38-.03,8.98-4.09,2.38Z" fill="#567eb7"/>
              <path id="Trazado_116151" data-name="Trazado 116151" d="M264.22,79.81l4.09-2.38,2.6,1.5-4.1,2.38Z" fill="#cae5ff"/>
            </g>
            <path id="Trazado_116152" data-name="Trazado 116152" d="M243.33,76.74l1.85,1.07v3.03l-1.86-1.07v2.92l-2.87-1.65V78.12l-6.99-4.04,7.31-7.81,2.6,1.5-.03,8.98Zm-2.87-1.65V70.5l-2.67,3.05,2.67,1.54h0Zm11.14-2.78c4,2.31,5.24,8.06,5.23,10.76,0,3.12-1.5,6.83-5.27,4.65s-5.24-7.6-5.23-10.72c0-2.7,1.27-7.01,5.27-4.7Zm-.04,12.43c1.83,1.05,2.37-1.34,2.38-3.31,0-1.93-.45-5.03-2.35-6.13-1.86-1.08-2.37,1.47-2.38,3.36,0,2.06.49,5.01,2.35,6.09h0Zm15.22,5.55,1.84,1.06v3.03l-1.85-1.06v2.92l-2.87-1.65V91.67l-6.99-4.04,7.31-7.81,2.6,1.5-.03,8.98Zm-2.87-1.65V84.05l-2.68,3.04,2.68,1.54h0Z" fill="#98c0e5"/>
            <g id="Grupo_112078" data-name="Grupo 112078">
              <path id="Trazado_116153" data-name="Trazado 116153" d="M251.2,75.11h0c-1.86-1.08-2.37,1.47-2.38,3.36,0,2.06.49,5.01,2.35,6.09a2.2,2.2,0,0,0,.39.18c-1.86-1.08-2.35-4.02-2.35-6.09,0-1.75.44-4.06,1.98-3.54Z" fill="#acdcf9"/>
              <path id="Trazado_116154" data-name="Trazado 116154" d="M242.92,79.59v2.88l.39.23.01-2.88Z" fill="#acdcf9"/>
              <path id="Trazado_116155" data-name="Trazado 116155" d="M240.07,74.91v-.05l-2.28-1.31,2.29-2.6v-.63l-2.69,3.04Z" fill="#acdcf9"/>
              <path id="Trazado_116156" data-name="Trazado 116156" d="M263.53,88.45v-.04l-2.28-1.32,2.29-2.59v-.63l-2.69,3.04Z" fill="#acdcf9"/>
              <path id="Trazado_116157" data-name="Trazado 116157" d="M243.35,67.76l-2.59-1.5-.03.03,2.23,1.29-.03,8.98,1.85,1.07-.01,2.98.4.23V77.81l-1.84-1.07Z" fill="#acdcf9"/>
              <path id="Trazado_116158" data-name="Trazado 116158" d="M266.79,90.29l.02-8.98-2.59-1.5-.03.03,2.23,1.29-.03,8.98,1.85,1.06-.01,2.99.4.23V91.35Z" fill="#acdcf9"/>
              <path id="Trazado_116159" data-name="Trazado 116159" d="M266.39,93.14l-.01,2.87.39.23.01-2.87Z" fill="#acdcf9"/>
              <path id="Trazado_116160" data-name="Trazado 116160" d="M251.6,72.31a5.441,5.441,0,0,0-.73-.36c.11.06.22.12.34.18,4,2.31,5.24,8.06,5.23,10.76,0,2.91-1.31,6.34-4.56,5.01,3.53,1.79,4.94-1.8,4.95-4.83,0-2.7-1.23-8.45-5.23-10.76Z" fill="#acdcf9"/>
            </g>
          </g>
        </g>
        <path id="Trazado_116161" data-name="Trazado 116161" d="M203.7,278.02a76.638,76.638,0,0,0,8.38.72c3.29,0,13.05-.42,15.21,3.35s1.8,7.54,0,9.58a16.684,16.684,0,0,1-11.05,5.45c-5.35.36-9.3-.24-13.73,1.92s-12.21,4.91-15.63,3.71c-1.36-.48-3.55-1.5-4.22-3.22-1.01-2.61.03-6.62,1.29-11.09,2.1-7.42,19.76-10.42,19.76-10.42Z" fill="#2e373a"/>
        <path id="Trazado_116162" data-name="Trazado 116162" d="M227.29,291.67a16.684,16.684,0,0,1-11.05,5.45c-5.35.36-9.3-.24-13.73,1.92s-12.21,4.91-15.63,3.71c-1.35-.47-3.54-1.49-4.21-3.2.31,3.43,1.72,5.83,3.8,6.56,3.41,1.2,11.2-1.56,15.63-3.71a15.878,15.878,0,0,1,1.97-.79l.06-1.87c3.66-1.18,7.18-.8,11.7-1.11a16.659,16.659,0,0,0,11.05-5.45,6.154,6.154,0,0,0,1.38-3.08,5.86,5.86,0,0,1-.96,1.59Z"/>
        <path id="Trazado_116163" data-name="Trazado 116163" d="M161.44,255.65s5.65-1.05,10.28-1.45,12.3,1.54,13.23,4.83-.51,5.98-4.97,9.02-10.7,3.54-13.15,4.13-7.92,6.32-11.04,8.26-12.14,2.27-14.2-3.29c0,0,1.73-10.45,2.82-12.47s17.02-9.02,17.02-9.02Z" fill="#2e373a"/>
        <path id="Trazado_116164" data-name="Trazado 116164" d="M141.59,246.94c.18,1,1.34,25.57,1.34,25.57s1.16,9.12,10.96,5.55,12.25-18.54,12.25-18.54l-3.34-25.49-21.21,12.91Z" fill="#0f2841"/>
        <g id="Grupo_112084" data-name="Grupo 112084">
          <rect id="Rectángulo_40359" data-name="Rectángulo 40359" width="7.62" height="13.85" transform="translate(127.84 332.31)" fill="url(#linear-gradient-4)"/>
          <g id="Grupo_112080" data-name="Grupo 112080">
            <path id="Trazado_116165" data-name="Trazado 116165" d="M83.86,315.37l-4.55-4.56a3.333,3.333,0,0,0-2.11-.68c-2.59,0-5.47,2.25-6.45,5.02a4.048,4.048,0,0,0,.34,3.87l4.75,4.8a3.259,3.259,0,0,0,2.24.78c2.59,0,5.47-2.25,6.45-5.02a3.829,3.829,0,0,0-.67-4.22Z" fill="url(#linear-gradient-5)"/>
            <path id="Trazado_116166" data-name="Trazado 116166" d="M84.53,319.59c-.97,2.77-3.86,5.02-6.45,5.02s-3.89-2.25-2.92-5.02,3.86-5.02,6.45-5.02S85.5,316.82,84.53,319.59Z" fill="#222b2e"/>
          </g>
          <g id="Grupo_112081" data-name="Grupo 112081">
            <path id="Trazado_116167" data-name="Trazado 116167" d="M174.77,309.47l4.55-4.56a3.313,3.313,0,0,1,2.11-.68c2.59,0,5.47,2.25,6.45,5.02a4.048,4.048,0,0,1-.34,3.87l-4.75,4.8a3.247,3.247,0,0,1-2.24.79c-2.59,0-5.47-2.25-6.45-5.02A3.829,3.829,0,0,1,174.77,309.47Z" fill="url(#linear-gradient-6)"/>
            <path id="Trazado_116168" data-name="Trazado 116168" d="M174.1,313.7c.97,2.77,3.86,5.02,6.45,5.02s3.89-2.25,2.92-5.02-3.86-5.02-6.45-5.02S173.13,310.93,174.1,313.7Z" fill="#222b2e"/>
          </g>
          <g id="Grupo_112082" data-name="Grupo 112082">
            <path id="Trazado_116169" data-name="Trazado 116169" d="M95.78,275.2a2.412,2.412,0,0,0-2.17-.55l-4.87,1.72c-.75.38-1.23,1.39-1.23,2.9a10.413,10.413,0,0,0,3.59,7.63,2.383,2.383,0,0,0,2.19.54l4.69-1.64c.84-.31,1.39-1.35,1.39-2.97A10.449,10.449,0,0,0,95.78,275.2Z" fill="url(#linear-gradient-7)"/>
            <path id="Trazado_116170" data-name="Trazado 116170" d="M87.51,279.27a10.413,10.413,0,0,0,3.59,7.63c1.98,1.44,3.59.35,3.59-2.43a10.449,10.449,0,0,0-3.59-7.63c-1.98-1.44-3.59-.35-3.59,2.44Z" fill="#091215"/>
          </g>
          <g id="Grupo_112083" data-name="Grupo 112083">
            <path id="Trazado_116171" data-name="Trazado 116171" d="M158.24,271.62a2.4,2.4,0,0,1,2.17-.54l4.87,1.72c.75.38,1.23,1.39,1.23,2.9a10.449,10.449,0,0,1-3.59,7.63,2.378,2.378,0,0,1-2.19.54l-4.69-1.64c-.84-.31-1.39-1.36-1.39-2.97a10.489,10.489,0,0,1,3.59-7.64Z" fill="url(#linear-gradient-8)"/>
            <path id="Trazado_116172" data-name="Trazado 116172" d="M166.52,275.69a10.449,10.449,0,0,1-3.59,7.63c-1.98,1.44-3.59.35-3.59-2.43a10.449,10.449,0,0,1,3.59-7.63C164.91,271.82,166.52,272.91,166.52,275.69Z" fill="#091215"/>
          </g>
          <path id="Trazado_116173" data-name="Trazado 116173" d="M126.66,288.57s-12.06-8.54-19.52-12.9-14.27-8.36-17.61-3.1l7.82,6.45,1.55,4.89,25.38,19.64,2.39-14.99Z" fill="#091215"/>
          <path id="Trazado_116174" data-name="Trazado 116174" d="M104.29,276.38c5.48,3.2,16.51,10.74,22,14.53l.37-2.35s-12.06-8.54-19.52-12.9c-6.32-3.69-12.17-7.11-15.84-4.87,3.53.06,8.12,2.74,13,5.58Z" fill="url(#linear-gradient-9)"/>
          <path id="Trazado_116175" data-name="Trazado 116175" d="M136.4,301.7l20-21.55a19.43,19.43,0,0,1,3.58-7.46c2.63-3.05,5.01-5.37,5.01-5.37a4.164,4.164,0,0,0-6.3-1.08c-3.97,2.81-24.92,19.77-24.92,19.77l2.63,15.7Z" fill="#091215"/>
          <path id="Trazado_116176" data-name="Trazado 116176" d="M84.39,313.1l1.37,2.2,36.4-8.07-.97-11.85-1.14-2.22L86.14,304.23s-14.84,2.76-16.27,10.23l14.52-1.37Z" fill="#222b2e"/>
          <path id="Trazado_116177" data-name="Trazado 116177" d="M138.11,305.86l35.7,3.6,2.13-2.81,13.84,1.01s.61-2.84-2.58-5.35-48.63-9.81-48.63-9.81l-.45,13.36Z" fill="#222b2e"/>
          <path id="Trazado_116178" data-name="Trazado 116178" d="M135.91,288.81a14.108,14.108,0,0,0-12.75,0c-1.76,1.02-2.64,2.35-2.64,3.68v11.76c0,1.33.88,2.67,2.64,3.68a14.046,14.046,0,0,0,12.75,0c1.76-1.01,2.64-2.35,2.64-3.68V292.49C138.55,291.16,137.67,289.83,135.91,288.81Z" fill="url(#linear-gradient-10)"/>
          <path id="Trazado_116179" data-name="Trazado 116179" d="M135.91,288.81c3.52,2.03,3.52,5.33,0,7.36a14.108,14.108,0,0,1-12.75,0c-3.52-2.03-3.52-5.33,0-7.36A14.108,14.108,0,0,1,135.91,288.81Z" fill="url(#linear-gradient-11)"/>
          <path id="Trazado_116180" data-name="Trazado 116180" d="M134.15,270.63a10.38,10.38,0,0,0-9.4,0,3.3,3.3,0,0,0-1.95,2.71v15.99a3.3,3.3,0,0,0,1.95,2.71,10.38,10.38,0,0,0,9.4,0,3.3,3.3,0,0,0,1.95-2.71V273.34A3.3,3.3,0,0,0,134.15,270.63Z"/>
          <path id="Trazado_116181" data-name="Trazado 116181" d="M127.84,298.37h4.11l.59,38h-2.12Z" fill="url(#linear-gradient-12)"/>
          <path id="Trazado_116182" data-name="Trazado 116182" d="M134.08,308.75l-2.13-10.38.59,38,.51-5.67Z"/>
          <path id="Trazado_116183" data-name="Trazado 116183" d="M127.84,298.37l-1.89,10.65,3.3,22.19,1.17,5.16Z"/>
          <path id="Trazado_116184" data-name="Trazado 116184" d="M120.05,293.17,86.14,304.24S71.3,307,69.87,314.47l1.02-.09c1.84-3.46,6.43-5.61,6.43-5.61l43.87-13.38-1.14-2.22Z" fill="url(#linear-gradient-13)"/>
          <path id="Trazado_116185" data-name="Trazado 116185" d="M187.18,302.31c-3.19-2.51-48.63-9.81-48.63-9.81l-.03.84,36.18,6.39,10.19,2.13a6.972,6.972,0,0,1,4.33,2.88,7.185,7.185,0,0,0-2.05-2.43Z" fill="url(#linear-gradient-14)"/>
        </g>
        <g id="Grupo_112085" data-name="Grupo 112085">
          <path id="Trazado_116186" data-name="Trazado 116186" d="M182.84,235.63a3.669,3.669,0,0,0-2.17-3.03l-61.7-35.63a11.629,11.629,0,0,0-10.5,0L57.13,226.61l-5.72,14.3,72.21,41.69,57.06-33.11c1.55-.9,2.27-2.1,2.15-3.28V235.62Z" fill="#727997"/>
          <path id="Trazado_116187" data-name="Trazado 116187" d="M182.84,235.63a3.669,3.669,0,0,1-2.17,3.03L129.33,268.3l-5.72,14.3,57.06-33.11c1.55-.9,2.27-2.1,2.15-3.28V235.62Z" fill="#636363"/>
        </g>
        <path id="Trazado_116188" data-name="Trazado 116188" d="M179.98,268.05c-4.47,3.03-10.7,3.54-13.15,4.13s-7.92,6.32-11.04,8.26-12.14,2.27-14.2-3.29v3.01c2.06,5.56,11.08,5.22,14.2,3.29a55.6,55.6,0,0,0,5.34-4.27c.04-.59.09-1.27.14-1.96,2.17-1.84,4.27-3.56,5.55-3.87,2.44-.59,8.68-1.09,13.15-4.13,3.89-2.65,5.48-5.03,5.21-7.78-.23,2.27-1.88,4.35-5.21,6.62Z"/>
        <path id="Trazado_116189" data-name="Trazado 116189" d="M114.01,197.39s35.11-19.39,42.42-20.28,21.91,4.12,11.94,30.66c-7.24,19.26-34.04,24.42-34.04,24.42l-27.42-1.78,7.1-33.02Z" fill="#0f2841"/>
        <path id="Trazado_116190" data-name="Trazado 116190" d="M142.08,213.53s39.44-14.79,49.06-15.86,19.43,1.78,18.72,14.79-.93,68.38-.93,68.38-10.53,19.9-25.14,15.98c0,0-2.52-1.92-1.12-8.42,2.05-9.51,1.49-44.24,3.22-56.48,0,0-27.22,14.2-41.45,20.06s-39.54,10.22-41.33-8.32,38.98-30.12,38.98-30.12Z" fill="#1c354e"/>
        <path id="Trazado_116191" data-name="Trazado 116191" d="M196.46,226.39c-.31-1.34-10.58,5.53-10.58,5.53-1.73,12.24-1.17,46.97-3.22,56.48-1.4,6.51,1.12,8.42,1.12,8.42a14.931,14.931,0,0,0,9.78-.72c-1.19-20.84,3.16-68.54,2.89-69.71Z" fill="#0f2841"/>
        <g id="Grupo_112091" data-name="Grupo 112091">
          <path id="Trazado_116192" data-name="Trazado 116192" d="M138.23,91.53l-5.78,15.4,31.1,12.87a58.35,58.35,0,0,1-13.74,5.38c-8.05,2.04-23.48.79-23.48.79l-15.59-3.94L88.88,111.25s-8.86-9.61-8.38-17.35.95-15.32.95-15.32l7.44,1.58,4.25-14.48s-15.95-7.77-18.63-7.93-7.11.47-10.26,14.05-4.26,36.47-2.21,47.52,6.47,29.37,12.63,43.74,11.68,22.74,11.21,29.68-7.42,44.05-7.42,44.05a104.449,104.449,0,0,0,31.58,17.53c18.55,6.23,30.47,4.89,39.63-8.37s-.63-33.32-.63-33.32l-6.95-1.89s-1.74-41.53-1.42-45.63,14.05-13.26,21.79-16.58,35.53-20.34,33.95-30.94-58.16-26.07-58.16-26.07Z" fill="#084a93"/>
          <path id="Trazado_116193" data-name="Trazado 116193" d="M138.52,91.96l-1.86-.64-5.21,12.88,3.53,1.33Z" fill="#e2e9ed"/>
          <path id="Trazado_116194" data-name="Trazado 116194" d="M173.88,111.24c-6.61.07-28-6.63-39.06-10.63l-2.37,6.32,31.1,12.87s8.93-2.9,11.22-4.69,6.68-3.94-.9-3.86Z" fill="#1c354e" opacity="0.5"/>
          <path id="Trazado_116195" data-name="Trazado 116195" d="M149.66,245.95c9.16-13.26-.63-33.32-.63-33.32l-6.95-1.89s-1.74-41.53-1.42-45.63,14.05-13.26,21.79-16.58c4.6-1.97,16.27-8.78,24.66-16.21h0c-7.01,3.31-26.19,14.43-36.03,18.62s-17.91,5.64-18.63,24.03,2.35,35.71.66,41.64,1.04,7.22,3.78,8.67c2.12,1.12,7.4,14.6,7.62,26.6a32.8,32.8,0,0,0,5.15-5.94Z" fill="#1c354e" opacity="0.5"/>
          <path id="Trazado_116196" data-name="Trazado 116196" d="M91.31,59.24s-.26-.86-.95,0-1.89,3.83-2.6,4.72-2.71,2.61-2.71,3.96a2.259,2.259,0,0,0,1.42,1.91l3.98-1.08.86-9.51Z" fill="#d88f69"/>
          <g id="Grupo_112087" data-name="Grupo 112087">
            <g id="Grupo_112086" data-name="Grupo 112086">
              <path id="Trazado_116197" data-name="Trazado 116197" d="M89.15,114.97a25.128,25.128,0,0,0,2.66-10.8c-.2-7.49-6.47-10.65-6.06-21.06S92.08,64.09,97.97,61.7s19.66-2.96,25.72,6.54,4.63,12.7,3.7,14.47.34,4.04.51,5.38-.84,12.02-3.5,16.12c-1.93,2.97-6.51,1.3-7.27,2.98s-1.09,9.42,2.02,15.06c0,0-7.6,1.66-19.97-1.11s-10.03-6.18-10.03-6.18Z" fill="#f2a983"/>
              <path id="Trazado_116198" data-name="Trazado 116198" d="M117.13,107.2c.47-1.05,2.44-.8,4.32-1.18a33.277,33.277,0,0,1-4.26-5.79s-2.88-5.86.83-8.36l-.27-.84c-2.66,1.56-4.88,6-5.24,8.44-.38,2.56-1.61,4.69-5.37,5.9.75,5.81,1.54,9.72,1.75,16.45l.32.93c5.9-1.99,9.95-.49,9.95-.49-3.11-5.64-2.78-13.38-2.02-15.06Z" fill="#d88f69"/>
              <path id="Trazado_116199" data-name="Trazado 116199" d="M127.85,81.73,113.74,75.9l1.51,13.46a89.066,89.066,0,0,0,9.85,13.54c2.14-4.7,2.95-13.58,2.8-14.8-.17-1.35-1.43-3.62-.51-5.38A10.449,10.449,0,0,0,127.85,81.73Z" fill="#d88f69"/>
              <path id="Trazado_116200" data-name="Trazado 116200" d="M118.86,59.72c-6.34-3.47-19.31-2.23-25.88,2.84-9.02,6.96-11.84,21.64-4.82,31.43l.01.01c1.5,3.06,3.2,5.66,3.56,9.18a14.573,14.573,0,0,0,10.6,3.08c7.62-.68,9.66-3.35,10.17-6.78s4.7-10.88,8.64-8.55l1.57-1.57s1.9-6.03,2.91-7.1c.78-.82-2.04-6.16-.84-9.41a4.076,4.076,0,0,0,1.7-1.72c1.74-3.3-1.29-7.93-7.63-11.4Z" fill="#192c56"/>
              <path id="Trazado_116201" data-name="Trazado 116201" d="M112.5,99.47c.51-3.43,4.7-10.88,8.64-8.55l1.57-1.57a35.479,35.479,0,0,1,.53-5.66c-3.65,3.1-10.67,8.87-14.43,10.7-3.95,1.93-13.83,1.22-20.65-.4,1.5,3.07,3.21,5.66,3.57,9.19a14.573,14.573,0,0,0,10.6,3.08c7.62-.68,9.66-3.35,10.17-6.78Z" fill="#563317" opacity="0.3"/>
            </g>
            <path id="Trazado_116202" data-name="Trazado 116202" d="M88.89,108.08l1.56-2.56s4.8,2.56,12.34,5.92,18.02,9.23,18.02,9.23A63.851,63.851,0,0,1,88.9,108.08Z" fill="#e2e9ed"/>
            <path id="Trazado_116203" data-name="Trazado 116203" d="M89.26,106.74l-3.59,3.23s-3.34,5.85,8.52,12.32,32.16,3.68,32.16,3.68l-5.11-5.17s-13.1-3.63-21.73-8.12-10.24-5.93-10.24-5.93Z" fill="#364f68"/>
          </g>
          <g id="Grupo_112089" data-name="Grupo 112089">
            <path id="Trazado_116204" data-name="Trazado 116204" d="M132.06,102.67l4.6-11.34c.17-3.05.64-12.15.42-13.42-.26-1.53-3.79-8.68-4.68-9.47a16.659,16.659,0,0,0-2.16-1.53s-5.47-4.21-8.26-4.95-4.58-1.6-4.9,1.12c0,0-2.36-.21-3.07.47s-1.14,1.3,1.86,3.51,7.66,7.11,8.53,10.34.16,7.34-1.89,7.34-6.08-1.47-7.66-4.79a4.776,4.776,0,0,0-6.08-2.71c-1.18.63.89,4.58,3.81,7.84s7.01,8.87,10.63,11.32,6.94,5.35,8.47,6.08c.11.05.24.12.4.19Z" fill="#f2a983"/>
            <g id="Grupo_112088" data-name="Grupo 112088">
              <path id="Trazado_116205" data-name="Trazado 116205" d="M122.61,65.22c-1.35-.94-3.81-2.3-4.89-3.69a2.268,2.268,0,0,0-.64,1.55h-.01l.22.2a20.539,20.539,0,0,1,5.75,3.62,71.787,71.787,0,0,1,5.89,7.42c1.11,1.58,1.47,1.58,1.47,1.58a5.611,5.611,0,0,0-1.26-3.32c-1.37-1.89-4.63-6.05-6.53-7.37Z" fill="#d88f69"/>
              <path id="Trazado_116206" data-name="Trazado 116206" d="M137.08,77.91h0c-.26-1.53-3.79-8.68-4.68-9.47a16.659,16.659,0,0,0-2.16-1.53s-.67-.52-1.66-1.21c1.21,1.46,5.59,6.91,6.18,10.21.17.97,1.26,1.61,2.32,2.01Z" fill="#d88f69"/>
            </g>
          </g>
          <path id="Trazado_116207" data-name="Trazado 116207" d="M110.87,57.74s5.47,1.42,3.1,2.42-2.37.58-2.37.58a4.335,4.335,0,0,1-2.84.53c-1.95-.16-2.39-.61-2.39-.61s-1.66,1.71-3.34,1.39-3.21.1-5.1-.32-3.9.84-4.79,1.53-5.58,4.68-5.58,4.68,2.11-7.05,2.58-8.32,3.37-2.74,6.42-3.47a17.97,17.97,0,0,1,7.47,0c.95.26,6.84,1.58,6.84,1.58Z" fill="#f2a983"/>
          <path id="Trazado_116208" data-name="Trazado 116208" d="M90.13,59.64c-.47,1.26-2.58,8.32-2.58,8.32s4.68-4,5.58-4.68,2.89-1.95,4.79-1.53a11.509,11.509,0,0,0,2.75.2,10.137,10.137,0,0,0-3.97-.99,8.887,8.887,0,0,0-4.27.91c-1.19.43-2-.08-2.25-2.31a.594.594,0,0,1-.04.08Z" fill="#d88f69"/>
          <path id="Trazado_116209" data-name="Trazado 116209" d="M87.84,67.02c-1.64-1.16-2.79.89-2.79.89s.26,2.74.26,3.53,2.74.26,3.05-1.53.07-2.47-.53-2.89Z" fill="#f2a983"/>
          <g id="Grupo_112090" data-name="Grupo 112090">
            <path id="Trazado_116210" data-name="Trazado 116210" d="M108.76,61.27h.21c-.54-.52-.98-1.23-1.59-1.72-.91-.73-2.66-.78-3.82-1.27s-3.08-.39-4.48-.55l-4.97-.57s5.11.98,6.4,1.12a25.023,25.023,0,0,1,4.83,1.27c1.37.5,1.02,1.11,1.02,1.11s.45.45,2.39.61Z" fill="#d88f69"/>
            <path id="Trazado_116211" data-name="Trazado 116211" d="M112.53,59.55c-.38-.66-3.01-1.41-5.29-1.97s-2.49-.25-2.49-.25,4.31,1.09,5.64,1.51a1.9,1.9,0,0,1,1.33,1.74s-.04.07-.1.18c.05.06.32.17,1.6-.31a7.269,7.269,0,0,1-.69-.91Z" fill="#d88f69"/>
          </g>
        </g>
        <g id="Grupo_112092" data-name="Grupo 112092">
          <path id="Trazado_116212" data-name="Trazado 116212" d="M106.74,156.19a9.573,9.573,0,0,0-4.25-6.42L55.5,122.64a4.734,4.734,0,0,0-5.17.04l-6.51,4.7a.391.391,0,0,0-.05.04l-.03.02h0a5.155,5.155,0,0,0-1.86,2.69l9.53,110.79,72.21,41.69,5.72-14.3L106.75,156.2Z" fill="#636363"/>
          <path id="Trazado_116213" data-name="Trazado 116213" d="M100.21,160.9a9.573,9.573,0,0,0-4.25-6.42L48.97,127.35a4.676,4.676,0,0,0-7.1,2.78L51.4,240.92l72.21,41.69-23.4-121.7Z" fill="#12263f"/>
          <path id="Trazado_116214" data-name="Trazado 116214" d="M106.74,156.19a9.573,9.573,0,0,0-4.25-6.42l-6.53,4.71a9.573,9.573,0,0,1,4.25,6.42l23.4,121.7,5.72-14.3L106.74,156.19Z" fill="#636363"/>
        </g>
        <g id="Grupo_112093" data-name="Grupo 112093">
          <path id="Trazado_116215" data-name="Trazado 116215" d="M198.79,28.44V88.03l1.3.75a75.118,75.118,0,0,1,46.3-32.86l-47.6-27.48Z" opacity="0.6" fill="url(#linear-gradient-15)"/>
        </g>
      </g>
    </g>
  </g>
</svg>
