<svg xmlns="http://www.w3.org/2000/svg" width="337.443" height="352.741" viewBox="0 0 337.443 352.741">
  <g id="_1_1_E" data-name="1_1_E" transform="translate(-22.235 -5.964)">
    <g id="Layer_1">
      <g id="laptop">
        <path id="Trazado_116512" data-name="Trazado 116512" d="M357.15,278.21,161.14,165.05a12.387,12.387,0,0,0-12.38,0L26.48,235.65a5.059,5.059,0,0,0,0,8.76l194.3,112.18a15.774,15.774,0,0,0,15.78,0l52.19-30.13c.09.08.18.15.27.23a7.809,7.809,0,0,0,3.42,3.47c5.09,2.94,13.32,2.95,18.38.03s5.03-7.67-.06-10.61a17.318,17.318,0,0,0-6.54-2.05l12.05-6.96,11.61-6.7,29.27-16.9a5.059,5.059,0,0,0,0-8.76Z" fill="#659cdb" opacity="0.22"/>
        <path id="Trazado_116513" data-name="Trazado 116513" d="M207.86,348.53,25.95,243.51c-5.45-3.2-4.13-11.35-.97-13.17l118.88-63.1a4.724,4.724,0,0,1,4.74,0l187.76,102.9c3.16,1.82,4.73,9.8-.83,13.22L222.64,348.54a14.781,14.781,0,0,1-14.78,0Z" fill="#2b63a2"/>
        <path id="Trazado_116514" data-name="Trazado 116514" d="M293.32,307.07l-7.53,4.35c-.35.2-.63-.01-.63-.48v-2.31a1.52,1.52,0,0,1,.63-1.21l7.53-4.35c.35-.2.63.01.63.48v2.31A1.52,1.52,0,0,1,293.32,307.07Z" fill="#0b3259"/>
        <path id="Trazado_116515" data-name="Trazado 116515" d="M293.35,306.73l-7.57,4.37c-.14.08-.25,0-.25-.19V310a.6.6,0,0,1,.25-.48l7.57-4.37c.14-.08.25,0,.25.19v.91A.6.6,0,0,1,293.35,306.73Z" fill="#3882c6"/>
        <path id="Trazado_116516" data-name="Trazado 116516" d="M302.9,301.56l-7.53,4.35c-.35.2-.63-.01-.63-.48v-2.31a1.52,1.52,0,0,1,.63-1.21l7.53-4.35c.35-.2.63.01.63.48v2.31A1.52,1.52,0,0,1,302.9,301.56Z" fill="#0b3259"/>
        <path id="Trazado_116517" data-name="Trazado 116517" d="M302.94,301.19l-7.57,4.37c-.14.08-.25,0-.25-.19v-.91a.6.6,0,0,1,.25-.48l7.57-4.37c.14-.08.25,0,.25.19v.91A.6.6,0,0,1,302.94,301.19Z" fill="#3882c6"/>
        <path id="Trazado_116518" data-name="Trazado 116518" d="M330.7,283.31a3.7,3.7,0,0,1-1.68,2.9c-.93.54-1.68.11-1.68-.96a3.7,3.7,0,0,1,1.68-2.9C329.95,281.81,330.7,282.24,330.7,283.31Z" fill="#0b3259"/>
        <path id="Trazado_116519" data-name="Trazado 116519" d="M329.59,283.95a1.249,1.249,0,0,1-.58.99c-.32.18-.58.04-.58-.33a1.249,1.249,0,0,1,.58-.99C329.33,283.44,329.59,283.58,329.59,283.95Z" fill="#3882c6"/>
        <path id="Trazado_116520" data-name="Trazado 116520" d="M264.08,321.98a2.33,2.33,0,0,1-1.05,1.82c-.58.34-1.05.07-1.05-.6a2.33,2.33,0,0,1,1.05-1.82C263.61,321.04,264.08,321.31,264.08,321.98Z" fill="#0b3259"/>
        <path id="Trazado_116521" data-name="Trazado 116521" d="M260.83,323.95a2.33,2.33,0,0,1-1.05,1.82c-.58.34-1.05.07-1.05-.6a2.33,2.33,0,0,1,1.05-1.82C260.36,323.01,260.83,323.28,260.83,323.95Z" fill="#0b3259"/>
        <path id="Trazado_116522" data-name="Trazado 116522" d="M207.86,342.77,25.95,237.74a4.74,4.74,0,0,1,0-8.21l113.07-65.28a14.43,14.43,0,0,1,14.41,0L335.52,269.38a4.74,4.74,0,0,1,0,8.21L222.63,342.77a14.781,14.781,0,0,1-14.78,0Z" fill="#e6f9ff"/>
        <path id="Trazado_116523" data-name="Trazado 116523" d="M215.25,345.03a15.068,15.068,0,0,1-7.53-2.01L25.81,238a.293.293,0,1,1,.29-.51L208.01,342.51a14.512,14.512,0,0,0,14.48,0l112.89-65.18a.293.293,0,0,1,.29.51L222.78,343.02a15.068,15.068,0,0,1-7.53,2.01Z" fill="#fff"/>
        <path id="Trazado_116524" data-name="Trazado 116524" d="M156.63,179.56a8.389,8.389,0,0,1-7.59-.01c-2.1-1.21-2.11-3.17-.02-4.38a8.389,8.389,0,0,1,7.59.01C158.71,176.39,158.72,178.35,156.63,179.56Z" fill="#273a49"/>
        <path id="Trazado_116525" data-name="Trazado 116525" d="M156.63,178.89a8.389,8.389,0,0,1-7.59-.01c-2.1-1.21-2.11-3.17-.02-4.38a8.389,8.389,0,0,1,7.59.01C158.71,175.72,158.72,177.68,156.63,178.89Z" fill="#96ceea"/>
        <path id="Trazado_116526" data-name="Trazado 116526" d="M336.46,267.07,151.03,156.16a4.758,4.758,0,0,1-2.38-4.13L145.34,11.89c0-3.67,3.46-6.64,10.47-2.55L340.86,116.18a10.394,10.394,0,0,1,5.2,9v135.3c.04,4.94-6.41,8.41-9.59,6.58Z" fill="#2b63a2"/>
        <path id="Trazado_116527" data-name="Trazado 116527" d="M335.47,266.88,150.03,159.81a9.626,9.626,0,0,1-4.81-8.32V12.05a2.643,2.643,0,0,1,3.97-2.29L338.13,118.84a9.012,9.012,0,0,1,4.5,7.79V262.74a4.765,4.765,0,0,1-7.15,4.13Z" fill="#69a0df"/>
        <path id="Trazado_116528" data-name="Trazado 116528" d="M250.43,70.77c0,.91-.65,1.28-1.44.82a3.162,3.162,0,0,1-1.44-2.49c0-.92.65-1.28,1.44-.82A3.162,3.162,0,0,1,250.43,70.77Z" fill="#2e455b"/>
        <path id="Trazado_116529" data-name="Trazado 116529" d="M231.23,60.06c0,.37-.26.52-.58.33a1.3,1.3,0,0,1-.58-1.01c0-.37.26-.52.58-.33A1.3,1.3,0,0,1,231.23,60.06Z" fill="#2e455b"/>
        <path id="Trazado_116530" data-name="Trazado 116530" d="M253.09,72.8c0,.37-.26.52-.58.33a1.3,1.3,0,0,1-.58-1.01c0-.37.26-.52.58-.33A1.3,1.3,0,0,1,253.09,72.8Z" fill="#2e455b"/>
        <path id="Trazado_116531" data-name="Trazado 116531" d="M342.33,262.75h.58V126.64a9.306,9.306,0,0,0-4.64-8.04L149.33,9.51a2.935,2.935,0,0,0-4.4,2.54h.58a2.355,2.355,0,0,1,3.53-2.04L337.98,119.09a8.718,8.718,0,0,1,4.35,7.54V262.74Z" fill="#bde3ff"/>
        <path id="Trazado_116532" data-name="Trazado 116532" d="M330.69,258.98,155.91,158.07a7.8,7.8,0,0,1-3.9-6.75V22.47a3.419,3.419,0,0,1,5.13-2.96L331.92,120.42a7.791,7.791,0,0,1,3.9,6.75V256.01a3.419,3.419,0,0,1-5.13,2.96Z" fill="#2b63a2"/>
        <path id="Trazado_116533" data-name="Trazado 116533" d="M331.93,120.42,276.2,88.24,153.35,155.63a7.771,7.771,0,0,0,2.57,2.43L330.7,258.97a3.419,3.419,0,0,0,5.13-2.96V127.17A7.8,7.8,0,0,0,331.93,120.42Z" fill="#b8e1ff" opacity="0.12"/>
        <path id="Trazado_116534" data-name="Trazado 116534" d="M287.39,94.71l-15.57-8.99-119.8,65.71a7.785,7.785,0,0,0,2.34,5.45l9.58,5.53L287.38,94.7Z" fill="#b8e1ff" opacity="0.12"/>
        <path id="Trazado_116535" data-name="Trazado 116535" d="M331.21,258.61,156.43,157.7a7.8,7.8,0,0,1-3.9-6.75V22.11a3.359,3.359,0,0,1,1.22-2.61,3.382,3.382,0,0,0-1.73,2.97V151.32a7.8,7.8,0,0,0,3.9,6.75L330.7,258.98a3.4,3.4,0,0,0,3.91-.35,3.41,3.41,0,0,1-3.4-.01Z" fill="#acdcf9"/>
        <path id="Trazado_116536" data-name="Trazado 116536" d="M321.88,243.99,167.3,154.74a6.9,6.9,0,0,1-3.45-5.97V34.82a3.027,3.027,0,0,1,4.54-2.62l154.58,89.25a6.9,6.9,0,0,1,3.45,5.97V241.37a3.027,3.027,0,0,1-4.54,2.62Z" fill="#90b9dd"/>
        <path id="Trazado_116537" data-name="Trazado 116537" d="M320.67,245.14,166.09,155.89a6.9,6.9,0,0,1-3.45-5.97V35.97a3.027,3.027,0,0,1,4.54-2.62L321.76,122.6a6.9,6.9,0,0,1,3.45,5.97V242.52A3.027,3.027,0,0,1,320.67,245.14Z" fill="#eef8ff"/>
        <path id="Trazado_116538" data-name="Trazado 116538" d="M167.17,33.12a3.03,3.03,0,0,0-4.3,1.44,6.923,6.923,0,0,0,3.21,4.18l154.58,89.25a3.03,3.03,0,0,0,4.3-1.44,6.923,6.923,0,0,0-3.21-4.18Z" fill="#acdcf9"/>
        <path id="Trazado_116539" data-name="Trazado 116539" d="M321.59,127.46a.436.436,0,0,1-.37-.21l-3-5.18a.425.425,0,1,1,.74-.42l3,5.18a.433.433,0,0,1-.37.64Z" fill="#2b63a2"/>
        <path id="Trazado_116540" data-name="Trazado 116540" d="M318.59,125.73a.425.425,0,0,1-.37-.22.417.417,0,0,1,.16-.58l3-1.71a.425.425,0,0,1,.42.74l-3,1.71A.42.42,0,0,1,318.59,125.73Z" fill="#2b63a2"/>
        <path id="Trazado_116541" data-name="Trazado 116541" d="M334.1,268.58v-4.1a7.175,7.175,0,0,0-3.13,5.52c0,.13.02.24.03.36l3.1-1.79Z" fill="#2b63a2"/>
        <path id="Trazado_116542" data-name="Trazado 116542" d="M334.1,264.48,328.08,261l-10.76-6.22a7.185,7.185,0,0,0-3.12,5.54c0,.13.02.24.03.36L331,270.37c-.01-.12-.03-.23-.03-.36a7.159,7.159,0,0,1,3.13-5.52Z" fill="#5187bc"/>
        <path id="Trazado_116543" data-name="Trazado 116543" d="M166.88,172.1V168a7.175,7.175,0,0,0-3.13,5.52c0,.13.02.24.03.36l3.1-1.79Z" fill="#2b63a2"/>
        <path id="Trazado_116544" data-name="Trazado 116544" d="M166.88,168.01l-6.02-3.48-10.76-6.22a7.185,7.185,0,0,0-3.12,5.54c0,.13.02.24.03.36l16.77,9.69c-.01-.12-.03-.23-.03-.36a7.159,7.159,0,0,1,3.13-5.52Z" fill="#5187bc"/>
        <path id="Trazado_116545" data-name="Trazado 116545" d="M109.33,221.25,86.57,208.11c-.17-.1-.15-.26.05-.37l8.75-5.05a.746.746,0,0,1,.65-.03l22.76,13.14c.17.1.15.26-.05.37l-8.75,5.05A.746.746,0,0,1,109.33,221.25Zm20.81,1.11-8.96-5.17a.714.714,0,0,0-.65.03l-8.75,5.05c-.19.11-.21.28-.05.37l8.96,5.17a.714.714,0,0,0,.65-.03l8.75-5.05C130.28,222.62,130.3,222.45,130.14,222.36Zm11.37,6.56-8.96-5.17a.714.714,0,0,0-.65.03l-8.75,5.05c-.19.11-.21.28-.05.37l8.96,5.17a.714.714,0,0,0,.65-.03l8.75-5.05C141.65,229.18,141.67,229.01,141.51,228.92Zm11.37,6.56-8.96-5.17a.714.714,0,0,0-.65.03l-8.75,5.05c-.19.11-.21.28-.05.37l8.96,5.17a.714.714,0,0,0,.65-.03l8.75-5.05C153.02,235.74,153.04,235.57,152.88,235.48Zm11.37,6.56-8.96-5.17a.714.714,0,0,0-.65.03l-8.75,5.05c-.19.11-.21.28-.05.37l8.96,5.17a.714.714,0,0,0,.65-.03l8.75-5.05C164.39,242.3,164.41,242.13,164.25,242.04Zm11.37,6.56-8.96-5.17a.714.714,0,0,0-.65.03l-8.75,5.05c-.19.11-.21.28-.05.37l8.96,5.17a.714.714,0,0,0,.65-.03l8.75-5.05C175.76,248.86,175.78,248.69,175.62,248.6Zm11.37,6.56-8.96-5.17a.714.714,0,0,0-.65.03l-8.75,5.05c-.19.11-.21.28-.05.37l8.96,5.17a.714.714,0,0,0,.65-.03l8.75-5.05C187.13,255.42,187.15,255.25,186.99,255.16Zm11.37,6.56-8.96-5.17a.714.714,0,0,0-.65.03L180,261.63c-.19.11-.21.28-.05.37l8.96,5.17a.714.714,0,0,0,.65-.03l8.75-5.05C198.5,261.98,198.52,261.81,198.36,261.72Zm11.37,6.56-8.96-5.17a.714.714,0,0,0-.65.03l-8.75,5.05c-.19.11-.21.28-.05.37l8.96,5.17a.714.714,0,0,0,.65-.03l8.75-5.05C209.87,268.54,209.89,268.37,209.73,268.28Zm11.37,6.56-8.96-5.17a.714.714,0,0,0-.65.03l-8.75,5.05c-.19.11-.21.28-.05.37l8.96,5.17a.714.714,0,0,0,.65-.03l8.75-5.05C221.24,275.1,221.26,274.93,221.1,274.84Zm11.37,6.56-8.96-5.17a.714.714,0,0,0-.65.03l-8.75,5.05c-.19.11-.21.28-.05.37l8.96,5.17a.714.714,0,0,0,.65-.03l8.75-5.05C232.61,281.66,232.63,281.49,232.47,281.4Zm25.44,14.69-8.96-5.17a.714.714,0,0,0-.65.03L239.55,296c-.19.11-.21.28-.05.37l8.96,5.17a.714.714,0,0,0,.65-.03l8.75-5.05c.19-.11.21-.28.05-.37Zm11.37,6.56-8.96-5.17a.714.714,0,0,0-.65.03l-8.75,5.05c-.19.11-.21.28-.05.37l8.96,5.17a.714.714,0,0,0,.65-.03l8.75-5.05C269.42,302.91,269.44,302.74,269.28,302.65Zm-22.74-13.13-11.66-6.73a.714.714,0,0,0-.65.03l-8.75,5.05c-.19.11-.21.28-.05.37l11.66,6.73a.714.714,0,0,0,.65-.03l8.75-5.05C246.68,289.78,246.7,289.61,246.54,289.52ZM126.26,217.88l-8.96-5.17c-.17-.1-.15-.26.05-.37l8.75-5.05a.746.746,0,0,1,.65-.03l8.96,5.17c.17.1.15.26-.05.37l-8.75,5.05a.746.746,0,0,1-.65.03Zm20.82,1.11-8.96-5.17a.714.714,0,0,0-.65.03l-8.75,5.05c-.19.11-.21.28-.05.37l8.96,5.17a.714.714,0,0,0,.65-.03l8.75-5.05C147.22,219.25,147.24,219.08,147.08,218.99Zm11.37,6.57-8.96-5.17a.714.714,0,0,0-.65.03l-8.75,5.05c-.19.11-.21.28-.05.37l8.96,5.17a.714.714,0,0,0,.65-.03l8.75-5.05C158.59,225.82,158.61,225.65,158.45,225.56Zm11.37,6.57-8.96-5.17a.714.714,0,0,0-.65.03l-8.75,5.05c-.19.11-.21.28-.05.37l8.96,5.17a.714.714,0,0,0,.65-.03l8.75-5.05C169.96,232.39,169.98,232.22,169.82,232.13Zm11.37,6.57-8.96-5.17a.714.714,0,0,0-.65.03l-8.75,5.05c-.19.11-.21.28-.05.37l8.96,5.17a.714.714,0,0,0,.65-.03l8.75-5.05C181.33,238.96,181.35,238.79,181.19,238.7Zm11.37,6.57-8.96-5.17a.714.714,0,0,0-.65.03l-8.75,5.05c-.19.11-.21.28-.05.37l8.96,5.17a.714.714,0,0,0,.65-.03l8.75-5.05C192.7,245.53,192.72,245.36,192.56,245.27Zm11.37,6.57-8.96-5.17a.714.714,0,0,0-.65.03l-8.75,5.05c-.19.11-.21.28-.05.37l8.96,5.17a.714.714,0,0,0,.65-.03l8.75-5.05c.19-.11.21-.28.05-.37Zm11.37,6.57-8.96-5.17a.714.714,0,0,0-.65.03l-8.75,5.05c-.19.11-.21.28-.05.37l8.96,5.17a.714.714,0,0,0,.65-.03l8.75-5.05c.19-.11.21-.28.05-.37Zm11.37,6.57-8.96-5.17a.714.714,0,0,0-.65.03l-8.75,5.05c-.19.11-.21.28-.05.37l8.96,5.17a.714.714,0,0,0,.65-.03l8.75-5.05C226.81,265.24,226.83,265.07,226.67,264.98Zm11.37,6.57-8.96-5.17a.714.714,0,0,0-.65.03l-8.75,5.05c-.19.11-.21.28-.05.37l8.96,5.17a.714.714,0,0,0,.65-.03l8.75-5.05C238.18,271.81,238.2,271.64,238.04,271.55Zm11.37,6.57-8.96-5.17a.714.714,0,0,0-.65.03l-8.75,5.05c-.19.11-.21.28-.05.37l8.96,5.17a.714.714,0,0,0,.65-.03l8.75-5.05C249.55,278.38,249.57,278.21,249.41,278.12Zm19.83,11.45-17.42-10.06a.714.714,0,0,0-.65.03l-8.75,5.05c-.19.11-.21.28-.05.37l17.42,10.06a.714.714,0,0,0,.65-.03l8.75-5.05C269.38,289.83,269.4,289.66,269.24,289.57Zm11.37,6.57-8.96-5.17a.714.714,0,0,0-.65.03l-8.75,5.05c-.19.11-.21.28-.05.37l8.96,5.17a.714.714,0,0,0,.65-.03l8.75-5.05C280.75,296.4,280.77,296.23,280.61,296.14ZM124.33,205.9l-16.96-9.79a.714.714,0,0,0-.65.03l-8.75,5.05c-.19.11-.21.28-.05.37l16.96,9.79a.714.714,0,0,0,.65-.03l8.75-5.05C124.47,206.16,124.49,205.99,124.33,205.9Zm10.34,3.77-8.96-5.17c-.17-.1-.15-.26.05-.37l8.75-5.05a.746.746,0,0,1,.65-.03l8.96,5.17c.17.1.15.26-.05.37l-8.75,5.05a.746.746,0,0,1-.65.03Zm20.82,1.12-8.96-5.17a.714.714,0,0,0-.65.03l-8.75,5.05c-.19.11-.21.28-.05.37l8.96,5.17a.714.714,0,0,0,.65-.03l8.75-5.05C155.63,211.05,155.65,210.88,155.49,210.79Zm11.37,6.57-8.96-5.17a.714.714,0,0,0-.65.03l-8.75,5.05c-.19.11-.21.28-.05.37l8.96,5.17a.714.714,0,0,0,.65-.03l8.75-5.05C167,217.62,167.02,217.45,166.86,217.36Zm11.37,6.57-8.96-5.17a.714.714,0,0,0-.65.03l-8.75,5.05c-.19.11-.21.28-.05.37l8.96,5.17a.714.714,0,0,0,.65-.03l8.75-5.05C178.37,224.19,178.39,224.02,178.23,223.93Zm11.37,6.57-8.96-5.17a.714.714,0,0,0-.65.03l-8.75,5.05c-.19.11-.21.28-.05.37l8.96,5.17a.714.714,0,0,0,.65-.03l8.75-5.05C189.74,230.76,189.76,230.59,189.6,230.5Zm11.37,6.57-8.96-5.17a.714.714,0,0,0-.65.03l-8.75,5.05c-.19.11-.21.28-.05.37l8.96,5.17a.714.714,0,0,0,.65-.03l8.75-5.05C201.11,237.33,201.13,237.16,200.97,237.07Zm11.37,6.57-8.96-5.17a.714.714,0,0,0-.65.03l-8.75,5.05c-.19.11-.21.28-.05.37l8.96,5.17a.714.714,0,0,0,.65-.03l8.75-5.05C212.48,243.9,212.5,243.73,212.34,243.64Zm11.37,6.57-8.96-5.17a.714.714,0,0,0-.65.03l-8.75,5.05c-.19.11-.21.28-.05.37l8.96,5.17a.714.714,0,0,0,.65-.03l8.75-5.05C223.85,250.47,223.87,250.3,223.71,250.21Zm11.37,6.57-8.96-5.17a.714.714,0,0,0-.65.03l-8.75,5.05c-.19.11-.21.28-.05.37l8.96,5.17a.714.714,0,0,0,.65-.03l8.75-5.05c.19-.11.21-.28.05-.37Zm11.37,6.57-8.96-5.17a.714.714,0,0,0-.65.03l-8.75,5.05c-.19.11-.21.28-.05.37L237,268.8a.714.714,0,0,0,.65-.03l8.75-5.05C246.59,263.61,246.61,263.44,246.45,263.35Zm11.37,6.57-8.96-5.17a.714.714,0,0,0-.65.03l-8.75,5.05c-.19.11-.21.28-.05.37l8.96,5.17a.714.714,0,0,0,.65-.03l8.75-5.05C257.96,270.18,257.98,270.01,257.82,269.92Zm11.37,6.57-8.96-5.17a.714.714,0,0,0-.65.03l-8.75,5.05c-.19.11-.21.28-.05.37l8.96,5.17a.714.714,0,0,0,.65-.03l8.75-5.05C269.33,276.75,269.35,276.58,269.19,276.49Zm11.37,6.57-8.96-5.17a.714.714,0,0,0-.65.03l-8.75,5.05c-.19.11-.21.28-.05.37l8.96,5.17a.714.714,0,0,0,.65-.03l8.75-5.05C280.7,283.32,280.72,283.15,280.56,283.06Zm11.37,6.57-8.96-5.17a.714.714,0,0,0-.65.03l-8.75,5.05c-.19.11-.21.28-.05.37l8.96,5.17a.714.714,0,0,0,.65-.03l8.75-5.05C292.07,289.89,292.09,289.72,291.93,289.63ZM132.69,197.69l-14.02-8.09a.714.714,0,0,0-.65.03l-8.75,5.05c-.19.11-.21.28-.05.37l14.02,8.09a.714.714,0,0,0,.65-.03l8.75-5.05C132.83,197.95,132.85,197.78,132.69,197.69Zm7.68,2.23-8.96-5.17c-.17-.1-.15-.26.05-.37l8.75-5.05a.746.746,0,0,1,.65-.03l8.96,5.17c.17.1.15.26-.05.37l-8.75,5.05A.746.746,0,0,1,140.37,199.92Zm20.83,1.12-8.96-5.17a.714.714,0,0,0-.65.03l-8.75,5.05c-.19.11-.21.28-.05.37l8.96,5.17a.714.714,0,0,0,.65-.03l8.75-5.05C161.34,201.3,161.36,201.13,161.2,201.04Zm11.39,6.57-8.96-5.17a.714.714,0,0,0-.65.03l-8.75,5.05c-.19.11-.21.28-.05.37l8.96,5.17a.714.714,0,0,0,.65-.03l8.75-5.05C172.73,207.87,172.75,207.7,172.59,207.61Zm11.39,6.57-8.96-5.17a.714.714,0,0,0-.65.03l-8.75,5.05c-.19.11-.21.28-.05.37l8.96,5.17a.714.714,0,0,0,.65-.03l8.75-5.05C184.12,214.44,184.14,214.27,183.98,214.18Zm11.39,6.57-8.96-5.17a.714.714,0,0,0-.65.03l-8.75,5.05c-.19.11-.21.28-.05.37l8.96,5.17a.714.714,0,0,0,.65-.03l8.75-5.05C195.51,221.01,195.53,220.84,195.37,220.75Zm11.39,6.57-8.96-5.17a.714.714,0,0,0-.65.03l-8.75,5.05c-.19.11-.21.28-.05.37l8.96,5.17a.714.714,0,0,0,.65-.03l8.75-5.05C206.9,227.58,206.92,227.41,206.76,227.32Zm11.39,6.57-8.96-5.17a.714.714,0,0,0-.65.03l-8.75,5.05c-.19.11-.21.28-.05.37l8.96,5.17a.714.714,0,0,0,.65-.03l8.75-5.05C218.29,234.15,218.31,233.98,218.15,233.89Zm11.39,6.57-8.96-5.17a.714.714,0,0,0-.65.03l-8.75,5.05c-.19.11-.21.28-.05.37l8.96,5.17a.714.714,0,0,0,.65-.03l8.75-5.05C229.68,240.72,229.7,240.55,229.54,240.46Zm11.39,6.57-8.96-5.17a.714.714,0,0,0-.65.03l-8.75,5.05c-.19.11-.21.28-.05.37l8.96,5.17a.714.714,0,0,0,.65-.03l8.75-5.05C241.07,247.29,241.09,247.12,240.93,247.03Zm11.39,6.57-8.96-5.17a.714.714,0,0,0-.65.03l-8.75,5.05c-.19.11-.21.28-.05.37l8.96,5.17a.714.714,0,0,0,.65-.03l8.75-5.05C252.46,253.86,252.48,253.69,252.32,253.6Zm11.39,6.57L254.75,255a.714.714,0,0,0-.65.03l-8.75,5.05c-.19.11-.21.28-.05.37l8.96,5.17a.714.714,0,0,0,.65-.03l8.75-5.05c.19-.11.21-.28.05-.37Zm11.39,6.57-8.96-5.17a.714.714,0,0,0-.65.03l-8.75,5.05c-.19.11-.21.28-.05.37l8.96,5.17a.714.714,0,0,0,.65-.03l8.75-5.05C275.24,267,275.26,266.83,275.1,266.74Zm16.84,9.72-14.42-8.32a.714.714,0,0,0-.65.03l-8.75,5.05c-.19.11-.21.28-.05.37l14.42,8.32a.714.714,0,0,0,.65-.03l8.75-5.05C292.08,276.72,292.1,276.55,291.94,276.46Zm11.39,6.57-8.96-5.17a.714.714,0,0,0-.65.03l-8.75,5.05c-.19.11-.21.28-.05.37l8.96,5.17a.714.714,0,0,0,.65-.03l8.75-5.05C303.47,283.29,303.49,283.12,303.33,283.03ZM138.48,187.85l-8.41-4.86a.714.714,0,0,0-.65.03l-8.75,5.05c-.19.11-.21.28-.05.37l8.41,4.86a.714.714,0,0,0,.65-.03l8.75-5.05C138.62,188.11,138.64,187.94,138.48,187.85Zm12.59,3.82-8.13-4.69c-.17-.1-.15-.26.05-.37l5.27-3.04a.746.746,0,0,1,.65-.03l8.13,4.69c.17.1.15.26-.05.37l-5.27,3.04A.746.746,0,0,1,151.07,191.67Zm16.35,2.56-8.13-4.69a.714.714,0,0,0-.65.03l-5.27,3.04c-.19.11-.21.28-.05.37l8.13,4.69a.714.714,0,0,0,.65-.03l5.27-3.04C167.56,194.49,167.58,194.32,167.42,194.23Zm10.39,6-8.13-4.69a.714.714,0,0,0-.65.03l-5.27,3.04c-.19.11-.21.28-.05.37l8.13,4.69a.714.714,0,0,0,.65-.03l5.27-3.04C177.95,200.49,177.97,200.32,177.81,200.23Zm10.39,6-8.13-4.69a.714.714,0,0,0-.65.03l-5.27,3.04c-.19.11-.21.28-.05.37l8.13,4.69a.714.714,0,0,0,.65-.03l5.27-3.04C188.34,206.49,188.36,206.32,188.2,206.23Zm10.39,6-8.13-4.69a.714.714,0,0,0-.65.03l-5.27,3.04c-.19.11-.21.28-.05.37l8.13,4.69a.714.714,0,0,0,.65-.03l5.27-3.04C198.73,212.49,198.75,212.32,198.59,212.23Zm10.39,6-8.13-4.69a.714.714,0,0,0-.65.03l-5.27,3.04c-.19.11-.21.28-.05.37l8.13,4.69a.714.714,0,0,0,.65-.03l5.27-3.04C209.12,218.49,209.14,218.32,208.98,218.23Zm10.39,6-8.13-4.69a.714.714,0,0,0-.65.03l-5.27,3.04c-.19.11-.21.28-.05.37l8.13,4.69a.714.714,0,0,0,.65-.03l5.27-3.04C219.51,224.49,219.53,224.32,219.37,224.23Zm10.39,6-8.13-4.69a.714.714,0,0,0-.65.03l-5.27,3.04c-.19.11-.21.28-.05.37l8.13,4.69a.714.714,0,0,0,.65-.03l5.27-3.04C229.9,230.49,229.92,230.32,229.76,230.23Zm10.39,6-8.13-4.69a.714.714,0,0,0-.65.03l-5.27,3.04c-.19.11-.21.28-.05.37l8.13,4.69a.714.714,0,0,0,.65-.03l5.27-3.04C240.29,236.49,240.31,236.32,240.15,236.23Zm10.39,6-8.13-4.69a.714.714,0,0,0-.65.03l-5.27,3.04c-.19.11-.21.28-.05.37l8.13,4.69a.714.714,0,0,0,.65-.03l5.27-3.04C250.68,242.49,250.7,242.32,250.54,242.23Zm10.39,6-8.13-4.69a.714.714,0,0,0-.65.03l-5.27,3.04c-.19.11-.21.28-.05.37l8.13,4.69a.714.714,0,0,0,.65-.03l5.27-3.04c.19-.11.21-.28.05-.37Zm10.39,6-8.13-4.69a.714.714,0,0,0-.65.03l-5.27,3.04c-.19.11-.21.28-.05.37l8.13,4.69a.714.714,0,0,0,.65-.03l5.27-3.04c.19-.11.21-.28.05-.37ZM146.6,182.22l-7.62-4.4a.714.714,0,0,0-.65.03l-5.27,3.04c-.19.11-.21.28-.05.37l7.63,4.4a.714.714,0,0,0,.65-.03l5.27-3.04c.19-.11.21-.28.05-.37ZM83.42,220.1,74.58,215c-.17-.1-.15-.26.05-.37l9.36-5.4a.746.746,0,0,1,.65-.03l8.84,5.1c.17.1.15.26-.05.37l-9.36,5.4A.746.746,0,0,1,83.42,220.1Zm21.4.75-8.84-5.1a.714.714,0,0,0-.65.03l-9.36,5.4c-.19.11-.21.28-.05.37l8.84,5.1a.714.714,0,0,0,.65-.03l9.36-5.4c.19-.11.21-.28.05-.37Zm11.35,6.55-8.84-5.1a.714.714,0,0,0-.65.03l-9.36,5.4c-.19.11-.21.28-.05.37l8.84,5.1a.714.714,0,0,0,.65-.03l9.36-5.4C116.31,227.66,116.33,227.49,116.17,227.4Zm11.35,6.55-8.84-5.1a.714.714,0,0,0-.65.03l-9.36,5.4c-.19.11-.21.28-.05.37l8.84,5.1a.714.714,0,0,0,.65-.03l9.36-5.4c.19-.11.21-.28.05-.37Zm62.3,35.97-8.84-5.1a.714.714,0,0,0-.65.03l-9.36,5.4c-.19.11-.21.28-.05.37l8.84,5.1a.714.714,0,0,0,.65-.03l9.36-5.4C189.96,270.18,189.98,270.01,189.82,269.92Zm11.35,6.55-8.84-5.1a.714.714,0,0,0-.65.03l-9.36,5.4c-.19.11-.21.28-.05.37l8.84,5.1a.714.714,0,0,0,.65-.03l9.36-5.4C201.31,276.73,201.33,276.56,201.17,276.47Zm11.35,6.55-8.84-5.1a.714.714,0,0,0-.65.03l-9.36,5.4c-.19.11-.21.28-.05.37l8.84,5.1a.714.714,0,0,0,.65-.03l9.36-5.4C212.66,283.28,212.68,283.11,212.52,283.02Zm11.35,6.55-8.84-5.1a.714.714,0,0,0-.65.03l-9.36,5.4c-.19.11-.21.28-.05.37l8.84,5.1a.714.714,0,0,0,.65-.03l9.36-5.4C224.01,289.83,224.03,289.66,223.87,289.57Zm11.35,6.55-8.84-5.1a.714.714,0,0,0-.65.03l-9.36,5.4c-.19.11-.21.28-.05.37l8.84,5.1a.714.714,0,0,0,.65-.03l9.36-5.4C235.36,296.38,235.38,296.21,235.22,296.12Zm11.35,6.55-8.84-5.1a.714.714,0,0,0-.65.03l-9.36,5.4c-.19.11-.21.28-.05.37l8.84,5.1a.714.714,0,0,0,.65-.03l9.36-5.4C246.71,302.93,246.73,302.76,246.57,302.67Zm11.35,6.55-8.84-5.1a.714.714,0,0,0-.65.03l-9.36,5.4c-.19.11-.21.28-.05.37l8.84,5.1a.714.714,0,0,0,.65-.03l9.36-5.4c.19-.11.21-.28.05-.37Zm-79.43-45.86-48.44-27.97a.714.714,0,0,0-.65.03l-9.36,5.4c-.19.11-.21.28-.05.37l48.44,27.97a.714.714,0,0,0,.65-.03l9.36-5.4C178.63,263.62,178.65,263.45,178.49,263.36Z" fill="#c7ebff"/>
        <path id="Trazado_116546" data-name="Trazado 116546" d="M153.48,292.62,108,266.32a1.525,1.525,0,0,1,0-2.64l16.96-9.79a4.455,4.455,0,0,1,4.44,0l45.48,26.3a1.525,1.525,0,0,1,0,2.64l-16.96,9.79a4.455,4.455,0,0,1-4.44,0Z" fill="#c7ebff"/>
        <path id="Trazado_116547" data-name="Trazado 116547" d="M118.42,285.17,95.86,272.15a.7.7,0,0,1,0-1.21l7.75-4.47a2.043,2.043,0,0,1,2.03,0l22.56,13.02a.7.7,0,0,1,0,1.21l-7.75,4.47A2.043,2.043,0,0,1,118.42,285.17Z" fill="#c7ebff"/>
        <path id="Trazado_116548" data-name="Trazado 116548" d="M143.71,299.89l-22.56-13.02a.7.7,0,0,1,0-1.21l7.75-4.47a2.043,2.043,0,0,1,2.03,0l22.56,13.02a.7.7,0,0,1,0,1.21l-7.75,4.47A2.043,2.043,0,0,1,143.71,299.89Z" fill="#c7ebff"/>
      </g>
      <path id="Trazado_116549" data-name="Trazado 116549" d="M198.5,261.87l-6.5,3.74c-2.83,1.63-7.1,1.82-9.55.41L70.81,201.6l16.67-9.69,111.68,64.47c2.45,1.39,2.14,3.86-.67,5.49Z" fill="#bdbdbd" opacity="0.35"/>
      <g id="Grupo_112193" data-name="Grupo 112193">
        <path id="Trazado_116550" data-name="Trazado 116550" d="M183.13,58.72l-5.97-3.44A3.572,3.572,0,0,1,175.68,52h0c.14-1.26,1.04-1.83,2-1.28l5.97,3.44a3.572,3.572,0,0,1,1.48,3.28h0C184.99,58.7,184.09,59.27,183.13,58.72Z" fill="#006eff"/>
        <path id="Trazado_116551" data-name="Trazado 116551" d="M174.01,138.65l-5.97-3.44a3.572,3.572,0,0,1-1.48-3.28h0c.14-1.26,1.04-1.83,2-1.28l5.97,3.44a3.572,3.572,0,0,1,1.48,3.28h0C175.87,138.63,174.97,139.2,174.01,138.65Z" fill="#006eff"/>
        <path id="Trazado_116552" data-name="Trazado 116552" d="M190.8,148.35l-11.95-6.9a3.572,3.572,0,0,1-1.48-3.28h0c.14-1.26,1.04-1.83,2-1.28l11.95,6.9a3.572,3.572,0,0,1,1.48,3.28h0C192.66,148.33,191.76,148.9,190.8,148.35Z" fill="#b3d4ff"/>
        <path id="Trazado_116553" data-name="Trazado 116553" d="M233.89,173.22l-38.17-22.04a3.572,3.572,0,0,1-1.48-3.28h0c.14-1.26,1.04-1.83,2-1.28l38.17,22.04a3.572,3.572,0,0,1,1.48,3.28h0C235.75,173.2,234.85,173.77,233.89,173.22Z" fill="#ffad66"/>
        <path id="Trazado_116554" data-name="Trazado 116554" d="M206.69,72.32,188.6,61.87a3.572,3.572,0,0,1-1.48-3.28h0c.14-1.26,1.04-1.83,2-1.28l18.09,10.45a3.572,3.572,0,0,1,1.48,3.28h0C208.55,72.3,207.65,72.87,206.69,72.32Z" fill="#b3d4ff"/>
        <path id="Trazado_116555" data-name="Trazado 116555" d="M266.63,106.93,212.22,75.52a3.572,3.572,0,0,1-1.48-3.28h0c.14-1.26,1.04-1.83,2-1.28l54.41,31.41a3.572,3.572,0,0,1,1.48,3.28h0c-.14,1.26-1.04,1.83-2,1.28Z" fill="#ffad66"/>
        <path id="Trazado_116556" data-name="Trazado 116556" d="M187.86,69.78l-5.97-3.44a3.572,3.572,0,0,1-1.48-3.28h0c.14-1.26,1.04-1.83,2-1.28l5.97,3.44a3.572,3.572,0,0,1,1.48,3.28h0C189.72,69.76,188.82,70.33,187.86,69.78Z" fill="#006eff"/>
        <path id="Trazado_116557" data-name="Trazado 116557" d="M211.42,83.38,193.33,72.93a3.572,3.572,0,0,1-1.48-3.28h0c.14-1.26,1.04-1.83,2-1.28l18.09,10.45a3.572,3.572,0,0,1,1.48,3.28h0C213.28,83.36,212.38,83.93,211.42,83.38Z" fill="#b3d4ff"/>
        <path id="Trazado_116558" data-name="Trazado 116558" d="M271.36,117.99,216.95,86.58a3.572,3.572,0,0,1-1.48-3.28h0c.14-1.26,1.04-1.83,2-1.28l54.41,31.41a3.572,3.572,0,0,1,1.48,3.28h0c-.14,1.26-1.04,1.83-2,1.28Z" fill="#ffad66"/>
        <path id="Trazado_116559" data-name="Trazado 116559" d="M186.89,78.24l-5.97-3.44a3.572,3.572,0,0,1-1.48-3.28h0c.14-1.26,1.04-1.83,2-1.28l5.97,3.44a3.572,3.572,0,0,1,1.48,3.28h0C188.75,78.22,187.85,78.79,186.89,78.24Z" fill="#006eff"/>
        <path id="Trazado_116560" data-name="Trazado 116560" d="M185.98,86.28l-5.97-3.44a3.572,3.572,0,0,1-1.48-3.28h0c.14-1.26,1.04-1.83,2-1.28l5.97,3.44A3.572,3.572,0,0,1,187.98,85h0C187.84,86.26,186.94,86.83,185.98,86.28Z" fill="#006eff"/>
        <path id="Trazado_116561" data-name="Trazado 116561" d="M182.28,118.67l-5.97-3.44a3.572,3.572,0,0,1-1.48-3.28h0c.14-1.26,1.04-1.83,2-1.28l5.97,3.44a3.572,3.572,0,0,1,1.48,3.28h0C184.14,118.65,183.24,119.22,182.28,118.67Z" fill="#006eff"/>
        <path id="Trazado_116562" data-name="Trazado 116562" d="M181.38,126.56l-5.97-3.44a3.572,3.572,0,0,1-1.48-3.28h0c.14-1.26,1.04-1.83,2-1.28L181.9,122a3.572,3.572,0,0,1,1.48,3.28h0C183.24,126.54,182.34,127.11,181.38,126.56Z" fill="#006eff"/>
        <path id="Trazado_116563" data-name="Trazado 116563" d="M178.82,149.06l-5.97-3.44a3.572,3.572,0,0,1-1.48-3.28h0c.14-1.26,1.04-1.83,2-1.28l5.97,3.44a3.572,3.572,0,0,1,1.48,3.28h0C180.68,149.04,179.78,149.61,178.82,149.06Z" fill="#006eff"/>
        <path id="Trazado_116564" data-name="Trazado 116564" d="M195.12,158.48l-11.61-6.7a3.572,3.572,0,0,1-1.48-3.28h0c.14-1.26,1.04-1.83,2-1.28l11.61,6.7a3.572,3.572,0,0,1,1.48,3.28h0C196.98,158.46,196.08,159.03,195.12,158.48Z" fill="#b3d4ff"/>
        <path id="Trazado_116565" data-name="Trazado 116565" d="M240.13,184.46l-39.68-22.91a3.572,3.572,0,0,1-1.48-3.28h0c.14-1.26,1.04-1.83,2-1.28l39.68,22.91a3.572,3.572,0,0,1,1.48,3.28h0c-.14,1.26-1.04,1.83-2,1.28Z" fill="#ffad66"/>
        <path id="Trazado_116566" data-name="Trazado 116566" d="M263.95,174.23l-5.97-3.44a3.572,3.572,0,0,1-1.48-3.28h0c.14-1.26,1.04-1.83,2-1.28l5.97,3.44a3.572,3.572,0,0,1,1.48,3.28h0C265.81,174.21,264.91,174.78,263.95,174.23Z" fill="#006eff"/>
        <path id="Trazado_116567" data-name="Trazado 116567" d="M181.8,91.44,175.83,88a3.572,3.572,0,0,1-1.48-3.28h0c.14-1.26,1.04-1.83,2-1.28l5.97,3.44a3.572,3.572,0,0,1,1.48,3.28h0C183.66,91.42,182.76,91.99,181.8,91.44Z" fill="#006eff"/>
        <path id="Trazado_116568" data-name="Trazado 116568" d="M198.3,100.97l-11.42-6.59a3.572,3.572,0,0,1-1.48-3.28h0c.14-1.26,1.04-1.83,2-1.28l11.42,6.59a3.572,3.572,0,0,1,1.48,3.28h0C200.16,100.95,199.26,101.52,198.3,100.97Z" fill="#b3d4ff"/>
        <path id="Trazado_116569" data-name="Trazado 116569" d="M259.69,136.41l-8.06-4.65a3.572,3.572,0,0,1-1.48-3.28h0c.14-1.26,1.04-1.83,2-1.28l8.06,4.65a3.572,3.572,0,0,1,1.48,3.28h0c-.14,1.26-1.04,1.83-2,1.28Z" fill="#b3d4ff"/>
        <path id="Trazado_116570" data-name="Trazado 116570" d="M222.03,114.67l-18.57-10.72a3.572,3.572,0,0,1-1.48-3.28h0c.14-1.26,1.04-1.83,2-1.28l18.57,10.72a3.572,3.572,0,0,1,1.48,3.28h0c-.14,1.26-1.04,1.83-2,1.28Z" fill="#ffad66"/>
        <path id="Trazado_116571" data-name="Trazado 116571" d="M180.8,100.23l-5.97-3.44a3.572,3.572,0,0,1-1.48-3.28h0c.14-1.26,1.04-1.83,2-1.28l5.97,3.44a3.572,3.572,0,0,1,1.48,3.28h0C182.66,100.21,181.76,100.78,180.8,100.23Z" fill="#006eff"/>
        <path id="Trazado_116572" data-name="Trazado 116572" d="M177.14,132.31l-5.97-3.44a3.572,3.572,0,0,1-1.48-3.28h0c.14-1.26,1.04-1.83,2-1.28l5.97,3.44a3.572,3.572,0,0,1,1.48,3.28h0C179,132.29,178.1,132.86,177.14,132.31Z" fill="#006eff"/>
        <path id="Trazado_116573" data-name="Trazado 116573" d="M197.3,109.76l-11.42-6.59a3.572,3.572,0,0,1-1.48-3.28h0c.14-1.26,1.04-1.83,2-1.28l11.42,6.59a3.572,3.572,0,0,1,1.48,3.28h0c-.14,1.26-1.04,1.83-2,1.28Z" fill="#b3d4ff"/>
        <path id="Trazado_116574" data-name="Trazado 116574" d="M194.52,134.14l-7.58-4.37a3.572,3.572,0,0,1-1.48-3.28h0c.14-1.26,1.04-1.83,2-1.28l7.58,4.37a3.572,3.572,0,0,1,1.48,3.28h0C196.38,134.12,195.48,134.69,194.52,134.14Z" fill="#b3d4ff"/>
        <path id="Trazado_116575" data-name="Trazado 116575" d="M226.94,152.86l-7.57-4.37a3.572,3.572,0,0,1-1.48-3.28h0c.14-1.26,1.04-1.83,2-1.28l7.57,4.37a3.572,3.572,0,0,1,1.48,3.28h0C228.8,152.84,227.9,153.41,226.94,152.86Z" fill="#b3d4ff"/>
        <path id="Trazado_116576" data-name="Trazado 116576" d="M280.55,167.37,179.96,109.3a3.572,3.572,0,0,1-1.48-3.28h0c.14-1.26,1.04-1.83,2-1.28l100.59,58.07a3.572,3.572,0,0,1,1.48,3.28h0c-.14,1.26-1.04,1.83-2,1.28Z" fill="#f2f2f2"/>
        <path id="Trazado_116577" data-name="Trazado 116577" d="M216.8,121.02l-14.35-8.28a3.572,3.572,0,0,1-1.48-3.28h0c.14-1.26,1.04-1.83,2-1.28l14.35,8.28a3.572,3.572,0,0,1,1.48,3.28h0C218.66,121,217.76,121.57,216.8,121.02Z" fill="#ffad66"/>
        <path id="Trazado_116578" data-name="Trazado 116578" d="M214.02,145.4l-14.35-8.28a3.572,3.572,0,0,1-1.48-3.28h0c.14-1.26,1.04-1.83,2-1.28l14.35,8.28a3.572,3.572,0,0,1,1.48,3.28h0C215.88,145.38,214.98,145.95,214.02,145.4Z" fill="#ffad66"/>
        <path id="Trazado_116579" data-name="Trazado 116579" d="M252.64,167.7l-20.26-11.69a3.572,3.572,0,0,1-1.48-3.28h0c.14-1.26,1.04-1.83,2-1.28l20.26,11.69a3.572,3.572,0,0,1,1.48,3.28h0C254.5,167.68,253.6,168.25,252.64,167.7Z" fill="#f2f2f2"/>
        <path id="Trazado_116580" data-name="Trazado 116580" d="M246.67,128.89,228.1,118.17a3.572,3.572,0,0,1-1.48-3.28h0c.14-1.26,1.04-1.83,2-1.28l18.57,10.72a3.572,3.572,0,0,1,1.48,3.28h0C248.53,128.87,247.63,129.44,246.67,128.89Z" fill="#f2f2f2"/>
        <path id="Trazado_116581" data-name="Trazado 116581" d="M210.45,91.85,192.36,81.4a3.572,3.572,0,0,1-1.48-3.28h0c.14-1.26,1.04-1.83,2-1.28l18.09,10.45a3.572,3.572,0,0,1,1.48,3.28h0C212.31,91.83,211.41,92.4,210.45,91.85Z" fill="#b3d4ff"/>
        <path id="Trazado_116582" data-name="Trazado 116582" d="M249.36,114.31l-18.09-10.45a3.572,3.572,0,0,1-1.48-3.28h0c.14-1.26,1.04-1.83,2-1.28l18.09,10.45a3.572,3.572,0,0,1,1.48,3.28h0C251.22,114.29,250.32,114.86,249.36,114.31Z" fill="#b3d4ff"/>
        <path id="Trazado_116583" data-name="Trazado 116583" d="M225.15,100.33l-9.16-5.29a3.572,3.572,0,0,1-1.48-3.28h0c.14-1.26,1.04-1.83,2-1.28l9.16,5.29a3.572,3.572,0,0,1,1.48,3.28h0C227.01,100.31,226.11,100.88,225.15,100.33Z" fill="#ffad66"/>
        <path id="Trazado_116584" data-name="Trazado 116584" d="M285.02,134.9l-29.55-17.06a3.572,3.572,0,0,1-1.48-3.28h0c.14-1.26,1.04-1.83,2-1.28l29.55,17.06a3.572,3.572,0,0,1,1.48,3.28h0C286.88,134.88,285.98,135.45,285.02,134.9Z" fill="#ffad66"/>
        <path id="Trazado_116585" data-name="Trazado 116585" d="M178,156.22l-5.97-3.44a3.572,3.572,0,0,1-1.48-3.28h0c.14-1.26,1.04-1.83,2-1.28l5.97,3.44a3.572,3.572,0,0,1,1.48,3.28h0C179.86,156.2,178.96,156.77,178,156.22Z" fill="#006eff"/>
        <path id="Trazado_116586" data-name="Trazado 116586" d="M201.56,169.83l-18.09-10.45a3.572,3.572,0,0,1-1.48-3.28h0c.14-1.26,1.04-1.83,2-1.28l18.09,10.45a3.572,3.572,0,0,1,1.48,3.28h0C203.42,169.81,202.52,170.38,201.56,169.83Z" fill="#b3d4ff"/>
        <path id="Trazado_116587" data-name="Trazado 116587" d="M240.47,192.29l-18.09-10.45a3.572,3.572,0,0,1-1.48-3.28h0c.14-1.26,1.04-1.83,2-1.28l18.09,10.45a3.572,3.572,0,0,1,1.48,3.28h0C242.33,192.27,241.43,192.84,240.47,192.29Z" fill="#b3d4ff"/>
        <path id="Trazado_116588" data-name="Trazado 116588" d="M216.26,178.31l-9.16-5.29a3.572,3.572,0,0,1-1.48-3.28h0c.14-1.26,1.04-1.83,2-1.28l9.16,5.29a3.572,3.572,0,0,1,1.48,3.28h0C218.12,178.29,217.22,178.86,216.26,178.31Z" fill="#ffad66"/>
        <path id="Trazado_116589" data-name="Trazado 116589" d="M276.13,212.88l-29.55-17.06a3.572,3.572,0,0,1-1.48-3.28h0c.14-1.26,1.04-1.83,2-1.28l29.55,17.06a3.572,3.572,0,0,1,1.48,3.28h0C277.99,212.86,277.09,213.43,276.13,212.88Z" fill="#ffad66"/>
      </g>
      <g id="Grupo_112197" data-name="Grupo 112197">
        <g id="Grupo_112194" data-name="Grupo 112194">
          <path id="Trazado_116590" data-name="Trazado 116590" d="M216.75,111.63,34.37,6.34a1.931,1.931,0,0,0-1.95-.19L26.45,9.62a1.931,1.931,0,0,1,1.95.19L210.78,115.1a6.025,6.025,0,0,1,2.72,4.7l-.39,135.93a1.912,1.912,0,0,1-.8,1.75l5.97-3.47a1.922,1.922,0,0,0,.8-1.75l.39-135.93a5.967,5.967,0,0,0-2.72-4.7Z" fill="#12263f"/>
          <path id="Trazado_116591" data-name="Trazado 116591" d="M213.51,119.79l-.03,13.99-.36,121.94c0,1.73-1.22,2.42-2.73,1.56L28.03,151.98a5.973,5.973,0,0,1-2.73-4.71l.34-121.94.03-13.99c.02-1.73,1.24-2.42,2.74-1.56L210.8,115.08a6.06,6.06,0,0,1,2.71,4.71Z" fill="#084a93"/>
          <path id="Trazado_116592" data-name="Trazado 116592" d="M210.19,120.29l-.04,13.46-.34,117.66c0,1.64-1.19,2.31-2.65,1.49L66.62,171.77,31.24,151.34a5.881,5.881,0,0,1-2.61-4.55l.34-117.62.04-13.5c0-1.68,1.19-2.35,2.65-1.53L66.63,34.35l140.95,81.39A5.837,5.837,0,0,1,210.19,120.29Z" fill="#e8e8e8"/>
          <path id="Trazado_116593" data-name="Trazado 116593" d="M66.62,34.36V171.77L31.24,151.34a5.881,5.881,0,0,1-2.61-4.55l.34-117.62.04-13.5c0-1.68,1.19-2.35,2.65-1.53L66.63,34.35Z" fill="#ffb30b"/>
          <path id="Trazado_116594" data-name="Trazado 116594" d="M213.51,119.79l-.03,13.99L25.64,25.33l.03-13.99c.02-1.73,1.24-2.42,2.74-1.56L210.8,115.08a6.06,6.06,0,0,1,2.71,4.71Z" fill="#084a93"/>
        </g>
        <g id="Grupo_112195" data-name="Grupo 112195">
          <path id="Trazado_116595" data-name="Trazado 116595" d="M54.16,33.73a8.524,8.524,0,0,0,3.87,6.67c2.14,1.23,3.87.25,3.87-2.2a8.524,8.524,0,0,0-3.87-6.67C55.9,30.3,54.16,31.28,54.16,33.73Z" fill="#006eff"/>
          <path id="Trazado_116596" data-name="Trazado 116596" d="M43.36,27.5a8.524,8.524,0,0,0,3.87,6.67c2.14,1.23,3.87.25,3.87-2.2a8.524,8.524,0,0,0-3.87-6.67c-2.13-1.23-3.87-.25-3.87,2.2Z" fill="#006eff"/>
          <path id="Trazado_116597" data-name="Trazado 116597" d="M32.55,21.26a8.524,8.524,0,0,0,3.87,6.67c2.14,1.23,3.87.25,3.87-2.2a8.524,8.524,0,0,0-3.87-6.67C34.29,17.83,32.55,18.81,32.55,21.26Z" fill="#006eff"/>
        </g>
        <g id="Grupo_112196" data-name="Grupo 112196">
          <path id="Trazado_116598" data-name="Trazado 116598" d="M200.82,225.38l-54.55-31.5a4.274,4.274,0,0,1-1.79-3.41V175.39c0-1.32.8-1.92,1.79-1.35l54.55,31.5a4.274,4.274,0,0,1,1.79,3.41v15.08C202.61,225.35,201.81,225.95,200.82,225.38Z" fill="#006eff"/>
          <path id="Trazado_116599" data-name="Trazado 116599" d="M81.77,81.57c0,1.79-1.26,2.51-2.82,1.61a6.215,6.215,0,0,1-2.82-4.87c0-1.79,1.26-2.51,2.82-1.61A6.215,6.215,0,0,1,81.77,81.57Z" fill="#fff"/>
          <path id="Trazado_116600" data-name="Trazado 116600" d="M133.07,113.55,88.14,87.61a3.921,3.921,0,0,1-1.64-3.14h0c0-1.21.73-1.76,1.64-1.24l44.93,25.94a3.921,3.921,0,0,1,1.64,3.14h0C134.71,113.52,133.98,114.07,133.07,113.55Z" fill="#fff"/>
          <path id="Trazado_116601" data-name="Trazado 116601" d="M133,167.6,77.77,135.71a3.921,3.921,0,0,1-1.64-3.14h0c0-1.21.74-1.76,1.64-1.24L133,163.22a3.921,3.921,0,0,1,1.64,3.14h0C134.64,167.57,133.91,168.12,133,167.6Z" fill="#fff"/>
          <path id="Trazado_116602" data-name="Trazado 116602" d="M133,176.71,77.77,144.82a3.921,3.921,0,0,1-1.64-3.14h0c0-1.21.74-1.76,1.64-1.24L133,172.33a3.921,3.921,0,0,1,1.64,3.14h0C134.64,176.68,133.91,177.23,133,176.71Z" fill="#fff"/>
          <path id="Trazado_116603" data-name="Trazado 116603" d="M133,186.22,77.77,154.33a3.921,3.921,0,0,1-1.64-3.14h0c0-1.21.74-1.76,1.64-1.24L133,181.84a3.921,3.921,0,0,1,1.64,3.14h0C134.64,186.19,133.91,186.74,133,186.22Z" fill="#fff"/>
          <path id="Trazado_116604" data-name="Trazado 116604" d="M201.5,199.98l-55.23-31.89a3.921,3.921,0,0,1-1.64-3.14h0c0-1.21.73-1.76,1.64-1.24L201.5,195.6a3.921,3.921,0,0,1,1.64,3.14h0C203.14,199.95,202.41,200.5,201.5,199.98Z" fill="#fff"/>
          <path id="Trazado_116605" data-name="Trazado 116605" d="M201.5,190.76l-55.23-31.89a3.921,3.921,0,0,1-1.64-3.14h0c0-1.21.73-1.76,1.64-1.24l55.23,31.89a3.921,3.921,0,0,1,1.64,3.14h0C203.14,190.73,202.41,191.28,201.5,190.76Z" fill="#fff"/>
          <path id="Trazado_116606" data-name="Trazado 116606" d="M201.5,152.94l-55.23-31.89a3.921,3.921,0,0,1-1.64-3.14h0c0-1.21.73-1.76,1.64-1.24l55.23,31.89a3.921,3.921,0,0,1,1.64,3.14h0C203.14,152.91,202.41,153.46,201.5,152.94Z" fill="#fff"/>
          <path id="Trazado_116607" data-name="Trazado 116607" d="M106.94,142.23,77.97,125.5a4.4,4.4,0,0,1-1.84-3.52V89.42c0-1.36.82-1.98,1.84-1.39l28.97,16.73a4.4,4.4,0,0,1,1.84,3.52v32.56C108.78,142.2,107.96,142.82,106.94,142.23Z" fill="#006eff"/>
          <path id="Trazado_116608" data-name="Trazado 116608" d="M59.84,88.26,34.15,73.43a3.916,3.916,0,0,1-1.63-3.12V41.44c0-1.2.73-1.75,1.63-1.23L59.84,55.04a3.916,3.916,0,0,1,1.63,3.12V87.03c0,1.2-.73,1.75-1.63,1.23Z" fill="#fff"/>
          <path id="Trazado_116609" data-name="Trazado 116609" d="M59.84,97.18,34.15,82.35a3.916,3.916,0,0,1-1.63-3.12v.11c0-1.2.73-1.75,1.63-1.23L59.84,92.94a3.916,3.916,0,0,1,1.63,3.12v-.11c0,1.2-.73,1.75-1.63,1.23Z" fill="#fff"/>
          <path id="Trazado_116610" data-name="Trazado 116610" d="M59.84,145.33,34.15,130.5a3.916,3.916,0,0,1-1.63-3.12v.11c0-1.2.73-1.75,1.63-1.23l25.69,14.83a3.916,3.916,0,0,1,1.63,3.12v-.11c0,1.2-.73,1.75-1.63,1.23Z" fill="#fff"/>
          <path id="Trazado_116611" data-name="Trazado 116611" d="M59.84,154.34,34.15,139.51a3.916,3.916,0,0,1-1.63-3.12v.11c0-1.2.73-1.75,1.63-1.23L59.84,150.1a3.916,3.916,0,0,1,1.63,3.12v-.11c0,1.2-.73,1.75-1.63,1.23Z" fill="#fff"/>
          <path id="Trazado_116612" data-name="Trazado 116612" d="M59.84,163.35,34.15,148.52a3.916,3.916,0,0,1-1.63-3.12v.11c0-1.2.73-1.75,1.63-1.23l25.69,14.83a3.916,3.916,0,0,1,1.63,3.12v-.11c0,1.2-.73,1.75-1.63,1.23Z" fill="#fff"/>
          <path id="Trazado_116613" data-name="Trazado 116613" d="M200.82,178.81l-54.55-31.5a4.274,4.274,0,0,1-1.79-3.41V128.82c0-1.32.8-1.92,1.79-1.35l54.55,31.5a4.274,4.274,0,0,1,1.79,3.41v15.08c0,1.32-.8,1.92-1.79,1.35Z" fill="#006eff"/>
        </g>
      </g>
    </g>
  </g>
</svg>
