<svg xmlns="http://www.w3.org/2000/svg" width="298.888" height="464.863" viewBox="0 0 298.888 464.863">
  <g id="Grupo_114856" data-name="Grupo 114856" transform="translate(-285 -2266)">
    <g id="_1_2_A" data-name="1_2_A" transform="translate(285 2266)">
      <g id="Grupo_112340" data-name="Grupo 112340" transform="translate(65.897 0)">
        <path id="Trazado_116876" data-name="Trazado 116876" d="M360.441,317.549l-10.067-5.818c-2.105-1.212-5.78-1.059-8.2.345l-19.189,11.087-133.6-77.126,19.521-11.279c2.424-1.4,2.692-3.521.587-4.733l-10.067-5.818c-2.105-1.212-5.78-1.059-8.2.345l-55.539,32.1c-2.424,1.4-2.692,3.521-.587,4.734l10.067,5.818c2.105,1.212,5.78,1.059,8.2-.344l26.717-15.438,133.6,77.126L286.619,344.19c-2.424,1.4-2.692,3.521-.587,4.733l10.067,5.818c2.105,1.212,5.78,1.059,8.2-.344l55.539-32.1c2.424-1.4,2.692-3.521.587-4.734Z" transform="translate(-128.858 61.231)" fill="#f2f2f2"/>
        <g id="Grupo_112317" data-name="Grupo 112317" transform="translate(9.62 96.596)">
          <g id="Grupo_112310" data-name="Grupo 112310" transform="translate(0 210.177)">
            <g id="Grupo_112307" data-name="Grupo 112307">
              <path id="Trazado_116877" data-name="Trazado 116877" d="M141.421,254.274l-2.577-1.493a3.365,3.365,0,0,1-1.4-3.075,10.528,10.528,0,0,1,4.785-8.293,3.366,3.366,0,0,1,3.419-.332l2.577,1.493a3.4,3.4,0,0,0-3.419.332,10.534,10.534,0,0,0-4.785,8.293A3.324,3.324,0,0,0,141.421,254.274Z" transform="translate(-137.44 -240.752)" fill="#bfbfbf"/>
              <path id="Trazado_116878" data-name="Trazado 116878" d="M144.28,253.619c-2.654,1.531-4.81.293-4.81-2.743a10.528,10.528,0,0,1,4.784-8.293c2.654-1.531,4.823-.306,4.823,2.756a10.547,10.547,0,0,1-4.8,8.293Z" transform="translate(-136.88 -240.429)" fill="#898989"/>
            </g>
            <g id="Grupo_112308" data-name="Grupo 112308" transform="translate(2.539 1.467)">
              <path id="Trazado_116879" data-name="Trazado 116879" d="M143.411,255.424l-2.577-1.493a3.365,3.365,0,0,1-1.4-3.075,10.547,10.547,0,0,1,4.785-8.293,3.366,3.366,0,0,1,3.419-.332l2.577,1.493a3.4,3.4,0,0,0-3.419.332,10.534,10.534,0,0,0-4.785,8.293A3.324,3.324,0,0,0,143.411,255.424Z" transform="translate(-139.43 -241.902)" fill="#262626"/>
              <path id="Trazado_116880" data-name="Trazado 116880" d="M146.27,254.769c-2.654,1.531-4.81.293-4.81-2.743a10.528,10.528,0,0,1,4.785-8.293c2.654-1.531,4.823-.306,4.823,2.756a10.547,10.547,0,0,1-4.8,8.293Z" transform="translate(-138.87 -241.579)" fill="#898989"/>
            </g>
            <g id="Grupo_112309" data-name="Grupo 112309" transform="translate(5.129 2.96)">
              <path id="Trazado_116881" data-name="Trazado 116881" d="M145.441,256.594l-2.577-1.493a3.365,3.365,0,0,1-1.4-3.075,10.528,10.528,0,0,1,4.785-8.293,3.366,3.366,0,0,1,3.419-.332l2.577,1.493a3.4,3.4,0,0,0-3.419.332,10.534,10.534,0,0,0-4.785,8.293A3.324,3.324,0,0,0,145.441,256.594Z" transform="translate(-141.46 -243.072)" fill="#bfbfbf"/>
              <path id="Trazado_116882" data-name="Trazado 116882" d="M148.3,255.939c-2.654,1.531-4.81.294-4.81-2.743a10.528,10.528,0,0,1,4.785-8.293c2.654-1.531,4.823-.306,4.823,2.756a10.547,10.547,0,0,1-4.8,8.293Z" transform="translate(-140.9 -242.749)" fill="#898989"/>
            </g>
          </g>
          <g id="Grupo_112314" data-name="Grupo 112314" transform="translate(46.761 183.192)">
            <g id="Grupo_112311" data-name="Grupo 112311">
              <path id="Trazado_116883" data-name="Trazado 116883" d="M178.071,233.124l-2.577-1.493a3.365,3.365,0,0,1-1.4-3.075,10.528,10.528,0,0,1,4.785-8.293,3.366,3.366,0,0,1,3.419-.332l2.577,1.493a3.4,3.4,0,0,0-3.419.332,10.533,10.533,0,0,0-4.784,8.293A3.338,3.338,0,0,0,178.071,233.124Z" transform="translate(-174.09 -219.602)" fill="#bfbfbf"/>
              <path id="Trazado_116884" data-name="Trazado 116884" d="M180.92,232.469c-2.654,1.531-4.81.293-4.81-2.743a10.528,10.528,0,0,1,4.785-8.293c2.654-1.531,4.823-.306,4.823,2.756a10.547,10.547,0,0,1-4.8,8.293Z" transform="translate(-173.533 -219.279)" fill="#898989"/>
            </g>
            <g id="Grupo_112312" data-name="Grupo 112312" transform="translate(2.539 1.467)">
              <path id="Trazado_116885" data-name="Trazado 116885" d="M180.061,234.274l-2.577-1.493a3.365,3.365,0,0,1-1.4-3.075,10.528,10.528,0,0,1,4.784-8.293,3.366,3.366,0,0,1,3.419-.332l2.577,1.493a3.4,3.4,0,0,0-3.419.332,10.534,10.534,0,0,0-4.785,8.293A3.338,3.338,0,0,0,180.061,234.274Z" transform="translate(-176.08 -220.752)" fill="#262626"/>
              <path id="Trazado_116886" data-name="Trazado 116886" d="M182.91,233.619c-2.654,1.531-4.81.293-4.81-2.743a10.528,10.528,0,0,1,4.784-8.293c2.654-1.531,4.823-.306,4.823,2.756a10.547,10.547,0,0,1-4.8,8.293Z" transform="translate(-175.523 -220.429)" fill="#898989"/>
            </g>
            <g id="Grupo_112313" data-name="Grupo 112313" transform="translate(5.129 2.96)">
              <path id="Trazado_116887" data-name="Trazado 116887" d="M182.091,235.444l-2.577-1.493a3.365,3.365,0,0,1-1.4-3.075,10.528,10.528,0,0,1,4.785-8.293,3.366,3.366,0,0,1,3.419-.332l2.577,1.493a3.4,3.4,0,0,0-3.419.332,10.533,10.533,0,0,0-4.785,8.293A3.338,3.338,0,0,0,182.091,235.444Z" transform="translate(-178.11 -221.922)" fill="#bfbfbf"/>
              <path id="Trazado_116888" data-name="Trazado 116888" d="M184.94,234.789c-2.654,1.531-4.81.293-4.81-2.743a10.528,10.528,0,0,1,4.784-8.293c2.654-1.531,4.823-.306,4.823,2.756a10.547,10.547,0,0,1-4.8,8.293Z" transform="translate(-177.553 -221.599)" fill="#898989"/>
            </g>
          </g>
          <g id="Grupo_112315" data-name="Grupo 112315" transform="translate(1.659 169.678)">
            <path id="Trazado_116889" data-name="Trazado 116889" d="M183.5,226.232l-7.77-4.516-.013-5.805,7.77,4.517Z" transform="translate(-128.538 -207.106)" fill="#d9d9d9"/>
            <path id="Trazado_116890" data-name="Trazado 116890" d="M171.63,213.527l-7.77-4.517,20.337,3.547,7.77,4.517Z" transform="translate(-131.81 -209.01)" fill="#e6e6e6"/>
            <path id="Trazado_116891" data-name="Trazado 116891" d="M162.39,220.34l-7.77-4.517,11.789-6.813,7.77,4.517Z" transform="translate(-134.359 -209.01)" fill="#f2f2f2"/>
            <path id="Trazado_116892" data-name="Trazado 116892" d="M146.523,245.851l-7.783-4.517L159,214.35l7.77,4.517Z" transform="translate(-138.74 -207.537)" fill="#e6e6e6"/>
            <path id="Trazado_116893" data-name="Trazado 116893" d="M146.548,248.067l-7.783-4.517-.026-8.051,7.783,4.517Z" transform="translate(-138.74 -201.702)" fill="#d9d9d9"/>
            <path id="Trazado_116894" data-name="Trazado 116894" d="M176.877,212.55l20.337,3.547.026,8.051-5.218,3.011-.013-5.805L176.9,218.725l-11.8,6.813L150.058,245.57l.025,5.805-5.218,3.024-.026-8.051,20.248-26.985Z" transform="translate(-137.057 -208.033)" fill="#a6a6a6"/>
          </g>
          <g id="Grupo_112316" data-name="Grupo 112316" transform="translate(26.717)">
            <path id="Trazado_116895" data-name="Trazado 116895" d="M168.332,78.306v172.2a2.447,2.447,0,0,1-1.454,2.016,7.757,7.757,0,0,1-7.03,0,2.489,2.489,0,0,1-1.467-2.054V78.28a2.522,2.522,0,0,0,1.48,2.054,7.757,7.757,0,0,0,7.03,0,2.471,2.471,0,0,0,1.442-2.016Z" transform="translate(-158.38 -75.397)" fill="#d9d9d9"/>
            <path id="Trazado_116896" data-name="Trazado 116896" d="M166.873,76.875c1.939,1.123,1.952,2.947.026,4.07a7.757,7.757,0,0,1-7.03,0c-1.952-1.123-1.965-2.947-.026-4.083a7.757,7.757,0,0,1,7.03,0Z" transform="translate(-158.376 -76.02)" fill="#898989"/>
          </g>
        </g>
        <g id="Grupo_112318" data-name="Grupo 112318" transform="translate(40.42 184.861)">
          <path id="Trazado_116897" data-name="Trazado 116897" d="M311.737,240.15,162.613,154.042a2.478,2.478,0,0,1-1.033-2.258,7.784,7.784,0,0,1,3.509-6.1,2.481,2.481,0,0,1,2.513-.242l149.124,86.108a2.511,2.511,0,0,0-2.513.242,7.75,7.75,0,0,0-3.509,6.1A2.451,2.451,0,0,0,311.737,240.15Z" transform="translate(-161.58 -145.2)" fill="#f2f2f2"/>
          <path id="Trazado_116898" data-name="Trazado 116898" d="M282,221.289c-1.939,1.123-3.534.217-3.534-2.016a7.785,7.785,0,0,1,3.509-6.1c1.952-1.123,3.534-.23,3.547,2.016A7.76,7.76,0,0,1,282,221.277Z" transform="translate(-129.334 -126.582)" fill="#898989"/>
        </g>
        <g id="Grupo_112329" data-name="Grupo 112329" transform="translate(162.278 184.682)">
          <g id="Grupo_112322" data-name="Grupo 112322" transform="translate(0 210.164)">
            <g id="Grupo_112319" data-name="Grupo 112319">
              <path id="Trazado_116899" data-name="Trazado 116899" d="M261.071,323.3l-2.577-1.493a3.365,3.365,0,0,1-1.4-3.075,10.528,10.528,0,0,1,4.784-8.293,3.366,3.366,0,0,1,3.419-.332l2.577,1.493a3.4,3.4,0,0,0-3.419.332,10.533,10.533,0,0,0-4.785,8.293A3.324,3.324,0,0,0,261.071,323.3Z" transform="translate(-257.09 -309.782)" fill="#bfbfbf"/>
              <path id="Trazado_116900" data-name="Trazado 116900" d="M263.93,322.649c-2.654,1.531-4.81.294-4.81-2.743a10.529,10.529,0,0,1,4.784-8.293c2.654-1.531,4.823-.306,4.823,2.756a10.547,10.547,0,0,1-4.8,8.293Z" transform="translate(-256.53 -309.459)" fill="#898989"/>
            </g>
            <g id="Grupo_112320" data-name="Grupo 112320" transform="translate(2.539 1.467)">
              <path id="Trazado_116901" data-name="Trazado 116901" d="M263.061,324.454l-2.577-1.493a3.365,3.365,0,0,1-1.4-3.075,10.529,10.529,0,0,1,4.784-8.293,3.366,3.366,0,0,1,3.419-.332l2.577,1.493a3.4,3.4,0,0,0-3.419.332,10.534,10.534,0,0,0-4.784,8.293A3.324,3.324,0,0,0,263.061,324.454Z" transform="translate(-259.08 -310.932)" fill="#262626"/>
              <path id="Trazado_116902" data-name="Trazado 116902" d="M265.92,323.8c-2.654,1.531-4.81.294-4.81-2.743a10.528,10.528,0,0,1,4.785-8.293c2.654-1.531,4.823-.306,4.823,2.756a10.547,10.547,0,0,1-4.8,8.293Z" transform="translate(-258.52 -310.609)" fill="#898989"/>
            </g>
            <g id="Grupo_112321" data-name="Grupo 112321" transform="translate(5.129 2.96)">
              <path id="Trazado_116903" data-name="Trazado 116903" d="M265.091,325.624l-2.577-1.493a3.365,3.365,0,0,1-1.4-3.075,10.528,10.528,0,0,1,4.785-8.293,3.366,3.366,0,0,1,3.419-.332l2.577,1.493a3.4,3.4,0,0,0-3.419.332,10.533,10.533,0,0,0-4.784,8.293A3.324,3.324,0,0,0,265.091,325.624Z" transform="translate(-261.11 -312.102)" fill="#bfbfbf"/>
              <path id="Trazado_116904" data-name="Trazado 116904" d="M267.95,324.969c-2.654,1.531-4.81.294-4.81-2.743a10.528,10.528,0,0,1,4.784-8.293c2.654-1.531,4.823-.306,4.823,2.756a10.547,10.547,0,0,1-4.8,8.293Z" transform="translate(-260.55 -311.779)" fill="#898989"/>
            </g>
          </g>
          <g id="Grupo_112326" data-name="Grupo 112326" transform="translate(46.761 183.167)">
            <g id="Grupo_112323" data-name="Grupo 112323">
              <path id="Trazado_116905" data-name="Trazado 116905" d="M297.721,302.156l-2.577-1.493a3.365,3.365,0,0,1-1.4-3.075,10.571,10.571,0,0,1,4.785-8.306,3.366,3.366,0,0,1,3.419-.332l2.577,1.493a3.4,3.4,0,0,0-3.419.332,10.534,10.534,0,0,0-4.784,8.293,3.323,3.323,0,0,0,1.4,3.075Z" transform="translate(-293.74 -288.622)" fill="#bfbfbf"/>
              <path id="Trazado_116906" data-name="Trazado 116906" d="M300.57,301.5c-2.654,1.531-4.81.294-4.81-2.743a10.548,10.548,0,0,1,4.785-8.293c2.654-1.531,4.823-.306,4.823,2.756a10.547,10.547,0,0,1-4.8,8.293Z" transform="translate(-293.183 -288.296)" fill="#898989"/>
            </g>
            <g id="Grupo_112324" data-name="Grupo 112324" transform="translate(2.539 1.467)">
              <path id="Trazado_116907" data-name="Trazado 116907" d="M299.711,303.306l-2.577-1.493a3.365,3.365,0,0,1-1.4-3.075,10.571,10.571,0,0,1,4.785-8.306,3.366,3.366,0,0,1,3.419-.332l2.577,1.493a3.4,3.4,0,0,0-3.419.332,10.533,10.533,0,0,0-4.784,8.293,3.324,3.324,0,0,0,1.4,3.075Z" transform="translate(-295.73 -289.772)" fill="#262626"/>
              <path id="Trazado_116908" data-name="Trazado 116908" d="M302.56,302.649c-2.654,1.531-4.81.294-4.81-2.743a10.548,10.548,0,0,1,4.784-8.293c2.654-1.531,4.823-.306,4.823,2.756a10.546,10.546,0,0,1-4.8,8.293Z" transform="translate(-295.173 -289.446)" fill="#898989"/>
            </g>
            <g id="Grupo_112325" data-name="Grupo 112325" transform="translate(5.129 2.986)">
              <path id="Trazado_116909" data-name="Trazado 116909" d="M301.741,304.484l-2.577-1.493a3.365,3.365,0,0,1-1.4-3.075,10.548,10.548,0,0,1,4.784-8.293,3.366,3.366,0,0,1,3.419-.332l2.577,1.493a3.4,3.4,0,0,0-3.419.332,10.534,10.534,0,0,0-4.784,8.293A3.324,3.324,0,0,0,301.741,304.484Z" transform="translate(-297.76 -290.962)" fill="#bfbfbf"/>
              <path id="Trazado_116910" data-name="Trazado 116910" d="M304.6,303.819c-2.654,1.531-4.81.293-4.81-2.743a10.529,10.529,0,0,1,4.784-8.293c2.654-1.531,4.823-.306,4.823,2.756a10.547,10.547,0,0,1-4.8,8.293Z" transform="translate(-297.2 -290.642)" fill="#898989"/>
            </g>
          </g>
          <g id="Grupo_112327" data-name="Grupo 112327" transform="translate(1.671 169.678)">
            <path id="Trazado_116911" data-name="Trazado 116911" d="M303.153,295.262l-7.77-4.517-.013-5.805,7.77,4.517Z" transform="translate(-248.201 -276.149)" fill="#d9d9d9"/>
            <path id="Trazado_116912" data-name="Trazado 116912" d="M291.293,282.567l-7.783-4.517,20.337,3.547,7.77,4.517Z" transform="translate(-251.473 -278.05)" fill="#e6e6e6"/>
            <path id="Trazado_116913" data-name="Trazado 116913" d="M282.04,289.367l-7.77-4.517,11.789-6.8,7.783,4.517Z" transform="translate(-254.022 -278.05)" fill="#f2f2f2"/>
            <path id="Trazado_116914" data-name="Trazado 116914" d="M266.17,314.881l-7.77-4.517,20.248-26.985,7.77,4.517Z" transform="translate(-258.4 -276.58)" fill="#e6e6e6"/>
            <path id="Trazado_116915" data-name="Trazado 116915" d="M266.2,317.1l-7.783-4.517-.013-8.051,7.77,4.517Z" transform="translate(-258.4 -270.745)" fill="#d9d9d9"/>
            <path id="Trazado_116916" data-name="Trazado 116916" d="M296.54,281.59l20.325,3.547.038,8.038-5.231,3.011-.013-5.805-15.106-2.628-11.789,6.813-15.055,20.044.026,5.805-5.218,3.011-.025-8.051,20.248-26.984Z" transform="translate(-256.72 -277.073)" fill="#a6a6a6"/>
          </g>
          <g id="Grupo_112328" data-name="Grupo 112328" transform="translate(26.729)">
            <path id="Trazado_116917" data-name="Trazado 116917" d="M287.992,147.335v172.2a2.446,2.446,0,0,1-1.454,2.016,7.757,7.757,0,0,1-7.03,0,2.489,2.489,0,0,1-1.467-2.054V147.31a2.522,2.522,0,0,0,1.48,2.054,7.757,7.757,0,0,0,7.03,0,2.471,2.471,0,0,0,1.442-2.016Z" transform="translate(-278.04 -144.439)" fill="#d9d9d9"/>
            <path id="Trazado_116918" data-name="Trazado 116918" d="M286.523,145.915c1.939,1.123,1.952,2.947.025,4.07a7.757,7.757,0,0,1-7.03,0c-1.952-1.123-1.965-2.947-.025-4.083a7.758,7.758,0,0,1,7.03,0Z" transform="translate(-278.038 -145.06)" fill="#898989"/>
          </g>
        </g>
        <g id="Grupo_112339" data-name="Grupo 112339">
          <path id="Trazado_116919" data-name="Trazado 116919" d="M304.676,105.5l7.77-4.517L312.05,242l-7.77,4.529Z" transform="translate(-81.794 27.462)" fill="#a6a6a6"/>
          <path id="Trazado_116920" data-name="Trazado 116920" d="M130.21,4.827,137.98.31,360.466,128.752l-7.77,4.517Z" transform="translate(-129.814 -0.31)" fill="#f2f2f2"/>
          <path id="Trazado_116921" data-name="Trazado 116921" d="M352.782,132.292l-.4,141.035L129.9,144.872,130.3,3.85Z" transform="translate(-129.9 0.667)" fill="#d9d9d9"/>
          <path id="Trazado_116922" data-name="Trazado 116922" d="M345.24,131.03,344.87,264.2,134.76,142.9,135.13,9.72Z" transform="translate(-128.559 2.286)" fill="#f2f2f2"/>
          <g id="Grupo_112338" data-name="Grupo 112338" transform="translate(20.401 37.752)">
            <path id="Trazado_116923" data-name="Trazado 116923" d="M294.983,214.406l-43.992-25.39a9.407,9.407,0,0,1-4.261-7.349V91.131c0-2.692,1.914-3.789,4.261-2.424l43.992,25.39a9.407,9.407,0,0,1,4.261,7.349v90.536c0,2.692-1.914,3.789-4.261,2.437ZM250.991,90.583c-1.442-.829-2.616-.166-2.616,1.493v90.536a5.748,5.748,0,0,0,2.616,4.5l43.992,25.39c1.442.829,2.616.166,2.616-1.493V120.489a5.748,5.748,0,0,0-2.616-4.5L250.991,90.6Z" transform="translate(-118.071 -13.838)" fill="#4d4d4d"/>
            <g id="Grupo_112331" data-name="Grupo 112331">
              <path id="Trazado_116924" data-name="Trazado 116924" d="M194.143,156.186,150.151,130.8a9.407,9.407,0,0,1-4.261-7.349V32.911c0-2.692,1.914-3.789,4.261-2.424l43.992,25.39a9.407,9.407,0,0,1,4.261,7.349v90.536c0,2.692-1.914,3.789-4.261,2.437ZM150.164,32.375c-1.442-.829-2.616-.166-2.616,1.493v90.523a5.748,5.748,0,0,0,2.616,4.5l43.992,25.39c1.442.829,2.616.166,2.616-1.493V62.269a5.768,5.768,0,0,0-2.616-4.5Z" transform="translate(-145.89 -29.899)" fill="#4d4d4d"/>
              <path id="Trazado_116925" data-name="Trazado 116925" d="M181.471,90.493,157.255,76.51a6.8,6.8,0,0,1-2.845-5.422h0c0-2.092,1.276-3.049,2.845-2.143l24.216,13.984a6.8,6.8,0,0,1,2.845,5.422h0C184.316,90.442,183.04,91.4,181.471,90.493Z" transform="translate(-143.54 -19.223)" fill="#4d4d4d"/>
              <path id="Trazado_116926" data-name="Trazado 116926" d="M189.481,99.128l-38.34-22.136a2.245,2.245,0,0,1-.931-1.786h0c0-.689.421-1,.931-.7l38.34,22.136a2.245,2.245,0,0,1,.931,1.786h0C190.413,99.116,189.992,99.422,189.481,99.128Z" transform="translate(-144.698 -17.625)" fill="#4d4d4d"/>
              <path id="Trazado_116927" data-name="Trazado 116927" d="M189.481,103.078l-38.34-22.136a2.245,2.245,0,0,1-.931-1.786h0c0-.689.421-1,.931-.7l38.34,22.136a2.245,2.245,0,0,1,.931,1.786h0C190.413,103.066,189.992,103.372,189.481,103.078Z" transform="translate(-144.698 -16.535)" fill="#4d4d4d"/>
              <path id="Trazado_116928" data-name="Trazado 116928" d="M189.481,107.038,151.141,84.9a2.245,2.245,0,0,1-.931-1.786h0c0-.689.421-1,.931-.7l38.34,22.136a2.245,2.245,0,0,1,.931,1.786h0C190.413,107.026,189.992,107.332,189.481,107.038Z" transform="translate(-144.698 -15.443)" fill="#4d4d4d"/>
              <path id="Trazado_116929" data-name="Trazado 116929" d="M189.481,111l-38.34-22.136a2.245,2.245,0,0,1-.931-1.786h0c0-.689.421-1,.931-.7l38.34,22.136a2.245,2.245,0,0,1,.931,1.786h0C190.413,110.986,189.992,111.292,189.481,111Z" transform="translate(-144.698 -14.35)" fill="#4d4d4d"/>
              <g id="Grupo_112330" data-name="Grupo 112330" transform="translate(16.369 99.01)">
                <path id="Trazado_116930" data-name="Trazado 116930" d="M161.744,110.306c0,.957-.676,1.34-1.505.868a3.351,3.351,0,0,1-1.518-2.6c0-.957.676-1.34,1.518-.868A3.284,3.284,0,0,1,161.744,110.306Z" transform="translate(-158.72 -107.502)" fill="#4d4d4d"/>
                <path id="Trazado_116931" data-name="Trazado 116931" d="M165.837,112.666c0,.957-.676,1.34-1.518.868a3.3,3.3,0,0,1-1.518-2.6c0-.957.676-1.34,1.518-.868A3.351,3.351,0,0,1,165.837,112.666Z" transform="translate(-157.594 -106.851)" fill="#4d4d4d"/>
                <path id="Trazado_116932" data-name="Trazado 116932" d="M169.934,115.036c0,.957-.676,1.34-1.518.868a3.337,3.337,0,0,1-1.506-2.6c0-.957.676-1.34,1.506-.868A3.331,3.331,0,0,1,169.934,115.036Z" transform="translate(-156.461 -106.197)" fill="#4d4d4d"/>
                <path id="Trazado_116933" data-name="Trazado 116933" d="M174.024,117.4c0,.957-.676,1.34-1.505.868a3.331,3.331,0,0,1-1.518-2.6c0-.957.676-1.34,1.518-.868A3.337,3.337,0,0,1,174.024,117.4Z" transform="translate(-155.332 -105.546)" fill="#4d4d4d"/>
              </g>
            </g>
            <g id="Grupo_112337" data-name="Grupo 112337" transform="translate(64.329 37.141)">
              <path id="Trazado_116934" data-name="Trazado 116934" d="M244.563,185.3l-43.992-25.39a9.407,9.407,0,0,1-4.261-7.349V62.021c0-2.692,1.914-3.789,4.261-2.424l43.992,25.39a9.407,9.407,0,0,1,4.261,7.349v90.536c0,2.692-1.914,3.789-4.261,2.437ZM200.571,61.473c-1.442-.829-2.616-.166-2.616,1.493V153.5a5.748,5.748,0,0,0,2.616,4.5l43.992,25.39c1.442.829,2.616.166,2.616-1.493V91.379a5.748,5.748,0,0,0-2.616-4.5l-43.992-25.39Z" transform="translate(-196.31 -59.009)" fill="#4d4d4d"/>
              <g id="Grupo_112332" data-name="Grupo 112332" transform="translate(7.221 13.755)">
                <path id="Trazado_116935" data-name="Trazado 116935" d="M218.2,97.77,201.97,88.4V69.79L218.2,79.155Z" transform="translate(-201.97 -69.79)" fill="#4d4d4d"/>
                <path id="Trazado_116936" data-name="Trazado 116936" d="M235.329,107.66,219.1,98.295V79.68l16.229,9.365Z" transform="translate(-197.244 -67.062)" fill="#ffb30b"/>
              </g>
              <g id="Grupo_112333" data-name="Grupo 112333" transform="translate(6.507 38.532)">
                <path id="Trazado_116937" data-name="Trazado 116937" d="M219.068,119.678,201.41,109.484V89.21L219.068,99.4Zm-16.216-11.024,14.787,8.536V100.233L202.852,91.7Z" transform="translate(-201.41 -89.21)" fill="#4d4d4d"/>
                <path id="Trazado_116938" data-name="Trazado 116938" d="M236.2,129.568,218.54,119.374V99.1L236.2,109.294Zm-16.216-11.024,14.787,8.536V110.124l-14.787-8.536Z" transform="translate(-196.684 -86.482)" fill="#4d4d4d"/>
              </g>
              <g id="Grupo_112334" data-name="Grupo 112334" transform="translate(6.507 64.56)">
                <path id="Trazado_116939" data-name="Trazado 116939" d="M219.068,140.078,201.41,129.884V109.61L219.068,119.8Zm-16.216-11.023,14.787,8.536V120.634L202.852,112.1Z" transform="translate(-201.41 -109.61)" fill="#4d4d4d"/>
                <path id="Trazado_116940" data-name="Trazado 116940" d="M236.2,149.968,218.54,139.774V119.5L236.2,129.694Zm-16.216-11.023,14.787,8.536V130.523l-14.787-8.536Z" transform="translate(-196.684 -106.882)" fill="#4d4d4d"/>
              </g>
              <g id="Grupo_112335" data-name="Grupo 112335" transform="translate(7.221 91.838)">
                <path id="Trazado_116941" data-name="Trazado 116941" d="M218.2,140.355v10.768l-16.229-9.365V130.99Z" transform="translate(-201.97 -130.99)" fill="#4d4d4d"/>
                <path id="Trazado_116942" data-name="Trazado 116942" d="M235.316,150.245v10.768L219.1,151.648V140.88Z" transform="translate(-197.244 -128.262)" fill="#4d4d4d"/>
              </g>
              <g id="Grupo_112336" data-name="Grupo 112336" transform="translate(7.221 2.285)">
                <path id="Trazado_116943" data-name="Trazado 116943" d="M218.2,70.178v5.946L201.97,66.746V60.8Z" transform="translate(-201.97 -60.8)" fill="#4d4d4d"/>
                <path id="Trazado_116944" data-name="Trazado 116944" d="M235.316,80.055V86L219.1,76.636V70.69Z" transform="translate(-197.244 -58.072)" fill="#4d4d4d"/>
              </g>
            </g>
          </g>
        </g>
      </g>
      <g id="Grupo_112343" data-name="Grupo 112343" transform="translate(0 110.292)">
        <ellipse id="Elipse_4719" data-name="Elipse 4719" cx="31.233" cy="54.097" rx="31.233" ry="54.097" transform="matrix(0.005, -1, 1, 0.005, 25.665, 353.986)" fill="#f2f2f2"/>
        <path id="Trazado_116945" data-name="Trazado 116945" d="M127.97,198.939c-.472-3.751-1.429-7.745-4.312-10.181a4.968,4.968,0,0,0-3.126-1.327,5.173,5.173,0,0,0-2.246.6c-6.367-5.244-12.823-10.628-16.663-17.888a37.875,37.875,0,0,0-2.258-4.121,8.154,8.154,0,0,0-.51-.651c2.194-1.99,4.389-3.981,6.583-6a2.485,2.485,0,0,0,.51-.587,2.069,2.069,0,0,0-.077-1.557c-1.046-3.343-2.564-6.813-5.55-8.65a8.546,8.546,0,0,0-3.84-1.212c-.893-.064-2.36.51-2.883-.408-2.462,1.48-4.644,3.993-6.507,6.15a70.647,70.647,0,0,0-5.206,6.928c-1.25,1.863-2.73,3.687-3.394,5.856-.766,2.475.421,4.631,1.748,6.647a55.683,55.683,0,0,0,6.532,8.14,57.194,57.194,0,0,0,4.376,4.057,111.69,111.69,0,0,0,13.932,9.365c2.271,1.365,11.419,6.7,11.853,7.132a9.083,9.083,0,0,1,1.595,3.292,24.441,24.441,0,0,0,3.062,6.137,5.115,5.115,0,0,0,2.169,1.8.9.9,0,0,0,.574.051.876.876,0,0,0,.357-.357,19.086,19.086,0,0,0,3.458-8.229,20.953,20.953,0,0,0-.166-4.976Z" transform="translate(-78.251 -70.145)" fill="#ffb78c"/>
        <path id="Trazado_116946" data-name="Trazado 116946" d="M109.708,132.724c-.23.191-.472.383-.714.6-7.834,6.686-14.341,14.749-21.83,21.792a7.079,7.079,0,0,0-1.493,1.722c-.944,1.748.7,3.828,1.812,5.155a21.507,21.507,0,0,0,12.81,7.323,42.134,42.134,0,0,0,7.4.37,21.825,21.825,0,0,0,4.083-.281,10.672,10.672,0,0,1,.319-2.552c.166-.982.128-2.041.23-3.037.217-2.067.549-4.121.957-6.162.817-4.044,1.939-8.025,3-12.006a54.555,54.555,0,0,0,1.493-6.813,12.242,12.242,0,0,0,.1-2.9,9.828,9.828,0,0,1-.14-3.292c.14-.612.957-2.845,1.786-2.858-3.509.038-7.043.74-9.811,2.96Z" transform="translate(-76.282 -74.882)" fill="#f2f2f2"/>
        <path id="Trazado_116947" data-name="Trazado 116947" d="M107.043,340.951c-.242,2.832.191,5.741,2.386,7.5,1.608,1.289,3.93,1.033,5.792.587a8.138,8.138,0,0,0,4.325-2.909c1.008-1.276,1.429-2.986,2.488-4.249a8.435,8.435,0,0,1,3.47-2.08c5.027-2,10.13-4.516,13.358-8.88,1.187-1.608,2.641-3.777,1.123-5.729a3.712,3.712,0,0,0-1.684-1.123,10.357,10.357,0,0,0-3.19-.5,37.009,37.009,0,0,0-9.544,1,31.268,31.268,0,0,0-5.946,1.978c-1.327.612-2.59,1.34-3.853,2.054a17.521,17.521,0,0,0-2.845,1.671c-.383.344-1.212,1.506-1.71.6a1.932,1.932,0,0,1-.179-.893,26.633,26.633,0,0,0-3.164,6.532,24.7,24.7,0,0,0-.817,4.414Z" transform="translate(-70.325 -21.427)" fill="#084a93"/>
        <path id="Trazado_116948" data-name="Trazado 116948" d="M144.443,242.61a15.279,15.279,0,0,0-.88-3.751c-3.317-10.233-7.783-20.8-16.535-27.036a13.916,13.916,0,0,0-7.54-2.96c-.868-.026-1.62.332-2.386-.166-.536-.357-1.544-2.462-1.2-3.088a47.656,47.656,0,0,0-5.754,21.588c-.077,2.947-.242,6.839.766,9.786.115.332.242.638.383.944,1.429,3.037,2.986,5.805,3.828,9.135.689,2.73.051,4.81.089,7.515.038,3.5.128,7,.14,10.5.038,7.107-.077,14.226-.587,21.333a72.991,72.991,0,0,1-1.773,12.465c-1.314,5.18-4.312,9.684-5.218,14.966a67.337,67.337,0,0,0-.408,14.073l1.416,33.913c.038,1.021.089,2.041.128,3.062.051,1.084-.166,1.684.88,2.169a10.826,10.826,0,0,0,5.167.7,37.377,37.377,0,0,0,12.07-2.654c1.506-.612.906-2.054.944-3.407.026-1.085,1.825-23.553,2.513-29.817q1.11-10.1,2.386-20.184,1.11-8.918,2.335-17.811c.536-3.917,1.072-7.821,1.684-11.725a21.346,21.346,0,0,1,.434-2.526c1.837-6.533,4.517-12.861,5.448-19.585.574-4.172.459-8.433,1.136-12.593a22.343,22.343,0,0,0,.536-4.861Z" transform="translate(-70.266 -53.966)" fill="#333"/>
        <path id="Trazado_116949" data-name="Trazado 116949" d="M139.392,343.136a11.254,11.254,0,0,0,1.4,6.3,6.584,6.584,0,0,0,6.915,2.539c2.105-.447,4.006-1.71,6.15-1.863a12.43,12.43,0,0,1,3.789.536,168.97,168.97,0,0,0,17.1,3.458,15.521,15.521,0,0,0,6.456-.37c3.9-1.174,10.347-6.443,6.15-10.666a9.88,9.88,0,0,0-3.623-2.042c-4.81-1.863-9.722-3.445-14.66-4.938a115.854,115.854,0,0,0-13.55-3.458,54.629,54.629,0,0,0-6.915-.8c-1.416-.064-3.891.676-4.568-.842-2.182,1.046-3.164,3.968-3.713,6.137a28.341,28.341,0,0,0-.931,6.022Z" transform="translate(-61.386 -19.377)" fill="#084a93"/>
        <path id="Trazado_116950" data-name="Trazado 116950" d="M167.3,363.7c-.255-3.368-2.029-68.693.14-97.859.281-3.853.447-7.719.408-11.585-.128-12.363-2.092-24.752-3.674-36.988-.281-2.169-.625-4.491-2.105-6.111,1.25,1.365-3.891,7.273-4.963,8.025a13.352,13.352,0,0,1-7.5,2.411c-4.376.128-8.625-1.48-12.542-3.445-3.241-1.633-6.354-3.521-9.671-5.014-1.391-.625-2.909-.7-4.223-1.238-.8-.344-1.4-1.263-2.143-1.748-.957-.625-2.156-1.059-3.177-1.595a1.241,1.241,0,0,0-1.021-.191,1.222,1.222,0,0,0-.536.689,29.8,29.8,0,0,0-1.557,16.561c1.263,7.209,4.223,14.2,9.786,19,2.7,2.335,5.6,4.593,7.464,7.694a28.3,28.3,0,0,1,2.947,8.778c2.131,10.054,3.777,20.21,5.078,30.4,1.25,9.786.676,19.61,1.7,29.422.791,7.617,2.08,15.157,3.151,22.736q1.11,7.847,1.888,15.719c.255,2.654.5,5.32.689,7.987.14,1.85.485,2.96,2.156,3.993a9.524,9.524,0,0,0,4.925,1.123,23.185,23.185,0,0,0,12.261-3.049c1.046-.638,1.046-1.084.842-2.08a26.747,26.747,0,0,1-.332-3.649Z" transform="translate(-68.328 -53.221)" fill="#424242"/>
        <path id="Trazado_116951" data-name="Trazado 116951" d="M113.328,129.927a11.656,11.656,0,0,0-8.268,5.18,20.515,20.515,0,0,0-2.475,6.1,48.321,48.321,0,0,0,.2,23.948c1.314,5.461,3.445,10.692,5.295,16,1.454,4.147,2.743,8.344,4.045,12.542,1.735,5.627,3.47,11.3,3.891,17.173.447,6.265-.651,12.491-1.684,18.653-.523,3.1-1.033,6.188-1.34,9.314a29.177,29.177,0,0,0-.574,4.147c.077,1.391,1.25,2.832,2.143,3.828a20.416,20.416,0,0,0,7.872,5.091,43.374,43.374,0,0,0,13.856,2.922,79.085,79.085,0,0,0,13.1-.766c6.15-.74,12.427-1.7,17.824-4.721,1.174-.664,1.837-1.212,1.722-2.577-1.033-13.1-.51-26.27.383-39.373.893-13.205,2.169-26.385,2.59-39.6.128-3.993.242-7.987.2-11.993-.025-1.978-.281-4.019-.2-6,.064-1.646-.14-2.909-1.7-3.891a15.333,15.333,0,0,0-3.9-1.4c-4.67-1.365-8.7-4.325-13.1-6.4a70.545,70.545,0,0,0-9.76-3.509c-7.094-2.143-14.3-4.21-21.715-4.772a34.984,34.984,0,0,0-8.421.115Z" transform="translate(-71.928 -74.93)" fill="#b9ddfc"/>
        <path id="Trazado_116952" data-name="Trazado 116952" d="M151.441,101.494c1.2,2.526,2.041,5.244,3.623,7.54a21.911,21.911,0,0,0,3.075,3.445,2.256,2.256,0,0,1,.727,1.008c.23.88-.612,1.62-1.11,2.386-1.238,1.876-.472,4.363.115,6.545a33.087,33.087,0,0,1,.957,4.963,5.079,5.079,0,0,1-.383,3.2c-1.136,1.888-3.866,1.722-5.895,2.564-3.279,1.352-4.555,5.244-5.448,8.689-.485,1.888-.982,3.789-1.467,5.678-4.364-.306-8.74.8-13.116.561a21.292,21.292,0,0,1-9.939-3.139c-.88-.549-1.837-1.442-1.557-2.437a2.962,2.962,0,0,1,.434-.817c2.36-3.726.982-8.74-1.442-12.427s-5.792-6.737-7.834-10.641c-4.708-9.046-.765-20.516,8.191-25.109a35.9,35.9,0,0,1,9.735-3.062,28.263,28.263,0,0,1,9.02-.549c2.4.319,5.231.97,6.915,2.858a38.06,38.06,0,0,1,5.4,8.752Z" transform="translate(-69.443 -85.934)" fill="#ffb78c"/>
        <path id="Trazado_116953" data-name="Trazado 116953" d="M148.525,104.523c-4.185,3.1-5.843,8.727-5.55,13.92a15.974,15.974,0,0,0-4.95-1.608,5.332,5.332,0,0,0-4.708,1.71c-.982,1.25-1.123,2.934-1.327,4.5a18.73,18.73,0,0,1-1.531,5.767,9.48,9.48,0,0,1-3.981,4.351c-2.246,1.161-4.044-.919-5.384-2.373a40.711,40.711,0,0,1-4.325-5.167,48.738,48.738,0,0,1-4.032-7.821,30.472,30.472,0,0,1-1.99-5.5,23.576,23.576,0,0,1-.855-5.652,8.238,8.238,0,0,1,1.876-5.116c.5-.574,1.467-.549,2.169-.766a14.332,14.332,0,0,1,4.606-.383,27.032,27.032,0,0,0,10.564-2.029c2.131-.88,4.134-2.016,6.316-2.756a5.9,5.9,0,0,1,2.96-.37c2,.37,3.5,2.424,4.58,4.019a15.4,15.4,0,0,0,5.576,5.257Z" transform="translate(-69.524 -84.433)" fill="#084a93"/>
        <path id="Trazado_116954" data-name="Trazado 116954" d="M114.021,107.29a11.3,11.3,0,0,0,1.748-.791,2.359,2.359,0,0,1,.868-.357,4.637,4.637,0,0,1,.944.064,42.492,42.492,0,0,0,22.187-3.917,19.548,19.548,0,0,0,7.949-6.162c.906-1.314,1.557-3.024.893-4.466a4.543,4.543,0,0,0-1.391-1.608,15.925,15.925,0,0,0-8.689-3.228,29.911,29.911,0,0,0-9.327.931c-6.009,1.429-11.968,4.261-15.208,9.8a4.395,4.395,0,0,1-.689.982,5.767,5.767,0,0,1-1.046.7,6.856,6.856,0,0,0-2.756,4.4,9.511,9.511,0,0,0,.293,5.371c.064.166.153.319.217.485a2.257,2.257,0,0,1,1.314-1.416,10.989,10.989,0,0,1,1.914-.561,7.109,7.109,0,0,0,.74-.23Z" transform="translate(-69.698 -86.754)" fill="#12263f"/>
        <g id="Grupo_112342" data-name="Grupo 112342" transform="translate(151.291 2.88)">
          <path id="Trazado_116955" data-name="Trazado 116955" d="M219.038,98.3l-2.258-3.917,8.778-5.065a2.256,2.256,0,0,1,3.088.829h0a2.257,2.257,0,0,1-.829,3.088Z" transform="translate(-191.326 -89.012)" fill="#fff"/>
          <g id="Grupo_112341" data-name="Grupo 112341" transform="translate(0 1.387)">
            <path id="Trazado_116956" data-name="Trazado 116956" d="M197.51,106.061l27.5-15.77a2.045,2.045,0,0,1,2.054.2,6.46,6.46,0,0,1,2.922,5.052,2.086,2.086,0,0,1-.868,1.914l-27.495,15.77a2.071,2.071,0,0,0,.868-1.914,6.406,6.406,0,0,0-2.922-5.052A2.076,2.076,0,0,0,197.51,106.061Z" transform="translate(-196.642 -90.099)" fill="#80c5ff"/>
            <path id="Trazado_116957" data-name="Trazado 116957" d="M196.83,104.564c0-1.863,1.3-2.628,2.922-1.71a6.46,6.46,0,0,1,2.922,5.052c0,1.863-1.3,2.628-2.922,1.71A6.46,6.46,0,0,1,196.83,104.564Z" transform="translate(-196.83 -86.687)" fill="#4d4bb7"/>
          </g>
        </g>
        <path id="Trazado_116958" data-name="Trazado 116958" d="M236.225,106.587a8.178,8.178,0,0,0-1.021-2.7,3.325,3.325,0,0,0-2.335-1.557,2.88,2.88,0,0,0-3.343-2.233,2.887,2.887,0,0,0-1.582-2.246,1.2,1.2,0,0,1-.549-.37,1.009,1.009,0,0,1-.013-.817,3.138,3.138,0,0,0,.115-1.416,1.2,1.2,0,0,0-.919-.982,1.846,1.846,0,0,0-1.1.332c-1.454.8-2.909,1.608-4.351,2.411a2.794,2.794,0,0,0-.676.472,2.4,2.4,0,0,0-.434.817c-.663,1.684-1.327,3.356-1.978,5.04a5.954,5.954,0,0,0-.191,5.32l1.454,4.363c.434,1.289.868,2.577,1.289,3.866.855,2.564-1.773,10.845-2.462,12.529a151.383,151.383,0,0,1-11.164,22.277q-3.5,5.76-7.528,11.2c-.868-.128-1.761-.191-2.641-.255q-10.679-.708-21.282-2.258l-2.348.026a9.687,9.687,0,0,1-3.037.549,3.158,3.158,0,0,0-2.59,1.467,3.588,3.588,0,0,0-.153,1.978,45.125,45.125,0,0,0,.906,5.027,2.753,2.753,0,0,1,.115,1.11,2.634,2.634,0,0,1-.638,1.148,43.057,43.057,0,0,1-7.745,7.413c3.777,1.671,7.961,2.182,12.082,2.488a144.218,144.218,0,0,0,30.315-.97,28.277,28.277,0,0,0,6.737-1.569,4.37,4.37,0,0,0,1.556-1.008,8.768,8.768,0,0,0,1.378-1.454c4.9-6.316,7.91-13.856,10.858-21.294a179.606,179.606,0,0,0,6.1-17.058c.931-3.292,4.861-16,5.1-16.523.485-1.084.74-2.309,1.25-3.368a14.244,14.244,0,0,0,1.25-3.292,19.682,19.682,0,0,0-.434-8.446Z" transform="translate(-55.691 -84.685)" fill="#ffb78c"/>
        <path id="Trazado_116959" data-name="Trazado 116959" d="M143,161.836a27.413,27.413,0,0,0,18.245,12.172,20.43,20.43,0,0,0,7.872,0c4.389-.931,7.745-4.5,10.322-7.974a26.425,26.425,0,0,0,4.172-7.821,17.161,17.161,0,0,0,.791-5.818c-.089-1.722-.153-3.828-2.156-4.185a56.173,56.173,0,0,1-7.5-1.9c-5.627-1.786-11.036-4.159-16.663-5.933a53.675,53.675,0,0,0-8.485-2.029c-2.679-.383-5.282-.447-7.477,1.429-2.143,1.824-2.641,4.108-2.845,6.775a25.347,25.347,0,0,0,1.3,10.143,24.949,24.949,0,0,0,2.437,5.142Z" transform="translate(-61.437 -72.581)" fill="#f2f2f2"/>
      </g>
    </g>
  </g>
</svg>
