<svg xmlns="http://www.w3.org/2000/svg" width="315.978" height="386.642" viewBox="0 0 315.978 386.642">
  <g id="Grupo_131835" data-name="Grupo 131835" transform="translate(-1019 -1505.899)">
    <g id="_1_1_A" data-name="1_1_A" transform="translate(983.428 1505.124)">
      <ellipse id="Elipse_4710" data-name="Elipse 4710" cx="38.836" cy="22.421" rx="38.836" ry="22.421" transform="translate(116.504 341.923) rotate(-0.36)" fill="#d9e1ff"/>
      <ellipse id="Elipse_4711" data-name="Elipse 4711" cx="29.816" cy="17.211" rx="29.816" ry="17.211" transform="translate(264.303 352.996) rotate(-0.36)" fill="#d9e1ff"/>
      <g id="Grupo_112025" data-name="Grupo 112025" transform="translate(173.97 244.299)">
        <path id="Trazado_115939" data-name="Trazado 115939" d="M165.56,262.131l-1.41-.818L210.1,234.78l35.929,20.752-1.41.807-44.54,25.715Z" transform="translate(-164.15 -226.427)" fill="#d9e1ff"/>
        <g id="Grupo_112024" data-name="Grupo 112024" transform="translate(3.864)">
          <path id="Trazado_115940" data-name="Trazado 115940" d="M169.01,251.6l-1.27-.732,41.333-23.852,32.313,18.654-1.27.732-40.063,23.131Z" transform="translate(-167.74 -227.02)" fill="#fff"/>
          <g id="Grupo_112023" data-name="Grupo 112023" transform="translate(8.945 7.922)">
            <path id="Trazado_115941" data-name="Trazado 115941" d="M212.939,236.93,229,246.208l-2.25,1.292L210.7,238.222Z" transform="translate(-173.404 -234.185)" fill="#c7d0fc"/>
            <path id="Trazado_115942" data-name="Trazado 115942" d="M225.164,249.169l-1.507.872L198.05,235.252l1.507-.872Z" transform="translate(-174.37 -234.38)" fill="#c7d0fc"/>
            <path id="Trazado_115943" data-name="Trazado 115943" d="M220.754,251.709l-1.507.872L193.64,237.8l1.518-.872Z" transform="translate(-174.707 -234.185)" fill="#c7d0fc"/>
            <path id="Trazado_115944" data-name="Trazado 115944" d="M216.444,254.2l-1.507.872L189.33,240.292l1.518-.872Z" transform="translate(-175.036 -233.995)" fill="#c7d0fc"/>
            <path id="Trazado_115945" data-name="Trazado 115945" d="M212.115,256.7l-1.518.883L184.99,242.792l1.518-.872Z" transform="translate(-175.367 -233.804)" fill="#c7d0fc"/>
            <path id="Trazado_115946" data-name="Trazado 115946" d="M207.624,259.289l-1.507.883L180.51,245.382l1.507-.872Z" transform="translate(-175.709 -233.606)" fill="#c7d0fc"/>
            <path id="Trazado_115947" data-name="Trazado 115947" d="M203.164,261.869l-1.507.872L176.05,247.962l1.507-.872Z" transform="translate(-176.05 -233.409)" fill="#c7d0fc"/>
          </g>
          <path id="Trazado_115948" data-name="Trazado 115948" d="M169.01,250.281l31.043,17.932,40.063-23.131,1.27-.732v8.632l-41.333,23.863L167.74,258.192v-8.643Z" transform="translate(-167.74 -225.696)" fill="#c7d0fc"/>
        </g>
      </g>
      <path id="Trazado_115949" data-name="Trazado 115949" d="M338.13,96.018,179.117,4.2l-5.2-3a2.178,2.178,0,0,0-2.174-.226,2.128,2.128,0,0,0-.9,1.981V3.17h0V20.844h0V191.2a6.8,6.8,0,0,0,3.089,5.317l164.211,94.807a2.1,2.1,0,0,0,2.271.161,2.2,2.2,0,0,0,.807-1.916V101.335a6.8,6.8,0,0,0-3.089-5.317Z" transform="translate(10.331 0)" fill="#b9ddfc"/>
      <path id="Trazado_115950" data-name="Trazado 115950" d="M330.431,100.938,171.407,9.123l-5.2-3a2.178,2.178,0,0,0-2.174-.226,2.128,2.128,0,0,0-.9,1.981V8.09h0V25.764h0V196.121a6.8,6.8,0,0,0,3.089,5.317l164.211,94.807a2.1,2.1,0,0,0,2.271.161,2.2,2.2,0,0,0,.807-1.916V106.255a6.8,6.8,0,0,0-3.089-5.317Z" transform="translate(9.742 0.376)" fill="#00defc"/>
      <g id="Grupo_112037" data-name="Grupo 112037" transform="translate(164.692 11.572)">
        <g id="Grupo_112027" data-name="Grupo 112027">
          <path id="Trazado_115951" data-name="Trazado 115951" d="M325.909,299.6V111.354a6.8,6.8,0,0,0-3.089-5.317l-159.013-91.8-5.2-3A2.178,2.178,0,0,0,156.434,11a2.128,2.128,0,0,0-.9,1.981V201.231a6.8,6.8,0,0,0,3.089,5.317l164.211,94.807a2.1,2.1,0,0,0,2.271.161,2.2,2.2,0,0,0,.807-1.916Z" transform="translate(-155.53 -10.806)" fill="#fff"/>
          <path id="Trazado_115952" data-name="Trazado 115952" d="M325.959,111.354a6.8,6.8,0,0,0-3.089-5.317l-159.013-91.8-5.2-3A2.178,2.178,0,0,0,156.484,11a2.128,2.128,0,0,0-.9,1.981V30.648l170.379,98.37Z" transform="translate(-155.526 -10.806)" fill="#2d4b7f"/>
          <g id="Grupo_112026" data-name="Grupo 112026" transform="translate(7.376 12.108)">
            <ellipse id="Elipse_4712" data-name="Elipse 4712" cx="1.453" cy="2.519" rx="1.453" ry="2.519" transform="matrix(0.863, -0.505, 0.505, 0.863, 0, 1.469)" fill="#fff"/>
            <ellipse id="Elipse_4713" data-name="Elipse 4713" cx="1.453" cy="2.519" rx="1.453" ry="2.519" transform="matrix(0.863, -0.505, 0.505, 0.863, 8.1, 6.722)" fill="#fff"/>
            <ellipse id="Elipse_4714" data-name="Elipse 4714" cx="1.453" cy="2.519" rx="1.453" ry="2.519" transform="matrix(0.863, -0.505, 0.505, 0.863, 15.807, 11.413)" fill="#fff"/>
            <path id="Trazado_115953" data-name="Trazado 115953" d="M301.364,98.642c.14.086.28.161.431.248.022.022.054.043.075.065a8.039,8.039,0,0,1,2.013,1.959,8.785,8.785,0,0,1,1.722,4.2,4,4,0,0,1-.409,2.54c-.086.14-.172.258-.269.387a2.306,2.306,0,0,1,.517.667c.689,1.195,1.378,2.379,2.077,3.574a2.84,2.84,0,0,1,.409.98v.258a.424.424,0,0,1-.021.065c-.086.334-.28.474-.614.387a1.537,1.537,0,0,1-.872-.8c-.678-1.162-1.356-2.336-2.034-3.5a3.353,3.353,0,0,1-.474-1.023,8.056,8.056,0,0,1-.883-.022,4.669,4.669,0,0,1-2.551-1.345,8.986,8.986,0,0,1-2.949-5.7,3.522,3.522,0,0,1,.549-2.562c.678-.893,1.679-1.055,2.971-.527.108.043.215.1.323.14Zm3.251,6.555a6.7,6.7,0,0,0-3.046-5.242c-1.679-.969-3.046-.194-3.046,1.733a6.684,6.684,0,0,0,3.046,5.242C303.248,107.9,304.615,107.113,304.615,105.2Z" transform="translate(-152.063 -16.24)" fill="#fff"/>
          </g>
        </g>
        <g id="Grupo_112036" data-name="Grupo 112036" transform="translate(9.171 57.386)">
          <g id="Grupo_112028" data-name="Grupo 112028" transform="translate(0 42.377)">
            <path id="Trazado_115954" data-name="Trazado 115954" d="M203.155,170.882l-.226-.129L164.05,148.31V103.49l.226.129,38.879,22.442Zm-38.8-22.744,38.5,22.227V126.234l-38.5-22.227Z" transform="translate(-164.05 -103.49)" fill="#c7d0fc"/>
            <rect id="Rectángulo_40350" data-name="Rectángulo 40350" width="0.301" height="44.799" transform="translate(0.082 33.742) rotate(-60)" fill="#c7d0fc"/>
            <rect id="Rectángulo_40351" data-name="Rectángulo 40351" width="0.301" height="44.799" transform="translate(0.086 22.618) rotate(-60)" fill="#c7d0fc"/>
            <rect id="Rectángulo_40352" data-name="Rectángulo 40352" width="0.301" height="44.799" transform="translate(0.09 11.505) rotate(-60)" fill="#c7d0fc"/>
            <rect id="Rectángulo_40353" data-name="Rectángulo 40353" width="0.301" height="44.476" transform="translate(29.105 17.05)" fill="#c7d0fc"/>
            <rect id="Rectángulo_40354" data-name="Rectángulo 40354" width="0.301" height="44.476" transform="translate(19.407 11.453)" fill="#c7d0fc"/>
            <rect id="Rectángulo_40355" data-name="Rectángulo 40355" width="0.301" height="44.476" transform="translate(9.709 5.845)" fill="#c7d0fc"/>
          </g>
          <g id="Grupo_112034" data-name="Grupo 112034" transform="translate(48.082 18.331)">
            <path id="Trazado_115955" data-name="Trazado 115955" d="M310.674,177.281l-.075-3.487.818.474v-.14l-.818-.474-.075-3.487.818.474v-.14l-.818-.474-.075-3.487.818.474v-.14l-.818-.474-.075-3.487.818.474v-.14l-.818-.474-.075-3.487.818.474v-.14l-.818-.474-.075-3.487.818.474v-.14l-.818-.474-.075-3.487.818.474v-.14l-.818-.474-.075-3.487.818.474v-.14l-.818-.474L310,144.774l.818.474v-.14l-.818-.474-.075-3.487.818.474v-.14l-.818-.474-.075-3.487.818.474v-.14L212.67,81.15v.14l.721.409.075,3.487-.71-.409v.14l.721.42.075,3.487-.71-.409v.14l.721.42.075,3.487-.71-.409v.14l.721.409.075,3.487-.71-.409v.14l.721.42.075,3.487-.71-.409v.14l.721.409.075,3.487-.71-.409v.14l.721.42.075,3.487-.71-.409v.14l.721.42.075,3.487-.71-.409v.14l.721.409.075,3.487-.721-.42v.14l.721.409.075,3.487-.71-.42v.14l.721.409.075,3.487-.721-.42v.14l97.993,56.7v-.14l-.818-.474Zm-.409-10.968L291.191,155.28l-.075-3.487,19.073,11.033Zm-.075-3.617-19.073-11.033-.075-3.487,19.073,11.033Zm-.075-3.617-19.073-11.033-.075-3.487,19.073,11.033Zm-57.909-40.525.075,3.487-19.073-11.033-.075-3.487,19.063,11.033Zm-19.073-11.173-.075-3.487,19.073,11.033.075,3.487Zm19.149,14.789.075,3.487-19.073-11.033-.075-3.487Zm.108-3.649-.075-3.487,19.073,11.033.075,3.487Zm19.073,11.173.075,3.487-19.073-11.033-.075-3.487,19.073,11.033Zm-19.106-3.9.075,3.487-19.073-11.033-.075-3.487Zm.075,3.617.075,3.487-19.063-11.033-.075-3.487,19.073,11.033Zm.032-7.136,19.073,11.033.075,3.487-19.073-11.033-.075-3.487Zm19.181,7.384-.075-3.487,19.073,11.033.075,3.487-19.073-11.033Zm19.073,11.173.075,3.487L271.72,133.29l-.075-3.487Zm-19.106-3.9.075,3.487-19.073-11.033-.075-3.487Zm.075,3.617.075,3.487L252.69,133.01l-.075-3.487Zm.032-7.136,19.073,11.033.075,3.487L271.8,136.906Zm19.149,14.66.075,3.487-19.063-11.033-.075-3.487,19.073,11.033Zm.075,3.617.075,3.487L271.946,144.15l-.075-3.487Zm19.095,3.757-19.073-11.033-.075-3.487,19.073,11.033Zm-.075-3.617L290.89,140.8l-.075-3.487,19.073,11.033Zm-.075-3.617-19.073-11.033-.075-3.487,19.073,11.033Zm-.075-3.617L290.75,133.569l-.075-3.487,19.073,11.033.075,3.487Zm-.151-7.1.075,3.487-19.073-11.033-.075-3.487Zm-19.03-.409-19.073-11.033-.075-3.487L290.556,133.6l.075,3.487Zm-.075-3.617L271.483,122.44l-.075-3.487,19.073,11.033Zm-.151-7.1.075,3.487-19.073-11.033-.075-3.487Zm-19.03-.409-19.063-11.033-.075-3.487L271.3,122.472Zm-.075-3.617L252.227,111.31l-.075-3.487,19.073,11.033Zm-.151-7.1.075,3.487-19.073-11.033-.075-3.487Zm-19.03-.409L233.046,103.8l-.075-3.487,19.073,11.033Zm-.075-3.617L232.97,100.18l-.075-3.487,19.063,11.033.075,3.487Zm-.151-7.1.075,3.487L232.895,96.564l-.075-3.487ZM213.574,81.936l19.073,11.033.075,3.487L213.649,85.423Zm.075,3.617,19.073,11.033.075,3.487L213.725,89.04Zm.075,3.617L232.8,100.2l.075,3.487L213.8,92.656Zm.075,3.617,19.073,11.033.075,3.487L213.876,96.273Zm.075,3.617,19.073,11.033.075,3.487L213.951,99.89Zm.075,3.617,19.073,11.033.075,3.487-19.073-11.033Zm.075,3.617L233.1,114.668l.075,3.487L214.1,107.123Zm.075,3.617,19.073,11.033.075,3.487-19.073-11.033Zm.075,3.617L233.25,121.9l.075,3.487-19.063-11.033-.075-3.487Zm.075,3.617,19.073,11.033.075,3.487-19.073-11.033Zm.151,7.1-.075-3.487L233.4,129.135l.075,3.487L214.4,121.589Zm19.03.409,19.073,11.033.075,3.487-19.073-11.033Zm.075,3.617,19.073,11.033.075,3.487L233.584,129.1Zm.151,7.1-.075-3.487,19.073,11.033.075,3.487Zm19.03.409,19.073,11.033.075,3.487-19.073-11.033Zm.075,3.617,19.063,11.033.075,3.487-19.073-11.033-.075-3.487Zm.151,7.1-.075-3.487,19.073,11.033.075,3.487-19.073-11.033Zm19.03.409,19.073,11.033.075,3.487-19.073-11.033Zm.075,3.617,19.073,11.033.075,3.487L272.1,151.362Zm.151,7.1-.075-3.487,19.073,11.033.075,3.487Zm19.03.409,19.073,11.033.075,3.487-19.073-11.033Zm.075,3.617,19.073,11.033.075,3.487-19.073-11.033Zm.151,7.1-.075-3.487,19.073,11.033.075,3.487Z" transform="translate(-208.418 -81.15)" fill="#c7d0fc"/>
            <path id="Trazado_115956" data-name="Trazado 115956" d="M299.865,153.908a3.114,3.114,0,0,0-1.582-2.12c-.861-.5-1.539-.355-1.529.323a1.725,1.725,0,0,0,.28.84l-14.477,2.336a3.733,3.733,0,0,0-1.238-1.184,2.19,2.19,0,0,0-.732-.269l-8.417-13.3a.55.55,0,0,0,.215-.484,3.114,3.114,0,0,0-1.582-2.12c-.861-.5-1.539-.355-1.528.323a2.02,2.02,0,0,0,.463,1.109l-3.724,2.885a4.756,4.756,0,0,0-.527-.388,2.065,2.065,0,0,0-.721-.269l-12.54-19.095a.555.555,0,0,0,.269-.527,3.075,3.075,0,0,0-1.582-2.11c-.861-.5-1.539-.355-1.528.312a1.761,1.761,0,0,0,.28.84l-8.374,4.51a3.872,3.872,0,0,0-.431-.3A2.9,2.9,0,0,0,240.4,125l-3.8-10.043a.56.56,0,0,0,.657-.614,3.113,3.113,0,0,0-1.582-2.12c-.861-.5-1.539-.355-1.528.323a1.442,1.442,0,0,0,.161.592l-7.642-.9A3.819,3.819,0,0,0,225.4,111c-.614-.355-1.13-.377-1.378-.118l-6.813-5.425v.4l6.684,5.317c0,.043-.022.1-.022.151a3.113,3.113,0,0,0,1.582,2.12c.861.506,1.539.355,1.528-.323a1.62,1.62,0,0,0-.086-.42l7.685.915a3.8,3.8,0,0,0,1.141,1.044,2.135,2.135,0,0,0,.431.194l3.8,10.064a.554.554,0,0,0-.624.614,3.075,3.075,0,0,0,1.582,2.11c.861.5,1.539.355,1.528-.323a2.28,2.28,0,0,0-.7-1.389l8.267-4.456a3.731,3.731,0,0,0,.947.8,1.863,1.863,0,0,0,.926.291l12.486,19.02a.528.528,0,0,0-.42.592,3.075,3.075,0,0,0,1.582,2.11c.861.5,1.539.355,1.529-.312a2.246,2.246,0,0,0-.613-1.3l3.7-2.863a3.487,3.487,0,0,0,.71.549,1.778,1.778,0,0,0,1,.291l8.342,13.2a.525.525,0,0,0-.409.581,3.113,3.113,0,0,0,1.582,2.12c.861.5,1.539.355,1.529-.323a1.361,1.361,0,0,0-.1-.441l14.574-2.357a4.008,4.008,0,0,0,.947.807,1.638,1.638,0,0,0,1.076.28l7.276,8.31c.043-.108.075-.226.108-.334l-7.1-8.116a.557.557,0,0,0,.161-.452Z" transform="translate(-208.072 -79.293)" fill="#2c4482"/>
            <path id="Trazado_115957" data-name="Trazado 115957" d="M294.786,150.338c.14-.57-.42-1.528-1.27-2.142s-1.647-.646-1.8-.075a1.1,1.1,0,0,0,0,.42l-6.038-1.1a3.831,3.831,0,0,0-1.066-1.206,2.076,2.076,0,0,0-1.27-.474l-7.954-9.881a.6.6,0,0,0,.043-.086c.14-.57-.42-1.528-1.27-2.142s-1.647-.646-1.8-.075v.022l-13.691-6.706a3.461,3.461,0,0,0-1.206-1.518,1.937,1.937,0,0,0-1.367-.463l-12-11.205h0c.14-.57-.42-1.528-1.27-2.142s-1.647-.646-1.8-.075a.95.95,0,0,0-.022.183l-15.737-6.544A3.516,3.516,0,0,0,224.1,103.7a1.692,1.692,0,0,0-1.485-.42L217.04,97.66V98.1l5.339,5.382a.658.658,0,0,0-.075.151c-.14.57.42,1.528,1.27,2.142s1.647.646,1.8.075a.745.745,0,0,0,.011-.269l15.7,6.523a3.406,3.406,0,0,0,1.216,1.539c.667.484,1.313.6,1.615.344l11.894,11.1a.481.481,0,0,0-.14.237c-.14.57.42,1.528,1.27,2.142s1.647.646,1.8.075a1.191,1.191,0,0,0,.022-.2L272.376,134a3.153,3.153,0,0,0,1.27,1.733c.624.452,1.216.581,1.55.4l7.847,9.741a.479.479,0,0,0-.2.3c-.14.57.42,1.528,1.27,2.142s1.647.646,1.8.075a1.026,1.026,0,0,0-.022-.474l6.017,1.1a3.627,3.627,0,0,0,1.1,1.259,1.648,1.648,0,0,0,1.518.409l12.055,13.175c.032-.108.075-.226.108-.334l-11.937-13.046a.557.557,0,0,0,.054-.129Z" transform="translate(-208.085 -79.889)" fill="#ffb30b"/>
            <g id="Grupo_112029" data-name="Grupo 112029" transform="translate(28.524 76.128)">
              <path id="Trazado_115958" data-name="Trazado 115958" d="M235.22,159.586l2.637,1.453c.14-3.208,1.615-5.167,3.713-5.3l-1.163-3.853c-2.971.226-5.059,3.089-5.188,7.707Z" transform="translate(-235.22 -151.876)" fill="#ff65a7"/>
              <path id="Trazado_115959" data-name="Trazado 115959" d="M244.143,152.838a6.778,6.778,0,0,0-3.746-.947l1.162,3.853a4.818,4.818,0,0,1,2.6.667c3.52,1.937,6.4,7.427,6.437,12.217s-2.809,7.126-6.329,5.188-6.4-7.416-6.437-12.217a4.589,4.589,0,0,1,.022-.549L235.22,159.6v.56c.043,6.77,4.112,14.509,9.085,17.243s8.977-.549,8.934-7.319a22.778,22.778,0,0,0-3.132-10.925,16.532,16.532,0,0,0-5.952-6.318Z" transform="translate(-235.22 -151.877)" fill="#2c4482"/>
            </g>
            <g id="Grupo_112030" data-name="Grupo 112030" transform="translate(57.037 92.608)">
              <path id="Trazado_115960" data-name="Trazado 115960" d="M261.71,174.906l2.637,1.453c.14-3.208,1.615-5.167,3.714-5.3L266.9,167.21c-2.971.226-5.059,3.089-5.188,7.707Z" transform="translate(-261.71 -167.185)" fill="#ff65a7"/>
              <path id="Trazado_115961" data-name="Trazado 115961" d="M270.643,168.148a6.777,6.777,0,0,0-3.746-.947l1.163,3.853a4.818,4.818,0,0,1,2.6.667c3.52,1.937,6.4,7.416,6.437,12.217s-2.809,7.126-6.329,5.188-6.4-7.416-6.437-12.217a4.593,4.593,0,0,1,.022-.549l-2.637-1.453v.56c.043,6.77,4.112,14.509,9.085,17.243s8.977-.549,8.934-7.319a22.847,22.847,0,0,0-3.132-10.925,16.533,16.533,0,0,0-5.952-6.318Z" transform="translate(-261.709 -167.187)" fill="#5986ff"/>
            </g>
            <g id="Grupo_112031" data-name="Grupo 112031" transform="translate(85.561 109.087)">
              <path id="Trazado_115962" data-name="Trazado 115962" d="M288.21,190.216l2.637,1.453c.14-3.2,1.615-5.167,3.714-5.3L293.4,182.52c-2.971.226-5.059,3.089-5.188,7.707Z" transform="translate(-288.21 -182.495)" fill="#ff65a7"/>
              <path id="Trazado_115963" data-name="Trazado 115963" d="M297.133,183.458a6.777,6.777,0,0,0-3.746-.947l1.163,3.853a4.818,4.818,0,0,1,2.6.667c3.52,1.937,6.4,7.416,6.437,12.217s-2.809,7.126-6.329,5.188-6.4-7.416-6.437-12.217a4.862,4.862,0,0,1,.022-.56l-2.637-1.453v.56c.043,6.77,4.112,14.51,9.085,17.243s8.977-.549,8.934-7.319a22.847,22.847,0,0,0-3.132-10.925,16.532,16.532,0,0,0-5.952-6.318Z" transform="translate(-288.21 -182.497)" fill="#29479d"/>
            </g>
            <path id="Trazado_115964" data-name="Trazado 115964" d="M300.826,175.634l-5.726-3.3.065,2.228,5.608,3.24a.115.115,0,0,0,.172-.1v-1.8a.88.88,0,0,0-.054-.183A.4.4,0,0,0,300.826,175.634Z" transform="translate(-202.123 -74.186)" fill="#c7d0fc"/>
            <path id="Trazado_115965" data-name="Trazado 115965" d="M291.18,210.531l11.6,6.7v-4.661l-11.6-6.7Z" transform="translate(-202.422 -71.625)" fill="#c7d0fc"/>
            <g id="Grupo_112032" data-name="Grupo 112032" transform="translate(3.175 99.026)">
              <path id="Trazado_115966" data-name="Trazado 115966" d="M281.26,216.412l22.281,12.712v-3.552L281.26,212.86Z" transform="translate(-206.355 -170.117)" fill="#c7d0fc"/>
              <path id="Trazado_115967" data-name="Trazado 115967" d="M211.67,176.7l29.353,16.748V189.9L211.67,173.15Z" transform="translate(-211.67 -173.15)" fill="#c7d0fc"/>
              <path id="Trazado_115968" data-name="Trazado 115968" d="M243.64,194.942l37.3,21.291v-3.552l-37.3-21.291Z" transform="translate(-209.228 -171.757)" fill="#c7d0fc"/>
              <path id="Trazado_115969" data-name="Trazado 115969" d="M211.67,183.022l16.3,9.3V188.77l-16.3-9.3Z" transform="translate(-211.67 -172.667)" fill="#c7d0fc"/>
              <path id="Trazado_115970" data-name="Trazado 115970" d="M230.52,193.782,263.694,212.7v-3.552L230.52,190.23Z" transform="translate(-210.23 -171.846)" fill="#c7d0fc"/>
              <path id="Trazado_115971" data-name="Trazado 115971" d="M264.8,213.342l29.041,16.565v-3.552L264.8,209.79Z" transform="translate(-207.612 -170.352)" fill="#c7d0fc"/>
              <path id="Trazado_115972" data-name="Trazado 115972" d="M295,230.572l7.492,4.273v-3.552L295,227.02Z" transform="translate(-205.306 -169.036)" fill="#c7d0fc"/>
              <path id="Trazado_115973" data-name="Trazado 115973" d="M211.67,189.342,308.856,244.8v-3.552L211.67,185.79Z" transform="translate(-211.67 -172.185)" fill="#c7d0fc"/>
              <path id="Trazado_115974" data-name="Trazado 115974" d="M211.67,195.662l16.3,9.289V201.41l-16.3-9.3Z" transform="translate(-211.67 -171.702)" fill="#c7d0fc"/>
              <path id="Trazado_115975" data-name="Trazado 115975" d="M230.52,206.412l33.174,18.933v-3.552L230.52,202.86Z" transform="translate(-210.23 -170.881)" fill="#c7d0fc"/>
              <path id="Trazado_115976" data-name="Trazado 115976" d="M264.8,225.971l29.041,16.576V239L264.8,222.43Z" transform="translate(-207.612 -169.386)" fill="#c7d0fc"/>
              <path id="Trazado_115977" data-name="Trazado 115977" d="M295,243.212l7.492,4.273v-3.552L295,239.66Z" transform="translate(-205.306 -168.07)" fill="#c7d0fc"/>
              <path id="Trazado_115978" data-name="Trazado 115978" d="M243.64,220.222l37.3,21.28V237.95l-37.3-21.28Z" transform="translate(-209.228 -169.826)" fill="#c7d0fc"/>
              <path id="Trazado_115979" data-name="Trazado 115979" d="M211.67,201.982l29.353,16.738v-3.552L211.67,198.43Z" transform="translate(-211.67 -171.219)" fill="#c7d0fc"/>
              <path id="Trazado_115980" data-name="Trazado 115980" d="M281.26,241.692,303.541,254.4v-3.552L281.26,238.14Z" transform="translate(-206.355 -168.187)" fill="#c7d0fc"/>
            </g>
            <path id="Trazado_115981" data-name="Trazado 115981" d="M263.74,194.831l11.593,6.7v-4.65L263.74,190.17Z" transform="translate(-204.518 -72.824)" fill="#c7d0fc"/>
            <path id="Trazado_115982" data-name="Trazado 115982" d="M236.3,179.141l11.593,6.7v-4.661l-11.593-6.7Z" transform="translate(-206.614 -74.022)" fill="#c7d0fc"/>
            <path id="Trazado_115983" data-name="Trazado 115983" d="M208.86,163.44l11.593,6.706v-4.661l-11.593-6.7Z" transform="translate(-208.709 -75.22)" fill="#c7d0fc"/>
            <path id="Trazado_115984" data-name="Trazado 115984" d="M285.126,166.8l-5.726-3.3.075,2.228,5.608,3.24a.115.115,0,0,0,.172-.1v-1.8a.878.878,0,0,0-.054-.183.4.4,0,0,0-.065-.086Z" transform="translate(-203.322 -74.861)" fill="#c7d0fc"/>
            <path id="Trazado_115985" data-name="Trazado 115985" d="M269.416,157.974l-5.726-3.3.075,2.228,5.608,3.24a.112.112,0,0,0,.172-.1v-1.8a.879.879,0,0,0-.054-.183c-.032-.043-.054-.075-.065-.086Z" transform="translate(-204.522 -75.535)" fill="#c7d0fc"/>
            <path id="Trazado_115986" data-name="Trazado 115986" d="M253.716,149.144l-5.726-3.3.065,2.228,5.608,3.24a.115.115,0,0,0,.172-.1v-1.8a.88.88,0,0,0-.054-.183A.4.4,0,0,0,253.716,149.144Z" transform="translate(-205.721 -76.209)" fill="#c7d0fc"/>
            <path id="Trazado_115987" data-name="Trazado 115987" d="M238.016,140.314l-5.726-3.3.075,2.228,5.608,3.24a.115.115,0,0,0,.172-.1v-1.8a.878.878,0,0,0-.054-.183.4.4,0,0,0-.065-.086Z" transform="translate(-206.92 -76.884)" fill="#c7d0fc"/>
            <path id="Trazado_115988" data-name="Trazado 115988" d="M222.316,131.484l-5.726-3.3.075,2.228,5.608,3.24a.112.112,0,0,0,.172-.1v-1.8a.88.88,0,0,0-.054-.183.4.4,0,0,0-.065-.086Z" transform="translate(-208.119 -77.558)" fill="#c7d0fc"/>
            <g id="Grupo_112033" data-name="Grupo 112033" transform="translate(0 59.649)">
              <path id="Trazado_115989" data-name="Trazado 115989" d="M208.72,144.286l2.637,1.453c.14-3.208,1.615-5.167,3.713-5.3l-1.162-3.853c-2.971.226-5.059,3.089-5.188,7.707Z" transform="translate(-208.72 -136.565)" fill="#ff65a7"/>
              <path id="Trazado_115990" data-name="Trazado 115990" d="M217.653,137.528a6.778,6.778,0,0,0-3.746-.947l1.162,3.853a4.818,4.818,0,0,1,2.6.667c3.52,1.937,6.4,7.427,6.437,12.217s-2.809,7.126-6.329,5.188-6.4-7.416-6.437-12.217a4.773,4.773,0,0,1,.022-.56l-2.637-1.453v.56c.043,6.77,4.112,14.509,9.085,17.243s8.977-.549,8.934-7.319a22.812,22.812,0,0,0-3.132-10.925,16.532,16.532,0,0,0-5.952-6.318Z" transform="translate(-208.719 -136.567)" fill="#29479d"/>
            </g>
          </g>
          <g id="Grupo_112035" data-name="Grupo 112035" transform="translate(1.83)">
            <path id="Trazado_115991" data-name="Trazado 115991" d="M175.523,69.76l-9.773-5.64V96.573l9.773,5.64Z" transform="translate(-165.75 -64.12)" fill="#ffb30b"/>
            <path id="Trazado_115992" data-name="Trazado 115992" d="M187.453,84.631,177.68,78.98v23.863l9.773,5.651Z" transform="translate(-164.839 -62.985)" fill="#c7d0fc"/>
            <path id="Trazado_115993" data-name="Trazado 115993" d="M199.393,74.58l-9.773-5.64v42.1l9.773,5.64Z" transform="translate(-163.927 -63.752)" fill="#5986ff"/>
          </g>
          <path id="Trazado_115994" data-name="Trazado 115994" d="M164.05,155.562l29.342,16.748v-3.552L164.05,152.01Z" transform="translate(-164.05 -57.408)" fill="#c7d0fc"/>
          <path id="Trazado_115995" data-name="Trazado 115995" d="M164.05,176.012l41.225,23.379v-3.552L164.05,172.46Z" transform="translate(-164.05 -55.846)" fill="#c7d0fc"/>
          <path id="Trazado_115996" data-name="Trazado 115996" d="M164.05,165.742l33.895,19.439V181.64L164.05,162.19Z" transform="translate(-164.05 -56.63)" fill="#c7d0fc"/>
        </g>
      </g>
      <path id="Trazado_115997" data-name="Trazado 115997" d="M318.4,195.121c-2.712-1.593-5.479-3.165-8.191-4.661Z" transform="translate(20.975 14.487)" fill="none"/>
      <path id="Trazado_115998" data-name="Trazado 115998" d="M320.29,183.45Z" transform="translate(21.745 13.951)" fill="none"/>
      <path id="Trazado_115999" data-name="Trazado 115999" d="M320.29,184.114v0Z" transform="translate(21.745 13.965)" fill="none"/>
      <g id="Grupo_112048" data-name="Grupo 112048" transform="translate(192.046 79.147)">
        <g id="Grupo_112038" data-name="Grupo 112038" transform="translate(104.071 124.494)">
          <path id="Trazado_116000" data-name="Trazado 116000" d="M285.85,219.818l8.988,13.369.8,1.184L293.6,216.6Z" transform="translate(-277.002 -187.158)" fill="#ffcda8"/>
          <path id="Trazado_116001" data-name="Trazado 116001" d="M293.829,210.788h0l-1.313-7.782h0l-.3-2.637C289.179,187.786,277.63,189.3,277.63,189.3s9.235,15.92,10.613,19.461c.786,2.013-1.668,7.761-4.37,13.433l.129.237a17.667,17.667,0,0,0,7.556-1.507h0a21.292,21.292,0,0,0,2.239-1.141,11.26,11.26,0,0,1,2.034-.667l-2-8.331Z" transform="translate(-277.63 -189.247)" fill="#4f62de"/>
        </g>
        <g id="Grupo_112041" data-name="Grupo 112041">
          <path id="Trazado_116002" data-name="Trazado 116002" d="M192.553,127.427a92.515,92.515,0,0,0,6.5,13.659,96.732,96.732,0,0,0,6.114,9.321c.022.022.032.054.065.075,6.555,8.772,14.133,15.64,21.7,20.01,7.9,4.564,15.812,6.415,22.572,4.9.2-.043.409-.086.614-.151a21.58,21.58,0,0,0,2.131-1.959c8.751-9.3,9.472-27.738,2.142-47.005,5.145,15.78,3.1,30.321-6.114,35.563a14.511,14.511,0,0,1-4.607,1.668h0c-5.037.958-10.871-.474-16.705-3.832-7.707-4.445-15.392-12.271-21.248-22.41-10.8-18.686-11.582-38.739-2.411-47.027a13.6,13.6,0,0,1,2.551-1.862c5.9-3.358,13.605-2.282,21.312,2.164a54.5,54.5,0,0,1,14.574,12.755c-6.555-8.783-14.122-15.661-21.71-20.031-8.137-4.693-16.275-6.512-23.174-4.736-10.7,8.471-12.152,28.2-4.305,48.9Z" transform="translate(-180.436 -73.26)" fill="#d5e2f4"/>
          <path id="Trazado_116003" data-name="Trazado 116003" d="M199.694,76.184c4.618-2.637,10.1-3.208,15.909-1.981A41.155,41.155,0,0,1,227.647,79a71.983,71.983,0,0,1,19.2,16.834,94.085,94.085,0,0,1,8.676,12.594c13.7,23.713,15.145,49.1,4.338,60.589A19.189,19.189,0,0,1,255.5,172.5l-7.944,4.607a18.9,18.9,0,0,0,4.359-3.477c10.8-11.474,9.364-36.866-4.338-60.589a93.956,93.956,0,0,0-8.676-12.583,71.984,71.984,0,0,0-19.2-16.834,41.389,41.389,0,0,0-12.045-4.8c-5.812-1.216-11.28-.646-15.909,1.981l7.933-4.607Z" transform="translate(-180.118 -73.586)" fill="#084a93"/>
          <path id="Trazado_116004" data-name="Trazado 116004" d="M241.089,115.643c-5.855-10.139-13.541-17.965-21.248-22.41-5.823-3.369-11.657-4.79-16.705-3.832a14.569,14.569,0,0,0-4.6,1.679c-9.2,5.242-11.259,19.741-6.146,35.5a70.3,70.3,0,0,0,6,13.39,71.792,71.792,0,0,0,6.62,9.59c.022.022.032.054.065.075a54.808,54.808,0,0,0,14.574,12.744c7.707,4.445,15.414,5.522,21.312,2.153a14.576,14.576,0,0,0,2.551-1.851h0c9.171-8.3,8.363-28.362-2.422-47.037Z" transform="translate(-180.278 -72.4)" fill="none"/>
          <path id="Trazado_116005" data-name="Trazado 116005" d="M252.755,173.291h0c8.751-9.3,9.461-27.738,2.131-46.994v-.022a94.151,94.151,0,0,0-6.469-13.573,96.747,96.747,0,0,0-6.157-9.386h0c-6.555-8.794-14.122-15.672-21.71-20.042-8.137-4.693-16.275-6.512-23.174-4.736a19.126,19.126,0,0,0-4.779,1.937c-15.467,8.8-15.543,37.533-.194,64.163,7.685,13.315,17.771,23.583,27.878,29.417,7.89,4.564,15.8,6.4,22.561,4.887a19.443,19.443,0,0,0,5.393-2.077,18.621,18.621,0,0,0,1.905-1.238l.484-.355a21.581,21.581,0,0,0,2.131-1.959Zm-8.579-9.763h0a14.094,14.094,0,0,1-2.551,1.862c-5.888,3.358-13.605,2.293-21.312-2.153a54.974,54.974,0,0,1-14.574-12.744.468.468,0,0,0-.065-.075,71.791,71.791,0,0,1-6.62-9.59,70.3,70.3,0,0,1-6-13.39c-5.113-15.758-3.057-30.257,6.146-35.5a14.568,14.568,0,0,1,4.6-1.679c5.037-.958,10.882.463,16.705,3.832,7.707,4.445,15.392,12.271,21.248,22.41,10.785,18.675,11.592,38.739,2.422,47.027Z" transform="translate(-180.944 -73.259)" fill="#00defc"/>
          <path id="Trazado_116006" data-name="Trazado 116006" d="M243.511,162.669h0a14.1,14.1,0,0,1-2.551,1.862c-5.888,3.358-13.605,2.293-21.312-2.153a54.974,54.974,0,0,1-14.574-12.744.47.47,0,0,0-.065-.075,71.788,71.788,0,0,1-6.62-9.59,70.3,70.3,0,0,1-6-13.39c-5.113-15.758-3.057-30.257,6.146-35.5a14.569,14.569,0,0,1,4.6-1.679c5.037-.958,10.882.463,16.705,3.832,7.707,4.445,15.392,12.271,21.248,22.41,10.785,18.675,11.593,38.739,2.422,47.027Z" transform="translate(-180.278 -72.4)" fill="#2c4482" opacity="0.29"/>
          <g id="Grupo_112040" data-name="Grupo 112040" transform="translate(63.814 97.179)">
            <path id="Trazado_116007" data-name="Trazado 116007" d="M254.023,179.327l5.92-3.444-6.932-12.012L247.08,167.3Z" transform="translate(-239.707 -163.87)" fill="#084a93"/>
            <path id="Trazado_116008" data-name="Trazado 116008" d="M247.614,167.061h0a14.59,14.59,0,0,1-1.593,1.464c-.118.1-.237.183-.355.269a13.984,13.984,0,0,1-1.421.926,14.248,14.248,0,0,1-4.015,1.55l6.932,12.012,7.395-4.219-6.932-12.012Z" transform="translate(-240.23 -163.627)" fill="#00defc"/>
            <g id="Grupo_112039" data-name="Grupo 112039" transform="translate(5.834 10.99)">
              <path id="Trazado_116009" data-name="Trazado 116009" d="M310.686,259.178l-.764-1.3h0l-49.276-83.8-4.585,2.669,48.178,81.718h-.022l1.572,2.68A6.426,6.426,0,0,1,303.42,270c-.129.075-.258.14-.388.2a49.891,49.891,0,0,0,5.285-2.562,6.041,6.041,0,0,0,2.357-8.493Z" transform="translate(-244.855 -174.08)" fill="#2c4482"/>
              <path id="Trazado_116010" data-name="Trazado 116010" d="M306.594,260.979l-1.572-2.68L256.866,176.57l-2.745,1.561-5.726,3.261-2.745,1.561L295.464,267.5a6.439,6.439,0,0,0,7.47,2.9h.032a7.326,7.326,0,0,0,.872-.344c.129-.065.258-.129.387-.2A6.447,6.447,0,0,0,306.594,261Z" transform="translate(-245.65 -173.89)" fill="#415d96"/>
            </g>
          </g>
        </g>
        <g id="Grupo_112047" data-name="Grupo 112047" transform="translate(59.978 100.398)">
          <path id="Trazado_116011" data-name="Trazado 116011" d="M278.284,188.848v-.732h0a1.7,1.7,0,0,1,.022-.3,21.146,21.146,0,0,0,.215-3.638l-2.228-1.647-9.343,2.551-3.8,4.542.9,5.7-.9,10.914,6.641,1.4,7.675-1.733,4.575-8.267a12.651,12.651,0,0,1-3.757-8.783Z" transform="translate(-234.643 -165.663)" fill="#daa782"/>
          <g id="Grupo_112045" data-name="Grupo 112045" transform="translate(11.898 27.192)">
            <g id="Grupo_112044" data-name="Grupo 112044" transform="translate(3.464 48.101)">
              <g id="Grupo_112042" data-name="Grupo 112042" transform="translate(0 115.539)">
                <path id="Trazado_116012" data-name="Trazado 116012" d="M270.424,349.43c-3.466,2.616-11.506.721-12.228-2.357a2.785,2.785,0,0,1,.861-2.863c2.756.5,6.512,1.216,6.512,1.216l6.62,1.367a4.491,4.491,0,0,1-1.776,2.626Z" transform="translate(-250.391 -344.146)" fill="#ffcda8"/>
                <path id="Trazado_116013" data-name="Trazado 116013" d="M255.434,352.333a9.219,9.219,0,0,1-1.894-1.023C254.132,351.654,254.778,352,255.434,352.333Z" transform="translate(-250.74 -343.604)" fill="none"/>
                <path id="Trazado_116014" data-name="Trazado 116014" d="M252.189,345.4h0c3.046-1.69,7.427-1.173,7.427-1.173a2.772,2.772,0,0,0-.861,2.863c.721,3.068,8.762,4.962,12.228,2.357a4.491,4.491,0,0,0,1.776-2.626l4.349.9.872,6.566c-1.076,3.864-6.34,3.24-7.621,3.143s-14.725-4.542-14.725-4.542c-.667-.334-1.313-.678-1.894-1.023a9.084,9.084,0,0,1-2.616-2.756.743.743,0,0,0-.054-.14c-.614-1.324,1.13-3.552,1.13-3.552Z" transform="translate(-250.938 -344.151)" fill="#ffb30b"/>
              </g>
              <g id="Grupo_112043" data-name="Grupo 112043" transform="translate(18.783 104.248)">
                <path id="Trazado_116015" data-name="Trazado 116015" d="M287.874,338.95c-3.466,2.616-11.506.721-12.228-2.357a2.785,2.785,0,0,1,.861-2.863c2.755.5,6.512,1.216,6.512,1.216l6.62,1.367a4.491,4.491,0,0,1-1.776,2.626Z" transform="translate(-267.841 -333.656)" fill="#ffcda8"/>
                <path id="Trazado_116016" data-name="Trazado 116016" d="M272.884,341.843a9.218,9.218,0,0,1-1.894-1.023C271.582,341.164,272.228,341.509,272.884,341.843Z" transform="translate(-268.19 -333.114)" fill="none"/>
                <path id="Trazado_116017" data-name="Trazado 116017" d="M269.639,334.909h0c3.046-1.69,7.427-1.173,7.427-1.173a2.772,2.772,0,0,0-.861,2.863c.721,3.068,8.762,4.962,12.228,2.357a4.491,4.491,0,0,0,1.776-2.626l4.349.9.872,6.566c-1.076,3.864-6.34,3.24-7.621,3.143s-14.725-4.542-14.725-4.542c-.667-.334-1.313-.678-1.894-1.023a9.084,9.084,0,0,1-2.616-2.756.75.75,0,0,0-.054-.14c-.614-1.324,1.13-3.552,1.13-3.552Z" transform="translate(-268.388 -333.661)" fill="#ffb30b"/>
              </g>
              <path id="Trazado_116018" data-name="Trazado 116018" d="M291.271,253.243c-1.464-1.259-27.394,4.467-27.5,8.2,8.428,25.79,8.331,29.224,12.895,42.807,3.509,13.455,9.364,26.855,7.481,35.7-1.3,6.135,10.893,8.514,11.539,3.434-3.821-15.995,1.012-29.008-7.405-44.68-1.959-10.505,4.79-23.712,2.992-45.477Z" transform="translate(-249.959 -235.568)" fill="#223869"/>
              <path id="Trazado_116019" data-name="Trazado 116019" d="M292.172,255.334c0-6.867-5.608-18.524-5.608-18.524l-13.412,6.1s-11.937.84-20.462.538c-3.724,30.3,8.234,67.1,9.913,71.084,6.415,20.925,2.831,35.423,1.819,38.782.161.215,4.553,5.9,13.024,3.7.054-15.909,5.791-26.683-2.164-42.5-.377-2.573.118-44.164.118-44.164s16.77-4.7,16.77-15.037Z" transform="translate(-250.859 -236.81)" fill="#084a93"/>
            </g>
            <path id="Trazado_116020" data-name="Trazado 116020" d="M291.356,193.616c-4.445-2.659-10.979-.958-10.979-.958l1.066,2.26h.032c.2.872-.054,2.723-4.661,4.424-7.179,2.659-12.066.237-12.066.237s-15.661,8.493-16.91,14.854c-1.066,5.446,5.425,11.108,5.425,11.108.775,2.2,1.27,9.246.226,15.823l-.474,5.5s11.915,12.895,33.873-6.641A44.3,44.3,0,0,0,283.9,235.4s7.276-20.053,8.751-29.234c1.453-8.988.2-11.84-1.292-12.551Z" transform="translate(-247.72 -192.122)" fill="#596fff"/>
          </g>
          <g id="Grupo_112046" data-name="Grupo 112046" transform="translate(19.83)">
            <path id="Trazado_116021" data-name="Trazado 116021" d="M260.666,172.5a16.963,16.963,0,0,0-2.594,9.752s-2.928,4.467-2.982,5.145,1.959,1.432,1.959,1.432-.118,8.04,1.475,8.2c12.378,1.152,13.121-4.865,13.121-4.865s4.768.108,4.327-4.1c.538-1.572.323-5.812.323-5.812s-14.542-10.893-15.629-9.752Z" transform="translate(-255.089 -166.436)" fill="#ffcda8"/>
            <path id="Trazado_116022" data-name="Trazado 116022" d="M285.3,178.243c1.464,3.9-1.324,13.638,0,16.91a20.085,20.085,0,0,0,3.983,5.855s8.428-9.5,7.545-17.706-10.452-11.872-10.452-11.872-1.937,5.845-1.076,6.8Z" transform="translate(-252.81 -166.511)" fill="#192c56"/>
            <path id="Trazado_116023" data-name="Trazado 116023" d="M282.3,171.616s4.4-.5,4.747,0c2.185,3.165-1.539,6.641-1.539,6.641l-1.389-.387-1.819-.8v-5.446Z" transform="translate(-253.011 -166.514)" fill="#ffb30b"/>
            <path id="Trazado_116024" data-name="Trazado 116024" d="M268.13,188.032h0v-.011h0Z" transform="translate(-254.093 -165.245)" fill="#2c4482"/>
            <path id="Trazado_116025" data-name="Trazado 116025" d="M285.8,178.2l-1.012-6.071s-4.284-5.274-10.839-5.274-13.885,3.434-13.691,6.426c.194,2.949,4.768,5.446,4.822,5.479h0s.743,5.748,2.928,7.5c1.658,1.324,1.227,2.583.915,3.121a5.129,5.129,0,0,1,5.124-2.239c.6.151,1.636.56,1.528,1.345-.6,4.381,1.518,4.381,1.518,4.381s8.708,0,10.538-6.523c.98-3.434-1.83-8.137-1.83-8.137Z" transform="translate(-254.694 -166.86)" fill="#192c56"/>
          </g>
          <path id="Trazado_116026" data-name="Trazado 116026" d="M245.129,193.234l-1.259-1.324A8.841,8.841,0,0,0,245.129,193.234Z" transform="translate(-236.116 -164.947)" fill="none"/>
          <path id="Trazado_116027" data-name="Trazado 116027" d="M251.384,190.289c1.238-2.7.657-7.89.366-8.912s-1.313-.581-1.97-.366.517,2.045-.151,3.358c-.323.646-1.356-.689-2.336-2.217l-1.981-3.412a9.911,9.911,0,0,0-3.638,5.651,21.948,21.948,0,0,0-.108,4.133h0a34.886,34.886,0,0,0,2.852,4.37l1.259,1.324-3.972,13h.011s-3.724,13.2-4.166,16.318a1.825,1.825,0,0,1-.065.3c-.484,3.531-.98,7.782-.775,9.042a.637.637,0,0,1-.011.2c1.636,3.057,4.026,6.534,5.942,5.317,1.453-.926,2.7-1.8,3.638-2.486.861-.829,1.819-1.776,2.82-2.8-1.539-2.508-1.281-9.7-.98-13.885l3.261-28.965Z" transform="translate(-236.666 -165.953)" fill="#ffcda8"/>
          <path id="Trazado_116028" data-name="Trazado 116028" d="M259.528,210.761c-6.264-.506-15.747,10.452-18.847,14.273a15.6,15.6,0,0,0,3.261,10.215c6.523-3.143,14.843-7.89,17.351-12.712C265.6,214.259,259.528,210.761,259.528,210.761Z" transform="translate(-236.361 -163.508)" fill="#4f62de"/>
        </g>
      </g>
      <g id="Grupo_112050" data-name="Grupo 112050" transform="translate(35.572 243.868)">
        <ellipse id="Elipse_4715" data-name="Elipse 4715" cx="42" cy="24.251" rx="42" ry="24.251" transform="translate(0 10.517) rotate(-0.36)" fill="#d9e1ff"/>
        <g id="Grupo_112049" data-name="Grupo 112049" transform="translate(3.464)">
          <path id="Trazado_116029" data-name="Trazado 116029" d="M114.725,247.846h-4.252a27.544,27.544,0,0,0-6.835-5.393c-14.779-8.525-38.954-8.525-53.722,0a27.544,27.544,0,0,0-6.835,5.393H38.83v10.032h0c-.032,5.651,3.66,11.3,11.076,15.586,14.779,8.536,38.954,8.536,53.722,0,7.427-4.284,11.108-9.946,11.076-15.586h0V247.846Z" transform="translate(-38.787 -225.899)" fill="#c7d0fc"/>
          <path id="Trazado_116030" data-name="Trazado 116030" d="M49.917,242.24a27.544,27.544,0,0,0-6.835,5.393H38.83v10.032h0c-.032,5.651,3.66,11.3,11.076,15.586.226.129.463.258.7.388V263.52l7.3-24.8a42.62,42.62,0,0,0-7.987,3.52Z" transform="translate(-38.787 -225.696)" fill="#5072de"/>
          <ellipse id="Elipse_4716" data-name="Elipse 4716" cx="37.996" cy="21.936" rx="37.996" ry="21.936" fill="#f1f2f2"/>
          <path id="Trazado_116031" data-name="Trazado 116031" d="M76.783,226.65c-9.741,0-19.472,2.131-26.866,6.394-14.779,8.536-14.779,22.485,0,31.021.226.129.463.258.7.387L76.783,252V226.65Z" transform="translate(-38.787 -226.618)" fill="#5986ff"/>
          <path id="Trazado_116032" data-name="Trazado 116032" d="M39.344,252H76.78V226.65c-9.741,0-19.472,2.131-26.866,6.394-8.9,5.134-12.4,12.238-10.581,18.944Z" transform="translate(-38.784 -226.618)" fill="#8d88c8"/>
        </g>
      </g>
      <g id="Grupo_112057" data-name="Grupo 112057" transform="translate(90.788 301.788)">
        <g id="Grupo_112052" data-name="Grupo 112052" transform="translate(98.951 10.344)">
          <path id="Trazado_116033" data-name="Trazado 116033" d="M227.1,309.4c0-.6-.85-1.087-1.894-1.087h-4.036a2.318,2.318,0,0,1-.484-.043,1.494,1.494,0,0,1-.99-.56c-.14-.215-.3-.431-.463-.646-.28-.355-.183-.764.291-1.033l2.852-1.647a.931.931,0,0,0,.549-.764.946.946,0,0,0-.549-.775l-4.65-2.669a2.986,2.986,0,0,0-2.669,0l-2.874,1.658a2.507,2.507,0,0,1-1.722.194c-.409-.1-.85-.2-1.238-.291-.6-.129-.99-.463-.99-.84v-2.346c0-.6-.85-1.087-1.894-1.087h-6.577c-1.044,0-1.894.484-1.894,1.087v2.325c0,.387-.431.71-1.055.85-.4.086-.786.183-1.173.28a2.489,2.489,0,0,1-1.8-.172l-2.863-1.636a2.986,2.986,0,0,0-2.669,0l-4.639,2.68a.913.913,0,0,0-.549.829.972.972,0,0,0,.549.71l2.885,1.647c.452.258.581.646.334.99-.172.237-.355.5-.5.71a1.5,1.5,0,0,1-1,.527c-.14.021-.291.032-.441.043h-4.079c-1.044,0-1.884.5-1.884,1.1v3.348l.011.431c0,.6.85,1.087,1.894,1.087h4.036a1.758,1.758,0,0,1,1.475.6c.14.215.3.431.463.646.28.344.183.764-.291,1.033l-2.852,1.647a.814.814,0,0,0,0,1.539l4.661,2.669a2.986,2.986,0,0,0,2.669,0l2.874-1.658a2.507,2.507,0,0,1,1.722-.194c.409.1.85.2,1.238.291.6.129.99.463.99.84v2.346c0,.6.85,1.087,1.894,1.087h6.577c1.044,0,1.884-.5,1.884-1.1v-2.325c0-.387.42-.71,1.044-.85.377-.086.753-.172,1.119-.269a2.489,2.489,0,0,1,1.8.172l2.863,1.636a2.986,2.986,0,0,0,2.669,0l4.639-2.68a.814.814,0,0,0,0-1.539l-2.874-1.658c-.452-.258-.581-.657-.334-.99.42-.57.85-1.238.872-1.281h5.156c1.012,0,1.83-.463,1.884-1.033v-3.843Zm-14.875,2.863a4.273,4.273,0,0,1-1.044,1.658c-2.207,2.271-7.05,3.358-11.485,2.368a9.458,9.458,0,0,1-4.758-2.4,3.469,3.469,0,0,1-1.044-3.563,4.342,4.342,0,0,1,.775-1.367c2.067-2.465,7.126-3.692,11.754-2.669a9.219,9.219,0,0,1,4.984,2.648A3.369,3.369,0,0,1,212.228,312.26Z" transform="translate(-178.786 -289.473)" fill="#d9e1ff"/>
          <g id="Grupo_112051" data-name="Grupo 112051">
            <path id="Trazado_116034" data-name="Trazado 116034" d="M225.03,305.755h-5.156s-.452.721-.872,1.281c-.248.334-.118.732.334.99l2.874,1.658c.743.42.743,1.109,0,1.539l-4.639,2.68a2.92,2.92,0,0,1-2.669,0l-2.863-1.636a2.539,2.539,0,0,0-1.8-.172c-.366.1-.732.183-1.119.269-.624.14-1.055.463-1.055.85v2.325c0,.6-.84,1.087-1.884,1.087h-6.577c-1.044,0-1.894-.474-1.894-1.076V313.2c0-.366-.4-.7-1-.84-.377-.086-.829-.183-1.238-.291a2.507,2.507,0,0,0-1.722.194l-2.874,1.658a2.92,2.92,0,0,1-2.669,0l-4.661-2.669c-.743-.42-.743-1.109,0-1.539l2.852-1.647c.474-.269.57-.678.291-1.033a6.486,6.486,0,0,1-.463-.646,1.789,1.789,0,0,0-1.475-.6h-4.036c-1.044,0-1.894-.474-1.894-1.076v-.43a.371.371,0,0,0-.011.129v5.522c.022.6.861,1.087,1.905,1.087h2.368l-.054,4.564a.586.586,0,0,0,0,.237h0a.993.993,0,0,0,.538.657l4.661,2.669a2.832,2.832,0,0,0,1.658.28l.032.022v-.022a2.537,2.537,0,0,0,.979-.28l2.874-1.658a2.507,2.507,0,0,1,1.722-.194c.409.1.85.2,1.238.291.6.129.99.463.99.84v2.346c0,.6.85,1.087,1.894,1.087h6.577c1.044,0,1.884-.5,1.884-1.1v-2.325c0-.387.42-.71,1.044-.85.377-.086.753-.172,1.119-.269a2.488,2.488,0,0,1,1.8.172l2.863,1.636a2.6,2.6,0,0,0,.98.28v.032l.054-.022a2.882,2.882,0,0,0,1.647-.28l4.639-2.68a1.026,1.026,0,0,0,.527-.624h.022v-.172l-.054-4.671h2.325c1.044,0,1.884-.484,1.884-1.087v-5.167c-.054.57-.883,1.033-1.884,1.033Z" transform="translate(-178.799 -288.952)" fill="#084a93"/>
            <path id="Trazado_116035" data-name="Trazado 116035" d="M219.354,296.523,216.5,298.17c-.474.269-.57.678-.291,1.033.161.215.323.42.463.646a1.494,1.494,0,0,0,.99.56l1.69-.98a.948.948,0,0,0,.538-.7h.032l-.022-2.96a.931.931,0,0,1-.549.764Z" transform="translate(-175.955 -289.602)" fill="#192c56"/>
            <path id="Trazado_116036" data-name="Trazado 116036" d="M210.173,300.922h0a6.457,6.457,0,0,0-1.432-1.216c-.011,0-.022-.011-.032-.022-.086-.054-.161-.108-.248-.151l-.065-.032-.226-.129c-.032-.011-.054-.032-.086-.043-.075-.043-.151-.075-.226-.118a.99.99,0,0,0-.108-.054c-.075-.032-.14-.065-.215-.1-.043-.022-.075-.032-.118-.054-.075-.032-.14-.065-.215-.1-.043-.022-.086-.032-.129-.054-.075-.032-.14-.054-.215-.086-.043-.022-.086-.032-.14-.054-.075-.021-.151-.054-.226-.075-.043-.011-.1-.032-.14-.043-.075-.021-.161-.054-.237-.075-.043-.011-.1-.032-.14-.043a2.331,2.331,0,0,1-.258-.075l-.129-.032c-.129-.032-.258-.065-.4-.1s-.258-.054-.4-.086a.136.136,0,0,1-.065-.011l-.377-.065a.184.184,0,0,1-.075-.011c-.129-.022-.258-.043-.387-.054h-.043c-.129-.011-.248-.032-.377-.043h-.054l-.387-.032h-.075c-.129,0-.258-.022-.387-.022h-.054c-.129,0-.258,0-.388-.011h-.915c-.129,0-.258.011-.387.021h-.011c-.129,0-.258.022-.388.032h-.043c-.129.011-.258.022-.377.043h-.054c-.129.011-.258.032-.377.054h-.032l-.387.065h0c-.129.022-.258.043-.377.075h-.043c-.118.022-.248.054-.366.075h-.032c-.248.054-.506.129-.743.194h-.022c-.118.032-.237.075-.355.108h-.022a10,10,0,0,0-1.044.4h-.011c-.108.054-.215.1-.323.151h0a9.213,9.213,0,0,0-.915.517h0a7.586,7.586,0,0,0-.8.581h0a5.4,5.4,0,0,0-.657.657h0a3.961,3.961,0,0,0-.775,1.367,3.469,3.469,0,0,0,1.044,3.563c2.207-2.271,7.05-3.358,11.485-2.379a9.458,9.458,0,0,1,4.758,2.4A4.273,4.273,0,0,0,211,304.2a3.394,3.394,0,0,0-.818-3.326Z" transform="translate(-177.752 -289.437)" fill="#084a93"/>
            <path id="Trazado_116037" data-name="Trazado 116037" d="M185.942,299.908c.151-.215.323-.474.5-.71.248-.344.118-.732-.334-.99l-2.885-1.647a.954.954,0,0,1-.549-.71v2.809a.919.919,0,0,0,.549.8l1.711.98a1.5,1.5,0,0,0,1-.527Z" transform="translate(-178.504 -289.596)" fill="#192c56"/>
            <path id="Trazado_116038" data-name="Trazado 116038" d="M226.914,301.977c0-.6-.85-1.087-1.894-1.087h-4.036a2.318,2.318,0,0,1-.484-.043,1.494,1.494,0,0,1-.99-.56c-.14-.215-.3-.431-.463-.646-.28-.355-.183-.764.291-1.033l2.852-1.647a.931.931,0,0,0,.549-.764.946.946,0,0,0-.549-.775l-4.65-2.669a2.986,2.986,0,0,0-2.669,0L212,294.41a2.507,2.507,0,0,1-1.722.194c-.409-.1-.85-.2-1.238-.291-.6-.129-.99-.463-.99-.84v-2.346c0-.6-.85-1.087-1.894-1.087h-6.577c-1.044,0-1.894.484-1.894,1.087v2.325c0,.388-.431.71-1.055.85-.4.086-.786.183-1.173.28a2.489,2.489,0,0,1-1.8-.172l-2.863-1.636a2.986,2.986,0,0,0-2.669,0l-4.639,2.68a.914.914,0,0,0-.549.829.972.972,0,0,0,.549.71l2.885,1.647c.452.258.581.646.334.99-.172.237-.355.5-.5.71a1.5,1.5,0,0,1-1,.527c-.14.022-.291.032-.441.043h-4.079c-1.044,0-1.884.5-1.884,1.1v3.348l.011.431c0,.6.85,1.087,1.894,1.087h4.036a1.758,1.758,0,0,1,1.475.6c.14.215.3.431.463.646.28.344.183.764-.291,1.033l-2.852,1.647a.814.814,0,0,0,0,1.539l4.661,2.669a2.986,2.986,0,0,0,2.669,0l2.874-1.658a2.507,2.507,0,0,1,1.722-.194c.409.1.85.2,1.238.291.6.129.99.463.99.84v2.346c0,.6.85,1.087,1.894,1.087h6.577c1.044,0,1.884-.5,1.884-1.1V314.3c0-.387.42-.71,1.044-.85.377-.086.753-.172,1.119-.269a2.488,2.488,0,0,1,1.8.172l2.863,1.636a2.986,2.986,0,0,0,2.669,0l4.639-2.68a.814.814,0,0,0,0-1.539l-2.874-1.658c-.452-.258-.581-.657-.334-.99.42-.57.85-1.238.872-1.281H225c1.012,0,1.83-.463,1.884-1.033v-3.843Zm-14.875,2.863a4.273,4.273,0,0,1-1.044,1.658c-2.207,2.271-7.05,3.358-11.485,2.368a9.458,9.458,0,0,1-4.758-2.4,3.469,3.469,0,0,1-1.044-3.563,4.342,4.342,0,0,1,.775-1.367c2.067-2.465,7.126-3.692,11.754-2.669a9.219,9.219,0,0,1,4.984,2.648A3.369,3.369,0,0,1,212.038,304.84Z" transform="translate(-178.8 -290.04)" fill="#f4f4f4"/>
          </g>
        </g>
        <g id="Grupo_112054" data-name="Grupo 112054" transform="translate(149.174)">
          <path id="Trazado_116039" data-name="Trazado 116039" d="M257.247,293.157c0-.4-.56-.71-1.249-.71H253.34a1.1,1.1,0,0,1-.323-.032,1,1,0,0,1-.657-.366c-.1-.14-.194-.28-.3-.42-.183-.226-.118-.5.194-.678l1.873-1.076a.631.631,0,0,0,.366-.506.609.609,0,0,0-.366-.506l-3.057-1.765a1.938,1.938,0,0,0-1.755,0l-1.894,1.087a1.667,1.667,0,0,1-1.13.129c-.269-.065-.56-.129-.818-.194-.4-.086-.646-.3-.646-.549v-1.539c0-.4-.56-.721-1.249-.721H239.25c-.689,0-1.249.323-1.249.721v1.528c0,.248-.28.474-.7.56-.258.054-.517.118-.764.183a1.7,1.7,0,0,1-1.184-.108l-1.884-1.076a1.938,1.938,0,0,0-1.754,0l-3.057,1.765a.592.592,0,0,0-.355.549.648.648,0,0,0,.366.463l1.894,1.087c.3.172.387.431.215.657-.118.151-.226.323-.334.463a1.024,1.024,0,0,1-.657.355,2.629,2.629,0,0,1-.291.022h-2.68c-.689,0-1.238.323-1.238.721v2.486c0,.4.56.71,1.249.71h2.659a1.155,1.155,0,0,1,.969.4c.1.14.194.28.3.42.183.226.118.5-.194.678l-1.873,1.087a.534.534,0,0,0,0,1.012l3.068,1.755a1.938,1.938,0,0,0,1.755,0l1.894-1.087a1.607,1.607,0,0,1,1.13-.129c.269.065.56.129.818.194.4.086.657.3.657.549v1.539c0,.4.56.71,1.249.71h4.327c.689,0,1.238-.323,1.238-.721v-1.528c0-.248.28-.474.689-.56.248-.054.5-.108.732-.172a1.7,1.7,0,0,1,1.184.108l1.884,1.076a1.938,1.938,0,0,0,1.755,0l3.057-1.765a.534.534,0,0,0,0-1.012l-1.894-1.087c-.3-.172-.387-.431-.215-.657.28-.377.56-.818.57-.84h3.391c.667,0,1.206-.3,1.238-.678v-2.519Zm-9.8,1.884a2.858,2.858,0,0,1-.689,1.1c-1.453,1.5-4.639,2.207-7.556,1.561a6.2,6.2,0,0,1-3.132-1.582,2.288,2.288,0,0,1-.689-2.346,2.731,2.731,0,0,1,.517-.9c1.356-1.625,4.693-2.433,7.739-1.755a5.98,5.98,0,0,1,3.283,1.744,2.222,2.222,0,0,1,.538,2.185Z" transform="translate(-225.451 -280.057)" fill="#d9e1ff"/>
          <g id="Grupo_112053" data-name="Grupo 112053">
            <path id="Trazado_116040" data-name="Trazado 116040" d="M255.877,290.768h-3.391s-.3.474-.57.84c-.161.226-.075.484.215.657l1.894,1.087a.534.534,0,0,1,0,1.012l-3.057,1.765a1.938,1.938,0,0,1-1.755,0l-1.884-1.076a1.633,1.633,0,0,0-1.184-.108c-.237.065-.484.118-.732.172-.409.086-.7.312-.689.56V297.2c0,.4-.549.721-1.238.721h-4.327c-.689,0-1.249-.312-1.249-.71v-1.539c0-.248-.258-.463-.657-.549-.248-.054-.538-.118-.818-.194a1.6,1.6,0,0,0-1.13.129l-1.894,1.087a1.938,1.938,0,0,1-1.755,0l-3.068-1.755a.534.534,0,0,1,0-1.012l1.873-1.087c.312-.183.377-.452.194-.678a5.109,5.109,0,0,1-.3-.42,1.17,1.17,0,0,0-.969-.4h-2.659c-.689,0-1.249-.312-1.249-.71v3.444c.011.4.57.71,1.259.71H228.3l-.032,3a.7.7,0,0,0,0,.151h0a.641.641,0,0,0,.355.431l3.068,1.754a1.843,1.843,0,0,0,1.087.183h.022a1.556,1.556,0,0,0,.646-.183l1.894-1.087a1.606,1.606,0,0,1,1.13-.129c.269.065.56.129.818.194.4.086.646.3.657.549v1.539c0,.4.56.71,1.249.71h4.327c.689,0,1.238-.323,1.238-.721V299.11c0-.248.28-.474.689-.56.248-.054.5-.108.732-.172a1.7,1.7,0,0,1,1.184.108l1.884,1.076a1.556,1.556,0,0,0,.646.183v.022l.032-.022a1.952,1.952,0,0,0,1.076-.183l3.057-1.765a.645.645,0,0,0,.344-.409h.011v-.108l-.043-3.068H255.9c.689,0,1.249-.323,1.238-.721v-3.4c-.032.377-.581.678-1.238.678Z" transform="translate(-225.458 -279.714)" fill="#084a93"/>
            <path id="Trazado_116041" data-name="Trazado 116041" d="M252.144,284.7l-1.873,1.076c-.312.183-.377.452-.194.678a5.087,5.087,0,0,1,.3.42,1,1,0,0,0,.657.366l1.119-.646a.63.63,0,0,0,.355-.463h.022V284.18a.671.671,0,0,1-.377.506Z" transform="translate(-223.588 -280.144)" fill="#192c56"/>
            <path id="Trazado_116042" data-name="Trazado 116042" d="M246.1,287.577h0a4.652,4.652,0,0,0-.936-.807.033.033,0,0,1-.022-.011l-.161-.1c-.011,0-.032-.022-.043-.022-.054-.032-.1-.054-.151-.086a.092.092,0,0,1-.054-.032c-.043-.022-.1-.054-.151-.075l-.065-.032c-.043-.022-.1-.043-.14-.065-.022-.011-.054-.022-.075-.032-.043-.021-.1-.043-.14-.065s-.054-.022-.086-.032-.1-.032-.14-.054a.737.737,0,0,1-.086-.032c-.054-.022-.1-.032-.151-.054a.342.342,0,0,1-.1-.032,1.1,1.1,0,0,0-.151-.043.341.341,0,0,1-.1-.032,1.012,1.012,0,0,0-.172-.043.253.253,0,0,1-.086-.022l-.258-.065c-.086-.021-.172-.032-.258-.054h-.043c-.086-.011-.161-.032-.248-.043h-.043l-.258-.032h-.022a1.946,1.946,0,0,1-.248-.032h-.032a2.088,2.088,0,0,1-.258-.022h-.043c-.086,0-.172-.011-.248-.011h-.893a2.078,2.078,0,0,0-.258.011h0a2.094,2.094,0,0,0-.258.022h-.022c-.086,0-.172.021-.248.021h-.032a1.722,1.722,0,0,0-.248.032h-.022a2.153,2.153,0,0,0-.258.043h0c-.086.011-.172.032-.248.043h-.022c-.086.021-.161.032-.248.054h-.022c-.161.043-.334.086-.484.129h-.011a2.01,2.01,0,0,0-.237.075h-.022c-.237.075-.463.161-.689.258h0c-.075.032-.14.065-.215.1h0a6.323,6.323,0,0,0-.6.334h0a3.923,3.923,0,0,0-.527.388h0a4.061,4.061,0,0,0-.431.431h0a2.732,2.732,0,0,0-.517.9,2.267,2.267,0,0,0,.689,2.346c1.453-1.5,4.639-2.207,7.556-1.561A6.2,6.2,0,0,1,246,290.86a2.857,2.857,0,0,0,.689-1.1,2.222,2.222,0,0,0-.538-2.185Z" transform="translate(-224.768 -280.031)" fill="#084a93"/>
            <path id="Trazado_116043" data-name="Trazado 116043" d="M230.152,286.919c.1-.14.215-.312.334-.463.161-.226.075-.484-.215-.657l-1.894-1.087a.647.647,0,0,1-.366-.463V286.1a.6.6,0,0,0,.366.527l1.13.646a.972.972,0,0,0,.657-.355Z" transform="translate(-225.265 -280.138)" fill="#192c56"/>
            <path id="Trazado_116044" data-name="Trazado 116044" d="M257.127,288.277c0-.4-.56-.71-1.249-.71H253.22a1.1,1.1,0,0,1-.323-.032,1,1,0,0,1-.657-.366c-.1-.14-.194-.28-.3-.42-.183-.226-.118-.5.194-.678l1.873-1.076a.631.631,0,0,0,.366-.506.609.609,0,0,0-.366-.506l-3.057-1.765a1.938,1.938,0,0,0-1.754,0L247.3,283.3a1.667,1.667,0,0,1-1.13.129c-.269-.065-.56-.129-.818-.194-.4-.086-.646-.3-.646-.549v-1.539c0-.4-.56-.721-1.249-.721H239.13c-.689,0-1.249.323-1.249.721v1.529c0,.248-.28.474-.7.56-.258.054-.517.118-.764.183a1.7,1.7,0,0,1-1.184-.108l-1.884-1.076a1.938,1.938,0,0,0-1.755,0L228.538,284a.592.592,0,0,0-.355.549.647.647,0,0,0,.366.463l1.894,1.087c.3.172.387.431.215.657-.118.151-.226.323-.334.463a1.025,1.025,0,0,1-.657.355,2.644,2.644,0,0,1-.291.021H226.7c-.689,0-1.238.323-1.238.721v2.486c0,.4.56.71,1.249.71h2.659a1.155,1.155,0,0,1,.969.4c.1.14.194.28.3.42.183.226.118.5-.194.678l-1.873,1.087a.534.534,0,0,0,0,1.012l3.068,1.754a1.938,1.938,0,0,0,1.754,0l1.894-1.087a1.607,1.607,0,0,1,1.13-.129c.269.065.56.129.818.194.4.086.657.3.657.549v1.539c0,.4.56.71,1.249.71h4.327c.689,0,1.238-.323,1.238-.721v-1.528c0-.248.28-.474.689-.56.248-.054.5-.108.732-.172a1.7,1.7,0,0,1,1.184.108l1.884,1.076a1.938,1.938,0,0,0,1.754,0l3.057-1.765a.534.534,0,0,0,0-1.012l-1.894-1.087c-.3-.172-.387-.431-.215-.657.28-.377.56-.818.571-.84h3.391c.667,0,1.206-.3,1.238-.678v-2.519Zm-9.8,1.884a2.857,2.857,0,0,1-.689,1.1c-1.453,1.5-4.639,2.207-7.556,1.561a6.2,6.2,0,0,1-3.132-1.582,2.288,2.288,0,0,1-.689-2.346,2.731,2.731,0,0,1,.517-.9c1.356-1.625,4.693-2.433,7.739-1.755a5.98,5.98,0,0,1,3.283,1.744,2.222,2.222,0,0,1,.538,2.185Z" transform="translate(-225.46 -280.43)" fill="#f4f4f4"/>
          </g>
        </g>
        <g id="Grupo_112056" data-name="Grupo 112056" transform="translate(0 1.808)">
          <path id="Trazado_116045" data-name="Trazado 116045" d="M118.657,294.837c0-.4-.56-.71-1.249-.71H114.75a1.1,1.1,0,0,1-.323-.032,1,1,0,0,1-.657-.366c-.1-.14-.194-.28-.3-.42-.183-.226-.118-.5.194-.678l1.873-1.076a.631.631,0,0,0,.366-.506.609.609,0,0,0-.366-.506l-3.057-1.765a1.938,1.938,0,0,0-1.754,0l-1.894,1.087a1.667,1.667,0,0,1-1.13.129c-.269-.065-.56-.129-.818-.194-.4-.086-.646-.3-.646-.549v-1.539c0-.4-.56-.721-1.249-.721H100.66c-.689,0-1.249.323-1.249.721v1.528c0,.248-.28.474-.7.56-.258.054-.517.118-.764.183a1.7,1.7,0,0,1-1.184-.108L94.88,288.8a1.938,1.938,0,0,0-1.754,0l-3.057,1.765a.592.592,0,0,0-.355.549.647.647,0,0,0,.366.463l1.894,1.087c.3.172.387.431.215.657-.118.151-.226.323-.334.463a1.025,1.025,0,0,1-.657.355,2.637,2.637,0,0,1-.291.022h-2.68c-.689,0-1.238.323-1.238.721v2.486c0,.4.56.71,1.249.71H90.9a1.155,1.155,0,0,1,.969.4c.1.14.194.28.3.42.183.226.118.5-.194.678L90.1,300.66a.534.534,0,0,0,0,1.012l3.068,1.754a1.938,1.938,0,0,0,1.754,0l1.894-1.087a1.607,1.607,0,0,1,1.13-.129c.269.065.56.129.818.194.4.086.657.3.657.549v1.539c0,.4.56.71,1.249.71H105c.689,0,1.238-.323,1.238-.721v-1.528c0-.248.28-.474.689-.56.248-.054.5-.108.732-.172a1.7,1.7,0,0,1,1.184.108l1.884,1.076a1.938,1.938,0,0,0,1.754,0l3.057-1.765a.534.534,0,0,0,0-1.012l-1.894-1.087c-.3-.172-.388-.431-.215-.657.28-.377.56-.818.57-.84h3.391c.667,0,1.206-.3,1.238-.678v-2.519Zm-9.795,1.884a2.857,2.857,0,0,1-.689,1.1c-1.453,1.5-4.639,2.207-7.556,1.561a6.2,6.2,0,0,1-3.132-1.582,2.289,2.289,0,0,1-.689-2.346,2.732,2.732,0,0,1,.517-.9c1.356-1.625,4.693-2.433,7.739-1.754a5.98,5.98,0,0,1,3.283,1.744,2.222,2.222,0,0,1,.538,2.185Z" transform="translate(-86.861 -281.737)" fill="#d9e1ff"/>
          <g id="Grupo_112055" data-name="Grupo 112055">
            <path id="Trazado_116046" data-name="Trazado 116046" d="M117.287,292.448H113.9s-.3.474-.57.84c-.161.226-.075.484.215.657l1.894,1.087a.534.534,0,0,1,0,1.012l-3.057,1.765a1.939,1.939,0,0,1-1.754,0l-1.884-1.076a1.633,1.633,0,0,0-1.184-.108c-.237.065-.484.118-.732.172-.409.086-.7.312-.689.56v1.528c0,.4-.549.721-1.238.721h-4.327c-.689,0-1.249-.312-1.249-.71v-1.539c0-.248-.258-.463-.657-.549-.248-.054-.538-.118-.818-.194a1.6,1.6,0,0,0-1.13.129l-1.894,1.087a1.938,1.938,0,0,1-1.754,0L90,296.075a.534.534,0,0,1,0-1.012l1.873-1.087c.312-.183.377-.452.194-.678a5.1,5.1,0,0,1-.3-.42,1.17,1.17,0,0,0-.969-.4H88.139c-.689,0-1.249-.312-1.249-.71v3.444c.011.4.57.71,1.259.71H89.71l-.032,3a.7.7,0,0,0,0,.151h0a.641.641,0,0,0,.355.431l3.068,1.755a1.844,1.844,0,0,0,1.087.183h.022a1.557,1.557,0,0,0,.646-.183l1.894-1.087a1.606,1.606,0,0,1,1.13-.129c.269.065.56.129.818.194.4.086.646.3.657.549v1.539c0,.4.56.71,1.249.71h4.327c.689,0,1.238-.323,1.238-.721V300.79c0-.248.28-.474.689-.56.248-.054.5-.108.732-.172a1.7,1.7,0,0,1,1.184.108l1.884,1.076a1.557,1.557,0,0,0,.646.183v.022l.032-.022a1.952,1.952,0,0,0,1.076-.183l3.057-1.765a.645.645,0,0,0,.344-.409h.011v-.108l-.043-3.068h1.528c.689,0,1.249-.323,1.238-.721v-3.4c-.032.377-.581.678-1.238.678Z" transform="translate(-86.868 -281.394)" fill="#084a93"/>
            <path id="Trazado_116047" data-name="Trazado 116047" d="M113.554,286.377l-1.873,1.076c-.312.183-.377.452-.194.678a5.088,5.088,0,0,1,.3.42,1,1,0,0,0,.657.366l1.119-.646a.63.63,0,0,0,.355-.463h.022V285.86a.671.671,0,0,1-.377.506Z" transform="translate(-84.998 -281.824)" fill="#192c56"/>
            <path id="Trazado_116048" data-name="Trazado 116048" d="M107.5,289.257h0a4.651,4.651,0,0,0-.936-.807.033.033,0,0,1-.022-.011l-.161-.1c-.011,0-.032-.022-.043-.022-.054-.032-.1-.054-.151-.086a.092.092,0,0,1-.054-.032c-.043-.022-.1-.054-.151-.075l-.065-.032c-.043-.022-.1-.043-.14-.065-.022-.011-.054-.022-.075-.032-.043-.022-.1-.043-.14-.065s-.054-.021-.086-.032-.1-.032-.14-.054a.737.737,0,0,1-.086-.032c-.054-.021-.1-.032-.151-.054a.343.343,0,0,1-.1-.032,1.108,1.108,0,0,0-.151-.043.342.342,0,0,1-.1-.032,1.007,1.007,0,0,0-.172-.043.254.254,0,0,1-.086-.022l-.258-.065c-.086-.022-.172-.032-.258-.054h-.043c-.086-.011-.161-.032-.248-.043h-.043l-.258-.032h-.022a1.947,1.947,0,0,1-.248-.032h-.032a2.089,2.089,0,0,1-.258-.022h-.043c-.086,0-.172-.011-.248-.011h-.893a2.072,2.072,0,0,0-.258.011h0a2.088,2.088,0,0,0-.258.022h-.022c-.086,0-.172.022-.248.022h-.032a1.717,1.717,0,0,0-.248.032h-.022a2.147,2.147,0,0,0-.258.043h0c-.086.011-.172.032-.248.043h-.022c-.086.022-.161.032-.248.054h-.022c-.161.043-.334.086-.484.129h-.011a2.012,2.012,0,0,0-.237.075h-.022c-.237.075-.463.161-.689.258h0c-.075.032-.14.065-.215.1h0a6.327,6.327,0,0,0-.6.334h0a3.922,3.922,0,0,0-.527.387h0a4.066,4.066,0,0,0-.431.431h0a2.732,2.732,0,0,0-.517.9,2.267,2.267,0,0,0,.689,2.346c1.453-1.5,4.639-2.207,7.556-1.561a6.2,6.2,0,0,1,3.132,1.582,2.857,2.857,0,0,0,.689-1.1,2.222,2.222,0,0,0-.538-2.185Z" transform="translate(-86.178 -281.711)" fill="#084a93"/>
            <path id="Trazado_116049" data-name="Trazado 116049" d="M91.562,288.6c.1-.14.215-.312.334-.463.161-.226.075-.484-.215-.657l-1.894-1.087a.647.647,0,0,1-.366-.463v1.851a.6.6,0,0,0,.366.527l1.13.646a.971.971,0,0,0,.657-.355Z" transform="translate(-86.675 -281.818)" fill="#192c56"/>
            <path id="Trazado_116050" data-name="Trazado 116050" d="M118.537,289.957c0-.4-.56-.71-1.249-.71H114.63a1.1,1.1,0,0,1-.323-.032,1,1,0,0,1-.657-.366c-.1-.14-.194-.28-.3-.42-.183-.226-.118-.5.194-.678l1.873-1.076a.631.631,0,0,0,.366-.506.609.609,0,0,0-.366-.506l-3.057-1.765a1.938,1.938,0,0,0-1.754,0l-1.894,1.087a1.667,1.667,0,0,1-1.13.129c-.269-.065-.56-.129-.818-.194-.4-.086-.646-.3-.646-.549v-1.539c0-.4-.56-.721-1.249-.721H100.54c-.689,0-1.249.323-1.249.721v1.528c0,.248-.28.474-.7.56-.258.054-.517.118-.764.183a1.7,1.7,0,0,1-1.184-.108l-1.884-1.076a1.938,1.938,0,0,0-1.754,0l-3.057,1.765a.592.592,0,0,0-.355.549.647.647,0,0,0,.366.463l1.894,1.087c.3.172.388.431.215.657-.118.151-.226.323-.334.463a1.025,1.025,0,0,1-.657.355,2.645,2.645,0,0,1-.291.022h-2.68c-.689,0-1.238.323-1.238.721v2.486c0,.4.56.71,1.249.71h2.659a1.155,1.155,0,0,1,.969.4c.1.14.194.28.3.42.183.226.118.5-.194.678l-1.873,1.087a.534.534,0,0,0,0,1.012l3.068,1.754a1.938,1.938,0,0,0,1.754,0l1.894-1.087a1.607,1.607,0,0,1,1.13-.129c.269.065.56.129.818.194.4.086.657.3.657.549v1.539c0,.4.56.71,1.249.71h4.327c.689,0,1.238-.323,1.238-.721v-1.528c0-.248.28-.474.689-.56.248-.054.5-.108.732-.172a1.7,1.7,0,0,1,1.184.108l1.884,1.076a1.938,1.938,0,0,0,1.754,0l3.057-1.765a.534.534,0,0,0,0-1.012l-1.894-1.087c-.3-.172-.387-.431-.215-.657.28-.377.56-.818.57-.84h3.391c.667,0,1.206-.3,1.238-.678v-2.519Zm-9.795,1.884a2.857,2.857,0,0,1-.689,1.1c-1.453,1.5-4.639,2.207-7.556,1.561a6.2,6.2,0,0,1-3.132-1.582,2.289,2.289,0,0,1-.689-2.346,2.732,2.732,0,0,1,.517-.9c1.356-1.625,4.693-2.433,7.739-1.754a5.98,5.98,0,0,1,3.283,1.744,2.222,2.222,0,0,1,.538,2.185Z" transform="translate(-86.87 -282.11)" fill="#f4f4f4"/>
          </g>
        </g>
      </g>
      <g id="Grupo_112059" data-name="Grupo 112059" transform="translate(60.111 139.805)">
        <path id="Trazado_116051" data-name="Trazado 116051" d="M159.958,169.96l-15.511,9.009c-1.754-4.252-5.339-8.18-10.516-11.442-8.159-5.156-19.224-8-31.139-8s-23.293,2.9-31.775,8.137c-8.105,4.984-12.594,11.474-12.647,18.288-.043,6.426,3.972,12.594,11.1,17.2.248.183.484.344.657.452,8.18,5.156,19.246,8,31.161,8s23.271-2.885,31.753-8.116c.366-.226,1.421-.915,1.421-.915,5.371-3.617,8.945-7.965,10.441-12.572l22.5,6.63c7.911-9.042,4.994-19.5-7.449-26.683Z" transform="translate(-58.37 -127.68)" fill="#d9e1ff"/>
        <path id="Trazado_116052" data-name="Trazado 116052" d="M72.985,178.736l-.065,20.709,27.964-16.253,27.975-16.253.054-20.709-27.964,16.253Z" transform="translate(-57.258 -128.696)" fill="#8ab2e8"/>
        <path id="Trazado_116053" data-name="Trazado 116053" d="M73.618,146.708c-15.446,8.977-15.36,23.53.183,32.506l27.964-16.253,27.964-16.253c-15.543-8.977-40.665-8.977-56.122,0Z" transform="translate(-58.086 -129.174)" fill="#4367c7"/>
        <path id="Trazado_116054" data-name="Trazado 116054" d="M73.617,146.718A31.6,31.6,0,0,0,68.58,150.3c-.366.323-.71.646-1.033.958-3.649,3.584-5.468,7.642-5.446,11.7h39.675l27.964-16.242c-15.543-8.977-40.665-8.988-56.111,0Z" transform="translate(-58.085 -129.173)" fill="#abcfff"/>
        <path id="Trazado_116055" data-name="Trazado 116055" d="M65.8,170.972a18.37,18.37,0,0,1-1.464-2.088,16.28,16.28,0,0,1-1.507-3.24,13.7,13.7,0,0,1-.721-4.424l-.054,20.7c-.011,5.92,3.9,11.851,11.711,16.372l.054-20.7a28.367,28.367,0,0,1-8.019-6.62Z" transform="translate(-58.089 -127.551)" fill="#3c5cb3"/>
        <g id="Grupo_112058" data-name="Grupo 112058" transform="translate(70.234)">
          <path id="Trazado_116056" data-name="Trazado 116056" d="M156.52,191.681c2.949-3.369,4.392-6.932,4.4-10.452l.054-36.209c0,3.52-1.453,7.083-4.4,10.452Z" transform="translate(-121.107 -128.788)" fill="#ffb30b"/>
          <path id="Trazado_116057" data-name="Trazado 116057" d="M151.644,129.94,123.68,146.193l35.413,10.43c7.911-9.042,4.994-19.5-7.449-26.683Z" transform="translate(-123.615 -129.94)" fill="#ffb30b"/>
          <path id="Trazado_116058" data-name="Trazado 116058" d="M123.62,181.249l35.413,10.43.065-36.209-35.413-10.43Z" transform="translate(-123.62 -128.787)" fill="#d99809"/>
        </g>
        <path id="Trazado_116059" data-name="Trazado 116059" d="M135.116,172.331c-.215.215-.431.42-.657.635-.2.183-.409.355-.614.538-.172.151-.344.3-.517.441-.215.172-.441.344-.667.517-.183.14-.355.28-.538.42-.237.172-.484.334-.721.506-.183.129-.366.258-.56.387-.258.172-.527.334-.8.506-.183.118-.366.237-.56.355a2.131,2.131,0,0,1-.215.118c-.344.2-.689.4-1.044.592-.129.075-.258.14-.4.215-.323.172-.657.344-.979.506-.118.054-.237.118-.355.172-.441.215-.893.42-1.345.624-.075.032-.161.075-.248.108q-.581.258-1.162.484c-.151.054-.291.118-.441.172-.355.14-.721.28-1.087.409-.129.043-.258.1-.387.14-.484.172-.969.334-1.464.5-.581.183-1.162.366-1.765.538-.032,0-.065.022-.1.022-.56.161-1.13.312-1.7.452-.2.054-.42.1-.624.151-.409.1-.807.194-1.216.28-.248.054-.5.108-.743.151l-1.13.226c-.2.032-.409.065-.614.108-.581.1-1.173.194-1.765.28l-.646.1c-.764.108-1.528.194-2.3.28a1.6,1.6,0,0,0-.226.022c-.6.054-1.206.108-1.819.151-.237.011-.463.022-.7.043-.452.022-.915.054-1.367.065-.291,0-.581.011-.883.022-.355,0-.71.022-1.066.022H99.714c-.312,0-.635-.011-.947-.022s-.646-.022-.969-.032-.646-.032-.969-.054l-.969-.065c-.323-.022-.646-.054-.969-.086s-.635-.054-.947-.1-.646-.075-.969-.108-.635-.075-.947-.118-.624-.086-.936-.14L90.07,182.7c-.312-.054-.614-.108-.915-.161l-1.012-.194c-.291-.054-.581-.118-.872-.183-.4-.086-.8-.172-1.195-.269l-.818-.194c-.409-.1-.807-.215-1.216-.323-.344-.1-.689-.183-1.033-.291-.452-.129-.883-.269-1.313-.409-.14-.043-.269-.086-.4-.129l-.872-.291c-.151-.054-.3-.108-.441-.161-.269-.1-.527-.194-.8-.291l-.42-.161c-.183-.075-.355-.14-.538-.215-.3-.118-.592-.237-.883-.366l-.517-.226-.84-.388c-.161-.075-.323-.151-.484-.237-.291-.14-.592-.291-.883-.441-.14-.075-.28-.14-.409-.215-.431-.226-.85-.463-1.281-.71l-.054,20.7c.431.248.85.484,1.281.71.14.075.28.14.409.215.291.151.592.3.883.452.161.075.323.151.484.237l.84.387.517.226c.291.118.581.248.883.366.118.043.226.1.334.14.065.022.14.054.2.075l.42.161c.258.1.527.194.8.291.151.054.291.108.441.151q.42.145.872.291c.129.043.269.086.4.129.431.14.861.269,1.313.409.161.043.323.1.484.14.183.054.366.1.549.151.4.108.807.215,1.216.323.269.065.549.129.818.2.4.1.8.183,1.195.269.14.032.28.065.431.1s.3.054.441.086l1.012.194.915.161,1.023.161c.183.022.355.054.538.086.129.022.269.032.4.054.312.043.635.086.947.118s.646.075.969.108l.947.1c.183.011.366.032.56.054.14,0,.28.022.409.032l.969.065c.323.022.646.032.969.054l.969.032c.183,0,.366.022.56.022h2.368c.355,0,.71-.011,1.066-.022.2,0,.4,0,.6-.011a2.434,2.434,0,0,0,.28-.011c.452-.022.915-.043,1.367-.075.237-.011.463-.022.7-.043.614-.043,1.216-.1,1.819-.151a1.305,1.305,0,0,0,.2-.011h.022c.775-.075,1.539-.172,2.3-.28l.646-.1c.592-.086,1.173-.183,1.765-.28l.387-.065c.075-.011.151-.032.215-.043l1.13-.226c.248-.054.5-.1.743-.151.409-.086.818-.183,1.227-.28.2-.054.42-.1.624-.151.57-.14,1.141-.3,1.711-.452a.314.314,0,0,0,.1-.022c.592-.172,1.184-.344,1.765-.538a.153.153,0,0,0,.065-.022c.474-.151.936-.312,1.4-.474.129-.043.258-.1.387-.14.366-.129.732-.269,1.087-.409.151-.054.291-.118.441-.172l1.163-.484c.086-.032.161-.075.248-.108.452-.2.9-.409,1.345-.624.118-.054.237-.118.355-.172.334-.172.657-.334.979-.506.129-.065.269-.14.4-.215.355-.194.7-.387,1.044-.592a2.136,2.136,0,0,1,.215-.118.092.092,0,0,0,.054-.032c.172-.1.334-.215.5-.323.269-.161.538-.334.8-.506.194-.129.366-.258.549-.388.248-.172.484-.334.721-.506.183-.14.355-.28.538-.409.226-.172.452-.344.667-.517.172-.14.344-.291.517-.441.2-.183.42-.355.614-.538.032-.032.075-.065.108-.1.183-.172.366-.355.549-.527.108-.108.226-.215.334-.323.323-.323.624-.657.926-.99l.054-20.7c-.291.334-.6.667-.926.99l-.323.323Z" transform="translate(-57.261 -126.8)" fill="#5072de"/>
        <path id="Trazado_116060" data-name="Trazado 116060" d="M72.98,177.583A44.054,44.054,0,0,0,83.044,181.8c19.558,5.759,43.421,1.27,53.313-10.043l-35.413-10.43L72.98,177.583Z" transform="translate(-57.254 -127.543)" fill="#5986ff"/>
      </g>
      <g id="Grupo_112061" data-name="Grupo 112061" transform="translate(116.182 152.474)">
        <path id="Trazado_116061" data-name="Trazado 116061" d="M113.9,194.31c3.907,3.38,12.271,4.219,12.271,4.219.5,5.855,4.284,12.927,4.284,12.927a51.647,51.647,0,0,1-9.989.614c-3.81-.366-8.385-1.3-9.935-5.457-.657-1.464,3.358-12.292,3.358-12.292Z" transform="translate(-110.463 -137.693)" fill="#ffcda8"/>
        <path id="Trazado_116062" data-name="Trazado 116062" d="M177.96,331.828s-11.022-.291-13.627.086a33.334,33.334,0,0,1-16.673,6.415v6.383s4.327,3.939,11.829,1.152V345s8.557.484,12.981-1.055c0,0,8.557-1.442,9.332-7.115,0,0-.388-4.327-3.843-5.005Z" transform="translate(-107.622 -127.198)" fill="#192c56"/>
        <path id="Trazado_116063" data-name="Trazado 116063" d="M144.75,314.912c-.517-1.475-2.153-4.09-7.093-3.025,0,0-.6,5.963-5.35,6.932l-5.716,1.152-2.885,2.982-2.5,2.153s.291,4.2,1.442,4.973,5.576,1.927,7.115,0,2.885-3.692,2.885-3.692v-1.023a59.96,59.96,0,0,0,5.672-2.788,23.281,23.281,0,0,0,3.67-2.68h0c2.766-2.917,2.755-4.973,2.755-4.973Z" transform="translate(-109.642 -128.732)" fill="#192c56"/>
        <path id="Trazado_116064" data-name="Trazado 116064" d="M163.088,236.83a41.265,41.265,0,0,1-9.128,2.8C160,239,163.088,236.83,163.088,236.83Z" transform="translate(-107.141 -134.445)" fill="none"/>
        <path id="Trazado_116065" data-name="Trazado 116065" d="M137.726,318.55c-.269,2.82-5.371,6.674-8.708,10.516s-6.921,2.562-7.7,1.281-1.539-25.908-1.539-25.908c-.517-9.494,4.876-22.055,4.478-25.908s2.96-20.257.915-28.728c-.118-.506-.237-1.033-.323-1.582,5.974,9.031,16.619,10.333,16.619,10.333.861,4.209,3.649,13.035,3.649,13.035,0,.022-4.8,11.819-6.34,22.324s-.764,21.8-1.044,24.617Z" transform="translate(-109.753 -133.576)" fill="#223869"/>
        <path id="Trazado_116066" data-name="Trazado 116066" d="M124.854,228.97h0c2.422,1.841,12.82,8.46,12.82,8.46,5.909,3.918,13.024,3.821,18.567,2.8,6.038-.624,9.128-2.8,9.128-2.8h0s3.6,20.516,3.6,29.751-5.64,37.953-5.64,44.368,2.82,28.212,2.82,28.212c-6.491,6.415-16.673,6.415-16.673,6.415-1.281-2.056-4.359-28.47-5.382-32.571s3.6-21.291,3.6-21.291,1.841-6.964-2.9-19.246c0,0-1.7-5.393-2.852-9.752-12.906-4.435-17.4-13.616-17.4-13.616-1.485-8.5.323-20.731.323-20.731Z" transform="translate(-109.433 -135.046)" fill="#084a93"/>
        <path id="Trazado_116067" data-name="Trazado 116067" d="M133.684,173.513s2.325.291,2.852-3.111c11.636-5.586,19.493,2.26,19.493,2.26a4.759,4.759,0,0,0-3.218,1.313c-1.195,1.345.291,7.287.291,7.287s-.549,6.189-7.675,5.285a6.7,6.7,0,0,1-.732-.269c-4.811-1.959-8.482-3.821-10.753-7.513a6.049,6.049,0,0,1-.248-5.242Z" transform="translate(-108.726 -139.672)" fill="#daa782"/>
        <path id="Trazado_116068" data-name="Trazado 116068" d="M127.471,171.876a45.772,45.772,0,0,0,7.858,1.4c-6.038,4.575-4.585,17.782-4.585,17.782a66.257,66.257,0,0,1-4.305,11.679c-5.985,3.627-13.562,1.421-14.768-4.8,1.033-3.541,3.7-12.1,3.7-12.1S117.795,168.84,127.471,171.876Z" transform="translate(-110.37 -139.434)" fill="#8d88c8"/>
        <path id="Trazado_116069" data-name="Trazado 116069" d="M134.667,173.151c-.506,5.274,9.225,9.795,13.078,9.655,6.727-.226,6.34-1.927,6.34-1.927s10.71,6.878,15.155,13.638c-3,14.768-3.046,44.626-2.831,48.674-1.087,17.534-37.124-.689-41.839-5.748-2.174-24.531-.958-34.024-3.412-43.259s.161-20.989,13.508-21.054Z" transform="translate(-109.709 -139.31)" fill="#adabd0"/>
        <path id="Trazado_116070" data-name="Trazado 116070" d="M149.243,168.04v3.52Q149.162,169.687,149.243,168.04Z" transform="translate(-107.504 -139.699)" fill="none"/>
        <path id="Trazado_116071" data-name="Trazado 116071" d="M159.239,153.34a.96.96,0,0,1,.366.484c.969,7.2-.829,19-2.659,19.676-2.863,1.033-7.7-.818-7.7-.818v-3.52C149.853,156.311,157.915,153.684,159.239,153.34Z" transform="translate(-107.5 -140.822)" fill="#ffcda8"/>
        <path id="Trazado_116072" data-name="Trazado 116072" d="M156.01,161.39h0v0Z" transform="translate(-106.984 -140.207)" fill="none"/>
        <path id="Trazado_116073" data-name="Trazado 116073" d="M156.01,161.248a2.078,2.078,0,0,1,.011-.258c0,.032,0,.14-.011.269h0Z" transform="translate(-106.984 -140.237)" fill="none"/>
        <path id="Trazado_116074" data-name="Trazado 116074" d="M158.31,153.86c.086-.183.161-.377.237-.56C158.471,153.494,158.4,153.677,158.31,153.86Z" transform="translate(-106.808 -140.825)" fill="none"/>
        <path id="Trazado_116075" data-name="Trazado 116075" d="M154.155,142.087a2.6,2.6,0,0,0-.635-.377q.436.178.84.387C154.295,142.1,154.22,142.087,154.155,142.087Z" transform="translate(-107.174 -141.71)" fill="none"/>
        <path id="Trazado_116076" data-name="Trazado 116076" d="M133.413,152.264c3.886-7.825,14.337-8.837,19.418-7.987,5.576,1.087,7.438,6.781,7.438,6.792a14.174,14.174,0,0,1,.484,3.4,11.811,11.811,0,0,1-.57,2.809c-.075.183-.151.366-.237.56h0s-.183,4.392-1.55,5.124c-.592.312-.829,1.432-.9,2.583h0v.022a2.073,2.073,0,0,1-.011.258h0v.161h0v.022a6.847,6.847,0,0,0,0,.818h0c0,.387.022.743.043,1.033l-1.389.9a12.305,12.305,0,0,0-.657-3.175,1.48,1.48,0,0,0-1.83-.151c-2.024,2.346-1.249,5.952-1.937,7.395-.807,1.615-5.177,4.015-12.637,1.615C136.029,172.909,128.559,162.049,133.413,152.264Z" transform="translate(-108.832 -141.533)" fill="#192c56"/>
        <g id="Grupo_112060" data-name="Grupo 112060" transform="translate(61.555 29.132)">
          <path id="Trazado_116077" data-name="Trazado 116077" d="M174.119,208.376s3.208-.56,3.681-1.937c.872-3.993,11.065-14.94,13.056-18.578l6.813,2.5s-10.355,25.9-13.422,29.094c-2.163,2.228-5.07,5.436-8.137,4.069-3.046-1.345-8.46-6.028-8.46-6.028l6.447-9.117Z" transform="translate(-167.65 -167.317)" fill="#ffcda8"/>
          <path id="Trazado_116078" data-name="Trazado 116078" d="M188.948,179.609a14.8,14.8,0,0,0,.56-3.9c0-1.572,3.574-2.486,2.659.248s-1.345,4.392.732,4.811,4.585-9.289,5.242-10.785,3.487-2.153,2.077,1.324-.915,4.564-.915,4.564c3.9,2.411,3.983,10.29.743,12.2a16.8,16.8,0,0,0-5.307,5.726l-5.726-4.069s1.41-1.991.581-3.4a11.765,11.765,0,0,1-1.012-3.487,10.572,10.572,0,0,1,.366-3.24Z" transform="translate(-166.054 -168.775)" fill="#ffcda8"/>
        </g>
        <path id="Trazado_116079" data-name="Trazado 116079" d="M172.289,197.981a98.28,98.28,0,0,1,6.781,8.363c.441,6.792-4.768,12.8-10.957,10.871-2.756-2.573-9.214-7.944-9.214-7.944s-12.981-10.85-5.619-17.609c9.128-8.363,19,6.318,19,6.318Z" transform="translate(-107.365 -138.092)" fill="#8d88c8"/>
      </g>
    </g>
  </g>
</svg>
