<svg xmlns="http://www.w3.org/2000/svg" xmlns:xlink="http://www.w3.org/1999/xlink" width="270.17" height="372.075" viewBox="0 0 270.17 372.075">
  <defs>
    <linearGradient id="linear-gradient" x1="-0.001" y1="0.501" x2="1" y2="0.501" gradientUnits="objectBoundingBox">
      <stop offset="0" stop-color="#ffdba7"/>
      <stop offset="1" stop-color="#ffc5a4"/>
    </linearGradient>
    <linearGradient id="linear-gradient-2" x1="1652.665" y1="-11.708" x2="1653.693" y2="-11.708" gradientUnits="objectBoundingBox">
      <stop offset="0" stop-color="#ffdfb0"/>
      <stop offset="1" stop-color="#ffcbad"/>
    </linearGradient>
    <linearGradient id="linear-gradient-3" x1="1924.73" y1="-9.059" x2="1925.643" y2="-9.059" xlink:href="#linear-gradient-2"/>
    <linearGradient id="linear-gradient-4" x1="0" y1="0.499" x2="0.999" y2="0.499" xlink:href="#linear-gradient"/>
    <linearGradient id="linear-gradient-5" x1="563.485" y1="-6.19" x2="564.472" y2="-6.19" xlink:href="#linear-gradient"/>
    <linearGradient id="linear-gradient-6" x1="5403.936" y1="-34.806" x2="5404.874" y2="-34.806" xlink:href="#linear-gradient-2"/>
    <linearGradient id="linear-gradient-7" x1="835.364" y1="-8.567" x2="836.401" y2="-8.567" xlink:href="#linear-gradient-2"/>
    <linearGradient id="linear-gradient-8" x1="1092.995" y1="-5.898" x2="1094.067" y2="-5.898" xlink:href="#linear-gradient-2"/>
    <linearGradient id="linear-gradient-9" y1="0.5" x2="1" y2="0.5" gradientUnits="objectBoundingBox">
      <stop offset="0.34" stop-color="#f6921b"/>
      <stop offset="0.36" stop-color="#f7981b"/>
      <stop offset="0.39" stop-color="#fba91b"/>
      <stop offset="0.41" stop-color="#ffb91b"/>
    </linearGradient>
    <linearGradient id="linear-gradient-10" x1="-0.001" y1="0.5" x2="0.997" y2="0.5" xlink:href="#linear-gradient"/>
    <linearGradient id="linear-gradient-11" x1="-0.002" y1="0.5" x2="0.997" y2="0.5" xlink:href="#linear-gradient-2"/>
    <linearGradient id="linear-gradient-12" x1="-0.005" y1="0.501" x2="0.996" y2="0.501" xlink:href="#linear-gradient-2"/>
    <linearGradient id="linear-gradient-13" x1="0.002" y1="0.5" x2="1.002" y2="0.5" xlink:href="#linear-gradient"/>
    <linearGradient id="linear-gradient-14" x1="0" y1="0.501" x2="1" y2="0.501" xlink:href="#linear-gradient"/>
    <linearGradient id="linear-gradient-15" x1="-0.005" y1="0.5" x2="0.999" y2="0.5" xlink:href="#linear-gradient-2"/>
    <linearGradient id="linear-gradient-16" x1="-0.001" y1="0.5" x2="0.998" y2="0.5" xlink:href="#linear-gradient-2"/>
    <linearGradient id="linear-gradient-17" x1="0" y1="0.5" x2="1.001" y2="0.5" xlink:href="#linear-gradient-2"/>
    <linearGradient id="linear-gradient-18" y1="0.5" x2="1" y2="0.5" gradientUnits="objectBoundingBox">
      <stop offset="0.28" stop-color="#f6921b"/>
      <stop offset="0.35" stop-color="#f7981b"/>
      <stop offset="0.45" stop-color="#fba91b"/>
      <stop offset="0.52" stop-color="#ffb91b"/>
    </linearGradient>
  </defs>
  <g id="Grupo_131833" data-name="Grupo 131833" transform="translate(-249.5 -1185.122)">
    <g id="ad2" transform="translate(169.65 1181.593)">
      <g id="Layer_1" transform="translate(79.85 3.529)">
        <g id="Grupo_114960" data-name="Grupo 114960">
          <path id="Trazado_187975" data-name="Trazado 187975" d="M90.172,350.3l181.1-104.553c1.323-.768,1.163-2.1-.373-2.987l-3.509-2.027a5.76,5.76,0,0,0-5.184-.213L81.106,345.076c-1.323.768-1.163,2.1.373,2.987l3.509,2.027a5.76,5.76,0,0,0,5.184.213Z" transform="translate(-79.826 12.233)" fill="#c7c7c7"/>
          <g id="Grupo_114932" data-name="Grupo 114932">
            <g id="Grupo_114931" data-name="Grupo 114931">
              <g id="Grupo_114927" data-name="Grupo 114927">
                <path id="Trazado_187976" data-name="Trazado 187976" d="M272.9,221.525,79.85,332.99V126.465L272.9,15.01Z" transform="translate(-79.85 -2.764)" fill="#c6c7cb"/>
                <path id="Trazado_187977" data-name="Trazado 187977" d="M80.75,330.426V138.866L271.884,28.51V220.081Z" transform="translate(-79.79 -1.864)" fill="#f5f4fb"/>
                <path id="Trazado_187978" data-name="Trazado 187978" d="M268.093,4.191,84.661,110.089a10.6,10.6,0,0,0-4.811,8.3v8.843L272.9,15.775V6.933c0-3.051-2.155-4.277-4.811-2.741Z" transform="translate(-79.85 -3.529)" fill="#084a93"/>
                <path id="Trazado_187979" data-name="Trazado 187979" d="M246.045,17.1a5.417,5.417,0,0,1-2.443,4.224c-1.355.779-2.443.16-2.443-1.4A5.4,5.4,0,0,1,243.6,15.7c1.355-.779,2.443-.16,2.443,1.4Z" transform="translate(-69.098 -2.74)" fill="#989aa1"/>
                <path id="Trazado_187980" data-name="Trazado 187980" d="M236.385,22.678a5.417,5.417,0,0,1-2.443,4.224c-1.355.779-2.443.16-2.443-1.4a5.4,5.4,0,0,1,2.443-4.224c1.355-.779,2.443-.16,2.443,1.4Z" transform="translate(-69.742 -2.368)" fill="#989aa1"/>
                <path id="Trazado_187981" data-name="Trazado 187981" d="M255.7,11.528a5.417,5.417,0,0,1-2.443,4.224c-1.355.779-2.443.16-2.443-1.4a5.4,5.4,0,0,1,2.443-4.224C254.607,9.352,255.7,9.971,255.7,11.528Z" transform="translate(-68.455 -3.112)" fill="#989aa1"/>
              </g>
              <g id="Grupo_114930" data-name="Grupo 114930" transform="translate(20.458 105.278)">
                <g id="Grupo_114929" data-name="Grupo 114929">
                  <g id="Grupo_114928" data-name="Grupo 114928" transform="translate(0 33.324)">
                    <path id="Trazado_187982" data-name="Trazado 187982" d="M143.648,149.011l6.4,5.931a35.149,35.149,0,0,0-5.781,2.688c-17.034,9.856-31.434,34.645-31.434,54.165a6.1,6.1,0,0,0,.021.629l-5.429,9.6-7.531-1.184a44.541,44.541,0,0,1-.864-9.056c0-24.672,16.853-53.706,38.314-66.111a42.61,42.61,0,0,1,14.1-5.323l-7.8,8.64Z" transform="translate(-99.03 -133.011)" fill="#ffb30b"/>
                    <path id="Trazado_187983" data-name="Trazado 187983" d="M165.043,201.2l2.165,10.432c-6.368,9.12-14.325,16.917-23.05,21.952-6.645,3.819-13.131,5.771-19.136,5.771a24.654,24.654,0,0,1-12.491-3.275c-5.717-3.307-9.771-8.736-11.861-15.765l8.405,1.312,4.256-7.531c.96,4.747,3.093,8.277,6.1,10.005,4.3,2.5,10.784,1.6,17.813-2.464,7.275-4.2,14.09-11.146,19.488-19.253l8.32-1.184Z" transform="translate(-98.921 -128.956)" fill="#ffb30b"/>
                    <path id="Trazado_187984" data-name="Trazado 187984" d="M184.97,144.051l.128,3.008v.053c-.565,1.131-1.067,2.229-1.547,3.371a57.338,57.338,0,0,0-4.757,21.5,69.7,69.7,0,0,1-4.949,24.736,88.558,88.558,0,0,1-7.712,15.5l-2.123-10.24-8.64,1.216c5.92-10.005,9.632-21.28,9.632-31.221a70.356,70.356,0,0,1,4.917-24.736,86.168,86.168,0,0,1,3.552-8.021c.843-1.707,1.76-3.424,2.763-5.088l9.3-.661-.587,10.581Z" transform="translate(-95.275 -133.47)" fill="#ffb30b"/>
                  </g>
                  <path id="Trazado_187985" data-name="Trazado 187985" d="M233.8,105.494c-8.811-5.088-20.053-4.2-31.637,2.464-9.632,5.536-18.293,14.421-24.928,24.778l10.688-.768-.6,10.816c5.685-9.632,13.4-18.048,21.728-22.88,4.437-2.528,8.64-3.819,12.192-3.819a11.459,11.459,0,0,1,5.653,1.365c4.235,2.464,6.667,8.427,6.667,16.384a36.737,36.737,0,0,1-.235,4.288v.021l4.736,1.909,8.693-13.045.181.117c-1.376-9.9-5.931-17.461-13.141-21.621Zm13.557,26.6-8.021,12.043-6.443-2.624c-2.24,13.28-9.867,27.68-19.7,37.738l-.021.021-4.373,12.6,7.861,2.869c17.749-14.176,30.741-39.232,30.741-60.906,0-.587-.021-1.163-.032-1.728Zm-42.784,61.759,3.435-9.9a45.413,45.413,0,0,1-5.845,4.032c-7.029,4.053-13.546,4.949-17.813,2.464-4.267-2.464-6.7-8.427-6.7-16.384A69.7,69.7,0,0,1,172.7,198.8a22.46,22.46,0,0,0,4.715,3.584,24.536,24.536,0,0,0,12.522,3.275c5.995,0,12.491-1.909,19.1-5.728,1.493-.864,2.976-1.813,4.416-2.827l-8.907-3.253Z" transform="translate(-94.12 -102.229)" fill="#084a93"/>
                </g>
                <path id="Trazado_187986" data-name="Trazado 187986" d="M170.616,146.807a70.356,70.356,0,0,0-4.917,24.736c0-7.925-2.464-13.92-6.709-16.352a10.963,10.963,0,0,0-5.6-1.4c-.48,0-.96.032-1.461.064a11.494,11.494,0,0,0-1.195.171l-.779-.832-4.715-4.384,7-7.744.811-1.1a24.648,24.648,0,0,1,12.842,3.243,24.148,24.148,0,0,1,4.736,3.584Z" transform="translate(-95.95 -99.713)" fill="#084a93"/>
              </g>
            </g>
            <path id="Trazado_187987" data-name="Trazado 187987" d="M239.324,41.781,109.47,116.756v-7.371L239.324,34.41Z" transform="translate(-77.876 -1.471)" fill="#ebeaf8"/>
          </g>
          <g id="Grupo_114933" data-name="Grupo 114933" transform="translate(66.546 254.91)">
            <path id="Trazado_187988" data-name="Trazado 187988" d="M154.521,340.321a1.2,1.2,0,0,1,.949.747,2.188,2.188,0,0,1,.053.8,4.754,4.754,0,0,1-.352,1.835,20.47,20.47,0,0,0-.96,2.368,10.329,10.329,0,0,1-.779,2.741,2.62,2.62,0,0,1-2.293.875,1.983,1.983,0,0,1-1.707-.789,4.942,4.942,0,0,1-.192-1.835s.2-1.045.245-1.109,5.024-5.643,5.024-5.643Z" transform="translate(-141.771 -235.991)" fill="#323142"/>
            <path id="Trazado_187989" data-name="Trazado 187989" d="M159.064,349.626c-.6.693-.747,1.013-.7,1.44a7.2,7.2,0,0,0,.181.96,2.923,2.923,0,0,0,2.336.9,6.977,6.977,0,0,0,2.891-1.4c.907-.555,1.376-1.152,2.4-1.707a7.714,7.714,0,0,0,2.261-1.717,2.983,2.983,0,0,0,.843-2.2,3.127,3.127,0,0,0-.587-1.728s-.928-.875-1.717-.7-2.315,3.371-3.776,4.224a41.836,41.836,0,0,1-4.117,1.931Z" transform="translate(-141.163 -235.782)" fill="#323142"/>
            <path id="Trazado_187990" data-name="Trazado 187990" d="M153.567,339.759c.544-.011,1.333-.288,1.717.587s-.043,1.984-.309,2.869-.949,2.667-1.12,3.328-.352,2.059-1.888,2.325-2.517-.352-2.635-1.216.149-2.688.075-3.659,1.163-4.373,1.163-4.373l3.008.149Z" transform="translate(-141.766 -236.037)" fill="#f1f3f3"/>
            <path id="Trazado_187991" data-name="Trazado 187991" d="M163.291,345.488a7.3,7.3,0,0,0,1.3-1.419,16.356,16.356,0,0,1,2.784-.629,2.439,2.439,0,0,1,1.365,1.429,2.579,2.579,0,0,1-.075,1.792,3.652,3.652,0,0,1-1.227,1.525c-.843.608-2.581,1.707-2.581,1.707a24.429,24.429,0,0,1-3.669,2.272c-.651.107-2.688-.3-2.709-1.632a6.385,6.385,0,0,1,.224-2.475c.16-.149,1.781-1.547,1.781-1.547l2.816-1.024Z" transform="translate(-141.155 -235.783)" fill="#f1f3f3"/>
            <path id="Trazado_187992" data-name="Trazado 187992" d="M150.539,311.177a.522.522,0,0,1-.448.437l-.405.075a.593.593,0,0,1-.363.373l-.32.149a.786.786,0,0,1-.363.224,1.062,1.062,0,0,1-.352.085h-.032a.884.884,0,0,1-.757-.171.516.516,0,0,1-.693-.064,3.759,3.759,0,0,1-.384-.533s-.149.149-.555-.053a8.525,8.525,0,0,1-1.035-.725s-.48-.213-.619-1.4-.1-2.741-.117-3.168a11.6,11.6,0,0,0-.16-1.152s-1.493-6.411-1.611-7.328a21.572,21.572,0,0,1,0-3.893c.117-.949.384-4.107.384-4.107s.459-2.805,1.291-2.7a7.276,7.276,0,0,1,1.92.917c.757.448,1.408.907,1.408.907.064,1.269-.523,6.027-.587,6.677a70.535,70.535,0,0,0,.085,7.968,10.546,10.546,0,0,0,.5.981.916.916,0,0,0,.2.288c.075.011,1.291,2.005,1.579,2.3a4.836,4.836,0,0,1,.693,1.184c.181.405.288.789.192.939-.117.171.032.64.2,1.045.16.373.331.715.331.715Z" transform="translate(-142.237 -239.529)" fill="url(#linear-gradient)"/>
            <path id="Trazado_187993" data-name="Trazado 187993" d="M145.861,288.8c-.064-.224-.128-.448-.171-.683.757.448,1.408.907,1.408.907.064,1.269-.523,6.027-.587,6.677a70.532,70.532,0,0,0,.085,7.968,10.54,10.54,0,0,0,.5.981,1.183,1.183,0,0,0-.384.245,3.67,3.67,0,0,1-.427.395.418.418,0,0,1-.533-.064,4.5,4.5,0,0,0,.363-2.379c-.021-.907-.053-1.813-.075-2.72-.021-.725-.043-1.44-.117-2.165-.043-.341-.1-.683-.117-1.024a11.72,11.72,0,0,1,.085-1.728c.128-1.109.256-2.219.405-3.317a3.487,3.487,0,0,0-.021-1.557c-.139-.5-.288-1.013-.427-1.515Z" transform="translate(-142.007 -239.47)" fill="#ffdfd1"/>
            <path id="Trazado_187994" data-name="Trazado 187994" d="M147.261,307.735c-.181.064-.363.128-.533.192a10.676,10.676,0,0,0,1.728,3.307,1.063,1.063,0,0,1-.352.085,5,5,0,0,1-1.4-2.9,1.387,1.387,0,0,0-.512.512c-.053-.213-.363-.213-.533-.075s-.277.341-.459.448a1.534,1.534,0,0,1-.053-1.429,12.845,12.845,0,0,1,.725-1.291,4.072,4.072,0,0,0,.405-1.163,3.485,3.485,0,0,0,1.461,1.451c.352.224.7.459,1.056.683a.674.674,0,0,0,.555.16.5.5,0,0,0,.277-.459c.181.405.288.789.192.939-.117.171.032.64.2,1.045a1.8,1.8,0,0,1-.459-.16,14.918,14.918,0,0,1-1.685-1.28.57.57,0,0,0-.331-.139.7.7,0,0,0-.288.064Z" transform="translate(-142.053 -238.317)" fill="#ffdfd1"/>
            <path id="Trazado_187995" data-name="Trazado 187995" d="M144.241,297.151a2.247,2.247,0,0,1-1-.565,2.362,2.362,0,0,1-.523-.608,2,2,0,0,1-.213-.7,7.14,7.14,0,0,1,.053-1.717c.128-1.141.256-2.293.384-3.435.053-.491.171-1.056.619-1.248a1.074,1.074,0,0,1,.661-.021,2.294,2.294,0,0,1,1.312.864,4,4,0,0,1,.6,2.485,11.5,11.5,0,0,1-.395,3.136c-.213.779-.437,2.037-1.525,1.824Z" transform="translate(-142.222 -239.424)" fill="url(#linear-gradient-2)"/>
            <path id="Trazado_187996" data-name="Trazado 187996" d="M144.4,304.493a42.687,42.687,0,0,1-1.653-7.2,3.385,3.385,0,0,1,.192-2.133.832.832,0,0,1,.629-.469.9.9,0,0,1,.629.256,3.155,3.155,0,0,1,.917,1.195,6.351,6.351,0,0,1,.384,2.2c.1,1.7.181,3.381.245,5.077.011.437.213,1.4-.139,1.771-.533.565-1.056-.224-1.205-.683Z" transform="translate(-142.209 -239.032)" fill="url(#linear-gradient-3)"/>
            <path id="Trazado_187997" data-name="Trazado 187997" d="M149.482,300.591a34.061,34.061,0,0,0-1.4,7.147c-.5,4.192-.469,6.485-.192,7.573a89.978,89.978,0,0,1,.981,9.173,84.252,84.252,0,0,0-.544,11.467,74.6,74.6,0,0,0,1.1,12.309c.213.725,1.419,1.173,2.848.864s2.56-2.261,2.763-3.008a12.012,12.012,0,0,0-.043-2.827s-.309-10.08.107-11.616,1.067-4.2,1.1-4.608,1.856-14.645,1.856-14.645-.619-9.419-1.653-10.187-6.9-1.653-6.9-1.653Z" transform="translate(-141.874 -238.639)" fill="#424c67"/>
            <path id="Trazado_187998" data-name="Trazado 187998" d="M155.641,317.676c-.32,3.691-.9,7.381-1.493,11.04-.171,1.056-.619,2.037-.7,3.115a67.927,67.927,0,0,0,.48,15.008,19.407,19.407,0,0,0,.459,2.347c2.229-1.984,3.232-5.248,4.384-7.947a70.546,70.546,0,0,0,3-8.629,26.036,26.036,0,0,0,1.077-6.187,32.84,32.84,0,0,0-.5-5.685,32.449,32.449,0,0,0-.715-3.787c-.213-.757-.437-2.219-1.184-2.624a5.351,5.351,0,0,0-1.867-.341,6.521,6.521,0,0,0-2.133-.213c-.32.043-.629.128-.949.149a2.119,2.119,0,0,1-1.259-.341c.576.629.427,1.344.8,2.037a3.29,3.29,0,0,1,.6,2.08Z" transform="translate(-141.504 -237.773)" fill="#deddf5"/>
            <path id="Trazado_187999" data-name="Trazado 187999" d="M154.143,346.026c0-.107-.6-10.123-.512-12.629a11.916,11.916,0,0,1,.885-3.808,5.063,5.063,0,0,0,.427-1.589,34.672,34.672,0,0,1,.459-3.669c.32-2.155.683-4.587.736-5.995a22.814,22.814,0,0,0-.224-4.16c-.053-.448-.117-.885-.149-1.344l.384-.032c.043.448.1.885.149,1.333a24.037,24.037,0,0,1,.235,4.224c-.053,1.429-.416,3.883-.736,6.037a34.353,34.353,0,0,0-.448,3.595,5.321,5.321,0,0,1-.448,1.739,11.743,11.743,0,0,0-.864,3.691c-.075,2.485.512,12.5.512,12.6l-.384.021Z" transform="translate(-141.478 -237.825)" fill="#4f5a7a"/>
            <path id="Trazado_188000" data-name="Trazado 188000" d="M150.038,327.595a3.921,3.921,0,0,1-.843-2.144c-.341-2.293-.2-4.64-.427-6.944-.213-2.144-.736-4.235-1.035-6.368a14.19,14.19,0,0,1,.3-6.389.972.972,0,0,1,.309-.523c.384-.277.9.032,1.28.32a9.953,9.953,0,0,0,4.619,1.845,1.155,1.155,0,0,1,.725.256,1.135,1.135,0,0,1,.171.917c-.117,1.077-.235,2.144-.352,3.221a4.454,4.454,0,0,1-.533,2.069c-.235.32-.939.811-1.344.341a4.705,4.705,0,0,1,1.429,4.651c-.171,1.707-.341,3.424-.512,5.131-.075.736-.192,1.483-.224,2.208a3.729,3.729,0,0,1-.224,1.781c-.629,1.077-2.667.32-3.317-.363Z" transform="translate(-141.886 -238.337)" fill="#454f6b"/>
            <path id="Trazado_188001" data-name="Trazado 188001" d="M149.484,324.254a.7.7,0,0,1,.2-.427.578.578,0,0,1,.395-.117c1.3-.053,2.3,1.184,2.688,2.421a12.475,12.475,0,0,1,.277,4.181c-.256,4.928-.576,9.9.139,14.784a.88.88,0,0,1-.917,1.205,2.7,2.7,0,0,1-2.048-.2,2.614,2.614,0,0,1-.821-1.621,50.784,50.784,0,0,1-.629-15.562,36.16,36.16,0,0,1,.715-4.661Z" transform="translate(-141.822 -237.098)" fill="#454f6b"/>
            <path id="Trazado_188002" data-name="Trazado 188002" d="M166.019,302.714c.779,2.731,1.909,4.523,1.739,8.928a107.452,107.452,0,0,1-1.152,12.011c-.395,2.112-.949,6.112-.907,6.507a41.883,41.883,0,0,1,.16,6.261c-.192,2.6-1.013,12.981-1.195,13.994s-1.824,2.123-3.189,2.219-2.091-.149-2.357-.672-.48-12.491-.544-12.9.341-5.621.267-6.4-.971-8.075-1.163-10.795-.757-5.835-.757-5.835-1.952-.917-2.123-1.547-.288-8.6.576-11.136,3.883-3.264,3.883-3.264l6.773,2.645Z" transform="translate(-141.408 -238.672)" fill="#424c67"/>
            <path id="Trazado_188003" data-name="Trazado 188003" d="M160.8,330.331a2.826,2.826,0,0,1-1.451-1.387,8.167,8.167,0,0,1-.757-2.656c-.5-3.264-.587-6.581-.843-9.877a3.18,3.18,0,0,0-.341-1.44c-.32-.533-.917-.853-1.3-1.344a3.3,3.3,0,0,1-.587-1.472,7.528,7.528,0,0,1-.032-2.677,2.426,2.426,0,0,1,.384-1.056,1.972,1.972,0,0,1,1.429-.7,7.649,7.649,0,0,1,1.632.117,18.978,18.978,0,0,0,6.261-.213.728.728,0,0,1,.427,0,.644.644,0,0,1,.256.277c.843,1.515.533,3.381.341,5.109-.341,3-.256,6.016-.5,9.013a30.813,30.813,0,0,1-.683,4.427,8.325,8.325,0,0,1-.629,2.507,3.26,3.26,0,0,1-3.595,1.355Z" transform="translate(-141.361 -238.172)" fill="#454f6b"/>
            <path id="Trazado_188004" data-name="Trazado 188004" d="M163.794,351.185l-.384-.032c.437-5.205,1.269-15.168,1.259-15.573-.011-.576.021-6.592.139-7.947.064-.757.277-1.984.555-3.541.224-1.291.48-2.752.715-4.288a59.642,59.642,0,0,0,.587-10.261,24.632,24.632,0,0,0-1.205-5.92c-.192-.661-.363-1.227-.48-1.717l.384-.085c.107.48.277,1.045.469,1.7a24.791,24.791,0,0,1,1.227,6.027,60.56,60.56,0,0,1-.587,10.336c-.235,1.547-.491,3.008-.715,4.3-.267,1.547-.48,2.773-.555,3.509-.117,1.344-.149,7.339-.139,7.915,0,.523-1.216,15-1.259,15.605Z" transform="translate(-140.826 -238.557)" fill="#4f5a7a"/>
            <path id="Trazado_188005" data-name="Trazado 188005" d="M167.1,304.7s.139.96-5.451,1.312a27.877,27.877,0,0,1-11.339-1.44c-1.579-.629-1.685-1.035-1.685-1.035l.459-1.867,17.333.917.683,2.091Z" transform="translate(-141.811 -238.567)" fill="#323142"/>
            <path id="Trazado_188006" data-name="Trazado 188006" d="M166.123,306.045l-.779-.043a7.9,7.9,0,0,0-.715-3.7l.7-.331a8.651,8.651,0,0,1,.789,4.075Z" transform="translate(-140.745 -238.547)" fill="#424c67"/>
            <path id="Trazado_188007" data-name="Trazado 188007" d="M154.534,306.813a7.039,7.039,0,0,1,0-1.952,15.542,15.542,0,0,1,.544-2.261l.747.224a13.53,13.53,0,0,0-.523,2.133,6.86,6.86,0,0,0,0,1.749l-.768.107Z" transform="translate(-141.422 -238.505)" fill="#424c67"/>
            <path id="Trazado_188008" data-name="Trazado 188008" d="M148.925,304.582a3.914,3.914,0,0,1,.053-1.7,15.249,15.249,0,0,1,.448-1.7l.747.235c-.171.533-.309,1.077-.427,1.621a3.225,3.225,0,0,0-.064,1.355Z" transform="translate(-141.797 -238.599)" fill="#424c67"/>
            <path id="Trazado_188009" data-name="Trazado 188009" d="M162.05,317.6l-3.723-2.379-.757-4.651.277.064s4.533.949,8.011-1.3l.3-.192v.352a43.244,43.244,0,0,1-.139,6.069,23.057,23.057,0,0,1-3.872,2.005l-.1.043Zm-3.36-2.613,3.392,2.176a26.781,26.781,0,0,0,3.616-1.824,52.675,52.675,0,0,0,.085-5.5,12.125,12.125,0,0,1-7.733,1.227Z" transform="translate(-141.215 -238.069)" fill="#4f5a7a"/>
            <path id="Trazado_188010" data-name="Trazado 188010" d="M149.259,316.084l-.075-.117a19.1,19.1,0,0,1-1.824-3.211,22.817,22.817,0,0,1,.555-5.376l.117-.32.213.267c1.152,1.429,3.957,2.3,3.979,2.3l.16.053-.021.171s-.448,3.168.075,4.693l.043.117-.085.085a10.18,10.18,0,0,1-3,1.312l-.139.043Zm-1.077-8.256a25.479,25.479,0,0,0-.427,4.885,18.8,18.8,0,0,0,1.685,2.912,10.055,10.055,0,0,0,2.6-1.1,13.626,13.626,0,0,1-.075-4.587,10.368,10.368,0,0,1-3.776-2.123Z" transform="translate(-141.896 -238.207)" fill="#4f5a7a"/>
            <path id="Trazado_188011" data-name="Trazado 188011" d="M164.36,329.43a9.384,9.384,0,0,1,.021,1.227c-.021.928-.053,1.856-.075,2.784a67.855,67.855,0,0,1-.907,10.912,9.512,9.512,0,0,0-.3,2.677,3.706,3.706,0,0,1,.021,1.568c-.331.928-1.515,1.152-2.507,1.227a.969.969,0,0,1-.555-.075.905.905,0,0,1-.32-.629c-.139-.725-.256-1.461-.352-2.2-.171-1.408-.245-2.827-.32-4.235a83.211,83.211,0,0,1-.117-12.309,8.489,8.489,0,0,1,.544-2.485,2.663,2.663,0,0,1,.683-1.013,2.228,2.228,0,0,1,1.845-.448c1.557.3,2.176,1.557,2.336,3.029Z" transform="translate(-141.136 -236.919)" fill="#454f6b"/>
            <path id="Trazado_188012" data-name="Trazado 188012" d="M177.155,248.6c-.043.384-.789,4.149-.811,4.459-.011.16,0,.341-.021.544a2.593,2.593,0,0,1-.085.6c-.128.459-.235,3.349-.331,4s-.693,4.949-.832,5.579-.885,4.021-1,4.384-.832,1.184-1.152,1.877-2.571,5.621-2.965,6.432-2.795,3.947-3.243,4.629-3.157-.885-3.616-2.656a3.4,3.4,0,0,1,.715-3.019c2.272-2.272,2.731-3.8,3.712-5.216a32.116,32.116,0,0,0,2.336-3.381,32.577,32.577,0,0,1,.907-3.947c.715-1.995,2.741-8.747,2.784-9.4a1.973,1.973,0,0,0-.5-1.248l-1.333-2.869s-.373-2.528-.469-2.912c-.1-.363-.288-.853.16-.885h.075c.544,0,.853.832.917,1.088a14.723,14.723,0,0,0,.459,1.717.66.66,0,0,0,.352.181.261.261,0,0,1,.075.011,1.216,1.216,0,0,0,.587-.683,4.388,4.388,0,0,0,.235-1.173l-.117-1.163s0-2.059.043-2.464.128-.5.309-.533.341.107.384.363S175,244.6,175,244.6l.149.491v-.181L175,242.86a.583.583,0,0,1,.107-.192.28.28,0,0,1,.16-.128h.139a.369.369,0,0,1,.3.352l.085.5s.256-.043.373.373.587,2.059.715,2.357a2.97,2.97,0,0,1,.128.373.2.2,0,0,1,.021.085c.032.149.075.3.107.448s.064.288.085.395a3.918,3.918,0,0,1-.064,1.205Z" transform="translate(-140.854 -242.508)" fill="url(#linear-gradient-4)"/>
            <path id="Trazado_188013" data-name="Trazado 188013" d="M166.9,300.074c-.107,2.411.064,3.787-.149,4.363-.064.181-.341.395-.789.608a12.707,12.707,0,0,1-5.675.747c-3.9-.224-7.915-.683-9.269-1.376s-1.728-.821-1.867-1.493-.235-2.517-1.355-8.277-3.136-7.765-3.659-9.92-.6-5.056-.16-5.685a4.924,4.924,0,0,1,2.709-2.144,38.038,38.038,0,0,1,4.341-.875c.405.107,7.3-.277,7.3-.277a4.518,4.518,0,0,0,2.752-.5c.576-.267,1.461-.875,1.867-.992.277-.075,2.165,3.669,3.285,6.4a9.436,9.436,0,0,1,.811,2.592c-.021,1.333-.448,4.213-.5,6.368s.469,8.075.363,10.485Z" transform="translate(-142.14 -240.394)" fill="#ffa600"/>
            <path id="Trazado_188014" data-name="Trazado 188014" d="M165.509,299.674c-.107,2.411.064,3.787-.149,4.363-.064.181-.341.395-.789.608,0-1.152.128-2.347.117-3.381-.021-3.232.032-6.453.064-9.675.011-1.643.032-3.275.021-4.917,0-.789-.053-1.6-.043-2.389,0-.629.181-1.227.224-1.877.032-.608-.1-1.408-.128-2.165a9.436,9.436,0,0,1,.811,2.592c-.021,1.333-.448,4.213-.5,6.368s.469,8.075.363,10.485Z" transform="translate(-140.749 -239.995)" fill="#deddf5"/>
            <path id="Trazado_188015" data-name="Trazado 188015" d="M153.78,261.9a3.69,3.69,0,0,1,3.115.8,8.6,8.6,0,0,1,1.771,2.4,9.428,9.428,0,0,0,.437,1.632c.139.245.907,1.184.917,1.824a11.942,11.942,0,0,1,.053,2.773c-.2.747-1.493,1.131-1.728,1.515a3.676,3.676,0,0,0-.117,1.845c.075.48.363,1.909.363,1.909s-3.051.2-4.267.3-3.307.352-3.819-.075a2.445,2.445,0,0,0,.693-2.5c-.235-.971-1.973-6.379-1.717-8.117s4.3-4.3,4.3-4.3Z" transform="translate(-141.756 -241.222)" fill="url(#linear-gradient-5)"/>
            <path id="Trazado_188016" data-name="Trazado 188016" d="M150.776,261.543a6.581,6.581,0,0,0-2.965,2.528,4.789,4.789,0,0,0-.928,3.061,5.828,5.828,0,0,0,1.333,4.565c1.1,1.152,2.805,2.7,3.232,3.147a3.585,3.585,0,0,0,2.955.352,2.7,2.7,0,0,0,2.112-1.675c.277-.736.9-1.184.779-2.027s-.2-1.717.181-2.069a1.948,1.948,0,0,1,.939-.427l.469.32a2.287,2.287,0,0,0,.181-.864,1.343,1.343,0,0,0-.405-.5,4.323,4.323,0,0,1,.117-1.547,2.381,2.381,0,0,0,.053-1.216,5.2,5.2,0,0,0-1.013-1.216,5.927,5.927,0,0,0-2.08-.523,3.468,3.468,0,0,0,.363-1.1c.043-.5-.437-1.163-1.291-1.536s-2.763.256-2.763.256l-1.28.48Z" transform="translate(-141.931 -241.298)" fill="#b2686b"/>
            <path id="Trazado_188017" data-name="Trazado 188017" d="M157.455,268.866c-.384.181-.3,1.5.107,2.155s.8.811.757.416a6.172,6.172,0,0,0-.448-1.259s.171-1.845-.416-1.312Z" transform="translate(-141.239 -240.76)" fill="url(#linear-gradient-6)"/>
            <path id="Trazado_188018" data-name="Trazado 188018" d="M144.813,277.85c-.939.576-1.952,3.157-2.08,4.651s-.288,7.584-.16,8.427,2.592,1.056,4.683.907S144.8,277.85,144.8,277.85Z" transform="translate(-142.218 -240.154)" fill="#ff7f00"/>
            <path id="Trazado_188019" data-name="Trazado 188019" d="M155.516,315.146c-.811-.917-.843-2.539-.875-4.416,0-.288,0-.587-.021-.9a34.445,34.445,0,0,1,.48-5.344l.384.064a34.441,34.441,0,0,0-.48,5.259c0,.3.011.608.021.9.032,1.8.053,3.349.779,4.16l-.288.256Z" transform="translate(-141.412 -238.379)" fill="#4f5a7a"/>
            <path id="Trazado_188020" data-name="Trazado 188020" d="M157.823,309.137a14.629,14.629,0,0,1-6.848-1.408,6.35,6.35,0,0,1-2.795-2.539l.352-.16a6.222,6.222,0,0,0,2.624,2.357c2.357,1.312,6.517,1.717,10.624,1.024,4.363-.747,5.728-2.325,5.739-2.336l.3.245c-.053.064-1.451,1.7-5.973,2.475a23.712,23.712,0,0,1-4.021.341Z" transform="translate(-141.841 -238.343)" fill="#4f5a7a"/>
            <path id="Trazado_188021" data-name="Trazado 188021" d="M170.068,265.738a2.84,2.84,0,0,1,1.813-.256.931.931,0,0,1,.587.2c.267.256.171.693.053,1.045a39.333,39.333,0,0,1-2.763,5.781,18.273,18.273,0,0,1-.981,1.717c-.459.672-.939,1.333-1.419,1.995a.919.919,0,0,1-.448.384c-.373.1-.672-.288-.864-.619a4.067,4.067,0,0,1-.565-1.355,3.224,3.224,0,0,1,.085-1.152,16.087,16.087,0,0,1,2.805-5.739c.213-.309.491-.555.715-.864a3.779,3.779,0,0,1,.971-1.12Z" transform="translate(-140.689 -240.981)" fill="url(#linear-gradient-7)"/>
            <path id="Trazado_188022" data-name="Trazado 188022" d="M161.73,274.39a25.81,25.81,0,0,0,2.827-2.187c.747-.619,2.219.117,3.371,1.941s1.28,3.168,1,4.053-2.784,3.755-3.093,5.184a63.506,63.506,0,0,1-4.1-8.992Z" transform="translate(-140.938 -240.545)" fill="#ff7f00"/>
            <path id="Trazado_188023" data-name="Trazado 188023" d="M173.733,252.939a.9.9,0,0,1,.149-.363.281.281,0,0,1,.352-.075.252.252,0,0,1,.085.1,4.7,4.7,0,0,1,.832,2.581,18.112,18.112,0,0,1-.171,2.741c-.267,2.592-.3,5.259-1.195,7.712a3.647,3.647,0,0,1-.395.821,5.692,5.692,0,0,1-.64.7,4.241,4.241,0,0,1-.917.832,2.711,2.711,0,0,1-.864.267,1.27,1.27,0,0,1-.693-.043,1.085,1.085,0,0,1-.555-.832,4.676,4.676,0,0,1,.32-2.219c.512-1.611.981-3.232,1.429-4.864.224-.811.427-1.632.64-2.453.2-.789.565-1.5.757-2.3.2-.875.661-1.7.875-2.592Z" transform="translate(-140.408 -241.846)" fill="url(#linear-gradient-8)"/>
            <path id="Trazado_188024" data-name="Trazado 188024" d="M172.321,248.175a.66.66,0,0,0,.352.181.851.851,0,0,1-.032.16,1.552,1.552,0,0,1-.693-1.067,6.344,6.344,0,0,0-.331-1.269,1.891,1.891,0,0,0-.747-.811h.075c.544,0,.853.832.917,1.088A14.722,14.722,0,0,0,172.321,248.175Z" transform="translate(-140.329 -242.319)" fill="#ffdfd1"/>
            <path id="Trazado_188025" data-name="Trazado 188025" d="M174.337,242.63c.16,1.472.32,2.944.469,4.427a10.782,10.782,0,0,1-.437-2.176l-.139-2.048a.584.584,0,0,1,.107-.192Z" transform="translate(-140.105 -242.502)" fill="#ffdfd1"/>
            <path id="Trazado_188026" data-name="Trazado 188026" d="M175.653,247.555a28.808,28.808,0,0,1-.64-3.573,2.219,2.219,0,0,0-.533-1.472h.139a.369.369,0,0,1,.3.352l.085.5s.256-.043.373.373.587,2.059.715,2.357a2.978,2.978,0,0,1,.128.373,2.379,2.379,0,0,0-.288-.6l-.288,1.7Z" transform="translate(-140.088 -242.51)" fill="#ffdfd1"/>
            <path id="Trazado_188027" data-name="Trazado 188027" d="M176.33,248.319c-.043.384-.789,4.149-.811,4.459-.011.16,0,.341-.021.544a4.511,4.511,0,0,1,0-2.1c.192-.949.555-1.867.736-2.805a5.277,5.277,0,0,0,.064-1.685c.032.149.064.288.085.395a3.919,3.919,0,0,1-.064,1.205Z" transform="translate(-140.029 -242.229)" fill="#ffdfd1"/>
          </g>
          <g id="Grupo_114959" data-name="Grupo 114959" transform="translate(152.806 91.078)">
            <g id="Grupo_114956" data-name="Grupo 114956" transform="translate(0 47.745)">
              <path id="Trazado_188028" data-name="Trazado 188028" d="M310,293.2c2.72,1.568,2.731,4.139.032,5.707l-62.8,36.5a10.891,10.891,0,0,1-9.845,0l-40.65-23.466c-2.72-1.568-2.731-4.139-.032-5.707l62.8-36.5a10.891,10.891,0,0,1,9.845,0Z" transform="translate(-194.68 -124.687)" fill="#d0d2d4"/>
              <path id="Trazado_188029" data-name="Trazado 188029" d="M301.933,294.463c2.357,1.355,2.368,3.584.032,4.939l-54.41,31.626a9.467,9.467,0,0,1-8.533,0L203.8,310.7c-2.357-1.355-2.368-3.584-.032-4.939l54.41-31.616a9.467,9.467,0,0,1,8.533,0l35.221,20.33Z" transform="translate(-194.19 -124.383)" fill="#d0d2d4"/>
              <g id="Grupo_114934" data-name="Grupo 114934" transform="translate(54.346 147.089)">
                <path id="Trazado_188030" data-name="Trazado 188030" d="M247.955,271.868a1.585,1.585,0,0,1,1.589-.139l37.312,21.685a1.585,1.585,0,0,0-1.589.139,5.027,5.027,0,0,0-2.325,3.925,1.632,1.632,0,0,0,.672,1.515L246.3,277.308a1.654,1.654,0,0,1-.672-1.515,5.027,5.027,0,0,1,2.325-3.925Z" transform="translate(-245.63 -271.575)" fill="#b5b6b6"/>
                <path id="Trazado_188031" data-name="Trazado 188031" d="M280.61,296.133c-.021,1.461.992,2.08,2.261,1.376a5.027,5.027,0,0,0,2.325-3.925c.021-1.461-.992-2.08-2.261-1.376A5.027,5.027,0,0,0,280.61,296.133Z" transform="translate(-243.298 -270.219)" fill="#dfe1e1"/>
              </g>
              <g id="Grupo_114935" data-name="Grupo 114935" transform="translate(84.072 159.137)">
                <path id="Trazado_188032" data-name="Trazado 188032" d="M292.121,292.307c-.117-2.539-1.44-4.043-3.275-4.107a4.908,4.908,0,0,0-2.635.747,11.758,11.758,0,0,0-5.035,7.275,9.2,9.2,0,0,0-.256,2.56c.171,3.648,2.816,5.152,5.909,3.36A11.764,11.764,0,0,0,292.121,292.307Z" transform="translate(-273.005 -282.516)" fill="#333541"/>
                <path id="Trazado_188033" data-name="Trazado 188033" d="M289.277,292.542c-.085-1.8-1.024-2.869-2.325-2.912a3.505,3.505,0,0,0-1.867.533,8.4,8.4,0,0,0-3.573,5.163,6.669,6.669,0,0,0-.181,1.813c.117,2.581,1.995,3.648,4.192,2.389a8.349,8.349,0,0,0,3.755-6.976Z" transform="translate(-272.977 -282.42)" fill="#ffb336"/>
                <path id="Trazado_188034" data-name="Trazado 188034" d="M293.614,290.99c-.16-3.456-1.963-5.493-4.459-5.6a6.648,6.648,0,0,0-3.584,1.024c-3.253,1.877-5.92,5.888-6.859,9.9a13.063,13.063,0,0,0-.352,3.477c.235,4.96,3.829,7.008,8.043,4.576s7.435-8.416,7.2-13.376Zm-6.155,10.9c-2.752,1.589-5.12.245-5.269-3a8.463,8.463,0,0,1,.224-2.283,10.5,10.5,0,0,1,4.491-6.485,4.476,4.476,0,0,1,2.347-.672c1.643.064,2.816,1.408,2.923,3.669a10.521,10.521,0,0,1-4.715,8.768Z" transform="translate(-273.175 -282.703)" fill="#444756"/>
                <path id="Trazado_188035" data-name="Trazado 188035" d="M286.306,289.744c2.752-1.589,5.12-.245,5.269,3a10.521,10.521,0,0,1-4.715,8.768c-2.752,1.589-5.12.245-5.269-3A10.521,10.521,0,0,1,286.306,289.744Zm.64,13.653a13.891,13.891,0,0,0,6.24-11.584c-.2-4.3-3.317-6.069-6.965-3.957a13.891,13.891,0,0,0-6.24,11.584c.2,4.3,3.317,6.069,6.965,3.957Z" transform="translate(-273.067 -282.598)" fill="#404351"/>
                <path id="Trazado_188036" data-name="Trazado 188036" d="M286.179,293.611c.736-.427,1.376-.064,1.419.811a2.829,2.829,0,0,1-1.269,2.357c-.736.427-1.376.064-1.419-.811A2.829,2.829,0,0,1,286.179,293.611Z" transform="translate(-272.738 -282.167)" fill="#efa833"/>
                <path id="Trazado_188037" data-name="Trazado 188037" d="M286.1,283.339c-1.44-.747-3.339-.629-5.387.555-4.213,2.432-7.435,8.416-7.2,13.376.117,2.549,1.131,4.331,2.667,5.131l5.173,2.7c-1.525-.8-2.539-2.581-2.667-5.131-.235-4.96,3-10.944,7.2-13.376,2.037-1.184,3.936-1.3,5.387-.555Z" transform="translate(-273.499 -282.871)" fill="#333541"/>
              </g>
              <g id="Grupo_114936" data-name="Grupo 114936" transform="translate(19.241 156.513)">
                <path id="Trazado_188038" data-name="Trazado 188038" d="M231.34,289.847c-.117-2.539-1.44-4.043-3.275-4.107a4.908,4.908,0,0,0-2.635.747,11.758,11.758,0,0,0-5.035,7.275,9.2,9.2,0,0,0-.256,2.56c.171,3.648,2.816,5.152,5.909,3.36A11.764,11.764,0,0,0,231.34,289.847Z" transform="translate(-212.225 -280.056)" fill="#333541"/>
                <path id="Trazado_188039" data-name="Trazado 188039" d="M228.5,290.072c-.085-1.8-1.024-2.869-2.325-2.912a3.505,3.505,0,0,0-1.867.533,8.4,8.4,0,0,0-3.573,5.163,6.671,6.671,0,0,0-.181,1.813c.117,2.581,1.995,3.648,4.192,2.389a8.349,8.349,0,0,0,3.755-6.976Z" transform="translate(-212.197 -279.961)" fill="#ffb336"/>
                <path id="Trazado_188040" data-name="Trazado 188040" d="M232.834,288.53c-.16-3.456-1.963-5.493-4.459-5.6a6.649,6.649,0,0,0-3.584,1.024c-3.253,1.877-5.92,5.888-6.859,9.9a13.062,13.062,0,0,0-.352,3.477c.235,4.96,3.829,7.008,8.043,4.576s7.435-8.416,7.2-13.376Zm-6.155,10.9c-2.752,1.589-5.12.245-5.269-3a8.46,8.46,0,0,1,.224-2.283,10.5,10.5,0,0,1,4.491-6.485,4.475,4.475,0,0,1,2.347-.672c1.643.064,2.816,1.408,2.923,3.669a10.521,10.521,0,0,1-4.715,8.768Z" transform="translate(-212.395 -280.243)" fill="#444756"/>
                <path id="Trazado_188041" data-name="Trazado 188041" d="M225.526,287.284c2.752-1.589,5.12-.245,5.269,3a10.521,10.521,0,0,1-4.715,8.768c-2.752,1.589-5.12.245-5.269-3A10.521,10.521,0,0,1,225.526,287.284Zm.64,13.653a13.891,13.891,0,0,0,6.24-11.584c-.2-4.3-3.317-6.069-6.965-3.957a13.891,13.891,0,0,0-6.24,11.584c.2,4.3,3.317,6.069,6.965,3.957Z" transform="translate(-212.287 -280.138)" fill="#404351"/>
                <path id="Trazado_188042" data-name="Trazado 188042" d="M225.4,291.151c.736-.427,1.376-.064,1.419.811a2.829,2.829,0,0,1-1.269,2.357c-.736.427-1.376.064-1.419-.811A2.829,2.829,0,0,1,225.4,291.151Z" transform="translate(-211.958 -279.707)" fill="#efa833"/>
                <path id="Trazado_188043" data-name="Trazado 188043" d="M225.317,280.879c-1.44-.747-3.339-.629-5.387.555-4.213,2.432-7.435,8.416-7.2,13.376.117,2.549,1.131,4.331,2.667,5.131l5.173,2.7c-1.525-.8-2.539-2.581-2.667-5.131-.235-4.96,3-10.944,7.2-13.376,2.037-1.184,3.936-1.3,5.387-.555Z" transform="translate(-212.719 -280.411)" fill="#333541"/>
              </g>
              <g id="Grupo_114937" data-name="Grupo 114937" transform="translate(26.144 164.411)">
                <path id="Trazado_188044" data-name="Trazado 188044" d="M221.515,288.108a1.586,1.586,0,0,1,1.589-.139l37.312,21.685a1.585,1.585,0,0,0-1.589.139,5.027,5.027,0,0,0-2.325,3.925,1.632,1.632,0,0,0,.672,1.515l-37.312-21.685a1.654,1.654,0,0,1-.672-1.515A5.027,5.027,0,0,1,221.515,288.108Z" transform="translate(-219.19 -287.815)" fill="#b5b6b6"/>
                <path id="Trazado_188045" data-name="Trazado 188045" d="M254.17,312.363c-.021,1.461.992,2.08,2.261,1.376a5.027,5.027,0,0,0,2.325-3.925c.021-1.461-.992-2.08-2.261-1.376A5.027,5.027,0,0,0,254.17,312.363Z" transform="translate(-216.859 -286.46)" fill="#dfe1e1"/>
              </g>
              <g id="Grupo_114938" data-name="Grupo 114938" transform="translate(53.929 176.534)">
                <path id="Trazado_188046" data-name="Trazado 188046" d="M263.86,308.627c-.117-2.539-1.44-4.043-3.275-4.107a4.907,4.907,0,0,0-2.635.747,11.758,11.758,0,0,0-5.035,7.275,9.2,9.2,0,0,0-.256,2.56c.171,3.648,2.816,5.152,5.909,3.36A11.764,11.764,0,0,0,263.86,308.627Z" transform="translate(-244.745 -298.825)" fill="#333541"/>
                <path id="Trazado_188047" data-name="Trazado 188047" d="M261.017,308.852c-.085-1.8-1.024-2.869-2.325-2.912a3.5,3.5,0,0,0-1.867.533,8.4,8.4,0,0,0-3.573,5.163,6.671,6.671,0,0,0-.181,1.813c.117,2.581,1.995,3.648,4.192,2.389a8.349,8.349,0,0,0,3.755-6.976Z" transform="translate(-244.717 -298.73)" fill="#ffb336"/>
                <path id="Trazado_188048" data-name="Trazado 188048" d="M265.354,307.31c-.16-3.456-1.963-5.493-4.459-5.6a6.649,6.649,0,0,0-3.584,1.024c-3.253,1.877-5.92,5.888-6.859,9.9a13.067,13.067,0,0,0-.352,3.477c.235,4.96,3.829,7.008,8.043,4.576s7.435-8.416,7.2-13.376Zm-6.155,10.9c-2.752,1.589-5.12.245-5.269-3a8.461,8.461,0,0,1,.224-2.283,10.5,10.5,0,0,1,4.491-6.485,4.476,4.476,0,0,1,2.347-.672c1.643.064,2.816,1.408,2.923,3.669A10.521,10.521,0,0,1,259.2,318.211Z" transform="translate(-244.915 -299.012)" fill="#444756"/>
                <path id="Trazado_188049" data-name="Trazado 188049" d="M258.046,306.064c2.752-1.589,5.12-.245,5.269,3a10.521,10.521,0,0,1-4.715,8.768c-2.752,1.589-5.12.245-5.269-3A10.521,10.521,0,0,1,258.046,306.064Zm.64,13.653a13.891,13.891,0,0,0,6.24-11.584c-.2-4.3-3.317-6.069-6.965-3.957a13.891,13.891,0,0,0-6.24,11.584c.2,4.3,3.317,6.069,6.965,3.957Z" transform="translate(-244.807 -298.907)" fill="#404351"/>
                <path id="Trazado_188050" data-name="Trazado 188050" d="M257.919,309.931c.736-.427,1.376-.064,1.419.811a2.829,2.829,0,0,1-1.269,2.357c-.736.427-1.376.064-1.419-.811A2.829,2.829,0,0,1,257.919,309.931Z" transform="translate(-244.478 -298.476)" fill="#efa833"/>
                <path id="Trazado_188051" data-name="Trazado 188051" d="M257.837,299.649c-1.44-.747-3.339-.629-5.387.555-4.213,2.432-7.435,8.416-7.2,13.376.117,2.549,1.131,4.331,2.667,5.131l5.173,2.7c-1.525-.8-2.539-2.581-2.667-5.131-.235-4.96,3-10.944,7.2-13.376,2.037-1.184,3.936-1.3,5.387-.555l-5.173-2.7Z" transform="translate(-245.239 -299.181)" fill="#333541"/>
              </g>
              <g id="Grupo_114939" data-name="Grupo 114939" transform="translate(15.52 126.569)">
                <path id="Trazado_188052" data-name="Trazado 188052" d="M293.762,271.833l-48.778,28.352a9.467,9.467,0,0,1-8.533,0l-25.418-14.677a3,3,0,0,1-1.771-2.485l-.032,10.2A3,3,0,0,0,211,295.7l25.418,14.677a9.467,9.467,0,0,0,8.533,0L293.73,282.03a3.012,3.012,0,0,0,1.749-2.453l.032-10.2A2.989,2.989,0,0,1,293.762,271.833Z" transform="translate(-209.23 -251.201)" fill="#f6921b"/>
                <path id="Trazado_188053" data-name="Trazado 188053" d="M293.739,268.031c2.357,1.355,2.368,3.584.032,4.939l-48.789,28.352a9.467,9.467,0,0,1-8.533,0l-25.418-14.677c-2.357-1.355-2.368-3.584-.032-4.939l48.778-28.352a9.467,9.467,0,0,1,8.533,0l25.418,14.677Z" transform="translate(-209.228 -252.337)" fill="#a7a9b0"/>
              </g>
              <g id="Grupo_114940" data-name="Grupo 114940" transform="translate(7.808 110.985)">
                <path id="Trazado_188054" data-name="Trazado 188054" d="M301.933,259.063c2.357,1.355,2.368,3.584.032,4.939l-54.41,31.626a9.467,9.467,0,0,1-8.533,0L203.8,275.3c-2.357-1.355-2.368-3.584-.032-4.939l54.41-31.616a9.467,9.467,0,0,1,8.533,0l35.221,20.33Z" transform="translate(-201.998 -237.727)" fill="#ffc91b"/>
                <path id="Trazado_188055" data-name="Trazado 188055" d="M295.6,258.665c1.856,1.077,1.867,2.827.021,3.893l-50.581,29.4a7.445,7.445,0,0,1-6.731,0l-28.949-16.715c-1.856-1.067-1.867-2.827-.021-3.9l50.581-29.4a7.478,7.478,0,0,1,6.731,0L295.6,258.654Z" transform="translate(-201.603 -237.5)" fill="#ffe6e6"/>
                <path id="Trazado_188056" data-name="Trazado 188056" d="M301.967,262.524l-54.41,31.616a9.467,9.467,0,0,1-8.533,0L203.8,273.809a3,3,0,0,1-1.771-2.485l-.032,11.2a3,3,0,0,0,1.771,2.485l35.221,20.33a9.467,9.467,0,0,0,8.533,0l54.41-31.626a3.012,3.012,0,0,0,1.749-2.453l.032-11.2a2.99,2.99,0,0,1-1.749,2.453Z" transform="translate(-202 -236.239)" fill="url(#linear-gradient-9)"/>
              </g>
              <g id="Grupo_114953" data-name="Grupo 114953" transform="translate(25.866 54.054)">
                <g id="Grupo_114941" data-name="Grupo 114941" transform="translate(0 58.108)">
                  <path id="Trazado_188057" data-name="Trazado 188057" d="M221.245,257.1l31.648-18.272,2.315,4.512v5.717L218.93,270V264.28Z" transform="translate(-218.93 -238.83)" fill="#fd9a1b"/>
                  <path id="Trazado_188058" data-name="Trazado 188058" d="M224.9,259.222l31.658-18.272,2.3,4.512v5.707L222.6,272.107V266.4Z" transform="translate(-218.685 -238.689)" fill="#e36500"/>
                  <path id="Trazado_188059" data-name="Trazado 188059" d="M252.748,238.83l3.915,2.261L225,259.363l-3.9-2.261Z" transform="translate(-218.785 -238.83)" fill="#ffc91b"/>
                </g>
                <path id="Trazado_188060" data-name="Trazado 188060" d="M222.6,266.118l36.266-20.938,21.013,12.128-36.266,20.938Z" transform="translate(-218.685 -180.299)" fill="#ee7e1b"/>
                <g id="Grupo_114946" data-name="Grupo 114946" transform="translate(4.972)">
                  <g id="Grupo_114942" data-name="Grupo 114942" transform="translate(0 34.837)">
                    <path id="Trazado_188061" data-name="Trazado 188061" d="M256.109,218.85c.821.427.853,1.909.075,3.3l-25.92,46.314a4.3,4.3,0,0,1-1.483,1.589,1.487,1.487,0,0,1-1.419.171l-1.643-.853c-.821-.427-.853-1.909-.075-3.3l25.92-46.314a4.3,4.3,0,0,1,1.483-1.589,1.487,1.487,0,0,1,1.419-.171Z" transform="translate(-223.492 -216.955)" fill="#6d6f75"/>
                    <path id="Trazado_188062" data-name="Trazado 188062" d="M229.339,259.982a1.062,1.062,0,0,1,.992-.117c.576.3.6,1.323.053,2.3a2.993,2.993,0,0,1-1.035,1.109,1.063,1.063,0,0,1-.992.117c-.576-.3-.6-1.323-.053-2.3A2.992,2.992,0,0,1,229.339,259.982Z" transform="translate(-223.303 -214.162)" fill="#8c8e96"/>
                    <path id="Trazado_188063" data-name="Trazado 188063" d="M250.669,221.872a1.063,1.063,0,0,1,.992-.117c.576.3.6,1.333.053,2.3a2.992,2.992,0,0,1-1.035,1.109,1.063,1.063,0,0,1-.992.117c-.576-.3-.6-1.333-.053-2.3A2.993,2.993,0,0,1,250.669,221.872Z" transform="translate(-221.881 -216.702)" fill="#8c8e96"/>
                    <path id="Trazado_188064" data-name="Trazado 188064" d="M254.619,217.98l-1.643-.853a1.487,1.487,0,0,0-1.419.171,4.062,4.062,0,0,0-1.483,1.589L224.155,265.2c-.768,1.365-.747,2.827.032,3.275l1.579.917c-.779-.448-.8-1.909-.032-3.275l25.92-46.314a4.3,4.3,0,0,1,1.483-1.589,1.487,1.487,0,0,1,1.419-.171l1.643.853-1.579-.917Z" transform="translate(-223.591 -217.013)" fill="#8b8b90"/>
                  </g>
                  <g id="Grupo_114943" data-name="Grupo 114943">
                    <path id="Trazado_188065" data-name="Trazado 188065" d="M256.109,186.18c.821.427.853,1.909.075,3.3l-25.92,46.314a4.3,4.3,0,0,1-1.483,1.589,1.487,1.487,0,0,1-1.419.171l-1.643-.853c-.821-.427-.853-1.909-.075-3.3l25.92-46.314a4.3,4.3,0,0,1,1.483-1.589,1.487,1.487,0,0,1,1.419-.171Z" transform="translate(-223.492 -184.296)" fill="#6d6f75"/>
                    <path id="Trazado_188066" data-name="Trazado 188066" d="M229.339,227.322a1.063,1.063,0,0,1,.992-.117c.576.3.6,1.323.053,2.3a2.992,2.992,0,0,1-1.035,1.109,1.063,1.063,0,0,1-.992.117c-.576-.3-.6-1.323-.053-2.3A2.992,2.992,0,0,1,229.339,227.322Z" transform="translate(-223.303 -181.502)" fill="#8c8e96"/>
                    <path id="Trazado_188067" data-name="Trazado 188067" d="M254.619,185.32l-1.643-.853a1.487,1.487,0,0,0-1.419.171,4.062,4.062,0,0,0-1.483,1.589l-25.92,46.314c-.768,1.365-.747,2.827.032,3.275l1.579.917c-.779-.448-.8-1.909-.032-3.275l25.92-46.314a4.3,4.3,0,0,1,1.483-1.589,1.487,1.487,0,0,1,1.419-.171l1.643.853Z" transform="translate(-223.591 -184.353)" fill="#8b8b90"/>
                  </g>
                  <g id="Grupo_114944" data-name="Grupo 114944" transform="translate(1.436 7.746)">
                    <path id="Trazado_188068" data-name="Trazado 188068" d="M257.012,221.408c.619.736.341,2.357-.6,3.616l-2.944,3.883a3.748,3.748,0,0,1-1.109,1.013,1.308,1.308,0,0,1-1.739-.075L226.751,201.27c-.619-.736-.341-2.368.6-3.616l2.944-3.883a3.747,3.747,0,0,1,1.109-1.013,1.293,1.293,0,0,1,1.728.075L257,221.408Z" transform="translate(-224.839 -191.558)" fill="#818388"/>
                    <path id="Trazado_188069" data-name="Trazado 188069" d="M251.009,220.612a.921.921,0,0,1,1.205.053,2.3,2.3,0,0,1-.416,2.528,2.685,2.685,0,0,1-.779.715.9.9,0,0,1-1.205-.053,2.291,2.291,0,0,1,.427-2.528,2.685,2.685,0,0,1,.779-.715Z" transform="translate(-223.295 -189.695)" fill="#8c8e96"/>
                    <path id="Trazado_188070" data-name="Trazado 188070" d="M230.989,196.642a.921.921,0,0,1,1.205.053,2.3,2.3,0,0,1-.416,2.528,2.685,2.685,0,0,1-.779.715c-.469.267-.928.277-1.205-.064a2.291,2.291,0,0,1,.427-2.528,2.686,2.686,0,0,1,.779-.715Z" transform="translate(-224.629 -191.293)" fill="#8c8e96"/>
                    <path id="Trazado_188071" data-name="Trazado 188071" d="M226.849,201.327c-.619-.736-.341-2.368.6-3.616l2.944-3.883a3.748,3.748,0,0,1,1.109-1.013,1.5,1.5,0,0,1,1.472-.149l-1.579-.917a1.5,1.5,0,0,0-1.472.149,3.9,3.9,0,0,0-1.109,1.013l-2.944,3.883c-.949,1.248-1.216,2.88-.6,3.616l23.872,28.576,1.579.917Z" transform="translate(-224.937 -191.615)" fill="#9b9b9e"/>
                  </g>
                  <g id="Grupo_114945" data-name="Grupo 114945" transform="translate(1.436 42.583)">
                    <path id="Trazado_188072" data-name="Trazado 188072" d="M257.012,254.068c.619.736.341,2.357-.6,3.616l-2.944,3.883a3.748,3.748,0,0,1-1.109,1.013,1.308,1.308,0,0,1-1.739-.075L226.751,233.93c-.619-.736-.341-2.368.6-3.616l2.944-3.883a3.748,3.748,0,0,1,1.109-1.013,1.293,1.293,0,0,1,1.728.075L257,254.068Z" transform="translate(-224.839 -224.218)" fill="#818388"/>
                    <path id="Trazado_188073" data-name="Trazado 188073" d="M251.009,253.272a.921.921,0,0,1,1.205.053,2.3,2.3,0,0,1-.416,2.528,2.686,2.686,0,0,1-.779.715.9.9,0,0,1-1.205-.053,2.291,2.291,0,0,1,.427-2.528,2.685,2.685,0,0,1,.779-.715Z" transform="translate(-223.295 -222.355)" fill="#8c8e96"/>
                    <path id="Trazado_188074" data-name="Trazado 188074" d="M230.989,229.3a.921.921,0,0,1,1.205.053,2.3,2.3,0,0,1-.416,2.528,2.685,2.685,0,0,1-.779.715c-.469.267-.928.277-1.205-.064a2.29,2.29,0,0,1,.427-2.528,2.686,2.686,0,0,1,.779-.715Z" transform="translate(-224.629 -223.953)" fill="#8c8e96"/>
                    <path id="Trazado_188075" data-name="Trazado 188075" d="M226.849,233.987c-.619-.736-.341-2.368.6-3.616l2.944-3.883a3.748,3.748,0,0,1,1.109-1.013,1.5,1.5,0,0,1,1.472-.149l-1.579-.917a1.5,1.5,0,0,0-1.472.149,3.9,3.9,0,0,0-1.109,1.013l-2.944,3.883c-.949,1.248-1.216,2.88-.6,3.616l23.872,28.576,1.579.917-23.872-28.576Z" transform="translate(-224.937 -224.275)" fill="#9b9b9e"/>
                  </g>
                </g>
                <g id="Grupo_114951" data-name="Grupo 114951" transform="translate(22.561 10.155)">
                  <g id="Grupo_114947" data-name="Grupo 114947" transform="translate(0 34.837)">
                    <path id="Trazado_188076" data-name="Trazado 188076" d="M272.6,228.37c.821.427.853,1.909.075,3.3l-25.92,46.314a4.3,4.3,0,0,1-1.483,1.589,1.487,1.487,0,0,1-1.419.171l-1.643-.853c-.821-.427-.853-1.909-.075-3.3l25.92-46.314a4.3,4.3,0,0,1,1.483-1.589,1.487,1.487,0,0,1,1.419-.171l1.643.853Z" transform="translate(-239.982 -226.475)" fill="#abacb1"/>
                    <path id="Trazado_188077" data-name="Trazado 188077" d="M245.829,269.5a1.063,1.063,0,0,1,.992-.117c.576.3.6,1.323.053,2.3a2.993,2.993,0,0,1-1.035,1.109,1.063,1.063,0,0,1-.992.117c-.576-.3-.6-1.323-.053-2.3A2.993,2.993,0,0,1,245.829,269.5Z" transform="translate(-239.793 -223.682)" fill="#8c8e96"/>
                    <path id="Trazado_188078" data-name="Trazado 188078" d="M267.159,231.392a1.063,1.063,0,0,1,.992-.117c.576.3.6,1.333.053,2.3a2.994,2.994,0,0,1-1.035,1.109,1.063,1.063,0,0,1-.992.117c-.576-.3-.6-1.333-.053-2.3A2.992,2.992,0,0,1,267.159,231.392Z" transform="translate(-238.371 -226.222)" fill="#8c8e96"/>
                    <path id="Trazado_188079" data-name="Trazado 188079" d="M271.109,227.5l-1.643-.853a1.487,1.487,0,0,0-1.419.171,4.062,4.062,0,0,0-1.483,1.589l-25.92,46.314c-.768,1.365-.747,2.827.032,3.275l1.579.917c-.779-.448-.8-1.909-.032-3.275l25.92-46.314a4.3,4.3,0,0,1,1.483-1.589,1.487,1.487,0,0,1,1.419-.171l1.643.853-1.579-.917Z" transform="translate(-240.081 -226.533)" fill="#8b8b90"/>
                  </g>
                  <g id="Grupo_114948" data-name="Grupo 114948">
                    <path id="Trazado_188080" data-name="Trazado 188080" d="M272.6,195.7c.821.427.853,1.909.075,3.3l-25.92,46.314a4.3,4.3,0,0,1-1.483,1.589,1.487,1.487,0,0,1-1.419.171l-1.643-.853c-.821-.427-.853-1.909-.075-3.3l25.92-46.314a4.3,4.3,0,0,1,1.483-1.589,1.487,1.487,0,0,1,1.419-.171Z" transform="translate(-239.982 -193.816)" fill="#abacb1"/>
                    <path id="Trazado_188081" data-name="Trazado 188081" d="M245.829,236.842a1.063,1.063,0,0,1,.992-.117c.576.3.6,1.323.053,2.3a2.993,2.993,0,0,1-1.035,1.109,1.063,1.063,0,0,1-.992.117c-.576-.3-.6-1.323-.053-2.3A2.993,2.993,0,0,1,245.829,236.842Z" transform="translate(-239.793 -191.022)" fill="#8c8e96"/>
                    <path id="Trazado_188082" data-name="Trazado 188082" d="M267.159,198.732a1.063,1.063,0,0,1,.992-.117c.576.3.6,1.333.053,2.3a2.994,2.994,0,0,1-1.035,1.109,1.063,1.063,0,0,1-.992.117c-.576-.3-.6-1.333-.053-2.3A2.993,2.993,0,0,1,267.159,198.732Z" transform="translate(-238.371 -193.562)" fill="#8c8e96"/>
                    <path id="Trazado_188083" data-name="Trazado 188083" d="M271.109,194.84l-1.643-.853a1.487,1.487,0,0,0-1.419.171,4.062,4.062,0,0,0-1.483,1.589l-25.92,46.314c-.768,1.365-.747,2.827.032,3.275l1.579.917c-.779-.448-.8-1.909-.032-3.275l25.92-46.314a4.3,4.3,0,0,1,1.483-1.589,1.487,1.487,0,0,1,1.419-.171l1.643.853-1.579-.917Z" transform="translate(-240.081 -193.873)" fill="#8b8b90"/>
                  </g>
                  <g id="Grupo_114949" data-name="Grupo 114949" transform="translate(1.436 7.746)">
                    <path id="Trazado_188084" data-name="Trazado 188084" d="M273.5,230.928c.619.736.341,2.357-.6,3.616l-2.944,3.883a3.747,3.747,0,0,1-1.109,1.013,1.309,1.309,0,0,1-1.739-.075L243.241,210.79c-.619-.736-.341-2.368.6-3.616l2.944-3.883a3.747,3.747,0,0,1,1.109-1.013,1.293,1.293,0,0,1,1.728.075l23.872,28.576Z" transform="translate(-241.329 -201.078)" fill="#bebfc3"/>
                    <path id="Trazado_188085" data-name="Trazado 188085" d="M267.5,230.132a.921.921,0,0,1,1.205.053,2.3,2.3,0,0,1-.416,2.528,2.685,2.685,0,0,1-.779.715c-.469.267-.939.277-1.205-.053a2.291,2.291,0,0,1,.427-2.528,2.686,2.686,0,0,1,.779-.715Z" transform="translate(-239.785 -199.215)" fill="#8c8e96"/>
                    <path id="Trazado_188086" data-name="Trazado 188086" d="M247.479,206.162a.921.921,0,0,1,1.205.053,2.3,2.3,0,0,1-.416,2.528,2.685,2.685,0,0,1-.779.715c-.469.267-.928.277-1.205-.064a2.29,2.29,0,0,1,.427-2.528,2.685,2.685,0,0,1,.779-.715Z" transform="translate(-241.119 -200.813)" fill="#8c8e96"/>
                    <path id="Trazado_188087" data-name="Trazado 188087" d="M243.339,210.847c-.619-.736-.341-2.368.6-3.616l2.944-3.883a3.747,3.747,0,0,1,1.109-1.013,1.5,1.5,0,0,1,1.472-.149l-1.579-.917a1.5,1.5,0,0,0-1.472.149,3.9,3.9,0,0,0-1.109,1.013l-2.944,3.883c-.949,1.248-1.216,2.88-.6,3.616l23.872,28.576,1.579.917-23.872-28.576Z" transform="translate(-241.427 -201.135)" fill="#9b9b9e"/>
                  </g>
                  <g id="Grupo_114950" data-name="Grupo 114950" transform="translate(1.436 42.583)">
                    <path id="Trazado_188088" data-name="Trazado 188088" d="M273.5,263.588c.619.736.341,2.357-.6,3.616l-2.944,3.883a3.747,3.747,0,0,1-1.109,1.013,1.309,1.309,0,0,1-1.739-.075L243.241,243.45c-.619-.736-.341-2.368.6-3.616l2.944-3.883a3.748,3.748,0,0,1,1.109-1.013,1.293,1.293,0,0,1,1.728.075l23.872,28.576Z" transform="translate(-241.329 -233.738)" fill="#bebfc3"/>
                    <path id="Trazado_188089" data-name="Trazado 188089" d="M267.5,262.792a.921.921,0,0,1,1.205.053,2.3,2.3,0,0,1-.416,2.528,2.686,2.686,0,0,1-.779.715.9.9,0,0,1-1.205-.053,2.291,2.291,0,0,1,.427-2.528,2.687,2.687,0,0,1,.779-.715Z" transform="translate(-239.785 -231.875)" fill="#8c8e96"/>
                    <path id="Trazado_188090" data-name="Trazado 188090" d="M247.479,238.822a.921.921,0,0,1,1.205.053,2.3,2.3,0,0,1-.416,2.528,2.685,2.685,0,0,1-.779.715c-.469.267-.928.277-1.205-.064a2.29,2.29,0,0,1,.427-2.528,2.685,2.685,0,0,1,.779-.715Z" transform="translate(-241.119 -233.473)" fill="#8c8e96"/>
                    <path id="Trazado_188091" data-name="Trazado 188091" d="M243.339,243.507c-.619-.736-.341-2.368.6-3.616l2.944-3.883a3.748,3.748,0,0,1,1.109-1.013,1.5,1.5,0,0,1,1.472-.149l-1.579-.917a1.5,1.5,0,0,0-1.472.149,3.9,3.9,0,0,0-1.109,1.013l-2.944,3.883c-.949,1.248-1.216,2.88-.6,3.616l23.872,28.576,1.579.917Z" transform="translate(-241.427 -233.795)" fill="#9b9b9e"/>
                  </g>
                </g>
                <g id="Grupo_114952" data-name="Grupo 114952" transform="translate(24.928 72.497)">
                  <path id="Trazado_188092" data-name="Trazado 188092" d="M244.6,270.592l31.648-18.272,2.315,4.512v5.707L242.3,283.488V277.77Z" transform="translate(-242.3 -252.32)" fill="#fd9a1b"/>
                  <path id="Trazado_188093" data-name="Trazado 188093" d="M248.275,272.712l31.648-18.282,2.3,4.512v5.717L245.96,285.6v-5.707Z" transform="translate(-242.056 -252.179)" fill="#ffb91b"/>
                  <path id="Trazado_188094" data-name="Trazado 188094" d="M276.108,252.32l3.915,2.251-31.648,18.282-3.915-2.261Z" transform="translate(-242.156 -252.32)" fill="#ffc91b"/>
                </g>
                <path id="Trazado_188095" data-name="Trazado 188095" d="M218.93,262.69l28.832,16.65v5.707l-28.832-16.64Z" transform="translate(-218.93 -179.132)" fill="#f6921b"/>
              </g>
              <g id="Grupo_114955" data-name="Grupo 114955" transform="translate(20.186)">
                <path id="Trazado_188096" data-name="Trazado 188096" d="M284.469,152.1,256.043,135.7a5.66,5.66,0,0,0-5.12,0l-33.834,19.658a1.8,1.8,0,0,0-1.045,1.472l-.053,40.2a1.8,1.8,0,0,1,1.045-1.472L250.87,175.9a5.627,5.627,0,0,1,5.12,0l28.426,16.405a1.81,1.81,0,0,1,1.067,1.493l.053-40.2a1.8,1.8,0,0,0-1.067-1.493Z" transform="translate(-213.446 -133.584)" fill="#f6921b"/>
                <path id="Trazado_188097" data-name="Trazado 188097" d="M284.466,189.474c1.419.811,1.419,2.155.021,2.965L250.653,212.1a5.682,5.682,0,0,1-5.131,0L217.1,195.692c-1.419-.811-1.419-2.155-.011-2.965l33.834-19.658a5.627,5.627,0,0,1,5.12,0Z" transform="translate(-213.443 -131.093)" fill="#8a8c95"/>
                <g id="Grupo_114954" data-name="Grupo 114954">
                  <path id="Trazado_188098" data-name="Trazado 188098" d="M281.129,154.813l2.176.939,1.163-.683c1.408-.821,1.4-2.155-.021-2.965L256.02,135.7a5.66,5.66,0,0,0-5.12,0l-33.834,19.658c-1.408.821-1.4,2.155.011,2.965l.352.2,2.976-1.4,60.7-2.325Z" transform="translate(-213.444 -133.584)" fill="#f6921b"/>
                  <path id="Trazado_188099" data-name="Trazado 188099" d="M286.516,151.323l-28.8-16.629a9.467,9.467,0,0,0-8.533,0l-33.834,19.669c-2.336,1.355-2.325,3.584.032,4.939l.352.2,1.888-.885-.352-.2c-1.419-.811-1.419-2.155-.011-2.965l33.834-19.658a5.627,5.627,0,0,1,5.12,0L284.639,152.2c1.419.821,1.419,2.155.021,2.965l-1.163.683,2.165.939.9-.523c2.336-1.355,2.325-3.584-.032-4.939Z" transform="translate(-213.605 -133.677)" fill="#ffc91b"/>
                </g>
              </g>
            </g>
            <g id="Grupo_114957" data-name="Grupo 114957" transform="translate(27.451)">
              <path id="Trazado_188100" data-name="Trazado 188100" d="M253.413,183.208a4.7,4.7,0,0,0-2.357.085c-.747.395-.245,1.781-.245,1.781s1.675,2.613,1.92,3.179.725,3.168,2.965,3.285,2.005-1.109,2.069-1.6a10.342,10.342,0,0,0-.384-3.819c-.448-.811-3.957-2.923-3.957-2.923Z" transform="translate(-218.4 -82.639)" fill="#f1f3f3"/>
              <path id="Trazado_188101" data-name="Trazado 188101" d="M242.735,189.336c-.427-.341-1.611-1.067-2.123-1.419a2.414,2.414,0,0,0-2.261,0,2.527,2.527,0,0,0-1.109,1.451,3.727,3.727,0,0,0,.171,1.717,10.557,10.557,0,0,0,2.005,2.027c.555.352,1.749.992,1.749.992s2.133,2.08,3.733,2.24a1.982,1.982,0,0,0,2.1-1.184s.363-2.421-.075-3.147-4.213-2.677-4.213-2.677Z" transform="translate(-219.296 -82.335)" fill="#f1f3f3"/>
              <path id="Trazado_188102" data-name="Trazado 188102" d="M257.881,190.467c-.075.523-2.048,1.259-3.307.768a4,4,0,0,1-1.845-1.6,3.161,3.161,0,0,1-.341-.7c-.171-.555-.853-10.741-1.141-12.064s-2.005-5.7-2.315-7.616-1.824-9.333-2.357-10.667a12.629,12.629,0,0,1-.427-2.571c-.341-3.083-.576-7.691-.576-7.691s-.48-3.349,2.325-4.352a13.5,13.5,0,0,1,5.707-.576l.3,1.152c0,.235,1.195,4.245,1.419,5.835a55.212,55.212,0,0,1,.373,6.229c-.053,1.056-.3,2.656-.3,2.656s.341,3.68.352,4.811a37.058,37.058,0,0,0,.523,5.995,55.215,55.215,0,0,1,1.4,8.373,93.026,93.026,0,0,1,.235,12.032Z" transform="translate(-218.741 -85.29)" fill="#424c67"/>
              <path id="Trazado_188103" data-name="Trazado 188103" d="M253.246,182.038a61.3,61.3,0,0,1-.555,6.848,3.159,3.159,0,0,1-.341-.7c-.171-.555-.853-10.741-1.141-12.064s-2.005-5.7-2.315-7.616-1.824-9.333-2.357-10.667a12.631,12.631,0,0,1-.427-2.571,3.235,3.235,0,0,1,1.376-.693c1.515-.309,1.269,2.187,2.923,2.091a10.812,10.812,0,0,0-.981,7.275c.213.992.576,1.952.8,2.933.181.757.277,1.515.48,2.261.235.864.619,1.685.939,2.528a27.893,27.893,0,0,1,1.6,10.389Z" transform="translate(-218.703 -84.541)" fill="#deddf5"/>
              <path id="Trazado_188104" data-name="Trazado 188104" d="M255.064,167.175c-.1-3.349-.2-6.709-.3-10.059a13.249,13.249,0,0,0-.523-3.947,1.186,1.186,0,0,0-.213-.416.893.893,0,0,0-1.067-.1,2.629,2.629,0,0,0-.992,1.376c-.363.843-.725,1.675-1.088,2.517a5.563,5.563,0,0,0-.459,1.344,7.064,7.064,0,0,0-.021,1.344c.021.981-.053,1.963-.032,2.944a19.835,19.835,0,0,0,1.088,6.005c.245.683.672,1.365,1.461,1.013.309-.139,2.155-1.707,2.144-2.027Z" transform="translate(-218.419 -84.676)" fill="#454f6b"/>
              <path id="Trazado_188105" data-name="Trazado 188105" d="M248.18,149.737a1.5,1.5,0,0,0-.523.213,1.285,1.285,0,0,0-.235,1.237,14.466,14.466,0,0,0,.683,3.008,4.789,4.789,0,0,0,1.856,2.4,2.961,2.961,0,0,1,1.152.875c.235.416.331,1.088.8,1.067a.7.7,0,0,0,.384-.171,6.877,6.877,0,0,0,2.677-5.109,14.864,14.864,0,0,0-.917-5.845.89.89,0,0,0-.192-.373c-.533-.555-1.813.715-2.325,1a15.056,15.056,0,0,1-3.36,1.7Z" transform="translate(-218.618 -85.051)" fill="#454f6b"/>
              <path id="Trazado_188106" data-name="Trazado 188106" d="M255.2,166.849a2.387,2.387,0,0,0-.352-1.056,1.44,1.44,0,0,0-1.483-.48,2.277,2.277,0,0,0-1.3.971,3.152,3.152,0,0,0-.544,1.92,6.515,6.515,0,0,0,.5,1.941,32.487,32.487,0,0,1,1.707,5.963c.576,3.584.128,7.253.235,10.891a1.2,1.2,0,0,0,.192.768,1.067,1.067,0,0,0,.736.32A4.311,4.311,0,0,0,256.5,188c.8-.2.48-1.611.491-2.3.021-1.312.171-2.677.075-3.979a44.39,44.39,0,0,1-.171-4.459c.075-3.467-1.141-7-1.7-10.4Z" transform="translate(-218.342 -83.826)" fill="#454f6b"/>
              <path id="Trazado_188107" data-name="Trazado 188107" d="M237.858,144.67c-.021,1.312-.747,4.288-.779,5.664a52.507,52.507,0,0,0-.032,7.136c.267,2.859.619,5.131.939,7.083s1.76,7.509,1.867,8.117-.256,4.384.053,6.059,1.579,13.877,1.429,14.741a2.849,2.849,0,0,0,1.717,3.275,4.566,4.566,0,0,0,3.68-.117l.64-4.672s-.331-13.109-.491-14.7.821-8.5.523-10.9a46.8,46.8,0,0,1,.181-7.307s2.091-1.088,2.4-2.208a26.111,26.111,0,0,0-.171-6.539c-.245-1.387-.949-5.205-2.165-6.123s-9.781.512-9.781.512Z" transform="translate(-219.315 -85.253)" fill="#424c67"/>
              <path id="Trazado_188108" data-name="Trazado 188108" d="M241.661,195.589c-.064-.661-1.5-16.138-1.557-17.578l-.021-.693a52.667,52.667,0,0,0-.576-7.648c-.459-1.632-2.059-11.072-2.283-13.472a65.722,65.722,0,0,1,.277-8.117l.373.032a70.191,70.191,0,0,0-.277,8.053c.213,2.379,1.8,11.776,2.261,13.4a52.829,52.829,0,0,1,.587,7.744l.021.693c.053,1.429,1.536,17.4,1.557,17.557l-.373.032Z" transform="translate(-219.299 -84.972)" fill="#4f5a7a"/>
              <path id="Trazado_188109" data-name="Trazado 188109" d="M247.082,171.358a21.7,21.7,0,0,0-.32-4.053c-.064-1.013.043-2.027-.032-3.029-.064-.9-.277-1.771-.373-2.667a10.189,10.189,0,0,1,0-2.133,2.218,2.218,0,0,1,.139-.64,3.113,3.113,0,0,1,.512-.768,12.292,12.292,0,0,0,2.389-3.787,4.7,4.7,0,0,0-.459-4.309.431.431,0,0,0-.181-.16.453.453,0,0,0-.331.043,18.266,18.266,0,0,1-9.771.832.5.5,0,0,0-.7.565,27.466,27.466,0,0,0,.459,6.133c.16.843.363,1.675.48,2.528.149,1.077.181,2.176.245,3.264.192,3.1.747,6.176,1.12,9.269a6.329,6.329,0,0,0,.651,2.517,2.708,2.708,0,0,0,4.171.427,6.987,6.987,0,0,0,1.995-4.021Z" transform="translate(-219.248 -84.858)" fill="#454f6b"/>
              <path id="Trazado_188110" data-name="Trazado 188110" d="M244.839,173.815a4.03,4.03,0,0,0-3.3-.1,1.171,1.171,0,0,0-.448.256,1.312,1.312,0,0,0-.245,1,150.963,150.963,0,0,0,1.408,15.818,3.073,3.073,0,0,0,.331,1.184,3.168,3.168,0,0,0,2.357,1.152,1.473,1.473,0,0,0,.715,0c.48-.171.619-.757.683-1.259.139-1.013.288-2.027.341-3.051a34.268,34.268,0,0,0-.107-3.915c-.128-1.995-.213-4.1-.32-6.133-.085-1.6.256-4.043-1.408-4.96Z" transform="translate(-219.054 -83.283)" fill="#454f6b"/>
              <path id="Trazado_188111" data-name="Trazado 188111" d="M238.389,149.166c2.656.491,7.765-.416,10.613-1.28a40.174,40.174,0,0,0,5.845-2.144,11.853,11.853,0,0,0-.533-2.272s-1.568,1.355-6.432,2.379a39.782,39.782,0,0,1-9.632.747c-.128-.021-.693-.1-.693-.1s-.2,1.483-.267,1.941a.55.55,0,0,0,.277.608l.832.107Z" transform="translate(-219.291 -85.279)" fill="#323142"/>
              <rect id="Rectngulo_41133" data-name="Rectngulo 41133" width="0.747" height="4.725" transform="translate(28.343 59.332) rotate(-16.24)" fill="#424c67"/>
              <path id="Trazado_188112" data-name="Trazado 188112" d="M238.209,150.251l-.448-.085-.117-.107-.021-.245-.032-3.733h.747l.032,3.733h-.341l.021.064h.405l-.245.363Zm-.171-.715a.375.375,0,0,0-.128.021l.107.245.256-.171a.331.331,0,0,0-.235-.1Z" transform="translate(-219.271 -85.105)" fill="#424c67"/>
              <path id="Trazado_188113" data-name="Trazado 188113" d="M243.223,160.529h-.085c-.075-.021-1.408-.512-3.979-1.472l-.117-.043-.341-6.635h.2l8.267.171-.448,4.949Zm-3.819-1.781c1.355.5,3.275,1.216,3.712,1.376l3.243-2.805.395-4.405-7.659-.16.309,5.995Z" transform="translate(-219.197 -84.686)" fill="#4f5a7a"/>
              <path id="Trazado_188114" data-name="Trazado 188114" d="M254.458,158.105l-2.635-1.472-.533-5.248.16-.032c.8-.181,2.965-.8,3.317-1.493l.331.171c-.448.885-2.731,1.493-3.413,1.653l.48,4.725,2.144,1.195,1.035-1.877.331.181-1.216,2.208Z" transform="translate(-218.357 -84.853)" fill="#4f5a7a"/>
              <path id="Trazado_188115" data-name="Trazado 188115" d="M248.942,157.3l-.331-.171c.853-1.707.757-6.773-.5-9.44l.341-.16c1.227,2.581,1.493,7.787.5,9.76Z" transform="translate(-218.569 -85.009)" fill="#4f5a7a"/>
              <path id="Trazado_188116" data-name="Trazado 188116" d="M261.035,111.821a106.56,106.56,0,0,1-3.093,10.485c-.395.48-1.749-.928-1.749-.928l-3.4-1.8c.747-1.024,2.571-4.789,3.2-5.675a3.644,3.644,0,0,0,.619-1.248,3.582,3.582,0,0,0,.064-.5,12.218,12.218,0,0,0,.011-2.2c-.085-1.205-.363-6.272-.5-7.339s-.235-3.307-.757-4.053c-.139-.192-.3-.395-.469-.587h0a11,11,0,0,0-.939-.939,10.278,10.278,0,0,1-.736-1.195c-.064-.224-.213-.811-.3-1.013s.459-.267.725-.171.587.5.757.651.5.448.5.448a7.174,7.174,0,0,0,.693-.245,3.58,3.58,0,0,0,.427-.6s.587-1.131.971-1.9a6.733,6.733,0,0,0,.32-.693c.021-.149-.245-1.077-.235-1.131s-.437-.683-.309-.971a.4.4,0,0,1,.427-.224l.661,1.227.032-.555s-.16-1.259.064-1.579.555-.032.555-.032.043-.032.1-.075c.139-.085.416-.181.512.32a3.09,3.09,0,0,1,.053.619v.523a13.989,13.989,0,0,1-.117,1.909,9.992,9.992,0,0,0-.309,1.589c-.043.512-.523,3.5-.459,3.829s1.589,6.133,1.984,7.712a34.952,34.952,0,0,1,.725,6.347Z" transform="translate(-218.258 -88.916)" fill="url(#linear-gradient-10)"/>
              <path id="Trazado_188117" data-name="Trazado 188117" d="M257.105,111.313a5.837,5.837,0,0,0-1.387,1.995c-.373.757-.7,1.525-1.024,2.3-.256.629-.512,1.259-.725,1.9a2.651,2.651,0,0,0-.149.757,2.316,2.316,0,0,0,.256.917,1.263,1.263,0,0,0,.235.405.961.961,0,0,0,.661.2,4.064,4.064,0,0,0,1.067-.181,3.1,3.1,0,0,0,1-.427,3.428,3.428,0,0,0,1.035-1.931c.395-1.419.789-2.827,1.173-4.245.224-.811.917-2.347-.48-2.389a2.62,2.62,0,0,0-1.653.693Z" transform="translate(-218.189 -87.469)" fill="url(#linear-gradient-11)"/>
              <path id="Trazado_188118" data-name="Trazado 188118" d="M258.267,110.648c.043.277-.213.512-.469.608a6.873,6.873,0,0,0-.789.267,1.744,1.744,0,0,0-.48.448c-.032.032-.053.064-.085.1a3.574,3.574,0,0,0,.064-.5,12.222,12.222,0,0,0,.011-2.2c-.085-1.205-.363-6.272-.5-7.339s-.235-3.307-.757-4.053c-.139-.192-.3-.395-.469-.587a1.991,1.991,0,0,1,.48.352A2.861,2.861,0,0,1,256,99.171a13.4,13.4,0,0,1,.288,2.7c.053,1.5.075,3.019.245,4.512.139,1.184.171,2.955,1.227,3.712.213.149.469.3.5.555Z" transform="translate(-218.124 -88.351)" fill="#ffdfd1"/>
              <path id="Trazado_188119" data-name="Trazado 188119" d="M256.671,101.722c.416,2.069.363,4.213.811,6.272a29.536,29.536,0,0,0,1.312,3.755,1.414,1.414,0,0,0,.373.651c.512.427.715-1.28.768-1.557a11.915,11.915,0,0,0,.053-3.317,44.8,44.8,0,0,0-.8-4.736c-.309-1.472-.587-2.976-1-4.416a.526.526,0,0,0-.117-.245.446.446,0,0,0-.171-.1.946.946,0,0,0-.843.213,2.151,2.151,0,0,0-.523.736c-.459.885-.032,1.813.149,2.72Z" transform="translate(-218.022 -88.31)" fill="url(#linear-gradient-12)"/>
              <path id="Trazado_188120" data-name="Trazado 188120" d="M257.991,90.306a11.587,11.587,0,0,1-1.1,2.56.313.313,0,0,1-.107.128,6.74,6.74,0,0,0,.32-.693c.021-.149-.245-1.077-.235-1.131s-.437-.683-.309-.971a.4.4,0,0,1,.427-.224l.661,1.227.032-.555s-.16-1.259.064-1.579.555-.032.555-.032.043-.032.1-.075c-.139.437-.245.885-.395,1.323Z" transform="translate(-218.008 -88.915)" fill="#ffdfd1"/>
              <path id="Trazado_188121" data-name="Trazado 188121" d="M258.89,90.372l-.1.32c-.117.405-.235.811-.352,1.227a10.122,10.122,0,0,1-.341,1.387c-.16.363-.32.725-.491,1.077a2.777,2.777,0,0,1,.309-.939c.224-.629.288-1.291.459-1.931.16-.555.309-1.109.491-1.653v.523Z" transform="translate(-217.936 -88.853)" fill="#ffdfd1"/>
              <path id="Trazado_188122" data-name="Trazado 188122" d="M255.884,125.6c.971-1.589,1.856-2.539,2.069-3.669s.843-3.829-.171-4.939-2.453-1.781-3.819-.523-2.56,1.3-3.211,2.7,5.12,6.432,5.12,6.432Z" transform="translate(-218.397 -87.124)" fill="#ff7f00"/>
              <path id="Trazado_188123" data-name="Trazado 188123" d="M237.327,128.956a.133.133,0,0,1-.128.085,8.367,8.367,0,0,1-2.731-1.376c-.352-.235-4.235-2.677-5.12-3.445s-3.179-2.539-3.467-2.795a19.176,19.176,0,0,1-2.443-1.931,13.158,13.158,0,0,1-.725-2.368c-.267-1.045-.875-4.875-1.013-6.059s-.256-3.787-.32-4.256c-.043-.341-.181-2.336-.256-3.552h0c-.032-.469-.053-.821-.064-.907-.032-.3-.245-1.675-.245-1.995s.128-1.9.128-2.069a16.979,16.979,0,0,0-.427-1.909,13.951,13.951,0,0,1-.075-2.411.346.346,0,0,1,.341-.171.228.228,0,0,1,.181.085,11.908,11.908,0,0,1,.32,1.856l.224.747-.043-.48v-.235c0-.672-.021-2.571.064-2.955.117-.459.619-.288.747-.224.043.021.075.16.1.331.053.384.064.949.064.949l.192,2.955.117.117v-.1l.192-2.859-.064-1.323a1.162,1.162,0,0,1,.256-.395.467.467,0,0,1,.576.075,1.257,1.257,0,0,1,.149.6c.053.523.064,1.195.064,1.195l-.021,3.1s.16.128.171.1a.925.925,0,0,1,.011-.117v-.032a1.973,1.973,0,0,1,.021-.32V96.85c.053-.757.149-2.155.149-2.155a6.834,6.834,0,0,1,.053-1.515.435.435,0,0,1,.661.107,4.28,4.28,0,0,1,.2.949c.085.6.16,1.237.16,1.237l.1,2.176a9.389,9.389,0,0,0,.181,1.259c.075.117.437.224.437.224l.555-.352s.139-.107.277-.224.288-.224.3-.235a6.709,6.709,0,0,1,.491-.629,1.928,1.928,0,0,1,.683-.224.672.672,0,0,1,.48.235c.128.213-.309.469-.416.64l-.395.629-1.045,1.067-1.355,1.568a7.376,7.376,0,0,0-.949,1.312,36.724,36.724,0,0,0,.736,5.365c.416,1.856,2.368,8.373,2.6,8.853.64.555,6.645,3.787,7.307,4.149.629.331,2.421,6.773,1.984,7.616Z" transform="translate(-220.415 -88.696)" fill="url(#linear-gradient-13)"/>
              <path id="Trazado_188124" data-name="Trazado 188124" d="M237.475,122.476a7.127,7.127,0,0,1,2.763-1.749c.5-.2,2.773.491,4.2.117S250.8,119.5,250.8,119.5a9.1,9.1,0,0,1,2.624-1.429c.875-.117,3.467,1.7,3.872,3.616a12.547,12.547,0,0,1-.139,4.821c-.181,1.227-.843,6.261-1.312,8.459s-1.611,9.568-1.664,10.1-3.179,1.589-5.973,2.208a44.441,44.441,0,0,1-8.117,1.024,5.117,5.117,0,0,1-2.432-.469c-.224-.235-.416-12.075-.651-13.333a70.522,70.522,0,0,1,.053-7.243l.416-4.768Z" transform="translate(-219.316 -86.973)" fill="#ffa600"/>
              <path id="Trazado_188125" data-name="Trazado 188125" d="M248.778,107.2a8.134,8.134,0,0,0-2.688.853,13.649,13.649,0,0,0-1.963,2.517l-.245,1.451s-.565,1.408-.757,1.856a8.315,8.315,0,0,0-.139,3.051c.2.288,1.525,1.067,1.621,1.3a10.8,10.8,0,0,1-.32,2.229c-.075.32-.427,1.195-.427,1.195a18.157,18.157,0,0,0,5.173.2c1.76-.384,2.208-.821,2.251-1.227s-.075-1.845.032-2.485-2.485-8.3-2.485-8.3l-.064-2.656Z" transform="translate(-218.917 -87.698)" fill="url(#linear-gradient-14)"/>
              <path id="Trazado_188126" data-name="Trazado 188126" d="M246.493,108.33c-.149.437.021.907-.309,1.035a8.288,8.288,0,0,0-1.291,1.045l-.533,1.067v1.163a9.217,9.217,0,0,1,0,1.216c-.043.107-.16.725-.16.725l.224.331a.764.764,0,0,1,.843-.341,1.868,1.868,0,0,1,1.195,1.493,16.374,16.374,0,0,0,.736,2.955,3.14,3.14,0,0,0,1.259,1.227,4.278,4.278,0,0,0,2.464-.224c.533-.448,2.9-1.472,3.765-3.093.395-.811.661-.917.661-.917a6.466,6.466,0,0,0,.907-2.869,6.29,6.29,0,0,0-1.451-4.3,6.9,6.9,0,0,0-3.808-2.325c-1.1-.288-2.357-.747-3.3-.075a3.434,3.434,0,0,0-1.195,1.877Z" transform="translate(-218.83 -87.771)" fill="#b2686b"/>
              <path id="Trazado_188127" data-name="Trazado 188127" d="M244.666,116.994c.16.171.523.3.864-.395a2.093,2.093,0,0,0,.085-1.792c-.2-.395-.469-.245-.469-.245l-.213.7-.16.864s-.395.555-.1.864Z" transform="translate(-218.806 -87.208)" fill="url(#linear-gradient-15)"/>
              <path id="Trazado_188128" data-name="Trazado 188128" d="M221.558,96.217a4.1,4.1,0,0,1-.053,1.44,5.71,5.71,0,0,0-.3-1.493c-.1-.5-.192-.992-.277-1.5-.064-.32-.1-.64-.139-.949a.228.228,0,0,1,.181.085,11.908,11.908,0,0,1,.32,1.856l.224.747-.043-.48v-.235c.032.171.064.352.1.523Z" transform="translate(-220.39 -88.596)" fill="#ffdfd1"/>
              <path id="Trazado_188129" data-name="Trazado 188129" d="M222.653,96.835a.91.91,0,0,1,0,.341c-.213-.053-.256-.3-.267-.491-.021-.491-.053-.971-.075-1.461-.043-.747,0-1.547-.032-2.315.053.384.064.949.064.949l.192,2.955.117.117Z" transform="translate(-220.291 -88.649)" fill="#ffdfd1"/>
              <path id="Trazado_188130" data-name="Trazado 188130" d="M223.867,97.325s.011-.2.043-.48v.021c0,.075-.053.736-.064.725a.8.8,0,0,1-.224-.576c-.064-.64.021-1.248,0-1.888a13.676,13.676,0,0,1,.043-2.091.438.438,0,0,1,.011-.117c.053.523.064,1.195.064,1.195l-.021,3.1s.16.128.171.1Z" transform="translate(-220.203 -88.649)" fill="#ffdfd1"/>
              <path id="Trazado_188131" data-name="Trazado 188131" d="M226.6,98.481s-.032.053-.043.075a1.741,1.741,0,0,1-.5.672.905.905,0,0,1-.928.043.25.25,0,0,1-.128-.128.616.616,0,0,1-.032-.149c-.021-.715-.053-1.429-.075-2.144-.011-.416-.032-.832-.043-1.248a7.541,7.541,0,0,1,.043-1.387V94.15c.085.6.16,1.237.16,1.237l.1,2.176a9.38,9.38,0,0,0,.181,1.259c.075.117.437.224.437.224l.555-.352s.139-.107.277-.224Z" transform="translate(-220.121 -88.567)" fill="#ffdfd1"/>
              <path id="Trazado_188132" data-name="Trazado 188132" d="M226.852,117.848a.7.7,0,0,0,.384-.309.78.78,0,0,0,.021-.352,43.952,43.952,0,0,0-1.5-6.048c-.587-2.208-1.184-4.416-1.771-6.635.032.1.064.192.1.277-.213-.672-.416-1.344-.629-2.005a.5.5,0,0,0-.107-.213.516.516,0,0,0-.256-.117,3.971,3.971,0,0,0-.715-.1.43.43,0,0,0-.288.064.464.464,0,0,0-.139.309,11.308,11.308,0,0,0,0,2.816c.149,1.643.363,3.275.565,4.907a27.347,27.347,0,0,0,.523,3.083,27.515,27.515,0,0,1,.907,3.552c.064.544.139,1.227.8,1.237a5.01,5.01,0,0,0,2.112-.48Z" transform="translate(-220.319 -88.02)" fill="url(#linear-gradient-16)"/>
              <path id="Trazado_188133" data-name="Trazado 188133" d="M227.42,116.347a4.539,4.539,0,0,0-1.515-.427,1.5,1.5,0,0,0-1.365.651,1.811,1.811,0,0,0,.427,1.973,11.162,11.162,0,0,0,3.168,2.176c2.667,1.536,4.992,3.755,7.925,4.715a.358.358,0,0,0,.235.021.378.378,0,0,0,.181-.2,2.653,2.653,0,0,0,.117-1.771,17.155,17.155,0,0,0-.587-1.717,4.15,4.15,0,0,0-.693-1.451,2.851,2.851,0,0,0-.7-.533c-1.131-.661-2.421-1.013-3.552-1.675a12.069,12.069,0,0,0-1.525-.885c-.7-.288-1.408-.587-2.112-.875Z" transform="translate(-220.151 -87.116)" fill="url(#linear-gradient-17)"/>
              <path id="Trazado_188134" data-name="Trazado 188134" d="M237.283,128.266a.133.133,0,0,1-.128.085,8.366,8.366,0,0,1-2.731-1.376c-.352-.235-4.235-2.677-5.12-3.445s-3.179-2.539-3.467-2.795a19.178,19.178,0,0,1-2.443-1.931,13.15,13.15,0,0,1-.725-2.368c-.267-1.045-.875-4.875-1.013-6.059s-.256-3.787-.32-4.256c-.043-.341-.181-2.336-.256-3.552a2.5,2.5,0,0,1,.1.256,8.237,8.237,0,0,1,.352,2.048c.107,1.067.32,2.1.416,3.168s.2,2.155.331,3.221a41.876,41.876,0,0,0,1.152,6.293c.107.395.053.981.395,1.269v-.085c.149.48.789.875,1.205,1.088a9.427,9.427,0,0,1,1.376.971c.725.544,1.44,1.1,2.176,1.632.768.555,1.632,1.013,2.389,1.579.3.224.544.512.864.747.373.277.757.544,1.131.8.789.523,1.6,1.024,2.432,1.493a5.905,5.905,0,0,1,.981.629,2.942,2.942,0,0,0,.608.48,2.117,2.117,0,0,0,.277.1Z" transform="translate(-220.371 -88.006)" fill="#ffdfd1"/>
              <path id="Trazado_188135" data-name="Trazado 188135" d="M240.494,120.657c-.949.107-5.931-1.568-6.208-1.557s-1.088,2.9-1.173,3.883a19.12,19.12,0,0,0,.043,3.328c.1.331,4.7,3.2,5,3.488s2.795-1.675,3.125-4.32-.245-4.363-.8-4.821Z" transform="translate(-219.572 -86.904)" fill="#ff7f00"/>
            </g>
            <g id="Grupo_114958" data-name="Grupo 114958" transform="translate(20.128 67.876)">
              <path id="Trazado_188136" data-name="Trazado 188136" d="M286.541,155l-33.834,19.669a9.467,9.467,0,0,1-8.533,0l-28.8-16.629a3,3,0,0,1-1.771-2.485l-.053,40.2a3,3,0,0,0,1.771,2.485l28.8,16.629a9.467,9.467,0,0,0,8.533,0l33.834-19.669a3.012,3.012,0,0,0,1.749-2.453l.053-40.2A2.99,2.99,0,0,1,286.541,155Z" transform="translate(-213.55 -152.55)" fill="url(#linear-gradient-18)"/>
              <path id="Trazado_188137" data-name="Trazado 188137" d="M250.673,173.446a5.683,5.683,0,0,1-5.131,0l-28.074-16.213-1.888.885,28.448,16.426a9.467,9.467,0,0,0,8.533,0L285.5,155.4l-2.165-.939-32.672,18.986Z" transform="translate(-213.415 -152.423)" fill="#ffc91b"/>
            </g>
          </g>
        </g>
      </g>
    </g>
  </g>
</svg>
