<svg xmlns="http://www.w3.org/2000/svg" xmlns:xlink="http://www.w3.org/1999/xlink" width="738.988" height="259.221" viewBox="0 0 738.988 259.221">
  <defs>
    <filter id="Trazado_121018" x="0" y="161.467" width="189.898" height="97.03" filterUnits="userSpaceOnUse">
      <feOffset dx="5.81" dy="5.81" input="SourceAlpha"/>
      <feGaussianBlur stdDeviation="5.81" result="blur"/>
      <feFlood flood-opacity="0.302"/>
      <feComposite operator="in" in2="blur"/>
      <feComposite in="SourceGraphic"/>
    </filter>
    <filter id="Trazado_121021" x="183.026" y="162.046" width="189.898" height="97.03" filterUnits="userSpaceOnUse">
      <feOffset dx="5.81" dy="5.81" input="SourceAlpha"/>
      <feGaussianBlur stdDeviation="5.81" result="blur-2"/>
      <feFlood flood-opacity="0.302"/>
      <feComposite operator="in" in2="blur-2"/>
      <feComposite in="SourceGraphic"/>
    </filter>
    <filter id="Trazado_121024" x="366.056" y="162.19" width="189.898" height="97.03" filterUnits="userSpaceOnUse">
      <feOffset dx="5.81" dy="5.81" input="SourceAlpha"/>
      <feGaussianBlur stdDeviation="5.81" result="blur-3"/>
      <feFlood flood-opacity="0.302"/>
      <feComposite operator="in" in2="blur-3"/>
      <feComposite in="SourceGraphic"/>
    </filter>
    <filter id="Trazado_121027" x="549.09" y="162.191" width="189.898" height="97.03" filterUnits="userSpaceOnUse">
      <feOffset dx="5.81" dy="5.81" input="SourceAlpha"/>
      <feGaussianBlur stdDeviation="5.81" result="blur-4"/>
      <feFlood flood-opacity="0.302"/>
      <feComposite operator="in" in2="blur-4"/>
      <feComposite in="SourceGraphic"/>
    </filter>
  </defs>
  <g id="Grupo_132143" data-name="Grupo 132143" transform="translate(-700.282 -645)">
    <path id="Trazado_191833" data-name="Trazado 191833" d="M0,0H405.3" transform="translate(866.811 849.202)" fill="none" stroke="#12263f" stroke-width="2"/>
    <path id="Trazado_191834" data-name="Trazado 191834" d="M0,52.73V0" transform="translate(768.587 758.216)" fill="none" stroke="#12263f" stroke-width="1"/>
    <path id="Trazado_191835" data-name="Trazado 191835" d="M0,58.02V0" transform="translate(1335.697 758.216)" fill="none" stroke="#12263f" stroke-width="1"/>
    <path id="Trazado_191836" data-name="Trazado 191836" d="M567,0H0" transform="translate(769 759)" fill="none" stroke="#12263f" stroke-width="1"/>
    <g id="Grupo_113943" data-name="Grupo 113943" transform="translate(953.144 758.733)">
      <path id="Trazado_121029" data-name="Trazado 121029" d="M0,53.764V0" transform="translate(9.305 0.517)" fill="none" stroke="#12263f" stroke-width="1"/>
      <path id="Polígono_4" data-name="Polígono 4" d="M9.5,0,19,16H0Z" transform="translate(-0.144 0.268)" fill="#12263f"/>
      <path id="Polígono_5" data-name="Polígono 5" d="M9.5,0,19,17H0Z" transform="translate(18.856 56.268) rotate(180)" fill="#12263f"/>
    </g>
    <g id="Grupo_113944" data-name="Grupo 113944" transform="translate(1135.115 758.733)">
      <line id="Línea_322" data-name="Línea 322" y1="53.764" transform="translate(9.305 0.517)" fill="none" stroke="#12263f" stroke-width="1"/>
      <path id="Polígono_4-2" data-name="Polígono 4" d="M9.5,0,19,16H0Z" transform="translate(-0.115 0.268)" fill="#12263f"/>
      <path id="Polígono_5-2" data-name="Polígono 5" d="M9.5,0,19,17H0Z" transform="translate(18.885 56.268) rotate(180)" fill="#12263f"/>
    </g>
    <path id="Trazado_191837" data-name="Trazado 191837" d="M9.5,0,19,16H0Z" transform="translate(1326 759)" fill="#12263f"/>
    <path id="Trazado_191838" data-name="Trazado 191838" d="M9,0l9,17H0Z" transform="translate(777 814) rotate(180)" fill="#12263f"/>
    <g id="orientada" transform="translate(705 814.201)">
      <g id="Grupo_113939" data-name="Grupo 113939" transform="translate(0 0)">
        <path id="Trazado_121017" data-name="Trazado 121017" d="M155.82,27.37h4.415a5.679,5.679,0,0,1,5.676,5.676V52.96a5.679,5.679,0,0,1-5.676,5.676H155.82V27.37Z" transform="translate(-0.001 -8.027)" fill="#ffb30b"/>
        <rect id="Rectángulo_40492" data-name="Rectángulo 40492" width="69.842" height="122.469" rx="12.45" transform="translate(122.53 0.107) rotate(90.05)" fill="#ffb30b"/>
        <g transform="matrix(1, 0, 0, 1, -4.72, -169.2)" filter="url(#Trazado_121018)">
          <path id="Trazado_121018-2" data-name="Trazado 121018" d="M11.831,22.594c0-5.625,5.707-10.174,12.728-10.174l130.162.052c6.69,0,12.107,4.343,12.107,9.7L166.787,64.9c0,5.356-5.428,9.688-12.118,9.688L23.753,74.539c-6.617,0-11.973-4.291-11.963-9.585l.041-42.36Z" transform="translate(-0.17 160.67)" fill="#fff"/>
        </g>
        <path id="Trazado_121019" data-name="Trazado 121019" d="M18.042,36.73H9.46L5.18,42.675,9.46,48.62h8.582l4.291-5.945Z" transform="translate(-5.112 -7.709)" fill="#ffb30b"/>
      </g>
      <g id="Grupo_113940" data-name="Grupo 113940" transform="translate(183.043 0.578)">
        <path id="Trazado_121020" data-name="Trazado 121020" d="M332.84,27.93h4.415a5.679,5.679,0,0,1,5.676,5.676V53.52a5.679,5.679,0,0,1-5.676,5.676H332.84V27.93Z" transform="translate(-177.038 -8.586)" fill="#b9ddfc"/>
        <rect id="Rectángulo_40493" data-name="Rectángulo 40493" width="69.842" height="122.469" rx="12.45" transform="translate(122.53 0.107) rotate(90.05)" fill="#b9ddfc"/>
        <g transform="matrix(1, 0, 0, 1, -187.76, -169.78)" filter="url(#Trazado_121021)">
          <path id="Trazado_121021-2" data-name="Trazado 121021" d="M188.851,23.154c0-5.625,5.707-10.174,12.728-10.174l130.162.052c6.69,0,12.107,4.343,12.107,9.7l-.041,42.732c0,5.356-5.428,9.688-12.118,9.688L200.773,75.1c-6.617,0-11.973-4.291-11.963-9.585l.041-42.36Z" transform="translate(5.84 160.69)" fill="#fff"/>
        </g>
        <path id="Trazado_121022" data-name="Trazado 121022" d="M195.062,37.3h-8.571L182.2,43.245l4.291,5.945h8.571l4.291-5.945Z" transform="translate(-182.149 -8.268)" fill="#b9ddfc"/>
      </g>
      <g id="Grupo_113941" data-name="Grupo 113941" transform="translate(366.068 0.722)">
        <path id="Trazado_121023" data-name="Trazado 121023" d="M509.86,28.5h4.415a5.679,5.679,0,0,1,5.676,5.676V54.09a5.679,5.679,0,0,1-5.676,5.676H509.86V28.5h0Z" transform="translate(-354.064 -9.156)" fill="#00defc"/>
        <rect id="Rectángulo_40494" data-name="Rectángulo 40494" width="69.842" height="122.469" rx="12.45" transform="translate(122.53 0.107) rotate(90.05)" fill="#00defc"/>
        <g transform="matrix(1, 0, 0, 1, -370.79, -169.92)" filter="url(#Trazado_121024)">
          <path id="Trazado_121024-2" data-name="Trazado 121024" d="M365.881,23.724c0-5.625,5.707-10.174,12.728-10.174l130.161.052c6.69,0,12.107,4.343,12.107,9.7l-.041,42.732c0,5.356-5.428,9.688-12.118,9.688L377.8,75.669c-6.617,0-11.973-4.291-11.963-9.585l.041-42.36Z" transform="translate(11.84 160.26)" fill="#fff"/>
        </g>
        <path id="Trazado_121025" data-name="Trazado 121025" d="M372.082,37.87h-8.571l-4.291,5.945,4.291,5.935h8.571l4.291-5.935Z" transform="translate(-359.175 -8.838)" fill="#00defc"/>
      </g>
      <g id="Grupo_113942" data-name="Grupo 113942" transform="translate(549.108 0.722)">
        <path id="Trazado_121026" data-name="Trazado 121026" d="M686.89,29.07H691.3a5.679,5.679,0,0,1,5.676,5.676V54.66a5.679,5.679,0,0,1-5.676,5.676H686.89V29.07Z" transform="translate(-531.09 -9.725)" fill="#084a93"/>
        <rect id="Rectángulo_40495" data-name="Rectángulo 40495" width="69.842" height="122.469" rx="12.45" transform="translate(122.53 0.107) rotate(90.05)" fill="#084a93"/>
        <g transform="matrix(1, 0, 0, 1, -553.83, -169.92)" filter="url(#Trazado_121027)">
          <path id="Trazado_121027-2" data-name="Trazado 121027" d="M542.9,24.294c0-5.625,5.707-10.174,12.728-10.174l130.162.052c6.69,0,12.107,4.343,12.107,9.7L697.857,66.6c0,5.356-5.428,9.688-12.118,9.688l-130.916-.052c-6.617,0-11.973-4.291-11.963-9.585l.041-42.36Z" transform="translate(17.85 159.69)" fill="#fff"/>
        </g>
        <path id="Trazado_121028" data-name="Trazado 121028" d="M549.112,38.44h-8.582l-4.291,5.935,4.291,5.945h8.582l4.28-5.945Z" transform="translate(-536.201 -9.407)" fill="#084a93"/>
      </g>
    </g>
    <path id="Trazado_191839" data-name="Trazado 191839" d="M-30.215-1.992l3.25-9.383h1.641L-29.543,0h-1.328l-4.211-11.375h1.633ZM-22.457,0H-23.9V-8.453h1.445ZM-24.02-10.7a.863.863,0,0,1,.215-.594.807.807,0,0,1,.637-.242.819.819,0,0,1,.641.242.854.854,0,0,1,.219.594.826.826,0,0,1-.219.586.834.834,0,0,1-.641.234.821.821,0,0,1-.637-.234A.834.834,0,0,1-24.02-10.7ZM-16.637.156a3.693,3.693,0,0,1-2.8-1.129,4.19,4.19,0,0,1-1.078-3.02v-.266a5.073,5.073,0,0,1,.48-2.246,3.748,3.748,0,0,1,1.344-1.547,3.378,3.378,0,0,1,1.871-.559,3.166,3.166,0,0,1,2.563,1.086,4.7,4.7,0,0,1,.914,3.109v.6h-5.727a3,3,0,0,0,.73,2.02,2.3,2.3,0,0,0,1.777.77,2.517,2.517,0,0,0,1.3-.312,3.259,3.259,0,0,0,.93-.828l.883.688A3.55,3.55,0,0,1-16.637.156Zm-.18-7.578a1.928,1.928,0,0,0-1.469.637A3.1,3.1,0,0,0-19.02-5h4.234v-.109a2.753,2.753,0,0,0-.594-1.707A1.815,1.815,0,0,0-16.816-7.422Zm12.633,5.43,1.625-6.461h1.445L-3.574,0H-4.746L-6.8-6.406-8.8,0H-9.973l-2.453-8.453h1.438l1.664,6.328,1.969-6.328h1.164ZM7.5-4.133a5.062,5.062,0,0,1-.883,3.109A2.829,2.829,0,0,1,4.223.156,3.1,3.1,0,0,1,1.8-.82V3.25H.355v-11.7h1.32l.07.938A2.977,2.977,0,0,1,4.2-8.609a2.882,2.882,0,0,1,2.41,1.148,5.117,5.117,0,0,1,.887,3.2ZM6.051-4.3a3.735,3.735,0,0,0-.609-2.258A1.963,1.963,0,0,0,3.77-7.383,2.125,2.125,0,0,0,1.8-6.219V-2.18A2.129,2.129,0,0,0,3.785-1.023a1.954,1.954,0,0,0,1.652-.824A4.077,4.077,0,0,0,6.051-4.3Zm2.9-.008a4.993,4.993,0,0,1,.488-2.234A3.643,3.643,0,0,1,10.8-8.07a3.7,3.7,0,0,1,1.988-.539,3.565,3.565,0,0,1,2.793,1.2,4.6,4.6,0,0,1,1.066,3.18v.1a5.036,5.036,0,0,1-.473,2.215A3.589,3.589,0,0,1,14.82-.391,3.743,3.743,0,0,1,12.8.156a3.556,3.556,0,0,1-2.785-1.2A4.575,4.575,0,0,1,8.949-4.2Zm1.453.172a3.616,3.616,0,0,0,.652,2.258,2.088,2.088,0,0,0,1.746.852,2.075,2.075,0,0,0,1.75-.863A3.955,3.955,0,0,0,15.2-4.3a3.61,3.61,0,0,0-.66-2.254,2.1,2.1,0,0,0-1.754-.863,2.075,2.075,0,0,0-1.727.852A3.925,3.925,0,0,0,10.4-4.133ZM20.027,0H18.582V-8.453h1.445ZM18.465-10.7a.863.863,0,0,1,.215-.594.807.807,0,0,1,.637-.242.819.819,0,0,1,.641.242.854.854,0,0,1,.219.594.826.826,0,0,1-.219.586.834.834,0,0,1-.641.234.821.821,0,0,1-.637-.234A.834.834,0,0,1,18.465-10.7Zm5.242,2.242.047,1.063a3.08,3.08,0,0,1,2.531-1.219q2.68,0,2.7,3.023V0H27.543V-5.594a1.946,1.946,0,0,0-.418-1.352,1.675,1.675,0,0,0-1.277-.437,2.086,2.086,0,0,0-1.234.375,2.546,2.546,0,0,0-.828.984V0H22.34V-8.453ZM33.129-10.5v2.047h1.578v1.117H33.129v5.249a1.173,1.173,0,0,0,.211.763.888.888,0,0,0,.719.254,3.5,3.5,0,0,0,.688-.094V0a4.215,4.215,0,0,1-1.109.155A1.8,1.8,0,0,1,32.176-.43a2.517,2.517,0,0,1-.492-1.664V-7.336H30.145V-8.453h1.539V-10.5ZM-43.5,21h-1.445V12.547H-43.5Zm-1.562-10.7a.863.863,0,0,1,.215-.594.807.807,0,0,1,.637-.242.819.819,0,0,1,.641.242.854.854,0,0,1,.219.594.826.826,0,0,1-.219.586.834.834,0,0,1-.641.234.821.821,0,0,1-.637-.234A.834.834,0,0,1-45.059,10.3Zm3.523,6.4a4.952,4.952,0,0,1,.922-3.129A2.915,2.915,0,0,1-38.2,12.391a2.932,2.932,0,0,1,2.352,1.016V9H-34.4V21H-35.73l-.07-.906a2.943,2.943,0,0,1-2.414,1.063,2.887,2.887,0,0,1-2.395-1.2,5.008,5.008,0,0,1-.926-3.141Zm1.445.164a3.749,3.749,0,0,0,.594,2.25,1.92,1.92,0,0,0,1.641.813A2.108,2.108,0,0,0-35.848,18.7V14.813a2.125,2.125,0,0,0-1.992-1.2,1.929,1.929,0,0,0-1.656.82A4.128,4.128,0,0,0-40.09,16.867Zm11.438,4.289a3.693,3.693,0,0,1-2.8-1.129,4.19,4.19,0,0,1-1.078-3.02v-.266a5.073,5.073,0,0,1,.48-2.246A3.748,3.748,0,0,1-30.7,12.949a3.378,3.378,0,0,1,1.871-.559,3.166,3.166,0,0,1,2.563,1.086,4.7,4.7,0,0,1,.914,3.109v.6h-5.727a3,3,0,0,0,.73,2.02,2.3,2.3,0,0,0,1.777.77,2.517,2.517,0,0,0,1.3-.312,3.259,3.259,0,0,0,.93-.828l.883.688A3.55,3.55,0,0,1-28.652,21.156Zm-.18-7.578a1.928,1.928,0,0,0-1.469.637A3.1,3.1,0,0,0-31.035,16H-26.8v-.109a2.753,2.753,0,0,0-.594-1.707A1.815,1.815,0,0,0-28.832,13.578Zm6.516-1.031.047,1.063a3.08,3.08,0,0,1,2.531-1.219q2.68,0,2.7,3.023V21H-18.48V15.406a1.946,1.946,0,0,0-.418-1.352,1.675,1.675,0,0,0-1.277-.437,2.086,2.086,0,0,0-1.234.375,2.546,2.546,0,0,0-.828.984V21h-1.445V12.547Zm9.422-2.047v2.047h1.578v1.117h-1.578v5.249a1.173,1.173,0,0,0,.211.763.888.888,0,0,0,.719.254,3.5,3.5,0,0,0,.688-.094V21a4.215,4.215,0,0,1-1.109.155,1.8,1.8,0,0,1-1.461-.586,2.517,2.517,0,0,1-.492-1.664V13.664h-1.539V12.547h1.539V10.5ZM-8.059,21H-9.5V12.547h1.445ZM-9.621,10.3a.863.863,0,0,1,.215-.594.807.807,0,0,1,.637-.242.819.819,0,0,1,.641.242.854.854,0,0,1,.219.594.826.826,0,0,1-.219.586.834.834,0,0,1-.641.234.821.821,0,0,1-.637-.234A.834.834,0,0,1-9.621,10.3ZM-5.262,21V13.664H-6.6V12.547h1.336v-.719a2.937,2.937,0,0,1,.809-2.2,3.136,3.136,0,0,1,2.285-.789,6.881,6.881,0,0,1,2.211.477L-.2,10.531a5.008,5.008,0,0,0-1.859-.391,1.819,1.819,0,0,0-1.34.418,1.723,1.723,0,0,0-.41,1.254v.734h1.727v1.117H-3.809V21ZM.762,21H-.691V12.547H.762ZM6.5,19.977a2.082,2.082,0,0,0,1.352-.469A1.649,1.649,0,0,0,8.5,18.336H9.863a2.621,2.621,0,0,1-.5,1.383,3.293,3.293,0,0,1-1.23,1.047,3.55,3.55,0,0,1-1.629.391A3.482,3.482,0,0,1,3.758,20a4.59,4.59,0,0,1-1.02-3.152v-.242a5.089,5.089,0,0,1,.453-2.2,3.451,3.451,0,0,1,1.3-1.492,3.7,3.7,0,0,1,2-.531,3.39,3.39,0,0,1,2.363.852,3.043,3.043,0,0,1,1,2.211H8.5a1.992,1.992,0,0,0-.621-1.348A1.932,1.932,0,0,0,6.5,13.578a2.023,2.023,0,0,0-1.707.793,3.724,3.724,0,0,0-.605,2.293v.273a3.65,3.65,0,0,0,.6,2.25A2.033,2.033,0,0,0,6.5,19.977ZM16.707,21a3.036,3.036,0,0,1-.2-.891A3.225,3.225,0,0,1,14.1,21.156a2.984,2.984,0,0,1-2.051-.707,2.287,2.287,0,0,1-.8-1.793,2.39,2.39,0,0,1,1-2.051,4.733,4.733,0,0,1,2.824-.73H16.48v-.664A1.623,1.623,0,0,0,16.027,14a1.821,1.821,0,0,0-1.336-.449,2.107,2.107,0,0,0-1.3.391,1.151,1.151,0,0,0-.523.945H11.418a2,2,0,0,1,.449-1.223,3.066,3.066,0,0,1,1.219-.934,4.1,4.1,0,0,1,1.691-.344,3.342,3.342,0,0,1,2.289.73,2.635,2.635,0,0,1,.859,2.012v3.891a4.757,4.757,0,0,0,.3,1.852V21Zm-2.4-1.1a2.54,2.54,0,0,0,1.289-.352,2.127,2.127,0,0,0,.883-.914V16.9H15.348q-2.656,0-2.656,1.555a1.316,1.316,0,0,0,.453,1.063A1.742,1.742,0,0,0,14.309,19.9Zm7.844-9.4v2.047H23.73v1.117H22.152v5.249a1.173,1.173,0,0,0,.211.763.888.888,0,0,0,.719.254,3.5,3.5,0,0,0,.688-.094V21a4.215,4.215,0,0,1-1.109.155A1.8,1.8,0,0,1,21.2,20.57a2.517,2.517,0,0,1-.492-1.664V13.664H19.168V12.547h1.539V10.5ZM26.988,21H25.543V12.547h1.445ZM25.426,10.3a.863.863,0,0,1,.215-.594.807.807,0,0,1,.637-.242.819.819,0,0,1,.641.242.854.854,0,0,1,.219.594.826.826,0,0,1-.219.586.834.834,0,0,1-.641.234.821.821,0,0,1-.637-.234A.834.834,0,0,1,25.426,10.3ZM28.918,16.7a4.993,4.993,0,0,1,.488-2.234,3.643,3.643,0,0,1,1.359-1.531,3.7,3.7,0,0,1,1.988-.539,3.565,3.565,0,0,1,2.793,1.2,4.6,4.6,0,0,1,1.066,3.18v.1a5.036,5.036,0,0,1-.473,2.215,3.589,3.589,0,0,1-1.352,1.527,3.743,3.743,0,0,1-2.02.547,3.556,3.556,0,0,1-2.785-1.2A4.575,4.575,0,0,1,28.918,16.8Zm1.453.172a3.616,3.616,0,0,0,.652,2.258,2.211,2.211,0,0,0,3.5-.012,3.955,3.955,0,0,0,.648-2.418,3.61,3.61,0,0,0-.66-2.254,2.1,2.1,0,0,0-1.754-.863,2.075,2.075,0,0,0-1.727.852A3.925,3.925,0,0,0,30.371,16.867Zm9.422-4.32.047,1.063a3.08,3.08,0,0,1,2.531-1.219q2.68,0,2.7,3.023V21H43.629V15.406a1.946,1.946,0,0,0-.418-1.352,1.675,1.675,0,0,0-1.277-.437,2.086,2.086,0,0,0-1.234.375,2.546,2.546,0,0,0-.828.984V21H38.426V12.547Z" transform="translate(788 841)" fill="#12263f"/>
    <path id="Trazado_191840" data-name="Trazado 191840" d="M-30.215-1.992l3.25-9.383h1.641L-29.543,0h-1.328l-4.211-11.375h1.633ZM-22.457,0H-23.9V-8.453h1.445ZM-24.02-10.7a.863.863,0,0,1,.215-.594.807.807,0,0,1,.637-.242.819.819,0,0,1,.641.242.854.854,0,0,1,.219.594.826.826,0,0,1-.219.586.834.834,0,0,1-.641.234.821.821,0,0,1-.637-.234A.834.834,0,0,1-24.02-10.7ZM-16.637.156a3.693,3.693,0,0,1-2.8-1.129,4.19,4.19,0,0,1-1.078-3.02v-.266a5.073,5.073,0,0,1,.48-2.246,3.748,3.748,0,0,1,1.344-1.547,3.378,3.378,0,0,1,1.871-.559,3.166,3.166,0,0,1,2.563,1.086,4.7,4.7,0,0,1,.914,3.109v.6h-5.727a3,3,0,0,0,.73,2.02,2.3,2.3,0,0,0,1.777.77,2.517,2.517,0,0,0,1.3-.312,3.259,3.259,0,0,0,.93-.828l.883.688A3.55,3.55,0,0,1-16.637.156Zm-.18-7.578a1.928,1.928,0,0,0-1.469.637A3.1,3.1,0,0,0-19.02-5h4.234v-.109a2.753,2.753,0,0,0-.594-1.707A1.815,1.815,0,0,0-16.816-7.422Zm12.633,5.43,1.625-6.461h1.445L-3.574,0H-4.746L-6.8-6.406-8.8,0H-9.973l-2.453-8.453h1.438l1.664,6.328,1.969-6.328h1.164ZM7.5-4.133a5.062,5.062,0,0,1-.883,3.109A2.829,2.829,0,0,1,4.223.156,3.1,3.1,0,0,1,1.8-.82V3.25H.355v-11.7h1.32l.07.938A2.977,2.977,0,0,1,4.2-8.609a2.882,2.882,0,0,1,2.41,1.148,5.117,5.117,0,0,1,.887,3.2ZM6.051-4.3a3.735,3.735,0,0,0-.609-2.258A1.963,1.963,0,0,0,3.77-7.383,2.125,2.125,0,0,0,1.8-6.219V-2.18A2.129,2.129,0,0,0,3.785-1.023a1.954,1.954,0,0,0,1.652-.824A4.077,4.077,0,0,0,6.051-4.3Zm2.9-.008a4.993,4.993,0,0,1,.488-2.234A3.643,3.643,0,0,1,10.8-8.07a3.7,3.7,0,0,1,1.988-.539,3.565,3.565,0,0,1,2.793,1.2,4.6,4.6,0,0,1,1.066,3.18v.1a5.036,5.036,0,0,1-.473,2.215A3.589,3.589,0,0,1,14.82-.391,3.743,3.743,0,0,1,12.8.156a3.556,3.556,0,0,1-2.785-1.2A4.575,4.575,0,0,1,8.949-4.2Zm1.453.172a3.616,3.616,0,0,0,.652,2.258,2.088,2.088,0,0,0,1.746.852,2.075,2.075,0,0,0,1.75-.863A3.955,3.955,0,0,0,15.2-4.3a3.61,3.61,0,0,0-.66-2.254,2.1,2.1,0,0,0-1.754-.863,2.075,2.075,0,0,0-1.727.852A3.925,3.925,0,0,0,10.4-4.133ZM20.027,0H18.582V-8.453h1.445ZM18.465-10.7a.863.863,0,0,1,.215-.594.807.807,0,0,1,.637-.242.819.819,0,0,1,.641.242.854.854,0,0,1,.219.594.826.826,0,0,1-.219.586.834.834,0,0,1-.641.234.821.821,0,0,1-.637-.234A.834.834,0,0,1,18.465-10.7Zm5.242,2.242.047,1.063a3.08,3.08,0,0,1,2.531-1.219q2.68,0,2.7,3.023V0H27.543V-5.594a1.946,1.946,0,0,0-.418-1.352,1.675,1.675,0,0,0-1.277-.437,2.086,2.086,0,0,0-1.234.375,2.546,2.546,0,0,0-.828.984V0H22.34V-8.453ZM33.129-10.5v2.047h1.578v1.117H33.129v5.249a1.173,1.173,0,0,0,.211.763.888.888,0,0,0,.719.254,3.5,3.5,0,0,0,.688-.094V0a4.215,4.215,0,0,1-1.109.155A1.8,1.8,0,0,1,32.176-.43a2.517,2.517,0,0,1-.492-1.664V-7.336H30.145V-8.453h1.539V-10.5ZM-32.6,18.758a1.064,1.064,0,0,0-.441-.91,4.249,4.249,0,0,0-1.539-.559,7.277,7.277,0,0,1-1.742-.562,2.479,2.479,0,0,1-.953-.781,1.869,1.869,0,0,1-.309-1.078,2.193,2.193,0,0,1,.879-1.758,3.432,3.432,0,0,1,2.246-.719,3.532,3.532,0,0,1,2.332.742,2.357,2.357,0,0,1,.895,1.9h-1.453a1.3,1.3,0,0,0-.5-1.023,1.888,1.888,0,0,0-1.27-.43,1.976,1.976,0,0,0-1.234.344,1.082,1.082,0,0,0-.445.9.877.877,0,0,0,.414.789,5.1,5.1,0,0,0,1.5.508,7.8,7.8,0,0,1,1.754.578,2.558,2.558,0,0,1,1,.809,1.988,1.988,0,0,1,.324,1.152,2.163,2.163,0,0,1-.906,1.816,3.8,3.8,0,0,1-2.352.684,4.257,4.257,0,0,1-1.8-.359,2.922,2.922,0,0,1-1.223-1,2.42,2.42,0,0,1-.441-1.395h1.445a1.5,1.5,0,0,0,.582,1.152,2.258,2.258,0,0,0,1.434.426,2.331,2.331,0,0,0,1.316-.332A1.02,1.02,0,0,0-32.6,18.758Zm5.289-8.258v2.047h1.578v1.117h-1.578v5.249a1.173,1.173,0,0,0,.211.763.888.888,0,0,0,.719.254,3.5,3.5,0,0,0,.688-.094V21a4.215,4.215,0,0,1-1.109.155,1.8,1.8,0,0,1-1.461-.586,2.517,2.517,0,0,1-.492-1.664V13.664H-30.3V12.547h1.539V10.5Zm7.352,3.344a4.331,4.331,0,0,0-.711-.055A1.9,1.9,0,0,0-22.6,15v6h-1.445V12.547h1.406l.023.977A2.251,2.251,0,0,1-20.6,12.391a1.477,1.477,0,0,1,.641.109Zm6.547,6.32a3.07,3.07,0,0,1-2.477.992,2.628,2.628,0,0,1-2.059-.785,3.4,3.4,0,0,1-.715-2.324v-5.5h1.445v5.461q0,1.922,1.563,1.922a2.163,2.163,0,0,0,2.2-1.234V12.547h1.445V21h-1.375Zm6.992-.187a2.082,2.082,0,0,0,1.352-.469,1.649,1.649,0,0,0,.641-1.172h1.367a2.621,2.621,0,0,1-.5,1.383,3.293,3.293,0,0,1-1.23,1.047,3.55,3.55,0,0,1-1.629.391A3.482,3.482,0,0,1-9.168,20a4.59,4.59,0,0,1-1.02-3.152v-.242a5.089,5.089,0,0,1,.453-2.2,3.451,3.451,0,0,1,1.3-1.492,3.7,3.7,0,0,1,2-.531,3.39,3.39,0,0,1,2.363.852,3.043,3.043,0,0,1,1,2.211H-4.43a1.992,1.992,0,0,0-.621-1.348,1.932,1.932,0,0,0-1.379-.527,2.023,2.023,0,0,0-1.707.793,3.724,3.724,0,0,0-.605,2.293v.273a3.65,3.65,0,0,0,.6,2.25A2.033,2.033,0,0,0-6.422,19.977ZM.523,10.5v2.047H2.1v1.117H.523v5.249a1.173,1.173,0,0,0,.211.763.888.888,0,0,0,.719.254,3.5,3.5,0,0,0,.688-.094V21a4.215,4.215,0,0,1-1.109.155A1.8,1.8,0,0,1-.43,20.57a2.517,2.517,0,0,1-.492-1.664V13.664H-2.461V12.547H-.922V10.5Zm8.484,9.664a3.07,3.07,0,0,1-2.477.992,2.628,2.628,0,0,1-2.059-.785,3.4,3.4,0,0,1-.715-2.324v-5.5H5.2v5.461q0,1.922,1.563,1.922a2.163,2.163,0,0,0,2.2-1.234V12.547h1.445V21H9.039Zm7.688-6.32a4.331,4.331,0,0,0-.711-.055A1.9,1.9,0,0,0,14.055,15v6H12.609V12.547h1.406l.023.977a2.251,2.251,0,0,1,2.016-1.133,1.477,1.477,0,0,1,.641.109ZM19.594,21H18.148V12.547h1.445ZM18.031,10.3a.863.863,0,0,1,.215-.594.807.807,0,0,1,.637-.242.819.819,0,0,1,.641.242.854.854,0,0,1,.219.594.826.826,0,0,1-.219.586.834.834,0,0,1-.641.234.821.821,0,0,1-.637-.234A.834.834,0,0,1,18.031,10.3Zm5.242,2.242.047,1.063a3.08,3.08,0,0,1,2.531-1.219q2.68,0,2.7,3.023V21H27.109V15.406a1.946,1.946,0,0,0-.418-1.352,1.675,1.675,0,0,0-1.277-.437,2.086,2.086,0,0,0-1.234.375,2.546,2.546,0,0,0-.828.984V21H21.906V12.547ZM30.391,16.7a4.968,4.968,0,0,1,.914-3.145,3.151,3.151,0,0,1,4.836-.074l.07-.937h1.32V20.8a3.439,3.439,0,0,1-.973,2.586,3.589,3.589,0,0,1-2.613.945,4.348,4.348,0,0,1-1.789-.391,3.08,3.08,0,0,1-1.336-1.07L31.57,22a2.826,2.826,0,0,0,2.273,1.148,2.214,2.214,0,0,0,1.645-.594,2.269,2.269,0,0,0,.59-1.672v-.727a2.971,2.971,0,0,1-2.367,1,2.887,2.887,0,0,1-2.4-1.2A5.224,5.224,0,0,1,30.391,16.7Zm1.453.164a3.79,3.79,0,0,0,.586,2.246,1.9,1.9,0,0,0,1.641.816,2.117,2.117,0,0,0,2.008-1.242V14.828a2.142,2.142,0,0,0-1.992-1.211,1.921,1.921,0,0,0-1.648.82A4.128,4.128,0,0,0,31.844,16.867Z" transform="translate(968 841)" fill="#12263f"/>
    <path id="Trazado_191841" data-name="Trazado 191841" d="M-30.215-1.992l3.25-9.383h1.641L-29.543,0h-1.328l-4.211-11.375h1.633ZM-22.457,0H-23.9V-8.453h1.445ZM-24.02-10.7a.863.863,0,0,1,.215-.594.807.807,0,0,1,.637-.242.819.819,0,0,1,.641.242.854.854,0,0,1,.219.594.826.826,0,0,1-.219.586.834.834,0,0,1-.641.234.821.821,0,0,1-.637-.234A.834.834,0,0,1-24.02-10.7ZM-16.637.156a3.693,3.693,0,0,1-2.8-1.129,4.19,4.19,0,0,1-1.078-3.02v-.266a5.073,5.073,0,0,1,.48-2.246,3.748,3.748,0,0,1,1.344-1.547,3.378,3.378,0,0,1,1.871-.559,3.166,3.166,0,0,1,2.563,1.086,4.7,4.7,0,0,1,.914,3.109v.6h-5.727a3,3,0,0,0,.73,2.02,2.3,2.3,0,0,0,1.777.77,2.517,2.517,0,0,0,1.3-.312,3.259,3.259,0,0,0,.93-.828l.883.688A3.55,3.55,0,0,1-16.637.156Zm-.18-7.578a1.928,1.928,0,0,0-1.469.637A3.1,3.1,0,0,0-19.02-5h4.234v-.109a2.753,2.753,0,0,0-.594-1.707A1.815,1.815,0,0,0-16.816-7.422Zm12.633,5.43,1.625-6.461h1.445L-3.574,0H-4.746L-6.8-6.406-8.8,0H-9.973l-2.453-8.453h1.438l1.664,6.328,1.969-6.328h1.164ZM7.5-4.133a5.062,5.062,0,0,1-.883,3.109A2.829,2.829,0,0,1,4.223.156,3.1,3.1,0,0,1,1.8-.82V3.25H.355v-11.7h1.32l.07.938A2.977,2.977,0,0,1,4.2-8.609a2.882,2.882,0,0,1,2.41,1.148,5.117,5.117,0,0,1,.887,3.2ZM6.051-4.3a3.735,3.735,0,0,0-.609-2.258A1.963,1.963,0,0,0,3.77-7.383,2.125,2.125,0,0,0,1.8-6.219V-2.18A2.129,2.129,0,0,0,3.785-1.023a1.954,1.954,0,0,0,1.652-.824A4.077,4.077,0,0,0,6.051-4.3Zm2.9-.008a4.993,4.993,0,0,1,.488-2.234A3.643,3.643,0,0,1,10.8-8.07a3.7,3.7,0,0,1,1.988-.539,3.565,3.565,0,0,1,2.793,1.2,4.6,4.6,0,0,1,1.066,3.18v.1a5.036,5.036,0,0,1-.473,2.215A3.589,3.589,0,0,1,14.82-.391,3.743,3.743,0,0,1,12.8.156a3.556,3.556,0,0,1-2.785-1.2A4.575,4.575,0,0,1,8.949-4.2Zm1.453.172a3.616,3.616,0,0,0,.652,2.258,2.088,2.088,0,0,0,1.746.852,2.075,2.075,0,0,0,1.75-.863A3.955,3.955,0,0,0,15.2-4.3a3.61,3.61,0,0,0-.66-2.254,2.1,2.1,0,0,0-1.754-.863,2.075,2.075,0,0,0-1.727.852A3.925,3.925,0,0,0,10.4-4.133ZM20.027,0H18.582V-8.453h1.445ZM18.465-10.7a.863.863,0,0,1,.215-.594.807.807,0,0,1,.637-.242.819.819,0,0,1,.641.242.854.854,0,0,1,.219.594.826.826,0,0,1-.219.586.834.834,0,0,1-.641.234.821.821,0,0,1-.637-.234A.834.834,0,0,1,18.465-10.7Zm5.242,2.242.047,1.063a3.08,3.08,0,0,1,2.531-1.219q2.68,0,2.7,3.023V0H27.543V-5.594a1.946,1.946,0,0,0-.418-1.352,1.675,1.675,0,0,0-1.277-.437,2.086,2.086,0,0,0-1.234.375,2.546,2.546,0,0,0-.828.984V0H22.34V-8.453ZM33.129-10.5v2.047h1.578v1.117H33.129v5.249a1.173,1.173,0,0,0,.211.763.888.888,0,0,0,.719.254,3.5,3.5,0,0,0,.688-.094V0a4.215,4.215,0,0,1-1.109.155A1.8,1.8,0,0,1,32.176-.43a2.517,2.517,0,0,1-.492-1.664V-7.336H30.145V-8.453h1.539V-10.5ZM-53.09,16.7a4.952,4.952,0,0,1,.922-3.129,2.915,2.915,0,0,1,2.414-1.184A2.932,2.932,0,0,1-47.4,13.406V9h1.445V21h-1.328l-.07-.906a2.943,2.943,0,0,1-2.414,1.063,2.887,2.887,0,0,1-2.395-1.2,5.008,5.008,0,0,1-.926-3.141Zm1.445.164a3.749,3.749,0,0,0,.594,2.25,1.92,1.92,0,0,0,1.641.813A2.108,2.108,0,0,0-47.4,18.7V14.813a2.125,2.125,0,0,0-1.992-1.2,1.929,1.929,0,0,0-1.656.82A4.128,4.128,0,0,0-51.645,16.867ZM-44.1,16.7a4.993,4.993,0,0,1,.488-2.234A3.643,3.643,0,0,1-42.25,12.93a3.7,3.7,0,0,1,1.988-.539,3.565,3.565,0,0,1,2.793,1.2,4.6,4.6,0,0,1,1.066,3.18v.1a5.036,5.036,0,0,1-.473,2.215,3.589,3.589,0,0,1-1.352,1.527,3.743,3.743,0,0,1-2.02.547,3.556,3.556,0,0,1-2.785-1.2A4.575,4.575,0,0,1-44.1,16.8Zm1.453.172a3.616,3.616,0,0,0,.652,2.258,2.088,2.088,0,0,0,1.746.852,2.075,2.075,0,0,0,1.75-.863,3.955,3.955,0,0,0,.648-2.418,3.61,3.61,0,0,0-.66-2.254,2.1,2.1,0,0,0-1.754-.863,2.075,2.075,0,0,0-1.727.852A3.925,3.925,0,0,0-42.645,16.867ZM-31.2,19.977a2.082,2.082,0,0,0,1.352-.469,1.649,1.649,0,0,0,.641-1.172h1.367a2.621,2.621,0,0,1-.5,1.383,3.293,3.293,0,0,1-1.23,1.047,3.55,3.55,0,0,1-1.629.391A3.482,3.482,0,0,1-33.945,20a4.59,4.59,0,0,1-1.02-3.152v-.242a5.089,5.089,0,0,1,.453-2.2,3.451,3.451,0,0,1,1.3-1.492,3.7,3.7,0,0,1,2-.531,3.39,3.39,0,0,1,2.363.852,3.043,3.043,0,0,1,1,2.211h-1.367a1.992,1.992,0,0,0-.621-1.348,1.932,1.932,0,0,0-1.379-.527,2.023,2.023,0,0,0-1.707.793,3.724,3.724,0,0,0-.605,2.293v.273a3.65,3.65,0,0,0,.6,2.25A2.033,2.033,0,0,0-31.2,19.977Zm10.2.188a3.07,3.07,0,0,1-2.477.992,2.628,2.628,0,0,1-2.059-.785,3.4,3.4,0,0,1-.715-2.324v-5.5H-24.8v5.461q0,1.922,1.563,1.922a2.163,2.163,0,0,0,2.2-1.234V12.547h1.445V21h-1.375Zm4.961-7.617.039.938a3.122,3.122,0,0,1,2.508-1.094,2.417,2.417,0,0,1,2.414,1.359,3.2,3.2,0,0,1,1.1-.984,3.242,3.242,0,0,1,1.6-.375q2.781,0,2.828,2.945V21H-7V15.422a1.941,1.941,0,0,0-.414-1.355A1.823,1.823,0,0,0-8.8,13.617a1.916,1.916,0,0,0-1.336.48,1.949,1.949,0,0,0-.617,1.293V21h-1.453V15.461a1.613,1.613,0,0,0-1.8-1.844,1.934,1.934,0,0,0-1.945,1.211V21H-17.4V12.547ZM.137,21.156a3.693,3.693,0,0,1-2.8-1.129,4.19,4.19,0,0,1-1.078-3.02v-.266a5.073,5.073,0,0,1,.48-2.246,3.748,3.748,0,0,1,1.344-1.547,3.378,3.378,0,0,1,1.871-.559A3.166,3.166,0,0,1,2.52,13.477a4.7,4.7,0,0,1,.914,3.109v.6H-2.293a3,3,0,0,0,.73,2.02,2.3,2.3,0,0,0,1.777.77,2.517,2.517,0,0,0,1.3-.312,3.259,3.259,0,0,0,.93-.828l.883.688A3.55,3.55,0,0,1,.137,21.156Zm-.18-7.578a1.928,1.928,0,0,0-1.469.637A3.1,3.1,0,0,0-2.246,16H1.988v-.109a2.753,2.753,0,0,0-.594-1.707A1.815,1.815,0,0,0-.043,13.578Zm6.516-1.031.047,1.063a3.08,3.08,0,0,1,2.531-1.219q2.68,0,2.7,3.023V21H10.309V15.406a1.946,1.946,0,0,0-.418-1.352,1.675,1.675,0,0,0-1.277-.437,2.086,2.086,0,0,0-1.234.375,2.546,2.546,0,0,0-.828.984V21H5.105V12.547ZM15.895,10.5v2.047h1.578v1.117H15.895v5.249a1.173,1.173,0,0,0,.211.763.888.888,0,0,0,.719.254,3.5,3.5,0,0,0,.688-.094V21a4.215,4.215,0,0,1-1.109.155,1.8,1.8,0,0,1-1.461-.586,2.517,2.517,0,0,1-.492-1.664V13.664H12.91V12.547h1.539V10.5ZM24.379,21a3.036,3.036,0,0,1-.2-.891,3.225,3.225,0,0,1-2.406,1.047,2.984,2.984,0,0,1-2.051-.707,2.287,2.287,0,0,1-.8-1.793,2.39,2.39,0,0,1,1-2.051,4.733,4.733,0,0,1,2.824-.73h1.406v-.664A1.623,1.623,0,0,0,23.7,14a1.821,1.821,0,0,0-1.336-.449,2.107,2.107,0,0,0-1.3.391,1.151,1.151,0,0,0-.523.945H19.09a2,2,0,0,1,.449-1.223,3.066,3.066,0,0,1,1.219-.934,4.1,4.1,0,0,1,1.691-.344,3.342,3.342,0,0,1,2.289.73,2.635,2.635,0,0,1,.859,2.012v3.891a4.757,4.757,0,0,0,.3,1.852V21Zm-2.4-1.1a2.54,2.54,0,0,0,1.289-.352,2.127,2.127,0,0,0,.883-.914V16.9H23.02q-2.656,0-2.656,1.555a1.316,1.316,0,0,0,.453,1.063A1.742,1.742,0,0,0,21.98,19.9Zm7.844-9.4v2.047H31.4v1.117H29.824v5.249a1.173,1.173,0,0,0,.211.763.888.888,0,0,0,.719.254,3.5,3.5,0,0,0,.688-.094V21a4.215,4.215,0,0,1-1.109.155,1.8,1.8,0,0,1-1.461-.586,2.517,2.517,0,0,1-.492-1.664V13.664H26.84V12.547h1.539V10.5ZM34.66,21H33.215V12.547H34.66ZM33.1,10.3a.863.863,0,0,1,.215-.594.807.807,0,0,1,.637-.242.819.819,0,0,1,.641.242.854.854,0,0,1,.219.594.826.826,0,0,1-.219.586.834.834,0,0,1-.641.234.821.821,0,0,1-.637-.234A.834.834,0,0,1,33.1,10.3ZM36.59,16.7a4.993,4.993,0,0,1,.488-2.234,3.643,3.643,0,0,1,1.359-1.531,3.7,3.7,0,0,1,1.988-.539,3.565,3.565,0,0,1,2.793,1.2,4.6,4.6,0,0,1,1.066,3.18v.1a5.036,5.036,0,0,1-.473,2.215,3.589,3.589,0,0,1-1.352,1.527,3.743,3.743,0,0,1-2.02.547,3.556,3.556,0,0,1-2.785-1.2A4.575,4.575,0,0,1,36.59,16.8Zm1.453.172a3.616,3.616,0,0,0,.652,2.258,2.211,2.211,0,0,0,3.5-.012A3.955,3.955,0,0,0,42.84,16.7a3.61,3.61,0,0,0-.66-2.254,2.1,2.1,0,0,0-1.754-.863,2.075,2.075,0,0,0-1.727.852A3.925,3.925,0,0,0,38.043,16.867Zm9.422-4.32.047,1.063a3.08,3.08,0,0,1,2.531-1.219q2.68,0,2.7,3.023V21H51.3V15.406a1.946,1.946,0,0,0-.418-1.352,1.675,1.675,0,0,0-1.277-.437,2.086,2.086,0,0,0-1.234.375,2.546,2.546,0,0,0-.828.984V21H46.1V12.547Z" transform="translate(1152 841)" fill="#12263f"/>
    <path id="Trazado_191842" data-name="Trazado 191842" d="M-30.215-1.992l3.25-9.383h1.641L-29.543,0h-1.328l-4.211-11.375h1.633ZM-22.457,0H-23.9V-8.453h1.445ZM-24.02-10.7a.863.863,0,0,1,.215-.594.807.807,0,0,1,.637-.242.819.819,0,0,1,.641.242.854.854,0,0,1,.219.594.826.826,0,0,1-.219.586.834.834,0,0,1-.641.234.821.821,0,0,1-.637-.234A.834.834,0,0,1-24.02-10.7ZM-16.637.156a3.693,3.693,0,0,1-2.8-1.129,4.19,4.19,0,0,1-1.078-3.02v-.266a5.073,5.073,0,0,1,.48-2.246,3.748,3.748,0,0,1,1.344-1.547,3.378,3.378,0,0,1,1.871-.559,3.166,3.166,0,0,1,2.563,1.086,4.7,4.7,0,0,1,.914,3.109v.6h-5.727a3,3,0,0,0,.73,2.02,2.3,2.3,0,0,0,1.777.77,2.517,2.517,0,0,0,1.3-.312,3.259,3.259,0,0,0,.93-.828l.883.688A3.55,3.55,0,0,1-16.637.156Zm-.18-7.578a1.928,1.928,0,0,0-1.469.637A3.1,3.1,0,0,0-19.02-5h4.234v-.109a2.753,2.753,0,0,0-.594-1.707A1.815,1.815,0,0,0-16.816-7.422Zm12.633,5.43,1.625-6.461h1.445L-3.574,0H-4.746L-6.8-6.406-8.8,0H-9.973l-2.453-8.453h1.438l1.664,6.328,1.969-6.328h1.164ZM7.5-4.133a5.062,5.062,0,0,1-.883,3.109A2.829,2.829,0,0,1,4.223.156,3.1,3.1,0,0,1,1.8-.82V3.25H.355v-11.7h1.32l.07.938A2.977,2.977,0,0,1,4.2-8.609a2.882,2.882,0,0,1,2.41,1.148,5.117,5.117,0,0,1,.887,3.2ZM6.051-4.3a3.735,3.735,0,0,0-.609-2.258A1.963,1.963,0,0,0,3.77-7.383,2.125,2.125,0,0,0,1.8-6.219V-2.18A2.129,2.129,0,0,0,3.785-1.023a1.954,1.954,0,0,0,1.652-.824A4.077,4.077,0,0,0,6.051-4.3Zm2.9-.008a4.993,4.993,0,0,1,.488-2.234A3.643,3.643,0,0,1,10.8-8.07a3.7,3.7,0,0,1,1.988-.539,3.565,3.565,0,0,1,2.793,1.2,4.6,4.6,0,0,1,1.066,3.18v.1a5.036,5.036,0,0,1-.473,2.215A3.589,3.589,0,0,1,14.82-.391,3.743,3.743,0,0,1,12.8.156a3.556,3.556,0,0,1-2.785-1.2A4.575,4.575,0,0,1,8.949-4.2Zm1.453.172a3.616,3.616,0,0,0,.652,2.258,2.088,2.088,0,0,0,1.746.852,2.075,2.075,0,0,0,1.75-.863A3.955,3.955,0,0,0,15.2-4.3a3.61,3.61,0,0,0-.66-2.254,2.1,2.1,0,0,0-1.754-.863,2.075,2.075,0,0,0-1.727.852A3.925,3.925,0,0,0,10.4-4.133ZM20.027,0H18.582V-8.453h1.445ZM18.465-10.7a.863.863,0,0,1,.215-.594.807.807,0,0,1,.637-.242.819.819,0,0,1,.641.242.854.854,0,0,1,.219.594.826.826,0,0,1-.219.586.834.834,0,0,1-.641.234.821.821,0,0,1-.637-.234A.834.834,0,0,1,18.465-10.7Zm5.242,2.242.047,1.063a3.08,3.08,0,0,1,2.531-1.219q2.68,0,2.7,3.023V0H27.543V-5.594a1.946,1.946,0,0,0-.418-1.352,1.675,1.675,0,0,0-1.277-.437,2.086,2.086,0,0,0-1.234.375,2.546,2.546,0,0,0-.828.984V0H22.34V-8.453ZM33.129-10.5v2.047h1.578v1.117H33.129v5.249a1.173,1.173,0,0,0,.211.763.888.888,0,0,0,.719.254,3.5,3.5,0,0,0,.688-.094V0a4.215,4.215,0,0,1-1.109.155A1.8,1.8,0,0,1,32.176-.43a2.517,2.517,0,0,1-.492-1.664V-7.336H30.145V-8.453h1.539V-10.5ZM-53.047,18.758a1.064,1.064,0,0,0-.441-.91,4.249,4.249,0,0,0-1.539-.559,7.277,7.277,0,0,1-1.742-.562,2.479,2.479,0,0,1-.953-.781,1.869,1.869,0,0,1-.309-1.078,2.193,2.193,0,0,1,.879-1.758,3.432,3.432,0,0,1,2.246-.719,3.532,3.532,0,0,1,2.332.742,2.357,2.357,0,0,1,.895,1.9h-1.453a1.3,1.3,0,0,0-.5-1.023,1.888,1.888,0,0,0-1.27-.43,1.976,1.976,0,0,0-1.234.344,1.082,1.082,0,0,0-.445.9.877.877,0,0,0,.414.789,5.1,5.1,0,0,0,1.5.508,7.8,7.8,0,0,1,1.754.578,2.558,2.558,0,0,1,1,.809,1.988,1.988,0,0,1,.324,1.152,2.163,2.163,0,0,1-.906,1.816,3.8,3.8,0,0,1-2.352.684,4.257,4.257,0,0,1-1.8-.359,2.922,2.922,0,0,1-1.223-1A2.42,2.42,0,0,1-58.32,18.4h1.445a1.5,1.5,0,0,0,.582,1.152,2.258,2.258,0,0,0,1.434.426,2.331,2.331,0,0,0,1.316-.332A1.02,1.02,0,0,0-53.047,18.758Zm6.094.125,1.969-6.336h1.547l-3.4,9.758q-.789,2.109-2.508,2.109l-.273-.023-.539-.1V23.117l.391.031a1.923,1.923,0,0,0,1.145-.3,2.148,2.148,0,0,0,.676-1.086l.32-.859-3.016-8.359h1.578Zm9.727-.125a1.064,1.064,0,0,0-.441-.91,4.249,4.249,0,0,0-1.539-.559,7.277,7.277,0,0,1-1.742-.562,2.479,2.479,0,0,1-.953-.781,1.869,1.869,0,0,1-.309-1.078,2.193,2.193,0,0,1,.879-1.758,3.432,3.432,0,0,1,2.246-.719,3.532,3.532,0,0,1,2.332.742,2.357,2.357,0,0,1,.895,1.9h-1.453a1.3,1.3,0,0,0-.5-1.023,1.888,1.888,0,0,0-1.27-.43,1.976,1.976,0,0,0-1.234.344,1.082,1.082,0,0,0-.445.9.877.877,0,0,0,.414.789,5.1,5.1,0,0,0,1.5.508A7.8,7.8,0,0,1-37.1,16.7a2.558,2.558,0,0,1,1,.809,1.988,1.988,0,0,1,.324,1.152,2.163,2.163,0,0,1-.906,1.816,3.8,3.8,0,0,1-2.352.684,4.257,4.257,0,0,1-1.8-.359,2.922,2.922,0,0,1-1.223-1A2.42,2.42,0,0,1-42.5,18.4h1.445a1.5,1.5,0,0,0,.582,1.152,2.258,2.258,0,0,0,1.434.426,2.331,2.331,0,0,0,1.316-.332A1.02,1.02,0,0,0-37.227,18.758Zm5.289-8.258v2.047h1.578v1.117h-1.578v5.249a1.173,1.173,0,0,0,.211.763.888.888,0,0,0,.719.254,3.5,3.5,0,0,0,.688-.094V21a4.215,4.215,0,0,1-1.109.155,1.8,1.8,0,0,1-1.461-.586,2.517,2.517,0,0,1-.492-1.664V13.664h-1.539V12.547h1.539V10.5Zm6.773,10.656a3.693,3.693,0,0,1-2.8-1.129,4.19,4.19,0,0,1-1.078-3.02v-.266a5.073,5.073,0,0,1,.48-2.246,3.748,3.748,0,0,1,1.344-1.547,3.378,3.378,0,0,1,1.871-.559,3.166,3.166,0,0,1,2.563,1.086,4.7,4.7,0,0,1,.914,3.109v.6h-5.727a3,3,0,0,0,.73,2.02,2.3,2.3,0,0,0,1.777.77,2.517,2.517,0,0,0,1.3-.312,3.259,3.259,0,0,0,.93-.828l.883.688A3.55,3.55,0,0,1-25.164,21.156Zm-.18-7.578a1.928,1.928,0,0,0-1.469.637A3.1,3.1,0,0,0-27.547,16h4.234v-.109a2.753,2.753,0,0,0-.594-1.707A1.815,1.815,0,0,0-25.344,13.578Zm6.508-1.031.039.938a3.122,3.122,0,0,1,2.508-1.094,2.417,2.417,0,0,1,2.414,1.359,3.2,3.2,0,0,1,1.1-.984,3.242,3.242,0,0,1,1.6-.375q2.781,0,2.828,2.945V21H-9.8V15.422a1.941,1.941,0,0,0-.414-1.355,1.823,1.823,0,0,0-1.391-.449,1.916,1.916,0,0,0-1.336.48,1.949,1.949,0,0,0-.617,1.293V21h-1.453V15.461a1.613,1.613,0,0,0-1.8-1.844,1.934,1.934,0,0,0-1.945,1.211V21H-20.2V12.547Zm17.984,0,.039.938A3.122,3.122,0,0,1,1.7,12.391,2.417,2.417,0,0,1,4.109,13.75a3.2,3.2,0,0,1,1.1-.984,3.242,3.242,0,0,1,1.6-.375q2.781,0,2.828,2.945V21H8.188V15.422a1.941,1.941,0,0,0-.414-1.355,1.823,1.823,0,0,0-1.391-.449,1.916,1.916,0,0,0-1.336.48,1.949,1.949,0,0,0-.617,1.293V21H2.977V15.461a1.613,1.613,0,0,0-1.8-1.844A1.934,1.934,0,0,0-.773,14.828V21H-2.219V12.547ZM17.031,21a3.036,3.036,0,0,1-.2-.891,3.225,3.225,0,0,1-2.406,1.047,2.984,2.984,0,0,1-2.051-.707,2.287,2.287,0,0,1-.8-1.793,2.39,2.39,0,0,1,1-2.051,4.733,4.733,0,0,1,2.824-.73H16.8v-.664A1.623,1.623,0,0,0,16.352,14a1.821,1.821,0,0,0-1.336-.449,2.107,2.107,0,0,0-1.3.391,1.151,1.151,0,0,0-.523.945H11.742a2,2,0,0,1,.449-1.223,3.066,3.066,0,0,1,1.219-.934,4.1,4.1,0,0,1,1.691-.344,3.342,3.342,0,0,1,2.289.73,2.635,2.635,0,0,1,.859,2.012v3.891a4.757,4.757,0,0,0,.3,1.852V21Zm-2.4-1.1a2.54,2.54,0,0,0,1.289-.352,2.127,2.127,0,0,0,.883-.914V16.9H15.672q-2.656,0-2.656,1.555a1.316,1.316,0,0,0,.453,1.063A1.742,1.742,0,0,0,14.633,19.9Zm13.023-3.031a5.062,5.062,0,0,1-.883,3.109,2.829,2.829,0,0,1-2.391,1.18,3.1,3.1,0,0,1-2.422-.977v4.07H20.516v-11.7h1.32l.07.938a2.977,2.977,0,0,1,2.453-1.094,2.882,2.882,0,0,1,2.41,1.148,5.117,5.117,0,0,1,.887,3.2ZM26.211,16.7a3.735,3.735,0,0,0-.609-2.258,1.963,1.963,0,0,0-1.672-.828,2.125,2.125,0,0,0-1.969,1.164V18.82a2.129,2.129,0,0,0,1.984,1.156,1.954,1.954,0,0,0,1.652-.824A4.077,4.077,0,0,0,26.211,16.7Zm10.422.164a5.062,5.062,0,0,1-.883,3.109,2.829,2.829,0,0,1-2.391,1.18,3.1,3.1,0,0,1-2.422-.977v4.07H29.492v-11.7h1.32l.07.938a2.977,2.977,0,0,1,2.453-1.094,2.882,2.882,0,0,1,2.41,1.148,5.117,5.117,0,0,1,.887,3.2ZM35.188,16.7a3.735,3.735,0,0,0-.609-2.258,1.963,1.963,0,0,0-1.672-.828,2.125,2.125,0,0,0-1.969,1.164V18.82a2.129,2.129,0,0,0,1.984,1.156,1.954,1.954,0,0,0,1.652-.824A4.077,4.077,0,0,0,35.188,16.7ZM40.039,21H38.594V12.547h1.445ZM38.477,10.3a.863.863,0,0,1,.215-.594.807.807,0,0,1,.637-.242.819.819,0,0,1,.641.242.854.854,0,0,1,.219.594.826.826,0,0,1-.219.586.834.834,0,0,1-.641.234.821.821,0,0,1-.637-.234A.834.834,0,0,1,38.477,10.3Zm5.242,2.242.047,1.063A3.08,3.08,0,0,1,46.3,12.391q2.68,0,2.7,3.023V21H47.555V15.406a1.946,1.946,0,0,0-.418-1.352,1.675,1.675,0,0,0-1.277-.437,2.086,2.086,0,0,0-1.234.375,2.546,2.546,0,0,0-.828.984V21H42.352V12.547ZM50.836,16.7a4.968,4.968,0,0,1,.914-3.145,3.151,3.151,0,0,1,4.836-.074l.07-.937h1.32V20.8A3.439,3.439,0,0,1,57,23.383a3.589,3.589,0,0,1-2.613.945,4.348,4.348,0,0,1-1.789-.391,3.08,3.08,0,0,1-1.336-1.07l.75-.867a2.826,2.826,0,0,0,2.273,1.148,2.214,2.214,0,0,0,1.645-.594,2.269,2.269,0,0,0,.59-1.672v-.727a2.971,2.971,0,0,1-2.367,1,2.887,2.887,0,0,1-2.4-1.2A5.224,5.224,0,0,1,50.836,16.7Zm1.453.164a3.79,3.79,0,0,0,.586,2.246,1.9,1.9,0,0,0,1.641.816,2.117,2.117,0,0,0,2.008-1.242V14.828a2.142,2.142,0,0,0-1.992-1.211,1.921,1.921,0,0,0-1.648.82A4.128,4.128,0,0,0,52.289,16.867Z" transform="translate(1338 841)" fill="#12263f"/>
    <path id="Trazado_191843" data-name="Trazado 191843" d="M14.035,3.625l3.719,9.281,3.719-9.281h1.945V15h-1.5V10.57l.141-4.781L18.324,15H17.176L13.449,5.813,13.6,10.57V15H12.1V3.625ZM29.348,15.156a3.693,3.693,0,0,1-2.8-1.129,4.19,4.19,0,0,1-1.078-3.02v-.266a5.073,5.073,0,0,1,.48-2.246A3.748,3.748,0,0,1,27.3,6.949a3.378,3.378,0,0,1,1.871-.559A3.166,3.166,0,0,1,31.73,7.477a4.7,4.7,0,0,1,.914,3.109v.6H26.918a3,3,0,0,0,.73,2.02,2.3,2.3,0,0,0,1.777.77,2.517,2.517,0,0,0,1.3-.312,3.259,3.259,0,0,0,.93-.828l.883.688A3.55,3.55,0,0,1,29.348,15.156Zm-.18-7.578a1.928,1.928,0,0,0-1.469.637A3.1,3.1,0,0,0,26.965,10H31.2V9.891a2.753,2.753,0,0,0-.594-1.707A1.815,1.815,0,0,0,29.168,7.578Zm.7-4.562h1.75l-2.094,2.3-1.164,0ZM36.277,4.5V6.547h1.578V7.664H36.277v5.249a1.173,1.173,0,0,0,.211.763.888.888,0,0,0,.719.254,3.5,3.5,0,0,0,.688-.094V15a4.215,4.215,0,0,1-1.109.155,1.8,1.8,0,0,1-1.461-.586,2.517,2.517,0,0,1-.492-1.664V7.664H33.293V6.547h1.539V4.5ZM39,10.7a4.993,4.993,0,0,1,.488-2.234A3.643,3.643,0,0,1,40.852,6.93a3.7,3.7,0,0,1,1.988-.539,3.565,3.565,0,0,1,2.793,1.2,4.6,4.6,0,0,1,1.066,3.18v.1a5.036,5.036,0,0,1-.473,2.215,3.589,3.589,0,0,1-1.352,1.527,3.743,3.743,0,0,1-2.02.547,3.556,3.556,0,0,1-2.785-1.2A4.575,4.575,0,0,1,39,10.8Zm1.453.172a3.616,3.616,0,0,0,.652,2.258,2.211,2.211,0,0,0,3.5-.012,3.955,3.955,0,0,0,.648-2.418,3.61,3.61,0,0,0-.66-2.254,2.1,2.1,0,0,0-1.754-.863,2.075,2.075,0,0,0-1.727.852A3.925,3.925,0,0,0,40.457,10.867Zm7.7-.164a4.952,4.952,0,0,1,.922-3.129,3.137,3.137,0,0,1,4.766-.168V3h1.445V15H53.965l-.07-.906a2.943,2.943,0,0,1-2.414,1.063,2.887,2.887,0,0,1-2.395-1.2,5.008,5.008,0,0,1-.926-3.141Zm1.445.164a3.749,3.749,0,0,0,.594,2.25,1.92,1.92,0,0,0,1.641.813A2.108,2.108,0,0,0,53.848,12.7V8.813a2.125,2.125,0,0,0-1.992-1.2,1.929,1.929,0,0,0-1.656.82A4.128,4.128,0,0,0,49.605,10.867Zm7.547-.172a4.993,4.993,0,0,1,.488-2.234A3.643,3.643,0,0,1,59,6.93a3.7,3.7,0,0,1,1.988-.539,3.565,3.565,0,0,1,2.793,1.2,4.6,4.6,0,0,1,1.066,3.18v.1a5.036,5.036,0,0,1-.473,2.215,3.589,3.589,0,0,1-1.352,1.527,3.743,3.743,0,0,1-2.02.547,3.556,3.556,0,0,1-2.785-1.2A4.575,4.575,0,0,1,57.152,10.8Zm1.453.172a3.616,3.616,0,0,0,.652,2.258,2.211,2.211,0,0,0,3.5-.012A3.955,3.955,0,0,0,63.4,10.7a3.61,3.61,0,0,0-.66-2.254,2.1,2.1,0,0,0-1.754-.863,2.075,2.075,0,0,0-1.727.852A3.925,3.925,0,0,0,58.605,10.867Zm16.008,2.141,3.25-9.383H79.5L75.285,15H73.957L69.746,3.625h1.633ZM89.676,9.68a7.037,7.037,0,0,1-.562,2.918,4.261,4.261,0,0,1-1.594,1.9,4.4,4.4,0,0,1-6.4-1.887,6.752,6.752,0,0,1-.59-2.832v-.82a6.953,6.953,0,0,1,.57-2.9,4.218,4.218,0,0,1,4-2.594,4.41,4.41,0,0,1,2.41.66,4.253,4.253,0,0,1,1.605,1.914,7.071,7.071,0,0,1,.563,2.918Zm-1.492-.734a5.1,5.1,0,0,0-.812-3.105A2.68,2.68,0,0,0,85.1,4.758,2.651,2.651,0,0,0,82.859,5.84a5,5,0,0,0-.84,3V9.68a5.107,5.107,0,0,0,.824,3.082,2.888,2.888,0,0,0,4.52.063,5.079,5.079,0,0,0,.82-3.035ZM96.1,10.4H93.426V15H91.918V3.625h3.766a4.457,4.457,0,0,1,2.957.875,3.148,3.148,0,0,1,1.035,2.547A3.062,3.062,0,0,1,99.1,8.9a3.428,3.428,0,0,1-1.6,1.18l2.672,4.828V15H98.566ZM93.426,9.172h2.3a2.6,2.6,0,0,0,1.777-.579,1.959,1.959,0,0,0,.66-1.55,2.062,2.062,0,0,0-.629-1.62,2.663,2.663,0,0,0-1.816-.571h-2.3ZM101.777,15V3.625h3.211a5.169,5.169,0,0,1,2.625.656,4.438,4.438,0,0,1,1.762,1.867A6.078,6.078,0,0,1,110,8.93v.727a6.1,6.1,0,0,1-.621,2.82,4.369,4.369,0,0,1-1.773,1.859,5.5,5.5,0,0,1-2.684.664Zm1.5-10.148v8.922h1.578a3.434,3.434,0,0,0,2.7-1.079,4.458,4.458,0,0,0,.965-3.073V8.957a4.529,4.529,0,0,0-.91-3.014,3.239,3.239,0,0,0-2.582-1.091Zm12.672,5.531a12.079,12.079,0,0,1,.473-3.391,9.849,9.849,0,0,1,1.41-2.953,6,6,0,0,1,1.945-1.875l.3.953A6.222,6.222,0,0,0,118.2,5.789a11.583,11.583,0,0,0-.8,4.023l-.008.664a11.643,11.643,0,0,0,1.1,5.234,6.252,6.252,0,0,0,1.578,2.078l-.3.883a6.192,6.192,0,0,1-1.984-1.937A10.859,10.859,0,0,1,115.949,10.383Zm5.172.32a4.952,4.952,0,0,1,.922-3.129,3.137,3.137,0,0,1,4.766-.168V3h1.445V15h-1.328l-.07-.906a2.943,2.943,0,0,1-2.414,1.063,2.887,2.887,0,0,1-2.395-1.2,5.008,5.008,0,0,1-.926-3.141Zm1.445.164a3.749,3.749,0,0,0,.594,2.25,1.92,1.92,0,0,0,1.641.813,2.108,2.108,0,0,0,2.008-1.234V8.813a2.125,2.125,0,0,0-1.992-1.2,1.929,1.929,0,0,0-1.656.82A4.128,4.128,0,0,0,122.566,10.867ZM134,15.156a3.693,3.693,0,0,1-2.8-1.129,4.19,4.19,0,0,1-1.078-3.02v-.266a5.073,5.073,0,0,1,.48-2.246,3.748,3.748,0,0,1,1.344-1.547,3.378,3.378,0,0,1,1.871-.559,3.166,3.166,0,0,1,2.563,1.086,4.7,4.7,0,0,1,.914,3.109v.6h-5.727a3,3,0,0,0,.73,2.02,2.3,2.3,0,0,0,1.777.77,2.517,2.517,0,0,0,1.3-.312,3.258,3.258,0,0,0,.93-.828l.883.688A3.55,3.55,0,0,1,134,15.156Zm-.18-7.578a1.928,1.928,0,0,0-1.469.637A3.1,3.1,0,0,0,131.621,10h4.234V9.891a2.753,2.753,0,0,0-.594-1.707A1.815,1.815,0,0,0,133.824,7.578ZM139.457,15V7.664h-1.336V6.547h1.336V5.828a2.937,2.937,0,0,1,.809-2.2,3.136,3.136,0,0,1,2.285-.789,6.881,6.881,0,0,1,2.211.477l-.242,1.219a5.008,5.008,0,0,0-1.859-.391,1.819,1.819,0,0,0-1.34.418,1.723,1.723,0,0,0-.41,1.254v.734h1.727V7.664H140.91V15Zm6.023,0h-1.453V6.547h1.453ZM149.2,6.547l.047,1.063a3.08,3.08,0,0,1,2.531-1.219q2.68,0,2.7,3.023V15h-1.445V9.406a1.946,1.946,0,0,0-.418-1.352,1.675,1.675,0,0,0-1.277-.437,2.086,2.086,0,0,0-1.234.375,2.546,2.546,0,0,0-.828.984V15h-1.445V6.547ZM158.23,15h-1.445V6.547h1.445ZM156.668,4.3a.863.863,0,0,1,.215-.594.807.807,0,0,1,.637-.242.819.819,0,0,1,.641.242.854.854,0,0,1,.219.594.826.826,0,0,1-.219.586.834.834,0,0,1-.641.234.821.821,0,0,1-.637-.234A.834.834,0,0,1,156.668,4.3Zm7.266,9.672a2.082,2.082,0,0,0,1.352-.469,1.649,1.649,0,0,0,.641-1.172h1.367a2.621,2.621,0,0,1-.5,1.383,3.293,3.293,0,0,1-1.23,1.047,3.55,3.55,0,0,1-1.629.391A3.482,3.482,0,0,1,161.188,14a4.59,4.59,0,0,1-1.02-3.152v-.242a5.089,5.089,0,0,1,.453-2.2,3.451,3.451,0,0,1,1.3-1.492,3.7,3.7,0,0,1,2-.531,3.39,3.39,0,0,1,2.363.852,3.043,3.043,0,0,1,1,2.211h-1.367a1.992,1.992,0,0,0-.621-1.348,1.932,1.932,0,0,0-1.379-.527,2.023,2.023,0,0,0-1.707.793,3.724,3.724,0,0,0-.605,2.293v.273a3.65,3.65,0,0,0,.6,2.25A2.033,2.033,0,0,0,163.934,13.977ZM170.488,15h-1.445V6.547h1.445ZM168.926,4.3a.863.863,0,0,1,.215-.594.807.807,0,0,1,.637-.242.819.819,0,0,1,.641.242.854.854,0,0,1,.219.594.826.826,0,0,1-.219.586.834.834,0,0,1-.641.234.821.821,0,0,1-.637-.234A.834.834,0,0,1,168.926,4.3Zm3.492,6.391a4.993,4.993,0,0,1,.488-2.234,3.642,3.642,0,0,1,1.359-1.531,3.7,3.7,0,0,1,1.988-.539,3.565,3.565,0,0,1,2.793,1.2,4.6,4.6,0,0,1,1.066,3.18v.1a5.036,5.036,0,0,1-.473,2.215,3.589,3.589,0,0,1-1.352,1.527,3.743,3.743,0,0,1-2.02.547,3.556,3.556,0,0,1-2.785-1.2,4.575,4.575,0,0,1-1.066-3.164Zm1.453.172a3.616,3.616,0,0,0,.652,2.258,2.211,2.211,0,0,0,3.5-.012,3.954,3.954,0,0,0,.648-2.418,3.61,3.61,0,0,0-.66-2.254,2.1,2.1,0,0,0-1.754-.863,2.075,2.075,0,0,0-1.727.852A3.925,3.925,0,0,0,173.871,10.867Zm3.039-7.852h1.75l-2.094,2.3-1.164,0Zm6.383,3.531.047,1.063a3.08,3.08,0,0,1,2.531-1.219q2.68,0,2.7,3.023V15h-1.445V9.406a1.946,1.946,0,0,0-.418-1.352,1.675,1.675,0,0,0-1.277-.437,2.086,2.086,0,0,0-1.234.375,2.546,2.546,0,0,0-.828.984V15h-1.445V6.547Zm11.07,4.156a4.952,4.952,0,0,1,.922-3.129,3.137,3.137,0,0,1,4.766-.168V3H201.5V15h-1.328l-.07-.906a2.943,2.943,0,0,1-2.414,1.063,2.887,2.887,0,0,1-2.395-1.2,5.008,5.008,0,0,1-.926-3.141Zm1.445.164a3.749,3.749,0,0,0,.594,2.25,1.919,1.919,0,0,0,1.641.813,2.108,2.108,0,0,0,2.008-1.234V8.813a2.125,2.125,0,0,0-1.992-1.2,1.929,1.929,0,0,0-1.656.82A4.128,4.128,0,0,0,195.809,10.867Zm11.438,4.289a3.693,3.693,0,0,1-2.8-1.129,4.19,4.19,0,0,1-1.078-3.02v-.266a5.073,5.073,0,0,1,.48-2.246A3.748,3.748,0,0,1,205.2,6.949a3.378,3.378,0,0,1,1.871-.559,3.166,3.166,0,0,1,2.563,1.086,4.7,4.7,0,0,1,.914,3.109v.6h-5.727a3,3,0,0,0,.73,2.02,2.3,2.3,0,0,0,1.777.77,2.517,2.517,0,0,0,1.3-.312,3.258,3.258,0,0,0,.93-.828l.883.688A3.55,3.55,0,0,1,207.246,15.156Zm-.18-7.578a1.928,1.928,0,0,0-1.469.637A3.1,3.1,0,0,0,204.863,10H209.1V9.891a2.753,2.753,0,0,0-.594-1.707A1.815,1.815,0,0,0,207.066,7.578Zm13.2.266a4.331,4.331,0,0,0-.711-.055A1.9,1.9,0,0,0,217.621,9v6h-1.445V6.547h1.406l.023.977a2.251,2.251,0,0,1,2.016-1.133,1.477,1.477,0,0,1,.641.109Zm4.688,7.313a3.693,3.693,0,0,1-2.8-1.129,4.19,4.19,0,0,1-1.078-3.02v-.266a5.073,5.073,0,0,1,.48-2.246A3.748,3.748,0,0,1,222.9,6.949a3.378,3.378,0,0,1,1.871-.559,3.166,3.166,0,0,1,2.563,1.086,4.7,4.7,0,0,1,.914,3.109v.6H222.52a3,3,0,0,0,.73,2.02,2.3,2.3,0,0,0,1.777.77,2.517,2.517,0,0,0,1.3-.312,3.258,3.258,0,0,0,.93-.828l.883.688A3.55,3.55,0,0,1,224.949,15.156Zm-.18-7.578a1.928,1.928,0,0,0-1.469.637A3.1,3.1,0,0,0,222.566,10H226.8V9.891a2.753,2.753,0,0,0-.594-1.707A1.815,1.815,0,0,0,224.77,7.578Zm4.8,3.125a4.961,4.961,0,0,1,.914-3.152A3.226,3.226,0,0,1,235.3,7.4l.063-.852h1.328v11.7h-1.445V14.219a3.033,3.033,0,0,1-2.328.938,2.915,2.915,0,0,1-2.441-1.191,5.072,5.072,0,0,1-.91-3.16Zm1.445.164a3.761,3.761,0,0,0,.613,2.281,1.951,1.951,0,0,0,1.652.828,2.164,2.164,0,0,0,1.969-1.141V8.7a2.171,2.171,0,0,0-1.953-1.117,1.965,1.965,0,0,0-1.664.832A4.094,4.094,0,0,0,231.012,10.867Zm13.219,3.3a3.07,3.07,0,0,1-2.477.992,2.628,2.628,0,0,1-2.059-.785,3.4,3.4,0,0,1-.715-2.324v-5.5h1.445v5.461q0,1.922,1.563,1.922a2.163,2.163,0,0,0,2.2-1.234V6.547h1.445V15h-1.375Zm7.109.992a3.693,3.693,0,0,1-2.8-1.129,4.19,4.19,0,0,1-1.078-3.02v-.266a5.073,5.073,0,0,1,.48-2.246,3.748,3.748,0,0,1,1.344-1.547,3.378,3.378,0,0,1,1.871-.559,3.166,3.166,0,0,1,2.563,1.086,4.7,4.7,0,0,1,.914,3.109v.6H248.91a3,3,0,0,0,.73,2.02,2.3,2.3,0,0,0,1.777.77,2.517,2.517,0,0,0,1.3-.312,3.258,3.258,0,0,0,.93-.828l.883.688A3.55,3.55,0,0,1,251.34,15.156Zm-.18-7.578a1.928,1.928,0,0,0-1.469.637A3.1,3.1,0,0,0,248.957,10h4.234V9.891a2.753,2.753,0,0,0-.594-1.707A1.815,1.815,0,0,0,251.16,7.578Zm9.234.266a4.331,4.331,0,0,0-.711-.055A1.9,1.9,0,0,0,257.754,9v6h-1.445V6.547h1.406l.023.977a2.251,2.251,0,0,1,2.016-1.133,1.477,1.477,0,0,1,.641.109Zm2.9,7.156h-1.445V6.547h1.445ZM261.73,4.3a.863.863,0,0,1,.215-.594.807.807,0,0,1,.637-.242.819.819,0,0,1,.641.242.854.854,0,0,1,.219.594.826.826,0,0,1-.219.586.834.834,0,0,1-.641.234.821.821,0,0,1-.637-.234A.834.834,0,0,1,261.73,4.3Zm5.234,2.242.039.938a3.122,3.122,0,0,1,2.508-1.094,2.417,2.417,0,0,1,2.414,1.359,3.2,3.2,0,0,1,1.1-.984,3.242,3.242,0,0,1,1.6-.375q2.781,0,2.828,2.945V15H276V9.422a1.941,1.941,0,0,0-.414-1.355,1.823,1.823,0,0,0-1.391-.449,1.916,1.916,0,0,0-1.336.48,1.949,1.949,0,0,0-.617,1.293V15h-1.453V9.461a1.613,1.613,0,0,0-1.8-1.844,1.934,1.934,0,0,0-1.945,1.211V15H265.6V6.547ZM281.2,15h-1.445V6.547H281.2ZM279.637,4.3a.863.863,0,0,1,.215-.594.807.807,0,0,1,.637-.242.819.819,0,0,1,.641.242.854.854,0,0,1,.219.594.826.826,0,0,1-.219.586.834.834,0,0,1-.641.234.821.821,0,0,1-.637-.234A.834.834,0,0,1,279.637,4.3Zm7.383,10.852a3.693,3.693,0,0,1-2.8-1.129,4.19,4.19,0,0,1-1.078-3.02v-.266a5.073,5.073,0,0,1,.48-2.246,3.748,3.748,0,0,1,1.344-1.547,3.378,3.378,0,0,1,1.871-.559A3.166,3.166,0,0,1,289.4,7.477a4.7,4.7,0,0,1,.914,3.109v.6H284.59a3,3,0,0,0,.73,2.02,2.3,2.3,0,0,0,1.777.77,2.517,2.517,0,0,0,1.3-.312,3.259,3.259,0,0,0,.93-.828l.883.688A3.55,3.55,0,0,1,287.02,15.156Zm-.18-7.578a1.928,1.928,0,0,0-1.469.637A3.1,3.1,0,0,0,284.637,10h4.234V9.891a2.753,2.753,0,0,0-.594-1.707A1.815,1.815,0,0,0,286.84,7.578Zm6.516-1.031.047,1.063a3.08,3.08,0,0,1,2.531-1.219q2.68,0,2.7,3.023V15h-1.445V9.406a1.946,1.946,0,0,0-.418-1.352,1.675,1.675,0,0,0-1.277-.437,2.086,2.086,0,0,0-1.234.375,2.546,2.546,0,0,0-.828.984V15h-1.445V6.547ZM302.777,4.5V6.547h1.578V7.664h-1.578v5.249a1.173,1.173,0,0,0,.211.763.888.888,0,0,0,.719.254,3.5,3.5,0,0,0,.688-.094V15a4.215,4.215,0,0,1-1.109.155,1.8,1.8,0,0,1-1.461-.586,2.517,2.517,0,0,1-.492-1.664V7.664h-1.539V6.547h1.539V4.5Zm2.727,6.2a4.993,4.993,0,0,1,.488-2.234,3.643,3.643,0,0,1,1.359-1.531,3.7,3.7,0,0,1,1.988-.539,3.565,3.565,0,0,1,2.793,1.2,4.6,4.6,0,0,1,1.066,3.18v.1a5.036,5.036,0,0,1-.473,2.215,3.589,3.589,0,0,1-1.352,1.527,3.743,3.743,0,0,1-2.02.547,3.556,3.556,0,0,1-2.785-1.2A4.575,4.575,0,0,1,305.5,10.8Zm1.453.172a3.616,3.616,0,0,0,.652,2.258,2.211,2.211,0,0,0,3.5-.012,3.955,3.955,0,0,0,.648-2.418,3.61,3.61,0,0,0-.66-2.254,2.1,2.1,0,0,0-1.754-.863,2.075,2.075,0,0,0-1.727.852A3.925,3.925,0,0,0,306.957,10.867Zm12.977,1.891a1.064,1.064,0,0,0-.441-.91,4.249,4.249,0,0,0-1.539-.559,7.276,7.276,0,0,1-1.742-.562,2.478,2.478,0,0,1-.953-.781,1.869,1.869,0,0,1-.309-1.078,2.193,2.193,0,0,1,.879-1.758,3.432,3.432,0,0,1,2.246-.719,3.532,3.532,0,0,1,2.332.742,2.357,2.357,0,0,1,.895,1.9h-1.453a1.3,1.3,0,0,0-.5-1.023,1.888,1.888,0,0,0-1.27-.43,1.976,1.976,0,0,0-1.234.344,1.082,1.082,0,0,0-.445.9.877.877,0,0,0,.414.789,5.1,5.1,0,0,0,1.5.508,7.8,7.8,0,0,1,1.754.578,2.559,2.559,0,0,1,1,.809,1.988,1.988,0,0,1,.324,1.152,2.163,2.163,0,0,1-.906,1.816,3.8,3.8,0,0,1-2.352.684,4.257,4.257,0,0,1-1.8-.359,2.922,2.922,0,0,1-1.223-1,2.42,2.42,0,0,1-.441-1.395h1.445a1.5,1.5,0,0,0,.582,1.152,2.258,2.258,0,0,0,1.434.426,2.331,2.331,0,0,0,1.316-.332A1.02,1.02,0,0,0,319.934,12.758ZM326.84,10.7a4.993,4.993,0,0,1,.488-2.234,3.643,3.643,0,0,1,1.359-1.531,3.7,3.7,0,0,1,1.988-.539,3.565,3.565,0,0,1,2.793,1.2,4.6,4.6,0,0,1,1.066,3.18v.1a5.036,5.036,0,0,1-.473,2.215,3.589,3.589,0,0,1-1.352,1.527,3.743,3.743,0,0,1-2.02.547,3.556,3.556,0,0,1-2.785-1.2A4.575,4.575,0,0,1,326.84,10.8Zm1.453.172a3.616,3.616,0,0,0,.652,2.258,2.211,2.211,0,0,0,3.5-.012,3.955,3.955,0,0,0,.648-2.418,3.61,3.61,0,0,0-.66-2.254,2.1,2.1,0,0,0-1.754-.863,2.075,2.075,0,0,0-1.727.852A3.925,3.925,0,0,0,328.293,10.867Zm12.141-3.023a4.331,4.331,0,0,0-.711-.055A1.9,1.9,0,0,0,337.793,9v6h-1.445V6.547h1.406l.023.977a2.251,2.251,0,0,1,2.016-1.133,1.477,1.477,0,0,1,.641.109Zm2.9,7.156h-1.445V6.547h1.445ZM341.77,4.3a.863.863,0,0,1,.215-.594.807.807,0,0,1,.637-.242.819.819,0,0,1,.641.242.854.854,0,0,1,.219.594.826.826,0,0,1-.219.586.834.834,0,0,1-.641.234.821.821,0,0,1-.637-.234A.834.834,0,0,1,341.77,4.3Zm7.383,10.852a3.693,3.693,0,0,1-2.8-1.129,4.19,4.19,0,0,1-1.078-3.02v-.266a5.073,5.073,0,0,1,.48-2.246A3.748,3.748,0,0,1,347.1,6.949a3.378,3.378,0,0,1,1.871-.559,3.166,3.166,0,0,1,2.563,1.086,4.7,4.7,0,0,1,.914,3.109v.6h-5.727a3,3,0,0,0,.73,2.02,2.3,2.3,0,0,0,1.777.77,2.517,2.517,0,0,0,1.3-.312,3.259,3.259,0,0,0,.93-.828l.883.688A3.55,3.55,0,0,1,349.152,15.156Zm-.18-7.578a1.928,1.928,0,0,0-1.469.637A3.1,3.1,0,0,0,346.77,10H351V9.891a2.753,2.753,0,0,0-.594-1.707A1.815,1.815,0,0,0,348.973,7.578Zm6.516-1.031.047,1.063a3.08,3.08,0,0,1,2.531-1.219q2.68,0,2.7,3.023V15h-1.445V9.406a1.946,1.946,0,0,0-.418-1.352,1.675,1.675,0,0,0-1.277-.437,2.086,2.086,0,0,0-1.234.375,2.546,2.546,0,0,0-.828.984V15h-1.445V6.547ZM364.91,4.5V6.547h1.578V7.664H364.91v5.249a1.173,1.173,0,0,0,.211.763.888.888,0,0,0,.719.254,3.5,3.5,0,0,0,.688-.094V15a4.215,4.215,0,0,1-1.109.155,1.8,1.8,0,0,1-1.461-.586,2.517,2.517,0,0,1-.492-1.664V7.664h-1.539V6.547h1.539V4.5ZM373.395,15a3.036,3.036,0,0,1-.2-.891,3.225,3.225,0,0,1-2.406,1.047,2.984,2.984,0,0,1-2.051-.707,2.288,2.288,0,0,1-.8-1.793,2.39,2.39,0,0,1,1-2.051,4.733,4.733,0,0,1,2.824-.73h1.406V9.211A1.623,1.623,0,0,0,372.715,8a1.821,1.821,0,0,0-1.336-.449,2.108,2.108,0,0,0-1.3.391,1.151,1.151,0,0,0-.523.945h-1.453a2,2,0,0,1,.449-1.223,3.066,3.066,0,0,1,1.219-.934,4.1,4.1,0,0,1,1.691-.344,3.342,3.342,0,0,1,2.289.73,2.635,2.635,0,0,1,.859,2.012v3.891a4.757,4.757,0,0,0,.3,1.852V15ZM371,13.9a2.54,2.54,0,0,0,1.289-.352,2.126,2.126,0,0,0,.883-.914V10.9h-1.133q-2.656,0-2.656,1.555a1.316,1.316,0,0,0,.453,1.063A1.742,1.742,0,0,0,371,13.9Zm5.531-3.2a4.952,4.952,0,0,1,.922-3.129,3.137,3.137,0,0,1,4.766-.168V3h1.445V15h-1.328l-.07-.906a2.943,2.943,0,0,1-2.414,1.063,2.887,2.887,0,0,1-2.395-1.2,5.008,5.008,0,0,1-.926-3.141Zm1.445.164a3.749,3.749,0,0,0,.594,2.25,1.92,1.92,0,0,0,1.641.813,2.109,2.109,0,0,0,2.008-1.234V8.813a2.125,2.125,0,0,0-1.992-1.2,1.929,1.929,0,0,0-1.656.82A4.128,4.128,0,0,0,377.973,10.867Zm7.547-.172a4.993,4.993,0,0,1,.488-2.234,3.643,3.643,0,0,1,1.359-1.531,3.7,3.7,0,0,1,1.988-.539,3.565,3.565,0,0,1,2.793,1.2,4.6,4.6,0,0,1,1.066,3.18v.1a5.036,5.036,0,0,1-.473,2.215,3.589,3.589,0,0,1-1.352,1.527,3.743,3.743,0,0,1-2.02.547,3.556,3.556,0,0,1-2.785-1.2A4.575,4.575,0,0,1,385.52,10.8Zm1.453.172a3.616,3.616,0,0,0,.652,2.258,2.211,2.211,0,0,0,3.5-.012,3.955,3.955,0,0,0,.648-2.418,3.61,3.61,0,0,0-.66-2.254,2.1,2.1,0,0,0-1.754-.863,2.075,2.075,0,0,0-1.727.852A3.925,3.925,0,0,0,386.973,10.867Zm12.977,1.891a1.064,1.064,0,0,0-.441-.91,4.249,4.249,0,0,0-1.539-.559,7.276,7.276,0,0,1-1.742-.562,2.478,2.478,0,0,1-.953-.781,1.869,1.869,0,0,1-.309-1.078,2.193,2.193,0,0,1,.879-1.758,3.432,3.432,0,0,1,2.246-.719,3.532,3.532,0,0,1,2.332.742,2.357,2.357,0,0,1,.895,1.9h-1.453a1.3,1.3,0,0,0-.5-1.023,1.888,1.888,0,0,0-1.27-.43,1.976,1.976,0,0,0-1.234.344,1.082,1.082,0,0,0-.445.9.877.877,0,0,0,.414.789,5.1,5.1,0,0,0,1.5.508,7.8,7.8,0,0,1,1.754.578,2.559,2.559,0,0,1,1,.809,1.988,1.988,0,0,1,.324,1.152,2.163,2.163,0,0,1-.906,1.816,3.8,3.8,0,0,1-2.352.684,4.257,4.257,0,0,1-1.8-.359,2.922,2.922,0,0,1-1.223-1,2.42,2.42,0,0,1-.441-1.395h1.445a1.5,1.5,0,0,0,.582,1.152,2.258,2.258,0,0,0,1.434.426,2.331,2.331,0,0,0,1.316-.332A1.02,1.02,0,0,0,399.949,12.758ZM412.457,15a3.036,3.036,0,0,1-.2-.891,3.225,3.225,0,0,1-2.406,1.047,2.984,2.984,0,0,1-2.051-.707,2.288,2.288,0,0,1-.8-1.793,2.39,2.39,0,0,1,1-2.051,4.733,4.733,0,0,1,2.824-.73h1.406V9.211A1.623,1.623,0,0,0,411.777,8a1.821,1.821,0,0,0-1.336-.449,2.108,2.108,0,0,0-1.3.391,1.151,1.151,0,0,0-.523.945h-1.453a2,2,0,0,1,.449-1.223,3.066,3.066,0,0,1,1.219-.934,4.1,4.1,0,0,1,1.691-.344,3.342,3.342,0,0,1,2.289.73,2.635,2.635,0,0,1,.859,2.012v3.891a4.757,4.757,0,0,0,.3,1.852V15Zm-2.4-1.1a2.54,2.54,0,0,0,1.289-.352,2.126,2.126,0,0,0,.883-.914V10.9H411.1q-2.656,0-2.656,1.555a1.316,1.316,0,0,0,.453,1.063A1.742,1.742,0,0,0,410.059,13.9Zm16.984-3.031a5.062,5.062,0,0,1-.883,3.109,2.829,2.829,0,0,1-2.391,1.18,3.1,3.1,0,0,1-2.422-.977v4.07H419.9V6.547h1.32l.07.938a2.977,2.977,0,0,1,2.453-1.094,2.882,2.882,0,0,1,2.41,1.148,5.117,5.117,0,0,1,.887,3.2ZM425.6,10.7a3.735,3.735,0,0,0-.609-2.258,1.963,1.963,0,0,0-1.672-.828,2.125,2.125,0,0,0-1.969,1.164V12.82a2.129,2.129,0,0,0,1.984,1.156,1.954,1.954,0,0,0,1.652-.824A4.077,4.077,0,0,0,425.6,10.7Zm8.5,3.461a3.07,3.07,0,0,1-2.477.992,2.628,2.628,0,0,1-2.059-.785,3.4,3.4,0,0,1-.715-2.324v-5.5h1.445v5.461q0,1.922,1.563,1.922a2.163,2.163,0,0,0,2.2-1.234V6.547H435.5V15h-1.375Zm4.969-7.617.047,1.063a3.08,3.08,0,0,1,2.531-1.219q2.68,0,2.7,3.023V15H442.9V9.406a1.946,1.946,0,0,0-.418-1.352,1.675,1.675,0,0,0-1.277-.437,2.086,2.086,0,0,0-1.234.375,2.546,2.546,0,0,0-.828.984V15H437.7V6.547ZM448.488,4.5V6.547h1.578V7.664h-1.578v5.249a1.173,1.173,0,0,0,.211.763.888.888,0,0,0,.719.254,3.5,3.5,0,0,0,.688-.094V15a4.215,4.215,0,0,1-1.109.155,1.8,1.8,0,0,1-1.461-.586,2.517,2.517,0,0,1-.492-1.664V7.664H445.5V6.547h1.539V4.5Zm2.727,6.2a4.993,4.993,0,0,1,.488-2.234,3.643,3.643,0,0,1,1.359-1.531,3.7,3.7,0,0,1,1.988-.539,3.565,3.565,0,0,1,2.793,1.2,4.6,4.6,0,0,1,1.066,3.18v.1a5.036,5.036,0,0,1-.473,2.215,3.589,3.589,0,0,1-1.352,1.527,3.743,3.743,0,0,1-2.02.547,3.556,3.556,0,0,1-2.785-1.2,4.575,4.575,0,0,1-1.066-3.164Zm1.453.172a3.616,3.616,0,0,0,.652,2.258,2.211,2.211,0,0,0,3.5-.012,3.955,3.955,0,0,0,.648-2.418,3.61,3.61,0,0,0-.66-2.254,2.1,2.1,0,0,0-1.754-.863,2.075,2.075,0,0,0-1.727.852A3.925,3.925,0,0,0,452.668,10.867Zm12.977,1.891a1.064,1.064,0,0,0-.441-.91,4.249,4.249,0,0,0-1.539-.559,7.276,7.276,0,0,1-1.742-.562,2.478,2.478,0,0,1-.953-.781,1.869,1.869,0,0,1-.309-1.078,2.193,2.193,0,0,1,.879-1.758,3.432,3.432,0,0,1,2.246-.719,3.532,3.532,0,0,1,2.332.742,2.357,2.357,0,0,1,.895,1.9h-1.453a1.3,1.3,0,0,0-.5-1.023,1.888,1.888,0,0,0-1.27-.43,1.976,1.976,0,0,0-1.234.344,1.082,1.082,0,0,0-.445.9.877.877,0,0,0,.414.789,5.1,5.1,0,0,0,1.5.508,7.8,7.8,0,0,1,1.754.578,2.559,2.559,0,0,1,1,.809,1.988,1.988,0,0,1,.324,1.152,2.163,2.163,0,0,1-.906,1.816,3.8,3.8,0,0,1-2.352.684,4.257,4.257,0,0,1-1.8-.359,2.922,2.922,0,0,1-1.223-1,2.42,2.42,0,0,1-.441-1.395h1.445a1.5,1.5,0,0,0,.582,1.152,2.258,2.258,0,0,0,1.434.426,2.331,2.331,0,0,0,1.316-.332A1.02,1.02,0,0,0,465.645,12.758Zm6.938-2.055a4.952,4.952,0,0,1,.922-3.129,3.137,3.137,0,0,1,4.766-.168V3h1.445V15h-1.328l-.07-.906a2.943,2.943,0,0,1-2.414,1.063,2.887,2.887,0,0,1-2.395-1.2,5.008,5.008,0,0,1-.926-3.141Zm1.445.164a3.749,3.749,0,0,0,.594,2.25,1.92,1.92,0,0,0,1.641.813A2.109,2.109,0,0,0,478.27,12.7V8.813a2.125,2.125,0,0,0-1.992-1.2,1.929,1.929,0,0,0-1.656.82A4.128,4.128,0,0,0,474.027,10.867Zm11.438,4.289a3.693,3.693,0,0,1-2.8-1.129,4.19,4.19,0,0,1-1.078-3.02v-.266a5.073,5.073,0,0,1,.48-2.246,3.748,3.748,0,0,1,1.344-1.547,3.378,3.378,0,0,1,1.871-.559,3.166,3.166,0,0,1,2.563,1.086,4.7,4.7,0,0,1,.914,3.109v.6h-5.727a3,3,0,0,0,.73,2.02,2.3,2.3,0,0,0,1.777.77,2.517,2.517,0,0,0,1.3-.312,3.259,3.259,0,0,0,.93-.828l.883.688A3.55,3.55,0,0,1,485.465,15.156Zm-.18-7.578a1.928,1.928,0,0,0-1.469.637A3.1,3.1,0,0,0,483.082,10h4.234V9.891a2.753,2.753,0,0,0-.594-1.707A1.815,1.815,0,0,0,485.285,7.578Zm11.9,5.461,2.094-6.492h1.477L497.723,15h-1.1l-3.062-8.453h1.477ZM503.715,15H502.27V6.547h1.445ZM502.152,4.3a.863.863,0,0,1,.215-.594A.807.807,0,0,1,503,3.469a.819.819,0,0,1,.641.242.854.854,0,0,1,.219.594.826.826,0,0,1-.219.586.834.834,0,0,1-.641.234.821.821,0,0,1-.637-.234A.834.834,0,0,1,502.152,4.3Zm3.523,6.4a4.952,4.952,0,0,1,.922-3.129,3.137,3.137,0,0,1,4.766-.168V3h1.445V15H511.48l-.07-.906A2.943,2.943,0,0,1,509,15.156a2.887,2.887,0,0,1-2.395-1.2,5.008,5.008,0,0,1-.926-3.141Zm1.445.164a3.749,3.749,0,0,0,.594,2.25,1.92,1.92,0,0,0,1.641.813,2.109,2.109,0,0,0,2.008-1.234V8.813a2.125,2.125,0,0,0-1.992-1.2,1.929,1.929,0,0,0-1.656.82A4.128,4.128,0,0,0,507.121,10.867ZM520.27,15a3.036,3.036,0,0,1-.2-.891,3.225,3.225,0,0,1-2.406,1.047,2.984,2.984,0,0,1-2.051-.707,2.287,2.287,0,0,1-.8-1.793,2.39,2.39,0,0,1,1-2.051,4.733,4.733,0,0,1,2.824-.73h1.406V9.211A1.623,1.623,0,0,0,519.59,8a1.821,1.821,0,0,0-1.336-.449,2.107,2.107,0,0,0-1.3.391,1.151,1.151,0,0,0-.523.945H514.98a1.994,1.994,0,0,1,.449-1.223,3.066,3.066,0,0,1,1.219-.934,4.1,4.1,0,0,1,1.691-.344,3.342,3.342,0,0,1,2.289.73,2.635,2.635,0,0,1,.859,2.012v3.891a4.756,4.756,0,0,0,.3,1.852V15Zm-2.4-1.1a2.54,2.54,0,0,0,1.289-.352,2.127,2.127,0,0,0,.883-.914V10.9H518.91q-2.656,0-2.656,1.555a1.316,1.316,0,0,0,.453,1.063A1.742,1.742,0,0,0,517.871,13.9Zm9.219-3.437a12.084,12.084,0,0,1-.457,3.34,9.875,9.875,0,0,1-1.4,2.949,6.127,6.127,0,0,1-1.973,1.922l-.3-.883a6.281,6.281,0,0,0,1.934-2.863,12.387,12.387,0,0,0,.746-4.309v-.25a12.86,12.86,0,0,0-.344-3.051,10.3,10.3,0,0,0-.957-2.527,5.838,5.838,0,0,0-1.379-1.742l.3-.883a6.1,6.1,0,0,1,1.965,1.906,9.9,9.9,0,0,1,1.4,2.945A12.364,12.364,0,0,1,527.09,10.461Z" transform="translate(777 703)" fill="#12263f"/>
    <path id="Trazado_191844" data-name="Trazado 191844" d="M20,0H380a20,20,0,0,1,20,20V32a20,20,0,0,1-20,20H20A20,20,0,0,1,0,32V20A20,20,0,0,1,20,0Z" transform="translate(850 645)" fill="#636363"/>
    <path id="Trazado_191845" data-name="Trazado 191845" d="M-143.171-8.861a10.9,10.9,0,0,1-1,4.786,7.412,7.412,0,0,1-2.85,3.206A7.936,7.936,0,0,1-151.233.254a8.048,8.048,0,0,1-4.189-1.085,7.4,7.4,0,0,1-2.85-3.1,10.587,10.587,0,0,1-1.073-4.634V-9.61a10.948,10.948,0,0,1,1-4.792,7.394,7.394,0,0,1,2.856-3.206,7.991,7.991,0,0,1,4.234-1.13,7.914,7.914,0,0,1,4.189,1.117,7.527,7.527,0,0,1,2.863,3.18,10.634,10.634,0,0,1,1.035,4.729Zm-4.532-.774a7.773,7.773,0,0,0-.92-4.183,2.952,2.952,0,0,0-2.634-1.428q-3.352,0-3.542,5.027l-.013,1.358a7.994,7.994,0,0,0,.9,4.177,2.948,2.948,0,0,0,2.679,1.46,2.912,2.912,0,0,0,2.6-1.435,7.776,7.776,0,0,0,.927-4.126Zm14.942-.229-1.409-.1q-2.019,0-2.59,1.27V0h-4.278V-13.736h4.012l.14,1.765a3.313,3.313,0,0,1,3.009-2.019,4.172,4.172,0,0,1,1.193.152ZM-126.706,0H-131V-13.736h4.291Zm-4.545-17.291a1.926,1.926,0,0,1,.66-1.507,2.481,2.481,0,0,1,1.714-.588,2.481,2.481,0,0,1,1.714.588,1.926,1.926,0,0,1,.66,1.507,1.926,1.926,0,0,1-.66,1.507,2.481,2.481,0,0,1-1.714.588,2.481,2.481,0,0,1-1.714-.588A1.926,1.926,0,0,1-131.25-17.291ZM-117.425.254a7.061,7.061,0,0,1-5.116-1.885A6.51,6.51,0,0,1-124.5-6.538v-.355a8.436,8.436,0,0,1,.781-3.72,5.713,5.713,0,0,1,2.279-2.495,6.879,6.879,0,0,1,3.555-.882,5.946,5.946,0,0,1,4.57,1.8,7.059,7.059,0,0,1,1.676,5.008v1.663h-8.506a3.084,3.084,0,0,0,1,1.815,2.984,2.984,0,0,0,2.006.66,3.845,3.845,0,0,0,3.174-1.422L-112-2.158A5.465,5.465,0,0,1-114.271-.4,7.658,7.658,0,0,1-117.425.254Zm-.482-10.943q-1.879,0-2.234,2.488h4.316v-.33a2.119,2.119,0,0,0-.521-1.593A2.071,2.071,0,0,0-117.908-10.689Zm11.921-3.047.14,1.612a4.658,4.658,0,0,1,3.923-1.866,3.919,3.919,0,0,1,3.206,1.282,6.1,6.1,0,0,1,1.1,3.859V0h-4.291V-8.671a2.318,2.318,0,0,0-.419-1.53,1.938,1.938,0,0,0-1.523-.489,2.04,2.04,0,0,0-1.866.99V0H-110V-13.736Zm15.717-3.415v3.415h2.26v2.971h-2.26v6.284A1.6,1.6,0,0,0-89.991-3.4a1.5,1.5,0,0,0,1.1.3,6.276,6.276,0,0,0,1.066-.076v3.06a7.9,7.9,0,0,1-2.412.368A4.482,4.482,0,0,1-93.495-.787a4.267,4.267,0,0,1-1.054-3.161v-6.817H-96.3v-2.971h1.752v-3.415ZM-78.59,0A4.831,4.831,0,0,1-79-1.231,3.978,3.978,0,0,1-82.3.254,4.874,4.874,0,0,1-85.6-.92a3.738,3.738,0,0,1-1.358-2.952,3.842,3.842,0,0,1,1.65-3.377,8.408,8.408,0,0,1,4.8-1.143h1.32v-.727q0-1.9-1.638-1.9a1.339,1.339,0,0,0-1.523,1.505h-4.278a3.835,3.835,0,0,1,1.695-3.233,7.122,7.122,0,0,1,4.323-1.243,6.245,6.245,0,0,1,4.151,1.282A4.458,4.458,0,0,1-74.9-9.191V-3.11a6.227,6.227,0,0,0,.584,2.895V0Zm-2.679-2.793a2.386,2.386,0,0,0,1.327-.343,2.148,2.148,0,0,0,.755-.774v-2.2h-1.244q-2.234,0-2.234,2.006a1.225,1.225,0,0,0,.394.946A1.424,1.424,0,0,0-81.269-2.793Zm8.2-4.177a8.391,8.391,0,0,1,1.409-5.142,4.638,4.638,0,0,1,3.936-1.879,3.945,3.945,0,0,1,3.1,1.447V-19.5h4.291V0h-3.847L-64.4-1.473A4.051,4.051,0,0,1-67.749.254a4.63,4.63,0,0,1-3.885-1.879A8.657,8.657,0,0,1-73.068-6.97Zm4.278.267q0,3.656,2.133,3.656A2.106,2.106,0,0,0-64.625-4.24v-5.23a2.049,2.049,0,0,0-2.006-1.219q-1.98,0-2.146,3.2ZM-50.166,0a4.831,4.831,0,0,1-.406-1.231,3.978,3.978,0,0,1-3.3,1.485,4.874,4.874,0,0,1-3.3-1.174,3.738,3.738,0,0,1-1.358-2.952,3.842,3.842,0,0,1,1.65-3.377,8.408,8.408,0,0,1,4.8-1.143h1.32v-.727q0-1.9-1.638-1.9a1.339,1.339,0,0,0-1.523,1.505H-58.2a3.835,3.835,0,0,1,1.695-3.233,7.122,7.122,0,0,1,4.323-1.243,6.245,6.245,0,0,1,4.151,1.282,4.458,4.458,0,0,1,1.562,3.517V-3.11a6.227,6.227,0,0,0,.584,2.895V0Zm-2.679-2.793a2.386,2.386,0,0,0,1.327-.343,2.148,2.148,0,0,0,.755-.774v-2.2h-1.244q-2.234,0-2.234,2.006a1.225,1.225,0,0,0,.394.946A1.424,1.424,0,0,0-52.844-2.793ZM-29.891,0A4.831,4.831,0,0,1-30.3-1.231,3.978,3.978,0,0,1-33.6.254,4.874,4.874,0,0,1-36.9-.92a3.738,3.738,0,0,1-1.358-2.952,3.842,3.842,0,0,1,1.65-3.377,8.408,8.408,0,0,1,4.8-1.143h1.32v-.727q0-1.9-1.638-1.9a1.339,1.339,0,0,0-1.523,1.505h-4.278a3.835,3.835,0,0,1,1.695-3.233A7.122,7.122,0,0,1-31.91-13.99a6.245,6.245,0,0,1,4.151,1.282A4.458,4.458,0,0,1-26.2-9.191V-3.11a6.227,6.227,0,0,0,.584,2.895V0ZM-32.57-2.793a2.386,2.386,0,0,0,1.327-.343,2.148,2.148,0,0,0,.755-.774v-2.2h-1.244q-2.234,0-2.234,2.006a1.225,1.225,0,0,0,.394.946A1.424,1.424,0,0,0-32.57-2.793ZM-4.6-6.767a8.284,8.284,0,0,1-1.441,5.11A4.62,4.62,0,0,1-9.934.254a3.96,3.96,0,0,1-3.11-1.384V5.281h-4.278V-13.736h4l.127,1.27A3.96,3.96,0,0,1-9.959-13.99a4.657,4.657,0,0,1,3.948,1.873A8.386,8.386,0,0,1-4.6-6.97ZM-8.88-7.033q0-3.656-2.133-3.656A2.013,2.013,0,0,0-13.044-9.6v5.408a2.079,2.079,0,0,0,2.057,1.143q2.044,0,2.107-3.529ZM5.465-1.485A4.411,4.411,0,0,1,1.8.254,4.326,4.326,0,0,1-1.625-1.06,5.526,5.526,0,0,1-2.787-4.837v-8.9H1.492v8.925A1.538,1.538,0,0,0,3.206-3.047,2.236,2.236,0,0,0,5.3-4.1v-9.636H9.6V0H5.592Zm10.41-12.251.14,1.612a4.658,4.658,0,0,1,3.923-1.866,3.919,3.919,0,0,1,3.206,1.282,6.1,6.1,0,0,1,1.1,3.859V0H19.951V-8.671a2.318,2.318,0,0,0-.419-1.53,1.938,1.938,0,0,0-1.523-.489,2.04,2.04,0,0,0-1.866.99V0H11.864V-13.736Zm15.717-3.415v3.415h2.26v2.971h-2.26v6.284A1.6,1.6,0,0,0,31.872-3.4a1.5,1.5,0,0,0,1.1.3,6.276,6.276,0,0,0,1.066-.076v3.06A7.9,7.9,0,0,1,31.63.254,4.482,4.482,0,0,1,28.368-.787a4.267,4.267,0,0,1-1.054-3.161v-6.817H25.562v-2.971h1.752v-3.415ZM34.614-7a8.107,8.107,0,0,1,.8-3.663,5.72,5.72,0,0,1,2.3-2.469,6.92,6.92,0,0,1,3.517-.863A6.316,6.316,0,0,1,46.09-12.08a7.332,7.332,0,0,1,1.777,5.2v.152a7.113,7.113,0,0,1-1.784,5.1A6.333,6.333,0,0,1,41.253.254,6.4,6.4,0,0,1,36.543-1.5a6.877,6.877,0,0,1-1.917-4.767Zm4.278.267a5.111,5.111,0,0,0,.6,2.793,1.988,1.988,0,0,0,1.765.889q2.285,0,2.336-3.517V-7q0-3.694-2.361-3.694-2.146,0-2.323,3.187ZM56.945-3.859a.988.988,0,0,0-.571-.876A8.69,8.69,0,0,0,54.2-5.421a9.9,9.9,0,0,1-2.641-.933,4.423,4.423,0,0,1-1.587-1.4,3.35,3.35,0,0,1-.546-1.892,3.8,3.8,0,0,1,1.562-3.117,6.432,6.432,0,0,1,4.088-1.225,7.127,7.127,0,0,1,4.367,1.231A3.851,3.851,0,0,1,61.1-9.521H56.805q0-1.65-1.739-1.65a1.724,1.724,0,0,0-1.13.375,1.16,1.16,0,0,0-.457.933,1.064,1.064,0,0,0,.559.927,5.278,5.278,0,0,0,1.784.584,15.414,15.414,0,0,1,2.152.546q3.1,1.066,3.1,3.821A3.6,3.6,0,0,1,59.4-.927,7.321,7.321,0,0,1,55.079.254,7.471,7.471,0,0,1,51.93-.381a5.265,5.265,0,0,1-2.158-1.727A3.91,3.91,0,0,1,49-4.405h4a1.653,1.653,0,0,0,.635,1.39,2.611,2.611,0,0,0,1.562.438,2.054,2.054,0,0,0,1.314-.355A1.137,1.137,0,0,0,56.945-3.859ZM69.005-6.97a8.391,8.391,0,0,1,1.409-5.142A4.638,4.638,0,0,1,74.35-13.99a3.945,3.945,0,0,1,3.1,1.447V-19.5h4.291V0H77.892l-.216-1.473A4.051,4.051,0,0,1,74.325.254,4.63,4.63,0,0,1,70.44-1.625,8.657,8.657,0,0,1,69.005-6.97Zm4.278.267q0,3.656,2.133,3.656A2.106,2.106,0,0,0,77.448-4.24v-5.23a2.049,2.049,0,0,0-2.006-1.219q-1.98,0-2.146,3.2ZM90.816.254A7.061,7.061,0,0,1,85.7-1.631a6.51,6.51,0,0,1-1.955-4.907v-.355a8.436,8.436,0,0,1,.781-3.72A5.713,5.713,0,0,1,86.8-13.108a6.879,6.879,0,0,1,3.555-.882,5.946,5.946,0,0,1,4.57,1.8A7.059,7.059,0,0,1,96.6-7.186v1.663H88.1a3.084,3.084,0,0,0,1,1.815,2.984,2.984,0,0,0,2.006.66,3.845,3.845,0,0,0,3.174-1.422l1.955,2.311A5.465,5.465,0,0,1,93.971-.4,7.658,7.658,0,0,1,90.816.254Zm-.482-10.943q-1.879,0-2.234,2.488h4.316v-.33a2.119,2.119,0,0,0-.521-1.593A2.071,2.071,0,0,0,90.333-10.689Zm19.944,5.6,2.171-8.646h4.507L112.474,0h-4.367l-4.481-13.736h4.52ZM122.745,0h-4.291V-13.736h4.291ZM118.2-17.291a1.926,1.926,0,0,1,.66-1.507,2.481,2.481,0,0,1,1.714-.588,2.481,2.481,0,0,1,1.714.588,1.926,1.926,0,0,1,.66,1.507,1.926,1.926,0,0,1-.66,1.507,2.481,2.481,0,0,1-1.714.588,2.481,2.481,0,0,1-1.714-.588A1.926,1.926,0,0,1,118.2-17.291ZM132.571-3.859A.988.988,0,0,0,132-4.735a8.69,8.69,0,0,0-2.171-.686,9.9,9.9,0,0,1-2.641-.933,4.423,4.423,0,0,1-1.587-1.4,3.35,3.35,0,0,1-.546-1.892,3.8,3.8,0,0,1,1.562-3.117A6.432,6.432,0,0,1,130.7-13.99a7.127,7.127,0,0,1,4.367,1.231,3.851,3.851,0,0,1,1.65,3.237h-4.291q0-1.65-1.739-1.65a1.724,1.724,0,0,0-1.13.375,1.16,1.16,0,0,0-.457.933,1.064,1.064,0,0,0,.559.927,5.278,5.278,0,0,0,1.784.584,15.414,15.414,0,0,1,2.152.546q3.1,1.066,3.1,3.821a3.6,3.6,0,0,1-1.669,3.06A7.321,7.321,0,0,1,130.7.254a7.471,7.471,0,0,1-3.148-.635A5.265,5.265,0,0,1,125.4-2.107a3.91,3.91,0,0,1-.774-2.3h4a1.653,1.653,0,0,0,.635,1.39,2.611,2.611,0,0,0,1.562.438,2.054,2.054,0,0,0,1.314-.355A1.137,1.137,0,0,0,132.571-3.859Zm11.108-13.292v3.415h2.26v2.971h-2.26v6.284a1.6,1.6,0,0,0,.279,1.079,1.5,1.5,0,0,0,1.1.3,6.276,6.276,0,0,0,1.066-.076v3.06a7.9,7.9,0,0,1-2.412.368,4.482,4.482,0,0,1-3.263-1.041A4.267,4.267,0,0,1,139.4-3.948v-6.817h-1.752v-2.971H139.4v-3.415ZM155.359,0a4.83,4.83,0,0,1-.406-1.231,3.978,3.978,0,0,1-3.3,1.485,4.874,4.874,0,0,1-3.3-1.174,3.738,3.738,0,0,1-1.358-2.952,3.842,3.842,0,0,1,1.65-3.377,8.408,8.408,0,0,1,4.8-1.143h1.32v-.727q0-1.9-1.638-1.9A1.339,1.339,0,0,0,151.6-9.514h-4.278a3.835,3.835,0,0,1,1.695-3.233,7.122,7.122,0,0,1,4.323-1.243,6.245,6.245,0,0,1,4.151,1.282,4.458,4.458,0,0,1,1.562,3.517V-3.11a6.227,6.227,0,0,0,.584,2.895V0ZM152.68-2.793a2.386,2.386,0,0,0,1.327-.343,2.148,2.148,0,0,0,.755-.774v-2.2h-1.244q-2.234,0-2.234,2.006a1.225,1.225,0,0,0,.394.946A1.424,1.424,0,0,0,152.68-2.793Z" transform="translate(1043 680)" fill="#fff"/>
  </g>
</svg>
