<svg id="Artboard_6" data-name="Artboard 6" xmlns="http://www.w3.org/2000/svg" width="104.239" height="145.654" viewBox="0 0 104.239 145.654">
  <path id="Trazado_114870" data-name="Trazado 114870" d="M2.861,3.225.69,1.963V.26A6.3,6.3,0,0,0,2.12.91,1.035,1.035,0,0,0,2.978.832,1.791,1.791,0,0,0,3.551,0l1.4.806V16.045L2.861,14.836V3.225Z" transform="translate(0.207)" fill="#b9ddfc"/>
  <path id="Trazado_114871" data-name="Trazado 114871" d="M7.089,16.644a6.689,6.689,0,0,1-.819-3.3V5.319c0-1.222.273-2,.819-2.353s1.326-.234,2.353.364A6.108,6.108,0,0,1,11.8,5.683a6.654,6.654,0,0,1,.819,3.3v8.009c0,1.222-.273,2-.819,2.353S10.47,19.582,9.443,19a6.2,6.2,0,0,1-2.353-2.353Zm3.433-.7V7.62A2.272,2.272,0,0,0,9.443,5.488c-.715-.416-1.079-.117-1.079.884v8.321a2.251,2.251,0,0,0,1.079,2.119C10.158,17.229,10.522,16.93,10.522,15.942Z" transform="translate(1.882 0.831)" fill="#b9ddfc"/>
  <path id="Trazado_114872" data-name="Trazado 114872" d="M13.369,20.261a6.654,6.654,0,0,1-.819-3.3V8.949c0-1.222.273-2,.819-2.353s1.326-.234,2.353.364a6.2,6.2,0,0,1,2.353,2.353,6.689,6.689,0,0,1,.819,3.3v8.009c0,1.222-.273,2-.819,2.353s-1.326.234-2.353-.364A6.108,6.108,0,0,1,13.369,20.261Zm3.433-.7V11.237a2.251,2.251,0,0,0-1.079-2.119c-.715-.416-1.079-.13-1.079.871v8.321a2.251,2.251,0,0,0,1.079,2.119C16.438,20.846,16.8,20.56,16.8,19.559Z" transform="translate(3.768 1.921)" fill="#b9ddfc"/>
  <path id="Trazado_114873" data-name="Trazado 114873" d="M19.639,23.881a6.654,6.654,0,0,1-.819-3.3V12.569c0-1.222.273-2,.819-2.353s1.326-.234,2.353.364a6.108,6.108,0,0,1,2.353,2.353,6.689,6.689,0,0,1,.819,3.3v8.009c0,1.222-.273,2-.819,2.353s-1.326.234-2.353-.351a6.14,6.14,0,0,1-2.353-2.366Zm3.433-.689V14.87a2.272,2.272,0,0,0-1.079-2.132c-.715-.416-1.079-.13-1.079.871v8.321a2.251,2.251,0,0,0,1.079,2.119c.715.416,1.079.13,1.079-.871Z" transform="translate(5.65 3.008)" fill="#b9ddfc"/>
  <path id="Trazado_114874" data-name="Trazado 114874" d="M27.964,17.715,25.78,16.453v-1.7a6.3,6.3,0,0,0,1.43.65,1.035,1.035,0,0,0,.858-.078,1.815,1.815,0,0,0,.572-.832l1.4.806V30.535l-2.093-1.209V17.7Z" transform="translate(7.74 4.35)" fill="#b9ddfc"/>
  <path id="Trazado_114875" data-name="Trazado 114875" d="M32.189,31.121a6.654,6.654,0,0,1-.819-3.3V19.809c0-1.222.273-2,.819-2.353s1.326-.234,2.353.351A6.2,6.2,0,0,1,36.9,20.16a6.689,6.689,0,0,1,.819,3.3v8.009c0,1.222-.273,2-.819,2.353s-1.326.234-2.353-.364a6.108,6.108,0,0,1-2.353-2.353Zm3.433-.689V22.11a2.272,2.272,0,0,0-1.079-2.132c-.715-.416-1.079-.117-1.079.871v8.321a2.251,2.251,0,0,0,1.079,2.119c.715.416,1.079.13,1.079-.871Z" transform="translate(9.418 5.181)" fill="#b9ddfc"/>
  <path id="Trazado_114876" data-name="Trazado 114876" d="M40.514,24.955,38.33,23.693v-1.7a6.3,6.3,0,0,0,1.43.65,1.035,1.035,0,0,0,.858-.078,1.723,1.723,0,0,0,.572-.832l1.4.806V37.775L40.5,36.566V24.942Z" transform="translate(11.508 6.524)" fill="#b9ddfc"/>
  <path id="Trazado_114877" data-name="Trazado 114877" d="M44.739,38.374a6.654,6.654,0,0,1-.819-3.3V27.062c0-1.222.273-2,.819-2.366s1.326-.234,2.353.364a6.2,6.2,0,0,1,2.353,2.353,6.689,6.689,0,0,1,.819,3.3v8.009c0,1.222-.273,2-.819,2.353s-1.326.234-2.353-.364a6.108,6.108,0,0,1-2.353-2.353Zm3.433-.7V29.363a2.272,2.272,0,0,0-1.079-2.132c-.715-.416-1.079-.13-1.079.871v8.321a2.251,2.251,0,0,0,1.079,2.119c.715.416,1.079.13,1.079-.871Z" transform="translate(13.186 7.355)" fill="#b9ddfc"/>
  <path id="Trazado_114878" data-name="Trazado 114878" d="M53.064,32.2,50.88,30.943v-1.7a6.3,6.3,0,0,0,1.43.65,1.035,1.035,0,0,0,.858-.078,1.815,1.815,0,0,0,.572-.832l1.4.806V45.025l-2.093-1.209V32.192Z" transform="translate(15.276 8.701)" fill="#b9ddfc"/>
  <path id="Trazado_114879" data-name="Trazado 114879" d="M59.334,35.825,57.15,34.563v-1.7a6.3,6.3,0,0,0,1.43.65,1.035,1.035,0,0,0,.858-.078,1.815,1.815,0,0,0,.572-.832l1.4.806V48.645l-2.093-1.209V35.812Z" transform="translate(17.158 9.788)" fill="#b9ddfc"/>
  <path id="Trazado_114880" data-name="Trazado 114880" d="M65.614,39.445,63.43,38.183v-1.7a6.3,6.3,0,0,0,1.43.65,1.035,1.035,0,0,0,.858-.078,1.891,1.891,0,0,0,.572-.832l1.4.806V52.265L65.6,51.056V39.432Z" transform="translate(19.044 10.874)" fill="#b9ddfc"/>
  <path id="Trazado_114881" data-name="Trazado 114881" d="M69.829,52.861a6.689,6.689,0,0,1-.819-3.3V41.549c0-1.222.273-2,.819-2.353s1.326-.234,2.353.364a6.108,6.108,0,0,1,2.353,2.353,6.654,6.654,0,0,1,.819,3.3v8.009c0,1.222-.273,2-.819,2.353s-1.326.234-2.353-.351a6.2,6.2,0,0,1-2.353-2.353Zm3.433-.7V43.837A2.272,2.272,0,0,0,72.183,41.7c-.715-.416-1.079-.13-1.079.884v8.321a2.251,2.251,0,0,0,1.079,2.119c.715.416,1.079.13,1.079-.871Z" transform="translate(20.719 11.709)" fill="#b9ddfc"/>
  <path id="Trazado_114882" data-name="Trazado 114882" d="M76.109,56.484a6.654,6.654,0,0,1-.819-3.3V45.172c0-1.222.273-2,.819-2.366s1.326-.234,2.353.364a6.2,6.2,0,0,1,2.353,2.353,6.689,6.689,0,0,1,.819,3.3v8.009c0,1.222-.273,2-.819,2.353s-1.326.234-2.353-.364a6.108,6.108,0,0,1-2.353-2.353Zm3.433-.7V47.473a2.272,2.272,0,0,0-1.079-2.132c-.715-.416-1.079-.13-1.079.871v8.321a2.251,2.251,0,0,0,1.079,2.119C79.178,57.069,79.542,56.783,79.542,55.782Z" transform="translate(22.604 12.792)" fill="#b9ddfc"/>
  <path id="Trazado_114883" data-name="Trazado 114883" d="M2.864,17.345.68,16.083v-1.7a6.3,6.3,0,0,0,1.43.65,1.035,1.035,0,0,0,.858-.078,1.791,1.791,0,0,0,.572-.832l1.4.806V30.165L2.851,28.956V17.332Z" transform="translate(0.204 4.239)" fill="#b9ddfc"/>
  <path id="Trazado_114884" data-name="Trazado 114884" d="M9.144,20.975,6.96,19.713v-1.7a5.771,5.771,0,0,0,1.43.65,1.035,1.035,0,0,0,.858-.078,1.723,1.723,0,0,0,.572-.832l1.4.806V33.795L9.131,32.586V20.962Z" transform="translate(2.09 5.329)" fill="#b9ddfc"/>
  <path id="Trazado_114885" data-name="Trazado 114885" d="M13.369,34.384a6.654,6.654,0,0,1-.819-3.3V23.072c0-1.222.273-2,.819-2.366s1.326-.234,2.353.364a6.2,6.2,0,0,1,2.353,2.353,6.654,6.654,0,0,1,.819,3.3v8.009c0,1.222-.273,2-.819,2.353s-1.326.234-2.353-.351A6.2,6.2,0,0,1,13.369,34.384Zm3.433-.7V25.36a2.251,2.251,0,0,0-1.079-2.119c-.715-.416-1.079-.13-1.079.871v8.321a2.251,2.251,0,0,0,1.079,2.119C16.438,34.969,16.8,34.683,16.8,33.682Z" transform="translate(3.768 6.157)" fill="#b9ddfc"/>
  <path id="Trazado_114886" data-name="Trazado 114886" d="M21.694,28.215,19.51,26.953v-1.7a6.3,6.3,0,0,0,1.43.65,1.035,1.035,0,0,0,.858-.078,1.815,1.815,0,0,0,.572-.832l1.4.806V41.035l-2.08-1.209V28.2Z" transform="translate(5.857 7.503)" fill="#b9ddfc"/>
  <path id="Trazado_114887" data-name="Trazado 114887" d="M25.909,41.631a6.654,6.654,0,0,1-.819-3.3V30.319c0-1.222.273-2,.819-2.353s1.326-.234,2.353.364a6.2,6.2,0,0,1,2.353,2.353,6.654,6.654,0,0,1,.819,3.3v8.009c0,1.222-.273,2-.819,2.353s-1.326.234-2.353-.351a6.2,6.2,0,0,1-2.353-2.353Zm3.433-.7V32.607a2.251,2.251,0,0,0-1.079-2.119c-.715-.416-1.079-.13-1.079.871v8.321A2.251,2.251,0,0,0,28.263,41.8c.715.416,1.079.13,1.079-.871Z" transform="translate(7.533 8.337)" fill="#b9ddfc"/>
  <path id="Trazado_114888" data-name="Trazado 114888" d="M34.234,35.465,32.05,34.2V32.5a6.3,6.3,0,0,0,1.43.65,1.035,1.035,0,0,0,.858-.078,1.791,1.791,0,0,0,.572-.832l1.4.806V48.285l-2.093-1.209V35.452Z" transform="translate(9.622 9.679)" fill="#b9ddfc"/>
  <path id="Trazado_114889" data-name="Trazado 114889" d="M38.459,48.871a6.654,6.654,0,0,1-.819-3.3V37.559c0-1.222.273-2,.819-2.353s1.326-.234,2.353.364a6.108,6.108,0,0,1,2.353,2.353,6.654,6.654,0,0,1,.819,3.3v8.009c0,1.222-.273,2-.819,2.353s-1.326.234-2.353-.351A6.14,6.14,0,0,1,38.459,48.871Zm3.433-.689V39.86a2.272,2.272,0,0,0-1.079-2.132c-.715-.416-1.079-.13-1.079.884v8.321a2.251,2.251,0,0,0,1.079,2.119C41.528,49.469,41.892,49.183,41.892,48.182Z" transform="translate(11.301 10.511)" fill="#b9ddfc"/>
  <path id="Trazado_114890" data-name="Trazado 114890" d="M46.784,42.7,44.6,41.443v-1.7a6.3,6.3,0,0,0,1.43.65,1.035,1.035,0,0,0,.858-.078,1.891,1.891,0,0,0,.572-.832l1.4.806V55.525l-2.08-1.209V42.692Z" transform="translate(13.39 11.853)" fill="#b9ddfc"/>
  <path id="Trazado_114891" data-name="Trazado 114891" d="M53.064,46.325,50.88,45.063v-1.7a6.3,6.3,0,0,0,1.43.65,1.035,1.035,0,0,0,.858-.078,1.815,1.815,0,0,0,.572-.832l1.4.806V59.145l-2.093-1.209V46.312Z" transform="translate(15.276 12.94)" fill="#b9ddfc"/>
  <path id="Trazado_114892" data-name="Trazado 114892" d="M59.334,49.945,57.15,48.683v-1.7a6.3,6.3,0,0,0,1.43.65,1.035,1.035,0,0,0,.858-.078,1.815,1.815,0,0,0,.572-.832l1.4.806V62.765l-2.093-1.209V49.932Z" transform="translate(17.158 14.027)" fill="#b9ddfc"/>
  <path id="Trazado_114893" data-name="Trazado 114893" d="M63.559,63.361a6.654,6.654,0,0,1-.819-3.3V52.049c0-1.222.273-2,.819-2.353s1.326-.234,2.353.351A6.2,6.2,0,0,1,68.266,52.4a6.689,6.689,0,0,1,.819,3.3v8.009c0,1.222-.273,2-.819,2.353s-1.326.234-2.353-.364a6.108,6.108,0,0,1-2.353-2.353Zm3.433-.689V54.35a2.272,2.272,0,0,0-1.079-2.132c-.715-.416-1.079-.13-1.079.871v8.321a2.251,2.251,0,0,0,1.079,2.119c.715.416,1.079.13,1.079-.871Z" transform="translate(18.836 14.861)" fill="#b9ddfc"/>
  <path id="Trazado_114894" data-name="Trazado 114894" d="M69.829,66.981a6.654,6.654,0,0,1-.819-3.3V55.669c0-1.222.273-2,.819-2.353s1.326-.234,2.353.364a6.108,6.108,0,0,1,2.353,2.353,6.654,6.654,0,0,1,.819,3.3v8.009c0,1.222-.273,2-.819,2.353s-1.326.234-2.353-.351A6.14,6.14,0,0,1,69.829,66.981Zm3.433-.689V57.97a2.272,2.272,0,0,0-1.079-2.132c-.715-.416-1.079-.13-1.079.884v8.321a2.251,2.251,0,0,0,1.079,2.119c.715.416,1.079.117,1.079-.871Z" transform="translate(20.719 15.948)" fill="#b9ddfc"/>
  <path id="Trazado_114895" data-name="Trazado 114895" d="M78.154,60.815,75.97,59.553v-1.7a6.3,6.3,0,0,0,1.43.65,1.035,1.035,0,0,0,.858-.078,1.791,1.791,0,0,0,.572-.832l1.4.806V73.635l-2.093-1.209V60.8Z" transform="translate(22.808 17.29)" fill="#b9ddfc"/>
  <path id="Trazado_114896" data-name="Trazado 114896" d="M.819,41.271A6.689,6.689,0,0,1,0,37.968V29.959c0-1.222.273-2,.819-2.353s1.326-.234,2.353.364a6.108,6.108,0,0,1,2.353,2.353,6.654,6.654,0,0,1,.819,3.3v8.009c0,1.222-.273,2-.819,2.353s-1.326.234-2.353-.351A6.2,6.2,0,0,1,.819,41.284Zm3.433-.7V32.247a2.272,2.272,0,0,0-1.079-2.132C2.457,29.7,2.093,30,2.093,31v8.321A2.251,2.251,0,0,0,3.173,41.44c.715.416,1.079.117,1.079-.871Z" transform="translate(0 8.229)" fill="#b9ddfc"/>
  <path id="Trazado_114897" data-name="Trazado 114897" d="M7.089,44.894a6.654,6.654,0,0,1-.819-3.3V33.582c0-1.222.273-2,.819-2.366s1.326-.234,2.353.364A6.2,6.2,0,0,1,11.8,33.933a6.689,6.689,0,0,1,.819,3.3v8.009c0,1.222-.273,2-.819,2.353s-1.326.234-2.353-.364a6.108,6.108,0,0,1-2.353-2.353Zm3.433-.7V35.883a2.272,2.272,0,0,0-1.079-2.132c-.715-.416-1.079-.117-1.079.871v8.321a2.251,2.251,0,0,0,1.079,2.119c.715.416,1.079.13,1.079-.871Z" transform="translate(1.882 9.313)" fill="#b9ddfc"/>
  <path id="Trazado_114898" data-name="Trazado 114898" d="M15.414,38.725,13.23,37.463v-1.7a6.3,6.3,0,0,0,1.43.65,1.035,1.035,0,0,0,.858-.078,1.723,1.723,0,0,0,.572-.832l1.4.806V51.545L15.4,50.336V38.712Z" transform="translate(3.972 10.658)" fill="#b9ddfc"/>
  <path id="Trazado_114899" data-name="Trazado 114899" d="M19.639,52.134a6.654,6.654,0,0,1-.819-3.3V40.822c0-1.222.273-2,.819-2.366s1.326-.234,2.353.364a6.2,6.2,0,0,1,2.353,2.353,6.654,6.654,0,0,1,.819,3.3v8.009c0,1.222-.273,2-.819,2.353s-1.326.234-2.353-.351A6.2,6.2,0,0,1,19.639,52.134Zm3.433-.7V43.11a2.251,2.251,0,0,0-1.079-2.119c-.715-.416-1.079-.13-1.079.871v8.321A2.251,2.251,0,0,0,21.993,52.3C22.708,52.719,23.072,52.42,23.072,51.432Z" transform="translate(5.65 11.486)" fill="#b9ddfc"/>
  <path id="Trazado_114900" data-name="Trazado 114900" d="M27.964,45.965,25.78,44.7V43a6.3,6.3,0,0,0,1.43.65,1.035,1.035,0,0,0,.858-.078,1.891,1.891,0,0,0,.572-.832l1.4.806V58.785l-2.093-1.209V45.952Z" transform="translate(7.74 12.832)" fill="#b9ddfc"/>
  <path id="Trazado_114901" data-name="Trazado 114901" d="M34.234,49.585,32.05,48.323v-1.7a5.771,5.771,0,0,0,1.43.65,1.035,1.035,0,0,0,.858-.078,1.723,1.723,0,0,0,.572-.832l1.4.806V62.4L34.221,61.2V49.572Z" transform="translate(9.622 13.919)" fill="#b9ddfc"/>
  <path id="Trazado_114902" data-name="Trazado 114902" d="M40.514,53.2,38.33,51.943v-1.7a6.3,6.3,0,0,0,1.43.65,1.035,1.035,0,0,0,.858-.078,1.791,1.791,0,0,0,.572-.832l1.4.806V66.025L40.5,64.816V53.192Z" transform="translate(11.508 15.006)" fill="#b9ddfc"/>
  <path id="Trazado_114903" data-name="Trazado 114903" d="M44.739,66.621a6.654,6.654,0,0,1-.819-3.3V55.309c0-1.222.273-2,.819-2.353s1.326-.234,2.353.364a6.108,6.108,0,0,1,2.353,2.353,6.654,6.654,0,0,1,.819,3.3v8.009c0,1.222-.273,2-.819,2.353s-1.326.234-2.353-.351A6.14,6.14,0,0,1,44.739,66.621Zm3.433-.689V57.61a2.272,2.272,0,0,0-1.079-2.132c-.715-.416-1.079-.117-1.079.884v8.321A2.251,2.251,0,0,0,47.093,66.8c.715.416,1.079.13,1.079-.871Z" transform="translate(13.186 15.84)" fill="#b9ddfc"/>
  <path id="Trazado_114904" data-name="Trazado 114904" d="M51.009,70.254a6.654,6.654,0,0,1-.819-3.3V58.942c0-1.222.273-2,.819-2.366s1.326-.234,2.353.364a6.2,6.2,0,0,1,2.353,2.353,6.654,6.654,0,0,1,.819,3.3V70.6c0,1.222-.273,2-.819,2.353s-1.326.234-2.353-.351a6.2,6.2,0,0,1-2.353-2.353Zm3.433-.7V61.23a2.251,2.251,0,0,0-1.079-2.119c-.715-.416-1.079-.13-1.079.871V68.3a2.251,2.251,0,0,0,1.079,2.119c.715.416,1.079.13,1.079-.871Z" transform="translate(15.069 16.927)" fill="#b9ddfc"/>
  <path id="Trazado_114905" data-name="Trazado 114905" d="M59.334,64.075,57.15,62.813v-1.7a6.3,6.3,0,0,0,1.43.65,1.035,1.035,0,0,0,.858-.078,1.89,1.89,0,0,0,.572-.832l1.4.806V76.895l-2.093-1.209V64.062Z" transform="translate(17.158 18.269)" fill="#b9ddfc"/>
  <path id="Trazado_114906" data-name="Trazado 114906" d="M63.559,77.491a6.689,6.689,0,0,1-.819-3.3V66.179c0-1.222.273-2,.819-2.353s1.326-.234,2.353.364a6.108,6.108,0,0,1,2.353,2.353,6.654,6.654,0,0,1,.819,3.3v8.009c0,1.222-.273,2-.819,2.353s-1.326.234-2.353-.351A6.2,6.2,0,0,1,63.559,77.5Zm3.433-.7V68.467a2.272,2.272,0,0,0-1.079-2.132c-.715-.416-1.079-.117-1.079.884v8.321a2.251,2.251,0,0,0,1.079,2.119C66.628,78.076,66.992,77.79,66.992,76.789Z" transform="translate(18.836 19.103)" fill="#b9ddfc"/>
  <path id="Trazado_114907" data-name="Trazado 114907" d="M71.884,71.325,69.7,70.063v-1.7a6.3,6.3,0,0,0,1.43.65,1.035,1.035,0,0,0,.858-.078,1.791,1.791,0,0,0,.572-.832l1.4.806V84.145l-2.093-1.209V71.312Z" transform="translate(20.926 20.446)" fill="#b9ddfc"/>
  <path id="Trazado_114908" data-name="Trazado 114908" d="M76.109,84.731a6.654,6.654,0,0,1-.819-3.3V73.419c0-1.222.273-2,.819-2.353s1.326-.234,2.353.364a6.108,6.108,0,0,1,2.353,2.353,6.654,6.654,0,0,1,.819,3.3v8.009c0,1.222-.273,2-.819,2.353s-1.326.234-2.353-.351A6.14,6.14,0,0,1,76.109,84.731Zm3.433-.689V75.72a2.272,2.272,0,0,0-1.079-2.132c-.715-.416-1.079-.13-1.079.884v8.321a2.251,2.251,0,0,0,1.079,2.119C79.178,85.329,79.542,85.03,79.542,84.042Z" transform="translate(22.604 21.277)" fill="#b9ddfc"/>
  <path id="Trazado_114909" data-name="Trazado 114909" d="M2.864,45.6.68,44.343v-1.7a6.3,6.3,0,0,0,1.43.65,1.035,1.035,0,0,0,.858-.078,1.723,1.723,0,0,0,.572-.832l1.4.806V58.425L2.851,57.216V45.592Z" transform="translate(0.204 12.724)" fill="#b9ddfc"/>
  <path id="Trazado_114910" data-name="Trazado 114910" d="M9.144,49.225,6.96,47.963v-1.7a6.3,6.3,0,0,0,1.43.65,1.035,1.035,0,0,0,.858-.078A1.791,1.791,0,0,0,9.821,46l1.4.806V62.045L9.131,60.836V49.212Z" transform="translate(2.09 13.811)" fill="#b9ddfc"/>
  <path id="Trazado_114911" data-name="Trazado 114911" d="M13.369,62.641a6.654,6.654,0,0,1-.819-3.3V51.329c0-1.222.273-2,.819-2.353s1.326-.234,2.353.364a6.108,6.108,0,0,1,2.353,2.353A6.654,6.654,0,0,1,18.9,55V63c0,1.222-.273,2-.819,2.353s-1.326.234-2.353-.351A6.14,6.14,0,0,1,13.369,62.641Zm3.433-.689V53.63A2.272,2.272,0,0,0,15.723,51.5c-.715-.416-1.079-.117-1.079.884v8.308a2.286,2.286,0,0,0,1.079,2.132C16.438,63.239,16.8,62.953,16.8,61.952Z" transform="translate(3.768 14.645)" fill="#b9ddfc"/>
  <path id="Trazado_114912" data-name="Trazado 114912" d="M19.639,66.261a6.654,6.654,0,0,1-.819-3.3V54.949c0-1.222.273-2,.819-2.353s1.326-.234,2.353.364a6.2,6.2,0,0,1,2.353,2.353,6.689,6.689,0,0,1,.819,3.3v8.009c0,1.222-.273,2-.819,2.353s-1.326.234-2.353-.364A6.108,6.108,0,0,1,19.639,66.261Zm3.433-.7V57.237a2.251,2.251,0,0,0-1.079-2.119c-.715-.416-1.079-.13-1.079.871v8.321a2.251,2.251,0,0,0,1.079,2.119C22.708,66.846,23.072,66.56,23.072,65.559Z" transform="translate(5.65 15.732)" fill="#b9ddfc"/>
  <path id="Trazado_114913" data-name="Trazado 114913" d="M25.909,69.881a6.654,6.654,0,0,1-.819-3.3V58.569c0-1.222.273-2,.819-2.353s1.326-.234,2.353.351a6.2,6.2,0,0,1,2.353,2.353,6.689,6.689,0,0,1,.819,3.3v8.009c0,1.222-.273,2-.819,2.353s-1.326.234-2.353-.364a6.108,6.108,0,0,1-2.353-2.353Zm3.433-.689V60.87a2.272,2.272,0,0,0-1.079-2.132c-.715-.416-1.079-.13-1.079.871v8.321a2.251,2.251,0,0,0,1.079,2.119c.715.416,1.079.13,1.079-.871Z" transform="translate(7.533 16.818)" fill="#b9ddfc"/>
  <path id="Trazado_114914" data-name="Trazado 114914" d="M32.189,73.5a6.654,6.654,0,0,1-.819-3.3V62.189c0-1.222.273-2,.819-2.353s1.326-.234,2.353.364A6.2,6.2,0,0,1,36.9,62.553a6.654,6.654,0,0,1,.819,3.3v8.009c0,1.222-.273,2-.819,2.353s-1.326.234-2.353-.351a6.2,6.2,0,0,1-2.353-2.353Zm3.433-.7V64.477a2.286,2.286,0,0,0-1.079-2.132c-.715-.416-1.079-.13-1.079.884v8.321a2.251,2.251,0,0,0,1.079,2.119C35.258,74.086,35.622,73.8,35.622,72.8Z" transform="translate(9.418 17.905)" fill="#b9ddfc"/>
  <path id="Trazado_114915" data-name="Trazado 114915" d="M40.514,67.335,38.33,66.073v-1.7a6.3,6.3,0,0,0,1.43.65,1.035,1.035,0,0,0,.858-.078,1.791,1.791,0,0,0,.572-.832l1.4.806V80.155L40.5,78.946V67.322Z" transform="translate(11.508 19.248)" fill="#b9ddfc"/>
  <path id="Trazado_114916" data-name="Trazado 114916" d="M44.739,80.751a6.689,6.689,0,0,1-.819-3.3V69.439c0-1.222.273-2,.819-2.353s1.326-.234,2.353.364A6.108,6.108,0,0,1,49.446,69.8a6.654,6.654,0,0,1,.819,3.3v8.009c0,1.222-.273,2-.819,2.353s-1.326.234-2.353-.351a6.2,6.2,0,0,1-2.353-2.353Zm3.433-.7V71.727a2.272,2.272,0,0,0-1.079-2.132c-.715-.416-1.079-.13-1.079.884V78.8a2.251,2.251,0,0,0,1.079,2.119C47.808,81.336,48.172,81.037,48.172,80.049Z" transform="translate(13.186 20.082)" fill="#b9ddfc"/>
  <path id="Trazado_114917" data-name="Trazado 114917" d="M53.064,74.575,50.88,73.313v-1.7a6.3,6.3,0,0,0,1.43.65,1.035,1.035,0,0,0,.858-.078,1.815,1.815,0,0,0,.572-.832l1.4.806V87.395l-2.093-1.209V74.562Z" transform="translate(15.276 21.421)" fill="#b9ddfc"/>
  <path id="Trazado_114918" data-name="Trazado 114918" d="M57.289,87.991a6.654,6.654,0,0,1-.819-3.3V76.679c0-1.222.273-2,.819-2.353s1.326-.234,2.353.351A6.2,6.2,0,0,1,62,77.03a6.689,6.689,0,0,1,.819,3.3v8.009c0,1.222-.273,2-.819,2.353s-1.326.234-2.353-.364a6.108,6.108,0,0,1-2.353-2.353Zm3.433-.689V78.98a2.272,2.272,0,0,0-1.079-2.132c-.715-.416-1.079-.13-1.079.871v8.321a2.251,2.251,0,0,0,1.079,2.119c.715.416,1.079.13,1.079-.871Z" transform="translate(16.954 22.256)" fill="#b9ddfc"/>
  <path id="Trazado_114919" data-name="Trazado 114919" d="M65.614,81.825,63.43,80.563v-1.7a6.3,6.3,0,0,0,1.43.65,1.035,1.035,0,0,0,.858-.078,1.815,1.815,0,0,0,.572-.832l1.4.806V94.645L65.6,93.436V81.812Z" transform="translate(19.044 23.598)" fill="#b9ddfc"/>
  <path id="Trazado_114920" data-name="Trazado 114920" d="M71.884,85.445,69.7,84.183v-1.7a6.3,6.3,0,0,0,1.43.65,1.035,1.035,0,0,0,.858-.078,1.791,1.791,0,0,0,.572-.832l1.4.806V98.265l-2.093-1.209V85.432Z" transform="translate(20.926 24.685)" fill="#b9ddfc"/>
  <path id="Trazado_114921" data-name="Trazado 114921" d="M76.109,98.861a6.689,6.689,0,0,1-.819-3.3V87.549c0-1.222.273-2,.819-2.353s1.326-.234,2.353.364a6.108,6.108,0,0,1,2.353,2.353,6.654,6.654,0,0,1,.819,3.3v8.009c0,1.222-.273,2-.819,2.353s-1.326.234-2.353-.351a6.2,6.2,0,0,1-2.353-2.353Zm3.433-.7V89.837A2.272,2.272,0,0,0,78.463,87.7c-.715-.416-1.079-.13-1.079.884v8.321a2.251,2.251,0,0,0,1.079,2.119C79.178,99.446,79.542,99.16,79.542,98.159Z" transform="translate(22.604 25.519)" fill="#b9ddfc"/>
  <path id="Trazado_114922" data-name="Trazado 114922" d="M2.864,59.725.68,58.463v-1.7a6.3,6.3,0,0,0,1.43.65,1.035,1.035,0,0,0,.858-.078,1.791,1.791,0,0,0,.572-.832l1.4.806V72.545L2.851,71.336V59.712Z" transform="translate(0.204 16.963)" fill="#b9ddfc"/>
  <path id="Trazado_114923" data-name="Trazado 114923" d="M7.089,73.141a6.654,6.654,0,0,1-.819-3.3V61.829c0-1.222.273-2,.819-2.353s1.326-.234,2.353.364A6.108,6.108,0,0,1,11.8,62.193a6.654,6.654,0,0,1,.819,3.3V73.5c0,1.222-.273,2-.819,2.353s-1.326.234-2.353-.351a6.14,6.14,0,0,1-2.353-2.366Zm3.433-.689V64.13A2.272,2.272,0,0,0,9.443,62c-.715-.416-1.079-.13-1.079.884V71.2a2.251,2.251,0,0,0,1.079,2.119C10.158,73.739,10.522,73.453,10.522,72.452Z" transform="translate(1.882 17.797)" fill="#b9ddfc"/>
  <path id="Trazado_114924" data-name="Trazado 114924" d="M13.369,76.764a6.654,6.654,0,0,1-.819-3.3V65.452c0-1.222.273-2,.819-2.366s1.326-.234,2.353.364A6.2,6.2,0,0,1,18.076,65.8a6.654,6.654,0,0,1,.819,3.3v8.009c0,1.222-.273,2-.819,2.353s-1.326.234-2.353-.351a6.2,6.2,0,0,1-2.353-2.353Zm3.433-.7V67.74a2.251,2.251,0,0,0-1.079-2.119c-.715-.416-1.079-.13-1.079.871v8.321a2.251,2.251,0,0,0,1.079,2.119C16.438,77.349,16.8,77.05,16.8,76.062Z" transform="translate(3.768 18.881)" fill="#b9ddfc"/>
  <path id="Trazado_114925" data-name="Trazado 114925" d="M19.639,80.391a6.654,6.654,0,0,1-.819-3.3V69.079c0-1.222.273-2,.819-2.353s1.326-.234,2.353.364a6.108,6.108,0,0,1,2.353,2.353,6.654,6.654,0,0,1,.819,3.3v8.009c0,1.222-.273,2-.819,2.353s-1.326.234-2.353-.351A6.14,6.14,0,0,1,19.639,80.391Zm3.433-.689V71.38a2.272,2.272,0,0,0-1.079-2.132c-.715-.416-1.079-.117-1.079.884v8.308a2.286,2.286,0,0,0,1.079,2.132C22.708,80.989,23.072,80.7,23.072,79.7Z" transform="translate(5.65 19.974)" fill="#b9ddfc"/>
  <path id="Trazado_114926" data-name="Trazado 114926" d="M27.964,74.215,25.78,72.953v-1.7a6.3,6.3,0,0,0,1.43.65,1.035,1.035,0,0,0,.858-.078,1.815,1.815,0,0,0,.572-.832l1.4.806V87.035l-2.093-1.209V74.2Z" transform="translate(7.74 21.313)" fill="#b9ddfc"/>
  <path id="Trazado_114927" data-name="Trazado 114927" d="M32.189,87.631a6.654,6.654,0,0,1-.819-3.3V76.319c0-1.222.273-2,.819-2.353s1.326-.234,2.353.351A6.2,6.2,0,0,1,36.9,76.67a6.689,6.689,0,0,1,.819,3.3v8.009c0,1.222-.273,2-.819,2.353s-1.326.234-2.353-.364a6.108,6.108,0,0,1-2.353-2.353Zm3.433-.689V78.62a2.272,2.272,0,0,0-1.079-2.132c-.715-.416-1.079-.13-1.079.871v8.321A2.251,2.251,0,0,0,34.543,87.8c.715.416,1.079.13,1.079-.871Z" transform="translate(9.418 22.147)" fill="#b9ddfc"/>
  <path id="Trazado_114928" data-name="Trazado 114928" d="M40.514,81.465,38.33,80.2V78.5a5.771,5.771,0,0,0,1.43.65,1.035,1.035,0,0,0,.858-.078,1.723,1.723,0,0,0,.572-.832l1.4.806V94.285L40.5,93.076V81.452Z" transform="translate(11.508 23.49)" fill="#b9ddfc"/>
  <path id="Trazado_114929" data-name="Trazado 114929" d="M44.739,94.881a6.654,6.654,0,0,1-.819-3.3V83.569c0-1.222.273-2,.819-2.353s1.326-.234,2.353.351a6.2,6.2,0,0,1,2.353,2.353,6.689,6.689,0,0,1,.819,3.3v8.009c0,1.222-.273,2-.819,2.353s-1.326.234-2.353-.364a6.108,6.108,0,0,1-2.353-2.353Zm3.433-.689V85.87a2.251,2.251,0,0,0-1.079-2.119c-.715-.416-1.079-.13-1.079.871v8.321a2.251,2.251,0,0,0,1.079,2.119C47.808,95.479,48.172,95.18,48.172,94.192Z" transform="translate(13.186 24.324)" fill="#b9ddfc"/>
  <path id="Trazado_114930" data-name="Trazado 114930" d="M53.064,88.7,50.88,87.443v-1.7a6.3,6.3,0,0,0,1.43.65,1.035,1.035,0,0,0,.858-.078,1.815,1.815,0,0,0,.572-.832l1.4.806v15.239l-2.093-1.209V88.692Z" transform="translate(15.276 25.664)" fill="#b9ddfc"/>
  <path id="Trazado_114931" data-name="Trazado 114931" d="M59.334,92.325,57.15,91.063v-1.7a6.3,6.3,0,0,0,1.43.65,1.035,1.035,0,0,0,.858-.078,1.815,1.815,0,0,0,.572-.832l1.4.806v15.239l-2.093-1.209V92.312Z" transform="translate(17.158 26.751)" fill="#b9ddfc"/>
  <path id="Trazado_114932" data-name="Trazado 114932" d="M65.614,95.955,63.43,94.693v-1.7a6.3,6.3,0,0,0,1.43.65,1.035,1.035,0,0,0,.858-.078,1.891,1.891,0,0,0,.572-.832l1.4.806v15.239L65.6,107.566V95.942Z" transform="translate(19.044 27.84)" fill="#b9ddfc"/>
  <path id="Trazado_114933" data-name="Trazado 114933" d="M69.829,109.361a6.654,6.654,0,0,1-.819-3.3V98.049c0-1.222.273-2,.819-2.353s1.326-.234,2.353.364a6.108,6.108,0,0,1,2.353,2.353,6.654,6.654,0,0,1,.819,3.3v8.009c0,1.222-.273,2-.819,2.353s-1.326.234-2.353-.351A6.14,6.14,0,0,1,69.829,109.361Zm3.433-.689V100.35a2.272,2.272,0,0,0-1.079-2.132C71.467,97.8,71.1,98.1,71.1,99.1v8.321a2.251,2.251,0,0,0,1.079,2.119C72.9,109.959,73.262,109.673,73.262,108.672Z" transform="translate(20.719 28.672)" fill="#b9ddfc"/>
  <path id="Trazado_114934" data-name="Trazado 114934" d="M76.109,112.991a6.654,6.654,0,0,1-.819-3.3v-8.009c0-1.222.273-2,.819-2.353s1.326-.234,2.353.351a6.2,6.2,0,0,1,2.353,2.353,6.689,6.689,0,0,1,.819,3.3v8.009c0,1.222-.273,2-.819,2.353s-1.326.234-2.353-.364a6.108,6.108,0,0,1-2.353-2.353Zm3.433-.689V103.98a2.251,2.251,0,0,0-1.079-2.119c-.715-.416-1.079-.13-1.079.871v8.321a2.251,2.251,0,0,0,1.079,2.119C79.178,113.589,79.542,113.3,79.542,112.3Z" transform="translate(22.604 29.761)" fill="#b9ddfc"/>
</svg>
