<svg xmlns="http://www.w3.org/2000/svg" width="375.22" height="312.685" viewBox="0 0 375.22 312.685">
  <g id="Grupo_131835" data-name="Grupo 131835" transform="translate(-8291.255 -941.636)">
    <g id="_1_2_D_copy_5" data-name="1_2_D copy 5" transform="translate(8261.875 904.156)">
      <path id="Trazado_120159" data-name="Trazado 120159" d="M210.742,68.94h0a8.169,8.169,0,0,0-8.172,8.172v12.24h16.335V77.112c0-4.058-2.553-8.172-6.489-8.172h-1.683Zm0,10.36a3.226,3.226,0,1,1,3.226-3.226A3.226,3.226,0,0,1,210.742,79.3Z" transform="translate(-11.251 -2.044)" fill="#197ca3"/>
      <path id="Trazado_120160" data-name="Trazado 120160" d="M403.132,360.71H30.848c-.813,0-1.468,2.338-1.468,5.227s.655,5.227,1.468,5.227H403.132c.813,0,1.468-2.338,1.468-5.227S403.946,360.71,403.132,360.71Z" transform="translate(0 -20.999)" fill="#0d3342"/>
      <path id="Trazado_120161" data-name="Trazado 120161" d="M333.921,150.336a1.164,1.164,0,0,0,.823.916c2.094.608,4.918,3.31,6.19,4.862l-3.525,9.762c-1.964.374-5.863.655-7.864-.215a1.17,1.17,0,0,0-1.225.178l-6.237,5.264a1.189,1.189,0,0,0-.383,1.178c.524,2.123-.411,5.919-1.113,7.789l-10.22,1.833c-1.309-1.515-3.5-4.75-3.749-6.919a1.169,1.169,0,0,0-.767-.972l-7.677-2.768a1.169,1.169,0,0,0-1.206.262c-1.571,1.515-5.33,2.6-7.3,2.927l-6.695-7.938c.655-1.889,2.366-5.4,4.124-6.7a1.185,1.185,0,0,0,.458-1.15l-1.44-8.032a1.164,1.164,0,0,0-.823-.916c-2.094-.608-4.918-3.31-6.19-4.862l3.525-9.762c1.964-.374,5.863-.655,7.864.215a1.17,1.17,0,0,0,1.225-.178l6.237-5.264a1.189,1.189,0,0,0,.383-1.178c-.524-2.123.411-5.919,1.113-7.789l10.22-1.833c1.309,1.515,3.5,4.75,3.75,6.919a1.169,1.169,0,0,0,.767.972l7.677,2.768a1.169,1.169,0,0,0,1.206-.262c1.571-1.515,5.33-2.6,7.3-2.927l6.695,7.938c-.655,1.889-2.366,5.4-4.124,6.7a1.185,1.185,0,0,0-.458,1.15l1.44,8.032Zm-16.083-6.461a10.225,10.225,0,1,0-1.225,14.409A10.225,10.225,0,0,0,317.839,143.875Zm5.012-4.226a16.781,16.781,0,1,0-2.01,23.647A16.779,16.779,0,0,0,322.85,139.648Z" transform="translate(-16.223 -5.299)" fill="#197ca3"/>
      <path id="Trazado_120162" data-name="Trazado 120162" d="M290.838,54.32a1.207,1.207,0,0,0,1.244.215c2.057-.832,6.022-.439,8.013,0l3.31,10.033c-1.337,1.533-4.282,4.208-6.433,4.769a1.194,1.194,0,0,0-.87.907l-1.692,8.135a1.191,1.191,0,0,0,.43,1.178c1.749,1.365,3.385,4.993,4,6.938l-7.031,7.882c-2-.393-5.788-1.608-7.349-3.188a1.192,1.192,0,0,0-1.225-.3l-7.892,2.6a1.188,1.188,0,0,0-.8.963c-.309,2.2-2.637,5.433-4,6.938l-10.351-2.151c-.664-1.926-1.505-5.816-.916-7.957a1.19,1.19,0,0,0-.355-1.206l-6.2-5.526a1.207,1.207,0,0,0-1.244-.215c-2.057.832-6.022.439-8.013,0L240.15,74.3c1.337-1.533,4.282-4.208,6.433-4.769a1.194,1.194,0,0,0,.87-.907l1.692-8.135a1.191,1.191,0,0,0-.43-1.178c-1.749-1.365-3.385-4.993-4-6.938l7.031-7.882c2,.393,5.788,1.608,7.349,3.188a1.192,1.192,0,0,0,1.225.3l7.892-2.6a1.188,1.188,0,0,0,.8-.963c.309-2.2,2.637-5.433,4-6.938l10.351,2.151c.664,1.926,1.505,5.816.916,7.957a1.19,1.19,0,0,0,.355,1.206l6.2,5.526ZM273.9,59.257a10.405,10.405,0,1,0,8.069,12.305A10.409,10.409,0,0,0,273.9,59.257Zm1.356-6.536a17.08,17.08,0,1,0,13.249,20.2A17.078,17.078,0,0,0,275.251,52.721Z" transform="translate(-13.693)" fill="#ffb30b"/>
      <g id="Grupo_113720" data-name="Grupo 113720" transform="translate(292.19 45.605)">
        <path id="Trazado_120163" data-name="Trazado 120163" d="M372.237,71.444a1.309,1.309,0,0,1-1.216-.683l-4.46-8.06a1.335,1.335,0,0,1,.065-1.393c1.4-2.029,1.945-6.4,1.954-8.668L358.539,46.6c-1.992,1.066-5.6,3.6-6.732,5.8a1.338,1.338,0,0,1-1.2.72l-9.21-.159a1.294,1.294,0,0,1-1.169-.757c-1.057-2.225-4.572-4.89-6.527-6.031l-10.248,5.676c-.065,2.253.318,6.657,1.655,8.724a1.314,1.314,0,0,1,.019,1.393l-4.75,7.892a1.333,1.333,0,0,1-1.244.636c-2.459-.206-6.517,1.515-8.481,2.637l-.206,11.716c1.917,1.187,5.919,3.048,8.387,2.936a1.309,1.309,0,0,1,1.216.683l4.46,8.06a1.316,1.316,0,0,1-.075,1.393c-1.4,2.029-1.945,6.4-1.954,8.668l10.042,6.04c1.992-1.066,5.6-3.6,6.732-5.8a1.313,1.313,0,0,1,1.2-.711l9.21.159a1.294,1.294,0,0,1,1.169.757c1.057,2.225,4.572,4.89,6.527,6.031l10.248-5.676c.065-2.253-.318-6.657-1.655-8.724a1.314,1.314,0,0,1-.019-1.393l4.75-7.892a1.333,1.333,0,0,1,1.244-.636c2.459.206,6.517-1.515,8.481-2.637l.206-11.716c-1.917-1.187-5.919-3.048-8.387-2.936Zm-7.761,8.509a18.947,18.947,0,1,1-18.607-19.28A18.946,18.946,0,0,1,364.476,79.953Z" transform="translate(-310.45 -46.17)" fill="#5da6c7"/>
        <path id="Trazado_120164" data-name="Trazado 120164" d="M347.374,69.6a11.54,11.54,0,1,0,11.333,11.744A11.541,11.541,0,0,0,347.374,69.6Z" transform="translate(-312.086 -47.692)" fill="#5da6c7"/>
      </g>
      <path id="Trazado_120165" data-name="Trazado 120165" d="M16.092,0H237.863a16.1,16.1,0,0,1,16.092,16.092V184.211A16.1,16.1,0,0,1,237.863,200.3H16.092A16.1,16.1,0,0,1,0,184.211V16.092A16.1,16.1,0,0,1,16.092,0Z" transform="translate(97.684 341.348) rotate(-90)" fill="#084a93"/>
      <path id="Trazado_120166" data-name="Trazado 120166" d="M16.288,0h192.6a16.3,16.3,0,0,1,16.288,16.288V156.815A16.3,16.3,0,0,1,208.887,173.1H16.288A16.3,16.3,0,0,1,0,156.815V16.288A16.3,16.3,0,0,1,16.288,0Z" transform="translate(111.289 329.809) rotate(-90)" fill="#fcfefe"/>
      <g id="Grupo_113729" data-name="Grupo 113729" transform="translate(126.15 142.284)">
        <g id="Grupo_113722" data-name="Grupo 113722">
          <g id="Grupo_113721" data-name="Grupo 113721" transform="translate(5.803 8.681)">
            <rect id="Rectángulo_40451" data-name="Rectángulo 40451" width="17.149" height="22.273" transform="translate(17.149 22.273) rotate(180)" fill="#5da6c7"/>
            <rect id="Rectángulo_40452" data-name="Rectángulo 40452" width="18.224" height="13.577" transform="translate(15.363 2.029) rotate(90)" fill="#fcfefe"/>
          </g>
          <path id="Trazado_120167" data-name="Trazado 120167" d="M133.45,149.729a1.07,1.07,0,0,1,1.543.5l12.427,25.2,3.637-10.211a1.1,1.1,0,0,1,1.477-.711,1.347,1.347,0,0,1,.626,1.674l-5.414,15.166L133.02,151.468a1.372,1.372,0,0,1,.439-1.749Z" transform="translate(-132.874 -149.566)" fill="#00defc"/>
        </g>
        <g id="Grupo_113724" data-name="Grupo 113724" transform="translate(0 34.503)">
          <g id="Grupo_113723" data-name="Grupo 113723" transform="translate(5.803 10.803)">
            <rect id="Rectángulo_40453" data-name="Rectángulo 40453" width="17.149" height="22.273" transform="translate(17.149 22.273) rotate(180)" fill="#5da6c7"/>
            <rect id="Rectángulo_40454" data-name="Rectángulo 40454" width="18.224" height="13.577" transform="translate(15.363 2.01) rotate(90)" fill="#fcfefe"/>
          </g>
          <path id="Trazado_120168" data-name="Trazado 120168" d="M133.45,186.629a1.07,1.07,0,0,1,1.543.5l12.427,25.2,3.637-10.211a1.1,1.1,0,0,1,1.477-.711,1.347,1.347,0,0,1,.626,1.674l-5.414,15.166L133.02,188.368a1.372,1.372,0,0,1,.439-1.749Z" transform="translate(-132.874 -186.466)" fill="#00defc"/>
        </g>
        <g id="Grupo_113726" data-name="Grupo 113726" transform="translate(0 69.651)">
          <g id="Grupo_113725" data-name="Grupo 113725" transform="translate(5.803 10.794)">
            <rect id="Rectángulo_40455" data-name="Rectángulo 40455" width="17.149" height="22.273" transform="translate(17.149 22.273) rotate(180)" fill="#5da6c7"/>
            <rect id="Rectángulo_40456" data-name="Rectángulo 40456" width="18.224" height="13.577" transform="translate(15.363 2.02) rotate(90)" fill="#fcfefe"/>
          </g>
          <path id="Trazado_120169" data-name="Trazado 120169" d="M133.45,224.219a1.07,1.07,0,0,1,1.543.5l12.427,25.2,3.637-10.211a1.1,1.1,0,0,1,1.477-.711,1.347,1.347,0,0,1,.626,1.674l-5.414,15.166L133.02,225.958a1.372,1.372,0,0,1,.439-1.749Z" transform="translate(-132.874 -224.056)" fill="#00defc"/>
        </g>
        <g id="Grupo_113728" data-name="Grupo 113728" transform="translate(0 104.789)">
          <g id="Grupo_113727" data-name="Grupo 113727" transform="translate(5.803 10.803)">
            <rect id="Rectángulo_40457" data-name="Rectángulo 40457" width="17.149" height="22.273" transform="translate(17.149 22.273) rotate(180)" fill="#5da6c7"/>
            <rect id="Rectángulo_40458" data-name="Rectángulo 40458" width="18.224" height="13.577" transform="translate(15.363 2.02) rotate(90)" fill="#fcfefe"/>
          </g>
          <path id="Trazado_120170" data-name="Trazado 120170" d="M133.45,261.8a1.07,1.07,0,0,1,1.543.5l12.427,25.2,3.637-10.211a1.1,1.1,0,0,1,1.477-.711,1.347,1.347,0,0,1,.626,1.674l-5.414,15.166L133.02,263.538a1.372,1.372,0,0,1,.439-1.749Z" transform="translate(-132.874 -261.636)" fill="#00defc"/>
        </g>
      </g>
      <g id="Grupo_113730" data-name="Grupo 113730" transform="translate(157.48 155.35)">
        <path id="Trazado_120171" data-name="Trazado 120171" d="M268.86,165.747H167.483a1.105,1.105,0,0,1-1.1-1.1h0a1.105,1.105,0,0,1,1.1-1.1H268.86a1.105,1.105,0,0,1,1.1,1.1h0A1.105,1.105,0,0,1,268.86,165.747Z" transform="translate(-166.38 -163.54)" fill="#12263f"/>
        <path id="Trazado_120172" data-name="Trazado 120172" d="M268.86,172.567H167.483a1.105,1.105,0,0,1-1.1-1.1h0a1.105,1.105,0,0,1,1.1-1.1H268.86a1.105,1.105,0,0,1,1.1,1.1h0A1.105,1.105,0,0,1,268.86,172.567Z" transform="translate(-166.38 -163.983)" fill="#12263f"/>
        <path id="Trazado_120173" data-name="Trazado 120173" d="M217.536,177.179H167.53a1.135,1.135,0,0,0-1.141.991,1.1,1.1,0,0,0,1.094,1.206h50.052a1.105,1.105,0,0,0,1.1-1.1h0a1.105,1.105,0,0,0-1.1-1.1Z" transform="translate(-166.38 -164.425)" fill="#12263f"/>
      </g>
      <g id="Grupo_113731" data-name="Grupo 113731" transform="translate(157.938 192.808)">
        <path id="Trazado_120174" data-name="Trazado 120174" d="M269.35,205.807H167.973a1.105,1.105,0,0,1-1.1-1.1h0a1.105,1.105,0,0,1,1.1-1.1H269.35a1.105,1.105,0,0,1,1.1,1.1h0A1.105,1.105,0,0,1,269.35,205.807Z" transform="translate(-166.87 -203.6)" fill="#12263f"/>
        <path id="Trazado_120175" data-name="Trazado 120175" d="M269.35,212.627H167.973a1.105,1.105,0,0,1-1.1-1.1h0a1.105,1.105,0,0,1,1.1-1.1H269.35a1.105,1.105,0,0,1,1.1,1.1h0A1.105,1.105,0,0,1,269.35,212.627Z" transform="translate(-166.87 -204.043)" fill="#12263f"/>
        <path id="Trazado_120176" data-name="Trazado 120176" d="M218.026,217.249H168.02a1.135,1.135,0,0,0-1.141.991,1.1,1.1,0,0,0,1.094,1.206h50.052a1.105,1.105,0,0,0,1.1-1.1h0a1.105,1.105,0,0,0-1.1-1.1Z" transform="translate(-166.87 -204.486)" fill="#12263f"/>
      </g>
      <g id="Grupo_113732" data-name="Grupo 113732" transform="translate(157.48 226.385)">
        <path id="Trazado_120177" data-name="Trazado 120177" d="M268.86,241.717H167.483a1.105,1.105,0,0,1-1.1-1.1h0a1.105,1.105,0,0,1,1.1-1.1H268.86a1.105,1.105,0,0,1,1.1,1.1h0A1.105,1.105,0,0,1,268.86,241.717Z" transform="translate(-166.38 -239.51)" fill="#12263f"/>
        <path id="Trazado_120178" data-name="Trazado 120178" d="M268.86,248.537H167.483a1.105,1.105,0,0,1-1.1-1.1h0a1.105,1.105,0,0,1,1.1-1.1H268.86a1.105,1.105,0,0,1,1.1,1.1h0A1.105,1.105,0,0,1,268.86,248.537Z" transform="translate(-166.38 -239.953)" fill="#12263f"/>
        <path id="Trazado_120179" data-name="Trazado 120179" d="M217.536,253.149H167.53a1.135,1.135,0,0,0-1.141.991,1.1,1.1,0,0,0,1.094,1.206h50.052a1.105,1.105,0,0,0,1.1-1.1h0a1.105,1.105,0,0,0-1.1-1.1Z" transform="translate(-166.38 -240.395)" fill="#12263f"/>
      </g>
      <g id="Grupo_113733" data-name="Grupo 113733" transform="translate(157.938 262.01)">
        <path id="Trazado_120180" data-name="Trazado 120180" d="M269.35,279.817H167.973a1.105,1.105,0,0,1-1.1-1.1h0a1.105,1.105,0,0,1,1.1-1.1H269.35a1.105,1.105,0,0,1,1.1,1.1h0A1.105,1.105,0,0,1,269.35,279.817Z" transform="translate(-166.87 -277.61)" fill="#12263f"/>
        <path id="Trazado_120181" data-name="Trazado 120181" d="M269.35,286.637H167.973a1.105,1.105,0,0,1-1.1-1.1h0a1.105,1.105,0,0,1,1.1-1.1H269.35a1.105,1.105,0,0,1,1.1,1.1h0A1.105,1.105,0,0,1,269.35,286.637Z" transform="translate(-166.87 -278.053)" fill="#12263f"/>
        <path id="Trazado_120182" data-name="Trazado 120182" d="M218.026,291.249H168.02a1.135,1.135,0,0,0-1.141.991,1.1,1.1,0,0,0,1.094,1.206h50.052a1.105,1.105,0,0,0,1.1-1.1h0a1.105,1.105,0,0,0-1.1-1.1Z" transform="translate(-166.87 -278.495)" fill="#12263f"/>
      </g>
      <path id="Trazado_120183" data-name="Trazado 120183" d="M169.66,108.1H234.3l-.673-17.242H170.333Z" transform="translate(-9.113 -3.468)" fill="#12263f"/>
      <path id="Trazado_120184" data-name="Trazado 120184" d="M241.379,107.972H176.74l.991-19.112h62.657Z" transform="translate(-9.573 -3.338)" fill="#5da6c7"/>
      <path id="Trazado_120185" data-name="Trazado 120185" d="M212.392,68.94h0a8.169,8.169,0,0,0-8.172,8.172v12.24h16.335V77.112a8.169,8.169,0,0,0-8.172-8.172Zm0,10.36a3.226,3.226,0,1,1,3.226-3.226A3.226,3.226,0,0,1,212.392,79.3Z" transform="translate(-11.359 -2.044)" fill="#5da6c7"/>
      <g id="Grupo_113743" data-name="Grupo 113743" transform="translate(229.909 162.409)">
        <g id="Grupo_113735" data-name="Grupo 113735" transform="translate(56.334 163.539)">
          <path id="Trazado_120186" data-name="Trazado 120186" d="M410.534,350.28v13.212c0,2.132-23.825,3.871-53.222,3.871s-53.222-1.73-53.222-3.871V350.28H410.525Z" transform="translate(-304.09 -346.269)" fill="#197ca3"/>
          <g id="Grupo_113734" data-name="Grupo 113734" transform="translate(0 4.002)">
            <path id="Trazado_120187" data-name="Trazado 120187" d="M376.74,367.214V350.28h38.514v13.212c0,1.767-16.27,3.254-38.514,3.721Z" transform="translate(-308.81 -350.271)" fill="#5da6c7"/>
            <path id="Trazado_120188" data-name="Trazado 120188" d="M372.613,367.241c-4.133.075-8.462.112-12.913.112-6.639,0-12.988-.084-18.85-.252V350.27h31.763v16.962Z" transform="translate(-306.478 -350.27)" fill="#5da6c7"/>
            <path id="Trazado_120189" data-name="Trazado 120189" d="M336.33,367.045c-18.963-.589-32.24-1.964-32.24-3.553V350.28h32.24Z" transform="translate(-304.09 -350.271)" fill="#5da6c7"/>
          </g>
          <path id="Trazado_120190" data-name="Trazado 120190" d="M304.09,349.861c0,2.132,23.825,3.871,53.222,3.871s53.222-1.73,53.222-3.871-23.825-3.871-53.222-3.871-53.222,1.73-53.222,3.871Z" transform="translate(-304.09 -345.99)" fill="#197ca3"/>
          <ellipse id="Elipse_4746" data-name="Elipse 4746" cx="43.825" cy="2.684" rx="43.825" ry="2.684" transform="translate(9.397 1.188)" fill="#e8f3f7"/>
        </g>
        <g id="Grupo_113737" data-name="Grupo 113737" transform="translate(41.626 149.56)">
          <path id="Trazado_120191" data-name="Trazado 120191" d="M394.8,335.33v13.212c0,2.132-23.825,3.871-53.222,3.871s-53.222-1.73-53.222-3.871V335.33H394.8Z" transform="translate(-288.36 -331.319)" fill="#197ca3"/>
          <g id="Grupo_113736" data-name="Grupo 113736" transform="translate(0.009 4.002)">
            <path id="Trazado_120192" data-name="Trazado 120192" d="M361.01,352.263V335.33h38.514v13.212C399.524,350.309,383.254,351.8,361.01,352.263Z" transform="translate(-293.089 -335.321)" fill="#5da6c7"/>
            <path id="Trazado_120193" data-name="Trazado 120193" d="M356.883,352.291c-4.133.075-8.462.112-12.913.112-6.639,0-12.988-.084-18.85-.252V335.32h31.763v16.962Z" transform="translate(-290.757 -335.32)" fill="#5da6c7"/>
            <path id="Trazado_120194" data-name="Trazado 120194" d="M320.61,352.1c-18.962-.589-32.24-1.964-32.24-3.553V335.33h32.24Z" transform="translate(-288.37 -335.321)" fill="#5da6c7"/>
          </g>
          <ellipse id="Elipse_4747" data-name="Elipse 4747" cx="53.222" cy="3.871" rx="53.222" ry="3.871" fill="#197ca3"/>
          <path id="Trazado_120195" data-name="Trazado 120195" d="M298.41,334.994c0,1.477,19.617,2.684,43.825,2.684s43.825-1.2,43.825-2.684-19.617-2.684-43.825-2.684S298.41,333.507,298.41,334.994Z" transform="translate(-289.013 -331.122)" fill="#e8f3f7"/>
        </g>
        <g id="Grupo_113739" data-name="Grupo 113739" transform="translate(54.81 135.207)">
          <path id="Trazado_120196" data-name="Trazado 120196" d="M408.9,319.98v13.212c0,2.132-23.825,3.871-53.222,3.871s-53.222-1.73-53.222-3.871V319.98H408.9Z" transform="translate(-302.46 -315.969)" fill="#197ca3"/>
          <g id="Grupo_113738" data-name="Grupo 113738" transform="translate(0 4.002)">
            <path id="Trazado_120197" data-name="Trazado 120197" d="M375.11,336.913V319.98h38.514v13.212C413.624,334.959,397.354,336.446,375.11,336.913Z" transform="translate(-307.18 -319.971)" fill="#5da6c7"/>
            <path id="Trazado_120198" data-name="Trazado 120198" d="M370.983,336.941c-4.133.075-8.462.112-12.913.112-6.639,0-12.988-.084-18.85-.252V319.97h31.763v16.962Z" transform="translate(-304.848 -319.97)" fill="#5da6c7"/>
            <path id="Trazado_120199" data-name="Trazado 120199" d="M334.7,336.745c-18.963-.589-32.24-1.964-32.24-3.553V319.98H334.7Z" transform="translate(-302.46 -319.971)" fill="#5da6c7"/>
          </g>
          <path id="Trazado_120200" data-name="Trazado 120200" d="M302.46,319.561c0,2.132,23.825,3.871,53.222,3.871s53.222-1.73,53.222-3.871-23.825-3.871-53.222-3.871-53.222,1.73-53.222,3.871Z" transform="translate(-302.46 -315.69)" fill="#197ca3"/>
          <path id="Trazado_120201" data-name="Trazado 120201" d="M312.51,319.644c0,1.477,19.617,2.684,43.825,2.684s43.825-1.2,43.825-2.684-19.617-2.684-43.825-2.684S312.51,318.157,312.51,319.644Z" transform="translate(-303.113 -315.772)" fill="#e8f3f7"/>
        </g>
        <g id="Grupo_113741" data-name="Grupo 113741" transform="translate(41.626 121.051)">
          <path id="Trazado_120202" data-name="Trazado 120202" d="M394.8,304.84v13.212c0,2.132-23.825,3.871-53.222,3.871s-53.222-1.73-53.222-3.871V304.84H394.8Z" transform="translate(-288.36 -300.829)" fill="#197ca3"/>
          <g id="Grupo_113740" data-name="Grupo 113740" transform="translate(0.009 4.002)">
            <path id="Trazado_120203" data-name="Trazado 120203" d="M361.01,321.773V304.84h38.514v13.212C399.524,319.819,383.254,321.306,361.01,321.773Z" transform="translate(-293.089 -304.831)" fill="#5da6c7"/>
            <path id="Trazado_120204" data-name="Trazado 120204" d="M356.883,321.8c-4.133.075-8.462.112-12.913.112-6.639,0-12.988-.084-18.85-.252V304.83h31.763v16.962Z" transform="translate(-290.757 -304.83)" fill="#5da6c7"/>
            <path id="Trazado_120205" data-name="Trazado 120205" d="M320.61,321.605c-18.962-.589-32.24-1.964-32.24-3.553V304.84h32.24Z" transform="translate(-288.37 -304.831)" fill="#5da6c7"/>
          </g>
          <path id="Trazado_120206" data-name="Trazado 120206" d="M288.36,304.421c0,2.132,23.825,3.871,53.222,3.871s53.222-1.73,53.222-3.871-23.825-3.871-53.222-3.871S288.36,302.28,288.36,304.421Z" transform="translate(-288.36 -300.55)" fill="#197ca3"/>
          <path id="Trazado_120207" data-name="Trazado 120207" d="M298.41,304.5c0,1.477,19.617,2.684,43.825,2.684s43.825-1.2,43.825-2.684-19.617-2.684-43.825-2.684S298.41,303.017,298.41,304.5Z" transform="translate(-289.013 -300.633)" fill="#e8f3f7"/>
        </g>
        <g id="Grupo_113742" data-name="Grupo 113742">
          <path id="Trazado_120208" data-name="Trazado 120208" d="M336.96,173.979a28.559,28.559,0,0,0,3.338-1.337,17.009,17.009,0,0,1,3.806-1.431c2.1-.327,5.722-.112,7.723,2.048,2.487,2.693,6.91.486,6.022,14.587-1.01,15.952-9.911,14.2-10.126,13.932s-7.938-10.211-7.938-10.211-2.7,5.891-2.7,5.666-13.792-18.682-.122-23.273Z" transform="translate(-249.498 -171.089)" fill="#12263f"/>
          <path id="Trazado_120209" data-name="Trazado 120209" d="M298.061,351.781S296.8,358.5,296.8,358.5c-.075.879-.047,3.086-.234,3.852-.711,2.871-12.782-4.1-9.612-4.666a13.018,13.018,0,0,0,2.842-3.039,26.358,26.358,0,0,0,1.59-4.432l6.686,1.571Z" transform="translate(-246.608 -182.726)" fill="#f7a491"/>
          <path id="Trazado_120210" data-name="Trazado 120210" d="M286.694,357.692a44.9,44.9,0,0,0,4.7.926c1.59.159,3.619-2.31,4.759-1.842,1.253.514,1.936,8.331,1.936,8.331s-19.916.907-24.619-.393c-1.861-.514,7.031-4.656,13.221-7.031Z" transform="translate(-245.75 -183.148)" fill="#197ca3"/>
          <path id="Trazado_120211" data-name="Trazado 120211" d="M268.376,351.451s-1.262,6.714-1.262,6.723c-.075.879-.047,3.086-.234,3.852-.711,2.871-12.557-3.647-9.4-4.208a17.511,17.511,0,0,0,2.618-3.506,26.361,26.361,0,0,0,1.59-4.432Z" transform="translate(-244.693 -182.704)" fill="#f7a491"/>
          <path id="Trazado_120212" data-name="Trazado 120212" d="M257.314,357.692a44.9,44.9,0,0,0,4.7.926c1.59.159,3.619-2.31,4.759-1.842,1.253.514,1.936,8.331,1.936,8.331s-19.916.907-24.619-.393c-1.861-.514,7.031-4.656,13.221-7.031Z" transform="translate(-243.842 -183.148)" fill="#197ca3"/>
          <path id="Trazado_120213" data-name="Trazado 120213" d="M337.671,279l-36.233-8.406s-16.251-4.292-20.169.748-20.58,74.634-20.58,74.634,8.593.748,9.154.374l20.113-35.69a31.1,31.1,0,0,0,3.712-10.977l1.431-10.22,14.755,4.292s17,3.731,23.9-.561S337.671,279,337.671,279Z" transform="translate(-244.936 -177.442)" fill="#082330"/>
          <path id="Trazado_120214" data-name="Trazado 120214" d="M327.331,212.9c-.57.028-2.141.542-4.432,4.862-2.927,5.517-7.209,22.179-7.209,22.179l12.773,4.741,1.646-3.478,2.7-26.77s-5.32-1.543-5.479-1.533Z" transform="translate(-248.509 -173.805)" fill="#e8f3f7"/>
          <path id="Trazado_120215" data-name="Trazado 120215" d="M344.97,210.33c-3.656,0-12.688,1.066-16.887,2.4,0,0-3.086,26.4,2.777,46.462,1.309,4.488-1.085,18.617-1.085,18.617l37.85-.5s-4.488-34.147-2.8-39.664,1.73-24.741,1.73-24.741-.262-.037-8.509-1.459a86.49,86.49,0,0,0-13.091-1.122Z" transform="translate(-249.262 -173.638)" fill="#fcfefe"/>
          <path id="Trazado_120216" data-name="Trazado 120216" d="M366.674,216.227c-3.544-1.318-5.274,30.454-5.75,43.545-6.265.6-17.2,0-19.916-.2-1.281-.094-4.226-1.169-5.5-1.337a12.82,12.82,0,0,0-3.123-.15c-.234.037-6.77,2.7-7.331,3.291-.692.72-2.571,2.553-2.253,3.338s3.6-2.2,3.6-2.2l1.608-.9c-2,1.945-5.816,4.516-5.264,5.442.533.907,3.974-1.692,6.433-3.469-2.1,1.9-4.713,5.283-4.114,5.807.542.477,3.516-3.45,6.695-4.582,1.178-.421,2.347.739,3.273.879a6.738,6.738,0,0,0,2.4.131l3.188-.309a16.3,16.3,0,0,1,2.637.383c1.375.29,3.628.6,5.376,1.029,10.07,2.45,13.436,3.591,16.522,3.591,9.341,0,9.883-51.174,1.524-54.3Z" transform="translate(-248.964 -174.019)" fill="#f7a491"/>
          <path id="Trazado_120217" data-name="Trazado 120217" d="M375.922,245.858c.664-13.4.57-29.912-6.975-32.736-2.973-1.113-8.219,5.573-7.275,33.007,4.021.327,9.93.6,14.241-.271Z" transform="translate(-251.489 -173.812)" fill="#e8f3f7"/>
          <path id="Trazado_120218" data-name="Trazado 120218" d="M286.968,239.378l35.662,2.328a2.341,2.341,0,0,1,2.057,1.58l9.229,27.5,19.664,1.281a1.007,1.007,0,0,1,.935,1.057h0a.993.993,0,0,1-1.057.926L297.5,270.393a3.914,3.914,0,0,1-3.413-2.543l-9.444-25.358a2.332,2.332,0,0,1,2.338-3.142Z" transform="translate(-246.482 -175.523)" fill="#383838"/>
          <path id="Trazado_120219" data-name="Trazado 120219" d="M306.14,257.387a1.966,1.966,0,1,0,1.814-2.338A2.113,2.113,0,0,0,306.14,257.387Z" transform="translate(-247.888 -176.543)" fill="#fcfefe"/>
          <path id="Trazado_120220" data-name="Trazado 120220" d="M365.145,280.52,325.667,273.7s-17.074-2.6-20.992,2.44-15.316,70.408-15.316,70.408,8.593.748,9.154.374c.43-.29,10.837-22.076,15.5-31.894a37,37,0,0,0,3.095-9.827l1.505-8.892,4.965,1.711a60.677,60.677,0,0,0,27.2,2.908c3.834-.477,7.415-1.3,9.64-2.674,6.91-4.292,4.722-17.728,4.722-17.728Z" transform="translate(-246.799 -177.712)" fill="#0d3342"/>
          <path id="Trazado_120221" data-name="Trazado 120221" d="M344.512,204.556l-.767,5.7s-1.72,8.21.5,9.8,9.416-10.033,9.416-10.033L352.9,195.58l-8.378,8.976Z" transform="translate(-250.291 -172.68)" fill="#f7a491"/>
          <path id="Trazado_120222" data-name="Trazado 120222" d="M353.2,200.255a16.431,16.431,0,0,1-9.276,9.135l.655-4.834,8.378-8.976.243,4.685Z" transform="translate(-250.343 -172.68)" fill="#f47458"/>
          <path id="Trazado_120223" data-name="Trazado 120223" d="M344.49,178.753a7.613,7.613,0,0,0-8.78,7.686,55.832,55.832,0,0,0,.645,7.312c1.019,6.583,5.526,12.38,8.509,11.856s10.472-6.19,9.154-15.559c-.814-5.778-4.591-10.51-9.519-11.3Z" transform="translate(-249.81 -171.58)" fill="#f7a491"/>
          <path id="Trazado_120224" data-name="Trazado 120224" d="M353.057,191.83a2.218,2.218,0,1,0,1.683-2.992A2.448,2.448,0,0,0,353.057,191.83Z" transform="translate(-250.934 -172.24)" fill="#f7a491"/>
          <path id="Trazado_120225" data-name="Trazado 120225" d="M353.556,188.027s-3.6.888-4.937-1.421-6.115-7.293-12.193-5.227,5.348-5.021,5.835-5.021,6.321-.037,6.321-.037,4.5,3.684,4.656,4.1,1.459,4.815,1.459,4.815l-1.141,2.8Z" transform="translate(-249.741 -171.429)" fill="#12263f"/>
        </g>
      </g>
    </g>
  </g>
</svg>
