<svg xmlns="http://www.w3.org/2000/svg" width="585.691" height="343.296" viewBox="0 0 585.691 343.296">
  <g id="Grupo_131832" data-name="Grupo 131832" transform="translate(-834.309 -3909)">
    <rect id="BG" width="585.691" height="343.296" transform="translate(834.309 3909)" fill="#e8e8e8"/>
    <g id="escalera" transform="translate(996.643 3900.162)">
      <g id="Grupo_113852" data-name="Grupo 113852" transform="translate(169.613 66.104)">
        <g id="Grupo_113830" data-name="Grupo 113830" transform="translate(12.847 81.019)">
          <path id="Trazado_120431" data-name="Trazado 120431" d="M360.712,352.676a2.307,2.307,0,0,1-2.165-1.513L295.93,179.217,233.313,351.164a2.3,2.3,0,1,1-4.321-1.58L293.774,171.7a2.305,2.305,0,0,1,4.329,0l64.782,177.881a2.306,2.306,0,0,1-1.371,2.95,2.365,2.365,0,0,1-.786.142Z" transform="translate(-207.128 -170.19)" fill="#21529f"/>
          <path id="Trazado_120432" data-name="Trazado 120432" d="M310.9,199.337H276.808a2.3,2.3,0,1,1,0-4.6H310.9a2.3,2.3,0,0,1,0,4.6Z" transform="translate(-214.626 -174.221)" fill="#21529f"/>
          <path id="Trazado_120433" data-name="Trazado 120433" d="M321.716,229.347H289.228a2.3,2.3,0,0,1,0-4.6h32.487a2.3,2.3,0,0,1,0,4.6Z" transform="translate(-216.665 -179.149)" fill="#21529f"/>
          <path id="Trazado_120434" data-name="Trazado 120434" d="M278.843,229.347H247.727a2.3,2.3,0,0,1,0-4.6h31.116a2.3,2.3,0,0,1,0,4.6Z" transform="translate(-209.865 -179.149)" fill="#21529f"/>
          <path id="Trazado_120435" data-name="Trazado 120435" d="M332.216,259.367H299.728a2.3,2.3,0,1,1,0-4.6h32.487a2.3,2.3,0,1,1,0,4.6Z" transform="translate(-218.389 -184.079)" fill="#21529f"/>
          <path id="Trazado_120436" data-name="Trazado 120436" d="M270.426,259.367H237.938a2.3,2.3,0,1,1,0-4.6h32.487a2.3,2.3,0,0,1,0,4.6Z" transform="translate(-208.243 -184.079)" fill="#21529f"/>
          <path id="Trazado_120437" data-name="Trazado 120437" d="M342.706,289.377H310.218a2.3,2.3,0,1,1,0-4.6h32.487a2.3,2.3,0,1,1,0,4.6Z" transform="translate(-220.112 -189.007)" fill="#21529f"/>
          <path id="Trazado_120438" data-name="Trazado 120438" d="M259,289.377H226.508a2.3,2.3,0,1,1,0-4.6H259a2.3,2.3,0,1,1,0,4.6Z" transform="translate(-206.366 -189.007)" fill="#21529f"/>
          <path id="Trazado_120439" data-name="Trazado 120439" d="M353.206,319.387H320.718a2.3,2.3,0,0,1,0-4.6h32.487a2.3,2.3,0,0,1,0,4.6Z" transform="translate(-221.836 -193.935)" fill="#21529f"/>
          <path id="Trazado_120440" data-name="Trazado 120440" d="M248.456,319.387H215.968a2.3,2.3,0,0,1,0-4.6h32.487a2.3,2.3,0,0,1,0,4.6Z" transform="translate(-204.635 -193.935)" fill="#21529f"/>
          <path id="Trazado_120441" data-name="Trazado 120441" d="M363.706,349.407H331.218a2.3,2.3,0,1,1,0-4.6h32.487a2.3,2.3,0,1,1,0,4.6Z" transform="translate(-223.56 -198.864)" fill="#21529f"/>
          <path id="Trazado_120442" data-name="Trazado 120442" d="M237.646,349.407H205.158a2.3,2.3,0,1,1,0-4.6h32.487a2.3,2.3,0,1,1,0,4.6Z" transform="translate(-202.86 -198.864)" fill="#21529f"/>
          <path id="Trazado_120443" data-name="Trazado 120443" d="M301.76,174.8H267.668a2.3,2.3,0,1,1,0-4.6H301.76a2.3,2.3,0,0,1,0,4.6Z" transform="translate(-213.125 -170.192)" fill="#21529f"/>
        </g>
        <g id="Grupo_113851" data-name="Grupo 113851" transform="translate(59.024)">
          <g id="Grupo_113838" data-name="Grupo 113838" transform="translate(34.736 70.121)">
            <g id="Grupo_113833" data-name="Grupo 113833">
              <g id="Grupo_113832" data-name="Grupo 113832" transform="translate(0 105.034)">
                <path id="Trazado_120444" data-name="Trazado 120444" d="M321.066,301.258l1.045-18.438,9.9,1.3-1.947,19.365-9.47-1.68Z" transform="translate(-303.105 -282.82)" fill="#e0895a"/>
                <g id="Grupo_113831" data-name="Grupo 113831" transform="translate(0 14.284)">
                  <path id="Trazado_120445" data-name="Trazado 120445" d="M328,301.582s-6.661,3.435-10.364-1.672l-17.961,9.653,30.765-.192Z" transform="translate(-299.671 -299.91)"/>
                  <rect id="Rectángulo_40477" data-name="Rectángulo 40477" width="30.765" height="2.783" transform="translate(0 9.663) rotate(-0.36)" fill="#a59aa5"/>
                </g>
              </g>
              <path id="Trazado_120446" data-name="Trazado 120446" d="M331.4,157.15s-8.884,5.24-9.938,34.543-2.883,78.514-2.883,78.514h14.969l7.7-95.481-2.014-17.577h-7.823Z" transform="translate(-302.775 -157.15)" fill="#ffb30b"/>
            </g>
            <g id="Grupo_113837" data-name="Grupo 113837" transform="translate(25.85 2.766)">
              <g id="Grupo_113835" data-name="Grupo 113835" transform="translate(0 102.267)">
                <path id="Trazado_120447" data-name="Trazado 120447" d="M351.9,301.258l-.978-18.438,9.9,1.3.075,19.365-9.47-1.68Z" transform="translate(-333.936 -282.82)" fill="#e0895a"/>
                <g id="Grupo_113834" data-name="Grupo 113834" transform="translate(0 14.284)">
                  <path id="Trazado_120448" data-name="Trazado 120448" d="M358.935,301.582s-6.661,3.435-10.364-1.672l-17.961,9.653,30.765-.192Z" transform="translate(-330.6 -299.91)"/>
                  <rect id="Rectángulo_40478" data-name="Rectángulo 40478" width="30.765" height="2.783" transform="translate(0 9.668) rotate(-0.36)" fill="#a59aa5"/>
                </g>
              </g>
              <g id="Grupo_113836" data-name="Grupo 113836" transform="translate(2.651)">
                <path id="Trazado_120449" data-name="Trazado 120449" d="M355.22,161.488s8.976,10.4,7.664,28.609l-.435,80.854-17.017-.443L340.05,160.46l15.178,1.028Z" transform="translate(-334.801 -160.46)" fill="#ffb30b"/>
                <path id="Trazado_120450" data-name="Trazado 120450" d="M341.167,211.279l-.961-23.427L333.77,178.9" transform="translate(-333.77 -163.488)" fill="none" stroke="#eaae28" stroke-miterlimit="10" stroke-width="1.49"/>
              </g>
            </g>
          </g>
          <g id="Grupo_113849" data-name="Grupo 113849" transform="translate(0 23.693)">
            <g id="Grupo_113842" data-name="Grupo 113842">
              <g id="Grupo_113841" data-name="Grupo 113841">
                <g id="Grupo_113840" data-name="Grupo 113840">
                  <path id="Trazado_120451" data-name="Trazado 120451" d="M267.29,116.732l19.14,18.187a5.227,5.227,0,0,0,8.2-1.3l1.847-3.393-25.884-18.78-3.3,5.282Z" transform="translate(-259.616 -103.218)" fill="#e0895a"/>
                  <g id="Grupo_113839" data-name="Grupo 113839">
                    <path id="Trazado_120452" data-name="Trazado 120452" d="M269.518,113.207a5.847,5.847,0,1,1-3.761-7.363A5.845,5.845,0,0,1,269.518,113.207Z" transform="translate(-258.108 -102.25)" fill="#e0895a"/>
                    <path id="Trazado_120453" data-name="Trazado 120453" d="M265.545,105.1l-5.391-3.318a1.017,1.017,0,0,0-1.379.2h0a.866.866,0,0,0,.109,1.17l5.107,4.538,1.546-2.591Z" transform="translate(-258.189 -101.601)" fill="#e0895a"/>
                  </g>
                </g>
                <path id="Trazado_120454" data-name="Trazado 120454" d="M293.258,127.812l24.647-9.1-1.153,11.651s-13.272,5.775-21.63,7.087-1.864-9.628-1.864-9.628Z" transform="translate(-263.486 -104.41)" fill="#e0895a"/>
              </g>
              <path id="Trazado_120455" data-name="Trazado 120455" d="M326.1,117.79s-2.265-3.519-8.09-1.07-16.507,6.043-16.507,6.043l9.261,15.88,17.552-6.586L326.1,117.8Z" transform="translate(-265.234 -103.941)" fill="#00defc"/>
            </g>
            <g id="Grupo_113843" data-name="Grupo 113843" transform="translate(53.425 9.084)">
              <path id="Trazado_120456" data-name="Trazado 120456" d="M353.21,113.707l-13-1.237L323.9,115.454s-1.078,23.477,1.638,35.538a4.36,4.36,0,0,0,4.572,3.41l23.285.326a9.146,9.146,0,0,0,3.318-7.138L355.04,115.6a2.02,2.02,0,0,0-1.83-1.906Z" transform="translate(-322.302 -112.47)" fill="#00defc"/>
              <line id="Línea_317" data-name="Línea 317" x1="0.794" y1="8.968" transform="translate(0 12.646)" fill="none" stroke="#1c96d3" stroke-miterlimit="10" stroke-width="1.49"/>
            </g>
            <g id="Grupo_113848" data-name="Grupo 113848" transform="translate(66.93 10.179)">
              <g id="Grupo_113845" data-name="Grupo 113845" transform="translate(12.889)">
                <path id="Trazado_120457" data-name="Trazado 120457" d="M377.805,154.883c-.059-.435,2.984-5.65,2.984-5.65l-8.533-17.61c-1.178-3.51-8.592-15.7-11.634-13.582-2.232,1.563-.777,15.236.41,17.685L370.082,153l7.723,1.881Z" transform="translate(-354.57 -114.439)" fill="#e0895a"/>
                <g id="Grupo_113844" data-name="Grupo 113844">
                  <path id="Trazado_120458" data-name="Trazado 120458" d="M357.5,113.78s7.489.552,10.4,5.115c3.677,5.784,10.046,15.145,10.046,15.145l-19.131,7.171Z" transform="translate(-354.249 -113.78)" fill="#00defc"/>
                  <line id="Línea_318" data-name="Línea 318" x1="7.163" y1="12.32" transform="translate(0 14.133)" fill="none" stroke="#1c96d3" stroke-miterlimit="10" stroke-width="1.49"/>
                </g>
              </g>
              <g id="Grupo_113847" data-name="Grupo 113847" transform="translate(0 30.81)">
                <path id="Trazado_120459" data-name="Trazado 120459" d="M370.826,151.384,349.94,166.479l3.326,4.889,22.633-9.8a5.692,5.692,0,0,0,2.031-8.96h0A5.688,5.688,0,0,0,370.826,151.384Z" transform="translate(-340.118 -150.643)" fill="#e0895a"/>
                <g id="Grupo_113846" data-name="Grupo 113846" transform="translate(0 15.318)">
                  <path id="Trazado_120460" data-name="Trazado 120460" d="M351.93,173.609s-2.833,6.77-8.2,6.093c-6.193-.777-6.728-5.683-3.9-6.678l4.179.309a4.588,4.588,0,0,1,2.683-3.861,6.329,6.329,0,0,1,2.232-.5l3,4.63Z" transform="translate(-338.188 -168.97)" fill="#e0895a"/>
                  <path id="Trazado_120461" data-name="Trazado 120461" d="M348.237,169.2l-5.775,1.045a.83.83,0,0,0-.652.8h0a.82.82,0,0,0,.752.819l5.583.468.092-3.143Z" transform="translate(-338.783 -169.006)" fill="#e0895a"/>
                </g>
              </g>
            </g>
          </g>
          <g id="Grupo_113850" data-name="Grupo 113850" transform="translate(49.969)">
            <path id="Trazado_120462" data-name="Trazado 120462" d="M320.507,90.406a25.319,25.319,0,0,0,3.828-4.823l1.747-4.463,5.516,1.513-2.666,5.491-1.513,1.053,11.141,12.988s-8.074,7.8-15.855,2.875c-6.561-4.154-5.5-11.852-2.2-14.635Z" transform="translate(-317.895 -74.545)" fill="#12263f"/>
            <path id="Trazado_120463" data-name="Trazado 120463" d="M354.75,84.65a10.25,10.25,0,0,0,4.054,6.335c3.385,2.265,4.354,10.481-2.2,14.635-7.781,4.923-15.855-2.875-15.855-2.875L354.758,84.65Z" transform="translate(-321.648 -75.124)" fill="#12263f"/>
            <path id="Trazado_120464" data-name="Trazado 120464" d="M331.2,75.407s15.671-6.745,21,3.636c3.134,6.1-.61,16.8-8.308,19.85-7.338,2.909-5.257-21-5.257-21L331.2,75.4Z" transform="translate(-320.08 -73.253)" fill="#12263f"/>
            <path id="Trazado_120465" data-name="Trazado 120465" d="M332.153,92.785a3.586,3.586,0,1,1-3.878-3.268A3.587,3.587,0,0,1,332.153,92.785Z" transform="translate(-319.061 -75.921)" fill="#cc6e44"/>
            <path id="Trazado_120466" data-name="Trazado 120466" d="M334.91,104.548l.61,7.79c.209,2.733,2.006,4.07,4.7,3.845h0c2.3-.192,4.354-1.563,4.446-3.861l-1.546-12.211-8.207,4.446Z" transform="translate(-320.689 -77.663)" fill="#e0895a"/>
            <path id="Trazado_120467" data-name="Trazado 120467" d="M335.32,110.542l8.993-8.182-9.5,1.764Z" transform="translate(-320.673 -78.032)" fill="#cc6e44"/>
            <path id="Trazado_120468" data-name="Trazado 120468" d="M335.988,101.915h0c-4.605.084-8.467-3.494-8.659-7.255l-.4-8.876a8.742,8.742,0,0,1,8-9.16h0c4.814-.41,9.887,3.1,10.3,7.907l.242,7.138c.192,5.525-3.978,9.77-9.478,10.238Z" transform="translate(-319.376 -73.801)" fill="#e0895a"/>
            <path id="Trazado_120469" data-name="Trazado 120469" d="M345,90.707a6.878,6.878,0,0,0-3.042-4.772c-2.691-1.58-10.029-3.87-9.286-9.561,0,0,11.383-3.343,15.579,4.1S345,90.7,345,90.7Z" transform="translate(-320.313 -73.642)" fill="#12263f"/>
            <path id="Trazado_120470" data-name="Trazado 120470" d="M352.973,93.155a3.586,3.586,0,1,1-3.878-3.268A3.587,3.587,0,0,1,352.973,93.155Z" transform="translate(-322.48 -75.982)" fill="#e0895a"/>
            <path id="Trazado_120471" data-name="Trazado 120471" d="M334.631,76.372s-.827,4.672-8.065,7.8c0,0-1.8-3.393,3.017-7.882a2.407,2.407,0,0,1,1.647-.652l5.583-.017-2.173.744Z" transform="translate(-319.265 -73.641)" fill="#201c30"/>
            <path id="Trazado_120472" data-name="Trazado 120472" d="M347.8,113.017l-7.255-.777-9.612,2.106s.033,6.9,7.815,6.436a9.7,9.7,0,0,0,9.052-7.764Z" transform="translate(-320.036 -79.655)" fill="#e0895a"/>
          </g>
        </g>
        <path id="Trazado_120473" data-name="Trazado 120473" d="M319.352,352.676a2.307,2.307,0,0,1-2.165-1.513L254.57,179.217,191.953,351.164a2.3,2.3,0,1,1-4.321-1.58L252.414,171.7a2.305,2.305,0,0,1,4.329,0l64.782,177.881a2.306,2.306,0,0,1-1.371,2.95,2.365,2.365,0,0,1-.786.142Z" transform="translate(-187.488 -89.171)" fill="#12263f"/>
      </g>
      <path id="Trazado_120474" data-name="Trazado 120474" d="M157.838,118.489H90.406c-6.87,0-12.127-6.118-11.76-13.557l3.193-63.821A12,12,0,0,1,93.649,29.72h60.946A12,12,0,0,1,166.4,41.112l3.193,63.821C169.965,112.371,164.708,118.489,157.838,118.489Z" fill="#b9ddfc"/>
      <path id="Trazado_120475" data-name="Trazado 120475" d="M157.838,239.759H90.406c-6.87,0-12.127-6.118-11.76-13.557l3.193-63.821a12,12,0,0,1,11.81-11.392h60.946a12,12,0,0,1,11.81,11.392L169.6,226.2C169.965,233.641,164.708,239.759,157.838,239.759Z" transform="translate(0 -19.914)" fill="#727997"/>
      <path id="Trazado_120476" data-name="Trazado 120476" d="M157.838,361.029H90.406c-6.87,0-12.127-6.118-11.76-13.557l3.193-63.821a12,12,0,0,1,11.81-11.392h60.946a12,12,0,0,1,11.81,11.392l3.193,63.821C169.965,354.911,164.708,361.029,157.838,361.029Z" transform="translate(0 -39.827)" fill="#ffb30b"/>
      <path id="Trazado_191699" data-name="Trazado 191699" d="M7.348,0H4.377V-9.457L1.459-8.6v-2.25L7.075-12.8h.272Zm5.739-2.874a1.686,1.686,0,0,1,1.169.417,1.37,1.37,0,0,1,.466,1.068,1.37,1.37,0,0,1-.466,1.068A1.686,1.686,0,0,1,13.087.1a1.672,1.672,0,0,1-1.173-.422,1.379,1.379,0,0,1-.461-1.063,1.379,1.379,0,0,1,.461-1.063A1.672,1.672,0,0,1,13.087-2.874Z" transform="translate(94.836 53.71)"/>
      <path id="Trazado_191697" data-name="Trazado 191697" d="M9.712,0H.782V-1.934L4.9-6.258A4.909,4.909,0,0,0,6.416-9.009a1.913,1.913,0,0,0-.36-1.257A1.287,1.287,0,0,0,5.01-10.7a1.3,1.3,0,0,0-1.1.576,2.366,2.366,0,0,0-.422,1.437H.519a4.2,4.2,0,0,1,.589-2.175,4.129,4.129,0,0,1,1.635-1.56,4.856,4.856,0,0,1,2.338-.562,4.777,4.777,0,0,1,3.195.958A3.42,3.42,0,0,1,9.4-9.272,4,4,0,0,1,9.114-7.8,6.456,6.456,0,0,1,8.24-6.3a22.029,22.029,0,0,1-1.912,2.1L4.676-2.285H9.712Zm3.375-2.874a1.686,1.686,0,0,1,1.169.417,1.37,1.37,0,0,1,.466,1.068,1.37,1.37,0,0,1-.466,1.068A1.686,1.686,0,0,1,13.087.1a1.672,1.672,0,0,1-1.173-.422,1.379,1.379,0,0,1-.461-1.063,1.379,1.379,0,0,1,.461-1.063A1.672,1.672,0,0,1,13.087-2.874Z" transform="translate(94.836 156.428)" fill="#fff"/>
      <path id="Trazado_191698" data-name="Trazado 191698" d="M3.489-7.638h1.4A1.453,1.453,0,0,0,6.548-9.264a1.406,1.406,0,0,0-.4-1.033,1.5,1.5,0,0,0-1.116-.4,1.606,1.606,0,0,0-1.024.343,1.046,1.046,0,0,0-.435.853H.615a3.032,3.032,0,0,1,.563-1.8,3.715,3.715,0,0,1,1.56-1.235,5.334,5.334,0,0,1,2.193-.444,5.241,5.241,0,0,1,3.357.976A3.243,3.243,0,0,1,9.51-9.325,2.7,2.7,0,0,1,9-7.765,3.6,3.6,0,0,1,7.532-6.574a3.441,3.441,0,0,1,1.6,1.121,2.951,2.951,0,0,1,.58,1.859A3.3,3.3,0,0,1,8.394-.853,5.472,5.472,0,0,1,4.931.176,5.675,5.675,0,0,1,2.6-.3,3.656,3.656,0,0,1,.967-1.63,3.45,3.45,0,0,1,.413-3.56H3.393a1.334,1.334,0,0,0,.475,1.02,1.676,1.676,0,0,0,1.169.431,1.755,1.755,0,0,0,1.248-.435A1.454,1.454,0,0,0,6.75-3.656a1.7,1.7,0,0,0-.483-1.371,2.021,2.021,0,0,0-1.336-.4H3.489Zm9.6,4.764a1.686,1.686,0,0,1,1.169.417,1.37,1.37,0,0,1,.466,1.068,1.37,1.37,0,0,1-.466,1.068A1.686,1.686,0,0,1,13.087.1a1.672,1.672,0,0,1-1.173-.422,1.379,1.379,0,0,1-.461-1.063,1.379,1.379,0,0,1,.461-1.063A1.672,1.672,0,0,1,13.087-2.874Z" transform="translate(94.836 256.539)"/>
    </g>
  </g>
</svg>
