<svg xmlns="http://www.w3.org/2000/svg" width="379.734" height="201.801" viewBox="0 0 379.734 201.801">
  <g id="Grupo_131834" data-name="Grupo 131834" transform="translate(-6068 -3646)">
    <g id="scrumer_05" data-name="scrumer 05" transform="translate(6117.14 3616.18)">
      <path id="Trazado_120288" data-name="Trazado 120288" d="M275.8,40.153a5.161,5.161,0,1,1,5.161-5.161,5.161,5.161,0,0,1-5.161,5.161ZM56.742,163.842H29.18a27.049,27.049,0,0,0-26.97,26.97h0a27.052,27.052,0,0,0,26.97,26.97H262.243A43.808,43.808,0,0,0,305.92,174.1h0a43.8,43.8,0,0,0-43.677-43.677h0a18.52,18.52,0,0,1-18.467-18.467h0a18.52,18.52,0,0,1,18.467-18.467h22.226a19.254,19.254,0,0,0,19.2-19.2h0a19.254,19.254,0,0,0-19.2-19.2H256.361a7.5,7.5,0,0,1-7.477-7.477h0a7.5,7.5,0,0,1,7.477-7.477h4.955a5.176,5.176,0,0,0,5.161-5.161h0a5.176,5.176,0,0,0-5.161-5.161H228.805c-6.844,0-7.612,8.087-24.9,8.087h-40.1a6.755,6.755,0,0,0-6.732,6.732h0a6.751,6.751,0,0,0,6.732,6.732h6.462a9.782,9.782,0,0,1,9.752,9.752h0a9.782,9.782,0,0,1-9.752,9.752H150.81c-26.272,0-29.984,6.867-34.582,20.519s-28.494,14.754-28.494,14.754H55.059a14.741,14.741,0,0,0-14.7,14.7h0a14.741,14.741,0,0,0,14.7,14.7h1.683A14.181,14.181,0,0,1,70.88,149.68h0a14.181,14.181,0,0,1-14.139,14.139h0Z" transform="translate(-21.237 0)" fill="#fff" fill-rule="evenodd"/>
      <path id="Trazado_120289" data-name="Trazado 120289" d="M330.594,366.014c0,1.818-85.008,3.29-189.867,3.29-59.165,0-112.013-.469-146.835-1.2-8.022-.17-15.083-.352-21.047-.545-3.929-.129-7.377-.264-10.315-.4-7.547-.352-11.67-.739-11.67-1.138,0-.51,6.691-.991,18.637-1.425,4.891-.176,10.661-.346,17.217-.5,34.488-.827,90.62-1.366,154.013-1.366,55.763,0,105.909.416,140.643,1.079,30.588.586,49.225,1.361,49.225,2.211Z" transform="translate(0 -137.683)" fill="#040c2b" opacity="0.15"/>
      <g id="Grupo_113818" data-name="Grupo 113818" transform="translate(37.065 55.869)">
        <g id="Grupo_113755" data-name="Grupo 113755" transform="translate(75.575 108.225)">
          <path id="Trazado_120290" data-name="Trazado 120290" d="M269.55,260.655l-.358,11.775-.3,10.1-.176,5.782-.921,30.2a1.807,1.807,0,0,1-3.612,0l-.921-30.2-.176-5.782-.3-10.1-.358-11.775a1.809,1.809,0,0,1,1.806-1.865h3.525a1.806,1.806,0,0,1,1.806,1.865Z" transform="translate(-241.493 -258.79)" fill="#acbcf8"/>
          <path id="Trazado_120291" data-name="Trazado 120291" d="M294.6,325.349a1.806,1.806,0,0,1-2.2-1.226l-9.946-33.051-1.742-5.782-3.038-10.1-1.953-6.492a1.812,1.812,0,0,1,1.267-2.27l3.4-.909a1.81,1.81,0,0,1,2.228,1.331l1.965,8.345,2.381,10.1,1.361,5.782,7.565,32.113a1.811,1.811,0,0,1-1.29,2.164Z" transform="translate(-246.964 -261.546)" fill="#acbcf8"/>
          <path id="Trazado_120292" data-name="Trazado 120292" d="M246.952,268.691,245,275.182l-3.038,10.1-1.742,5.782-9.946,33.051a1.807,1.807,0,0,1-3.489-.938l7.565-32.113,1.361-5.782,2.381-10.1,1.965-8.345a1.81,1.81,0,0,1,2.228-1.331l3.4.909a1.812,1.812,0,0,1,1.267,2.269Z" transform="translate(-226.735 -261.542)" fill="#acbcf8"/>
          <path id="Trazado_120293" data-name="Trazado 120293" d="M254.961,268.691l-1.953,6.492H246.1l1.965-8.345a1.81,1.81,0,0,1,2.228-1.331l3.4.909a1.812,1.812,0,0,1,1.267,2.269Z" transform="translate(-234.744 -261.542)" opacity="0.1"/>
          <path id="Trazado_120294" data-name="Trazado 120294" d="M269.546,260.655l-.358,11.775h-6.421l-.358-11.775a1.809,1.809,0,0,1,1.806-1.865h3.524A1.806,1.806,0,0,1,269.546,260.655Z" transform="translate(-241.488 -258.79)" opacity="0.1"/>
          <path id="Trazado_120295" data-name="Trazado 120295" d="M284.587,275.186h-6.908l-1.953-6.492a1.812,1.812,0,0,1,1.267-2.27l3.4-.909a1.81,1.81,0,0,1,2.228,1.331l1.965,8.345Z" transform="translate(-246.964 -261.546)" opacity="0.1"/>
          <path id="Trazado_120296" data-name="Trazado 120296" d="M247.322,299.28l-1.742,5.782h-5.87l1.366-5.782Z" transform="translate(-232.101 -275.536)" opacity="0.1"/>
          <path id="Trazado_120297" data-name="Trazado 120297" d="M269.346,299.28l-.176,5.782h-5.454l-.176-5.782Z" transform="translate(-241.956 -275.536)" opacity="0.1"/>
          <path id="Trazado_120298" data-name="Trazado 120298" d="M291.9,305.062h-5.87l-1.742-5.782h6.245Z" transform="translate(-250.538 -275.536)" opacity="0.1"/>
          <path id="Trazado_120299" data-name="Trazado 120299" d="M272.011,303.742h-37.69a2.893,2.893,0,0,1-2.891-2.891h0a2.893,2.893,0,0,1,2.891-2.891h37.69a2.893,2.893,0,0,1,2.891,2.891h0A2.893,2.893,0,0,1,272.011,303.742Z" transform="translate(-228.676 -274.99)" fill="#b2c3f7"/>
        </g>
        <rect id="Rectángulo_40466" data-name="Rectángulo 40466" width="118.452" height="200.124" rx="7.8" transform="translate(200.124) rotate(90)" fill="#084a93"/>
        <rect id="Rectángulo_40467" data-name="Rectángulo 40467" width="194.67" height="113.004" rx="7.8" transform="translate(2.727 2.727)" fill="#eef2fa"/>
        <path id="Trazado_120300" data-name="Trazado 120300" d="M297.606,83.454V187.31a4.554,4.554,0,0,1-2.217,3.917,4.531,4.531,0,0,0,.6-2.275V85.1a4.572,4.572,0,0,0-4.574-4.574H105.9a4.587,4.587,0,0,0-2.357.651,4.577,4.577,0,0,1,3.97-2.3H293.032A4.573,4.573,0,0,1,297.606,83.454Z" transform="translate(-100.209 -76.159)" opacity="0.05"/>
        <g id="Grupo_113774" data-name="Grupo 113774" transform="translate(12.767 34.23)">
          <g id="Grupo_113757" data-name="Grupo 113757" transform="translate(156.793 50.609)">
            <path id="Trazado_120301" data-name="Trazado 120301" d="M401.8,233.711H387v-14.8h14.8v14.8Z" transform="translate(-387 -218.91)" fill="#084a93"/>
            <g id="Grupo_113756" data-name="Grupo 113756" transform="translate(3.132 5.196)">
              <line id="Línea_245" data-name="Línea 245" x2="6.251" fill="none" stroke="#fff" stroke-linecap="round" stroke-miterlimit="10" stroke-width="0.63"/>
              <line id="Línea_246" data-name="Línea 246" x2="8.544" transform="translate(0 1.49)" fill="none" stroke="#fff" stroke-linecap="round" stroke-miterlimit="10" stroke-width="0.63"/>
              <line id="Línea_247" data-name="Línea 247" x2="8.544" transform="translate(0 2.95)" fill="none" stroke="#fff" stroke-linecap="round" stroke-miterlimit="10" stroke-width="0.63"/>
              <line id="Línea_248" data-name="Línea 248" x2="8.544" transform="translate(0 4.404)" fill="none" stroke="#fff" stroke-linecap="round" stroke-miterlimit="10" stroke-width="0.63"/>
            </g>
          </g>
          <g id="Grupo_113759" data-name="Grupo 113759" transform="translate(58.584 21.885)">
            <path id="Trazado_120302" data-name="Trazado 120302" d="M234.331,184.731h-14.8v-14.8h14.8v14.8Z" transform="translate(-219.53 -169.93)" fill="#084a93"/>
            <g id="Grupo_113758" data-name="Grupo 113758" transform="translate(3.126 5.202)">
              <line id="Línea_249" data-name="Línea 249" x2="6.251" fill="none" stroke="#fff" stroke-linecap="round" stroke-miterlimit="10" stroke-width="0.63"/>
              <line id="Línea_250" data-name="Línea 250" x2="8.544" transform="translate(0 1.484)" fill="none" stroke="#fff" stroke-linecap="round" stroke-miterlimit="10" stroke-width="0.63"/>
              <line id="Línea_251" data-name="Línea 251" x2="8.544" transform="translate(0 2.944)" fill="none" stroke="#fff" stroke-linecap="round" stroke-miterlimit="10" stroke-width="0.63"/>
              <line id="Línea_252" data-name="Línea 252" x2="8.544" transform="translate(0 4.404)" fill="none" stroke="#fff" stroke-linecap="round" stroke-miterlimit="10" stroke-width="0.63"/>
            </g>
          </g>
          <g id="Grupo_113761" data-name="Grupo 113761" transform="translate(79.109 3.266)">
            <path id="Trazado_120303" data-name="Trazado 120303" d="M269.331,152.981h-14.8v-14.8h14.8v14.8Z" transform="translate(-254.53 -138.18)" fill="#084a93"/>
            <g id="Grupo_113760" data-name="Grupo 113760" transform="translate(3.126 5.202)">
              <line id="Línea_253" data-name="Línea 253" x2="6.257" fill="none" stroke="#fff" stroke-linecap="round" stroke-miterlimit="10" stroke-width="0.63"/>
              <line id="Línea_254" data-name="Línea 254" x2="8.55" transform="translate(0 1.484)" fill="none" stroke="#fff" stroke-linecap="round" stroke-miterlimit="10" stroke-width="0.63"/>
              <line id="Línea_255" data-name="Línea 255" x2="8.55" transform="translate(0 2.944)" fill="none" stroke="#fff" stroke-linecap="round" stroke-miterlimit="10" stroke-width="0.63"/>
              <line id="Línea_256" data-name="Línea 256" x2="8.55" transform="translate(0 4.404)" fill="none" stroke="#fff" stroke-linecap="round" stroke-miterlimit="10" stroke-width="0.63"/>
            </g>
          </g>
          <g id="Grupo_113763" data-name="Grupo 113763" transform="translate(58.584 2.815)">
            <path id="Trazado_120304" data-name="Trazado 120304" d="M234.331,152.211h-14.8v-14.8h14.8v14.8Z" transform="translate(-219.53 -137.41)" fill="#084a93"/>
            <g id="Grupo_113762" data-name="Grupo 113762" transform="translate(3.126 5.196)">
              <line id="Línea_257" data-name="Línea 257" x2="6.251" fill="none" stroke="#fff" stroke-linecap="round" stroke-miterlimit="10" stroke-width="0.63"/>
              <line id="Línea_258" data-name="Línea 258" x2="8.544" transform="translate(0 1.49)" fill="none" stroke="#fff" stroke-linecap="round" stroke-miterlimit="10" stroke-width="0.63"/>
              <line id="Línea_259" data-name="Línea 259" x2="8.544" transform="translate(0 2.95)" fill="none" stroke="#fff" stroke-linecap="round" stroke-miterlimit="10" stroke-width="0.63"/>
              <line id="Línea_260" data-name="Línea 260" x2="8.544" transform="translate(0 4.41)" fill="none" stroke="#fff" stroke-linecap="round" stroke-miterlimit="10" stroke-width="0.63"/>
            </g>
          </g>
          <g id="Grupo_113765" data-name="Grupo 113765" transform="translate(101.176 3.266)">
            <path id="Trazado_120305" data-name="Trazado 120305" d="M306.967,152.981H292.16v-14.8h14.807v14.8Z" transform="translate(-292.16 -138.18)" fill="#084a93"/>
            <g id="Grupo_113764" data-name="Grupo 113764" transform="translate(3.132 5.202)">
              <line id="Línea_261" data-name="Línea 261" x2="6.251" fill="none" stroke="#fff" stroke-linecap="round" stroke-miterlimit="10" stroke-width="0.63"/>
              <line id="Línea_262" data-name="Línea 262" x2="8.544" transform="translate(0 1.484)" fill="none" stroke="#fff" stroke-linecap="round" stroke-miterlimit="10" stroke-width="0.63"/>
              <line id="Línea_263" data-name="Línea 263" x2="8.544" transform="translate(0 2.944)" fill="none" stroke="#fff" stroke-linecap="round" stroke-miterlimit="10" stroke-width="0.63"/>
              <line id="Línea_264" data-name="Línea 264" x2="8.544" transform="translate(0 4.404)" fill="none" stroke="#fff" stroke-linecap="round" stroke-miterlimit="10" stroke-width="0.63"/>
            </g>
          </g>
          <g id="Grupo_113767" data-name="Grupo 113767" transform="translate(21.434 11.623)">
            <path id="Trazado_120306" data-name="Trazado 120306" d="M170.981,167.231h-14.8v-14.8h14.8v14.8Z" transform="translate(-156.18 -152.43)" fill="#084a93"/>
            <g id="Grupo_113766" data-name="Grupo 113766" transform="translate(3.126 5.202)">
              <line id="Línea_265" data-name="Línea 265" x2="6.257" fill="none" stroke="#fff" stroke-linecap="round" stroke-miterlimit="10" stroke-width="0.63"/>
              <line id="Línea_266" data-name="Línea 266" x2="8.55" transform="translate(0 1.484)" fill="none" stroke="#fff" stroke-linecap="round" stroke-miterlimit="10" stroke-width="0.63"/>
              <line id="Línea_267" data-name="Línea 267" x2="8.55" transform="translate(0 2.944)" fill="none" stroke="#fff" stroke-linecap="round" stroke-miterlimit="10" stroke-width="0.63"/>
              <line id="Línea_268" data-name="Línea 268" x2="8.55" transform="translate(0 4.404)" fill="none" stroke="#fff" stroke-linecap="round" stroke-miterlimit="10" stroke-width="0.63"/>
            </g>
          </g>
          <g id="Grupo_113769" data-name="Grupo 113769">
            <path id="Trazado_120307" data-name="Trazado 120307" d="M134.431,147.411h-14.8v-14.8h14.8v14.8Z" transform="translate(-119.63 -132.61)" fill="#084a93"/>
            <g id="Grupo_113768" data-name="Grupo 113768" transform="translate(3.126 5.196)">
              <line id="Línea_269" data-name="Línea 269" x2="6.257" fill="none" stroke="#fff" stroke-linecap="round" stroke-miterlimit="10" stroke-width="0.63"/>
              <line id="Línea_270" data-name="Línea 270" x2="8.55" transform="translate(0 1.49)" fill="none" stroke="#fff" stroke-linecap="round" stroke-miterlimit="10" stroke-width="0.63"/>
              <line id="Línea_271" data-name="Línea 271" x2="8.55" transform="translate(0 2.95)" fill="none" stroke="#fff" stroke-linecap="round" stroke-miterlimit="10" stroke-width="0.63"/>
              <line id="Línea_272" data-name="Línea 272" x2="8.55" transform="translate(0 4.404)" fill="none" stroke="#fff" stroke-linecap="round" stroke-miterlimit="10" stroke-width="0.63"/>
            </g>
          </g>
          <g id="Grupo_113771" data-name="Grupo 113771" transform="translate(132.497 3.249)">
            <path id="Trazado_120308" data-name="Trazado 120308" d="M360.371,152.951h-14.8v-14.8h14.8v14.8Z" transform="translate(-345.57 -138.15)" fill="#084a93"/>
            <g id="Grupo_113770" data-name="Grupo 113770" transform="translate(3.126 5.196)">
              <line id="Línea_273" data-name="Línea 273" x2="6.257" fill="none" stroke="#fff" stroke-linecap="round" stroke-miterlimit="10" stroke-width="0.63"/>
              <line id="Línea_274" data-name="Línea 274" x2="8.55" transform="translate(0 1.49)" fill="none" stroke="#fff" stroke-linecap="round" stroke-miterlimit="10" stroke-width="0.63"/>
              <line id="Línea_275" data-name="Línea 275" x2="8.55" transform="translate(0 2.944)" fill="none" stroke="#fff" stroke-linecap="round" stroke-miterlimit="10" stroke-width="0.63"/>
              <line id="Línea_276" data-name="Línea 276" x2="8.55" transform="translate(0 4.404)" fill="none" stroke="#fff" stroke-linecap="round" stroke-miterlimit="10" stroke-width="0.63"/>
            </g>
          </g>
          <g id="Grupo_113773" data-name="Grupo 113773" transform="translate(153.661 3.519)">
            <path id="Trazado_120309" data-name="Trazado 120309" d="M396.461,153.411h-14.8v-14.8h14.8v14.8Z" transform="translate(-381.66 -138.61)" fill="#084a93"/>
            <g id="Grupo_113772" data-name="Grupo 113772" transform="translate(3.126 5.202)">
              <line id="Línea_277" data-name="Línea 277" x2="6.257" fill="none" stroke="#fff" stroke-linecap="round" stroke-miterlimit="10" stroke-width="0.63"/>
              <line id="Línea_278" data-name="Línea 278" x2="8.55" transform="translate(0 1.484)" fill="none" stroke="#fff" stroke-linecap="round" stroke-miterlimit="10" stroke-width="0.63"/>
              <line id="Línea_279" data-name="Línea 279" x2="8.55" transform="translate(0 2.944)" fill="none" stroke="#fff" stroke-linecap="round" stroke-miterlimit="10" stroke-width="0.63"/>
              <line id="Línea_280" data-name="Línea 280" x2="8.55" transform="translate(0 4.404)" fill="none" stroke="#fff" stroke-linecap="round" stroke-miterlimit="10" stroke-width="0.63"/>
            </g>
          </g>
        </g>
        <g id="Grupo_113775" data-name="Grupo 113775" transform="translate(12.761 8.046)">
          <rect id="Rectángulo_40468" data-name="Rectángulo 40468" width="1.46" height="102.367" transform="translate(48.879)" fill="#cdd7fb"/>
          <rect id="Rectángulo_40469" data-name="Rectángulo 40469" width="1.46" height="102.367" transform="translate(124.264)" fill="#cdd7fb"/>
          <rect id="Rectángulo_40470" data-name="Rectángulo 40470" width="174.602" height="1.46" transform="translate(0 17.845)" fill="#cdd7fb"/>
        </g>
        <g id="Grupo_113794" data-name="Grupo 113794" transform="translate(17.657 57.094)">
          <g id="Grupo_113778" data-name="Grupo 113778" transform="translate(0 18.713)">
            <path id="Trazado_120310" data-name="Trazado 120310" d="M127.97,203.51v14.8h14.8v-14.8Z" transform="translate(-127.97 -203.51)" stroke="#fff" stroke-linecap="round" stroke-miterlimit="10" stroke-width="0.63" opacity="0.1"/>
            <g id="Grupo_113777" data-name="Grupo 113777">
              <path id="Trazado_120311" data-name="Trazado 120311" d="M144.847,217.232h-14.8l-1.577-10.415-.5-3.307h14.8l.481,3.167Z" transform="translate(-127.97 -203.51)" fill="#00defc"/>
              <g id="Grupo_113776" data-name="Grupo 113776" transform="translate(3.853 4.82)">
                <line id="Línea_281" data-name="Línea 281" x2="6.257" fill="none" stroke="#fff" stroke-linecap="round" stroke-miterlimit="10" stroke-width="0.63"/>
                <line id="Línea_282" data-name="Línea 282" x2="8.55" transform="translate(0.211 1.378)" fill="none" stroke="#fff" stroke-linecap="round" stroke-miterlimit="10" stroke-width="0.63"/>
                <line id="Línea_283" data-name="Línea 283" x2="8.55" transform="translate(0.416 2.727)" fill="none" stroke="#fff" stroke-linecap="round" stroke-miterlimit="10" stroke-width="0.63"/>
                <line id="Línea_284" data-name="Línea 284" x2="8.55" transform="translate(0.622 4.082)" fill="none" stroke="#fff" stroke-linecap="round" stroke-miterlimit="10" stroke-width="0.63"/>
              </g>
            </g>
          </g>
          <g id="Grupo_113781" data-name="Grupo 113781" transform="translate(127.518)">
            <path id="Trazado_120312" data-name="Trazado 120312" d="M345.42,171.6v14.8h14.8V171.6Z" transform="translate(-345.42 -171.6)" stroke="#fff" stroke-linecap="round" stroke-miterlimit="10" stroke-width="0.63" opacity="0.1"/>
            <g id="Grupo_113780" data-name="Grupo 113780">
              <path id="Trazado_120313" data-name="Trazado 120313" d="M362.3,185.322H347.5l-1.578-10.415-.5-3.307h14.8l.481,3.173Z" transform="translate(-345.42 -171.6)" fill="#00defc"/>
              <g id="Grupo_113779" data-name="Grupo 113779" transform="translate(3.859 4.82)">
                <line id="Línea_285" data-name="Línea 285" x2="6.251" fill="none" stroke="#fff" stroke-linecap="round" stroke-miterlimit="10" stroke-width="0.63"/>
                <line id="Línea_286" data-name="Línea 286" x2="8.55" transform="translate(0.205 1.378)" fill="none" stroke="#fff" stroke-linecap="round" stroke-miterlimit="10" stroke-width="0.63"/>
                <line id="Línea_287" data-name="Línea 287" x2="8.55" transform="translate(0.411 2.733)" fill="none" stroke="#fff" stroke-linecap="round" stroke-miterlimit="10" stroke-width="0.63"/>
                <line id="Línea_288" data-name="Línea 288" x2="8.55" transform="translate(0.616 4.082)" fill="none" stroke="#fff" stroke-linecap="round" stroke-miterlimit="10" stroke-width="0.63"/>
              </g>
            </g>
          </g>
          <g id="Grupo_113784" data-name="Grupo 113784" transform="translate(75.203 6.632)">
            <path id="Trazado_120314" data-name="Trazado 120314" d="M256.21,182.91v14.8h14.8v-14.8Z" transform="translate(-256.21 -182.91)" stroke="#fff" stroke-linecap="round" stroke-miterlimit="10" stroke-width="0.63" opacity="0.1"/>
            <g id="Grupo_113783" data-name="Grupo 113783">
              <path id="Trazado_120315" data-name="Trazado 120315" d="M273.087,196.632h-14.8l-1.577-10.415-.5-3.307h14.8l.481,3.167Z" transform="translate(-256.21 -182.91)" fill="#00defc"/>
              <g id="Grupo_113782" data-name="Grupo 113782" transform="translate(3.853 4.82)">
                <line id="Línea_289" data-name="Línea 289" x2="6.257" fill="none" stroke="#fff" stroke-linecap="round" stroke-miterlimit="10" stroke-width="0.63"/>
                <line id="Línea_290" data-name="Línea 290" x2="8.55" transform="translate(0.211 1.378)" fill="none" stroke="#fff" stroke-linecap="round" stroke-miterlimit="10" stroke-width="0.63"/>
                <line id="Línea_291" data-name="Línea 291" x2="8.55" transform="translate(0.416 2.727)" fill="none" stroke="#fff" stroke-linecap="round" stroke-miterlimit="10" stroke-width="0.63"/>
                <line id="Línea_292" data-name="Línea 292" x2="8.55" transform="translate(0.622 4.082)" fill="none" stroke="#fff" stroke-linecap="round" stroke-miterlimit="10" stroke-width="0.63"/>
              </g>
            </g>
          </g>
          <g id="Grupo_113787" data-name="Grupo 113787" transform="translate(52.679 21.434)">
            <path id="Trazado_120316" data-name="Trazado 120316" d="M217.8,208.15v14.8h14.8v-14.8Z" transform="translate(-217.8 -208.15)" stroke="#fff" stroke-linecap="round" stroke-miterlimit="10" stroke-width="0.63" opacity="0.1"/>
            <g id="Grupo_113786" data-name="Grupo 113786">
              <path id="Trazado_120317" data-name="Trazado 120317" d="M234.677,221.872h-14.8L218.3,211.463l-.5-3.313h14.8l.481,3.173Z" transform="translate(-217.8 -208.15)" fill="#00defc"/>
              <g id="Grupo_113785" data-name="Grupo 113785" transform="translate(3.853 4.82)">
                <line id="Línea_293" data-name="Línea 293" x2="6.257" fill="none" stroke="#fff" stroke-linecap="round" stroke-miterlimit="10" stroke-width="0.63"/>
                <line id="Línea_294" data-name="Línea 294" x2="8.55" transform="translate(0.211 1.378)" fill="none" stroke="#fff" stroke-linecap="round" stroke-miterlimit="10" stroke-width="0.63"/>
                <line id="Línea_295" data-name="Línea 295" x2="8.55" transform="translate(0.416 2.733)" fill="none" stroke="#fff" stroke-linecap="round" stroke-miterlimit="10" stroke-width="0.63"/>
                <line id="Línea_296" data-name="Línea 296" x2="8.55" transform="translate(0.622 4.087)" fill="none" stroke="#fff" stroke-linecap="round" stroke-miterlimit="10" stroke-width="0.63"/>
              </g>
            </g>
          </g>
          <g id="Grupo_113790" data-name="Grupo 113790" transform="translate(96.725 6.632)">
            <path id="Trazado_120318" data-name="Trazado 120318" d="M292.91,182.91v14.8h14.8v-14.8Z" transform="translate(-292.91 -182.91)" stroke="#fff" stroke-linecap="round" stroke-miterlimit="10" stroke-width="0.63" opacity="0.1"/>
            <g id="Grupo_113789" data-name="Grupo 113789">
              <path id="Trazado_120319" data-name="Trazado 120319" d="M309.793,196.632h-14.8l-1.578-10.415-.5-3.307h14.8l.481,3.167Z" transform="translate(-292.91 -182.91)" fill="#00defc"/>
              <g id="Grupo_113788" data-name="Grupo 113788" transform="translate(3.859 4.82)">
                <line id="Línea_297" data-name="Línea 297" x2="6.257" fill="none" stroke="#fff" stroke-linecap="round" stroke-miterlimit="10" stroke-width="0.63"/>
                <line id="Línea_298" data-name="Línea 298" x2="8.544" transform="translate(0.211 1.378)" fill="none" stroke="#fff" stroke-linecap="round" stroke-miterlimit="10" stroke-width="0.63"/>
                <line id="Línea_299" data-name="Línea 299" x2="8.544" transform="translate(0.416 2.727)" fill="none" stroke="#fff" stroke-linecap="round" stroke-miterlimit="10" stroke-width="0.63"/>
                <line id="Línea_300" data-name="Línea 300" x2="8.544" transform="translate(0.622 4.082)" fill="none" stroke="#fff" stroke-linecap="round" stroke-miterlimit="10" stroke-width="0.63"/>
              </g>
            </g>
          </g>
          <g id="Grupo_113793" data-name="Grupo 113793" transform="translate(127.606 19.892)">
            <path id="Trazado_120320" data-name="Trazado 120320" d="M345.57,205.52v14.8h14.8v-14.8Z" transform="translate(-345.57 -205.52)" stroke="#fff" stroke-linecap="round" stroke-miterlimit="10" stroke-width="0.63" opacity="0.1"/>
            <g id="Grupo_113792" data-name="Grupo 113792">
              <path id="Trazado_120321" data-name="Trazado 120321" d="M362.453,219.242h-14.8l-1.577-10.415-.5-3.307h14.8l.481,3.167Z" transform="translate(-345.57 -205.52)" fill="#00defc"/>
              <g id="Grupo_113791" data-name="Grupo 113791" transform="translate(3.859 4.82)">
                <line id="Línea_301" data-name="Línea 301" x2="6.251" fill="none" stroke="#fff" stroke-linecap="round" stroke-miterlimit="10" stroke-width="0.63"/>
                <line id="Línea_302" data-name="Línea 302" x2="8.544" transform="translate(0.211 1.378)" fill="none" stroke="#fff" stroke-linecap="round" stroke-miterlimit="10" stroke-width="0.63"/>
                <line id="Línea_303" data-name="Línea 303" x2="8.544" transform="translate(0.416 2.733)" fill="none" stroke="#fff" stroke-linecap="round" stroke-miterlimit="10" stroke-width="0.63"/>
                <line id="Línea_304" data-name="Línea 304" x2="8.544" transform="translate(0.622 4.082)" fill="none" stroke="#fff" stroke-linecap="round" stroke-miterlimit="10" stroke-width="0.63"/>
              </g>
            </g>
          </g>
        </g>
        <g id="Grupo_113813" data-name="Grupo 113813" transform="translate(6.668 46.515)">
          <g id="Grupo_113797" data-name="Grupo 113797" transform="translate(164.117 16.256)">
            <path id="Trazado_120322" data-name="Trazado 120322" d="M400.613,181.286l-11.523.053v10.591l8.011-.111h0a9.23,9.23,0,0,0,1.988-1.806l.123-.123,1.407-1.66-.012-6.949Z" transform="translate(-389.09 -181.28)" stroke="#fff" stroke-linecap="round" stroke-miterlimit="10" stroke-width="0.63" opacity="0.1"/>
            <g id="Grupo_113795" data-name="Grupo 113795" transform="translate(0.006 0.006)">
              <path id="Trazado_120323" data-name="Trazado 120323" d="M400.617,181.29l.739,6.65-3.149,3.431-8,.106L389.1,181.343Z" transform="translate(-389.1 -181.29)" fill="#ffb30b"/>
              <path id="Trazado_120324" data-name="Trazado 120324" d="M404.626,196.056h0a7.747,7.747,0,0,0,1.8-1.73l.111-.117,1.237-1.589-.674.088a7.064,7.064,0,0,1-1.454.047l-.9-.059s.733,2.4-.129,3.36Z" transform="translate(-395.519 -185.976)" fill="#fdc538"/>
            </g>
            <g id="Grupo_113796" data-name="Grupo 113796" transform="translate(1.495 4.65)">
              <line id="Línea_305" data-name="Línea 305" x2="8.544" fill="none" stroke="#fff" stroke-linecap="round" stroke-miterlimit="10" stroke-width="0.63"/>
              <line id="Línea_306" data-name="Línea 306" x2="6.556" transform="translate(0 1.355)" fill="none" stroke="#fff" stroke-linecap="round" stroke-miterlimit="10" stroke-width="0.56"/>
            </g>
          </g>
          <g id="Grupo_113800" data-name="Grupo 113800" transform="translate(155.221 50.497)">
            <path id="Trazado_120325" data-name="Trazado 120325" d="M385.443,239.676l-11.523.053v10.591l8.011-.111h0a9.229,9.229,0,0,0,1.988-1.806l.123-.123,1.407-1.66-.012-6.949Z" transform="translate(-373.92 -239.67)" stroke="#fff" stroke-linecap="round" stroke-miterlimit="10" stroke-width="0.63" opacity="0.1"/>
            <g id="Grupo_113798" data-name="Grupo 113798" transform="translate(0 0.006)">
              <path id="Trazado_120326" data-name="Trazado 120326" d="M385.443,239.68l.733,6.65-3.149,3.431-8,.106-1.108-10.133Z" transform="translate(-373.92 -239.68)" fill="#ffb30b"/>
              <path id="Trazado_120327" data-name="Trazado 120327" d="M389.446,254.446h0a7.747,7.747,0,0,0,1.8-1.73l.111-.117,1.237-1.589-.674.088a7.061,7.061,0,0,1-1.454.047l-.9-.059s.733,2.4-.129,3.36Z" transform="translate(-380.339 -244.366)" fill="#fdc538"/>
            </g>
            <g id="Grupo_113799" data-name="Grupo 113799" transform="translate(1.49 4.65)">
              <line id="Línea_307" data-name="Línea 307" x2="8.55" fill="none" stroke="#fff" stroke-linecap="round" stroke-miterlimit="10" stroke-width="0.63"/>
              <line id="Línea_308" data-name="Línea 308" x2="6.562" transform="translate(0 1.355)" fill="none" stroke="#fff" stroke-linecap="round" stroke-miterlimit="10" stroke-width="0.56"/>
            </g>
          </g>
          <g id="Grupo_113803" data-name="Grupo 113803" transform="translate(0 0.721)">
            <path id="Trazado_120328" data-name="Trazado 120328" d="M120.753,154.8l-11.523.053v10.591l8.011-.111h0a9.231,9.231,0,0,0,1.988-1.806l.123-.123,1.407-1.66-.012-6.949Z" transform="translate(-109.23 -154.79)" stroke="#fff" stroke-linecap="round" stroke-miterlimit="10" stroke-width="0.63" opacity="0.1"/>
            <g id="Grupo_113801" data-name="Grupo 113801" transform="translate(0.006 0.006)">
              <path id="Trazado_120329" data-name="Trazado 120329" d="M120.757,154.8l.733,6.65-3.149,3.436-8,.106-1.1-10.139Z" transform="translate(-109.24 -154.8)" fill="#ffb30b"/>
              <path id="Trazado_120330" data-name="Trazado 120330" d="M124.756,169.576h0a7.745,7.745,0,0,0,1.8-1.73l.111-.117,1.237-1.589-.674.088a7.062,7.062,0,0,1-1.454.047l-.9-.059s.733,2.4-.129,3.36Z" transform="translate(-115.655 -159.49)" fill="#fdc538"/>
            </g>
            <g id="Grupo_113802" data-name="Grupo 113802" transform="translate(1.49 4.656)">
              <line id="Línea_309" data-name="Línea 309" x2="8.55" fill="none" stroke="#fff" stroke-linecap="round" stroke-miterlimit="10" stroke-width="0.63"/>
              <line id="Línea_310" data-name="Línea 310" x2="6.562" transform="translate(0 1.349)" fill="none" stroke="#fff" stroke-linecap="round" stroke-miterlimit="10" stroke-width="0.56"/>
            </g>
          </g>
          <g id="Grupo_113806" data-name="Grupo 113806" transform="translate(115.983)">
            <path id="Trazado_120331" data-name="Trazado 120331" d="M318.533,153.566l-11.523.053V164.21l8.011-.111h0a9.231,9.231,0,0,0,1.988-1.806l.123-.123,1.407-1.66-.012-6.949Z" transform="translate(-307.01 -153.56)" stroke="#fff" stroke-linecap="round" stroke-miterlimit="10" stroke-width="0.63" opacity="0.1"/>
            <g id="Grupo_113804" data-name="Grupo 113804" transform="translate(0.006 0.006)">
              <path id="Trazado_120332" data-name="Trazado 120332" d="M318.537,153.57l.733,6.644-3.149,3.436-8,.106-1.1-10.133Z" transform="translate(-307.02 -153.57)" fill="#ffb30b"/>
              <path id="Trazado_120333" data-name="Trazado 120333" d="M322.536,168.336h0a7.745,7.745,0,0,0,1.8-1.73l.111-.117,1.237-1.589-.674.088a7.061,7.061,0,0,1-1.454.047l-.9-.059s.733,2.4-.129,3.36Z" transform="translate(-313.435 -158.256)" fill="#fdc538"/>
            </g>
            <g id="Grupo_113805" data-name="Grupo 113805" transform="translate(1.49 4.65)">
              <line id="Línea_311" data-name="Línea 311" x2="8.55" fill="none" stroke="#fff" stroke-linecap="round" stroke-miterlimit="10" stroke-width="0.63"/>
              <line id="Línea_312" data-name="Línea 312" x2="6.562" transform="translate(0 1.355)" fill="none" stroke="#fff" stroke-linecap="round" stroke-miterlimit="10" stroke-width="0.56"/>
            </g>
          </g>
          <g id="Grupo_113809" data-name="Grupo 113809" transform="translate(86.463 40.416)">
            <path id="Trazado_120334" data-name="Trazado 120334" d="M268.193,222.486l-11.523.053v10.591l8.011-.111h0a9.232,9.232,0,0,0,1.988-1.806l.123-.123,1.407-1.66-.012-6.949Z" transform="translate(-256.67 -222.48)" stroke="#fff" stroke-linecap="round" stroke-miterlimit="10" stroke-width="0.63" opacity="0.1"/>
            <g id="Grupo_113807" data-name="Grupo 113807" transform="translate(0.006 0.006)">
              <path id="Trazado_120335" data-name="Trazado 120335" d="M268.2,222.49l.739,6.65-3.155,3.431-7.993.106-1.108-10.133Z" transform="translate(-256.68 -222.49)" fill="#ffb30b"/>
              <path id="Trazado_120336" data-name="Trazado 120336" d="M272.2,237.256h0a7.746,7.746,0,0,0,1.8-1.73l.111-.117,1.237-1.589-.674.088a7.065,7.065,0,0,1-1.454.047l-.9-.059s.733,2.4-.129,3.36Z" transform="translate(-263.095 -227.176)" fill="#ffb30b"/>
            </g>
            <g id="Grupo_113808" data-name="Grupo 113808" transform="translate(1.495 4.65)">
              <line id="Línea_313" data-name="Línea 313" x2="8.544" fill="none" stroke="#fff" stroke-linecap="round" stroke-miterlimit="10" stroke-width="0.63"/>
              <line id="Línea_314" data-name="Línea 314" x2="6.556" transform="translate(0 1.355)" fill="none" stroke="#fff" stroke-linecap="round" stroke-miterlimit="10" stroke-width="0.56"/>
            </g>
          </g>
          <g id="Grupo_113812" data-name="Grupo 113812" transform="translate(38.78 10.35)">
            <path id="Trazado_120337" data-name="Trazado 120337" d="M186.883,171.216l-11.523.053v10.591l8.011-.111h0a9.23,9.23,0,0,0,1.988-1.806l.123-.123,1.407-1.66-.012-6.949Z" transform="translate(-175.36 -171.21)" stroke="#fff" stroke-linecap="round" stroke-miterlimit="10" stroke-width="0.63" opacity="0.1"/>
            <g id="Grupo_113810" data-name="Grupo 113810" transform="translate(0.006 0.006)">
              <path id="Trazado_120338" data-name="Trazado 120338" d="M186.887,171.22l.739,6.65-3.155,3.431-8,.106-1.1-10.133Z" transform="translate(-175.37 -171.22)" fill="#ffb30b"/>
              <path id="Trazado_120339" data-name="Trazado 120339" d="M190.886,185.986h0a7.746,7.746,0,0,0,1.8-1.73l.111-.117,1.237-1.589-.674.088a7.063,7.063,0,0,1-1.454.047l-.9-.059s.733,2.4-.129,3.36Z" transform="translate(-181.785 -175.906)" fill="#fdc538"/>
            </g>
            <g id="Grupo_113811" data-name="Grupo 113811" transform="translate(1.495 4.65)">
              <line id="Línea_315" data-name="Línea 315" x2="8.544" fill="none" stroke="#fff" stroke-linecap="round" stroke-miterlimit="10" stroke-width="0.63"/>
              <line id="Línea_316" data-name="Línea 316" x2="6.556" transform="translate(0 1.355)" fill="none" stroke="#fff" stroke-linecap="round" stroke-miterlimit="10" stroke-width="0.56"/>
            </g>
          </g>
        </g>
        <g id="Grupo_113814" data-name="Grupo 113814" transform="translate(31.128 14.496)">
          <path id="Trazado_120340" data-name="Trazado 120340" d="M151.315,99.642a1.014,1.014,0,0,1-.3-.023c-.065-.018-.088-.07-.07-.147a.194.194,0,0,1,.094-.129.529.529,0,0,1,.211-.064c.053-.012.123-.023.205-.035s.164-.029.246-.041c.158-.018.293-.035.4-.053s.211-.029.323-.035.252-.018.422-.029q.211-.018.51-.035a1.144,1.144,0,0,1,.152.012l.281.035a.728.728,0,0,1,.223.053.61.61,0,0,1,.246.1.313.313,0,0,1,.106.188q.018.088,0,.106a.3.3,0,0,1-.082.047.925.925,0,0,1-.246.053.58.58,0,0,1-.182-.035.442.442,0,0,0-.082-.064.464.464,0,0,0-.158-.047q-.114-.018-.352-.035c-.135.012-.252.023-.358.023s-.152.012-.152.035l-.428.023-.358.035c-.047,0-.117.012-.205.018s-.17.012-.252.023-.147.018-.188.023Zm-.059,4.328c-.041,0-.082-.029-.129-.094a.267.267,0,0,1-.064-.182,1.777,1.777,0,0,1,.064-.334c.041-.147.082-.293.129-.446s.094-.27.129-.358c.018-.076.035-.147.053-.205s.029-.1.035-.117a1.492,1.492,0,0,0,.07-.152,2.25,2.25,0,0,0,.076-.24c.012-.041.029-.111.065-.223s.07-.235.117-.381.094-.287.141-.428.088-.264.117-.369.053-.176.064-.211a.646.646,0,0,0,.088-.164c.018-.053.029-.088.035-.111a.115.115,0,0,0,.053-.076c0-.029.006-.059.006-.076a.075.075,0,0,1,.023-.059.057.057,0,0,0,.023-.053.1.1,0,0,0,.035-.07.123.123,0,0,1,.041-.082l.035-.123h.428c-.012.053-.023.123-.041.205a1.392,1.392,0,0,1-.141.34,2.344,2.344,0,0,1-.082.264.381.381,0,0,0-.041.152.8.8,0,0,0-.064.147c-.029.088-.07.194-.111.323s-.082.252-.123.375-.076.235-.111.328a1.393,1.393,0,0,1-.064.176,2.224,2.224,0,0,0-.129.34c-.047.152-.123.352-.217.61a2.548,2.548,0,0,0-.141.346,4.291,4.291,0,0,0-.135.422c-.053.188-.088.323-.111.4s-.041.117-.053.123a.18.18,0,0,1-.082,0Z" transform="translate(-150.94 -98.997)" fill="#829cf8"/>
          <path id="Trazado_120341" data-name="Trazado 120341" d="M155.1,104.857a.258.258,0,0,1-.147-.035c-.035-.023-.082-.059-.135-.1a.866.866,0,0,1-.194-.281.4.4,0,0,1-.035-.258.456.456,0,0,0,.012-.164c-.023-.023-.029-.041-.023-.047s.018-.023.029-.041c.029,0,.041-.029.029-.082a.56.56,0,0,1,.059-.252,2.157,2.157,0,0,1,.182-.369c.029-.047.07-.111.129-.194s.123-.158.194-.24a1.5,1.5,0,0,1,.194-.194,1.9,1.9,0,0,1,.323-.223,1.654,1.654,0,0,1,.3-.111,1.232,1.232,0,0,1,.223-.035c.041,0,.1.041.17.117a.58.58,0,0,1,.246.176.618.618,0,0,1,.1.3,1.9,1.9,0,0,1-.035.5,1.929,1.929,0,0,1-.346.692,1.976,1.976,0,0,1-.334.387,2.786,2.786,0,0,1-.364.252,1.159,1.159,0,0,1-.276.147,1.278,1.278,0,0,1-.293.065Zm.7-.768a2.378,2.378,0,0,0,.281-.369,2.5,2.5,0,0,0,.2-.446.817.817,0,0,0,.035-.2v-.223c-.006-.07-.023-.111-.053-.117a.313.313,0,0,0-.211-.035.571.571,0,0,0-.27.141,1.725,1.725,0,0,0-.393.469,6.322,6.322,0,0,0-.328.633.577.577,0,0,0-.047.416c.041.106.129.141.27.111a1.188,1.188,0,0,0,.522-.381Z" transform="translate(-152.444 -100.312)" fill="#829cf8"/>
          <path id="Trazado_120342" data-name="Trazado 120342" d="M163.878,103.751a.2.2,0,0,1-.158-.023.248.248,0,0,1-.088-.135,1.708,1.708,0,0,1-.082-.369,1.464,1.464,0,0,1-.012-.352l.012-.152-.281.223a1.6,1.6,0,0,1-.475.311,1.05,1.05,0,0,1-.4.094.579.579,0,0,1-.158-.059.514.514,0,0,1-.141-.111.473.473,0,0,1-.1-.141.569.569,0,0,1-.023-.276,1.684,1.684,0,0,1,.088-.381,2.48,2.48,0,0,1,.176-.4,1.568,1.568,0,0,1,.246-.352,1.03,1.03,0,0,1,.516-.446.654.654,0,0,1,.545.082.619.619,0,0,0,.235.07c.029,0,.059-.059.082-.164.018-.076.041-.158.059-.235s.053-.188.094-.323q.185-.554.317-.862c.088-.211.17-.387.246-.545A.566.566,0,0,1,164.7,99a.167.167,0,0,1,.111-.035.213.213,0,0,1,.147.059.43.43,0,0,1,.1.158.212.212,0,0,1,.023.111.316.316,0,0,1-.047.129c-.065.117-.135.27-.223.463s-.17.4-.252.627-.164.452-.235.674-.135.416-.182.586a3.371,3.371,0,0,0-.076.4c-.023.164-.041.334-.053.5s-.023.323-.023.457a1.294,1.294,0,0,0,.012.258.826.826,0,0,1,.041.217.122.122,0,0,1-.041.1.252.252,0,0,1-.117.035Zm-1.226-.809a.534.534,0,0,0,.2-.082,1.843,1.843,0,0,0,.205-.141c.147-.111.27-.211.375-.3a.723.723,0,0,0,.211-.422.436.436,0,0,0-.023-.223.613.613,0,0,0-.129-.158.36.36,0,0,0-.235-.047.526.526,0,0,0-.311.158,2.061,2.061,0,0,0-.34.428,2.14,2.14,0,0,0-.246.663.1.1,0,0,0,.041.117c.041.029.117.029.24.006Z" transform="translate(-155.498 -98.96)" fill="#829cf8"/>
          <path id="Trazado_120343" data-name="Trazado 120343" d="M167.708,104.719a.687.687,0,0,1-.194.018.326.326,0,0,1-.117-.082.7.7,0,0,1-.194-.147.515.515,0,0,1-.111-.188.347.347,0,0,1-.023-.164,2.008,2.008,0,0,1,.123-.545,4.334,4.334,0,0,1,.246-.557,2.372,2.372,0,0,1,.317-.463.866.866,0,0,1,.328-.252.521.521,0,0,1,.276-.041.225.225,0,0,1,.188.141c.07.141.053.229-.053.27a.135.135,0,0,0-.053.018.06.06,0,0,0-.029.047.322.322,0,0,0,.158,0,2.054,2.054,0,0,0,.264-.041.529.529,0,0,0,.176-.07.3.3,0,0,1,.065-.023.557.557,0,0,1,.111.012q.123.035.123.088a.072.072,0,0,0,.023.053.057.057,0,0,0,.053.023c.035,0,.029.029-.012.065a1.6,1.6,0,0,1-.205.158c-.094.059-.147.094-.17.111s-.023.053-.012.106a.464.464,0,0,1,.006.323,1.2,1.2,0,0,1-.182.369,2.111,2.111,0,0,1-.71.627,1.136,1.136,0,0,1-.4.135Zm-.123-.323a.5.5,0,0,0,.1-.035c.047-.023.088-.041.117-.053s.047-.041.076-.07a.189.189,0,0,1,.076-.047.14.14,0,0,0,.07-.023.6.6,0,0,0,.123-.111c.053-.053.123-.141.211-.252a1.685,1.685,0,0,0,.223-.293.288.288,0,0,0,.041-.252c0-.018-.018-.029-.041-.035a1.05,1.05,0,0,0-.217-.076q-.062-.044-.141-.106l-.117-.147-.123.123a1.716,1.716,0,0,0-.246.346,3.679,3.679,0,0,0-.217.463,1.433,1.433,0,0,0-.1.375c0,.07.006.123.035.147a.189.189,0,0,0,.117.041Z" transform="translate(-157.61 -100.338)" fill="#829cf8"/>
        </g>
        <g id="Grupo_113815" data-name="Grupo 113815" transform="translate(156.791 14.052)">
          <path id="Trazado_120344" data-name="Trazado 120344" d="M366.273,104.024a2.124,2.124,0,0,1-.252.023,1.608,1.608,0,0,1-.34-.053.355.355,0,0,1-.164-.088c-.029-.035-.082-.1-.158-.188a.851.851,0,0,1-.111-.217.238.238,0,0,1-.012-.152c.012-.035.047-.047.094-.035.012,0,.035.023.07.047a.486.486,0,0,1,.088.1.533.533,0,0,0,.246.147,1.037,1.037,0,0,0,.387.006,1.94,1.94,0,0,0,.246-.064,1.988,1.988,0,0,0,.282-.1,1.03,1.03,0,0,0,.217-.117c.258-.176.539-.364.85-.569a.138.138,0,0,1,.053-.047l.1-.041.141-.141c.065-.065.129-.123.188-.188s.1-.1.111-.111c.012-.041.018-.076.029-.106a.2.2,0,0,0,.012-.082,1.187,1.187,0,0,0,.158-.246c.064-.123.135-.264.2-.416a2.234,2.234,0,0,0,.147-.416,2.638,2.638,0,0,0,.053-.856,1.6,1.6,0,0,0-.205-.6,1.876,1.876,0,0,0-.387-.446,1.907,1.907,0,0,0-.223-.141,2.647,2.647,0,0,0-.293-.135c-.1-.041-.188-.07-.264-.094a.349.349,0,0,0-.135-.029c-.018,0-.059.082-.117.229s-.135.334-.217.563-.17.469-.264.727-.182.5-.264.727c-.029.094-.059.188-.094.293s-.065.188-.088.264a.667.667,0,0,0-.035.147,1.161,1.161,0,0,0-.129.328c-.029.135-.064.364-.106.674-.041.164-.076.287-.094.375s-.041.123-.059.117l-.029.029c0,.029-.018.041-.059.041a.329.329,0,0,1-.135-.035.369.369,0,0,1-.117-.076.741.741,0,0,1-.023-.152,1.479,1.479,0,0,1,.053-.281c.023-.094.053-.205.088-.34s.076-.27.117-.416.082-.276.123-.4.07-.211.088-.276a4.569,4.569,0,0,0,.147-.463c.041-.123.076-.252.117-.375s.082-.24.117-.34.065-.164.082-.194c.023-.064.059-.17.111-.323s.111-.317.188-.5l.053-.24-.082-.035a.259.259,0,0,1-.2,0,.174.174,0,0,1-.123-.023.455.455,0,0,1-.141-.094.319.319,0,0,1-.076-.1.337.337,0,0,1-.023-.123c0-.029.041-.059.111-.082a1.673,1.673,0,0,1,.264-.07,3.165,3.165,0,0,1,.358-.041c.129-.006.252-.006.375,0a1.223,1.223,0,0,1,.358.082c.111.041.235.088.364.141a1.908,1.908,0,0,1,.493.3,3.009,3.009,0,0,1,.475.5,1.656,1.656,0,0,1,.287.61c.012.059.029.141.041.246a2.874,2.874,0,0,1,.023.311c0,.1-.006.164-.035.194a.125.125,0,0,0-.018.07c0,.029.006.047.023.053,0,.012-.023.07-.053.164s-.059.176-.082.246a1.708,1.708,0,0,1-.088.393,3.244,3.244,0,0,1-.158.381q-.088.176-.158.3a.087.087,0,0,0-.053.012q-.026.009,0,.018a.369.369,0,0,1-.082.141.484.484,0,0,0-.088.106.5.5,0,0,1-.1.111.138.138,0,0,1-.106.117.027.027,0,0,0-.023.029,1.3,1.3,0,0,1-.182.205,3.018,3.018,0,0,1-.282.246c-.105.082-.211.164-.322.235a1.605,1.605,0,0,1-.311.164.549.549,0,0,1-.152.082c-.053.023-.106.047-.152.07a.875.875,0,0,1-.158.082q-.123.053-.264.106a1.276,1.276,0,0,1-.252.07Z" transform="translate(-365.227 -98.202)" fill="#829cf8"/>
          <path id="Trazado_120345" data-name="Trazado 120345" d="M373.23,104.917a.258.258,0,0,1-.147-.035c-.035-.023-.082-.059-.135-.1a.866.866,0,0,1-.194-.281.4.4,0,0,1-.035-.258.457.457,0,0,0,.012-.164c-.023-.023-.029-.041-.023-.047s.018-.023.029-.041c.029,0,.041-.029.029-.082a.56.56,0,0,1,.059-.252,2.158,2.158,0,0,1,.182-.369c.029-.047.07-.111.129-.194s.123-.158.193-.24a1.5,1.5,0,0,1,.193-.194,1.9,1.9,0,0,1,.323-.223,1.651,1.651,0,0,1,.3-.111,1.232,1.232,0,0,1,.223-.035c.041,0,.1.041.17.117a.58.58,0,0,1,.246.176.618.618,0,0,1,.1.3,1.9,1.9,0,0,1-.035.5,1.93,1.93,0,0,1-.346.692,1.977,1.977,0,0,1-.334.387,2.786,2.786,0,0,1-.364.252,1.159,1.159,0,0,1-.276.147,1.278,1.278,0,0,1-.293.065Zm.7-.768a2.375,2.375,0,0,0,.281-.369,2.493,2.493,0,0,0,.2-.446.815.815,0,0,0,.035-.2v-.223c-.006-.07-.023-.111-.053-.117a.313.313,0,0,0-.211-.035.571.571,0,0,0-.27.141,1.725,1.725,0,0,0-.393.469,6.341,6.341,0,0,0-.328.633.577.577,0,0,0-.047.416c.041.106.129.141.27.111a1.188,1.188,0,0,0,.522-.381Z" transform="translate(-368.32 -99.893)" fill="#829cf8"/>
          <path id="Trazado_120346" data-name="Trazado 120346" d="M379.723,104.743a.431.431,0,0,1-.24-.064.447.447,0,0,1-.158-.205,2.252,2.252,0,0,1-.047-.229,1.722,1.722,0,0,1-.018-.24.274.274,0,0,1,.023-.147.128.128,0,0,0,.023-.106v-.164c0-.1-.029-.152-.07-.164a.232.232,0,0,0-.176.047c-.088.053-.2.123-.34.217s-.287.188-.44.293a4.992,4.992,0,0,0-.434.334,1.084,1.084,0,0,0-.194.264q-.035.088-.088.088c-.041.018-.07.023-.1,0s-.065-.047-.111-.082-.07-.076-.1-.111a.284.284,0,0,1-.065-.082.786.786,0,0,1,.023-.152c.012-.076.035-.152.053-.235s.035-.129.047-.152c.023,0,.047-.023.065-.07a1.029,1.029,0,0,1,.082-.158,1.308,1.308,0,0,1,.076-.235c.041-.1.076-.188.111-.264a1.288,1.288,0,0,0,.141-.293.974.974,0,0,0,.053-.293.087.087,0,0,1,.012-.053.057.057,0,0,1,.053-.023.137.137,0,0,1,.141-.035.317.317,0,0,1,.147.111.469.469,0,0,1,.106.358,1.552,1.552,0,0,1-.235.528c-.035.076-.059.135-.076.176a.264.264,0,0,0-.023.1c.1-.07.188-.123.252-.17a1.821,1.821,0,0,1,.158-.106,1.6,1.6,0,0,1,.164-.129c.088-.065.182-.123.281-.188a.984.984,0,0,1,.223-.106l.123-.053a.264.264,0,0,1,.094-.023.28.28,0,0,1,.147.065.983.983,0,0,1,.17.147.441.441,0,0,1,.094.141v.059a.208.208,0,0,0,.012.059,1.235,1.235,0,0,1,.035.252,2.31,2.31,0,0,1-.012.293c-.012.088-.029.141-.053.152a.034.034,0,0,0,.035.035v.035a.07.07,0,0,0-.029.064.339.339,0,0,0,.047.135.675.675,0,0,0,.082.117.179.179,0,0,1,.07.164c-.012.053-.053.088-.129.106Z" transform="translate(-370.175 -99.947)" fill="#829cf8"/>
          <path id="Trazado_120347" data-name="Trazado 120347" d="M383.375,104.968a.647.647,0,0,1-.522-.246.881.881,0,0,1-.193-.6,2.619,2.619,0,0,1,.106-.563,2.787,2.787,0,0,1,.246-.581,2.589,2.589,0,0,1,.334-.493,1.138,1.138,0,0,1,.375-.3.994.994,0,0,1,.158-.059.793.793,0,0,1,.17-.023.53.53,0,0,1,.164.023,1.349,1.349,0,0,1,.147.053.521.521,0,0,1,.188.123.7.7,0,0,1,.117.223c.012.094.023.158.023.194a.7.7,0,0,1-.035.176,1.8,1.8,0,0,1-.223.452,1.243,1.243,0,0,1-.369.323.463.463,0,0,1-.135.053.728.728,0,0,1-.158.018.773.773,0,0,1-.281-.053.5.5,0,0,1-.217-.164l-.053-.059-.023.059a2.8,2.8,0,0,0-.111.364,1.184,1.184,0,0,0-.041.3.836.836,0,0,0,.018.17.5.5,0,0,0,.053.141.185.185,0,0,0,.1.065.591.591,0,0,0,.147.018h.106a.342.342,0,0,0,.106-.023.907.907,0,0,0,.2-.094c.053-.035.106-.07.158-.111l.029-.012h-.006a2.044,2.044,0,0,0,.223-.129.08.08,0,0,0,.059-.035.156.156,0,0,1,.147.023.149.149,0,0,1,.088.129.285.285,0,0,1-.065.111.993.993,0,0,1-.129.141c-.047.041-.082.07-.111.07,0,0-.023.012-.053.023a.17.17,0,0,0-.059.035h.006a.173.173,0,0,1-.129.088h-.059c-.018.035-.082.07-.188.111a.867.867,0,0,1-.311.065Zm.328-1.6a.348.348,0,0,0,.229-.076.935.935,0,0,0,.17-.17.81.81,0,0,0,.17-.381.3.3,0,0,0-.047-.258.224.224,0,0,0-.076-.023.541.541,0,0,0-.129.023.552.552,0,0,0-.182.111q-.114.1-.229.211a1.418,1.418,0,0,0-.17.194l-.094.152a.421.421,0,0,1,.111-.023c.035,0,.059,0,.065.012a.263.263,0,0,0,.023.117.237.237,0,0,0,.065.082.174.174,0,0,0,.088.029Z" transform="translate(-372.437 -99.814)" fill="#829cf8"/>
        </g>
        <g id="Grupo_113816" data-name="Grupo 113816" transform="translate(85.517 13.863)">
          <path id="Trazado_120348" data-name="Trazado 120348" d="M244.733,103.036a.3.3,0,0,0-.229-.1,2.581,2.581,0,0,0-.434-.006.423.423,0,0,1-.194-.012.276.276,0,0,1-.147-.082.128.128,0,0,1-.041-.111c0-.059.053-.106.147-.141a1.551,1.551,0,0,1,.452-.059h.387l.07-.152c.018-.053.041-.129.07-.223s.059-.2.094-.311c.018-.07.047-.158.088-.276s.082-.24.123-.369.082-.246.117-.352.053-.176.064-.223.047-.117.082-.223.064-.211.1-.323.053-.188.065-.235c.123-.381.205-.657.246-.815s.047-.246.029-.252-.065,0-.141.006-.158.012-.246.018-.17.018-.24.023a.459.459,0,0,0-.129.029c-.023.035-.065.041-.123.023a.16.16,0,0,1-.111-.1.557.557,0,0,1,0-.1c0-.023.018-.041.041-.059a.709.709,0,0,1,.194-.1,3.16,3.16,0,0,1,.328-.1,2.809,2.809,0,0,1,.352-.065,1.844,1.844,0,0,0,.246-.053.6.6,0,0,0,.194-.1,1.053,1.053,0,0,1,.129-.035.315.315,0,0,1,.129-.006.417.417,0,0,0,.2.035c.094,0,.194,0,.3-.006a4.354,4.354,0,0,1,.551-.023.226.226,0,0,1,.194.117.4.4,0,0,1,.012.217c-.012.053-.065.076-.147.07a1.374,1.374,0,0,1-.235.023l-.358.018a1.376,1.376,0,0,0-.551.1.411.411,0,0,0-.047.059c-.012.018-.029.041-.047.065a.841.841,0,0,1-.035.188,3.289,3.289,0,0,1-.1.317c-.018.065-.047.152-.088.27s-.076.235-.117.358-.076.235-.111.334-.059.164-.07.2a.794.794,0,0,0-.047.141.763.763,0,0,0-.023.111c-.07.235-.129.44-.176.6s-.1.311-.141.434-.076.24-.111.358-.07.24-.111.375c.152-.012.287-.029.416-.035.229-.023.393-.041.493-.041a.549.549,0,0,1,.2.018.134.134,0,0,1,.07.088c.1.129.111.223.035.27a1.1,1.1,0,0,1-.516.065c-.252.012-.446.018-.581.023a1.119,1.119,0,0,0-.276.035.1.1,0,0,0-.088.07c0,.041-.018.059-.059.059a.536.536,0,0,1-.147-.029Z" transform="translate(-243.688 -97.993)" fill="#829cf8"/>
          <path id="Trazado_120349" data-name="Trazado 120349" d="M251.763,103.883a.431.431,0,0,1-.24-.065.448.448,0,0,1-.158-.205,2.252,2.252,0,0,1-.047-.229,1.727,1.727,0,0,1-.018-.24.274.274,0,0,1,.023-.147.128.128,0,0,0,.023-.106v-.164c0-.1-.029-.152-.07-.164a.232.232,0,0,0-.176.047c-.088.053-.2.123-.34.217s-.287.188-.44.293a5.006,5.006,0,0,0-.434.334,1.084,1.084,0,0,0-.194.264q-.035.088-.088.088c-.041.018-.07.023-.1,0s-.065-.047-.111-.082-.07-.076-.1-.111a.285.285,0,0,1-.065-.082.788.788,0,0,1,.023-.152c.012-.076.035-.152.053-.235s.035-.129.047-.152c.023,0,.047-.023.064-.07a1.034,1.034,0,0,1,.082-.158,1.308,1.308,0,0,1,.076-.235c.041-.1.076-.188.111-.264a1.289,1.289,0,0,0,.141-.293.972.972,0,0,0,.053-.293.087.087,0,0,1,.012-.053.057.057,0,0,1,.053-.023.137.137,0,0,1,.141-.035.317.317,0,0,1,.147.111.469.469,0,0,1,.106.358,1.553,1.553,0,0,1-.235.528c-.035.076-.059.135-.076.176a.263.263,0,0,0-.023.1c.1-.07.188-.123.252-.17a1.818,1.818,0,0,1,.158-.106,1.6,1.6,0,0,1,.164-.129c.088-.064.182-.123.281-.188a.984.984,0,0,1,.223-.106l.123-.053a.265.265,0,0,1,.094-.023.28.28,0,0,1,.147.065.981.981,0,0,1,.17.147.439.439,0,0,1,.094.141v.059a.208.208,0,0,0,.012.059,1.237,1.237,0,0,1,.035.252,2.31,2.31,0,0,1-.012.293c-.012.088-.029.141-.053.152a.034.034,0,0,0,.035.035v.035a.07.07,0,0,0-.029.065.338.338,0,0,0,.047.135.672.672,0,0,0,.082.117.179.179,0,0,1,.07.164c-.012.053-.053.088-.129.106Z" transform="translate(-245.98 -99.402)" fill="#829cf8"/>
          <path id="Trazado_120350" data-name="Trazado 120350" d="M257.718,103.046a.169.169,0,0,1-.147-.094.2.2,0,0,1-.053-.117.764.764,0,0,1,.047-.276q.062-.2.194-.616c.047-.182.088-.317.117-.4a.6.6,0,0,0,.041-.188.443.443,0,0,1,.018-.135.333.333,0,0,0,.018-.106c.029,0,.059-.029.088-.082a.723.723,0,0,0,.07-.217,1.879,1.879,0,0,1,.053-.2.382.382,0,0,0,.023-.106,1.215,1.215,0,0,0,.076-.182,2.709,2.709,0,0,1,.129-.3c.041-.147.082-.3.129-.452s.1-.3.147-.446.094-.246.129-.323a3.053,3.053,0,0,1,.123-.317c.029-.059.029-.1,0-.117s-.041-.065-.023-.123a.441.441,0,0,1,.158-.194.726.726,0,0,1,.141-.135.24.24,0,0,1,.147-.041,2.483,2.483,0,0,1,.264.012c.088,0,.182.006.282.006h.188l.158.064c.064.023.117.041.17.065s.076.035.076.053a.047.047,0,0,0,.035.053l.07.018a.238.238,0,0,1,.141.076,1.869,1.869,0,0,1,.182.188.918.918,0,0,1,.147.235,1.057,1.057,0,0,1,.088.235.68.68,0,0,1,0,.311.932.932,0,0,1-.035.217.49.49,0,0,1-.053.147.438.438,0,0,0-.082.07.127.127,0,0,0-.035.082.282.282,0,0,1-.053.111c-.035.059-.076.117-.129.194s-.111.147-.176.217-.123.135-.182.188a1.305,1.305,0,0,1-.223.217,2.288,2.288,0,0,1-.229.17c-.123.059-.264.117-.416.176s-.3.106-.434.147a1.033,1.033,0,0,1-.346.053,1.227,1.227,0,0,0-.27.053.172.172,0,0,0-.088.129l-.07.194a.5.5,0,0,0-.035.135,1.22,1.22,0,0,0-.07.176c-.035.1-.076.217-.117.346s-.082.258-.117.387a3.034,3.034,0,0,0-.088.311c-.018.07-.041.106-.07.117a.3.3,0,0,1-.111.018Zm.9-2.252a.647.647,0,0,0,.223.006,1.615,1.615,0,0,0,.422-.111,3.113,3.113,0,0,0,.293-.123,2.746,2.746,0,0,0,.287-.158,2.509,2.509,0,0,0,.217-.182,3.027,3.027,0,0,0,.293-.311c.012-.023.041-.07.076-.141s.07-.135.1-.2a1.506,1.506,0,0,0,.129-.3.609.609,0,0,0,.029-.328.714.714,0,0,0-.188-.352.76.76,0,0,0-.364-.223,1.712,1.712,0,0,0-.264-.029,1.082,1.082,0,0,0-.229.023.364.364,0,0,0-.17.1,1.235,1.235,0,0,0-.141.276c-.035.07-.082.17-.147.311s-.117.27-.158.387a7.285,7.285,0,0,1-.258.786q-.123.308-.158.387a.544.544,0,0,1-.006.111.078.078,0,0,0,.012.07Z" transform="translate(-249.407 -97.88)" fill="#829cf8"/>
          <path id="Trazado_120351" data-name="Trazado 120351" d="M264.028,104.023a.441.441,0,0,1-.07-.006c-.035-.012-.07-.023-.1-.035a.28.28,0,0,1-.064-.035.287.287,0,0,1-.053-.088.274.274,0,0,1,0-.17.792.792,0,0,1,.147-.293c.023-.047.053-.123.088-.217s.07-.2.106-.311.07-.205.1-.293a1.494,1.494,0,0,1,.07-.182.315.315,0,0,0-.012-.176.145.145,0,0,0-.129-.065.293.293,0,0,1-.111-.012c-.029-.012-.041-.059-.041-.147a.269.269,0,0,1,.053-.141.617.617,0,0,1,.111-.088.736.736,0,0,1,.147-.053.417.417,0,0,1,.147-.006.169.169,0,0,1,.117.053c.035.018.053.065.065.129a1.146,1.146,0,0,1,.018.2.888.888,0,0,0,.012.152c.047-.041.117-.094.2-.164s.158-.135.223-.2.17-.106.276-.164a.616.616,0,0,1,.235-.082.319.319,0,0,1,.158.041.268.268,0,0,1,.111.1.446.446,0,0,1,.07.217.311.311,0,0,1-.082.194.346.346,0,0,1-.176.129.628.628,0,0,1-.135.035.273.273,0,0,1-.182-.176c0-.012-.029,0-.088.041s-.129.094-.2.152-.135.117-.182.164a2.593,2.593,0,0,0-.264.416c-.094.176-.2.387-.328.633a1.873,1.873,0,0,0-.123.311c-.023.082-.059.135-.1.147Z" transform="translate(-251.975 -99.431)" fill="#829cf8"/>
          <path id="Trazado_120352" data-name="Trazado 120352" d="M268.43,104.057a.258.258,0,0,1-.147-.035c-.035-.023-.082-.059-.135-.1a.867.867,0,0,1-.193-.281.4.4,0,0,1-.035-.258.456.456,0,0,0,.012-.164c-.023-.023-.029-.041-.023-.047s.018-.023.029-.041c.029,0,.041-.029.029-.082a.559.559,0,0,1,.059-.252,2.161,2.161,0,0,1,.182-.369c.029-.047.07-.111.129-.194s.123-.158.194-.24a1.5,1.5,0,0,1,.193-.194,1.9,1.9,0,0,1,.323-.223,1.655,1.655,0,0,1,.3-.111,1.232,1.232,0,0,1,.223-.035c.041,0,.1.041.17.117a.58.58,0,0,1,.246.176.618.618,0,0,1,.1.3,1.9,1.9,0,0,1-.035.5,1.93,1.93,0,0,1-.346.692,1.976,1.976,0,0,1-.334.387,2.783,2.783,0,0,1-.364.252,1.159,1.159,0,0,1-.276.147,1.281,1.281,0,0,1-.293.064Zm.7-.768a2.377,2.377,0,0,0,.281-.369,2.492,2.492,0,0,0,.2-.446.818.818,0,0,0,.035-.2v-.223c-.006-.07-.023-.111-.053-.117a.313.313,0,0,0-.211-.035.571.571,0,0,0-.27.141,1.724,1.724,0,0,0-.393.469,6.326,6.326,0,0,0-.328.633.577.577,0,0,0-.047.416c.041.106.129.141.27.111a1.189,1.189,0,0,0,.522-.381Z" transform="translate(-253.704 -99.348)" fill="#829cf8"/>
          <path id="Trazado_120353" data-name="Trazado 120353" d="M273.061,105.519a.574.574,0,0,1-.3.041.935.935,0,0,1-.323-.1,1.2,1.2,0,0,1-.282-.194.617.617,0,0,1-.106-.158,1.111,1.111,0,0,1-.082-.2c-.018-.065-.018-.1,0-.111a.117.117,0,0,1,.082-.012.308.308,0,0,1,.1.023c.029.012.047.029.047.047.029.023.082.064.153.111a.451.451,0,0,0,.164.088.54.54,0,0,0,.223.041.211.211,0,0,0,.129-.053.748.748,0,0,0,.182-.246c.041-.1.088-.229.141-.4l.024-.094c.041-.182.082-.369.129-.575s.088-.364.123-.481a.581.581,0,0,0,.023-.223c-.006-.041-.029-.029-.07.023a.18.18,0,0,0-.076.029.88.88,0,0,0-.106.053c-.059.029-.117.059-.176.082a.5.5,0,0,1-.147.053c-.041,0-.094,0-.158.006a.254.254,0,0,1-.205-.012.717.717,0,0,1-.264-.141c-.041-.059-.076-.106-.094-.135a.289.289,0,0,1-.035-.1c0-.035-.006-.094-.006-.17a.851.851,0,0,1,.111-.34,2.227,2.227,0,0,1,.293-.416,2.109,2.109,0,0,1,.358-.281,2.718,2.718,0,0,1,.44-.24.833.833,0,0,1,.369-.088,1.151,1.151,0,0,1,.141.018.331.331,0,0,1,.147.07.384.384,0,0,1,.147.111,1.178,1.178,0,0,1,.117.223,1.116,1.116,0,0,1,.065.229,1.446,1.446,0,0,1,.023.217.638.638,0,0,1-.029.194.332.332,0,0,1-.082.141h-.035a.083.083,0,0,0-.035.012.174.174,0,0,1-.07.012c-.012,0-.029.018-.053.047a.308.308,0,0,0-.041.117.466.466,0,0,1-.018.088c-.006.029-.018.059-.023.082a.442.442,0,0,0-.023.065.15.15,0,0,0-.012.041c0,.012,0,.029-.006.035s-.012.023-.023.035a.631.631,0,0,0-.041.088.368.368,0,0,0-.018.111l-.029.082c-.012.047-.029.094-.041.129a.533.533,0,0,0-.018.07l-.029.147a.683.683,0,0,1-.035.088.723.723,0,0,0-.035.117,2.4,2.4,0,0,0-.035.246,5.01,5.01,0,0,1-.293.938,1.02,1.02,0,0,1-.282.4Zm-.5-2.639a.6.6,0,0,0,.393.012,1.366,1.366,0,0,0,.463-.264,1.189,1.189,0,0,0,.281-.287,1.209,1.209,0,0,0,.164-.34.351.351,0,0,0,.023-.158c-.012-.029-.041-.047-.094-.053a.563.563,0,0,0-.311.041,2.381,2.381,0,0,0-.387.194.441.441,0,0,1-.088.094,1.5,1.5,0,0,1-.129.094c0,.012-.012.023-.018.035a.083.083,0,0,1-.041.035.789.789,0,0,0-.147.194,1.413,1.413,0,0,0-.106.246c-.023.076-.023.123,0,.147Z" transform="translate(-255.379 -99.315)" fill="#829cf8"/>
          <path id="Trazado_120354" data-name="Trazado 120354" d="M276.879,103.827a.324.324,0,0,1-.088-.1.344.344,0,0,1,0-.194,2.542,2.542,0,0,1,.059-.358c.023-.106.053-.223.088-.358a2.5,2.5,0,0,1,.082-.3c.047-.141.106-.293.17-.457s.135-.323.205-.469a2.209,2.209,0,0,1,.176-.328.2.2,0,0,1,.141-.035.211.211,0,0,1,.141.065c.053.041.065.117.023.229a4.369,4.369,0,0,1-.223.51c-.059.129-.1.229-.129.293s-.041.106-.035.117.029.006.064-.018a.81.81,0,0,1,.158-.188,2.856,2.856,0,0,1,.246-.205c.088-.07.17-.129.246-.182a1.129,1.129,0,0,1,.158-.1.721.721,0,0,1,.135-.065.559.559,0,0,0,.106-.041.627.627,0,0,1,.34-.059.237.237,0,0,1,.217.129c0,.041.035.076.088.117.018,0,.029.012.035.041s-.023.053-.076.065-.117.012-.194.018a.452.452,0,0,0-.164.035q-.07.026-.176.07c-.182.106-.358.211-.528.311a2.028,2.028,0,0,0-.481.4.66.66,0,0,0-.1.141c-.035.053-.07.111-.111.176a.4.4,0,0,0-.07.158c-.023.082-.047.158-.064.235a.758.758,0,0,0-.023.135.679.679,0,0,1-.094.205c-.059.076-.106.117-.147.117s-.1-.041-.176-.117Z" transform="translate(-257.373 -99.264)" fill="#829cf8"/>
          <path id="Trazado_120355" data-name="Trazado 120355" d="M281.865,104.108a.647.647,0,0,1-.522-.246.881.881,0,0,1-.194-.6,2.619,2.619,0,0,1,.106-.563,2.782,2.782,0,0,1,.246-.581,2.588,2.588,0,0,1,.334-.493,1.138,1.138,0,0,1,.375-.3.992.992,0,0,1,.158-.059.794.794,0,0,1,.17-.023.53.53,0,0,1,.164.023,1.341,1.341,0,0,1,.147.053.521.521,0,0,1,.188.123.7.7,0,0,1,.117.223c.012.094.023.158.023.194a.7.7,0,0,1-.035.176,1.8,1.8,0,0,1-.223.452,1.243,1.243,0,0,1-.369.323.461.461,0,0,1-.135.053.728.728,0,0,1-.158.018.774.774,0,0,1-.282-.053.5.5,0,0,1-.217-.164l-.053-.059-.023.059a2.776,2.776,0,0,0-.111.364,1.182,1.182,0,0,0-.041.3.838.838,0,0,0,.018.17.5.5,0,0,0,.053.141.185.185,0,0,0,.1.064.59.59,0,0,0,.147.018h.106a.342.342,0,0,0,.106-.023.907.907,0,0,0,.2-.094c.053-.035.106-.07.158-.111l.029-.012h-.006a2.041,2.041,0,0,0,.223-.129.08.08,0,0,0,.059-.035.156.156,0,0,1,.147.023.149.149,0,0,1,.088.129.285.285,0,0,1-.064.111,1,1,0,0,1-.129.141c-.047.041-.082.07-.111.07,0,0-.023.012-.053.023a.169.169,0,0,0-.059.035h.006a.173.173,0,0,1-.129.088h-.059c-.018.035-.082.07-.188.111a.867.867,0,0,1-.311.065Zm.328-1.6a.348.348,0,0,0,.229-.076.934.934,0,0,0,.17-.17.81.81,0,0,0,.17-.381.3.3,0,0,0-.047-.258.224.224,0,0,0-.076-.023.541.541,0,0,0-.129.023.552.552,0,0,0-.182.111q-.114.1-.229.211a1.417,1.417,0,0,0-.17.194l-.094.152a.421.421,0,0,1,.111-.023c.035,0,.059,0,.065.012a.262.262,0,0,0,.023.117.237.237,0,0,0,.065.082.174.174,0,0,0,.088.029Z" transform="translate(-259.181 -99.27)" fill="#829cf8"/>
          <path id="Trazado_120356" data-name="Trazado 120356" d="M285.793,103.925a1.123,1.123,0,0,1-.346-.023.6.6,0,0,1-.276-.129.462.462,0,0,1-.158-.223.426.426,0,0,1-.053-.141q0-.035.053-.07a.164.164,0,0,1,.106.035.636.636,0,0,0,.129.07.378.378,0,0,0,.264.1.661.661,0,0,0,.287-.053c.088-.041.135-.088.147-.147a.317.317,0,0,0-.023-.1.941.941,0,0,0-.053-.152,2.071,2.071,0,0,1-.287-.551,1.513,1.513,0,0,1-.088-.446.611.611,0,0,1,.082-.281.743.743,0,0,1,.217-.252,1.484,1.484,0,0,1,.293-.246,3.054,3.054,0,0,1,.323-.188,1.791,1.791,0,0,1,.293-.117,1.089,1.089,0,0,1,.211.023.448.448,0,0,1,.182.053.307.307,0,0,1,.153.158.514.514,0,0,1,.07.252.437.437,0,0,1-.029.129,1.113,1.113,0,0,1-.094.188.853.853,0,0,1-.065.147.252.252,0,0,0-.035.1.109.109,0,0,1-.1.076.182.182,0,0,1-.123-.065.433.433,0,0,1-.1-.147.519.519,0,0,1-.023-.176.276.276,0,0,1,.059-.147c.053-.053.082-.088.082-.111s-.029-.029-.082-.029a.623.623,0,0,0-.188.065,2.368,2.368,0,0,0-.281.158,1.589,1.589,0,0,0-.258.205.854.854,0,0,0-.164.188.486.486,0,0,0-.023.182.93.93,0,0,0,.047.252.51.51,0,0,0,.1.205,2.911,2.911,0,0,0,.176.3.872.872,0,0,1,.111.669c-.07.135-.246.211-.528.235Z" transform="translate(-260.757 -99.174)" fill="#829cf8"/>
          <path id="Trazado_120357" data-name="Trazado 120357" d="M290.165,104a.579.579,0,0,1-.528-.264.241.241,0,0,1-.047-.147.127.127,0,0,1,.041-.106c.029-.018.059,0,.1.053a.577.577,0,0,0,.293.059,1.081,1.081,0,0,0,.194-.018,1.321,1.321,0,0,0,.205-.053.666.666,0,0,0,.147-.088c.023-.029.018-.047-.012-.07h.006a1.627,1.627,0,0,1-.381-.164,1.654,1.654,0,0,1-.328-.246.458.458,0,0,1-.158-.246.743.743,0,0,1,.029-.463,1.285,1.285,0,0,1,.246-.416c.041-.023.088-.053.147-.088a.465.465,0,0,1,.141-.065h0a1.18,1.18,0,0,1,.34-.223,4.493,4.493,0,0,1,.422-.158l.111-.012a.7.7,0,0,1,.147-.012l.029.012c.023.006.047.012.065.018a.243.243,0,0,0,.07.023.358.358,0,0,1,.176.088.622.622,0,0,1,.129.17.368.368,0,0,1,.035.188.557.557,0,0,1-.082.246.254.254,0,0,1-.164.123c.012,0,0-.012-.018-.023a.439.439,0,0,1-.07-.041l-.023.012a.3.3,0,0,0-.023-.065.277.277,0,0,1-.023-.1.827.827,0,0,1,.006-.117c.012-.053.012-.082,0-.094s-.041-.018-.1-.023a.723.723,0,0,0-.293.035,1.1,1.1,0,0,0-.323.158c-.106.07-.193.135-.27.194a1.242,1.242,0,0,0-.176.176,1.209,1.209,0,0,0-.117.194.955.955,0,0,0-.064.1.16.16,0,0,0-.023.082c0,.053.041.106.117.164a2.607,2.607,0,0,0,.358.194,1.658,1.658,0,0,1,.323.176.524.524,0,0,1,.182.217.127.127,0,0,1,.012.07q0,.044-.018.053c.012.012.012.018.012.023h0a.141.141,0,0,1,0,.176.456.456,0,0,1-.182.164,1.015,1.015,0,0,1-.311.106h.006a1.077,1.077,0,0,1-.188.041c-.059.006-.117.012-.17.012Z" transform="translate(-262.672 -99.282)" fill="#829cf8"/>
        </g>
        <g id="Grupo_113817" data-name="Grupo 113817" transform="translate(12.485 54.549)">
          <path id="Trazado_120358" data-name="Trazado 120358" d="M134.67,197.428a13.69,13.69,0,0,1,4.609.528,9.775,9.775,0,0,1,5.618,5.7,19.3,19.3,0,0,1,1.1,8.116,9.132,9.132,0,0,1-.323,2.293,7.753,7.753,0,0,1-1.619,2.721,14.646,14.646,0,0,1-16.942,3.671,10.188,10.188,0,0,1-4.052-3.325,12.328,12.328,0,0,1-1.273-2.569,27.387,27.387,0,0,1-1.806-9.518c-.07-7.453,9.424-7.547,14.7-7.612Z" transform="translate(-119.493 -179.735)" fill="none" stroke="#0f31ac" stroke-miterlimit="10" stroke-width="0.31"/>
          <path id="Trazado_120359" data-name="Trazado 120359" d="M167.99,210.61A10.268,10.268,0,0,0,175,204.9a18.386,18.386,0,0,0,1.542-9.148" transform="translate(-139.349 -179.043)" fill="none" stroke="#0f31ac" stroke-miterlimit="10" stroke-width="0.31"/>
          <path id="Trazado_120360" data-name="Trazado 120360" d="M179.18,198.151c.311-1.695,1.841-3.178,1.472-4.861.645.229.932.962,1.144,1.613l.9,2.744" transform="translate(-143.977 -178.025)" fill="none" stroke="#0f31ac" stroke-miterlimit="10" stroke-width="0.31"/>
          <path id="Trazado_120361" data-name="Trazado 120361" d="M125,188.772c-.287.076-.528-.205-.686-.452a13.23,13.23,0,0,1-1.753-9.23" transform="translate(-120.474 -172.153)" fill="none" stroke="#0f31ac" stroke-miterlimit="10" stroke-width="0.31"/>
          <path id="Trazado_120362" data-name="Trazado 120362" d="M119.15,179.594a10.131,10.131,0,0,1,2.328-3.284,30.422,30.422,0,0,1,1.5,3.583" transform="translate(-119.15 -171.003)" fill="none" stroke="#0f31ac" stroke-miterlimit="10" stroke-width="0.31"/>
          <path id="Trazado_120363" data-name="Trazado 120363" d="M160.12,245.465a1.953,1.953,0,0,0,1.542-.229c.281-.176.557-.44.885-.4a2.031,2.031,0,0,1,.522.223c1.267.586,2.809-1.1,4.023-.416.287.164.545.452.874.428a2.323,2.323,0,0,0,.434-.135,1.82,1.82,0,0,1,.868.041l1.935.422a1.629,1.629,0,0,0,.786.041c.229-.065.416-.223.645-.293.891-.276,1.988.891,2.656.24" transform="translate(-136.094 -199.196)" fill="none" stroke="#0f31ac" stroke-miterlimit="10" stroke-width="0.31"/>
          <path id="Trazado_120364" data-name="Trazado 120364" d="M159.256,249.466c-.147-.364.211-.774.6-.839a2.121,2.121,0,0,1,1.138.246,1.878,1.878,0,0,0,1.144.205,5.235,5.235,0,0,0,.827-.422c1.132-.51,2.375.481,3.618.5,1.138.018,2.258-.78,3.337-.434" transform="translate(-135.723 -200.863)" fill="none" stroke="#0f31ac" stroke-miterlimit="10" stroke-width="0.31"/>
          <path id="Trazado_120365" data-name="Trazado 120365" d="M159.97,255.039c.194-.563,1.032-.5,1.542-.2s1.044.756,1.624.622a2.554,2.554,0,0,0,.78-.452,2.8,2.8,0,0,1,1.308-.457,8.584,8.584,0,0,1,2.393.369,8.449,8.449,0,0,0,1.959.164" transform="translate(-136.032 -203.357)" fill="none" stroke="#0f31ac" stroke-miterlimit="10" stroke-width="0.31"/>
          <path id="Trazado_120366" data-name="Trazado 120366" d="M145.959,250.093a11.737,11.737,0,0,1-6.339-5.213" transform="translate(-127.616 -199.362)" fill="none" stroke="#0f31ac" stroke-miterlimit="10" stroke-width="0.31"/>
          <path id="Trazado_120367" data-name="Trazado 120367" d="M138.207,246.8a7.88,7.88,0,0,1-.217-3.583,9.812,9.812,0,0,1,2.539,1.331" transform="translate(-126.895 -198.675)" fill="none" stroke="#0f31ac" stroke-miterlimit="10" stroke-width="0.31"/>
          <path id="Trazado_120368" data-name="Trazado 120368" d="M302.3,216.69a11.126,11.126,0,0,1-4.686,6.943,24.827,24.827,0,0,1-7.829,3.431" transform="translate(-189.722 -187.703)" fill="none" stroke="#0f31ac" stroke-miterlimit="10" stroke-width="0.31"/>
          <path id="Trazado_120369" data-name="Trazado 120369" d="M290.128,230.89a1.449,1.449,0,0,0-1.161.733,4.328,4.328,0,0,0-.463,1.349.554.554,0,0,0-.012.258c.059.188.3.235.5.264a7.331,7.331,0,0,1,2.7.874" transform="translate(-189.181 -193.576)" fill="none" stroke="#0f31ac" stroke-miterlimit="10" stroke-width="0.31"/>
          <path id="Trazado_120370" data-name="Trazado 120370" d="M263.941,167.26a29.155,29.155,0,0,1-.991,5.589" transform="translate(-178.622 -167.26)" fill="none" stroke="#0f31ac" stroke-miterlimit="10" stroke-width="0.31"/>
          <path id="Trazado_120371" data-name="Trazado 120371" d="M260.76,174.41a6.918,6.918,0,0,0,1.179,2.481c.786-.551,1.578-1.1,2.363-1.654" transform="translate(-177.716 -170.217)" fill="none" stroke="#0f31ac" stroke-miterlimit="10" stroke-width="0.31"/>
          <path id="Trazado_120372" data-name="Trazado 120372" d="M240.79,198.48a9.77,9.77,0,0,1,1.712.821,7.367,7.367,0,0,1,1.982,2.058c1.484,2.164,2.352,4.762,4.187,6.638" transform="translate(-169.457 -180.172)" fill="none" stroke="#0f31ac" stroke-miterlimit="10" stroke-width="0.31"/>
          <path id="Trazado_120373" data-name="Trazado 120373" d="M249.31,211.159a7.2,7.2,0,0,0,3.577,2.6,13.27,13.27,0,0,0-.944-3.507" transform="translate(-172.981 -185.04)" fill="none" stroke="#0f31ac" stroke-miterlimit="10" stroke-width="0.31"/>
          <path id="Trazado_120374" data-name="Trazado 120374" d="M388,175.083a12.055,12.055,0,0,1,6.955.276,7.935,7.935,0,0,1,4.82,4.832,9.689,9.689,0,0,1,.334,3.483,13.275,13.275,0,0,1-2.3,6.943,9.076,9.076,0,0,1-6.122,3.794c-2.967.352-5.858-1.026-8.415-2.58a4.749,4.749,0,0,1-1.384-1.114,4.966,4.966,0,0,1-.669-1.413c-.369-1.1-.7-2.223-.973-3.354a10.638,10.638,0,0,1-.246-5.465c.932-3.219,5.09-4.721,8.016-5.4Z" transform="translate(-226.918 -170.339)" fill="none" stroke="#0f31ac" stroke-miterlimit="10" stroke-width="0.31"/>
          <path id="Trazado_120375" data-name="Trazado 120375" d="M353.9,236.03a21.935,21.935,0,0,0,6.257,7.8,5.615,5.615,0,0,0,2,1.114" transform="translate(-216.237 -195.701)" fill="none" stroke="#0f31ac" stroke-miterlimit="10" stroke-width="0.31"/>
          <path id="Trazado_120376" data-name="Trazado 120376" d="M365.134,246.1c1.249,1.1,1.531,3.067,2.909,4A3.551,3.551,0,0,1,364.6,249" transform="translate(-220.662 -199.866)" fill="none" stroke="#0f31ac" stroke-miterlimit="10" stroke-width="0.31"/>
          <path id="Trazado_120377" data-name="Trazado 120377" d="M402.98,254.892q4.469-3.571,9.236-6.732" transform="translate(-236.535 -200.718)" fill="none" stroke="#0f31ac" stroke-miterlimit="10" stroke-width="0.31"/>
          <path id="Trazado_120378" data-name="Trazado 120378" d="M405.52,256.432a46.824,46.824,0,0,1,6.2-4.762,15.675,15.675,0,0,0,2.228-1.46" transform="translate(-237.585 -201.566)" fill="none" stroke="#0f31ac" stroke-miterlimit="10" stroke-width="0.31"/>
        </g>
      </g>
      <g id="Grupo_113827" data-name="Grupo 113827" transform="translate(-4.589 104.465)">
        <g id="Grupo_113820" data-name="Grupo 113820" transform="translate(0 0.447)">
          <g id="Grupo_113819" data-name="Grupo 113819">
            <path id="Trazado_120379" data-name="Trazado 120379" d="M58.715,340.528s-.962,7.811,0,9.594l-7.055,1.3,2.123-12.813,4.932,1.918Z" transform="translate(-37.099 -232.619)" fill="#db965f"/>
            <path id="Trazado_120380" data-name="Trazado 120380" d="M57.574,360.787s5.788,1.425,10.216.281a1.264,1.264,0,0,0,.927-1.5c-.176-.809-.909-1.777-3.278-2.164,0,0-6.369-2.756-8.14-4.949,0,0-3.671,1.836-5.858.411a5.342,5.342,0,0,0-1.935,3.554,3.147,3.147,0,0,0,2.756,3.472,40.227,40.227,0,0,1,5.313.891Z" transform="translate(-36.199 -238.347)" fill="#040c2b"/>
            <path id="Trazado_120381" data-name="Trazado 120381" d="M42.8,339.008s-.962,7.811,0,9.594l-7.055,1.3,2.123-12.813Z" transform="translate(-30.519 -231.99)" fill="#db965f"/>
            <path id="Trazado_120382" data-name="Trazado 120382" d="M41.874,360.753s5.788,1.425,10.216.281a1.264,1.264,0,0,0,.927-1.5c-.176-.809-.909-1.777-3.278-2.164,0,0-6.369-2.756-8.14-4.949,0,0-3.859,1.419-6.046-.006a7.786,7.786,0,0,0-1.748,3.97,3.147,3.147,0,0,0,2.756,3.472A40.232,40.232,0,0,1,41.874,360.753Z" transform="translate(-29.706 -238.33)" fill="#040c2b"/>
            <path id="Trazado_120383" data-name="Trazado 120383" d="M50.711,238.92l4.51,29.145-2.739,30.418,1.413.217,5.782.88,5.407-29.339a46.214,46.214,0,0,0,.757-9.078l-.4-25.7L50.5,237.512l.217,1.413Z" transform="translate(-36.619 -189.959)" fill="#12263f"/>
            <path id="Trazado_120384" data-name="Trazado 120384" d="M55.37,270.505l-2.739,30.418,1.407.217L59.1,271.2l.991-29.837H50.86Z" transform="translate(-36.768 -192.399)" opacity="0.15"/>
            <path id="Trazado_120385" data-name="Trazado 120385" d="M38.6,235.8s-2.193,5-1.167,17.264l.868,15.488L36.58,299l7.577.446L49.311,273.6a79.824,79.824,0,0,0,1.49-14.221l.369-25.328L38.6,235.8Z" transform="translate(-30.862 -189.376)" fill="#12263f"/>
            <path id="Trazado_120386" data-name="Trazado 120386" d="M75.024,218.882l-.317-.815L71.3,209.042l2.727-.393,1.237-.176,2.522-.364,1.208,4.791.3,1.2,13.06-3.865A11.074,11.074,0,0,1,95.1,206.28a.68.68,0,0,1,.4,1.05l-.8,1.155s3.284-2.475,5.471-1.695c0,0,3.02,1.3,1.742,3.941,0,0-.4,2.721-6.674,3.519l-18.2,5.559a1.666,1.666,0,0,1-2.011-.927h0" transform="translate(-45.222 -177.891)" fill="#db965f"/>
            <path id="Trazado_120387" data-name="Trazado 120387" d="M46.8,181.306l.029,5.512,8.468,1.5,4.92-2.428-2.129-2.668-1.179-1.478a1.347,1.347,0,0,1-.276-1.05l1.026-6.328-8.251-3.583.7,5.032.111.827c.246,2.68-3.425,4.674-3.425,4.674Z" transform="translate(-35.085 -163.209)" fill="#c9885b"/>
            <path id="Trazado_120388" data-name="Trazado 120388" d="M51.26,170.78l.78,5.7a14.1,14.1,0,0,0,7.9,6.738L58.76,181.74a1.347,1.347,0,0,1-.276-1.05l1.026-6.328L51.26,170.78Z" transform="translate(-36.934 -163.209)" opacity="0.15"/>
            <path id="Trazado_120389" data-name="Trazado 120389" d="M62.624,167.779s-1,11.336-4.486,10.773c0,0-3.894-.657-7.94-6.574l-.968-2.4L52.1,166.53l10.526,1.243Z" transform="translate(-36.094 -161.451)" fill="#db965f"/>
            <path id="Trazado_120390" data-name="Trazado 120390" d="M56.437,158.591s10.274,1.577,5.26,8.638c0,0-.9.147-1.959-3.032,0,0-.745,3.425-6.416,1.806a8.126,8.126,0,0,1-.5,2.492h-.563s.065-1.994-1.56-2.428c0,0-1.994-.311-.874,2.428l.715,1.149.164,1.871s-2.252-4.023-2.627-6.451a5.818,5.818,0,0,1,2.551-6.1s2.868-2.182,5.794-.375Z" transform="translate(-35.572 -157.869)" fill="#12263f"/>
            <path id="Trazado_120391" data-name="Trazado 120391" d="M75.05,210.092l1.73-.6,3.583-1.243.792-.276c-1.97-10.35-3.882-12.456-4.756-12.843a.632.632,0,0,0-.493-.059L75.4,204l-.346,6.087Z" transform="translate(-46.773 -173.246)" fill="#fff"/>
            <path id="Trazado_120392" data-name="Trazado 120392" d="M70.99,205.061,74.4,213.9l.7-3.847-.152-5.553-.235-8.515a.668.668,0,0,0-.493-.059l-.5,8.749-2.727.387Z" transform="translate(-45.093 -173.599)" opacity="0.15"/>
            <path id="Trazado_120393" data-name="Trazado 120393" d="M58.885,221.647a71.666,71.666,0,0,1-8.843,1.449h0c-4.621.452-9.987.457-14.279-1.009l-.152-.053A1.655,1.655,0,0,1,34.5,220.5l-.018-.762-.334-16.567v-.111l.088-1.63.475-8.972,6.216-4.064.293-.188,1.748-1.144s-1.243,2.3,4.48,4.961a3.628,3.628,0,0,0,1.806.317,3.318,3.318,0,0,0,1.413-.457c.938-.557,1.689-1.6.938-3.507l1.959.844.217.094,5.378,2.322a.748.748,0,0,1,.452.71l-.54,15.951c0,.07,0,.147.006.217l1.1,11.347a1.659,1.659,0,0,1-1.29,1.783Z" transform="translate(-29.857 -169.942)" fill="#fff"/>
            <path id="Trazado_120394" data-name="Trazado 120394" d="M38.095,211.106,35.773,232.03l-.152-.053a1.655,1.655,0,0,1-1.108-1.536l-.018-.762-.334-16.567V213l.088-1.63,3.847-.27Z" transform="translate(-29.861 -179.884)" opacity="0.15"/>
            <path id="Trazado_120395" data-name="Trazado 120395" d="M46.946,239.358a28.2,28.2,0,0,1-7.442-1.906,2.577,2.577,0,0,1-.9-.663l-1.255-1.443-9.019-10.38a5.814,5.814,0,0,1-1.413-4.128l.029-.54.7-9.09,6.275,1.882-1.677,8.638-.041.276,7.735,10.35a21.839,21.839,0,0,1,3.348,0,1.538,1.538,0,0,1,.862.3l1.114.809a.683.683,0,0,1-.493,1.009L42.706,234a2.023,2.023,0,0,0,.094.41c.223.663.962,2,3.39,3.079,0,0,3.548,1,.745,1.871Z" transform="translate(-26.861 -179.93)" fill="#db965f"/>
            <path id="Trazado_120396" data-name="Trazado 120396" d="M32.014,196.23s-3.818-.1-5.184,12.983l6.6,2.428S38.512,197.074,32.014,196.23Z" transform="translate(-26.83 -173.734)" fill="#fff"/>
            <path id="Trazado_120397" data-name="Trazado 120397" d="M59.31,196.082l.739,30.74h.4l-.8-30.658.018-.094a2.351,2.351,0,0,1-.352.012Z" transform="translate(-40.263 -173.668)" opacity="0.15"/>
            <path id="Trazado_120398" data-name="Trazado 120398" d="M59.91,193.9c.018.035.692,1.3,1.308.686l.393,1.6s3.008-1.009,2.821-5.336l-.217-.094a5.487,5.487,0,0,1-2.5,5.014l-.375-1.619a1.015,1.015,0,0,1-1.431-.246Z" transform="translate(-40.511 -171.472)" opacity="0.15"/>
            <path id="Trazado_120399" data-name="Trazado 120399" d="M58.28,196.847a.838.838,0,0,0,.581-.727A1.26,1.26,0,0,1,58.28,196.847Z" transform="translate(-39.837 -173.689)" opacity="0.15"/>
            <path id="Trazado_120400" data-name="Trazado 120400" d="M45.71,189.208c.7,1.73,2.357,4.035,6.21,6.275l.563-1.308a2.359,2.359,0,0,0,.6-.264,1.2,1.2,0,0,1-.727-.106l-.434,1.243s-5.02-2.6-5.917-6.028l-.293.194Z" transform="translate(-34.638 -170.752)" opacity="0.15"/>
          </g>
          <path id="Trazado_120401" data-name="Trazado 120401" d="M67.134,252.681H47.7l8.826-18.6h19.44Z" transform="translate(-35.461 -189.388)" fill="#00defc"/>
          <path id="Trazado_120402" data-name="Trazado 120402" d="M54.314,255.719s-5.313,1.138-7.647-1.836c-.235-.3-.446-.446-.692-.733l-1.255-1.443,5.454-.938c.223.663.962,2,3.39,3.079,0,0,3.548,1,.745,1.871Z" transform="translate(-34.229 -196.291)" fill="#db965f"/>
        </g>
        <g id="Grupo_113826" data-name="Grupo 113826" transform="translate(231.691)">
          <g id="Grupo_113823" data-name="Grupo 113823" transform="translate(7.501)">
            <path id="Trazado_120403" data-name="Trazado 120403" d="M461.334,209.49l-6.363.557-.393,9.013-12.35,2.006a10.519,10.519,0,0,0-4.668-.24.664.664,0,0,0,.545.956l1.366.07s-3.888,1.085-4.633,3.278c0,0-.868,3.167,1.906,3.765,0,0,3.02,1,6.756-3.12l13.159-2.8a3.175,3.175,0,0,0,2.052-1.431,4.727,4.727,0,0,0,.627-1.49l1.988-10.562Z" transform="translate(-434.711 -178.771)" fill="#db965f"/>
            <path id="Trazado_120404" data-name="Trazado 120404" d="M488.3,340.523s.927,7.811,0,9.588l6.82,1.3L493.068,338.6l-4.768,1.918Z" transform="translate(-456.874 -232.168)" fill="#db965f"/>
            <path id="Trazado_120405" data-name="Trazado 120405" d="M481.079,360.787s-5.595,1.425-9.881.281a1.269,1.269,0,0,1-.9-1.5c.17-.809.88-1.777,3.167-2.164,0,0,6.158-2.756,7.87-4.949,0,0,3.548,1.836,5.665.411a5.386,5.386,0,0,1,1.871,3.554,3.124,3.124,0,0,1-2.662,3.472,37.75,37.75,0,0,0-5.137.891Z" transform="translate(-449.418 -237.9)" fill="#040c2b"/>
            <path id="Trazado_120406" data-name="Trazado 120406" d="M503.69,339s.927,7.811,0,9.588l6.82,1.3-2.052-12.813L503.69,339Z" transform="translate(-463.239 -231.539)" fill="#db965f"/>
            <path id="Trazado_120407" data-name="Trazado 120407" d="M496.259,360.753s-5.595,1.425-9.881.281a1.269,1.269,0,0,1-.9-1.5c.17-.809.88-1.777,3.167-2.164,0,0,6.157-2.756,7.87-4.949,0,0,3.73,1.419,5.847-.006a7.874,7.874,0,0,1,1.689,3.97,3.124,3.124,0,0,1-2.662,3.472,37.757,37.757,0,0,0-5.137.891Z" transform="translate(-455.696 -237.884)" fill="#040c2b"/>
            <path id="Trazado_120408" data-name="Trazado 120408" d="M490.4,238.926l-4.357,29.14,2.651,30.418-1.366.217-5.589.88-5.225-29.339a47.573,47.573,0,0,1-.733-9.078l.393-25.7,14.438,2.052-.211,1.413Z" transform="translate(-451.692 -189.512)" fill="#12263f"/>
            <path id="Trazado_120409" data-name="Trazado 120409" d="M490.048,270.509l2.651,30.418-1.366.217L486.448,271.2l-.968-29.831h8.931Z" transform="translate(-455.708 -191.956)" opacity="0.15"/>
            <path id="Trazado_120410" data-name="Trazado 120410" d="M502.611,235.8s2.117,5,1.126,17.264l-.839,15.487L504.564,299l-7.324.446L492.255,273.6a81.981,81.981,0,0,1-1.437-14.215l-.358-25.328,12.157,1.748Z" transform="translate(-457.767 -188.933)" fill="#12263f"/>
            <path id="Trazado_120411" data-name="Trazado 120411" d="M495.488,181.316l-.029,5.512-8.192,1.5L482.51,185.9l2.058-2.668,1.138-1.478a1.363,1.363,0,0,0,.264-1.05l-.991-6.328,7.981-3.583-.674,5.032-.111.827c-.24,2.68,3.313,4.674,3.313,4.674Z" transform="translate(-454.479 -162.766)" fill="#c9885b"/>
            <path id="Trazado_120412" data-name="Trazado 120412" d="M494.406,170.79l-.751,5.7a13.736,13.736,0,0,1-7.635,6.738l1.138-1.478a1.363,1.363,0,0,0,.264-1.05l-.991-6.328,7.981-3.583Z" transform="translate(-455.931 -162.766)" opacity="0.15"/>
            <path id="Trazado_120413" data-name="Trazado 120413" d="M493.138,169.6l-.932,2.4a21.992,21.992,0,0,1-2.961,3.636c-2.657,2.58-4.715,2.938-4.715,2.938-.88.147-1.6-.522-2.181-1.589-1.63-3.008-2.158-9.183-2.158-9.183l10.18-1.243,2.768,3.049Z" transform="translate(-453.52 -161.017)" fill="#db965f"/>
            <path id="Trazado_120414" data-name="Trazado 120414" d="M492.1,167.565c-.117,3.9-1.988,3.642-1.988,3.642l.164-1.871.692-1.149c1.085-2.739-.844-2.428-.844-2.428-1.566.434-1.507,2.428-1.507,2.428h-.54a8.341,8.341,0,0,1-.481-2.492c-3.818-4.551-8.269.194-8.269.194-3.577-2.627-.657-4.451-.657-4.451-.51-3.794,3.214-3.067,3.214-3.067s2.481-2.187,3.941-.8a3.132,3.132,0,0,1,3.067,2.187,2.314,2.314,0,0,1,2.7,1.677s.059.07.147.2a5.348,5.348,0,0,1,.633,4.826A4.06,4.06,0,0,0,492.1,167.565Z" transform="translate(-452.426 -157.107)" fill="#12263f"/>
            <path id="Trazado_120415" data-name="Trazado 120415" d="M473.159,210.1l-1.671-.6-3.466-1.243-.762-.276c1.906-10.35,3.753-12.456,4.6-12.843a.606.606,0,0,1,.481-.059l.493,8.931.334,6.087Z" transform="translate(-448.172 -172.803)" fill="#fff"/>
            <path id="Trazado_120416" data-name="Trazado 120416" d="M478.436,205.076l-3.3,8.837-.68-3.847.147-5.548.223-8.515a.639.639,0,0,1,.481-.059l.493,8.749,2.633.387Z" transform="translate(-451.15 -173.161)" opacity="0.15"/>
            <path id="Trazado_120417" data-name="Trazado 120417" d="M498.909,203.2l-.1,5.137-.047,2.281-.076,4.029-.035,1.648-.012.645-.035,1.636-.023,1.19v.534l.041,2.287.029,1.982-.6-.023-18.607-.756-5.976-.24.088-1.067.182-2.287.129-1.619.164-1.742.053-.54.164-1.748.369-3.923.194-2.076c0-.07.012-.135.006-.205v-.012l-.188-5.659-.076-2.281-.147-4.433-.076-2.281-.041-1.29a.74.74,0,0,1,.434-.71l5.2-2.322.211-.094,1.894-.844c-.727,1.912,0,2.95.9,3.507a3.231,3.231,0,0,0,1.366.457,2.2,2.2,0,0,0,.34.012,3.3,3.3,0,0,0,1.407-.328c5.536-2.657,4.334-4.961,4.334-4.961l1.689,1.144.281.188,6.011,4.064.059,1.179.117,2.281.223,4.433.053,1.079.064,1.2.023.416v.123Z" transform="translate(-450.741 -169.512)" fill="#fff"/>
            <g id="Grupo_113821" data-name="Grupo 113821" transform="translate(28.808 18.808)">
              <path id="Trazado_120418" data-name="Trazado 120418" d="M491.462,197.062s-1.114.064-1.337-.751H490.1a3.018,3.018,0,0,1-.328-.012c-.041.064-.739,1.2-1.349.645l-.229.827.252.446a1.591,1.591,0,0,0,.44.5l-1.83,22.6a.87.87,0,0,0,.217.639l1.343,1.566a.444.444,0,0,0,.669-.012l1.114-1a1.049,1.049,0,0,0,.358-.78V198.915a1.611,1.611,0,0,0,.762-.692l.194-.352-.252-.815Z" transform="translate(-485.167 -192.125)" fill="#040c2b"/>
              <path id="Trazado_120419" data-name="Trazado 120419" d="M488.441,194.085h0c-.041.076-.739,1.331-1.349.715l-.229.921-.17.7s-3.044-1.02-2.85-5.4l.217-.094A5.528,5.528,0,0,0,486.588,196l.129-.569.246-1.067a1.087,1.087,0,0,0,1.472-.276h0Z" transform="translate(-483.835 -189.904)" opacity="0.15"/>
              <path id="Trazado_120420" data-name="Trazado 120420" d="M500.324,189.374c-.71,1.748-2.381,4.076-6.275,6.339l-.17-.6-.252-.909s-1.114.07-1.337-.833v-.012s0,.012.006.012a1.455,1.455,0,0,0,1.472.551l.205,1,.076.358s5.073-2.621,5.982-6.093Z" transform="translate(-487.332 -189.18)" opacity="0.15"/>
            </g>
            <path id="Trazado_120421" data-name="Trazado 120421" d="M503,212.7l-.1,5.137-.047,2.281-.076,4.029-.035,1.648-.012.645-.035,1.636-.023,1.19v.534l.041,2.287.029,1.982-.6-.023-18.607-.756a4.486,4.486,0,0,1,.557-3.73l1.677-1.859-.61-.534a.661.661,0,0,1,.211-1.12l4.322-.757a2.129,2.129,0,0,0,.5-.152l9.934-4.8-2-10.262,4.785.886.065,1.2.023.416v.123Z" transform="translate(-454.827 -179.016)" opacity="0.15"/>
            <path id="Trazado_120422" data-name="Trazado 120422" d="M493.133,196.857c-.481-.111-.557-.686-.563-.727A1.235,1.235,0,0,0,493.133,196.857Z" transform="translate(-458.64 -173.246)" opacity="0.15"/>
            <path id="Trazado_120423" data-name="Trazado 120423" d="M491.206,175.737l-.364,2.92a1.823,1.823,0,0,1-.586,1.126,9.606,9.606,0,0,1-4.2,2.463c-.88.147-1.6-.522-2.182-1.589,3.648-.334,6.762-5.207,6.762-5.207l.575.281Z" transform="translate(-455.042 -164.693)"/>
            <g id="Grupo_113822" data-name="Grupo 113822" transform="translate(28.904 22.356)">
              <path id="Trazado_120424" data-name="Trazado 120424" d="M505.891,209.53l-6.034,2.088,1.812,8.837L490.181,225.4a10.459,10.459,0,0,0-4.586.9.663.663,0,0,0,.762.792l1.343-.264s-3.507,1.994-3.7,4.3c0,0-.07,3.284,2.768,3.19,0,0,3.173.229,5.794-4.668l12.086-5.917a3.17,3.17,0,0,0,1.642-1.888,4.679,4.679,0,0,0,.246-1.6L505.9,209.53Z" transform="translate(-484 -201.144)" fill="#db965f"/>
              <path id="Trazado_120425" data-name="Trazado 120425" d="M511.625,195.23s3.689-.1,5.014,12.983l-6.386,2.428S505.344,196.074,511.625,195.23Z" transform="translate(-494.102 -195.23)" fill="#fff"/>
            </g>
          </g>
          <g id="Grupo_113825" data-name="Grupo 113825" transform="translate(0 39.609)">
            <rect id="Rectángulo_40471" data-name="Rectángulo 40471" width="50.515" height="5.63" rx="2.815" transform="translate(0 16.795)" fill="#acbcf8"/>
            <rect id="Rectángulo_40472" data-name="Rectángulo 40472" width="64.214" height="5.63" transform="translate(22.443 84.006) rotate(-90)" fill="#acbcf8"/>
            <ellipse id="Elipse_4758" data-name="Elipse 4758" cx="12.145" cy="1.683" rx="12.145" ry="1.683" transform="translate(13.112 80.639)" fill="#acbcf8"/>
            <g id="Grupo_113824" data-name="Grupo 113824" transform="translate(6.009)">
              <path id="Trazado_120426" data-name="Trazado 120426" d="M445.321,251.951H460.65c1.032,0,1.871-.475,1.871-1.056s-.839-1.056-1.871-1.056H445.321c-1.032,0-1.871.475-1.871,1.056S444.289,251.951,445.321,251.951Z" transform="translate(-436.833 -235.068)" fill="#0b2581"/>
              <path id="Trazado_120427" data-name="Trazado 120427" d="M473.794,251.951h10.784a1.081,1.081,0,1,0,0-2.111H473.794a1.081,1.081,0,1,0,0,2.111Z" transform="translate(-448.839 -235.068)" fill="#0f31ac"/>
              <path id="Trazado_120428" data-name="Trazado 120428" d="M456.458,239.029l-6.5-13.916a.809.809,0,0,0-.727-.463H432.972a.8.8,0,0,0-.727,1.149l6.533,14.379h16.965a.8.8,0,0,0,.71-1.144Z" transform="translate(-432.167 -224.65)" fill="#084a93"/>
            </g>
          </g>
          <path id="Trazado_120429" data-name="Trazado 120429" d="M481.079,360.787s-5.595,1.425-9.881.281a1.269,1.269,0,0,1-.9-1.5c.17-.809.88-1.777,3.167-2.164,0,0,6.158-2.756,7.87-4.949,0,0,3.548,1.836,5.665.411a5.386,5.386,0,0,1,1.871,3.554,3.124,3.124,0,0,1-2.662,3.472,37.75,37.75,0,0,0-5.137.891Z" transform="translate(-441.917 -237.9)" fill="#040c2b"/>
          <path id="Trazado_120430" data-name="Trazado 120430" d="M496.259,360.753s-5.595,1.425-9.881.281a1.269,1.269,0,0,1-.9-1.5c.17-.809.88-1.777,3.167-2.164,0,0,6.157-2.756,7.87-4.949,0,0,3.73,1.419,5.847-.006a7.874,7.874,0,0,1,1.689,3.97,3.124,3.124,0,0,1-2.662,3.472,37.757,37.757,0,0,0-5.137.891Z" transform="translate(-448.195 -237.884)" fill="#040c2b"/>
        </g>
      </g>
    </g>
  </g>
</svg>
