<svg xmlns="http://www.w3.org/2000/svg" width="385.879" height="236.923" viewBox="0 0 385.879 236.923">
  <g id="Grupo_131834" data-name="Grupo 131834" transform="translate(-8285.597 -287.439)">
    <g id="_1_2_D_copy_4" data-name="1_2_D copy 4" transform="translate(8272.637 215.148)">
      <path id="Trazado_119993" data-name="Trazado 119993" d="M143.882,300.438s-6.245,15.026-1.566,21.547c2.384,3.318,9.261,6.245,15.453,8.327H102.762c-4.386-1.842-8.238-3.745-9.048-5.062-2.091-3.363-1.441-7.509.979-14.644s3.363-10.187,3.363-10.187l45.835.027h0Z" transform="translate(-8.772 -25.173)" fill="#dbdbdb" fill-rule="evenodd"/>
      <path id="Trazado_119994" data-name="Trazado 119994" d="M100.367,299.174S94.913,312.7,94.54,316.594c-.053.6-.125,1.059-.187,1.521-.445,3.069-.925,6.343,8.131,9.777l5.6,2.126h-9.84c-8.728-4.11-8.114-8.381-7.526-12.42.071-.507.151-1.014.178-1.352.427-4.422,6.05-18.371,6.067-18.407l3.407,1.326h0Z" transform="translate(-8.548 -24.889)" fill="#fff"/>
      <path id="Trazado_119995" data-name="Trazado 119995" d="M36.65,129.776s.125-5.5,6.432-5.089,167.095,13.425,167.095,13.425,8.55-.4,9.413,8.505,5.293,129.747,5.293,129.747.311,6.236-10.658,6.486-164.719.214-164.719.214-8.71.987-9.324-9.813c-2.669-46.876-3.425-96.278-3.523-143.474h0Z" transform="translate(-2.614 -5.779)" fill="#ccc" fill-rule="evenodd"/>
      <path id="Trazado_119996" data-name="Trazado 119996" d="M41.28,130.076s.125-5.5,6.432-5.089,167.095,13.425,167.095,13.425,8.55-.4,9.413,8.505,5.293,129.747,5.293,129.747.311,6.236-10.658,6.486-164.719.214-164.719.214-8.71.988-9.324-9.813c-2.669-46.876-3.425-96.278-3.523-143.474h0Z" transform="translate(-3.125 -5.812)" fill="#fff" fill-rule="evenodd"/>
      <path id="Trazado_119997" data-name="Trazado 119997" d="M51.28,132.53l168.1,12.98,3.968,107.755L53.629,251.388,51.28,132.53Z" transform="translate(-4.228 -6.647)" fill="#084a93" fill-rule="evenodd"/>
      <path id="Trazado_119998" data-name="Trazado 119998" d="M146.974,134.57a1.981,1.981,0,0,1,1.575,1.957c.071,1.032-.534,1.824-1.334,1.77a1.981,1.981,0,0,1-1.575-1.957c-.062-1.032.534-1.815,1.334-1.77Z" transform="translate(-14.64 -6.872)" fill="#534d8c" fill-rule="evenodd"/>
      <path id="Trazado_119999" data-name="Trazado 119999" d="M85.19,137.779c11.085.934,22.224,1.859,33.335,2.767q16.641,1.361,33.335,2.713c.347,8.852.73,17.7,1.023,26.512s.534,17.66.783,26.485q-16.854-.814-33.718-1.655c-11.219-.56-22.482-1.139-33.718-1.735q-.173-13.772-.4-27.535c-.16-9.172-.418-18.354-.641-27.561h0Z" transform="translate(-7.97 -7.225)" fill="#bfd2fc" fill-rule="evenodd"/>
      <path id="Trazado_120000" data-name="Trazado 120000" d="M124.327,145.2c-5.311-3.06-11.005,1.423-11.156,7.873a15.827,15.827,0,0,0-.454,4.457,21.112,21.112,0,0,1-.552,5.347c-.89,1.548-2.3,4.27-2.2,7.082a8.143,8.143,0,0,0-.071,1.895,7.058,7.058,0,0,0,1.886,4.253,1.839,1.839,0,0,1,.169-.222,6.692,6.692,0,0,1-1.815-4.021c0-.2-.027-.409-.009-.632.267,1.219-.827.756,1.939,3.5s21.352,2.482,22.206.4.294-.783.391-1.174a8.912,8.912,0,0,0,.863-5.3,15.545,15.545,0,0,0-2.046-6.779A12,12,0,0,1,132,157.742c.294-5.2-1.948-12.936-7.669-12.526h0Zm10.542,27.7c.436-3.2-1-7.6-2-10.133s-.872-2.874-.9-3.995a10.28,10.28,0,0,0,1.3,3.238,15.287,15.287,0,0,1,2.011,6.619,10.233,10.233,0,0,1-.409,4.27ZM113.2,154.246c.018.32-.231-1.4.08.952s.463,5.053-.694,6.984a22.7,22.7,0,0,0,.4-4.644,16.27,16.27,0,0,1,.222-3.3h0Z" transform="translate(-10.694 -7.936)" fill="#727997" fill-rule="evenodd"/>
      <path id="Trazado_120001" data-name="Trazado 120001" d="M123.6,145.675s-6.281.276-8.158,4.964a15.968,15.968,0,0,0-.89,7.349,9.485,9.485,0,0,1-.214,3.47,9.359,9.359,0,0,1-.8,1.566c-1.379,2.4-3.505,6.059-.036,12.224a1.64,1.64,0,0,1-.142.089c-3.541-6.281-1.379-9.991.036-12.437a9.535,9.535,0,0,0,.8-1.53,9.418,9.418,0,0,0,.2-3.381,16.662,16.662,0,0,1,.9-7.446c1.922-4.786,8.292-5.071,8.309-5.071a1.59,1.59,0,0,0,.018.2h0Zm-5.2,17.144s-4.19,3.158-1.592,10.774l-.16.053c-2.642-7.758,1.628-10.978,1.646-10.987a1.308,1.308,0,0,0,.116.151h0Zm6.895-15.667s2.936.1,4.341,6.557c-.071.018-.125.027-.16.036-1.37-6.308-4.164-6.406-4.181-6.414v-.178h0Zm-1.806-.311s-5.8,1.192-7.366,5.543a.372.372,0,0,1-.133-.1c1.548-4.413,7.42-5.623,7.438-5.623.009.071.044.125.053.187h0Zm6.913,30.693a.889.889,0,0,0,.231-.044c.792-.649,3.87-3.55,1.993-8.977-1.788-5.2-1.7-6.272-1.477-8.9.027-.454.062-.961.125-1.53a19.265,19.265,0,0,0-.436-5.2,16.091,16.091,0,0,0-1.842-4.706,4.671,4.671,0,0,0-4.146-2.3.7.7,0,0,0,.018.2,4.5,4.5,0,0,1,3.995,2.206,16.478,16.478,0,0,1,1.8,4.653,17.508,17.508,0,0,1,.436,5.142c-.036.587-.089,1.077-.116,1.53-.214,2.642-.32,3.737,1.5,8.986,2.082,6.059-2.108,8.879-2.126,8.888.018.036.027.062.044.071h0Zm-4.991-29.35a31.582,31.582,0,0,0,3.585,6.414c1.655,2.073,1.254,5.907.907,9.243-.08.614-.133,1.21-.187,1.753-.294,3.585.943,10.044.943,10.053a1.034,1.034,0,0,1-.16.036c0-.027-1.254-6.512-.952-10.124.053-.569.133-1.157.187-1.762.356-3.274.738-7.073-.872-9.083a32.575,32.575,0,0,1-3.621-6.468.632.632,0,0,0,.16-.071h0Zm-1.726-.009s.071,1.735-4.021,3.665a7.95,7.95,0,0,0-3.576,3.016,6.1,6.1,0,0,0-.747,4.181,8.214,8.214,0,0,1-1.308,5.694c-1.3,2.473-2.571,4.9.907,10.6a.4.4,0,0,0-.107.107c-3.576-5.818-2.26-8.292-.943-10.818a8.134,8.134,0,0,0,1.281-5.56,6.365,6.365,0,0,1,.792-4.333,8.05,8.05,0,0,1,3.612-3.069c4-1.877,3.941-3.487,3.941-3.5a.747.747,0,0,0,.169.027h0Z" transform="translate(-10.867 -8.075)" fill="#5848c2"/>
      <path id="Trazado_120002" data-name="Trazado 120002" d="M117.024,178.6s.116,5.391,6.29,5.756,8.327-4.813,8.674-4.03,1.406,3.114,2.144,4.662c0,0,.872,7.687,1.415,14.742-6.708-.329-13.4-.667-20.106-1.005.543-6.717,1.059-13.434,1.592-20.124h0Z" transform="translate(-11.308 -11.731)" fill="#fff" fill-rule="evenodd"/>
      <path id="Trazado_120003" data-name="Trazado 120003" d="M115.43,201.062c.027-.427.071-.854.125-1.272a32.735,32.735,0,0,0,8.069,1.023c2.767-.133,7.215.783,10.516,1.192-6.245-.311-12.482-.614-18.709-.943h0Z" transform="translate(-11.307 -14.069)" fill="#e6e6e6" fill-rule="evenodd"/>
      <path id="Trazado_120004" data-name="Trazado 120004" d="M117.227,179.207c.222,1.379,1.343,4.92,6.228,5.2a9.407,9.407,0,0,0,8.309-3.487,4.738,4.738,0,0,1,.774.347c.267.649.578,1.317.9,1.966-.231.383,3.025-1.77-1.317,1.237s-14.955.116-15.4-.24c.125-1.673.258-3.363.391-5.053.036,0,.071.018.125.018h0Z" transform="translate(-11.45 -11.795)" fill="#e6e6e6" fill-rule="evenodd"/>
      <path id="Trazado_120005" data-name="Trazado 120005" d="M120.159,168.23s.2,6.414-.694,8.025a5.744,5.744,0,0,1-3.265,2.2,6.365,6.365,0,0,0,4.733,5.7c4.519,1.139,7.962.036,9.582-1.041a3.577,3.577,0,0,0,1.566-2.891s-4.333-1.753-4.911-4.635a61.9,61.9,0,0,1-.818-6.468,5.307,5.307,0,0,1-6.2-.89h0Z" transform="translate(-11.392 -10.587)" fill="#f9bfb3" fill-rule="evenodd"/>
      <path id="Trazado_120006" data-name="Trazado 120006" d="M120.65,168.229s.018.952.027,2.242a5.272,5.272,0,0,0,1.762,1.174,5.864,5.864,0,0,0,1.352.356,4.133,4.133,0,0,0,3.2-.792c-.107-1.228-.142-2.1-.142-2.1a5.307,5.307,0,0,1-6.2-.89h0Z" transform="translate(-11.883 -10.585)" fill="#e8a597" fill-rule="evenodd"/>
      <path id="Trazado_120007" data-name="Trazado 120007" d="M122.074,168.13a6.444,6.444,0,0,0,1.352.347c2.616.383,4.359-1.352,5.445-3.843a15.85,15.85,0,0,0,.774-6.566,16.361,16.361,0,0,1-4.5-7.028h0a2.463,2.463,0,0,1-.712,1.8,4.749,4.749,0,0,1-3.087,2.144,11.148,11.148,0,0,0-3.6,1.326.984.984,0,0,0-.169.16c-.018.009-.018.018-.018.036-1.219,3.452.676,10.169,4.528,11.637h0Zm1.263-14.457c-.16.1.507-.142-.614.285s-3.728,1.068-4.608,1.77a16.779,16.779,0,0,1,3.149-1.041,4.636,4.636,0,0,0,2.064-1.023h0Z" transform="translate(-11.501 -8.69)" fill="#f9bfb3" fill-rule="evenodd"/>
      <path id="Trazado_120008" data-name="Trazado 120008" d="M123.115,181.188a4.14,4.14,0,0,0-2.215-1.174,2.941,2.941,0,0,1,.036-.294,4.328,4.328,0,0,1,2.366,1.272c-.053.062-.133.125-.187.2h0Zm2.108-.071s.463-.667,2.313-1a1.558,1.558,0,0,0,.053.294c-1.744.294-2.162.89-2.162.9-.062-.071-.133-.142-.2-.2h0Z" transform="translate(-11.911 -11.854)" fill="#e8a597"/>
      <path id="Trazado_120009" data-name="Trazado 120009" d="M145.728,199.9c-.107-.427-.053.374-.258-1.4s-.632-4.742-1.094-7.046-3.1-9.955-4.671-11.583-8.158-2.642-11.245-3.71c.214.391,1.7,1.584,1.913,2.918S130,189.22,130.3,191a78.548,78.548,0,0,1,.5,8.158c4.973.258,9.955.489,14.928.738Z" transform="translate(-12.745 -11.462)" fill="#12263f" fill-rule="evenodd"/>
      <path id="Trazado_120010" data-name="Trazado 120010" d="M132.9,201.342a5.108,5.108,0,0,1,.569-2.447c.685-1.7,2.562-4.813,2.455-3.221s-1.246,4.377-.053,4.893,2.366-3.265,2.874-2.429a8.907,8.907,0,0,1,.943,3.541c-2.269-.116-4.546-.222-6.8-.338h0Z" transform="translate(-13.234 -13.566)" fill="#1860bd" fill-rule="evenodd"/>
      <path id="Trazado_120011" data-name="Trazado 120011" d="M131.772,199.19c-.16-4.671-.222-7.945-.436-9.3a49.58,49.58,0,0,1-.552-7.268c-.053-3.612-.578-5.658-1.041-6.254a8.824,8.824,0,0,1-1.263-.32c0,.738.614,2.411.827,3.737s.7,9.413,1.005,11.192a78.556,78.556,0,0,1,.5,8.158c.311.018.641.027.97.053h0Z" transform="translate(-12.747 -11.449)" fill="#1860bd" fill-rule="evenodd"/>
      <path id="Trazado_120012" data-name="Trazado 120012" d="M118.1,176.08a32.125,32.125,0,0,0-8.2,2.713,9.306,9.306,0,0,0-4.991,5.685c-.818,2.171-.747,4.573-1.548,6.948s-1.957,4.5-2.687,6.37c5.685.294,11.37.569,17.055.872a17.537,17.537,0,0,1,.294-2.527c.32-2.046-.543-6.139-1.432-9.8s1.29-9.083,1.5-10.258h0Z" transform="translate(-9.678 -11.453)" fill="#12263f" fill-rule="evenodd"/>
      <path id="Trazado_120013" data-name="Trazado 120013" d="M110.13,195.29a26.169,26.169,0,0,0,2.447,5.035c-1.477-.071-2.963-.16-4.457-.231,0-.676-.018-.2.009-1.966s.827-6.361,2-2.829h0Z" transform="translate(-10.5 -13.43)" fill="#1860bd" fill-rule="evenodd"/>
      <path id="Trazado_120014" data-name="Trazado 120014" d="M119.862,176.08a8.552,8.552,0,0,0-1.477.276,11.408,11.408,0,0,0-1.619,7.509,57.087,57.087,0,0,0,1.681,7.117,37.163,37.163,0,0,1,.409,5.107c-.08,1.77-.107,1.646-.187,2.518.276.018.552.027.827.053a17.536,17.536,0,0,1,.294-2.527c.32-2.046-.543-6.139-1.432-9.8s1.192-8.914,1.5-10.258h0Z" transform="translate(-11.442 -11.453)" fill="#1860bd" fill-rule="evenodd"/>
      <path id="Trazado_120015" data-name="Trazado 120015" d="M107.744,189.806s-.454,4.644-.436,9.039a2.473,2.473,0,0,0-.258,0c0-4.422.436-9.066.436-9.074a2.568,2.568,0,0,0,.258.036Zm7.509,9.439c-.125,0-.258-.018-.383-.018-3.674-4.306-3.834-16.183-3.852-16.227a1.9,1.9,0,0,1,.24.018c.018.044.187,12.233,3.986,16.227h0Z" transform="translate(-10.382 -12.216)" fill="#1860bd"/>
      <path id="Trazado_120016" data-name="Trazado 120016" d="M139.5,192.427h.018c.2.044.516,1.165.765,2.856a48.788,48.788,0,0,1,.463,4.991h-.258c-.08-1.868-.258-3.612-.445-4.955a9.319,9.319,0,0,0-.56-2.589v-.071a.9.9,0,0,1,.018-.222h0Zm-2.882-10.24s-.2,8.1-2.144,11.459a1.339,1.339,0,0,1-.214-.16c1.913-3.3,2.117-11.308,2.117-11.325a1.8,1.8,0,0,0,.24.027h0Zm2.678,3.407s-.863,9-2.767,11.984a1.074,1.074,0,0,1-.214-.187c1.868-2.918,2.713-11.841,2.713-11.868a2.114,2.114,0,0,0,.276.062h0Z" transform="translate(-13.385 -12.124)" fill="#1860bd"/>
      <path id="Trazado_120017" data-name="Trazado 120017" d="M122.362,165.88a2.649,2.649,0,0,0,3.559.151c.062.116.142.222.187.329a2.964,2.964,0,0,1-3.968-.214c.08-.1.151-.178.222-.267h0Z" transform="translate(-12.048 -10.327)" fill="#d18c84"/>
      <path id="Trazado_120018" data-name="Trazado 120018" d="M128.238,188.766s-.543,1.895-3.363,4.3c-2.874,2.411-3.906,2.144-3.906,2.144a1.15,1.15,0,0,1,.036-.294s.925.249,3.692-2.091c2.8-2.349,3.31-4.164,3.31-4.172a1.4,1.4,0,0,1,.231.116Z" transform="translate(-11.919 -12.84)" fill="#e6e6e6" fill-rule="evenodd"/>
      <path id="Trazado_120019" data-name="Trazado 120019" d="M129.3,190.444s-.018,2.02-2.064,5.3c-2.046,3.3-3.078,3.381-3.1,3.381a2.691,2.691,0,0,1-.053-.285s.943-.071,2.954-3.265c1.993-3.221,2-5.178,2-5.178a2.567,2.567,0,0,0,.258.036h0Z" transform="translate(-12.263 -13.033)" fill="#e6e6e6" fill-rule="evenodd"/>
      <path id="Trazado_120020" data-name="Trazado 120020" d="M118.789,158.23a2.631,2.631,0,0,1,3.479-.027c-.044.089-.062.178-.107.258a2.412,2.412,0,0,0-3.185,0,1.092,1.092,0,0,1-.2-.24h0Z" transform="translate(-11.677 -9.411)" fill="#d18c84"/>
      <path id="Trazado_120021" data-name="Trazado 120021" d="M128.767,159.19a2.62,2.62,0,0,0-3.2-.489.994.994,0,0,1-.125-.258,2.814,2.814,0,0,1,3.479.543c-.036.062-.116.142-.151.2Z" transform="translate(-12.412 -9.464)" fill="#d18c84"/>
      <path id="Trazado_120022" data-name="Trazado 120022" d="M121.17,159.23c.294.018.543.507.552,1.076.036.569-.2,1.014-.5,1s-.525-.5-.534-1.068.187-1.032.48-1.005Z" transform="translate(-11.887 -9.593)" fill="#342d6e"/>
      <path id="Trazado_120023" data-name="Trazado 120023" d="M126.548,159.51c.294.027.525.5.552,1.068.009.578-.2,1.014-.5,1-.276-.018-.543-.5-.552-1.076-.036-.569.2-1.005.5-.988h0Z" transform="translate(-12.479 -9.624)" fill="#342d6e"/>
      <path id="Trazado_120024" data-name="Trazado 120024" d="M123.365,159.959s.294,2.9-.463,3.487c-.383.311,1.228.632,1.246.632a2.923,2.923,0,0,1-.018.3s-2.34-.445-1.379-1.21c.6-.489.356-3.185.356-3.2a1.394,1.394,0,0,0,.258-.018h0Z" transform="translate(-12.09 -9.673)" fill="#d18c84"/>
      <path id="Trazado_120025" data-name="Trazado 120025" d="M121.1,159.77a.208.208,0,0,1,.178.24.163.163,0,0,1-.169.2.208.208,0,0,1-.2-.214c0-.125.071-.222.187-.214h0Z" transform="translate(-11.912 -9.653)" fill="#fff" fill-rule="evenodd"/>
      <path id="Trazado_120026" data-name="Trazado 120026" d="M126.427,159.94a.188.188,0,0,1,.178.214.175.175,0,0,1-.169.2c-.125,0-.187-.116-.2-.24a.159.159,0,0,1,.187-.178h0Z" transform="translate(-12.5 -9.671)" fill="#fff" fill-rule="evenodd"/>
      <path id="Trazado_120027" data-name="Trazado 120027" d="M162.29,144.11q16.641,1.334,33.326,2.642,16.614,1.281,33.335,2.509c.489,8.487.988,16.975,1.406,25.444s.81,16.948,1.2,25.417q-16.881-.747-33.753-1.495c-11.2-.507-22.455-1.05-33.691-1.584q-.36-13.225-.8-26.458c-.294-8.808-.658-17.633-1.023-26.476h0Z" transform="translate(-16.478 -7.925)" fill="#faede5" fill-rule="evenodd"/>
      <path id="Trazado_120028" data-name="Trazado 120028" d="M86.4,201.369c11.236.578,22.5,1.148,33.718,1.7q16.854.827,33.745,1.619.36,13.251.747,26.5t.907,26.458q-16.988-.267-34-.552-16.961-.307-33.994-.667c-.276-9.172-.525-18.354-.694-27.535s-.3-18.362-.409-27.535h0Z" transform="translate(-8.104 -14.242)" fill="#f5f7ff" fill-rule="evenodd"/>
      <path id="Trazado_120029" data-name="Trazado 120029" d="M164.41,205.19c11.219.534,22.473,1.05,33.691,1.548q16.855.747,33.753,1.477c.374,8.47.712,16.948,1.076,25.417s.738,16.93,1.13,25.391c-11.352-.16-22.7-.285-34.011-.436s-22.659-.311-33.976-.48q-.52-13.211-.916-26.441t-.747-26.476Z" transform="translate(-16.712 -14.665)" fill="#748493" fill-rule="evenodd"/>
      <path id="Trazado_120030" data-name="Trazado 120030" d="M200.352,168.59c.151,1.379.391,4.911-1.343,6.05-3.505,2.3,10.275,4.8,9.395,1.548,0,0-2.358-1.37-2.064-7.153,0-.044.027-.1.009-.142a10.6,10.6,0,0,1-6-.294h0Z" transform="translate(-20.467 -10.626)" fill="#f9bfb3" fill-rule="evenodd"/>
      <path id="Trazado_120031" data-name="Trazado 120031" d="M200.59,168.59a18.206,18.206,0,0,1,.125,2.358,4.408,4.408,0,0,0,5.889.338,16.86,16.86,0,0,1-.027-2.251c0-.044.027-.1.009-.142a10.6,10.6,0,0,1-6-.294h0Z" transform="translate(-20.704 -10.626)" fill="#e8a597" fill-rule="evenodd"/>
      <path id="Trazado_120032" data-name="Trazado 120032" d="M198.9,156.99a22.735,22.735,0,0,0-.347,3.158c-.4-.276-.952-.783-1.664.133s.916,3.95,1.7,3.221h0c.107.765-.24-.044.427,2.242s6.005,3.621,7.162,2.331a7,7,0,0,0,1.726-3.434l.018.009c.792.934,2.411-1.806,1.833-2.731s-.774-.7-1.139-.694c.062-.383-.009.427.142-1.112s-.329-5.285-3.087-6.059-6.957-.08-6.77,2.945h0Z" transform="translate(-20.276 -8.99)" fill="#f9bfb3" fill-rule="evenodd"/>
      <path id="Trazado_120033" data-name="Trazado 120033" d="M183.6,166.967c.534-2.286.961-4.012.961-4.012a1.942,1.942,0,0,0,2.384.721c1.539-.667,1.53-2.171.89-2.687s-1.041,1.148-1.788,1.192-1.762-1.317-1.157-2.678,1.6-1.557,1.85-.863-.258,1.005.338,1.415,1.2.053,1.032-1.45-.765-2.589-1.726-2.26-1.619,1.317-1.842,1.343-.062-.641.454-2.153.436-4.261-.285-3.568-1.361,5.685-1.69,5.48.632-5.2.16-5.72-1.343-.881-1.512,2.278,0,4.288-.338,3.7.044-5.053-.391-5.863-1.148-.658-1.352,1.183a15.354,15.354,0,0,0,.765,6.228c.676,1.922,1.308,2.313,1.085,3.5a27.651,27.651,0,0,1-1.174,3.754c1.085.16,2.206.32,3.31.472h0Z" transform="translate(-18.38 -8.727)" fill="#f9bfb3" fill-rule="evenodd"/>
      <path id="Trazado_120034" data-name="Trazado 120034" d="M205.826,155.427s-.16,1.05-2.509,1.655a11.561,11.561,0,0,1-3.906.427c-.249.818-.507,1.655-.774,2.464a1.037,1.037,0,0,0-1.423-.338s-.667-3.648.036-5.934,3.861-3.861,5.907-2.954,2.082,1.388,2.082,1.388,3.648-.178,4.386,3.336-.97,5.391-.97,5.391-3.123-3.745-2.82-5.427h0Z" transform="translate(-20.3 -8.629)" fill="#727997" fill-rule="evenodd"/>
      <path id="Trazado_120035" data-name="Trazado 120035" d="M204.163,162.233c-.151.952-.32,1.886-.472,2.829a7.911,7.911,0,0,0,.765.285c-.044.133-.071.258-.116.374-.3-.1-.614-.222-.916-.329a1.1,1.1,0,0,1-.2-.071.414.414,0,0,1,.027-.178c.169-1.005.347-2.028.534-3.043.116.053.258.08.374.125h0Z" transform="translate(-20.994 -9.91)" fill="#5f4534"/>
      <path id="Trazado_120036" data-name="Trazado 120036" d="M205.81,161.54a.746.746,0,0,1,.632.712.551.551,0,0,1-.56.623.726.726,0,0,1-.632-.694.554.554,0,0,1,.56-.632h0Z" transform="translate(-21.218 -9.848)" fill="#513b2d" fill-rule="evenodd"/>
      <path id="Trazado_120037" data-name="Trazado 120037" d="M200.559,161.713a.191.191,0,0,1-.249.018.221.221,0,0,1-.053-.276c.018,0,1.023-1.468,2.527.178a.268.268,0,0,1-.018.258.194.194,0,0,1-.258-.036c-1.165-1.3-1.957-.151-1.957-.142h0Z" transform="translate(-20.664 -9.772)" fill="#5f4534"/>
      <path id="Trazado_120038" data-name="Trazado 120038" d="M201.009,165.3c-.009-.089.009-.2.133-.2a.189.189,0,0,1,.214.151,2.59,2.59,0,0,0,2.98,1.922.2.2,0,0,1,.214.16.172.172,0,0,1-.133.2A3.03,3.03,0,0,1,201,165.3h0Z" transform="translate(-20.75 -10.241)" fill="#5f4534"/>
      <path id="Trazado_120039" data-name="Trazado 120039" d="M196.228,174.247a10.608,10.608,0,0,0-5.845,1.557c-3.274,1.859-5.107,4.11-7.171,3.995s.632-10.916.632-10.916-4.84-.836-4.866-.578-5.151,13.069-3.2,18.629,14.653-.16,14.653-.16.133,7.393.044,14.119c7.856.374,15.693.712,23.567,1.059a19.075,19.075,0,0,1-.142-3.069A12.69,12.69,0,0,1,214.973,202c2.553.107,5.116.231,7.7.338-1.486-9.172-2.607-16.966-3.719-19.688s-9.9-7.615-11.477-8.158a4.482,4.482,0,0,0-2.909,0s1.77,3.256-3.256,2.954-5.089-3.2-5.089-3.2h0Z" transform="translate(-17.917 -10.589)" fill="#00defc" fill-rule="evenodd"/>
      <path id="Trazado_120040" data-name="Trazado 120040" d="M217.9,187.278c.267,4.244.56,8.478.854,12.722a3.083,3.083,0,0,1-.4-.018c-.276-4.235-.56-8.461-.854-12.722a3.012,3.012,0,0,0,.4.018Z" transform="translate(-22.57 -12.686)" fill="#534d8c"/>
      <path id="Trazado_120041" data-name="Trazado 120041" d="M199.321,174.907a4.6,4.6,0,0,0,4.324,3.256s-1.53,3.123-3.185,3.212-5.32-7.589-1.13-6.459h0Z" transform="translate(-20.351 -11.312)" fill="#bfd2fc" fill-rule="evenodd"/>
      <path id="Trazado_120042" data-name="Trazado 120042" d="M207.772,175.256a3.623,3.623,0,0,1-3.452,2.945s2.847,3.372,4.519,3.648,3.078-7.2-1.068-6.592Z" transform="translate(-21.116 -11.358)" fill="#bfd2fc" fill-rule="evenodd"/>
      <path id="Trazado_120043" data-name="Trazado 120043" d="M204.773,155.021A7.183,7.183,0,0,1,200,156.827a3.2,3.2,0,0,1-.044-.409,6.853,6.853,0,0,0,4.519-1.708,1.912,1.912,0,0,0,.294.311Z" transform="translate(-20.635 -9.095)" fill="#5848c2"/>
      <path id="Trazado_120044" data-name="Trazado 120044" d="M203.574,153.624a11.535,11.535,0,0,1-3.986,1.272,3.737,3.737,0,0,0-.1-.4,11.342,11.342,0,0,0,3.852-1.246,4.123,4.123,0,0,0,.222.374h0Z" transform="translate(-20.583 -8.934)" fill="#5848c2"/>
      <path id="Trazado_120045" data-name="Trazado 120045" d="M207.88,155.016a17.631,17.631,0,0,0,2.322,4.066,1.164,1.164,0,0,0,.276-.24,16.534,16.534,0,0,1-2.224-3.941c-.125.044-.267.08-.374.125h0Z" transform="translate(-21.509 -9.116)" fill="#5848c2"/>
      <path id="Trazado_120046" data-name="Trazado 120046" d="M107.268,227.434a5.758,5.758,0,0,0-1.326,3.959c.169,2.313-.649,2.6-.783,5.187s-2.233,5.471.2,5.462,9.724-.071,14.6-.125c0,0,.507-1.61-.222-5.534s-1.7-4.172-1.272-5.881.436-4.8-1.228-4.555-6.663,1.005-9.982,1.495h0Z" transform="translate(-10.067 -16.954)" fill="#301d4a" fill-rule="evenodd"/>
      <path id="Trazado_120047" data-name="Trazado 120047" d="M108.53,225.822a1.046,1.046,0,0,0-1.681.649c-.489,1.468,1.165,3.025,1.7,2.6s-.027-3.247-.027-3.247h0Z" transform="translate(-10.35 -16.916)" fill="#e8a597" fill-rule="evenodd"/>
      <path id="Trazado_120048" data-name="Trazado 120048" d="M117.829,226.007s1.13-.738,1.69.756-1.005,2.945-1.575,2.473-.116-3.229-.116-3.229Z" transform="translate(-11.553 -16.942)" fill="#e8a597" fill-rule="evenodd"/>
      <path id="Trazado_120049" data-name="Trazado 120049" d="M111.429,235.146a24.661,24.661,0,0,1-.267,3.959,1.794,1.794,0,0,1-.649,1.085,2.427,2.427,0,0,0-.3.294c2.082,2.678,7.571.5,6.993-.044,0,0-1.3-.854-1.592-3.487s-.311-2.642-.311-2.642c-1.308.276-2.589.543-3.879.827h0Z" transform="translate(-10.731 -17.878)" fill="#f9bfb3" fill-rule="evenodd"/>
      <path id="Trazado_120050" data-name="Trazado 120050" d="M110.77,240.647a.808.808,0,0,1-.258.24,2.427,2.427,0,0,0-.3.294c2.082,2.678,7.571.5,6.993-.044a3.307,3.307,0,0,1-.525-.516,5.837,5.837,0,0,1-3.648.667,7.308,7.308,0,0,1-2.269-.641h0Z" transform="translate(-10.731 -18.574)" fill="#fff" fill-rule="evenodd"/>
      <path id="Trazado_120051" data-name="Trazado 120051" d="M111.577,235.148s0,.667-.027,1.468a4.927,4.927,0,0,0,4.164-.089c-.071-.729-.16-1.459-.249-2.2-1.308.276-2.589.543-3.879.827h0Z" transform="translate(-10.879 -17.88)" fill="#e8a597" fill-rule="evenodd"/>
      <path id="Trazado_120052" data-name="Trazado 120052" d="M135.136,229.009s.214,4.617-.5,5.1a3.542,3.542,0,0,1-1.468.569c3.034,3.212,6.69,2.082,8.71.311,0,0-1.557-.2-1.8-1.5s-.338-4.039-.338-4.039c-1.539-.142-3.078-.294-4.608-.445h0Z" transform="translate(-13.265 -17.292)" fill="#f9bfb3" fill-rule="evenodd"/>
      <path id="Trazado_120053" data-name="Trazado 120053" d="M135.38,229.01s.053,1.245,0,2.518a4.117,4.117,0,0,0,4.715-.3c-.089-.952.667-1.7-.107-1.77s-3.078-.294-4.608-.445Z" transform="translate(-13.509 -17.293)" fill="#e8a597" fill-rule="evenodd"/>
      <path id="Trazado_120054" data-name="Trazado 120054" d="M132.082,220.671a.818.818,0,0,0-1.37.16c-.623.961.151,2.98,1.059,3.087s.3-3.247.3-3.247h0Z" transform="translate(-12.969 -16.339)" fill="#e8a597" fill-rule="evenodd"/>
      <path id="Trazado_120055" data-name="Trazado 120055" d="M142.68,220.925s.676-.765,1.361.214.089,2.963-.827,3.034-.534-3.247-.534-3.247h0Z" transform="translate(-14.305 -16.37)" fill="#e8a597" fill-rule="evenodd"/>
      <path id="Trazado_120056" data-name="Trazado 120056" d="M132,215.62a41.552,41.552,0,0,0,.276,7.82c1.112,8.229,8.861,6.655,9.457.9.409-4.012,1.014-9.226-.142-9.777s-9.341-.765-9.582,1.068h0Z" transform="translate(-13.128 -15.656)" fill="#f9bfb3" fill-rule="evenodd"/>
      <path id="Trazado_120057" data-name="Trazado 120057" d="M135.319,219.81a.672.672,0,0,1,.489.685c.018.383-.187.685-.445.685s-.445-.32-.454-.694.169-.694.409-.676h0Z" transform="translate(-13.457 -16.278)" fill="#00202b" fill-rule="evenodd"/>
      <path id="Trazado_120058" data-name="Trazado 120058" d="M139.748,219.93c.249,0,.472.329.489.7s-.187.676-.427.658-.472-.311-.48-.685.16-.676.409-.676h0Z" transform="translate(-13.944 -16.291)" fill="#00202b" fill-rule="evenodd"/>
      <path id="Trazado_120059" data-name="Trazado 120059" d="M134.332,219.5a.248.248,0,0,1-.383-.027.287.287,0,0,1,.009-.418,1.618,1.618,0,0,1,2.215-.044.305.305,0,0,1,.062.4.252.252,0,0,1-.383.053,1.1,1.1,0,0,0-1.512.036h0Z" transform="translate(-13.341 -16.143)" fill="#00202b"/>
      <path id="Trazado_120060" data-name="Trazado 120060" d="M140.644,219.652a.246.246,0,0,0,.365-.009.3.3,0,0,0-.027-.418,1.681,1.681,0,0,0-2.215-.151.293.293,0,0,0-.044.4.262.262,0,0,0,.383.071,1.168,1.168,0,0,1,1.539.107h0Z" transform="translate(-13.871 -16.156)" fill="#00202b"/>
      <path id="Trazado_120061" data-name="Trazado 120061" d="M137.548,221.45a2.124,2.124,0,0,1-.347,1.512,2.062,2.062,0,0,0-.427.907c0,.24.16.436.6.578a1.2,1.2,0,0,0-.071.214c-.543-.169-.747-.463-.747-.818a2.2,2.2,0,0,1,.454-1.032,1.973,1.973,0,0,0,.32-1.343c.071,0,.142-.018.214-.018Z" transform="translate(-13.639 -16.459)" fill="#d66d50"/>
      <path id="Trazado_120062" data-name="Trazado 120062" d="M135.791,226.418c.943-.071,4.217-1.174,3.674-.374-1.975,2.936-4.181.418-3.674.374Z" transform="translate(-13.546 -16.934)" fill="#fff" fill-rule="evenodd"/>
      <path id="Trazado_120063" data-name="Trazado 120063" d="M131.807,220.162a5.071,5.071,0,0,1-1.468-3.31,3.61,3.61,0,0,1,.783-2.811c2.144-5.756,10.747-2.749,10.863-.169,0,0,.311-.276.587,2.366s-.6,3.309-.6,3.309c-.222-1.032-.436-2.091-.641-3.14-2.286-1.165-7.473-1.628-9.243.16-.1,1.192-.178,2.393-.276,3.585h0Z" transform="translate(-12.952 -15.278)" fill="#3b347a" fill-rule="evenodd"/>
      <path id="Trazado_120064" data-name="Trazado 120064" d="M131.916,235.12a4.507,4.507,0,0,1-2.34.9c-1.69.267-4.315,1.423-5.178,3.229s-2.429,4.546-2.429,4.546q.627,8.167,1.326,16.281c-.062-1.957-.1-3.914-.142-5.889,0,0,3.034-3.55,3.683-4.3s.6,5.311.658,10.978q11.93.214,23.887.391c-.489-5.462-.845-9.466-1.3-13.3a15.241,15.241,0,0,0-3.781-8.95,18.572,18.572,0,0,0-5.489-3.461,15.875,15.875,0,0,1-4.573,1.566c-1.664.08-4.324-1.984-4.324-1.984h0Z" transform="translate(-12.029 -17.968)" fill="#bfd2fc" fill-rule="evenodd"/>
      <path id="Trazado_120065" data-name="Trazado 120065" d="M108.3,222.287a31.7,31.7,0,0,0,.151,7.384c1.148,6.477,7.607,5.934,8.478.649a36.128,36.128,0,0,0,.391-7.188c-.169-2.206-6.236-4.769-9.021-.845Z" transform="translate(-10.504 -16.327)" fill="#f9bfb3" fill-rule="evenodd"/>
      <path id="Trazado_120066" data-name="Trazado 120066" d="M110.865,226.12c.249,0,.445.338.472.721s-.187.694-.445.685-.454-.32-.472-.712.2-.7.445-.694Z" transform="translate(-10.754 -16.974)" fill="#00202b" fill-rule="evenodd"/>
      <path id="Trazado_120067" data-name="Trazado 120067" d="M112.9,226.806s-.6,3.069-.2,3.514.658.285.658.285a.727.727,0,0,0,.107.178c-.018,0-.418.24-.916-.294-.472-.543.178-3.719.178-3.719a1.482,1.482,0,0,0,.169.044h0Z" transform="translate(-10.97 -17.046)" fill="#d66d50"/>
      <path id="Trazado_120068" data-name="Trazado 120068" d="M111.06,231.962a.27.27,0,0,1-.053-.311.211.211,0,0,1,.294-.027,2.6,2.6,0,0,0,3,.214.234.234,0,0,1,.276.107.22.22,0,0,1-.071.294,3.011,3.011,0,0,1-3.443-.276Z" transform="translate(-10.816 -17.577)" fill="#d66d50"/>
      <path id="Trazado_120069" data-name="Trazado 120069" d="M109.671,224.973c-.053.053-.16.009-.2-.071a.186.186,0,0,1,.053-.249,1.4,1.4,0,0,1,1.984.294.209.209,0,0,1-.036.258.15.15,0,0,1-.222-.062c-.569-.872-1.557-.187-1.566-.178h0Z" transform="translate(-10.646 -16.779)" fill="#d66d50"/>
      <path id="Trazado_120070" data-name="Trazado 120070" d="M116.131,225.11a.149.149,0,0,0,.214-.053.185.185,0,0,0-.053-.249c-.018,0-1.317-.9-1.966.222-.071.071-.027.187.036.249a.163.163,0,0,0,.231-.044c.507-.845,1.539-.125,1.539-.125h0Z" transform="translate(-11.181 -16.792)" fill="#d66d50"/>
      <path id="Trazado_120071" data-name="Trazado 120071" d="M96.7,260.964c-.267-5.569,4.288-13.567,5.747-16.192s6.325-3.852,6.325-3.852,2.749,1.931,4.849,1.041a13.477,13.477,0,0,0,2.153-.988s4.582,1.539,5.854,3.7,1.762,8.238,1.815,9.466.231,4.911.356,7.349q-9.275-.174-18.549-.356a3.413,3.413,0,0,1,0-.836c.044-.534.107-1.29.107-1.824-.258-2.367-.489-4.422-.943-4.6s-1.753,3.781-2.135,6.139a.542.542,0,0,1,.169.569.9.9,0,0,0-.053.507c-1.913-.044-3.817-.08-5.712-.125h0Z" transform="translate(-9.238 -18.608)" fill="#9ea7db" fill-rule="evenodd"/>
      <path id="Trazado_120072" data-name="Trazado 120072" d="M112.535,220.384c.133.311.489,1.121,2.286,2.171s2.322,4.466,2.322,4.466a1.77,1.77,0,0,0,1.486-1.895c-.036-3-1.076-6.566-4.235-7.491-2.847-.836-3.594.427-3.594.427-3.763-.133-4.057,3.656-3.47,6.619.1.5.676.516.676.516.409-3.212,1.895-4.342,4.511-4.822h0Z" transform="translate(-10.388 -16.007)" fill="#301d4a" fill-rule="evenodd"/>
      <path id="Trazado_120073" data-name="Trazado 120073" d="M139.22,225.174a1.183,1.183,0,0,1,1.5.979,1.062,1.062,0,0,1-.2.044c-.32-1.13-1.246-.827-1.246-.827-.009-.071-.044-.125-.053-.2h0Z" transform="translate(-13.932 -16.865)" fill="#ed986b"/>
      <path id="Trazado_120074" data-name="Trazado 120074" d="M107.758,231.286a5.851,5.851,0,0,0-.276,3.621,9.937,9.937,0,0,1-.587,4.893,1.158,1.158,0,0,1-.2-.089,9.464,9.464,0,0,0,.632-4.769,6.058,6.058,0,0,1,.249-3.772,2.125,2.125,0,0,1,.187.116h0Z" transform="translate(-10.343 -17.532)" fill="#534d8c"/>
      <path id="Trazado_120075" data-name="Trazado 120075" d="M108.788,233.846a8.681,8.681,0,0,0,.125,2.553,5.872,5.872,0,0,1-.2,2.971.593.593,0,0,1-.187-.08,5.589,5.589,0,0,0,.214-2.856,8.176,8.176,0,0,1-.142-2.624,1.158,1.158,0,0,0,.187.036h0Z" transform="translate(-10.546 -17.823)" fill="#534d8c"/>
      <path id="Trazado_120076" data-name="Trazado 120076" d="M118.87,231.488a6.1,6.1,0,0,1,.525,3.621,9.867,9.867,0,0,0,1,4.884c.053-.018.107-.053.178-.08a9.848,9.848,0,0,1-.97-4.769,6.146,6.146,0,0,0-.569-3.754c-.071.044-.107.071-.16.107h0Z" transform="translate(-11.687 -17.556)" fill="#534d8c"/>
      <path id="Trazado_120077" data-name="Trazado 120077" d="M118.129,234.024a7.543,7.543,0,0,1,.053,2.527,5.781,5.781,0,0,0,.463,2.971c.036-.018.089-.053.142-.08a6,6,0,0,1-.418-2.856,7.738,7.738,0,0,0-.053-2.607c-.071.018-.125.027-.2.044h0Z" transform="translate(-11.604 -17.842)" fill="#534d8c"/>
      <path id="Trazado_120078" data-name="Trazado 120078" d="M115.3,226.23c.258,0,.5.311.507.7s-.187.7-.445.694-.48-.329-.489-.712.169-.694.427-.685h0Z" transform="translate(-11.245 -16.987)" fill="#00202b" fill-rule="evenodd"/>
      <path id="Trazado_120079" data-name="Trazado 120079" d="M148.128,262c-.214-5.107-.854-17.642-2.108-19.163.053-.053.116-.116.169-.178,1.317,1.6,1.966,14.226,2.2,19.35a2.492,2.492,0,0,0-.258,0h0Z" transform="translate(-14.683 -18.8)" fill="#9ea7db"/>
      <path id="Trazado_120080" data-name="Trazado 120080" d="M128.194,242.927c-.116,2.473-.249,4.946-.374,7.429a1.133,1.133,0,0,1-.24-.018c.133-2.482.249-4.955.374-7.437a2.2,2.2,0,0,1,.24.027h0Z" transform="translate(-12.648 -18.826)" fill="#9ea7db"/>
      <path id="Trazado_120081" data-name="Trazado 120081" d="M103.313,242.2c1.673-1.139,3.568-1.735,3.683,1.343.062,1.53.044,1.913-.614,1.931s-.418-.249-1.219,1.263-1.05,1.7-2,.827c-1.29-1.174-1.521-4.235.151-5.373h0Z" transform="translate(-9.839 -18.647)" fill="#f9bfb3" fill-rule="evenodd"/>
      <path id="Trazado_120082" data-name="Trazado 120082" d="M133.071,236.06s3.772,3.977,8.879.125a.583.583,0,0,0,.125.151c-5.24,3.968-9.119-.125-9.155-.142a.766.766,0,0,1,.151-.133Z" transform="translate(-13.237 -18.071)" fill="#9ea7db"/>
      <path id="Trazado_120083" data-name="Trazado 120083" d="M104.343,247.707a3.553,3.553,0,0,1-1.753-2.954,1.255,1.255,0,0,1,.187.009,3.4,3.4,0,0,0,1.637,2.767.784.784,0,0,0-.08.178h0Zm1.317-1.7a3.184,3.184,0,0,1-1.228-1.886,5.831,5.831,0,0,1,.178-1.922,1.959,1.959,0,0,0,.187.08,5.6,5.6,0,0,0-.16,1.842,3.024,3.024,0,0,0,1.121,1.708,1.944,1.944,0,0,1-.1.178Zm.107-3.461a7.006,7.006,0,0,1,.267,2.785,1.464,1.464,0,0,1-.169-.089,6.843,6.843,0,0,0-.276-2.66.633.633,0,0,0,.178-.036Zm-.89,4.395a3.151,3.151,0,0,1-1.228-1.868,5.355,5.355,0,0,1,.178-1.931c.053.018.116.044.187.071a5.336,5.336,0,0,0-.178,1.842,3.014,3.014,0,0,0,1.121,1.726.674.674,0,0,1-.08.16h0Z" transform="translate(-9.89 -18.749)" fill="#e8a597"/>
      <path id="Trazado_120084" data-name="Trazado 120084" d="M105.449,248.617s.552,3.407-.08,4.831a1.654,1.654,0,0,1-.169-.1c.614-1.361.053-4.7.053-4.715.071,0,.125-.018.2-.018Zm3.8-7.349a4.445,4.445,0,0,0,4.039,1.744c2.927-.107,4.057-1.637,4.057-1.646.071.053.116.089.169.133a5.5,5.5,0,0,1-4.226,1.726,4.614,4.614,0,0,1-4.208-1.859.835.835,0,0,0,.16-.107h0Zm-3.576,11.761a10.176,10.176,0,0,0,1.566-4.635,1.375,1.375,0,0,1,.187.009,10.126,10.126,0,0,1-1.592,4.751,1.394,1.394,0,0,1-.169-.125h0Zm14.75-3.932c.267,1.735.534,3.47.818,5.2a.719.719,0,0,1-.178.027c-.285-1.726-.569-3.452-.836-5.187a1.509,1.509,0,0,0,.2-.036Zm-.845,3.212s-3.47,1.939-9.421,1.192a1.882,1.882,0,0,1,.018-.214c5.9.756,9.3-1.165,9.315-1.157a.4.4,0,0,0,.089.187h0Z" transform="translate(-10.178 -18.645)" fill="#d7dcf7"/>
      <path id="Trazado_120085" data-name="Trazado 120085" d="M142.746,255.276s-7.34,4.413-9.137,7.873a1.029,1.029,0,0,0-.169,0c1.753-3.594,9.181-8.051,9.2-8.069q.067.107.107.187h0Z" transform="translate(-13.295 -20.17)" fill="#9ea7db"/>
      <path id="Trazado_120086" data-name="Trazado 120086" d="M115.932,222.221s1.379.178,1.726,2.811a1.574,1.574,0,0,1-.2.009c-.3-2.447-1.548-2.624-1.566-2.616a.451.451,0,0,1,.036-.214h0Zm-3.327-3.5s2.447-1.219,4.511,2.251a.558.558,0,0,1-.16.107c-1.966-3.3-4.253-2.171-4.253-2.171a.285.285,0,0,1-.089-.178h0Zm-1.29,1.388s-2.7-.356-2.98,3.007a.759.759,0,0,1-.2-.027c.311-3.55,3.185-3.185,3.185-3.185a1.561,1.561,0,0,0,0,.2Z" transform="translate(-10.502 -16.135)" fill="#534d8c"/>
      <path id="Trazado_120087" data-name="Trazado 120087" d="M132.141,214.872s3.986-2.945,8.185-.952a1.22,1.22,0,0,0-.062.214c-4.092-1.948-7.989.907-7.989.907a2.053,2.053,0,0,1-.125-.169h0Zm-.062-1.415c.089-.053,4.057-2.927,8.256-.925a.1.1,0,0,0,.089.036,2.042,2.042,0,0,1-.133.374,1.048,1.048,0,0,1-.1-.044c-3.995-1.913-7.811.854-7.891.916-.036.018-.071.044-.089.053a2.97,2.97,0,0,1-.222-.356.326.326,0,0,0,.089-.062h0Zm7.989-.827a.567.567,0,0,1-.133-.053.519.519,0,0,0,.133.053Zm-.2-.08c-3.656-1.495-7.055.649-7.6,1.032.56-.383,3.941-2.527,7.6-1.032Z" transform="translate(-13.135 -15.397)" fill="#534d8c"/>
      <path id="Trazado_120088" data-name="Trazado 120088" d="M63.014,141.527c3.861.32,7.055,4.235,7.171,8.745.08,4.519-2.989,7.945-6.85,7.66-3.879-.294-7.055-4.226-7.135-8.772-.1-4.537,2.954-7.954,6.806-7.633h0Z" transform="translate(-4.771 -7.638)" fill="#ffb30b" fill-rule="evenodd"/>
      <path id="Trazado_120089" data-name="Trazado 120089" d="M63.481,167.638c3.879.276,7.064,4.146,7.126,8.656.044,4.5-3.043,7.98-6.939,7.74-3.879-.24-7.064-4.137-7.108-8.665-.044-4.546,3.043-8,6.922-7.731h0Z" transform="translate(-4.811 -10.52)" fill="#ffb30b" fill-rule="evenodd"/>
      <path id="Trazado_120090" data-name="Trazado 120090" d="M63.768,193.859c3.888.222,7.091,4.057,7.153,8.558.062,4.519-3.078,8.025-6.975,7.829-3.914-.2-7.091-4.048-7.126-8.594s3.069-8.016,6.957-7.793h0Z" transform="translate(-4.84 -13.413)" fill="#cf6557" fill-rule="evenodd"/>
      <path id="Trazado_120091" data-name="Trazado 120091" d="M57.481,183.881c2.215.151,4.439.311,6.672.454,0,.24.018.472.018.7-2.224-.142-4.457-.3-6.672-.454,0-.231-.018-.463-.018-.7h0Zm-.329,6.841c-.24,0-.48-.018-.712-.036v.694c.222.018.463.044.712.044v-.7Zm-.018-1.717c-.24-.018-.48-.036-.712-.044v.7c.222.018.463.027.712.044v-.7Zm-.018-1.726c-.24-.018-.48-.036-.7-.044v.7c.222.018.463.027.712.044v-.7h0Zm-.027-1.726c-.24,0-.48-.036-.712-.044.018.24.018.48.018.712.222.018.463.044.712.044,0-.231,0-.472-.018-.712Zm-.018-1.7c-.24-.018-.48-.036-.712-.044,0,.24.018.472.018.7.222.018.472.027.712.044,0-.231-.018-.463-.018-.7Zm.472,6.9,6.69.427v.7c-2.233-.133-4.475-.294-6.69-.427v-.7Zm-.018-1.726c2.224.142,4.457.3,6.69.436v.7c-2.233-.142-4.475-.294-6.69-.436v-.7h0Zm-.009-1.726c2.215.151,4.457.311,6.69.445v.7c-2.233-.142-4.475-.3-6.69-.445v-.7Zm-.036-1.717c2.224.142,4.457.3,6.672.445.018.24.018.48.018.712-2.224-.142-4.457-.3-6.672-.445,0-.231,0-.472-.018-.712h0Z" transform="translate(-4.789 -12.306)" fill="#fff" fill-rule="evenodd"/>
      <path id="Trazado_120092" data-name="Trazado 120092" d="M56.329,209.712c.979.053,1.975.116,2.963.169v-.658c-.979-.053-1.975-.116-2.963-.169v-.694c1.174.062,2.349.142,3.523.2,0,.107,0,.214.009.311a2.5,2.5,0,0,1,0,.365v.658c.5.036,1.014.062,1.53.089.009,1.521.036,3.034.053,4.537-1.708-.089-3.381-.178-5.071-.276-.009-1.512-.036-3.025-.053-4.555h0Zm8.345-.89c-.961.4-1.939.8-2.891,1.2.009,1.512.036,3.025.053,4.537.97.489,1.939,1,2.918,1.495-.036-2.393-.062-4.813-.08-7.233h0Z" transform="translate(-4.785 -15.015)" fill="#fff9ef" fill-rule="evenodd"/>
      <path id="Trazado_120093" data-name="Trazado 120093" d="M64.046,220.08c3.906.178,7.126,3.968,7.206,8.487.08,4.5-3.043,8.06-6.966,7.918s-7.126-3.977-7.206-8.514c-.062-4.546,3.052-8.06,6.966-7.882h0Z" transform="translate(-4.868 -16.308)" fill="#ffb30b" fill-rule="evenodd"/>
      <path id="Trazado_120094" data-name="Trazado 120094" d="M60.578,231.208c.952.044,1.744,1.53,1.77,2.758a2.625,2.625,0,0,1-.8,2.269c1.13.3,2.882.872,3.016,1.477a19.5,19.5,0,0,1-.062,2.651c-2.518-.1-5.027-.2-7.544-.311a18.758,18.758,0,0,1-.178-2.669c.125-.6,1.877-1.023,2.971-1.228a3.035,3.035,0,0,1-.845-2.349c-.018-1.237.712-2.66,1.664-2.616h0Zm3,4.866c0-.356-.018-.712,0-1.068-.3-.009-.6-.027-.907-.036,0-.151-.009-.294-.018-.445.3.009.6.027.9.036,0-.338,0-.694-.009-1.05a3.082,3.082,0,0,1,.4.018c0,.347.018.7.009,1.05.3.018.614.027.916.036,0,.151.009.294.018.445-.3-.009-.614-.027-.916-.036,0,.356,0,.7.009,1.059h-.4Z" transform="translate(-4.834 -17.534)" fill="#fff" fill-rule="evenodd"/>
      <path id="Trazado_120095" data-name="Trazado 120095" d="M57.9,157.76c1.379.107,2.767.222,4.164.329a.6.6,0,0,1,.463.578c.062,3.283.133,6.575.2,9.857a.444.444,0,0,1-.436.5c-1.379-.107-2.785-.2-4.164-.311a.55.55,0,0,1-.463-.569c-.044-3.3-.133-6.592-.2-9.884,0-.294.178-.516.436-.5Zm2.278,9.937a.4.4,0,0,1,.347.4.313.313,0,0,1-.329.347c-.187-.009-.3-.178-.311-.391s.116-.374.3-.356h0Zm-2.046-8.505c1.254.1,2.491.2,3.763.3.062,2.7.125,5.4.151,8.1-1.254-.1-2.509-.2-3.745-.285-.044-2.7-.107-5.409-.169-8.123h0Z" transform="translate(-4.91 -9.431)" fill="#fff9ef" fill-rule="evenodd"/>
      <path id="Trazado_120096" data-name="Trazado 120096" d="M219.693,240.377s-4.066.916-7.082,1.281c-5.6.676-6.637,13.638-6.681,20.747q15.2.187,30.4.383c-.133-6.076-.071-11.806-1.21-16.2s-7.865-4.2-10.676-6.085-4.76-.125-4.76-.125h0Z" transform="translate(-21.294 -18.465)" fill="#534d8c" fill-rule="evenodd"/>
      <path id="Trazado_120097" data-name="Trazado 120097" d="M219.41,241.586s.694,2.66,2.331,3.354,2.1-.632,2.1-.632a2.319,2.319,0,0,0,1.761.9c1.165.027,1.859-1.575,2.215-3.185s-7.758-1.824-8.407-.436h0Z" transform="translate(-22.781 -18.58)" fill="#413a80" fill-rule="evenodd"/>
      <path id="Trazado_120098" data-name="Trazado 120098" d="M220.015,240.383s-4.066.916-7.082,1.281c-1.788.214-3.123,1.673-4.083,3.817,2.713-3.034,6.735-3.941,10.88-3.452,1.379-.062,2.722-.116,4.1-.16a41.747,41.747,0,0,0,5.6,1.2,10.391,10.391,0,0,1,5.543,2.215c-2.064-4.226-7.509-2.963-10.2-4.769a4,4,0,0,0-4.76-.125h0Z" transform="translate(-21.616 -18.471)" fill="#413a80" fill-rule="evenodd"/>
      <path id="Trazado_120099" data-name="Trazado 120099" d="M223.466,218.112a5.03,5.03,0,0,0-4.884.383,8.065,8.065,0,0,0-2.749,3.078,12.2,12.2,0,0,0-1.068,4.217c-.027.294-.053.56-.071.845-.907,3.425-1.61,8.745,2.527,9.8a22.517,22.517,0,0,0,3.888,1.192q1.348-8.447,2.731-16.832c.436.489,3.043,2.989,3.167,6.406s-2.393,6.583-2.393,6.583a16.6,16.6,0,0,0,.454,3.568c.329.979,7.126.1,5.2-8.541-.738-3.5-1.806-8.167-3.763-9.733s-2.874-1.059-3.051-.97h0Zm-8.852,9.6c-.347,4.938.2,7.046,1.726,8.194-2.616-1.388-2.4-5.2-1.726-8.194Z" transform="translate(-22.184 -16.039)" fill="#342d6e" fill-rule="evenodd"/>
      <path id="Trazado_120100" data-name="Trazado 120100" d="M221.726,235.112s-.116,4.582-.952,5.391c-.818.81,2.58,1.423,4.359.845s1.592-.89,1.592-.89-.987-1.068-1.263-5.24v-.044a3.459,3.459,0,0,1-3.7-.125.09.09,0,0,1-.036.062h0Z" transform="translate(-22.918 -17.96)" fill="#f9bfb3" fill-rule="evenodd"/>
      <path id="Trazado_120101" data-name="Trazado 120101" d="M221.842,235.112s-.036,1.005-.142,2.126a3.207,3.207,0,0,0,4.1.071,15.556,15.556,0,0,1-.222-2.091v-.044a3.459,3.459,0,0,1-3.7-.125.09.09,0,0,1-.036.062Z" transform="translate(-23.034 -17.96)" fill="#e8a597" fill-rule="evenodd"/>
      <path id="Trazado_120102" data-name="Trazado 120102" d="M231.192,264.726c-.133-3.416-.365-6.272-.365-6.272a15.053,15.053,0,0,0-5.338-.071,11.188,11.188,0,0,1-6.566-.1c-2.349-.747-6.2-.107-6.2-.107s-.738,4.528-.881,6.121-.009.133,0,.2q9.675.12,19.341.231h0Z" transform="translate(-21.939 -20.484)" fill="#413a80" fill-rule="evenodd"/>
      <path id="Trazado_120103" data-name="Trazado 120103" d="M180.541,224.588a1.042,1.042,0,0,0-1.708.614c-.454,1.495,1.859,3.932,1.815,2.518s-.107-3.132-.107-3.132Z" transform="translate(-18.297 -16.777)" fill="#e8a597" fill-rule="evenodd"/>
      <path id="Trazado_120104" data-name="Trazado 120104" d="M191.16,224.965a1.148,1.148,0,0,1,1.779.738c.56,1.521-1.619,3.8-1.673,2.375s-.107-3.114-.107-3.114Z" transform="translate(-19.664 -16.825)" fill="#e8a597" fill-rule="evenodd"/>
      <path id="Trazado_120105" data-name="Trazado 120105" d="M183.172,232.679a15.27,15.27,0,0,1-.418,5.516c-.783,2.366-.854,2.3-.854,2.3a4.786,4.786,0,0,0,4.377,1.388c2.785-.5,3.238-1.646,3.238-1.646a8.719,8.719,0,0,1-1.477-3.6c-.3-2.046.525-3.79-.249-3.817s-3.087-.089-4.617-.142h0Z" transform="translate(-18.642 -17.697)" fill="#f9bfb3" fill-rule="evenodd"/>
      <path id="Trazado_120106" data-name="Trazado 120106" d="M183.33,232.68a18.25,18.25,0,0,1,.027,3.007,4.887,4.887,0,0,0,4.769.445c-.24-1.806.6-3.292-.178-3.31s-3.087-.089-4.617-.142Z" transform="translate(-18.8 -17.698)" fill="#e8a597" fill-rule="evenodd"/>
      <path id="Trazado_120107" data-name="Trazado 120107" d="M187.569,214.881s-3.149-2.055-6-.391-3.114,5.64-2.9,7.242c.2,1.584.089,4.911,1.717,5.009s6.494.383,9.768.569a14.428,14.428,0,0,0,.836-5.489c.036-3.79-.6-7.091-3.434-6.939h0Z" transform="translate(-18.28 -15.619)" fill="#342d6e" fill-rule="evenodd"/>
      <path id="Trazado_120108" data-name="Trazado 120108" d="M181.133,229.246c1.637,4.644,7.135,4.012,8.425,1.245,1.148-2.464,1.477-8.167-.071-10.649a12.735,12.735,0,0,0-2.037-1.753,16.945,16.945,0,0,1-6.5,1.761.557.557,0,0,0-.089.027c-.578,3.656-1.068,5.534.276,9.359h0Z" transform="translate(-18.462 -16.088)" fill="#f9bfb3" fill-rule="evenodd"/>
      <path id="Trazado_120109" data-name="Trazado 120109" d="M187.983,223.27c-.214,0-.391.4-.374.916s.222.925.445.934.365-.391.356-.907-.2-.934-.427-.943Z" transform="translate(-19.272 -16.66)" fill="#3b347a" fill-rule="evenodd"/>
      <path id="Trazado_120110" data-name="Trazado 120110" d="M183.413,223.1c-.222-.009-.391.4-.374.916s.222.934.445.943.365-.4.356-.916-.2-.934-.427-.943Z" transform="translate(-18.768 -16.641)" fill="#3b347a" fill-rule="evenodd"/>
      <path id="Trazado_120111" data-name="Trazado 120111" d="M189.514,222.032s-1.61-1.619-2.874.027q.2.2.427.4c.916-1.183,2.108,0,2.108,0a3.1,3.1,0,0,1,.338-.427Z" transform="translate(-19.165 -16.445)" fill="#342d6e" fill-rule="evenodd"/>
      <path id="Trazado_120112" data-name="Trazado 120112" d="M184.546,222.021s-1.61-1.628-2.856.018a4.386,4.386,0,0,0,.409.4c.916-1.183,2.091.009,2.091.009.133-.142.231-.294.356-.427Z" transform="translate(-18.619 -16.443)" fill="#342d6e" fill-rule="evenodd"/>
      <path id="Trazado_120113" data-name="Trazado 120113" d="M185.653,224.047s1.21,3.452.774,3.772a2.381,2.381,0,0,1-1.521.151,3.017,3.017,0,0,1-.036.311,2.781,2.781,0,0,0,1.735-.178c.6-.463-.676-4.146-.694-4.164-.089.036-.178.08-.249.107h0Z" transform="translate(-18.97 -16.734)" fill="#d18b7d"/>
      <path id="Trazado_120114" data-name="Trazado 120114" d="M187.248,230.341a2.211,2.211,0,0,1-2.989-.071,3.96,3.96,0,0,0-.249.383,2.636,2.636,0,0,0,3.541.062,1.923,1.923,0,0,1-.3-.374Z" transform="translate(-18.875 -17.432)" fill="#d18b7d"/>
      <path id="Trazado_120115" data-name="Trazado 120115" d="M181.172,239.3c.525,2.785,6.833,1.637,5.809-.516a60.982,60.982,0,0,1,9.688,4.146c4.3,2.411,3.63,8.069,4.2,9.51s1.1,7.108,1.37,9.884q-16.734-.214-33.469-.472c.409-3.3,1.966-15.258,3.176-17.286s5.062-4.6,9.226-5.258h0Z" transform="translate(-17.193 -18.371)" fill="#fec961" fill-rule="evenodd"/>
      <path id="Trazado_120116" data-name="Trazado 120116" d="M198.46,247.05s.694,2.278,2.349,6.2,1.717,6.69-.756,6.815-4.564,1.014-4.653-1.219-1.237-11.717-.641-11.735,2.455-.036,3.692-.062h0Z" transform="translate(-20.042 -19.284)" fill="#ebb64d" fill-rule="evenodd"/>
      <path id="Trazado_120117" data-name="Trazado 120117" d="M181.529,239.3A1.872,1.872,0,0,0,183,240.773c-.489,0,.267-.116-1.361.071s-6.583,2.153-9.332,3.745c0-.009-.667,1.068,0-.036s5.062-4.6,9.226-5.258h0Zm3.665,1.575c1.423-.249,2.624-1.05,2.144-2.091a101.582,101.582,0,0,1,9.688,4.146c2.758,1.557,2.046,1.6,2.571,2.624-1.966-2.091-9.021-4.217-14.4-4.68Z" transform="translate(-17.55 -18.371)" fill="#ebb64d" fill-rule="evenodd"/>
      <path id="Trazado_120118" data-name="Trazado 120118" d="M174.346,254.287c.356,1.655.374,1.69.374,1.69-.089,1.023-.178,2.055-.276,3.078.329.018.658.036.988.027.044-1.219.125-2.455.2-3.683a30.653,30.653,0,0,1-.56-4.377c-.089-2.144-.151-4.012-.151-4.012a17.573,17.573,0,0,0-.578,7.277h0Z" transform="translate(-17.787 -19.28)" fill="#ebb64d" fill-rule="evenodd"/>
      <path id="Trazado_120119" data-name="Trazado 120119" d="M195.14,264.472c.249-1.681.427-3.559,1.521-4.457s5.454-.427,6.076,1.254a12.948,12.948,0,0,0,1.779,3.336q-4.7-.053-9.368-.133h0Z" transform="translate(-20.103 -20.665)" fill="#ebb64d" fill-rule="evenodd"/>
      <path id="Trazado_120120" data-name="Trazado 120120" d="M182.614,239.3c.525,2.785,6.833,1.637,5.809-.516,0,0,.338.116.934.329a3.5,3.5,0,0,1-3.621,2.865,3.667,3.667,0,0,1-3.9-2.527c.267-.053.5-.089.774-.151Z" transform="translate(-18.635 -18.371)" fill="#f5f7ff" fill-rule="evenodd"/>
      <path id="Trazado_120121" data-name="Trazado 120121" d="M179.713,250.446s.062,7.624,3.123,12.277a2.16,2.16,0,0,0-.24,0c-3.043-4.742-3.087-12.277-3.1-12.286a1.731,1.731,0,0,0,.222.018h0Zm-2.278-4.1a41.464,41.464,0,0,0-1.388,16.281h-.222a34.28,34.28,0,0,1-.214-7.162,52.852,52.852,0,0,1-.694-6.8,20.6,20.6,0,0,1,.107-3.479.844.844,0,0,0,.2.044,35.47,35.47,0,0,0,.454,9.288,44.33,44.33,0,0,1,1.53-8.283.645.645,0,0,0,.222.1h0Zm2.8.027s1.112,11.975,7.438,15.346a2.226,2.226,0,0,1-.1.2c-6.414-3.443-7.571-15.516-7.571-15.551Zm12.482-1.441s.427,10.026-2,14.279a1.455,1.455,0,0,1-.2-.133c2.4-4.19,1.993-14.11,1.975-14.145a1.845,1.845,0,0,0,.222,0Z" transform="translate(-17.869 -19.05)" fill="#ebb64d"/>
      <path id="Trazado_120122" data-name="Trazado 120122" d="M198.545,247.913s2.518,8.7,3.959,13.834c-1.726-.009-3.407-.036-5.124-.071A94.315,94.315,0,0,1,195.2,248.5s-.231-2.5-.97-3.407-.934-2.909-1.237-3.826-.347-2.144.276-2.02.712,1.2.943,1.957.222.8.329.783a9.961,9.961,0,0,0,.151-3.336,15.429,15.429,0,0,1,.08-4.226c.2-.214.436-.578.685.427.178.694.16,4.671.667,4.893.267.116-.285-5,.294-5.658.3-.347.507-.16.614.383.071.383.2,5.1.3,5.115.258.062.1-4.751.294-5.169.187-.4.516-.534.632.1.08.418.116,5.044.222,4.991.347-.178.116-3.229.142-3.745.036-.463-.089-1.477.436-1.1.552.383.374,4.466.765,5.5a11.148,11.148,0,0,1-.294,5.4c-.632,1.77-1.254,1.388-1,2.358h0Z" transform="translate(-19.842 -17.834)" fill="#f9bfb3" fill-rule="evenodd"/>
      <path id="Trazado_120123" data-name="Trazado 120123" d="M195.51,243.168s2.278-1.076,3.754.6c-.071.053-.089.1-.169.16-1.379-1.539-3.479-.534-3.5-.534a1.038,1.038,0,0,1-.089-.231h0Z" transform="translate(-20.144 -18.818)" fill="#e8a597"/>
      <path id="Trazado_120124" data-name="Trazado 120124" d="M218.444,224.447a11.562,11.562,0,0,0,1.708,8.238c4.172,6.281,12.366-4.128,4.208-11.646-.472.747-1.726,2.064-4.724,2.678a3.946,3.946,0,0,0-1.192.73Zm5.587-3.2a25.507,25.507,0,0,1-3.817,2.18,6.675,6.675,0,0,0,3.817-2.18Z" transform="translate(-22.66 -16.414)" fill="#f9bfb3" fill-rule="evenodd"/>
      <path id="Trazado_120125" data-name="Trazado 120125" d="M223.4,226.44s.231,2.5-.249,3.14a.385.385,0,0,0-.08.16.223.223,0,0,0,.053.222.836.836,0,0,0,.285.222,1.731,1.731,0,0,0,.649.178c.009.1,0,.2.009.3a2.386,2.386,0,0,1-.765-.2,1.1,1.1,0,0,1-.4-.311.587.587,0,0,1-.125-.48.95.95,0,0,1,.142-.285c.4-.552.178-2.918.178-2.918a1.568,1.568,0,0,0,.294-.027h0Z" transform="translate(-23.152 -17.01)" fill="#d18b7d"/>
      <path id="Trazado_120126" data-name="Trazado 120126" d="M222.1,231.96a1.514,1.514,0,0,0,2.58.133,2.324,2.324,0,0,0,.214.231,1.794,1.794,0,0,1-3.034-.187c.071-.053.169-.116.24-.178h0Z" transform="translate(-23.051 -17.619)" fill="#d18b7d"/>
      <path id="Trazado_120127" data-name="Trazado 120127" d="M219.57,226.623s1.308-1.557,2.473-.036a2.045,2.045,0,0,0-.24.2c-.925-1.246-2,.036-2,.053a2.621,2.621,0,0,1-.231-.222h0Z" transform="translate(-22.799 -16.952)" fill="#d18b7d"/>
      <path id="Trazado_120128" data-name="Trazado 120128" d="M224.81,226.7s.979-1.619,2.375.178a1.5,1.5,0,0,0-.2.187c-1.139-1.468-1.922-.169-1.922-.169l-.249-.2Z" transform="translate(-23.377 -16.964)" fill="#d18b7d"/>
      <path id="Trazado_120129" data-name="Trazado 120129" d="M219.59,224.585a2.307,2.307,0,0,1,2.473-.018,3.3,3.3,0,0,1-.169.409,1.954,1.954,0,0,0-2.055,0c-.1-.133-.16-.249-.249-.391Z" transform="translate(-22.801 -16.765)" fill="#995d51" fill-rule="evenodd"/>
      <path id="Trazado_120130" data-name="Trazado 120130" d="M227.141,224.844a2.42,2.42,0,0,0-2.491-.2c.08.151.151.294.231.436a1.974,1.974,0,0,1,2.028.142c.062-.133.16-.249.231-.383h0Z" transform="translate(-23.359 -16.784)" fill="#995d51" fill-rule="evenodd"/>
      <path id="Trazado_120131" data-name="Trazado 120131" d="M215.525,243.82a23.984,23.984,0,0,1-.979,9.324.443.443,0,0,1-.187-.08,24.162,24.162,0,0,0,.916-9.235h.249Z" transform="translate(-22.224 -18.928)" fill="#342d6e"/>
      <path id="Trazado_120132" data-name="Trazado 120132" d="M233.358,263.839c.036-7.028.6-13.959.6-13.959a84.432,84.432,0,0,0-1.913,13.941c.436,0,.854.018,1.308.018Z" transform="translate(-24.176 -19.596)" fill="#342d6e" fill-rule="evenodd"/>
      <path id="Trazado_120133" data-name="Trazado 120133" d="M230.6,245.645a28.406,28.406,0,0,1-6.388,9.155,1.552,1.552,0,0,1-.142-.178,28.43,28.43,0,0,0,6.317-9.074.732.732,0,0,0,.222.107h0Zm5.729,5.569a41.241,41.241,0,0,1-1.415,12.028h-.24a39.482,39.482,0,0,0,1.45-12.028,1.566,1.566,0,0,0,.2,0h0Zm.116,12.046a15.047,15.047,0,0,0-.018-2.616,1.093,1.093,0,0,0,.231-.018,15.313,15.313,0,0,1,0,2.633h-.2Zm-18.763-17.25s-.249,7.1,3.612,9.617a1.336,1.336,0,0,0-.1.2c-4.021-2.589-3.763-9.813-3.754-9.831a1.016,1.016,0,0,0,.24.018h0Zm11-1.8a13.756,13.756,0,0,1-4.253,7.411c-.044-.062-.1-.107-.142-.178a13.63,13.63,0,0,0,4.19-7.3.8.8,0,0,0,.2.062Z" transform="translate(-22.563 -18.964)" fill="#342d6e"/>
      <path id="Trazado_120134" data-name="Trazado 120134" d="M213.135,255.272c.818-.6,1.931-1,1.993-2.473a7.65,7.65,0,0,1,2.055-4.155c.187-.187-.774-.774-1.254-.027s-1.077,1.788-1.406,1.548c-.3-.214.747-5.534.231-6.245-.276-.383-.56-.427-.8.845-.018.089-.338,4.84-.6,4.537-.3-.347.125-4.35-.231-5.418-.214-.632-.649-.489-.756.169-.1.56-.187,5.08-.222,5.116-.463.48-.125-5.72-.658-5.729-.329,0-.578.2-.516,1.681s.294,4.3-.1,3.79-.454-3.318-.756-4.244c-.329-.988-.8-.258-.73.311.151,1.388.463,3.238.48,4.528a29.022,29.022,0,0,0-.178,3.132c.053,1.619.48,1.468.3,1.77s-3.327,5.729-4.875,8.389q1.935.04,3.843.053c1.512-2.794,3.906-7.384,4.2-7.6h0Z" transform="translate(-21.203 -18.886)" fill="#f9bfb3" fill-rule="evenodd"/>
      <path id="Trazado_120135" data-name="Trazado 120135" d="M211.19,250.778a3.484,3.484,0,0,1,3.692.676,1.107,1.107,0,0,0-.133.169,3.234,3.234,0,0,0-3.452-.641,1.6,1.6,0,0,1-.107-.214h0Z" transform="translate(-21.874 -19.667)" fill="#d99182"/>
      <path id="Trazado_120136" data-name="Trazado 120136" d="M223.82,242.092s0,2.206-1,2.393-2.26-1.5-2.58-2.82a1.12,1.12,0,0,1,.9-1.495s-.276.979,2.669,1.922h0Z" transform="translate(-22.867 -18.525)" fill="#b6beed" fill-rule="evenodd"/>
      <path id="Trazado_120137" data-name="Trazado 120137" d="M224.27,242.1s.507,2.34,1.512,2.571,1.717-1.637,1.939-2.936a1.276,1.276,0,0,0-1.032-1.521s.445,1.094-2.42,1.886h0Z" transform="translate(-23.317 -18.529)" fill="#b6beed" fill-rule="evenodd"/>
      <path id="Trazado_120138" data-name="Trazado 120138" d="M183.273,223.59c.053,0,.107.062.116.142s-.053.125-.116.116a.151.151,0,0,1-.133-.133.134.134,0,0,1,.133-.125Z" transform="translate(-18.779 -16.695)" fill="#fff" fill-rule="evenodd"/>
      <path id="Trazado_120139" data-name="Trazado 120139" d="M187.806,223.739c.062,0,.107.071.116.142a.12.12,0,0,1-.116.125c-.062,0-.107-.062-.116-.133a.137.137,0,0,1,.116-.142h0Z" transform="translate(-19.281 -16.711)" fill="#fff" fill-rule="evenodd"/>
      <path id="Trazado_120140" data-name="Trazado 120140" d="M220.648,228.26c.56.018,1.032.258,1.041.516s-.445.5-1.005.48-1.014-.267-1.023-.543.427-.472.988-.454Z" transform="translate(-22.809 -17.21)" fill="#faaaab" fill-rule="evenodd"/>
      <path id="Trazado_120141" data-name="Trazado 120141" d="M226.325,228.45c.56.018,1.032.24,1.041.507s-.445.5-1.005.48-1.032-.258-1.041-.534.445-.471,1.005-.454Z" transform="translate(-23.433 -17.231)" fill="#faaaab" fill-rule="evenodd"/>
      <path id="Trazado_120142" data-name="Trazado 120142" d="M182.925,226c.569.018,1.014.276,1.023.552s-.436.471-1.005.454-1.014-.249-1.023-.534.436-.5,1.005-.48h0Z" transform="translate(-18.644 -16.96)" fill="#faaaab" fill-rule="evenodd"/>
      <path id="Trazado_120143" data-name="Trazado 120143" d="M188.848,226.2c.569.018,1.032.276,1.041.552s-.436.472-1.005.454-1.014-.249-1.023-.534.418-.5.988-.48h0Z" transform="translate(-19.3 -16.982)" fill="#faaaab" fill-rule="evenodd"/>
      <path id="Trazado_120144" data-name="Trazado 120144" d="M200.78,249.109s1.566.009,3.354,4.253a.535.535,0,0,1-.125.044c-1.717-4.172-3.194-4.19-3.194-4.19a.246.246,0,0,1-.027-.116h0Z" transform="translate(-20.725 -19.51)" fill="#ebb64d" fill-rule="evenodd"/>
      <path id="Trazado_120145" data-name="Trazado 120145" d="M192.1,250.123s-.685,2.918-5.471,3.8c-.036-.044-.027-.116-.044-.169,4.68-.854,5.347-3.665,5.347-3.683a.62.62,0,0,0,.169.053Z" transform="translate(-19.158 -19.617)" fill="#ebb64d"/>
      <path id="Trazado_120146" data-name="Trazado 120146" d="M12.96,327.06H398.838v10.258H12.96V327.06Z" transform="translate(0 -28.113)" fill="#e6e6e6" fill-rule="evenodd"/>
      <path id="Trazado_120147" data-name="Trazado 120147" d="M139.909,327.06h167.05v10.258H244.132a5.4,5.4,0,0,0-.48-.872c-3.167-4.591-66.68,1.477-84.882,0-12.224-.988-17.037-6.121-18.87-9.377h0Z" transform="translate(-14.007 -28.113)" fill="#d9d9d9" fill-rule="evenodd"/>
      <path id="Trazado_120148" data-name="Trazado 120148" d="M289.419,105.783s-10.053,46.484,16.539,64.171,57.569-31.467,37.268-59.856-46.057-19.332-53.806-4.315Z" transform="translate(-30.301 -2.133)" fill="#f9bfb3" fill-rule="evenodd"/>
      <path id="Trazado_120149" data-name="Trazado 120149" d="M289.419,105.783a105.109,105.109,0,0,0-1.726,24.91,13.631,13.631,0,0,0,2.883.391c28.887.818,18.06,20.444,10.347,34.768a34.642,34.642,0,0,0,5.035,4.1c26.592,17.686,57.569-31.467,37.268-59.856s-46.057-19.332-53.806-4.315h0Z" transform="translate(-30.301 -2.133)" fill="#e8a597" fill-rule="evenodd"/>
      <path id="Trazado_120150" data-name="Trazado 120150" d="M300.027,192.239S275.8,191.154,264.4,217.007s-6.406,61.262-13.523,64.4-57.97,1.548-64.464,3.345-6.494,13.265-6.913,17.757a73.912,73.912,0,0,0,0,10.2l87.836-.525c.009,3.754-.062,7.162-.2,10.258h121.02c-.08-8.194-.516-17.055-1.37-26.672.863-33.3,3.941-56.449-5.863-79.544s-45.23-24.056-80.878-23.985h0Z" transform="translate(-18.356 -13.235)" fill="#ffb30b" fill-rule="evenodd"/>
      <path id="Trazado_120151" data-name="Trazado 120151" d="M411.873,335.547c-.08-7.58-.472-15.738-1.2-24.537A240.854,240.854,0,0,1,394.4,335.547h17.464Z" transform="translate(-42.09 -26.342)" fill="#ff980b" fill-rule="evenodd"/>
      <path id="Trazado_120152" data-name="Trazado 120152" d="M312.575,192.239a37.775,37.775,0,0,0-19.555,5.7c1.379,10.276,9.679,31.342,53.868,36.876,20.729,2.6,37.09-2.473,49.6-10.16a78.752,78.752,0,0,0-3.034-8.443c-9.8-23.087-45.23-24.056-80.878-23.985h0Z" transform="translate(-30.904 -13.234)" fill="#ff980b" fill-rule="evenodd"/>
      <path id="Trazado_120153" data-name="Trazado 120153" d="M278.224,315.884c.009,3.763-.062,7.162-.214,10.258h22.1a11.1,11.1,0,0,1,2.144-1.948c11.939-8.247,10.124-69.722,7.4-83.3s-11.6-15.115-11.6-15.115,6.076,4.324,4.19,19.332-2.829,68.824-15.284,70.781h-8.736Z" transform="translate(-29.247 -16.937)" fill="#ff980b" fill-rule="evenodd"/>
      <path id="Trazado_120154" data-name="Trazado 120154" d="M177.389,303.144a36.865,36.865,0,0,0-21.067,5.107c-12.4,7.678-14.288,14.7-11.726,15.756,2.153.89,24.074.934,30.96.934a65.68,65.68,0,0,1,0-9.662c.258-2.722.356-7.989,1.833-12.126h0Z" transform="translate(-14.416 -25.469)" fill="#f9bfb3" fill-rule="evenodd"/>
      <path id="Trazado_120155" data-name="Trazado 120155" d="M180.365,302.554a41.512,41.512,0,0,0-5.285.089c-2.117,4.7-5.187,13.825-4.377,22.215,3.247.018,6.023.018,7.829.018a95.5,95.5,0,0,1,0-10.2c.338-3.6.356-7.989,1.833-12.126Z" transform="translate(-17.392 -25.404)" fill="#e8a597" fill-rule="evenodd"/>
      <path id="Trazado_120156" data-name="Trazado 120156" d="M361.878,89.042s-26.8-29.207-61.342-10.489-22.188,42.161-7.749,42.579c10.364.294,15.613,3.016,17.731,7.037.276,4.813-1.361,12.722-9.608,24.617a44.176,44.176,0,0,0-7.117,15.355,25.733,25.733,0,0,0,1.032,15.622,23.287,23.287,0,0,0,4.395,6.9c5.916,12.313,22.081,22.926,57.374,24.884,59.562,3.292,65.79-56.787,5.285-126.509Zm-50.47,47.347c-1.664,9.751-10.32,21.814-12.758,28.754a36.165,36.165,0,0,0-1.762,18.371c-.071-.16-.142-.32-.2-.48a23.792,23.792,0,0,1-.934-14.466,42.423,42.423,0,0,1,6.824-14.67c4.893-7.064,7.535-12.855,8.834-17.508Z" transform="translate(-29.274)" fill="#12263f" fill-rule="evenodd"/>
      <path id="Trazado_120157" data-name="Trazado 120157" d="M263.317,291.88s10.56.552,17.855,12.019l-1.076.658c-6.948-10.916-16.832-11.432-16.859-11.432l.08-1.237h0Zm-1.219,1.5s12.01,8.327,10.6,21.245l-1.254-.133c1.326-12.179-10.053-20.079-10.089-20.1l.738-1.014Z" transform="translate(-27.41 -24.231)" fill="#ff980b" fill-rule="evenodd"/>
      <path id="Trazado_120158" data-name="Trazado 120158" d="M395.424,288.737c-.044.089-10.08,21.547-37.357,43.611h-3.585c28.478-22.295,38.851-44.465,38.9-44.554l2.046.952h0ZM317.98,332.348c12.251-4.866,55.648-23.674,68.379-50.328l2.046.943c-11.672,24.448-48.059,42.321-64.58,49.394H317.98Z" transform="translate(-33.658 -23.143)" fill="#ff980b"/>
    </g>
  </g>
</svg>
