<svg xmlns="http://www.w3.org/2000/svg" xmlns:xlink="http://www.w3.org/1999/xlink" width="96.714" height="200.064" viewBox="0 0 96.714 200.064">
  <defs>
    <linearGradient id="linear-gradient" x1="1" y1="0.621" x2="0.134" y2="0.414" gradientUnits="objectBoundingBox">
      <stop offset="0" stop-color="#45108a"/>
      <stop offset="0.16" stop-color="#2f0b5f"/>
      <stop offset="0.32" stop-color="#1e073d"/>
      <stop offset="0.49" stop-color="#110422"/>
      <stop offset="0.65" stop-color="#07010f"/>
      <stop offset="0.82" stop-color="#010003"/>
      <stop offset="1"/>
    </linearGradient>
  </defs>
  <g id="Artboard_2" data-name="Artboard 2" transform="translate(-26.2 -10.27)">
    <g id="Layer_1" transform="translate(26.2 10.27)">
      <g id="Grupo_111935" data-name="Grupo 111935">
        <path id="Trazado_115000" data-name="Trazado 115000" d="M81.865,132.405a12.263,12.263,0,0,0-.111-1.578L84.4,130.5a23.812,23.812,0,0,0-1.19-3.986l-3-.913a20.789,20.789,0,0,0-1.868-3.225l.72-3.031a23.982,23.982,0,0,0-2.879-3.031l-1.619,2.09a10.079,10.079,0,0,0-1.329-.886,10.508,10.508,0,0,0-1.329-.637l-1.619-3.958a8.158,8.158,0,0,0-2.879-.291l.72,3.861a4.21,4.21,0,0,0-1.868,1.066l-3-2.56a7.587,7.587,0,0,0-1.19,2.616l2.643,3.377a9.679,9.679,0,0,0-.111,1.453,12.262,12.262,0,0,0,.111,1.578l-2.643.332a23.813,23.813,0,0,0,1.19,3.986l3,.913a20.79,20.79,0,0,0,1.868,3.225l-.72,3.031a23.981,23.981,0,0,0,2.879,3.031l1.619-2.09a10.078,10.078,0,0,0,1.329.886,12.832,12.832,0,0,0,1.329.637l1.619,3.958a8.157,8.157,0,0,0,2.879.291l-.72-3.861a4.21,4.21,0,0,0,1.868-1.066l3,2.56a7.587,7.587,0,0,0,1.19-2.616l-2.643-3.377a9.678,9.678,0,0,0,.111-1.453Zm-8.636-1.01a7.68,7.68,0,0,1-3.474-5.993c0-2.2,1.55-3.086,3.474-1.979a7.643,7.643,0,0,1,3.474,5.993C76.7,131.617,75.153,132.5,73.229,131.4Z" transform="translate(-12.43 29.025)" fill="#ffb30b"/>
        <path id="Trazado_115001" data-name="Trazado 115001" d="M32.115,159.438l4.332-2.464c.457-.263.526-1.01.221-1.8l1.273-.72c2.519,3.64,6.1,5.495,8.387,4.18,2.505-1.426,2.505-6.09,0-10.408s-6.56-6.657-9.065-5.232c-2.3,1.3-2.477,5.315-.581,9.3l-1.273.72c-.526-.664-1.218-.983-1.675-.72L29.4,154.76c-.54.3-.54,1.315,0,2.256l.747,1.287c.54.941,1.426,1.439,1.965,1.135Zm6.685-6.92c-1.647-2.851-1.647-5.91,0-6.851s4.318.609,5.965,3.446,1.647,5.91,0,6.851S40.447,155.355,38.8,152.518Z" transform="translate(-25.126 40.537)" fill="#ffb30b"/>
        <path id="Trazado_115002" data-name="Trazado 115002" d="M74.694,67.7a29.762,29.762,0,0,1-9.079-8.47l-.042-.028c-2.657.6-5.841-.111-9.079-2.007l-.125-.069.18,2.339c.623,8.221,3.82,14.961,8.982,22.947l.125.069c5.162-2.021,8.373-5.065,8.982-12.581l.18-2.131Zm-4.47,2.464c-.318,3.848-1.951,5.4-4.609,6.436l-.069-.042c-2.643-4.1-4.29-7.543-4.609-11.75l-.083-1.2.069.042a6.45,6.45,0,0,0,4.65,1.024h.014a15.044,15.044,0,0,0,4.65,4.346l.069.042-.083,1.093Z" transform="translate(-14.615 7.724)" fill="#ffb30b"/>
        <g id="Grupo_111933" data-name="Grupo 111933" transform="translate(29.382 20.234)">
          <path id="Trazado_115003" data-name="Trazado 115003" d="M55.762,28.917,53.1,31.395v.069l4.221,1.8v2.173l-4.221-3V32.5l2.685,5.384-1.758.138-1.675-5.453-.055-.028-1.813,3.474L48.9,33.941l2.657-2.38v-.069L47.43,29.72V27.547l4.1,2.976v-.069L48.9,25.028l1.7-.138,1.73,5.453.055.028,1.7-3.5,1.675,2.062Z" transform="translate(-47.43 -24.89)" fill="#ffb30b"/>
          <path id="Trazado_115004" data-name="Trazado 115004" d="M64.122,33.747l-2.657,2.477v.069l4.221,1.8v2.173l-4.221-3v.069l2.685,5.384-1.758.138L60.717,37.4l-.055-.028-1.813,3.474-1.592-2.076,2.657-2.38v-.069L55.79,34.55V32.377l4.1,2.976v-.069l-2.63-5.425,1.7-.138,1.73,5.453.055.028,1.7-3.5,1.675,2.062Z" transform="translate(-44.22 -23.035)" fill="#ffb30b"/>
          <path id="Trazado_115005" data-name="Trazado 115005" d="M72.492,38.587l-2.657,2.477v.069l4.221,1.8v2.173l-4.221-3v.069l2.685,5.384-1.758.138-1.675-5.453-.055-.028-1.813,3.474-1.592-2.076,2.657-2.38v-.069L64.16,39.39V37.217l4.1,2.976v-.069L65.627,34.7l1.7-.138,1.73,5.453.055.028,1.7-3.5L72.492,38.6Z" transform="translate(-41.006 -21.177)" fill="#ffb30b"/>
          <path id="Trazado_115006" data-name="Trazado 115006" d="M80.862,43.417,78.2,45.895v.069l4.221,1.8v2.173l-4.221-3V47l2.685,5.384-1.758.138-1.675-5.453-.055-.028-1.813,3.474L74,48.441l2.657-2.38v-.069L72.53,44.22V42.047l4.1,2.976v-.069L74,39.528l1.7-.138,1.73,5.453.055.028,1.7-3.5,1.675,2.062Z" transform="translate(-37.791 -19.322)" fill="#ffb30b"/>
          <path id="Trazado_115007" data-name="Trazado 115007" d="M89.232,48.247l-2.657,2.477v.069l4.221,1.8v2.173l-4.221-3v.069l2.685,5.384-1.758.138L85.827,51.9l-.055-.028-1.813,3.474-1.592-2.076,2.657-2.38v-.069L80.9,49.05V46.877L85,49.853v-.069l-2.63-5.425,1.7-.138,1.73,5.453.055.028,1.7-3.5,1.675,2.062Z" transform="translate(-34.577 -17.467)" fill="#ffb30b"/>
        </g>
        <g id="Grupo_111934" data-name="Grupo 111934" transform="translate(65.408)">
          <path id="Trazado_115008" data-name="Trazado 115008" d="M90.355,31.86a.881.881,0,0,1-.291-.3.8.8,0,0,1-.125-.415V29.272a.481.481,0,0,1,.125-.388,1,1,0,0,1,.4-.166l5.038-.955-5.038-6.782a4.95,4.95,0,0,1-.4-.623,1.266,1.266,0,0,1-.125-.567V17.951a.349.349,0,0,1,.111-.3.317.317,0,0,1,.3.042,1.369,1.369,0,0,1,.415.457l7.058,9.591a4.282,4.282,0,0,1,.471.775,1.528,1.528,0,0,1,.138.65v.567a.676.676,0,0,1-.152.484.783.783,0,0,1-.457.208L90.77,31.888a.5.5,0,0,1-.415-.055Z" transform="translate(-67.132 -7.447)" fill="#ffb30b"/>
          <path id="Trazado_115009" data-name="Trazado 115009" d="M90.462,36.151l-1.356-.775a1.328,1.328,0,0,1-.429-.4,2.043,2.043,0,0,1-.221-.471L81.342,10.879a1.054,1.054,0,0,1-.042-.291.323.323,0,0,1,.125-.291.31.31,0,0,1,.318.042l1.356.775a1.15,1.15,0,0,1,.415.4,2.307,2.307,0,0,1,.249.484l7.072,23.6a1.054,1.054,0,0,1,.042.291.323.323,0,0,1-.125.291.282.282,0,0,1-.291-.028Z" transform="translate(-70.449 -10.27)" fill="#ffb30b"/>
          <path id="Trazado_115010" data-name="Trazado 115010" d="M81.543,25.549a1.371,1.371,0,0,1-.415-.429L74.069,15.5a3.879,3.879,0,0,1-.457-.747,1.606,1.606,0,0,1-.152-.664v-.567a.739.739,0,0,1,.138-.5.884.884,0,0,1,.471-.235l7.058-1.439a.481.481,0,0,1,.415.028.881.881,0,0,1,.291.3.859.859,0,0,1,.125.443v1.841a.53.53,0,0,1-.125.415,1,1,0,0,1-.4.166l-5.038.955,5.038,6.782a4.951,4.951,0,0,1,.4.623,1.19,1.19,0,0,1,.125.54v1.868a.284.284,0,0,1-.125.277.289.289,0,0,1-.291-.042Z" transform="translate(-73.46 -9.869)" fill="#ffb30b"/>
        </g>
        <path id="Trazado_115011" data-name="Trazado 115011" d="M49.259,32.8c-.055.111-.028.235,0,0Z" transform="translate(-17.358 -1.619)" fill="url(#linear-gradient)"/>
        <path id="Trazado_115012" data-name="Trazado 115012" d="M50.24,89.587a3.8,3.8,0,0,0-1.716-.567v-.111c0-5.2-3.681-11.556-8.221-14.186-3.654-2.1-6.74-1.163-7.82,2.007a8.5,8.5,0,0,0-.858-.581c-2.989-1.73-5.425-.346-5.425,3.086a11.942,11.942,0,0,0,5.425,9.356c1.495.858,16.843,9.716,18.615,10.74,2.339,1.356,4.249.277,4.249-2.422A9.326,9.326,0,0,0,50.24,89.587Z" transform="translate(-26.2 14.047)" fill="#ffb30b"/>
      </g>
    </g>
  </g>
</svg>
