<svg id="Artboard_7" data-name="Artboard 7" xmlns="http://www.w3.org/2000/svg" width="104.24" height="145.654" viewBox="0 0 104.24 145.654">
  <path id="Trazado_114935" data-name="Trazado 114935" d="M2.861,3.225.69,1.963V.26A6.3,6.3,0,0,0,2.12.91,1.035,1.035,0,0,0,2.978.832,1.791,1.791,0,0,0,3.551,0l1.4.806V16.045L2.861,14.836V3.225Z" transform="translate(0.207)" fill="#ffb30b"/>
  <path id="Trazado_114936" data-name="Trazado 114936" d="M7.089,16.644a6.689,6.689,0,0,1-.819-3.3V5.319c0-1.222.273-2,.819-2.353s1.326-.234,2.353.364A6.108,6.108,0,0,1,11.8,5.683a6.654,6.654,0,0,1,.819,3.3v8.009c0,1.222-.273,2-.819,2.353S10.47,19.582,9.443,19a6.2,6.2,0,0,1-2.353-2.353Zm3.433-.7V7.62A2.272,2.272,0,0,0,9.443,5.488c-.715-.416-1.079-.13-1.079.884v8.321a2.251,2.251,0,0,0,1.079,2.119C10.158,17.229,10.522,16.93,10.522,15.942Z" transform="translate(1.882 0.831)" fill="#ffb30b"/>
  <path id="Trazado_114937" data-name="Trazado 114937" d="M13.369,20.261a6.654,6.654,0,0,1-.819-3.3V8.949c0-1.222.273-2,.819-2.353s1.326-.234,2.353.364a6.2,6.2,0,0,1,2.353,2.353,6.689,6.689,0,0,1,.819,3.3v8.009c0,1.222-.273,2-.819,2.353s-1.326.234-2.353-.364A6.108,6.108,0,0,1,13.369,20.261Zm3.433-.7V11.237a2.251,2.251,0,0,0-1.079-2.119c-.715-.416-1.079-.13-1.079.871v8.321a2.251,2.251,0,0,0,1.079,2.119C16.438,20.846,16.8,20.56,16.8,19.559Z" transform="translate(3.768 1.921)" fill="#ffb30b"/>
  <path id="Trazado_114938" data-name="Trazado 114938" d="M19.639,23.881a6.654,6.654,0,0,1-.819-3.3V12.569c0-1.222.273-2,.819-2.353s1.326-.234,2.353.364a6.108,6.108,0,0,1,2.353,2.353,6.689,6.689,0,0,1,.819,3.3v8.009c0,1.222-.273,2-.819,2.353s-1.326.234-2.353-.351a6.14,6.14,0,0,1-2.353-2.366Zm3.433-.689V14.87a2.272,2.272,0,0,0-1.079-2.132c-.715-.416-1.079-.13-1.079.871v8.321a2.251,2.251,0,0,0,1.079,2.119c.715.416,1.079.13,1.079-.871Z" transform="translate(5.65 3.008)" fill="#ffb30b"/>
  <path id="Trazado_114939" data-name="Trazado 114939" d="M27.964,17.715,25.78,16.453v-1.7a6.3,6.3,0,0,0,1.43.65,1.035,1.035,0,0,0,.858-.078,1.815,1.815,0,0,0,.572-.832l1.4.806V30.535l-2.093-1.209V17.7Z" transform="translate(7.74 4.35)" fill="#ffb30b"/>
  <path id="Trazado_114940" data-name="Trazado 114940" d="M32.189,31.121a6.654,6.654,0,0,1-.819-3.3V19.809c0-1.222.273-2,.819-2.353s1.326-.234,2.353.351A6.2,6.2,0,0,1,36.9,20.16a6.689,6.689,0,0,1,.819,3.3v8.009c0,1.222-.273,2-.819,2.353s-1.326.234-2.353-.364a6.108,6.108,0,0,1-2.353-2.353Zm3.433-.689V22.11a2.272,2.272,0,0,0-1.079-2.132c-.715-.416-1.079-.117-1.079.871v8.321a2.251,2.251,0,0,0,1.079,2.119c.715.416,1.079.13,1.079-.871Z" transform="translate(9.418 5.181)" fill="#ffb30b"/>
  <path id="Trazado_114941" data-name="Trazado 114941" d="M40.514,24.955,38.33,23.693v-1.7a6.3,6.3,0,0,0,1.43.65,1.035,1.035,0,0,0,.858-.078,1.723,1.723,0,0,0,.572-.832l1.4.806V37.775L40.5,36.566V24.942Z" transform="translate(11.508 6.524)" fill="#ffb30b"/>
  <path id="Trazado_114942" data-name="Trazado 114942" d="M44.739,38.374a6.654,6.654,0,0,1-.819-3.3V27.062c0-1.222.273-2,.819-2.366s1.326-.234,2.353.364a6.2,6.2,0,0,1,2.353,2.353,6.689,6.689,0,0,1,.819,3.3v8.009c0,1.222-.273,2-.819,2.353s-1.326.234-2.353-.364a6.108,6.108,0,0,1-2.353-2.353Zm3.433-.7V29.363a2.272,2.272,0,0,0-1.079-2.132c-.715-.416-1.079-.13-1.079.871v8.321a2.251,2.251,0,0,0,1.079,2.119c.715.416,1.079.13,1.079-.871Z" transform="translate(13.186 7.355)" fill="#ffb30b"/>
  <path id="Trazado_114943" data-name="Trazado 114943" d="M53.064,32.2,50.88,30.943v-1.7a6.3,6.3,0,0,0,1.43.65,1.035,1.035,0,0,0,.858-.078,1.815,1.815,0,0,0,.572-.832l1.4.806V45.025l-2.093-1.209V32.192Z" transform="translate(15.276 8.701)" fill="#ffb30b"/>
  <path id="Trazado_114944" data-name="Trazado 114944" d="M59.334,35.825,57.15,34.563v-1.7a6.3,6.3,0,0,0,1.43.65,1.073,1.073,0,0,0,.871-.078,1.815,1.815,0,0,0,.572-.832l1.4.806V48.645l-2.093-1.209V35.812Z" transform="translate(17.158 9.788)" fill="#ffb30b"/>
  <path id="Trazado_114945" data-name="Trazado 114945" d="M65.614,39.445,63.43,38.183v-1.7a6.3,6.3,0,0,0,1.43.65,1.035,1.035,0,0,0,.858-.078,1.891,1.891,0,0,0,.572-.832l1.4.806V52.265L65.6,51.056V39.432Z" transform="translate(19.044 10.874)" fill="#ffb30b"/>
  <path id="Trazado_114946" data-name="Trazado 114946" d="M69.829,52.861a6.689,6.689,0,0,1-.819-3.3V41.549c0-1.222.273-2,.819-2.353s1.326-.234,2.353.364a6.108,6.108,0,0,1,2.353,2.353,6.654,6.654,0,0,1,.819,3.3v8.009c0,1.222-.273,2-.819,2.353s-1.326.234-2.353-.351a6.2,6.2,0,0,1-2.353-2.353Zm3.433-.7V43.837A2.272,2.272,0,0,0,72.183,41.7c-.715-.416-1.079-.117-1.079.884v8.321a2.251,2.251,0,0,0,1.079,2.119c.715.416,1.079.117,1.079-.871Z" transform="translate(20.719 11.709)" fill="#ffb30b"/>
  <path id="Trazado_114947" data-name="Trazado 114947" d="M76.109,56.484a6.654,6.654,0,0,1-.819-3.3V45.172c0-1.222.273-2,.819-2.366s1.326-.234,2.353.364a6.2,6.2,0,0,1,2.353,2.353,6.689,6.689,0,0,1,.819,3.3v8.009c0,1.222-.273,2-.819,2.353s-1.326.234-2.353-.364a6.108,6.108,0,0,1-2.353-2.353Zm3.433-.7V47.473a2.272,2.272,0,0,0-1.079-2.132c-.715-.416-1.079-.117-1.079.871v8.321a2.251,2.251,0,0,0,1.079,2.119C79.178,57.069,79.542,56.783,79.542,55.782Z" transform="translate(22.604 12.792)" fill="#ffb30b"/>
  <path id="Trazado_114948" data-name="Trazado 114948" d="M2.864,17.345.68,16.083v-1.7a6.3,6.3,0,0,0,1.43.65,1.035,1.035,0,0,0,.858-.078,1.791,1.791,0,0,0,.572-.832l1.4.806V30.165L2.851,28.956V17.332Z" transform="translate(0.204 4.239)" fill="#ffb30b"/>
  <path id="Trazado_114949" data-name="Trazado 114949" d="M9.144,20.975,6.96,19.713v-1.7a5.771,5.771,0,0,0,1.43.65,1.035,1.035,0,0,0,.858-.078,1.723,1.723,0,0,0,.572-.832l1.4.806V33.795L9.131,32.586V20.962Z" transform="translate(2.09 5.329)" fill="#ffb30b"/>
  <path id="Trazado_114950" data-name="Trazado 114950" d="M13.369,34.384a6.654,6.654,0,0,1-.819-3.3V23.072c0-1.222.273-2,.819-2.366s1.326-.234,2.353.364a6.2,6.2,0,0,1,2.353,2.353,6.654,6.654,0,0,1,.819,3.3v8.009c0,1.222-.273,2-.819,2.353s-1.326.234-2.353-.351A6.2,6.2,0,0,1,13.369,34.384Zm3.433-.7V25.36a2.251,2.251,0,0,0-1.079-2.119c-.715-.416-1.079-.13-1.079.871v8.321a2.251,2.251,0,0,0,1.079,2.119C16.438,34.969,16.8,34.67,16.8,33.682Z" transform="translate(3.768 6.157)" fill="#ffb30b"/>
  <path id="Trazado_114951" data-name="Trazado 114951" d="M21.694,28.215,19.51,26.953v-1.7a6.3,6.3,0,0,0,1.43.65,1.035,1.035,0,0,0,.858-.078,1.815,1.815,0,0,0,.572-.832l1.4.806V41.035l-2.08-1.209V28.2Z" transform="translate(5.857 7.503)" fill="#ffb30b"/>
  <path id="Trazado_114952" data-name="Trazado 114952" d="M25.909,41.631a6.654,6.654,0,0,1-.819-3.3V30.319c0-1.222.273-2,.819-2.353s1.326-.234,2.353.364a6.2,6.2,0,0,1,2.353,2.353,6.654,6.654,0,0,1,.819,3.3v8.009c0,1.222-.273,2-.819,2.353s-1.326.234-2.353-.351a6.2,6.2,0,0,1-2.353-2.353Zm3.433-.7V32.607a2.251,2.251,0,0,0-1.079-2.119c-.715-.416-1.079-.13-1.079.871v8.321A2.251,2.251,0,0,0,28.263,41.8c.715.416,1.079.13,1.079-.871Z" transform="translate(7.533 8.337)" fill="#ffb30b"/>
  <path id="Trazado_114953" data-name="Trazado 114953" d="M34.234,35.465,32.05,34.2V32.5a6.3,6.3,0,0,0,1.43.65,1.035,1.035,0,0,0,.858-.078,1.791,1.791,0,0,0,.572-.832l1.4.806V48.285l-2.093-1.209V35.452Z" transform="translate(9.622 9.679)" fill="#ffb30b"/>
  <path id="Trazado_114954" data-name="Trazado 114954" d="M38.459,48.871a6.654,6.654,0,0,1-.819-3.3V37.559c0-1.222.273-2,.819-2.353s1.326-.234,2.353.364a6.108,6.108,0,0,1,2.353,2.353,6.654,6.654,0,0,1,.819,3.3v8.009c0,1.222-.273,2-.819,2.353s-1.326.234-2.353-.351A6.14,6.14,0,0,1,38.459,48.871Zm3.433-.689V39.86a2.272,2.272,0,0,0-1.079-2.132c-.715-.416-1.079-.117-1.079.884v8.321a2.251,2.251,0,0,0,1.079,2.119C41.528,49.469,41.892,49.183,41.892,48.182Z" transform="translate(11.301 10.511)" fill="#ffb30b"/>
  <path id="Trazado_114955" data-name="Trazado 114955" d="M46.784,42.7,44.6,41.443v-1.7a6.3,6.3,0,0,0,1.43.65,1.035,1.035,0,0,0,.858-.078,1.891,1.891,0,0,0,.572-.832l1.4.806V55.525l-2.08-1.209V42.692Z" transform="translate(13.39 11.853)" fill="#ffb30b"/>
  <path id="Trazado_114956" data-name="Trazado 114956" d="M53.064,46.325,50.88,45.063v-1.7a6.3,6.3,0,0,0,1.43.65,1.035,1.035,0,0,0,.858-.078,1.815,1.815,0,0,0,.572-.832l1.4.806V59.145l-2.093-1.209V46.312Z" transform="translate(15.276 12.94)" fill="#ffb30b"/>
  <path id="Trazado_114957" data-name="Trazado 114957" d="M59.334,49.945,57.15,48.683v-1.7a6.3,6.3,0,0,0,1.43.65,1.073,1.073,0,0,0,.871-.078,1.815,1.815,0,0,0,.572-.832l1.4.806V62.765l-2.093-1.209V49.932Z" transform="translate(17.158 14.027)" fill="#ffb30b"/>
  <path id="Trazado_114958" data-name="Trazado 114958" d="M63.559,63.361a6.654,6.654,0,0,1-.819-3.3V52.049c0-1.222.273-2,.819-2.353s1.326-.234,2.353.351A6.2,6.2,0,0,1,68.266,52.4a6.689,6.689,0,0,1,.819,3.3v8.009c0,1.222-.273,2-.819,2.353s-1.326.234-2.353-.364a6.108,6.108,0,0,1-2.353-2.353Zm3.433-.689V54.35a2.272,2.272,0,0,0-1.079-2.132c-.715-.416-1.079-.13-1.079.871v8.321a2.251,2.251,0,0,0,1.079,2.119c.715.416,1.079.13,1.079-.871Z" transform="translate(18.836 14.861)" fill="#ffb30b"/>
  <path id="Trazado_114959" data-name="Trazado 114959" d="M69.829,66.981a6.654,6.654,0,0,1-.819-3.3V55.669c0-1.222.273-2,.819-2.353s1.326-.234,2.353.364a6.108,6.108,0,0,1,2.353,2.353,6.654,6.654,0,0,1,.819,3.3v8.009c0,1.222-.273,2-.819,2.353s-1.326.234-2.353-.351A6.14,6.14,0,0,1,69.829,66.981Zm3.433-.689V57.97a2.272,2.272,0,0,0-1.079-2.132c-.715-.416-1.079-.13-1.079.884v8.321a2.251,2.251,0,0,0,1.079,2.119c.715.416,1.079.117,1.079-.871Z" transform="translate(20.719 15.948)" fill="#ffb30b"/>
  <path id="Trazado_114960" data-name="Trazado 114960" d="M78.154,60.815,75.97,59.553v-1.7a6.3,6.3,0,0,0,1.43.65,1.035,1.035,0,0,0,.858-.078,1.791,1.791,0,0,0,.572-.832l1.4.806V73.635l-2.093-1.209V60.8Z" transform="translate(22.808 17.29)" fill="#ffb30b"/>
  <path id="Trazado_114961" data-name="Trazado 114961" d="M.819,41.271A6.689,6.689,0,0,1,0,37.968V29.959c0-1.222.273-2,.819-2.353s1.326-.234,2.353.364a6.108,6.108,0,0,1,2.353,2.353,6.654,6.654,0,0,1,.819,3.3v8.009c0,1.222-.273,2-.819,2.353s-1.326.234-2.353-.351A6.2,6.2,0,0,1,.819,41.284Zm3.433-.7V32.247a2.272,2.272,0,0,0-1.079-2.132c-.715-.416-1.079-.13-1.079.884v8.321A2.251,2.251,0,0,0,3.173,41.44c.715.416,1.079.117,1.079-.871Z" transform="translate(0 8.229)" fill="#ffb30b"/>
  <path id="Trazado_114962" data-name="Trazado 114962" d="M7.089,44.894a6.654,6.654,0,0,1-.819-3.3V33.582c0-1.222.273-2,.819-2.366s1.326-.234,2.353.364A6.2,6.2,0,0,1,11.8,33.933a6.689,6.689,0,0,1,.819,3.3v8.009c0,1.222-.273,2-.819,2.353s-1.326.234-2.353-.364a6.108,6.108,0,0,1-2.353-2.353Zm3.433-.7V35.883a2.272,2.272,0,0,0-1.079-2.132c-.715-.416-1.079-.117-1.079.871v8.321a2.251,2.251,0,0,0,1.079,2.119c.715.416,1.079.13,1.079-.871Z" transform="translate(1.882 9.313)" fill="#ffb30b"/>
  <path id="Trazado_114963" data-name="Trazado 114963" d="M15.414,38.725,13.23,37.463v-1.7a6.3,6.3,0,0,0,1.43.65,1.035,1.035,0,0,0,.858-.078,1.723,1.723,0,0,0,.572-.832l1.4.806V51.545L15.4,50.336V38.712Z" transform="translate(3.972 10.658)" fill="#ffb30b"/>
  <path id="Trazado_114964" data-name="Trazado 114964" d="M19.639,52.134a6.654,6.654,0,0,1-.819-3.3V40.822c0-1.222.273-2,.819-2.366s1.326-.234,2.353.364a6.2,6.2,0,0,1,2.353,2.353,6.654,6.654,0,0,1,.819,3.3v8.009c0,1.222-.273,2-.819,2.353s-1.326.234-2.353-.351A6.2,6.2,0,0,1,19.639,52.134Zm3.433-.7V43.11a2.251,2.251,0,0,0-1.079-2.119c-.715-.416-1.079-.13-1.079.871v8.321A2.251,2.251,0,0,0,21.993,52.3C22.708,52.719,23.072,52.42,23.072,51.432Z" transform="translate(5.65 11.486)" fill="#ffb30b"/>
  <path id="Trazado_114965" data-name="Trazado 114965" d="M27.964,45.965,25.78,44.7V43a6.3,6.3,0,0,0,1.43.65,1.035,1.035,0,0,0,.858-.078,1.891,1.891,0,0,0,.572-.832l1.4.806V58.785l-2.093-1.209V45.952Z" transform="translate(7.74 12.832)" fill="#ffb30b"/>
  <path id="Trazado_114966" data-name="Trazado 114966" d="M34.234,49.585,32.05,48.323v-1.7a5.771,5.771,0,0,0,1.43.65,1.035,1.035,0,0,0,.858-.078,1.723,1.723,0,0,0,.572-.832l1.4.806V62.4L34.221,61.2V49.572Z" transform="translate(9.622 13.919)" fill="#ffb30b"/>
  <path id="Trazado_114967" data-name="Trazado 114967" d="M40.514,53.2,38.33,51.943v-1.7a6.3,6.3,0,0,0,1.43.65,1.035,1.035,0,0,0,.858-.078,1.791,1.791,0,0,0,.572-.832l1.4.806V66.025L40.5,64.816V53.192Z" transform="translate(11.508 15.006)" fill="#ffb30b"/>
  <path id="Trazado_114968" data-name="Trazado 114968" d="M44.739,66.621a6.654,6.654,0,0,1-.819-3.3V55.309c0-1.222.273-2,.819-2.353s1.326-.234,2.353.364a6.108,6.108,0,0,1,2.353,2.353,6.654,6.654,0,0,1,.819,3.3v8.009c0,1.222-.273,2-.819,2.353s-1.326.234-2.353-.351A6.14,6.14,0,0,1,44.739,66.621Zm3.433-.689V57.61a2.272,2.272,0,0,0-1.079-2.132c-.715-.416-1.079-.117-1.079.884v8.321A2.251,2.251,0,0,0,47.093,66.8c.715.416,1.079.117,1.079-.871Z" transform="translate(13.186 15.84)" fill="#ffb30b"/>
  <path id="Trazado_114969" data-name="Trazado 114969" d="M51.009,70.254a6.654,6.654,0,0,1-.819-3.3V58.942c0-1.222.273-2,.819-2.366s1.326-.234,2.353.364a6.2,6.2,0,0,1,2.353,2.353,6.654,6.654,0,0,1,.819,3.3V70.6c0,1.222-.273,2-.819,2.353s-1.326.234-2.353-.351a6.2,6.2,0,0,1-2.353-2.353Zm3.433-.7V61.23a2.251,2.251,0,0,0-1.079-2.119c-.715-.416-1.079-.117-1.079.871V68.3a2.251,2.251,0,0,0,1.079,2.119c.715.416,1.079.13,1.079-.871Z" transform="translate(15.069 16.927)" fill="#ffb30b"/>
  <path id="Trazado_114970" data-name="Trazado 114970" d="M59.334,64.075,57.15,62.813v-1.7a6.3,6.3,0,0,0,1.43.65,1.073,1.073,0,0,0,.871-.078,1.89,1.89,0,0,0,.572-.832l1.4.806V76.895l-2.093-1.209V64.062Z" transform="translate(17.158 18.269)" fill="#ffb30b"/>
  <path id="Trazado_114971" data-name="Trazado 114971" d="M63.559,77.491a6.689,6.689,0,0,1-.819-3.3V66.179c0-1.222.273-2,.819-2.353s1.326-.234,2.353.364a6.108,6.108,0,0,1,2.353,2.353,6.654,6.654,0,0,1,.819,3.3v8.009c0,1.222-.273,2-.819,2.353s-1.326.234-2.353-.351A6.2,6.2,0,0,1,63.559,77.5Zm3.433-.7V68.467a2.272,2.272,0,0,0-1.079-2.132c-.715-.416-1.079-.117-1.079.884v8.321a2.251,2.251,0,0,0,1.079,2.119C66.628,78.076,66.992,77.777,66.992,76.789Z" transform="translate(18.836 19.103)" fill="#ffb30b"/>
  <path id="Trazado_114972" data-name="Trazado 114972" d="M71.884,71.325,69.7,70.063v-1.7a6.3,6.3,0,0,0,1.43.65,1.035,1.035,0,0,0,.858-.078,1.791,1.791,0,0,0,.572-.832l1.4.806V84.145l-2.093-1.209V71.312Z" transform="translate(20.926 20.446)" fill="#ffb30b"/>
  <path id="Trazado_114973" data-name="Trazado 114973" d="M76.109,84.731a6.654,6.654,0,0,1-.819-3.3V73.419c0-1.222.273-2,.819-2.353s1.326-.234,2.353.364a6.108,6.108,0,0,1,2.353,2.353,6.654,6.654,0,0,1,.819,3.3v8.009c0,1.222-.273,2-.819,2.353s-1.326.234-2.353-.351A6.14,6.14,0,0,1,76.109,84.731Zm3.433-.689V75.72a2.272,2.272,0,0,0-1.079-2.132c-.715-.416-1.079-.13-1.079.884v8.321a2.251,2.251,0,0,0,1.079,2.119C79.178,85.329,79.542,85.043,79.542,84.042Z" transform="translate(22.604 21.277)" fill="#ffb30b"/>
  <path id="Trazado_114974" data-name="Trazado 114974" d="M2.864,45.6.68,44.343v-1.7a6.3,6.3,0,0,0,1.43.65,1.035,1.035,0,0,0,.858-.078,1.723,1.723,0,0,0,.572-.832l1.4.806V58.425L2.851,57.216V45.592Z" transform="translate(0.204 12.724)" fill="#ffb30b"/>
  <path id="Trazado_114975" data-name="Trazado 114975" d="M9.144,49.225,6.96,47.963v-1.7a6.3,6.3,0,0,0,1.43.65,1.035,1.035,0,0,0,.858-.078A1.791,1.791,0,0,0,9.821,46l1.4.806V62.045L9.131,60.836V49.212Z" transform="translate(2.09 13.811)" fill="#ffb30b"/>
  <path id="Trazado_114976" data-name="Trazado 114976" d="M13.369,62.641a6.654,6.654,0,0,1-.819-3.3V51.329c0-1.222.273-2,.819-2.353s1.326-.234,2.353.364a6.108,6.108,0,0,1,2.353,2.353A6.654,6.654,0,0,1,18.9,55V63c0,1.222-.273,2-.819,2.353s-1.326.234-2.353-.351A6.14,6.14,0,0,1,13.369,62.641Zm3.433-.689V53.63A2.272,2.272,0,0,0,15.723,51.5c-.715-.416-1.079-.117-1.079.884v8.308a2.286,2.286,0,0,0,1.079,2.132C16.438,63.239,16.8,62.953,16.8,61.952Z" transform="translate(3.768 14.645)" fill="#ffb30b"/>
  <path id="Trazado_114977" data-name="Trazado 114977" d="M19.639,66.261a6.654,6.654,0,0,1-.819-3.3V54.949c0-1.222.273-2,.819-2.353s1.326-.234,2.353.364a6.2,6.2,0,0,1,2.353,2.353,6.689,6.689,0,0,1,.819,3.3v8.009c0,1.222-.273,2-.819,2.353s-1.326.234-2.353-.364A6.108,6.108,0,0,1,19.639,66.261Zm3.433-.7V57.237a2.251,2.251,0,0,0-1.079-2.119c-.715-.416-1.079-.13-1.079.871v8.321a2.251,2.251,0,0,0,1.079,2.119C22.708,66.846,23.072,66.56,23.072,65.559Z" transform="translate(5.65 15.732)" fill="#ffb30b"/>
  <path id="Trazado_114978" data-name="Trazado 114978" d="M25.909,69.881a6.654,6.654,0,0,1-.819-3.3V58.569c0-1.222.273-2,.819-2.353s1.326-.234,2.353.351a6.2,6.2,0,0,1,2.353,2.353,6.689,6.689,0,0,1,.819,3.3v8.009c0,1.222-.273,2-.819,2.353s-1.326.234-2.353-.364a6.108,6.108,0,0,1-2.353-2.353Zm3.433-.689V60.87a2.272,2.272,0,0,0-1.079-2.132c-.715-.416-1.079-.13-1.079.871v8.321a2.251,2.251,0,0,0,1.079,2.119c.715.416,1.079.13,1.079-.871Z" transform="translate(7.533 16.818)" fill="#ffb30b"/>
  <path id="Trazado_114979" data-name="Trazado 114979" d="M32.189,73.5a6.654,6.654,0,0,1-.819-3.3V62.189c0-1.222.273-2,.819-2.353s1.326-.234,2.353.364A6.2,6.2,0,0,1,36.9,62.553a6.654,6.654,0,0,1,.819,3.3v8.009c0,1.222-.273,2-.819,2.353s-1.326.234-2.353-.351a6.2,6.2,0,0,1-2.353-2.353Zm3.433-.7V64.477a2.286,2.286,0,0,0-1.079-2.132c-.715-.416-1.079-.117-1.079.884v8.321a2.251,2.251,0,0,0,1.079,2.119C35.258,74.086,35.622,73.8,35.622,72.8Z" transform="translate(9.418 17.905)" fill="#ffb30b"/>
  <path id="Trazado_114980" data-name="Trazado 114980" d="M40.514,67.335,38.33,66.073v-1.7a6.3,6.3,0,0,0,1.43.65,1.035,1.035,0,0,0,.858-.078,1.791,1.791,0,0,0,.572-.832l1.4.806V80.155L40.5,78.946V67.322Z" transform="translate(11.508 19.248)" fill="#ffb30b"/>
  <path id="Trazado_114981" data-name="Trazado 114981" d="M44.739,80.751a6.689,6.689,0,0,1-.819-3.3V69.439c0-1.222.273-2,.819-2.353s1.326-.234,2.353.364A6.108,6.108,0,0,1,49.446,69.8a6.654,6.654,0,0,1,.819,3.3v8.009c0,1.222-.273,2-.819,2.353s-1.326.234-2.353-.351a6.2,6.2,0,0,1-2.353-2.353Zm3.433-.7V71.727a2.272,2.272,0,0,0-1.079-2.132c-.715-.416-1.079-.13-1.079.884V78.8a2.251,2.251,0,0,0,1.079,2.119C47.808,81.336,48.172,81.05,48.172,80.049Z" transform="translate(13.186 20.082)" fill="#ffb30b"/>
  <path id="Trazado_114982" data-name="Trazado 114982" d="M53.064,74.575,50.88,73.313v-1.7a6.3,6.3,0,0,0,1.43.65,1.035,1.035,0,0,0,.858-.078,1.815,1.815,0,0,0,.572-.832l1.4.806V87.395l-2.093-1.209V74.562Z" transform="translate(15.276 21.421)" fill="#ffb30b"/>
  <path id="Trazado_114983" data-name="Trazado 114983" d="M57.289,87.991a6.654,6.654,0,0,1-.819-3.3V76.679c0-1.222.273-2,.819-2.353s1.326-.234,2.353.351A6.2,6.2,0,0,1,62,77.03a6.689,6.689,0,0,1,.819,3.3v8.009c0,1.222-.273,2-.819,2.353s-1.326.234-2.353-.364a6.108,6.108,0,0,1-2.353-2.353Zm3.433-.689V78.98a2.272,2.272,0,0,0-1.079-2.132c-.715-.416-1.079-.13-1.079.871v8.321a2.251,2.251,0,0,0,1.079,2.119c.715.416,1.079.13,1.079-.871Z" transform="translate(16.954 22.256)" fill="#ffb30b"/>
  <path id="Trazado_114984" data-name="Trazado 114984" d="M65.614,81.825,63.43,80.563v-1.7a6.3,6.3,0,0,0,1.43.65,1.035,1.035,0,0,0,.858-.078,1.815,1.815,0,0,0,.572-.832l1.4.806V94.645L65.6,93.436V81.812Z" transform="translate(19.044 23.598)" fill="#ffb30b"/>
  <path id="Trazado_114985" data-name="Trazado 114985" d="M71.884,85.445,69.7,84.183v-1.7a6.3,6.3,0,0,0,1.43.65,1.035,1.035,0,0,0,.858-.078,1.791,1.791,0,0,0,.572-.832l1.4.806V98.265l-2.093-1.209V85.432Z" transform="translate(20.926 24.685)" fill="#ffb30b"/>
  <path id="Trazado_114986" data-name="Trazado 114986" d="M76.109,98.861a6.689,6.689,0,0,1-.819-3.3V87.549c0-1.222.273-2,.819-2.353s1.326-.234,2.353.364a6.108,6.108,0,0,1,2.353,2.353,6.654,6.654,0,0,1,.819,3.3v8.009c0,1.222-.273,2-.819,2.353s-1.326.234-2.353-.351a6.2,6.2,0,0,1-2.353-2.353Zm3.433-.7V89.837A2.272,2.272,0,0,0,78.463,87.7c-.715-.416-1.079-.13-1.079.884v8.321a2.251,2.251,0,0,0,1.079,2.119C79.178,99.446,79.542,99.147,79.542,98.159Z" transform="translate(22.604 25.519)" fill="#ffb30b"/>
  <path id="Trazado_114987" data-name="Trazado 114987" d="M2.864,59.725.68,58.463v-1.7a6.3,6.3,0,0,0,1.43.65,1.035,1.035,0,0,0,.858-.078,1.791,1.791,0,0,0,.572-.832l1.4.806V72.545L2.851,71.336V59.712Z" transform="translate(0.204 16.963)" fill="#ffb30b"/>
  <path id="Trazado_114988" data-name="Trazado 114988" d="M7.089,73.141a6.654,6.654,0,0,1-.819-3.3V61.829c0-1.222.273-2,.819-2.353s1.326-.234,2.353.364A6.108,6.108,0,0,1,11.8,62.193a6.654,6.654,0,0,1,.819,3.3V73.5c0,1.222-.273,2-.819,2.353s-1.326.234-2.353-.351a6.14,6.14,0,0,1-2.353-2.366Zm3.433-.689V64.13A2.272,2.272,0,0,0,9.443,62c-.715-.416-1.079-.13-1.079.884V71.2a2.251,2.251,0,0,0,1.079,2.119C10.158,73.739,10.522,73.453,10.522,72.452Z" transform="translate(1.882 17.797)" fill="#ffb30b"/>
  <path id="Trazado_114989" data-name="Trazado 114989" d="M13.369,76.764a6.654,6.654,0,0,1-.819-3.3V65.452c0-1.222.273-2,.819-2.366s1.326-.234,2.353.364A6.2,6.2,0,0,1,18.076,65.8a6.654,6.654,0,0,1,.819,3.3v8.009c0,1.222-.273,2-.819,2.353s-1.326.234-2.353-.351a6.2,6.2,0,0,1-2.353-2.353Zm3.433-.7V67.74a2.251,2.251,0,0,0-1.079-2.119c-.715-.416-1.079-.13-1.079.871v8.321a2.251,2.251,0,0,0,1.079,2.119C16.438,77.349,16.8,77.063,16.8,76.062Z" transform="translate(3.768 18.881)" fill="#ffb30b"/>
  <path id="Trazado_114990" data-name="Trazado 114990" d="M19.639,80.391a6.654,6.654,0,0,1-.819-3.3V69.079c0-1.222.273-2,.819-2.353s1.326-.234,2.353.364a6.108,6.108,0,0,1,2.353,2.353,6.654,6.654,0,0,1,.819,3.3v8.009c0,1.222-.273,2-.819,2.353s-1.326.234-2.353-.351A6.14,6.14,0,0,1,19.639,80.391Zm3.433-.689V71.38a2.272,2.272,0,0,0-1.079-2.132c-.715-.416-1.079-.13-1.079.884v8.308a2.286,2.286,0,0,0,1.079,2.132C22.708,80.989,23.072,80.7,23.072,79.7Z" transform="translate(5.65 19.974)" fill="#ffb30b"/>
  <path id="Trazado_114991" data-name="Trazado 114991" d="M27.964,74.215,25.78,72.953v-1.7a6.3,6.3,0,0,0,1.43.65,1.035,1.035,0,0,0,.858-.078,1.815,1.815,0,0,0,.572-.832l1.4.806V87.035l-2.093-1.209V74.2Z" transform="translate(7.74 21.313)" fill="#ffb30b"/>
  <path id="Trazado_114992" data-name="Trazado 114992" d="M32.189,87.631a6.654,6.654,0,0,1-.819-3.3V76.319c0-1.222.273-2,.819-2.353s1.326-.234,2.353.351A6.2,6.2,0,0,1,36.9,76.67a6.689,6.689,0,0,1,.819,3.3v8.009c0,1.222-.273,2-.819,2.353s-1.326.234-2.353-.364a6.108,6.108,0,0,1-2.353-2.353Zm3.433-.689V78.62a2.272,2.272,0,0,0-1.079-2.132c-.715-.416-1.079-.13-1.079.871v8.321A2.251,2.251,0,0,0,34.543,87.8c.715.416,1.079.13,1.079-.871Z" transform="translate(9.418 22.147)" fill="#ffb30b"/>
  <path id="Trazado_114993" data-name="Trazado 114993" d="M40.514,81.465,38.33,80.2V78.5a5.771,5.771,0,0,0,1.43.65,1.035,1.035,0,0,0,.858-.078,1.723,1.723,0,0,0,.572-.832l1.4.806V94.285L40.5,93.076V81.452Z" transform="translate(11.508 23.49)" fill="#ffb30b"/>
  <path id="Trazado_114994" data-name="Trazado 114994" d="M44.739,94.881a6.654,6.654,0,0,1-.819-3.3V83.569c0-1.222.273-2,.819-2.353s1.326-.234,2.353.351a6.2,6.2,0,0,1,2.353,2.353,6.689,6.689,0,0,1,.819,3.3v8.009c0,1.222-.273,2-.819,2.353s-1.326.234-2.353-.364a6.108,6.108,0,0,1-2.353-2.353Zm3.433-.689V85.87a2.251,2.251,0,0,0-1.079-2.119c-.715-.416-1.079-.13-1.079.871v8.321a2.251,2.251,0,0,0,1.079,2.119C47.808,95.479,48.172,95.193,48.172,94.192Z" transform="translate(13.186 24.324)" fill="#ffb30b"/>
  <path id="Trazado_114995" data-name="Trazado 114995" d="M53.064,88.7,50.88,87.443v-1.7a6.3,6.3,0,0,0,1.43.65,1.035,1.035,0,0,0,.858-.078,1.815,1.815,0,0,0,.572-.832l1.4.806v15.239l-2.093-1.209V88.692Z" transform="translate(15.276 25.664)" fill="#ffb30b"/>
  <path id="Trazado_114996" data-name="Trazado 114996" d="M59.334,92.325,57.15,91.063v-1.7a6.3,6.3,0,0,0,1.43.65,1.073,1.073,0,0,0,.871-.078,1.815,1.815,0,0,0,.572-.832l1.4.806v15.239l-2.093-1.209V92.312Z" transform="translate(17.158 26.751)" fill="#ffb30b"/>
  <path id="Trazado_114997" data-name="Trazado 114997" d="M65.614,95.955,63.43,94.693v-1.7a6.3,6.3,0,0,0,1.43.65,1.035,1.035,0,0,0,.858-.078,1.891,1.891,0,0,0,.572-.832l1.4.806v15.239L65.6,107.566V95.942Z" transform="translate(19.044 27.84)" fill="#ffb30b"/>
  <path id="Trazado_114998" data-name="Trazado 114998" d="M69.829,109.361a6.654,6.654,0,0,1-.819-3.3V98.049c0-1.222.273-2,.819-2.353s1.326-.234,2.353.364a6.108,6.108,0,0,1,2.353,2.353,6.654,6.654,0,0,1,.819,3.3v8.009c0,1.222-.273,2-.819,2.353s-1.326.234-2.353-.351A6.14,6.14,0,0,1,69.829,109.361Zm3.433-.689V100.35a2.272,2.272,0,0,0-1.079-2.132C71.467,97.8,71.1,98.1,71.1,99.1v8.321a2.251,2.251,0,0,0,1.079,2.119C72.9,109.959,73.262,109.66,73.262,108.672Z" transform="translate(20.719 28.672)" fill="#ffb30b"/>
  <path id="Trazado_114999" data-name="Trazado 114999" d="M76.109,112.991a6.654,6.654,0,0,1-.819-3.3v-8.009c0-1.222.273-2,.819-2.353s1.326-.234,2.353.351a6.2,6.2,0,0,1,2.353,2.353,6.689,6.689,0,0,1,.819,3.3v8.009c0,1.222-.273,2-.819,2.353s-1.326.234-2.353-.364a6.108,6.108,0,0,1-2.353-2.353Zm3.433-.689V103.98a2.251,2.251,0,0,0-1.079-2.119c-.715-.416-1.079-.117-1.079.871v8.321a2.251,2.251,0,0,0,1.079,2.119C79.178,113.589,79.542,113.29,79.542,112.3Z" transform="translate(22.604 29.761)" fill="#ffb30b"/>
</svg>
