<svg xmlns="http://www.w3.org/2000/svg" width="252.02" height="410.641" viewBox="0 0 252.02 410.641">
  <g id="_1_1_D" data-name="1_1_D" transform="translate(-69.506 -2.419)">
    <g id="Layer_1" transform="translate(69.506 2.419)">
      <g id="Grupo_112175" data-name="Grupo 112175">
        <ellipse id="Elipse_4718" data-name="Elipse 4718" cx="30.009" cy="51.987" rx="30.009" ry="51.987" transform="matrix(0.005, -1, 1, 0.005, 2.142, 410.078)" fill="#f2f2f2" opacity="0.49"/>
        <g id="Grupo_112172" data-name="Grupo 112172" transform="translate(82.423)">
          <g id="Grupo_112158" data-name="Grupo 112158" transform="translate(33.462)">
            <path id="Trazado_116335" data-name="Trazado 116335" d="M287.564,351.682l-115.1-66.436c-2.46-1.419-2.151-3.913.686-5.549l6.533-3.775c2.849-1.647,7.15-1.819,9.61-.4l115.1,66.436c2.46,1.419,2.151,3.9-.686,5.549l-6.533,3.775C294.326,352.929,290.024,353.1,287.564,351.682Z" transform="translate(-170.798 36.789)" fill="#f2f2f2" opacity="0.53"/>
            <path id="Trazado_116336" data-name="Trazado 116336" d="M298.056,64.5,192.138,3.347c-1.991-1.144-3.787-1.178-5.183-.389L176.51,9l12.3,9.564,3.009-.767V268.806c0,5.892,3.581,12.722,8,15.273L292.69,352.06v4.187l10.811-6.315v-.046c1.567-1.041,2.563-3.215,2.563-6.3V79.771c0-5.892-3.581-12.722-8-15.273Z" transform="translate(-169.976 -2.419)" fill="#999"/>
            <path id="Trazado_116337" data-name="Trazado 116337" d="M281.865,86.909V75.068l-10.411,7.825L225.931,63.811l-34.1-24.826V17.8l-3.02.755L176.53,9l10.445-6.041c1.407-.778,3.181-.755,5.183.378L298.076,64.508c2.917,1.67,5.446,5.206,6.83,9.1L281.887,86.909Z" transform="translate(-169.973 -2.418)" fill="#e6e6e6"/>
            <g id="Grupo_112156" data-name="Grupo 112156" transform="translate(3.651 6.099)">
              <path id="Trazado_116338" data-name="Trazado 116338" d="M287.905,355,181.987,293.848c-4.416-2.551-8-9.393-8-15.273V14.752c0-5.892,3.581-8.592,8-6.041L287.905,69.862c4.416,2.551,8,9.393,8,15.273V348.958C295.9,354.85,292.321,357.55,287.905,355Z" transform="translate(-173.99 -7.75)" fill="#ccc"/>
              <path id="Trazado_116339" data-name="Trazado 116339" d="M176.04,279.748V15.5c0-4.29,2.608-6.258,5.823-4.4L287.45,72.054c3.215,1.853,5.823,6.842,5.823,11.132V347.432c0,4.29-2.608,6.258-5.823,4.4L181.863,290.88c-3.215-1.853-5.823-6.842-5.823-11.132Z" transform="translate(-173.695 -7.368)" fill="#333"/>
              <path id="Trazado_116340" data-name="Trazado 116340" d="M289.785,85.089V341.052c0,3.81-2.689,5.309-5.983,3.409l-99.065-57.192a13.228,13.228,0,0,1-6.006-10.354V20.975c0-3.81,2.689-5.343,6.006-3.421L202.836,28a3.781,3.781,0,0,1,1.625,2.345l.835,3.821a15.14,15.14,0,0,0,6.876,9.679l44.173,25.5c3.364,1.945,6.258,1.2,6.876-1.75l.835-2.86c.206-.709.869-.9,1.625-.469L283.8,74.724a13.209,13.209,0,0,1,5.983,10.342Z" transform="translate(-173.307 -6.456)" fill="#80c5ff"/>
              <path id="Trazado_116341" data-name="Trazado 116341" d="M264.778,136.682a6.861,6.861,0,0,1,3.123,5.423l-.034,10.834c0,1.991-1.407,2.8-3.146,1.8l-63.507-36.667a6.878,6.878,0,0,1-3.123-5.423l.034-10.834c0-2,1.407-2.8,3.146-1.8l63.507,36.667Z" transform="translate(-170.518 5.48)" fill="#57b2ff"/>
              <path id="Trazado_116342" data-name="Trazado 116342" d="M264.778,169.811a6.878,6.878,0,0,1,3.123,5.423l-.034,10.846c0,1.991-1.407,2.792-3.146,1.8l-63.507-36.667a6.857,6.857,0,0,1-3.123-5.411l.034-10.846c0-1.991,1.407-2.8,3.146-1.8l63.507,36.667Z" transform="translate(-170.518 10.255)" fill="#57b2ff"/>
              <g id="Grupo_112153" data-name="Grupo 112153" transform="translate(0 169.357)">
                <path id="Trazado_116343" data-name="Trazado 116343" d="M179.424,158.915v18.339l-5.434-3.135V155.78Z" transform="translate(-173.99 -155.78)" fill="#b3b3b3"/>
                <path id="Trazado_116344" data-name="Trazado 116344" d="M270.712,216.444l-.023,8.649c-.023,2.654-1.911,3.741-4.233,2.414L178.74,176.859V158.52L266.5,209.168A9.29,9.29,0,0,1,270.712,216.444Z" transform="translate(-173.306 -155.385)" fill="#57b2ff"/>
              </g>
              <path id="Trazado_116345" data-name="Trazado 116345" d="M218.166,223.461a6.668,6.668,0,0,1,3.02,5.228l-.08,29.7c0,1.922-1.373,2.689-3.043,1.728L192.219,245.2a6.6,6.6,0,0,1-3.009-5.217l.08-29.7c0-1.922,1.361-2.7,3.032-1.739l25.845,14.919Z" transform="translate(-171.797 21.119)" fill="#57b2ff"/>
              <path id="Trazado_116346" data-name="Trazado 116346" d="M260.128,247.641a6.625,6.625,0,0,1,3.009,5.228l-.08,29.7c0,1.922-1.361,2.689-3.032,1.728L234.18,269.379a6.668,6.668,0,0,1-3.02-5.228l.08-29.7c0-1.922,1.373-2.7,3.043-1.728l25.845,14.919Z" transform="translate(-165.754 24.602)" fill="#57b2ff"/>
              <path id="Trazado_116347" data-name="Trazado 116347" d="M264.722,85.668a10.751,10.751,0,0,1,4.874,8.443l-.069,25.421c0,3.1-2.208,4.347-4.9,2.792L191.284,79.97a10.748,10.748,0,0,1-4.874-8.432l.069-25.421c0-3.1,2.208-4.359,4.9-2.8Z" transform="translate(-172.201 -2.722)" fill="#57b2ff"/>
              <g id="Grupo_112154" data-name="Grupo 112154" transform="translate(0 90.004)">
                <path id="Trazado_116348" data-name="Trazado 116348" d="M179.424,89.555v49.8l-5.434-3.146V86.42Z" transform="translate(-173.99 -86.42)" fill="#b3b3b3"/>
                <path id="Trazado_116349" data-name="Trazado 116349" d="M186.863,98.7l-.126,40.042c0,2.654-1.888,3.718-4.233,2.391l-3.764-2.174V89.16l3.913,2.277a9.265,9.265,0,0,1,4.21,7.276Z" transform="translate(-173.306 -86.025)" fill="#57b2ff"/>
              </g>
              <g id="Grupo_112155" data-name="Grupo 112155" transform="translate(36.473 27.701)">
                <path id="Trazado_116350" data-name="Trazado 116350" d="M212.3,37.943c0,2.036-1.442,2.86-3.215,1.831a7.084,7.084,0,0,1-3.215-5.537c0-2.036,1.442-2.86,3.215-1.831A7.084,7.084,0,0,1,212.3,37.943Z" transform="translate(-205.87 -31.962)" fill="#666"/>
                <path id="Trazado_116351" data-name="Trazado 116351" d="M210.674,36.872c0,1.121-.789,1.567-1.762,1.007a3.88,3.88,0,0,1-1.762-3.032c0-1.11.789-1.567,1.762-1.007A3.88,3.88,0,0,1,210.674,36.872Z" transform="translate(-205.686 -31.726)" fill="#333"/>
              </g>
              <path id="Trazado_116352" data-name="Trazado 116352" d="M244.836,52.9,213.408,34.759a2.25,2.25,0,0,1-.938-1.8v-1.27c0-.686.423-1.007.938-.709l31.428,18.145a2.25,2.25,0,0,1,.938,1.8V52.2c0,.686-.423,1.007-.938.709Z" transform="translate(-168.446 -4.418)"/>
            </g>
            <g id="Grupo_112157" data-name="Grupo 112157" transform="translate(127.28 117.78)">
              <path id="Trazado_116353" data-name="Trazado 116353" d="M287.908,105.6a2.408,2.408,0,0,0-2.437.24,7.54,7.54,0,0,0-3.421,5.915l.092,31.359a2.4,2.4,0,0,0,1.007,2.2l1.9,1.11a2.414,2.414,0,0,1-1.007-2.2l-.091-31.359a7.522,7.522,0,0,1,3.421-5.915,2.408,2.408,0,0,1,2.437-.24Z" transform="translate(-282.05 -105.367)" fill="#e6e6e6"/>
              <path id="Trazado_116354" data-name="Trazado 116354" d="M287.131,106.8c1.9-1.1,3.432-.217,3.444,1.956l.092,31.359a7.54,7.54,0,0,1-3.421,5.915c-1.9,1.1-3.432.194-3.444-1.956l-.091-31.359A7.522,7.522,0,0,1,287.131,106.8Z" transform="translate(-281.811 -105.229)" fill="#bfbfbf"/>
              <path id="Trazado_116355" data-name="Trazado 116355" d="M287.543,109.878c1.556-.892,2.814-.183,2.826,1.613l.069,25.719a6.187,6.187,0,0,1-2.8,4.851c-1.556.892-2.814.16-2.826-1.613l-.069-25.719a6.169,6.169,0,0,1,2.8-4.851Z" transform="translate(-281.663 -104.773)" fill="#ccc"/>
            </g>
          </g>
          <g id="Grupo_112161" data-name="Grupo 112161" transform="translate(0 21.443)">
            <path id="Trazado_116356" data-name="Trazado 116356" d="M175.248,36.49,149.4,21.572a2.138,2.138,0,0,0-2.151-.206l-4.862,2.826a2.139,2.139,0,0,1,2.151.206l25.845,14.919a6.668,6.668,0,0,1,3.02,5.228l-.08,29.7a2.107,2.107,0,0,1-.881,1.933l4.862-2.826a2.12,2.12,0,0,0,.881-1.933l.08-29.7a6.668,6.668,0,0,0-3.02-5.228Z" transform="translate(-141.429 -21.161)" fill="#ffb30b"/>
            <path id="Trazado_116357" data-name="Trazado 116357" d="M170.506,38.961a6.668,6.668,0,0,1,3.02,5.228l-.08,29.7c0,1.922-1.373,2.689-3.043,1.728L144.559,60.7a6.6,6.6,0,0,1-3.009-5.217l.08-29.7c0-1.922,1.361-2.7,3.032-1.739l25.845,14.919Z" transform="translate(-141.55 -20.805)" fill="#084a93"/>
            <g id="Grupo_112160" data-name="Grupo 112160" transform="translate(1.602 14.785)">
              <g id="Grupo_112159" data-name="Grupo 112159" transform="translate(0 6.496)">
                <path id="Trazado_116358" data-name="Trazado 116358" d="M155.489,48.96l-2.425,6.521L142.95,49.647l6.281-8.855c.881-1.247,3.089.034,3.97,2.288l2.3,5.892Z" transform="translate(-142.95 -39.684)" fill="#fff"/>
                <path id="Trazado_116359" data-name="Trazado 116359" d="M158.2,58.1l-6.407-3.707,2.425-6.521Z" transform="translate(-141.676 -38.594)" fill="#e6e6e6"/>
                <path id="Trazado_116360" data-name="Trazado 116360" d="M168,65.1l-10.114-5.835L153.91,49.05l3.066-8.226c.915-2.46,4.611-.332,5.537,3.192l5.5,21.1Z" transform="translate(-141.371 -39.762)" fill="#fff"/>
              </g>
              <path id="Trazado_116361" data-name="Trazado 116361" d="M154.518,38.278c0,1.43-1.007,2-2.254,1.293a4.965,4.965,0,0,1-2.254-3.89c0-1.43,1.007-2,2.254-1.293A4.965,4.965,0,0,1,154.518,38.278Z" transform="translate(-141.933 -34.084)" fill="#e6e6e6"/>
            </g>
          </g>
          <g id="Grupo_112162" data-name="Grupo 112162" transform="translate(57.341 112.675)">
            <path id="Trazado_116362" data-name="Trazado 116362" d="M263.1,138l-63.507-36.667a2.209,2.209,0,0,0-2.231-.217l-4.862,2.826a2.209,2.209,0,0,1,2.231.217l63.507,36.667a6.861,6.861,0,0,1,3.123,5.423l-.034,10.834a2.183,2.183,0,0,1-.915,2.014l4.862-2.826a2.209,2.209,0,0,0,.915-2.014l.034-10.834A6.921,6.921,0,0,0,263.1,138Z" transform="translate(-191.55 -100.904)" fill="#084a93"/>
            <path id="Trazado_116363" data-name="Trazado 116363" d="M258.358,140.472a6.86,6.86,0,0,1,3.123,5.423l-.034,10.834c0,1.991-1.407,2.8-3.146,1.8l-63.507-36.667a6.878,6.878,0,0,1-3.123-5.423L191.7,105.6c0-2,1.407-2.8,3.146-1.8l63.507,36.667Z" transform="translate(-191.67 -100.549)" fill="#ffb30b"/>
            <path id="Trazado_116364" data-name="Trazado 116364" d="M255.607,145.864l-58.245-33.8c-.664-.389-1.213.023-1.213.915h0a2.883,2.883,0,0,0,1.213,2.311l58.245,33.8c.664.389,1.213-.023,1.213-.915h0A2.883,2.883,0,0,0,255.607,145.864Z" transform="translate(-191.025 -99.317)" fill="#fff"/>
          </g>
          <g id="Grupo_112163" data-name="Grupo 112163" transform="translate(57.341 150.578)">
            <path id="Trazado_116365" data-name="Trazado 116365" d="M263.1,171.132l-63.507-36.667a2.209,2.209,0,0,0-2.231-.217l-4.862,2.826a2.209,2.209,0,0,1,2.231.217l63.507,36.667a6.878,6.878,0,0,1,3.123,5.423l-.034,10.846a2.2,2.2,0,0,1-.915,2.014l4.862-2.826a2.2,2.2,0,0,0,.915-2.014l.034-10.846a6.939,6.939,0,0,0-3.123-5.423Z" transform="translate(-191.55 -134.034)" fill="#084a93"/>
            <path id="Trazado_116366" data-name="Trazado 116366" d="M258.358,173.59a6.878,6.878,0,0,1,3.123,5.423l-.034,10.846c0,1.991-1.407,2.792-3.146,1.8l-63.507-36.667a6.857,6.857,0,0,1-3.123-5.411l.034-10.846c0-1.991,1.407-2.8,3.146-1.8L258.358,173.6Z" transform="translate(-191.67 -133.679)" fill="#ffb30b"/>
            <path id="Trazado_116367" data-name="Trazado 116367" d="M255.607,178.464l-58.245-33.8c-.664-.389-1.213.023-1.213.915h0a2.883,2.883,0,0,0,1.213,2.311l58.245,33.8c.664.389,1.213-.023,1.213-.915h0A2.883,2.883,0,0,0,255.607,178.464Z" transform="translate(-191.025 -132.523)" fill="#fff"/>
          </g>
          <g id="Grupo_112165" data-name="Grupo 112165" transform="translate(0 209.665)">
            <path id="Trazado_116368" data-name="Trazado 116368" d="M175.248,201.01,149.4,186.092a2.138,2.138,0,0,0-2.151-.206l-4.862,2.826a2.139,2.139,0,0,1,2.151.206l25.845,14.919a6.668,6.668,0,0,1,3.02,5.228l-.08,29.7a2.107,2.107,0,0,1-.881,1.933l4.862-2.826a2.12,2.12,0,0,0,.881-1.933l.08-29.7a6.668,6.668,0,0,0-3.02-5.228Z" transform="translate(-141.429 -185.681)" fill="#ffb30b"/>
            <path id="Trazado_116369" data-name="Trazado 116369" d="M170.506,203.481a6.668,6.668,0,0,1,3.02,5.228l-.08,29.7c0,1.922-1.373,2.689-3.043,1.728l-25.845-14.919A6.6,6.6,0,0,1,141.55,220l.08-29.7c0-1.922,1.361-2.7,3.032-1.739l25.845,14.919Z" transform="translate(-141.55 -185.325)" fill="#084a93"/>
            <g id="Grupo_112164" data-name="Grupo 112164" transform="translate(3.295 13.384)">
              <path id="Trazado_116370" data-name="Trazado 116370" d="M169.243,212.241v.046l-12.31,1.03-12.493-15.4h0c0-.481.343-.675.767-.435l23.282,13.443a1.679,1.679,0,0,1,.767,1.316Z" transform="translate(-144.429 -197.38)" fill="#fff"/>
              <path id="Trazado_116371" data-name="Trazado 116371" d="M156.935,214.1l12.31-1.041v14.987c0,.48-.343.675-.767.435L145.2,215.039a1.679,1.679,0,0,1-.767-1.316V198.69l12.31,15.182.183.229Z" transform="translate(-144.43 -197.191)" fill="#fff"/>
            </g>
          </g>
          <g id="Grupo_112166" data-name="Grupo 112166" transform="translate(3.741 163.783)">
            <path id="Trazado_116372" data-name="Trazado 116372" d="M268.739,212.543,153.76,146.152a3,3,0,0,0-3-.3l-4.862,2.826a2.973,2.973,0,0,1,3,.3l114.979,66.39a9.216,9.216,0,0,1,4.187,7.265l-.023,8.649a2.933,2.933,0,0,1-1.224,2.7l4.862-2.826a2.933,2.933,0,0,0,1.224-2.7l.023-8.649a9.264,9.264,0,0,0-4.187-7.265Z" transform="translate(-144.664 -145.577)" fill="#ffb30b"/>
            <path id="Trazado_116373" data-name="Trazado 116373" d="M264.044,215.012a9.216,9.216,0,0,1,4.187,7.265l-.023,8.649c0,2.677-1.888,3.753-4.222,2.414l-114.979-66.39a9.233,9.233,0,0,1-4.187-7.265l.023-8.649c0-2.677,1.9-3.741,4.222-2.4l114.979,66.39Z" transform="translate(-144.82 -145.22)" fill="#084a93"/>
            <path id="Trazado_116374" data-name="Trazado 116374" d="M260.47,220.394,149.793,156.108c-.664-.389-1.213.023-1.213.915h0a2.883,2.883,0,0,0,1.213,2.311L260.47,223.62c.664.389,1.213-.023,1.213-.915h0A2.883,2.883,0,0,0,260.47,220.394Z" transform="translate(-144.278 -144.081)" fill="#fff"/>
          </g>
          <g id="Grupo_112168" data-name="Grupo 112168" transform="translate(47.181 236.86)">
            <path id="Trazado_116375" data-name="Trazado 116375" d="M216.488,224.78l-25.845-14.919a2.138,2.138,0,0,0-2.151-.206l-4.862,2.826a2.139,2.139,0,0,1,2.151.206l25.845,14.919a6.668,6.668,0,0,1,3.02,5.228l-.08,29.7a2.107,2.107,0,0,1-.881,1.933l4.862-2.826a2.12,2.12,0,0,0,.881-1.933l.08-29.7A6.668,6.668,0,0,0,216.488,224.78Z" transform="translate(-182.669 -209.451)" fill="#ffb30b"/>
            <path id="Trazado_116376" data-name="Trazado 116376" d="M211.746,227.241a6.668,6.668,0,0,1,3.02,5.228l-.08,29.7c0,1.922-1.373,2.689-3.043,1.728L185.8,248.978a6.6,6.6,0,0,1-3.009-5.217l.08-29.7c0-1.922,1.361-2.7,3.032-1.739l25.845,14.919Z" transform="translate(-182.79 -209.097)" fill="#084a93"/>
            <g id="Grupo_112167" data-name="Grupo 112167" transform="translate(2.952 14.682)">
              <path id="Trazado_116377" data-name="Trazado 116377" d="M209.052,252.387,187.7,240.066a5.139,5.139,0,0,1-2.334-4.027V224.277c0-1.476,1.053-2.071,2.334-1.327l21.348,12.322a5.139,5.139,0,0,1,2.334,4.027V251.06C211.386,252.536,210.334,253.131,209.052,252.387ZM187.7,224.06c-.755-.435-1.361-.08-1.361.778V236.6a2.994,2.994,0,0,0,1.361,2.345l21.348,12.322c.755.435,1.361.08,1.361-.778V238.727a2.994,2.994,0,0,0-1.361-2.345Z" transform="translate(-185.37 -222.234)" fill="#fff"/>
              <path id="Trazado_116378" data-name="Trazado 116378" d="M197.465,243.319a12.515,12.515,0,0,1-5.675-9.793c0-3.592,2.551-5.045,5.675-3.238a12.515,12.515,0,0,1,5.675,9.793C203.139,243.674,200.588,245.127,197.465,243.319Zm0-11.91c-2.6-1.5-4.7-.3-4.7,2.677a10.37,10.37,0,0,0,4.7,8.111c2.6,1.5,4.7.3,4.7-2.677A10.37,10.37,0,0,0,197.465,231.409Z" transform="translate(-184.445 -221.243)" fill="#fff"/>
              <path id="Trazado_116379" data-name="Trazado 116379" d="M204.337,233.96l-13.477-7.78v-2.814c0-.972.686-1.361,1.533-.869L202.8,228.5a3.379,3.379,0,0,1,1.533,2.643Zm-12.5-8.34,11.532,6.658v-1.7a1.216,1.216,0,0,0-.561-.961l-10.411-6.006c-.309-.183-.561-.034-.561.32v1.7Z" transform="translate(-184.579 -222.284)" fill="#fff"/>
            </g>
          </g>
          <g id="Grupo_112169" data-name="Grupo 112169" transform="translate(95.175 264.523)">
            <path id="Trazado_116380" data-name="Trazado 116380" d="M258.438,248.96l-25.845-14.919a2.139,2.139,0,0,0-2.151-.206l-4.862,2.826a2.138,2.138,0,0,1,2.151.206l25.845,14.919a6.625,6.625,0,0,1,3.009,5.228l-.08,29.7a2.141,2.141,0,0,1-.881,1.945l4.862-2.826a2.128,2.128,0,0,0,.881-1.945l.08-29.7a6.656,6.656,0,0,0-3.009-5.228Z" transform="translate(-224.619 -233.631)" fill="#ffb30b"/>
            <path id="Trazado_116381" data-name="Trazado 116381" d="M253.708,251.421a6.625,6.625,0,0,1,3.009,5.228l-.08,29.7c0,1.922-1.361,2.7-3.032,1.728L227.76,273.159a6.668,6.668,0,0,1-3.02-5.228l.08-29.7c0-1.922,1.373-2.7,3.043-1.728l25.845,14.919Z" transform="translate(-224.74 -233.278)" fill="#084a93"/>
            <path id="Trazado_116382" data-name="Trazado 116382" d="M240.167,249.148c-5.9-3.409-10.7-1.625-10.7,3.981,0,3.627,2.014,7.974,5.034,11.509-.137.95-.755,2.929-3.455,1.407,0,0,3.73,4.107,7.265,2.174a20.853,20.853,0,0,0,1.853,1.236c5.9,3.409,10.7,1.625,10.7-3.981s-4.794-12.917-10.7-16.326Z" transform="translate(-224.059 -231.645)" fill="#fff"/>
          </g>
          <g id="Grupo_112171" data-name="Grupo 112171" transform="translate(43.978 47.532)">
            <path id="Trazado_116383" data-name="Trazado 116383" d="M262.967,86.988,189.62,44.634a3.469,3.469,0,0,0-3.478-.343l-4.862,2.826a3.441,3.441,0,0,1,3.478.343L258.1,89.814a10.75,10.75,0,0,1,4.874,8.443l-.069,25.421a3.408,3.408,0,0,1-1.43,3.135l4.862-2.826a3.432,3.432,0,0,0,1.43-3.135l.069-25.421a10.768,10.768,0,0,0-4.874-8.443Z" transform="translate(-179.804 -43.965)" fill="#ffb30b"/>
            <path id="Trazado_116384" data-name="Trazado 116384" d="M258.3,89.448a10.751,10.751,0,0,1,4.874,8.443l-.069,25.421c0,3.1-2.208,4.347-4.9,2.792L184.864,83.75a10.748,10.748,0,0,1-4.874-8.432l.069-25.421c0-3.1,2.208-4.359,4.9-2.8Z" transform="translate(-179.99 -43.61)" fill="#084a93"/>
            <g id="Grupo_112170" data-name="Grupo 112170" transform="translate(6.098 11.712)">
              <path id="Trazado_116385" data-name="Trazado 116385" d="M255.692,94.437,186.533,54.348c-.664-.389-1.213.023-1.213.915h0a2.883,2.883,0,0,0,1.213,2.311l69.159,40.088c.664.389,1.213-.023,1.213-.915h0A2.883,2.883,0,0,0,255.692,94.437Z" transform="translate(-185.32 -54.202)" fill="#fff"/>
              <path id="Trazado_116386" data-name="Trazado 116386" d="M255.692,102.827,186.533,62.738c-.664-.389-1.213.023-1.213.915h0a2.883,2.883,0,0,0,1.213,2.311l69.159,40.088c.664.389,1.213-.023,1.213-.915h0A2.883,2.883,0,0,0,255.692,102.827Z" transform="translate(-185.32 -52.993)" fill="#fff"/>
              <path id="Trazado_116387" data-name="Trazado 116387" d="M255.692,111.217,186.533,71.128c-.664-.389-1.213.023-1.213.915h0a2.883,2.883,0,0,0,1.213,2.311l69.159,40.088c.664.389,1.213-.023,1.213-.915h0A2.883,2.883,0,0,0,255.692,111.217Z" transform="translate(-185.32 -51.784)" fill="#fff"/>
            </g>
          </g>
        </g>
        <g id="Grupo_112174" data-name="Grupo 112174" transform="translate(0 81.028)">
          <path id="Trazado_116388" data-name="Trazado 116388" d="M156.882,90.769a4.783,4.783,0,0,1-.217-.686,4.051,4.051,0,0,1,.034-.744A1.783,1.783,0,0,0,156,87.9a3.549,3.549,0,0,1-.526-.4,5.071,5.071,0,0,1-.332-.526,2.887,2.887,0,0,0-2.757-.938,15.028,15.028,0,0,0-5.961,2.071,18.363,18.363,0,0,0-6.418,5.675,16.191,16.191,0,0,0-1.533,3.009,27.178,27.178,0,0,0-.927,2.826c-.172.641-.4,1.258-.538,1.9a8.176,8.176,0,0,0-.126.9,1.519,1.519,0,0,1-.149.812c-.206.309-19.85,24.872-21.245,26.6-1.224,1.533-2.22,3.421-3.661,4.736-2.986,2.746-6.864,4.714-10.48,6.464-2.94,1.43-8.146,2.723-6.853,7.219a8.733,8.733,0,0,0,2.425,3.306,19.694,19.694,0,0,1,3.821,5.858.644.644,0,0,0,.24.332.628.628,0,0,0,.561-.092c5.125-2.734,19.14-12.631,21.52-14.072,0-.08-.011-.149-.011-.229a5.333,5.333,0,0,0,1.762-1.67c1.728-2.322,3.352-4.725,4.885-7.185s2.986-4.965,4.37-7.517,2.711-5.137,3.993-7.734,4.267-8.912,4.508-9.439c.183-.389.286-.984.721-1.19.275-.137.595-.126.881-.275a4.3,4.3,0,0,0,.858-.641c2.86-2.643,4.462-6.35,6.716-9.53a7.753,7.753,0,0,1,1.361-1.567c1.018-.835,2.425-1.247,3.123-2.368a5.335,5.335,0,0,0,.538-1.5,3.813,3.813,0,0,0,.126-1.991Z" transform="translate(-65.935 -71.403)" fill="#ffb78c"/>
          <path id="Trazado_116389" data-name="Trazado 116389" d="M82.936,343.435a5.623,5.623,0,0,0,2.048,4.359,5.072,5.072,0,0,0,2.711.755,10.574,10.574,0,0,0,7.208-2.505c2.231-1.911,3.6-4.714,5.983-6.441a23.08,23.08,0,0,1,4.176-2.116,38.248,38.248,0,0,0,9.713-6.292,5.769,5.769,0,0,0,1.67-2.048,2.873,2.873,0,0,0-1.167-3.455,6.635,6.635,0,0,0-2.334-.789,33.216,33.216,0,0,0-8.786-.069,41.811,41.811,0,0,0-10.96,2.128,19.513,19.513,0,0,0-4.313,2.231c-.5.343-1.236,1.236-1.842,1.339a5.106,5.106,0,0,1-1.613-.549,57.319,57.319,0,0,0-2.094,7.894,22.864,22.864,0,0,0-.4,5.56Z" transform="translate(-67.578 -37.033)" fill="#084a93"/>
          <path id="Trazado_116390" data-name="Trazado 116390" d="M111.022,225.123a8.906,8.906,0,0,0-1.144-2.826c-3.215-6.132-4.679-12.951-7.013-19.426a41.514,41.514,0,0,0-4.29-8.981c-1.087-1.647-4.084-6.041-6.658-5.114a2.731,2.731,0,0,0-.938.675,57.519,57.519,0,0,0-11.532,15.811,39.859,39.859,0,0,0-4.336,18.431,46.324,46.324,0,0,0,2.3,14.678,46.4,46.4,0,0,1,1.544,5.034,28.962,28.962,0,0,1,.4,5.549q.12,10.846.229,21.68c.034,3.318.046,6.659.275,9.953a29.4,29.4,0,0,1-.641,10.056,64.569,64.569,0,0,0-2.048,10.3c-1.11,9.141.812,18.351,2.734,27.355q2.591,12.184,5.183,24.357a2.658,2.658,0,0,0,.549,1.316,2.3,2.3,0,0,0,1.007.526,10.128,10.128,0,0,0,6.773-.686,22.807,22.807,0,0,0,5.709-3.913,4.928,4.928,0,0,0,1.2-1.373c.686-1.35.046-2.975-.526-4.382-5.16-12.6-4.759-26.9-1.636-40.145,1.075-4.53,2.448-9,3.078-13.614a7.955,7.955,0,0,0,.069-1.041.162.162,0,0,1,.023-.069c4.954-20.41,7.448-41.324,9.679-62.2a8,8,0,0,0,.046-1.956Z" transform="translate(-68.699 -56.616)" fill="#333"/>
          <path id="Trazado_116391" data-name="Trazado 116391" d="M141.957,322.911a48.862,48.862,0,0,0-8.867.252,12.311,12.311,0,0,0-6.407,2.574,16.282,16.282,0,0,0-2.849,3.627c-2.22,3.569-6.3,11.9-.4,14.312a6.261,6.261,0,0,0,3.249.263c3.741-.572,6.956-3.089,10.686-3.741a28.7,28.7,0,0,1,4.21-.263c5.034-.137,10.182-1.087,14.427-3.8a8.9,8.9,0,0,0,3.936-5.583c.778-3.226-1.19-5.228-4.164-5.9a78.87,78.87,0,0,0-13.8-1.728Z" transform="translate(-62.177 -37.285)" fill="#084a93"/>
          <path id="Trazado_116392" data-name="Trazado 116392" d="M142.771,338.609a104.845,104.845,0,0,1-4.462-30.753c.046-8.317-1.087-17.058-.046-25.3a86.647,86.647,0,0,0-1.075-25.547c-2.4-13.294-8.26-25.9-9.439-39.367-.446-5.068-.206-10.217-1.087-15.228a28.979,28.979,0,0,1-19.735,2.448,81.505,81.505,0,0,1-9.965-3.467c-1.373-.572-2.849-.7-4.244-1.2a10.139,10.139,0,0,1-3.089-2.059,37.9,37.9,0,0,0-5.045,40.477c2.769,5.869,7.242,10,12.059,14.221,4.645,4.073,9.53,8.043,12.882,13.225,2.894,4.485,4.439,10.205,5.869,15.3a79.26,79.26,0,0,1,3.135,17.664c.252,5.537-.5,10.64.469,16.189a55.5,55.5,0,0,0,1.819,7.436c2.826,8.878,7.906,17.4,7.585,26.714a1.739,1.739,0,0,0,.217,1.133,1.488,1.488,0,0,0,.767.446c3.821,1.224,8.031-.435,11.223-2.872a7.811,7.811,0,0,0,2.677-3.089c.824-2.014.126-4.29-.5-6.384Z" transform="translate(-67.864 -55.249)" fill="#424242"/>
          <path id="Trazado_116393" data-name="Trazado 116393" d="M75.255,140.38c-1.133,6.109-.5,12.825.664,18.568a156.816,156.816,0,0,0,7.139,24.54c1.236,3.249,2.6,6.521,2.883,9.976.492,6.086-2.4,11.875-5.286,17.264a2.957,2.957,0,0,0-.492,1.6,2.76,2.76,0,0,0,.572,1.247,29.949,29.949,0,0,0,14.541,10.594,51.18,51.18,0,0,0,17.985,2.608c5.171-.069,10.468-.664,15.1-2.963.263-7.6.526-15.193.458-22.8-.069-7.15-1.785-14.656-.08-21.714.618-2.551,1.67-4.977,2.334-7.517a25.485,25.485,0,0,0,.767-8.317c-.172-2.277-.824-4.794-2.792-5.938-.618-.355-1.316-.549-1.933-.881-2.986-1.567-3.707-5.766-6.59-7.528a13.249,13.249,0,0,0-3.444-1.213c-12.585-3.524-22.092-18.98-36.107-16.761a5.062,5.062,0,0,0-2.151.686,4.836,4.836,0,0,0-1.464,1.934,25.58,25.58,0,0,0-2.105,6.6Z" transform="translate(-68.764 -64.932)" fill="#b9ddfc"/>
          <path id="Trazado_116394" data-name="Trazado 116394" d="M80.651,137.405a5.957,5.957,0,0,0-.458,1.075c-.892,2.711,1.636,4.5,3.718,5.652a22.938,22.938,0,0,0,11.063,2.7,33.267,33.267,0,0,0,6.9-.755c.87-.183,1.476-.206,1.911-1a7.117,7.117,0,0,0,.629-3.089c.126-2.322.183-4.633.252-6.956.1-3.592.194-7.185.3-10.789.046-1.522-2.071-1.087-3.2-1.224-1.636-.217-3.272-.446-4.885-.755a34.443,34.443,0,0,1-9.313-2.975c-.778-.389-2-1.339-2.883-1.384-1.1-.057-1.087,1.4-1.2,2.277a72.322,72.322,0,0,0-.355,7.391,20.13,20.13,0,0,1-1.7,8.42c-.24.469-.5.938-.755,1.407Z" transform="translate(-67.993 -66.808)" fill="#ffb77b"/>
          <path id="Trazado_116395" data-name="Trazado 116395" d="M112.194,105.24a4.132,4.132,0,0,1,.721,1.682,14.987,14.987,0,0,1-.114,1.75c0,2.036,1.979,3.409,3.592,4.645.641.492,1.316,1.167,1.213,1.968a3.034,3.034,0,0,1-.355.9,14.366,14.366,0,0,0-1.064,7.311c.092,1.567,1.3,5.789-.286,6.8a24.778,24.778,0,0,1-6.075,2.792,5.086,5.086,0,0,1-3.97,0c-1.041-.595-1.739-1.808-2.677-2.586-1.121-.927-2.62.412-3.821.812a21.213,21.213,0,0,1-4.851.972,21.682,21.682,0,0,1-9.461-1.361,16.367,16.367,0,0,1-5.274-3.146,22.238,22.238,0,0,1-4.061-5.526,22.353,22.353,0,0,1-3.261-8.546,16.124,16.124,0,0,1,2.151-9.313,20.873,20.873,0,0,1,5.961-6.8c4.633-3.535,10.811-4.256,16.646-4.267a13.93,13.93,0,0,1,5.823,1,8.4,8.4,0,0,1,4.576,4.256c1.053,2.391,3.215,4.45,4.611,6.681Z" transform="translate(-69.092 -70.349)" fill="#ffb78c"/>
          <path id="Trazado_116396" data-name="Trazado 116396" d="M99.931,120.557a7.95,7.95,0,0,1,3.249-2.826c3.043-1.659,3.592-5.423,3.981-8.489a26.361,26.361,0,0,0-.972-12.127c-1.27-3.444-5.537-4.828-8.821-5.24a24.385,24.385,0,0,0-12.036,1.476C79.7,95.616,75,100.924,72.428,106.324c-3.123,6.567-3.181,13.374-2.7,20.445.16,2.391.24,4.061,1.911,5.938a13.9,13.9,0,0,0,3.661,2.78,29.7,29.7,0,0,0,24.277,2.036,10.376,10.376,0,0,0,3.295-1.75c2.345-2.014,1.979-4.839.057-7.025-.984-1.121-2.666-1.281-3.421-2.689a4.624,4.624,0,0,1-.412-2.2,6.2,6.2,0,0,1,.824-3.295Z" transform="translate(-69.506 -70.587)" fill="#084a93"/>
          <g id="Grupo_112173" data-name="Grupo 112173" transform="translate(80.112)">
            <path id="Trazado_116397" data-name="Trazado 116397" d="M185.651,95.24,148.56,73.823a2.973,2.973,0,0,0-3-.3L140.7,76.351a2.973,2.973,0,0,1,3,.3l37.091,21.417a9.245,9.245,0,0,1,4.2,7.265l-.114,40.031a2.912,2.912,0,0,1-1.224,2.689l4.862-2.826a2.925,2.925,0,0,0,1.224-2.689l.114-40.031a9.275,9.275,0,0,0-4.2-7.265Z" transform="translate(-139.361 -73.243)" fill="#ffb30b"/>
            <path id="Trazado_116398" data-name="Trazado 116398" d="M180.957,97.709a9.245,9.245,0,0,1,4.2,7.265l-.114,40.031c0,2.666-1.9,3.741-4.222,2.4l-37.091-21.417a9.245,9.245,0,0,1-4.2-7.265l.114-40.031c0-2.666,1.9-3.741,4.222-2.4l37.091,21.417Z" transform="translate(-139.53 -72.886)" fill="#084a93"/>
            <path id="Trazado_116399" data-name="Trazado 116399" d="M159.858,95.764C153.326,92,148.04,95.009,148.04,102.5s5.286,16.612,11.818,20.376,11.818.744,11.818-6.739S166.379,99.528,159.858,95.764Zm-2.883,18.145V101.725l9.2,11.406Z" transform="translate(-138.304 -70.232)" fill="#fff"/>
          </g>
          <path id="Trazado_116400" data-name="Trazado 116400" d="M128.632,179.068c11.715,1.007,23.511.137,35.226-.869.057,0,.114-.023.172-.023,2.952-.286,3.638-2.769,4.794-5.091,1.041-2.071,1.968-4.2,2.872-6.338q7.328-17.213,12.905-35.077a11.825,11.825,0,0,1,2.792-2.586,34.945,34.945,0,0,0,9.6-12.1c.721-1.5,1.316-3.306.526-4.771a13.065,13.065,0,0,1-.789-1.327c-.217-.572-.149-1.224-.332-1.808-.412-1.327-1.956-1.979-2.608-3.2-.263-.492-.423-1.11-.95-1.3a1.141,1.141,0,0,0-1.213.423,4.369,4.369,0,0,0-.606,1.224,10.527,10.527,0,0,1-5.206,5.606,1.465,1.465,0,0,1-1.43.1,12.83,12.83,0,0,0,1.579-3.764,3.7,3.7,0,0,0-.034-2.334,1.549,1.549,0,0,0-1.933-.892c-.7.332-.869,1.224-1.041,1.979a10.283,10.283,0,0,1-1.544,3.535c-.755,1.11-1.728,2.059-2.471,3.181a11.324,11.324,0,0,0-1.4,3.078,23.9,23.9,0,0,0-.824,6.109,18.588,18.588,0,0,1-.389,3.329l-.137.343c-1.224,3.364-17.642,34.356-20.021,37.949a16.854,16.854,0,0,1-2.036-.1c-7.757-.9-15.571-2.162-22.7-5.354-3.6-1.613-7.013-3.707-10.8-4.839s-8.18-1.144-11.372,1.2c-2.54,1.865-3.833,4.885-4.45,7.894-2.38,11.6,12.345,14.507,20.708,15.514,1.03.126,2.059.229,3.1.32Z" transform="translate(-64.456 -68.737)" fill="#ffb78c"/>
          <path id="Trazado_116401" data-name="Trazado 116401" d="M138.988,163.635a23.381,23.381,0,0,1-2.849,11.383,2.714,2.714,0,0,1-2.883,1.7,27.331,27.331,0,0,1-3.2-.3,110.428,110.428,0,0,1-17.722-3.936c-2.757-.858-5.125-1.476-7.574-3.112a11,11,0,0,1-3.352-3.421,10.654,10.654,0,0,1-1.361-7.528,14.712,14.712,0,0,1,8.535-10.8,10.018,10.018,0,0,1,1.808-.561,11.459,11.459,0,0,1,3.9.046,55.637,55.637,0,0,1,10.7,3.055q5.56,1.991,11.12,4.016c1.613.583,1.7,1.991,2.117,3.478a23.277,23.277,0,0,1,.767,5.961Z" transform="translate(-65.134 -62.628)" fill="#f2f2f2"/>
          <path id="Trazado_116402" data-name="Trazado 116402" d="M137.28,91.085a11.9,11.9,0,0,0-2.895,2.128,6.524,6.524,0,0,0-1.167,5,4.807,4.807,0,0,0,.721,2.174A2.244,2.244,0,0,0,135.9,101.4a2.733,2.733,0,0,0,1.762-1.133,6.03,6.03,0,0,0,1.041-2.014c.423-1.464.286-3.146,1.156-4.4a8.59,8.59,0,0,1,1.5-1.453,9.882,9.882,0,0,0,1.773-1.945,4.633,4.633,0,0,0,.755-1.739,2.58,2.58,0,0,0-.309-1.842c-.938-1.487-2.151.641-2.769,1.293a18.759,18.759,0,0,1-3.535,2.906Z" transform="translate(-60.337 -71.353)" fill="#ffb78c"/>
        </g>
      </g>
    </g>
  </g>
</svg>
