<svg xmlns="http://www.w3.org/2000/svg" xmlns:xlink="http://www.w3.org/1999/xlink" width="376.053" height="412.609" viewBox="0 0 376.053 412.609">
  <defs>
    <linearGradient id="linear-gradient" x1="4.053" y1="0.246" x2="3.582" y2="1.195" gradientUnits="objectBoundingBox">
      <stop offset="0" stop-color="#fff"/>
      <stop offset="1" stop-color="#999"/>
    </linearGradient>
  </defs>
  <g id="Grupo_131837" data-name="Grupo 131837" transform="translate(-1888.721 -4185.073)">
    <g id="_1_1_F" data-name="1_1_F" transform="translate(1857.961 4176.275)">
      <g id="Grupo_112199" data-name="Grupo 112199" transform="translate(105.62 95.393)">
        <path id="Trazado_116614" data-name="Trazado 116614" d="M282.175,360.294,98,253.965c-3.99-2.308-3.491-6.321,1.113-8.988l94.952-54.684c4.6-2.656,11.575-2.946,15.564-.649L393.8,295.973c3.99,2.308,3.491,6.321-1.113,8.988l-94.952,54.684c-4.6,2.656-11.575,2.946-15.564.649Z" transform="translate(-95.307 -66.744)" fill="#f2f2f2" opacity="0.5"/>
        <path id="Trazado_116615" data-name="Trazado 116615" d="M247.84,212.82l10.937,128.11a3.407,3.407,0,0,0,4,3.062h0a3.407,3.407,0,0,0,2.8-3.421l-2.668-130.29-15.066,2.54Z" transform="translate(-70.934 -63.199)"/>
        <path id="Trazado_116616" data-name="Trazado 116616" d="M308.18,172.8l27.313,125.64a3.4,3.4,0,0,0,4.361,2.517h0a3.4,3.4,0,0,0,2.331-3.746L322.8,168.35,308.18,172.8Z" transform="translate(-61.293 -69.899)"/>
        <path id="Trazado_116617" data-name="Trazado 116617" d="M120.918,128.059,111.651,256.3a3.417,3.417,0,0,0,3.468,3.653h0a3.409,3.409,0,0,0,3.305-2.934L136.2,127.92l-15.286.151Z" transform="translate(-92.697 -76.359)"/>
        <g id="Grupo_112198" data-name="Grupo 112198" transform="translate(3.541)">
          <path id="Trazado_116618" data-name="Trazado 116618" d="M212.242,85.547c-4.222-2.436-8.061-2.668-10.821-1.055L102.19,142.156c2.772-1.612,6.6-1.38,10.821,1.055l148.081,85.5,99.231-57.665-148.081-85.5Z" transform="translate(-97.748 -83.463)" fill="#f2f2f2"/>
          <path id="Trazado_116619" data-name="Trazado 116619" d="M349.159,195.016l-99.231,57.665c2.737-1.589,4.43-4.964,4.442-9.765.023-9.661-6.762-21.421-15.17-26.281l99.231-57.665c8.408,4.848,15.2,16.62,15.17,26.281C353.59,190.052,351.9,193.427,349.159,195.016Z" transform="translate(-75.856 -71.398)" fill="#bfbfbf"/>
          <path id="Trazado_116620" data-name="Trazado 116620" d="M261.7,220.757c8.408,4.848,15.2,16.62,15.17,26.281s-6.866,13.558-15.274,8.7l-148.081-85.5c-8.4-4.848-15.193-16.608-15.158-26.269s6.866-13.558,15.263-8.71l148.081,85.5Z" transform="translate(-98.36 -75.52)" fill="#d9d9d9"/>
        </g>
      </g>
      <g id="Grupo_112281" data-name="Grupo 112281" transform="translate(170.526 137.097)">
        <g id="Grupo_112200" data-name="Grupo 112200">
          <path id="Trazado_116621" data-name="Trazado 116621" d="M255.268,163.235v1.137l-73.032-42.158a2.706,2.706,0,0,0-2.436.1l-25.585,14.764v-.765H151.27l.023,2.923a.7.7,0,0,0,.394.6l75.363,43.5a2.706,2.706,0,0,0,2.436-.1L257.4,167.12a.991.991,0,0,0,.58-.777v-2.923l-2.737-.186Z" transform="translate(-151.27 -119.014)" fill="#bfbfbf"/>
          <path id="Trazado_116622" data-name="Trazado 116622" d="M227.071,180.8l-75.363-43.5c-.626-.36-.545-.986.174-1.4L179.8,119.768a2.706,2.706,0,0,1,2.436-.1l75.363,43.5c.626.36.545.986-.174,1.4l-27.916,16.121A2.706,2.706,0,0,1,227.071,180.8Z" transform="translate(-151.267 -119.421)" fill="#d9d9d9"/>
        </g>
        <g id="Grupo_112280" data-name="Grupo 112280" transform="translate(2.198 1.01)">
          <g id="Grupo_112201" data-name="Grupo 112201" transform="translate(24.927)">
            <path id="Trazado_116623" data-name="Trazado 116623" d="M181.978,122.855l-2.459,1.427a.665.665,0,0,1-.626,0l-4.106-2.366a.225.225,0,0,1-.128-.186v.441a.241.241,0,0,0,.128.186l4.106,2.366a.665.665,0,0,0,.626,0l2.459-1.427a.225.225,0,0,0,.128-.186v-.441A.241.241,0,0,1,181.978,122.855Z" transform="translate(-174.657 -120.063)" fill="#1f2125"/>
            <path id="Trazado_116624" data-name="Trazado 116624" d="M181.979,122.725a.2.2,0,0,1,0,.371l-2.459,1.427a.665.665,0,0,1-.626,0l-4.106-2.366c-.174-.1-.174-.267,0-.36l2.459-1.427a.665.665,0,0,1,.626,0l4.106,2.366Z" transform="translate(-174.658 -120.292)" fill="#4d4d4d"/>
          </g>
          <g id="Grupo_112202" data-name="Grupo 112202" transform="translate(19.914 2.114)">
            <path id="Trazado_116625" data-name="Trazado 116625" d="M178.76,124.469,175,126.649a.811.811,0,0,1-.731,0l-3.781-2.18a.254.254,0,0,1-.151-.209v.441a.241.241,0,0,0,.151.209l3.781,2.18a.811.811,0,0,0,.731,0l3.758-2.18a.254.254,0,0,0,.151-.209v-.441A.241.241,0,0,1,178.76,124.469Z" transform="translate(-170.334 -121.772)" fill="#1f2125"/>
            <path id="Trazado_116626" data-name="Trazado 116626" d="M178.761,124.382a.225.225,0,0,1,0,.429L175,126.992a.811.811,0,0,1-.731,0l-3.781-2.18a.225.225,0,0,1,0-.429l3.758-2.18a.811.811,0,0,1,.731,0Z" transform="translate(-170.335 -122.115)" fill="#4d4d4d"/>
          </g>
          <g id="Grupo_112203" data-name="Grupo 112203" transform="translate(30.134 2.981)">
            <path id="Trazado_116627" data-name="Trazado 116627" d="M186.294,125.339l-2.47,1.438a.643.643,0,0,1-.615,0l-3.932-2.273a.225.225,0,0,1-.128-.174v.441a.209.209,0,0,0,.128.174l3.932,2.273a.713.713,0,0,0,.615,0l2.47-1.438a.225.225,0,0,0,.128-.174v-.441A.209.209,0,0,1,186.294,125.339Z" transform="translate(-179.147 -122.628)" fill="#1f2125"/>
            <path id="Trazado_116628" data-name="Trazado 116628" d="M186.295,125.214c.174.093.174.255,0,.36l-2.47,1.438a.643.643,0,0,1-.615,0l-3.932-2.273c-.174-.093-.174-.255,0-.36l2.47-1.438a.643.643,0,0,1,.615,0Z" transform="translate(-179.147 -122.863)" fill="#4d4d4d"/>
          </g>
          <g id="Grupo_112204" data-name="Grupo 112204" transform="translate(25.133 5.141)">
            <path id="Trazado_116629" data-name="Trazado 116629" d="M183.272,127.07l-3.758,2.18a.835.835,0,0,1-.742,0l-3.781-2.18a.256.256,0,0,1-.151-.22v.441a.255.255,0,0,0,.151.22l3.781,2.18a.835.835,0,0,0,.742,0l3.758-2.18a.254.254,0,0,0,.151-.209v-.441A.241.241,0,0,1,183.272,127.07Z" transform="translate(-174.834 -124.385)" fill="#1f2125"/>
            <path id="Trazado_116630" data-name="Trazado 116630" d="M183.272,126.992a.225.225,0,0,1,0,.429l-3.758,2.18a.835.835,0,0,1-.742,0l-3.781-2.18a.225.225,0,0,1,0-.429l3.758-2.18a.835.835,0,0,1,.742,0Z" transform="translate(-174.835 -124.725)" fill="#4d4d4d"/>
          </g>
          <g id="Grupo_112205" data-name="Grupo 112205" transform="translate(35.26 5.95)">
            <path id="Trazado_116631" data-name="Trazado 116631" d="M190.714,127.891l-2.47,1.438a.643.643,0,0,1-.615,0l-3.932-2.273a.225.225,0,0,1-.128-.186v.441a.241.241,0,0,0,.128.186l3.932,2.273a.642.642,0,0,0,.615,0l2.47-1.438a.225.225,0,0,0,.128-.174v-.441a.209.209,0,0,1-.128.174Z" transform="translate(-183.567 -125.191)" fill="#1f2125"/>
            <path id="Trazado_116632" data-name="Trazado 116632" d="M190.715,127.774c.174.1.174.255,0,.36l-2.47,1.438a.643.643,0,0,1-.615,0L183.7,127.3c-.174-.1-.174-.255,0-.36l2.47-1.438a.643.643,0,0,1,.615,0Z" transform="translate(-183.567 -125.423)" fill="#4d4d4d"/>
          </g>
          <g id="Grupo_112206" data-name="Grupo 112206" transform="translate(40.387 8.907)">
            <path id="Trazado_116633" data-name="Trazado 116633" d="M195.134,130.449l-2.47,1.438a.676.676,0,0,1-.615,0l-3.932-2.273a.225.225,0,0,1-.128-.174v.441a.209.209,0,0,0,.128.174l3.932,2.273a.676.676,0,0,0,.615,0l2.47-1.438a.225.225,0,0,0,.128-.174v-.441A.209.209,0,0,1,195.134,130.449Z" transform="translate(-187.987 -127.738)" fill="#1f2125"/>
            <path id="Trazado_116634" data-name="Trazado 116634" d="M195.135,130.324c.174.093.174.255,0,.36l-2.47,1.438a.676.676,0,0,1-.615,0l-3.932-2.273c-.174-.093-.174-.255,0-.36l2.47-1.438a.642.642,0,0,1,.615,0Z" transform="translate(-187.987 -127.972)" fill="#4d4d4d"/>
          </g>
          <g id="Grupo_112207" data-name="Grupo 112207" transform="translate(45.513 11.865)">
            <path id="Trazado_116635" data-name="Trazado 116635" d="M199.554,133l-2.47,1.438a.642.642,0,0,1-.615,0l-3.932-2.273a.225.225,0,0,1-.128-.174v.441a.209.209,0,0,0,.128.174l3.932,2.273a.714.714,0,0,0,.615,0l2.47-1.438a.225.225,0,0,0,.128-.174v-.441A.209.209,0,0,1,199.554,133Z" transform="translate(-192.407 -130.288)" fill="#1f2125"/>
            <path id="Trazado_116636" data-name="Trazado 116636" d="M199.555,132.874c.174.093.174.255,0,.36l-2.47,1.438a.642.642,0,0,1-.615,0l-3.932-2.273c-.174-.1-.174-.255,0-.36l2.47-1.438a.642.642,0,0,1,.615,0Z" transform="translate(-192.408 -130.522)" fill="#4d4d4d"/>
          </g>
          <g id="Grupo_112208" data-name="Grupo 112208" transform="translate(50.639 14.822)">
            <path id="Trazado_116637" data-name="Trazado 116637" d="M203.974,135.551l-2.47,1.438a.642.642,0,0,1-.615,0l-3.932-2.273a.225.225,0,0,1-.128-.186v.441a.241.241,0,0,0,.128.186l3.932,2.273a.643.643,0,0,0,.615,0l2.47-1.438a.225.225,0,0,0,.128-.174v-.441A.209.209,0,0,1,203.974,135.551Z" transform="translate(-196.827 -132.84)" fill="#1f2125"/>
            <path id="Trazado_116638" data-name="Trazado 116638" d="M203.975,135.424c.174.1.174.255,0,.36l-2.47,1.438a.642.642,0,0,1-.615,0l-3.932-2.273c-.174-.1-.174-.255,0-.36l2.47-1.438a.642.642,0,0,1,.615,0Z" transform="translate(-196.827 -133.072)" fill="#4d4d4d"/>
          </g>
          <g id="Grupo_112209" data-name="Grupo 112209" transform="translate(55.768 17.791)">
            <path id="Trazado_116639" data-name="Trazado 116639" d="M208.394,138.1l-2.47,1.438a.642.642,0,0,1-.615,0l-3.932-2.273a.225.225,0,0,1-.128-.174v.441a.209.209,0,0,0,.128.174l3.932,2.273a.713.713,0,0,0,.615,0l2.47-1.438a.225.225,0,0,0,.128-.174v-.441A.209.209,0,0,1,208.394,138.1Z" transform="translate(-201.25 -135.4)" fill="#1f2125"/>
            <path id="Trazado_116640" data-name="Trazado 116640" d="M208.4,137.984c.174.093.174.255,0,.36l-2.47,1.438a.643.643,0,0,1-.615,0l-3.932-2.273c-.174-.093-.174-.255,0-.36l2.47-1.438a.643.643,0,0,1,.615,0Z" transform="translate(-201.249 -135.632)" fill="#4d4d4d"/>
          </g>
          <g id="Grupo_112210" data-name="Grupo 112210" transform="translate(60.892 20.749)">
            <path id="Trazado_116641" data-name="Trazado 116641" d="M212.824,140.661l-2.47,1.438a.643.643,0,0,1-.615,0l-3.932-2.273a.225.225,0,0,1-.128-.186v.441a.241.241,0,0,0,.128.186l3.932,2.273a.642.642,0,0,0,.615,0l2.47-1.438a.225.225,0,0,0,.128-.174v-.441A.209.209,0,0,1,212.824,140.661Z" transform="translate(-205.665 -137.95)" fill="#1f2125"/>
            <path id="Trazado_116642" data-name="Trazado 116642" d="M212.815,140.534c.174.1.174.255,0,.36l-2.47,1.438a.643.643,0,0,1-.615,0l-3.932-2.273c-.174-.1-.174-.255,0-.36l2.47-1.438a.642.642,0,0,1,.615,0Z" transform="translate(-205.667 -138.182)" fill="#4d4d4d"/>
          </g>
          <g id="Grupo_112211" data-name="Grupo 112211" transform="translate(66.029 23.706)">
            <path id="Trazado_116643" data-name="Trazado 116643" d="M217.244,143.209l-2.47,1.438a.642.642,0,0,1-.615,0l-3.932-2.273a.225.225,0,0,1-.128-.174v.441a.209.209,0,0,0,.128.174l3.932,2.273a.713.713,0,0,0,.615,0l2.47-1.438a.225.225,0,0,0,.128-.174v-.441A.209.209,0,0,1,217.244,143.209Z" transform="translate(-210.097 -140.498)" fill="#1f2125"/>
            <path id="Trazado_116644" data-name="Trazado 116644" d="M217.245,143.084c.174.093.174.255,0,.36l-2.47,1.438a.642.642,0,0,1-.615,0l-3.932-2.273c-.174-.093-.174-.255,0-.36l2.47-1.438a.642.642,0,0,1,.615,0Z" transform="translate(-210.097 -140.732)" fill="#4d4d4d"/>
          </g>
          <g id="Grupo_112212" data-name="Grupo 112212" transform="translate(71.156 26.663)">
            <path id="Trazado_116645" data-name="Trazado 116645" d="M221.664,145.761l-2.47,1.438a.642.642,0,0,1-.615,0l-3.932-2.273a.225.225,0,0,1-.128-.186v.441a.241.241,0,0,0,.128.186l3.932,2.273a.642.642,0,0,0,.615,0l2.47-1.438a.225.225,0,0,0,.128-.174v-.441A.209.209,0,0,1,221.664,145.761Z" transform="translate(-214.517 -143.05)" fill="#1f2125"/>
            <path id="Trazado_116646" data-name="Trazado 116646" d="M221.665,145.634c.174.1.174.255,0,.36l-2.47,1.438a.642.642,0,0,1-.615,0l-3.932-2.273c-.174-.1-.174-.255,0-.36l2.47-1.438a.643.643,0,0,1,.615,0Z" transform="translate(-214.517 -143.282)" fill="#4d4d4d"/>
          </g>
          <g id="Grupo_112213" data-name="Grupo 112213" transform="translate(76.282 29.633)">
            <path id="Trazado_116647" data-name="Trazado 116647" d="M226.084,148.319l-2.47,1.438a.676.676,0,0,1-.615,0l-3.932-2.273a.225.225,0,0,1-.128-.174v.441a.209.209,0,0,0,.128.174L223,150.2a.676.676,0,0,0,.615,0l2.47-1.438a.225.225,0,0,0,.128-.174v-.441A.209.209,0,0,1,226.084,148.319Z" transform="translate(-218.937 -145.608)" fill="#1f2125"/>
            <path id="Trazado_116648" data-name="Trazado 116648" d="M226.085,148.194c.174.093.174.255,0,.36l-2.47,1.438a.676.676,0,0,1-.615,0l-3.932-2.273c-.174-.093-.174-.255,0-.36l2.47-1.438a.643.643,0,0,1,.615,0Z" transform="translate(-218.938 -145.842)" fill="#4d4d4d"/>
          </g>
          <g id="Grupo_112214" data-name="Grupo 112214" transform="translate(81.408 32.594)">
            <path id="Trazado_116649" data-name="Trazado 116649" d="M230.5,150.871l-2.47,1.438a.643.643,0,0,1-.615,0l-3.932-2.273a.225.225,0,0,1-.128-.186v.441a.241.241,0,0,0,.128.186l3.932,2.273a.713.713,0,0,0,.615,0l2.47-1.438a.225.225,0,0,0,.128-.174V150.7A.209.209,0,0,1,230.5,150.871Z" transform="translate(-223.357 -148.164)" fill="#1f2125"/>
            <path id="Trazado_116650" data-name="Trazado 116650" d="M230.5,150.743c.174.093.174.255,0,.36l-2.47,1.438a.643.643,0,0,1-.615,0l-3.932-2.273c-.174-.093-.174-.255,0-.36l2.47-1.438a.676.676,0,0,1,.615,0Z" transform="translate(-223.358 -148.396)" fill="#4d4d4d"/>
          </g>
          <g id="Grupo_112215" data-name="Grupo 112215" transform="translate(86.746 35.672)">
            <path id="Trazado_116651" data-name="Trazado 116651" d="M227.96,152.921v-.441a.294.294,0,0,0,.174.244v.441A.294.294,0,0,1,227.96,152.921Z" transform="translate(-227.96 -150.822)" fill="#1f2125"/>
            <path id="Trazado_116652" data-name="Trazado 116652" d="M237.544,155.16v.441a.294.294,0,0,1-.174.244V155.4A.294.294,0,0,0,237.544,155.16Z" transform="translate(-226.456 -150.393)" fill="#1f2125"/>
            <path id="Trazado_116653" data-name="Trazado 116653" d="M237.682,155.37l-.012.441-2.25,1.311.012-.441Z" transform="translate(-226.768 -150.36)" fill="#1f2125"/>
            <path id="Trazado_116654" data-name="Trazado 116654" d="M235.753,157.109v.441l-7.643-4.419v-.441Z" transform="translate(-227.936 -150.788)" fill="#1f2125"/>
            <path id="Trazado_116655" data-name="Trazado 116655" d="M235.545,156.5v.441a.959.959,0,0,1-.835,0V156.5A.959.959,0,0,0,235.545,156.5Z" transform="translate(-226.881 -150.179)" fill="#1f2125"/>
            <path id="Trazado_116656" data-name="Trazado 116656" d="M238.874,155.573c.232.128.232.348,0,.487l-2.25,1.311a.959.959,0,0,1-.835,0l-7.655-4.419c-.232-.139-.232-.348,0-.487l2.25-1.311a.887.887,0,0,1,.835,0Z" transform="translate(-227.96 -151.05)" fill="#4d4d4d"/>
          </g>
          <g id="Grupo_112216" data-name="Grupo 112216" transform="translate(30.247 8.087)">
            <path id="Trazado_116657" data-name="Trazado 116657" d="M187.682,129.62l-3.758,2.18a.835.835,0,0,1-.742,0l-3.781-2.18a.256.256,0,0,1-.151-.22v.441a.255.255,0,0,0,.151.22l3.781,2.18a.835.835,0,0,0,.742,0l3.758-2.18a.254.254,0,0,0,.151-.209v-.441A.241.241,0,0,1,187.682,129.62Z" transform="translate(-179.244 -126.924)" fill="#1f2125"/>
            <path id="Trazado_116658" data-name="Trazado 116658" d="M187.682,129.532a.225.225,0,0,1,0,.429l-3.758,2.18a.835.835,0,0,1-.742,0l-3.781-2.18a.225.225,0,0,1,0-.429l3.758-2.18a.835.835,0,0,1,.742,0Z" transform="translate(-179.245 -127.265)" fill="#4d4d4d"/>
          </g>
          <g id="Grupo_112217" data-name="Grupo 112217" transform="translate(15.042 4.999)">
            <path id="Trazado_116659" data-name="Trazado 116659" d="M177.019,128.483l-3.572,2.076a1.008,1.008,0,0,1-.928,0l-6.182-3.572a.332.332,0,0,1-.2-.267v.441a.31.31,0,0,0,.2.267L172.519,131a1.008,1.008,0,0,0,.928,0l3.572-2.076a.316.316,0,0,0,.186-.267v-.441a.316.316,0,0,1-.186.267Z" transform="translate(-166.134 -124.264)" fill="#1f2125"/>
            <path id="Trazado_116660" data-name="Trazado 116660" d="M177.008,128.288c.255.151.255.394,0,.534l-3.572,2.076a1.008,1.008,0,0,1-.928,0l-6.182-3.572c-.255-.151-.255-.394,0-.534l3.572-2.076a1.008,1.008,0,0,1,.928,0Z" transform="translate(-166.135 -124.602)" fill="#4d4d4d"/>
          </g>
          <g id="Grupo_112218" data-name="Grupo 112218" transform="translate(22.887 9.525)">
            <path id="Trazado_116661" data-name="Trazado 116661" d="M181.32,130.86l-3.746,2.18a.835.835,0,0,1-.742,0l-3.781-2.18a.256.256,0,0,1-.151-.22v.441a.255.255,0,0,0,.151.22l3.781,2.18a.835.835,0,0,0,.742,0l3.758-2.18a.254.254,0,0,0,.151-.209v-.441a.241.241,0,0,1-.151.209Z" transform="translate(-172.899 -128.164)" fill="#1f2125"/>
            <path id="Trazado_116662" data-name="Trazado 116662" d="M181.32,130.772a.225.225,0,0,1,0,.429l-3.746,2.18a.835.835,0,0,1-.742,0l-3.781-2.18c-.2-.116-.209-.313,0-.429l3.746-2.18a.835.835,0,0,1,.742,0Z" transform="translate(-172.899 -128.505)" fill="#4d4d4d"/>
          </g>
          <g id="Grupo_112219" data-name="Grupo 112219" transform="translate(9.98 7.994)">
            <path id="Trazado_116663" data-name="Trazado 116663" d="M173.867,131.818l-3.479,2.03a1.106,1.106,0,0,1-1.009,0l-7.4-4.268a.355.355,0,0,1-.209-.29v.441a.355.355,0,0,0,.209.29l7.4,4.268a1.106,1.106,0,0,0,1.009,0l3.479-2.03a.355.355,0,0,0,.209-.29v-.441A.355.355,0,0,1,173.867,131.818Z" transform="translate(-161.77 -126.849)" fill="#1f2125"/>
            <path id="Trazado_116664" data-name="Trazado 116664" d="M173.867,131.575c.278.162.278.429,0,.58l-3.479,2.03a1.106,1.106,0,0,1-1.009,0l-7.4-4.268c-.278-.162-.278-.429,0-.58l3.491-2.03a1.106,1.106,0,0,1,1.009,0l7.4,4.268Z" transform="translate(-161.77 -127.185)" fill="#4d4d4d"/>
          </g>
          <g id="Grupo_112220" data-name="Grupo 112220" transform="translate(35.362 11.044)">
            <path id="Trazado_116665" data-name="Trazado 116665" d="M192.092,132.17l-3.758,2.18a.835.835,0,0,1-.742,0l-3.781-2.18a.256.256,0,0,1-.151-.22v.441a.255.255,0,0,0,.151.22l3.781,2.18a.835.835,0,0,0,.742,0l3.758-2.18a.254.254,0,0,0,.151-.209v-.441A.241.241,0,0,1,192.092,132.17Z" transform="translate(-183.654 -129.474)" fill="#1f2125"/>
            <path id="Trazado_116666" data-name="Trazado 116666" d="M192.092,132.082a.225.225,0,0,1,0,.429l-3.758,2.18a.835.835,0,0,1-.742,0l-3.781-2.18a.225.225,0,0,1,0-.429l3.758-2.18a.835.835,0,0,1,.742,0Z" transform="translate(-183.655 -129.815)" fill="#4d4d4d"/>
          </g>
          <g id="Grupo_112221" data-name="Grupo 112221" transform="translate(28.032 12.505)">
            <path id="Trazado_116667" data-name="Trazado 116667" d="M185.782,133.43l-3.758,2.18a.835.835,0,0,1-.742,0l-3.781-2.18a.256.256,0,0,1-.151-.22v.441a.255.255,0,0,0,.151.22l3.781,2.18a.835.835,0,0,0,.742,0l3.746-2.18a.254.254,0,0,0,.151-.209v-.441a.241.241,0,0,1-.151.209Z" transform="translate(-177.333 -130.734)" fill="#1f2125"/>
            <path id="Trazado_116668" data-name="Trazado 116668" d="M185.772,133.342a.225.225,0,0,1,0,.429l-3.758,2.18a.835.835,0,0,1-.742,0l-3.781-2.18a.225.225,0,0,1,0-.429l3.746-2.18a.835.835,0,0,1,.742,0l3.781,2.18Z" transform="translate(-177.335 -131.075)" fill="#4d4d4d"/>
          </g>
          <g id="Grupo_112222" data-name="Grupo 112222" transform="translate(19.094 13.166)">
            <path id="Trazado_116669" data-name="Trazado 116669" d="M178.05,134l-3.746,2.18a.835.835,0,0,1-.742,0L169.781,134a.254.254,0,0,1-.151-.209v.441a.241.241,0,0,0,.151.209l3.781,2.18a.835.835,0,0,0,.742,0l3.746-2.18a.254.254,0,0,0,.151-.209v-.441A.241.241,0,0,1,178.05,134Z" transform="translate(-169.629 -131.302)" fill="#1f2125"/>
            <path id="Trazado_116670" data-name="Trazado 116670" d="M178.05,133.912a.225.225,0,0,1,0,.429l-3.746,2.18a.835.835,0,0,1-.742,0l-3.781-2.18c-.2-.116-.209-.313,0-.429l3.758-2.18a.835.835,0,0,1,.742,0l3.781,2.18Z" transform="translate(-169.629 -131.645)" fill="#4d4d4d"/>
          </g>
          <g id="Grupo_112223" data-name="Grupo 112223" transform="translate(5.004 10.818)">
            <path id="Trazado_116671" data-name="Trazado 116671" d="M167.222,132.815l-3.642,2.122a.911.911,0,0,1-.847,0L157.654,132a.309.309,0,0,1-.174-.244v.441a.294.294,0,0,0,.174.244l5.08,2.934a.911.911,0,0,0,.847,0l3.642-2.122a.309.309,0,0,0,.174-.244v-.441A.294.294,0,0,1,167.222,132.815Z" transform="translate(-157.48 -129.278)" fill="#1f2125"/>
            <path id="Trazado_116672" data-name="Trazado 116672" d="M167.222,132.659c.232.139.232.36,0,.487l-3.642,2.122a.911.911,0,0,1-.847,0l-5.08-2.934c-.232-.139-.232-.348,0-.487l3.642-2.122a.911.911,0,0,1,.847,0Z" transform="translate(-157.48 -129.62)" fill="#4d4d4d"/>
          </g>
          <g id="Grupo_112224" data-name="Grupo 112224" transform="translate(11.498 14.639)">
            <path id="Trazado_116673" data-name="Trazado 116673" d="M171.5,135.269l-3.746,2.18a.835.835,0,0,1-.742,0l-3.781-2.18a.254.254,0,0,1-.151-.209v.441a.241.241,0,0,0,.151.209l3.781,2.18a.835.835,0,0,0,.742,0l3.746-2.18a.254.254,0,0,0,.151-.209v-.441A.241.241,0,0,1,171.5,135.269Z" transform="translate(-163.079 -132.572)" fill="#1f2125"/>
            <path id="Trazado_116674" data-name="Trazado 116674" d="M171.5,135.182a.225.225,0,0,1,0,.429l-3.746,2.18a.835.835,0,0,1-.742,0l-3.781-2.18c-.2-.116-.209-.313,0-.429l3.758-2.18a.835.835,0,0,1,.742,0l3.781,2.18Z" transform="translate(-163.079 -132.915)" fill="#4d4d4d"/>
          </g>
          <g id="Grupo_112225" data-name="Grupo 112225" transform="translate(0 13.7)">
            <path id="Trazado_116675" data-name="Trazado 116675" d="M161.59,134.449l-3.758,2.18a.811.811,0,0,1-.731,0l-3.781-2.18a.254.254,0,0,1-.151-.209v.441a.241.241,0,0,0,.151.209l3.781,2.18a.811.811,0,0,0,.731,0l3.758-2.18a.254.254,0,0,0,.151-.209v-.441A.241.241,0,0,1,161.59,134.449Z" transform="translate(-153.164 -131.764)" fill="#1f2125"/>
            <path id="Trazado_116676" data-name="Trazado 116676" d="M161.591,134.372c.2.116.209.313,0,.429l-3.758,2.18a.811.811,0,0,1-.731,0l-3.781-2.18a.225.225,0,0,1,0-.429l3.758-2.18a.811.811,0,0,1,.731,0Z" transform="translate(-153.165 -132.105)" fill="#4d4d4d"/>
          </g>
          <g id="Grupo_112226" data-name="Grupo 112226" transform="translate(5.316 16.773)">
            <path id="Trazado_116677" data-name="Trazado 116677" d="M166.192,137.11l-3.758,2.18a.835.835,0,0,1-.742,0l-3.781-2.18a.256.256,0,0,1-.151-.22v.441a.255.255,0,0,0,.151.22l3.781,2.18a.835.835,0,0,0,.742,0l3.758-2.18a.254.254,0,0,0,.151-.209V136.9A.241.241,0,0,1,166.192,137.11Z" transform="translate(-157.747 -134.414)" fill="#1f2125"/>
            <path id="Trazado_116678" data-name="Trazado 116678" d="M166.182,137.022a.225.225,0,0,1,0,.429l-3.758,2.18a.835.835,0,0,1-.742,0l-3.781-2.18c-.2-.116-.209-.313,0-.429l3.758-2.18a.835.835,0,0,1,.742,0Z" transform="translate(-157.749 -134.755)" fill="#4d4d4d"/>
          </g>
          <g id="Grupo_112227" data-name="Grupo 112227" transform="translate(40.481 14.001)">
            <path id="Trazado_116679" data-name="Trazado 116679" d="M196.5,134.709l-3.758,2.18a.835.835,0,0,1-.742,0l-3.781-2.18a.254.254,0,0,1-.151-.209v.441a.241.241,0,0,0,.151.209L192,137.33a.835.835,0,0,0,.742,0l3.758-2.18a.254.254,0,0,0,.151-.209V134.5A.241.241,0,0,1,196.5,134.709Z" transform="translate(-188.069 -132.024)" fill="#1f2125"/>
            <path id="Trazado_116680" data-name="Trazado 116680" d="M196.5,134.632a.225.225,0,0,1,0,.429l-3.758,2.18a.835.835,0,0,1-.742,0l-3.781-2.18c-.2-.116-.209-.313,0-.429l3.758-2.18a.811.811,0,0,1,.731,0l3.781,2.18Z" transform="translate(-188.069 -132.365)" fill="#4d4d4d"/>
          </g>
          <g id="Grupo_112228" data-name="Grupo 112228" transform="translate(33.216 15.486)">
            <path id="Trazado_116681" data-name="Trazado 116681" d="M190.23,136l-3.746,2.18a.835.835,0,0,1-.742,0L181.961,136a.255.255,0,0,1-.151-.22v.441a.256.256,0,0,0,.151.22l3.781,2.18a.835.835,0,0,0,.742,0l3.746-2.18a.254.254,0,0,0,.151-.209v-.441A.241.241,0,0,1,190.23,136Z" transform="translate(-181.804 -133.304)" fill="#1f2125"/>
            <path id="Trazado_116682" data-name="Trazado 116682" d="M190.231,135.912a.225.225,0,0,1,0,.429l-3.746,2.18a.835.835,0,0,1-.742,0l-3.781-2.18a.225.225,0,0,1,0-.429l3.758-2.18a.835.835,0,0,1,.742,0l3.781,2.18Z" transform="translate(-181.805 -133.645)" fill="#4d4d4d"/>
          </g>
          <g id="Grupo_112229" data-name="Grupo 112229" transform="translate(24.216 16.135)">
            <path id="Trazado_116683" data-name="Trazado 116683" d="M182.492,136.559l-3.758,2.18a.835.835,0,0,1-.742,0l-3.781-2.18a.254.254,0,0,1-.151-.209v.441a.241.241,0,0,0,.151.209l3.781,2.18a.835.835,0,0,0,.742,0l3.758-2.18a.254.254,0,0,0,.151-.209v-.441A.241.241,0,0,1,182.492,136.559Z" transform="translate(-174.043 -133.862)" fill="#1f2125"/>
            <path id="Trazado_116684" data-name="Trazado 116684" d="M182.482,136.472a.225.225,0,0,1,0,.429l-3.758,2.18a.835.835,0,0,1-.742,0L174.2,136.9a.225.225,0,0,1,0-.429l3.746-2.18a.835.835,0,0,1,.742,0l3.781,2.18Z" transform="translate(-174.045 -134.205)" fill="#4d4d4d"/>
          </g>
          <g id="Grupo_112230" data-name="Grupo 112230" transform="translate(16.612 17.585)">
            <path id="Trazado_116685" data-name="Trazado 116685" d="M175.91,137.809l-3.746,2.18a.835.835,0,0,1-.742,0l-3.781-2.18a.254.254,0,0,1-.151-.209v.441a.241.241,0,0,0,.151.209l3.781,2.18a.835.835,0,0,0,.742,0l3.746-2.18a.254.254,0,0,0,.151-.209V137.6A.241.241,0,0,1,175.91,137.809Z" transform="translate(-167.489 -135.112)" fill="#1f2125"/>
            <path id="Trazado_116686" data-name="Trazado 116686" d="M175.91,137.722c.2.116.209.313,0,.429l-3.746,2.18a.835.835,0,0,1-.742,0l-3.781-2.18c-.2-.116-.209-.313,0-.429l3.746-2.18a.835.835,0,0,1,.742,0Z" transform="translate(-167.489 -135.455)" fill="#4d4d4d"/>
          </g>
          <g id="Grupo_112231" data-name="Grupo 112231" transform="translate(10.477 19.754)">
            <path id="Trazado_116687" data-name="Trazado 116687" d="M170.642,139.68l-3.758,2.18a.835.835,0,0,1-.742,0l-3.781-2.18a.255.255,0,0,1-.151-.22v.441a.255.255,0,0,0,.151.22l3.781,2.18a.835.835,0,0,0,.742,0l3.758-2.18a.254.254,0,0,0,.151-.209v-.441A.241.241,0,0,1,170.642,139.68Z" transform="translate(-162.197 -136.984)" fill="#1f2125"/>
            <path id="Trazado_116688" data-name="Trazado 116688" d="M170.632,139.592a.225.225,0,0,1,0,.429l-3.758,2.18a.835.835,0,0,1-.742,0l-3.781-2.18c-.2-.116-.209-.313,0-.429l3.758-2.18a.835.835,0,0,1,.742,0Z" transform="translate(-162.199 -137.325)" fill="#4d4d4d"/>
          </g>
          <g id="Grupo_112232" data-name="Grupo 112232" transform="translate(45.603 16.947)">
            <path id="Trazado_116689" data-name="Trazado 116689" d="M200.91,137.259l-3.758,2.18a.811.811,0,0,1-.731,0l-3.781-2.18a.254.254,0,0,1-.151-.209v.441a.241.241,0,0,0,.151.209l3.781,2.18a.811.811,0,0,0,.731,0l3.758-2.18a.254.254,0,0,0,.151-.209v-.441A.241.241,0,0,1,200.91,137.259Z" transform="translate(-192.484 -134.562)" fill="#1f2125"/>
            <path id="Trazado_116690" data-name="Trazado 116690" d="M200.911,137.172a.225.225,0,0,1,0,.429l-3.758,2.18a.811.811,0,0,1-.731,0l-3.781-2.18a.225.225,0,0,1,0-.429l3.758-2.18a.811.811,0,0,1,.731,0Z" transform="translate(-192.485 -134.905)" fill="#4d4d4d"/>
          </g>
          <g id="Grupo_112233" data-name="Grupo 112233" transform="translate(38.382 18.467)">
            <path id="Trazado_116691" data-name="Trazado 116691" d="M194.68,138.58l-3.746,2.18a.835.835,0,0,1-.742,0l-3.781-2.18a.255.255,0,0,1-.151-.22v.441a.256.256,0,0,0,.151.22l3.781,2.18a.835.835,0,0,0,.742,0l3.746-2.18a.254.254,0,0,0,.151-.209v-.441A.241.241,0,0,1,194.68,138.58Z" transform="translate(-186.259 -135.872)" fill="#1f2125"/>
            <path id="Trazado_116692" data-name="Trazado 116692" d="M194.68,138.482a.225.225,0,0,1,0,.429l-3.746,2.18a.835.835,0,0,1-.742,0l-3.781-2.18c-.2-.116-.209-.313,0-.429l3.758-2.18a.835.835,0,0,1,.742,0l3.781,2.18Z" transform="translate(-186.259 -136.215)" fill="#4d4d4d"/>
          </g>
          <g id="Grupo_112234" data-name="Grupo 112234" transform="translate(29.382 19.105)">
            <path id="Trazado_116693" data-name="Trazado 116693" d="M186.92,139.119l-3.746,2.18a.835.835,0,0,1-.742,0l-3.781-2.18a.254.254,0,0,1-.151-.209v.441a.241.241,0,0,0,.151.209l3.781,2.18a.835.835,0,0,0,.742,0l3.746-2.18a.254.254,0,0,0,.151-.209v-.441A.241.241,0,0,1,186.92,139.119Z" transform="translate(-178.499 -136.422)" fill="#1f2125"/>
            <path id="Trazado_116694" data-name="Trazado 116694" d="M186.92,139.032a.225.225,0,0,1,0,.429l-3.746,2.18a.835.835,0,0,1-.742,0l-3.781-2.18c-.2-.116-.209-.313,0-.429l3.758-2.18a.835.835,0,0,1,.742,0l3.781,2.18Z" transform="translate(-178.499 -136.765)" fill="#4d4d4d"/>
          </g>
          <g id="Grupo_112235" data-name="Grupo 112235" transform="translate(21.723 20.543)">
            <path id="Trazado_116695" data-name="Trazado 116695" d="M180.32,140.36l-3.746,2.18a.835.835,0,0,1-.742,0l-3.781-2.18a.256.256,0,0,1-.151-.22v.441a.269.269,0,0,0,.151.22l3.781,2.18a.835.835,0,0,0,.742,0l3.746-2.18a.254.254,0,0,0,.151-.209v-.441A.241.241,0,0,1,180.32,140.36Z" transform="translate(-171.894 -137.664)" fill="#1f2125"/>
            <path id="Trazado_116696" data-name="Trazado 116696" d="M180.321,140.272a.225.225,0,0,1,0,.429l-3.746,2.18a.835.835,0,0,1-.742,0l-3.781-2.18a.225.225,0,0,1,0-.429l3.746-2.18a.835.835,0,0,1,.742,0Z" transform="translate(-171.895 -138.005)" fill="#4d4d4d"/>
          </g>
          <g id="Grupo_112236" data-name="Grupo 112236" transform="translate(15.674 22.749)">
            <path id="Trazado_116697" data-name="Trazado 116697" d="M176.237,142.969l-3.665,2.122a.959.959,0,0,1-.835,0l-4.883-2.818a.294.294,0,0,1-.174-.244v.441a.294.294,0,0,0,.174.244l4.883,2.818a.959.959,0,0,0,.835,0l3.665-2.122a.294.294,0,0,0,.174-.244v-.441A.309.309,0,0,1,176.237,142.969Z" transform="translate(-166.68 -139.568)" fill="#1f2125"/>
            <path id="Trazado_116698" data-name="Trazado 116698" d="M176.237,142.821a.249.249,0,0,1,0,.476l-3.665,2.122a.959.959,0,0,1-.835,0l-4.883-2.818a.249.249,0,0,1,0-.476L170.519,140a.959.959,0,0,1,.835,0Z" transform="translate(-166.68 -139.908)" fill="#4d4d4d"/>
          </g>
          <g id="Grupo_112237" data-name="Grupo 112237" transform="translate(34.509 22.074)">
            <path id="Trazado_116699" data-name="Trazado 116699" d="M191.352,141.679l-3.758,2.18a.835.835,0,0,1-.742,0l-3.781-2.18a.254.254,0,0,1-.151-.209v.441a.241.241,0,0,0,.151.209l3.781,2.18a.835.835,0,0,0,.742,0l3.746-2.18a.254.254,0,0,0,.151-.209v-.441a.241.241,0,0,1-.151.209Z" transform="translate(-182.92 -138.982)" fill="#1f2125"/>
            <path id="Trazado_116700" data-name="Trazado 116700" d="M191.351,141.592a.23.23,0,0,1,0,.429L187.6,144.2a.835.835,0,0,1-.742,0l-3.781-2.18a.225.225,0,0,1,0-.429l3.746-2.18a.835.835,0,0,1,.742,0Z" transform="translate(-182.919 -139.325)" fill="#4d4d4d"/>
          </g>
          <g id="Grupo_112238" data-name="Grupo 112238" transform="translate(26.826 23.5)">
            <path id="Trazado_116701" data-name="Trazado 116701" d="M184.742,142.91l-3.758,2.18a.835.835,0,0,1-.742,0l-3.781-2.18a.256.256,0,0,1-.151-.22v.441a.269.269,0,0,0,.151.22l3.781,2.18a.835.835,0,0,0,.742,0l3.746-2.18a.254.254,0,0,0,.151-.209V142.7a.241.241,0,0,1-.151.209Z" transform="translate(-176.293 -140.214)" fill="#1f2125"/>
            <path id="Trazado_116702" data-name="Trazado 116702" d="M184.732,142.822a.225.225,0,0,1,0,.429l-3.758,2.18a.835.835,0,0,1-.742,0l-3.781-2.18a.225.225,0,0,1,0-.429l3.746-2.18a.835.835,0,0,1,.742,0l3.781,2.18Z" transform="translate(-176.295 -140.555)" fill="#4d4d4d"/>
          </g>
          <g id="Grupo_112239" data-name="Grupo 112239" transform="translate(50.717 19.905)">
            <path id="Trazado_116703" data-name="Trazado 116703" d="M205.32,139.809l-3.758,2.18a.811.811,0,0,1-.731,0l-3.781-2.18a.254.254,0,0,1-.151-.209v.441a.241.241,0,0,0,.151.209l3.781,2.18a.811.811,0,0,0,.731,0l3.758-2.18a.254.254,0,0,0,.151-.209V139.6A.241.241,0,0,1,205.32,139.809Z" transform="translate(-196.894 -137.112)" fill="#1f2125"/>
            <path id="Trazado_116704" data-name="Trazado 116704" d="M205.321,139.722c.2.116.209.313,0,.429l-3.758,2.18a.811.811,0,0,1-.731,0l-3.781-2.18a.225.225,0,0,1,0-.429l3.758-2.18a.811.811,0,0,1,.731,0Z" transform="translate(-196.895 -137.455)" fill="#4d4d4d"/>
          </g>
          <g id="Grupo_112240" data-name="Grupo 112240" transform="translate(43.543 21.459)">
            <path id="Trazado_116705" data-name="Trazado 116705" d="M199.13,141.15l-3.746,2.18a.835.835,0,0,1-.742,0l-3.781-2.18a.256.256,0,0,1-.151-.22v.441a.256.256,0,0,0,.151.22l3.781,2.18a.835.835,0,0,0,.742,0l3.746-2.18a.254.254,0,0,0,.151-.209v-.441A.241.241,0,0,1,199.13,141.15Z" transform="translate(-190.709 -138.454)" fill="#1f2125"/>
            <path id="Trazado_116706" data-name="Trazado 116706" d="M199.13,141.062a.225.225,0,0,1,0,.429l-3.746,2.18a.835.835,0,0,1-.742,0l-3.781-2.18c-.2-.116-.209-.313,0-.429l3.746-2.18a.835.835,0,0,1,.742,0Z" transform="translate(-190.709 -138.795)" fill="#4d4d4d"/>
          </g>
          <g id="Grupo_112241" data-name="Grupo 112241" transform="translate(39.657 25.043)">
            <path id="Trazado_116707" data-name="Trazado 116707" d="M195.78,144.239l-3.746,2.18a.835.835,0,0,1-.742,0l-3.781-2.18a.254.254,0,0,1-.151-.209v.441a.241.241,0,0,0,.151.209l3.781,2.18a.835.835,0,0,0,.742,0l3.746-2.18a.254.254,0,0,0,.151-.209v-.441A.241.241,0,0,1,195.78,144.239Z" transform="translate(-187.359 -141.542)" fill="#1f2125"/>
            <path id="Trazado_116708" data-name="Trazado 116708" d="M195.78,144.152c.209.116.2.313,0,.429l-3.746,2.18a.835.835,0,0,1-.742,0l-3.781-2.18c-.2-.116-.209-.313,0-.429l3.758-2.18a.835.835,0,0,1,.742,0l3.781,2.18Z" transform="translate(-187.359 -141.885)" fill="#4d4d4d"/>
          </g>
          <g id="Grupo_112242" data-name="Grupo 112242" transform="translate(31.952 26.446)">
            <path id="Trazado_116709" data-name="Trazado 116709" d="M189.15,145.45l-3.746,2.18a.835.835,0,0,1-.742,0l-3.781-2.18a.256.256,0,0,1-.151-.22v.441a.269.269,0,0,0,.151.22l3.781,2.18a.835.835,0,0,0,.742,0l3.758-2.18a.254.254,0,0,0,.151-.209v-.441a.241.241,0,0,1-.151.209Z" transform="translate(-180.713 -142.754)" fill="#1f2125"/>
            <path id="Trazado_116710" data-name="Trazado 116710" d="M189.141,145.362a.225.225,0,0,1,0,.429l-3.746,2.18a.835.835,0,0,1-.742,0l-3.781-2.18a.225.225,0,0,1,0-.429l3.758-2.18a.835.835,0,0,1,.742,0l3.781,2.18Z" transform="translate(-180.715 -143.095)" fill="#4d4d4d"/>
          </g>
          <g id="Grupo_112243" data-name="Grupo 112243" transform="translate(55.832 22.862)">
            <path id="Trazado_116711" data-name="Trazado 116711" d="M209.73,142.35l-3.758,2.18a.811.811,0,0,1-.731,0l-3.781-2.18a.256.256,0,0,1-.151-.22v.441a.269.269,0,0,0,.151.22l3.781,2.18a.811.811,0,0,0,.731,0l3.758-2.18a.254.254,0,0,0,.151-.209v-.441A.241.241,0,0,1,209.73,142.35Z" transform="translate(-201.304 -139.665)" fill="#1f2125"/>
            <path id="Trazado_116712" data-name="Trazado 116712" d="M209.731,142.272c.2.116.209.313,0,.429l-3.758,2.18a.811.811,0,0,1-.731,0l-3.781-2.18a.225.225,0,0,1,0-.429l3.758-2.18a.835.835,0,0,1,.742,0l3.781,2.18Z" transform="translate(-201.305 -140.005)" fill="#4d4d4d"/>
          </g>
          <g id="Grupo_112244" data-name="Grupo 112244" transform="translate(48.704 24.44)">
            <path id="Trazado_116713" data-name="Trazado 116713" d="M203.59,143.72l-3.746,2.18a.835.835,0,0,1-.742,0l-3.781-2.18a.256.256,0,0,1-.151-.22v.441a.255.255,0,0,0,.151.22l3.781,2.18a.835.835,0,0,0,.742,0l3.758-2.18a.254.254,0,0,0,.151-.209v-.441a.241.241,0,0,1-.151.209Z" transform="translate(-195.157 -141.024)" fill="#1f2125"/>
            <path id="Trazado_116714" data-name="Trazado 116714" d="M203.58,143.632a.225.225,0,0,1,0,.429l-3.746,2.18a.835.835,0,0,1-.742,0l-3.781-2.18c-.2-.116-.209-.313,0-.429l3.758-2.18a.835.835,0,0,1,.742,0l3.781,2.18Z" transform="translate(-195.159 -141.365)" fill="#4d4d4d"/>
          </g>
          <g id="Grupo_112245" data-name="Grupo 112245" transform="translate(44.779 28.012)">
            <path id="Trazado_116715" data-name="Trazado 116715" d="M200.21,146.8l-3.746,2.18a.835.835,0,0,1-.742,0l-3.781-2.18a.254.254,0,0,1-.151-.209v.441a.241.241,0,0,0,.151.209l3.781,2.18a.835.835,0,0,0,.742,0l3.758-2.18a.254.254,0,0,0,.151-.209v-.441a.241.241,0,0,1-.151.209Z" transform="translate(-191.773 -144.102)" fill="#1f2125"/>
            <path id="Trazado_116716" data-name="Trazado 116716" d="M200.212,146.712a.23.23,0,0,1,0,.429l-3.758,2.18a.835.835,0,0,1-.742,0l-3.781-2.18a.225.225,0,0,1,0-.429l3.746-2.18a.835.835,0,0,1,.742,0l3.781,2.18Z" transform="translate(-191.775 -144.445)" fill="#4d4d4d"/>
          </g>
          <g id="Grupo_112246" data-name="Grupo 112246" transform="translate(37.071 29.403)">
            <path id="Trazado_116717" data-name="Trazado 116717" d="M193.56,148l-3.746,2.18a.835.835,0,0,1-.742,0L185.291,148a.256.256,0,0,1-.151-.22v.441a.255.255,0,0,0,.151.22l3.781,2.18a.835.835,0,0,0,.742,0l3.746-2.18a.254.254,0,0,0,.151-.209v-.441A.241.241,0,0,1,193.56,148Z" transform="translate(-185.127 -145.304)" fill="#1f2125"/>
            <path id="Trazado_116718" data-name="Trazado 116718" d="M193.55,147.912a.225.225,0,0,1,0,.429l-3.746,2.18a.835.835,0,0,1-.742,0l-3.781-2.18c-.2-.116-.209-.313,0-.429l3.746-2.18a.835.835,0,0,1,.742,0Z" transform="translate(-185.129 -145.645)" fill="#4d4d4d"/>
          </g>
          <g id="Grupo_112247" data-name="Grupo 112247" transform="translate(60.935 25.808)">
            <path id="Trazado_116719" data-name="Trazado 116719" d="M214.152,144.9l-3.758,2.18a.835.835,0,0,1-.742,0l-3.781-2.18a.255.255,0,0,1-.151-.22v.441a.269.269,0,0,0,.151.22l3.781,2.18a.835.835,0,0,0,.742,0l3.758-2.18a.254.254,0,0,0,.151-.209v-.441A.241.241,0,0,1,214.152,144.9Z" transform="translate(-205.703 -142.204)" fill="#1f2125"/>
            <path id="Trazado_116720" data-name="Trazado 116720" d="M214.142,144.812c.2.116.209.313,0,.429l-3.758,2.18a.835.835,0,0,1-.742,0l-3.781-2.18a.225.225,0,0,1,0-.429l3.758-2.18a.835.835,0,0,1,.742,0Z" transform="translate(-205.705 -142.545)" fill="#4d4d4d"/>
          </g>
          <g id="Grupo_112248" data-name="Grupo 112248" transform="translate(53.872 27.42)">
            <path id="Trazado_116721" data-name="Trazado 116721" d="M208.04,146.29l-3.746,2.18a.835.835,0,0,1-.742,0l-3.781-2.18a.256.256,0,0,1-.151-.22v.441a.255.255,0,0,0,.151.22l3.781,2.18a.835.835,0,0,0,.742,0l3.758-2.18a.254.254,0,0,0,.151-.209v-.441a.241.241,0,0,1-.151.209Z" transform="translate(-199.614 -143.594)" fill="#1f2125"/>
            <path id="Trazado_116722" data-name="Trazado 116722" d="M208.041,146.2a.225.225,0,0,1,0,.429l-3.746,2.18a.835.835,0,0,1-.742,0l-3.781-2.18a.225.225,0,0,1,0-.429l3.746-2.18a.835.835,0,0,1,.742,0Z" transform="translate(-199.615 -143.935)" fill="#4d4d4d"/>
          </g>
          <g id="Grupo_112249" data-name="Grupo 112249" transform="translate(49.933 30.981)">
            <path id="Trazado_116723" data-name="Trazado 116723" d="M204.64,149.359l-3.746,2.18a.835.835,0,0,1-.742,0l-3.781-2.18a.254.254,0,0,1-.151-.209v.441a.241.241,0,0,0,.151.209l3.781,2.18a.835.835,0,0,0,.742,0l3.746-2.18a.254.254,0,0,0,.151-.209v-.441A.241.241,0,0,1,204.64,149.359Z" transform="translate(-196.219 -146.662)" fill="#1f2125"/>
            <path id="Trazado_116724" data-name="Trazado 116724" d="M204.64,149.272c.209.116.2.313,0,.429l-3.746,2.18a.835.835,0,0,1-.742,0l-3.781-2.18c-.2-.116-.209-.313,0-.429l3.746-2.18a.835.835,0,0,1,.742,0Z" transform="translate(-196.219 -147.005)" fill="#4d4d4d"/>
          </g>
          <g id="Grupo_112250" data-name="Grupo 112250" transform="translate(42.197 32.361)">
            <path id="Trazado_116725" data-name="Trazado 116725" d="M197.97,150.55l-3.746,2.18a.835.835,0,0,1-.742,0l-3.781-2.18a.256.256,0,0,1-.151-.22v.441a.255.255,0,0,0,.151.22l3.781,2.18a.835.835,0,0,0,.742,0l3.746-2.18a.254.254,0,0,0,.151-.209v-.441A.241.241,0,0,1,197.97,150.55Z" transform="translate(-189.549 -147.854)" fill="#1f2125"/>
            <path id="Trazado_116726" data-name="Trazado 116726" d="M197.97,150.462a.225.225,0,0,1,0,.429l-3.746,2.18a.835.835,0,0,1-.742,0l-3.781-2.18c-.2-.116-.209-.313,0-.429l3.746-2.18a.835.835,0,0,1,.742,0Z" transform="translate(-189.549 -148.195)" fill="#4d4d4d"/>
          </g>
          <g id="Grupo_112251" data-name="Grupo 112251" transform="translate(66.05 28.766)">
            <path id="Trazado_116727" data-name="Trazado 116727" d="M218.562,147.45l-3.758,2.18a.835.835,0,0,1-.742,0l-3.781-2.18a.255.255,0,0,1-.151-.22v.441a.255.255,0,0,0,.151.22l3.781,2.18a.835.835,0,0,0,.742,0l3.758-2.18a.254.254,0,0,0,.151-.209v-.441A.241.241,0,0,1,218.562,147.45Z" transform="translate(-210.113 -144.754)" fill="#1f2125"/>
            <path id="Trazado_116728" data-name="Trazado 116728" d="M218.552,147.362c.2.116.209.313,0,.429l-3.758,2.18a.835.835,0,0,1-.742,0l-3.781-2.18a.225.225,0,0,1,0-.429l3.758-2.18a.835.835,0,0,1,.742,0Z" transform="translate(-210.115 -145.095)" fill="#4d4d4d"/>
          </g>
          <g id="Grupo_112252" data-name="Grupo 112252" transform="translate(59.033 30.401)">
            <path id="Trazado_116729" data-name="Trazado 116729" d="M212.49,148.86l-3.746,2.18a.835.835,0,0,1-.742,0l-3.781-2.18a.255.255,0,0,1-.151-.22v.441a.256.256,0,0,0,.151.22l3.781,2.18a.835.835,0,0,0,.742,0l3.746-2.18a.254.254,0,0,0,.151-.209v-.441A.241.241,0,0,1,212.49,148.86Z" transform="translate(-204.064 -146.164)" fill="#1f2125"/>
            <path id="Trazado_116730" data-name="Trazado 116730" d="M212.491,148.772a.225.225,0,0,1,0,.429l-3.746,2.18a.835.835,0,0,1-.742,0l-3.781-2.18a.225.225,0,0,1,0-.429l3.746-2.18a.835.835,0,0,1,.742,0Z" transform="translate(-204.065 -146.505)" fill="#4d4d4d"/>
          </g>
          <g id="Grupo_112253" data-name="Grupo 112253" transform="translate(55.067 33.95)">
            <path id="Trazado_116731" data-name="Trazado 116731" d="M209.082,151.909l-3.758,2.18a.835.835,0,0,1-.742,0l-3.781-2.18a.254.254,0,0,1-.151-.209v.441a.241.241,0,0,0,.151.209l3.781,2.18a.835.835,0,0,0,.742,0l3.758-2.18a.254.254,0,0,0,.151-.209V151.7A.241.241,0,0,1,209.082,151.909Z" transform="translate(-200.644 -149.224)" fill="#1f2125"/>
            <path id="Trazado_116732" data-name="Trazado 116732" d="M209.082,151.832a.23.23,0,0,1,0,.429l-3.758,2.18a.835.835,0,0,1-.742,0l-3.781-2.18a.225.225,0,0,1,0-.429l3.746-2.18a.835.835,0,0,1,.742,0l3.781,2.18Z" transform="translate(-200.645 -149.565)" fill="#4d4d4d"/>
          </g>
          <g id="Grupo_112254" data-name="Grupo 112254" transform="translate(47.296 35.307)">
            <path id="Trazado_116733" data-name="Trazado 116733" d="M202.382,153.089l-3.758,2.18a.835.835,0,0,1-.742,0l-3.781-2.18a.254.254,0,0,1-.151-.209v.441a.241.241,0,0,0,.151.209l3.781,2.18a.835.835,0,0,0,.742,0l3.746-2.18a.254.254,0,0,0,.151-.209v-.441a.241.241,0,0,1-.151.209Z" transform="translate(-193.944 -150.392)" fill="#1f2125"/>
            <path id="Trazado_116734" data-name="Trazado 116734" d="M202.382,153a.225.225,0,0,1,0,.429l-3.758,2.18a.835.835,0,0,1-.742,0l-3.781-2.18a.225.225,0,0,1,0-.429l3.746-2.18a.835.835,0,0,1,.742,0l3.781,2.18Z" transform="translate(-193.945 -150.735)" fill="#4d4d4d"/>
          </g>
          <g id="Grupo_112255" data-name="Grupo 112255" transform="translate(22.256 26.556)">
            <path id="Trazado_116735" data-name="Trazado 116735" d="M200.612,157.59l-2.749,1.6a1.916,1.916,0,0,1-1.74,0l-23.393-13.5a.626.626,0,0,1-.371-.51v.441a.61.61,0,0,0,.36.51l23.393,13.5a1.916,1.916,0,0,0,1.74,0l2.749-1.6a.609.609,0,0,0,.36-.5v-.441a.6.6,0,0,1-.36.5Z" transform="translate(-172.354 -142.872)" fill="#1f2125"/>
            <path id="Trazado_116736" data-name="Trazado 116736" d="M200.6,156.9a.531.531,0,0,1,0,1.009l-2.749,1.6a1.916,1.916,0,0,1-1.74,0l-23.393-13.5a.531.531,0,0,1,0-1.009l2.749-1.6a1.917,1.917,0,0,1,1.74,0Z" transform="translate(-172.355 -143.19)" fill="#4d4d4d"/>
          </g>
          <g id="Grupo_112256" data-name="Grupo 112256" transform="translate(71.164 31.723)">
            <path id="Trazado_116737" data-name="Trazado 116737" d="M222.972,149.99l-3.758,2.18a.835.835,0,0,1-.742,0l-3.781-2.18a.255.255,0,0,1-.151-.22v.441a.255.255,0,0,0,.151.22l3.781,2.18a.835.835,0,0,0,.742,0l3.758-2.18a.254.254,0,0,0,.151-.209v-.441A.241.241,0,0,1,222.972,149.99Z" transform="translate(-214.523 -147.305)" fill="#1f2125"/>
            <path id="Trazado_116738" data-name="Trazado 116738" d="M222.962,149.912a.225.225,0,0,1,0,.429l-3.758,2.18a.835.835,0,0,1-.742,0l-3.781-2.18a.225.225,0,0,1,0-.429l3.758-2.18a.835.835,0,0,1,.742,0Z" transform="translate(-214.525 -147.645)" fill="#4d4d4d"/>
          </g>
          <g id="Grupo_112257" data-name="Grupo 112257" transform="translate(64.198 33.382)">
            <path id="Trazado_116739" data-name="Trazado 116739" d="M216.94,151.43l-3.746,2.18a.835.835,0,0,1-.742,0l-3.781-2.18a.256.256,0,0,1-.151-.22v.441a.255.255,0,0,0,.151.22l3.781,2.18a.835.835,0,0,0,.742,0l3.746-2.18a.254.254,0,0,0,.151-.209v-.441A.241.241,0,0,1,216.94,151.43Z" transform="translate(-208.519 -148.734)" fill="#1f2125"/>
            <path id="Trazado_116740" data-name="Trazado 116740" d="M216.94,151.342a.225.225,0,0,1,0,.429l-3.746,2.18a.835.835,0,0,1-.742,0l-3.781-2.18c-.2-.116-.209-.313,0-.429l3.746-2.18a.835.835,0,0,1,.742,0Z" transform="translate(-208.519 -149.075)" fill="#4d4d4d"/>
          </g>
          <g id="Grupo_112258" data-name="Grupo 112258" transform="translate(60.216 36.907)">
            <path id="Trazado_116741" data-name="Trazado 116741" d="M213.51,154.47l-3.746,2.18a.835.835,0,0,1-.742,0l-3.781-2.18a.256.256,0,0,1-.151-.22v.441a.269.269,0,0,0,.151.22l3.781,2.18a.835.835,0,0,0,.742,0l3.746-2.18a.254.254,0,0,0,.151-.209v-.441A.241.241,0,0,1,213.51,154.47Z" transform="translate(-205.084 -151.774)" fill="#1f2125"/>
            <path id="Trazado_116742" data-name="Trazado 116742" d="M213.511,154.382c.209.116.2.313,0,.429l-3.746,2.18a.835.835,0,0,1-.742,0l-3.781-2.18a.225.225,0,0,1,0-.429l3.746-2.18a.835.835,0,0,1,.742,0Z" transform="translate(-205.085 -152.115)" fill="#4d4d4d"/>
          </g>
          <g id="Grupo_112259" data-name="Grupo 112259" transform="translate(52.427 38.264)">
            <path id="Trazado_116743" data-name="Trazado 116743" d="M206.79,155.639l-3.746,2.18a.835.835,0,0,1-.742,0l-3.781-2.18a.254.254,0,0,1-.151-.209v.441a.241.241,0,0,0,.151.209l3.781,2.18a.835.835,0,0,0,.742,0l3.746-2.18a.254.254,0,0,0,.151-.209v-.441A.241.241,0,0,1,206.79,155.639Z" transform="translate(-198.369 -152.942)" fill="#1f2125"/>
            <path id="Trazado_116744" data-name="Trazado 116744" d="M206.79,155.552a.225.225,0,0,1,0,.429l-3.746,2.18a.835.835,0,0,1-.742,0l-3.781-2.18c-.2-.116-.209-.313,0-.429l3.758-2.18a.835.835,0,0,1,.742,0l3.781,2.18Z" transform="translate(-198.369 -153.285)" fill="#4d4d4d"/>
          </g>
          <g id="Grupo_112260" data-name="Grupo 112260" transform="translate(76.488 34.785)">
            <path id="Trazado_116745" data-name="Trazado 116745" d="M227.562,152.64l-3.758,2.18a.835.835,0,0,1-.742,0l-3.781-2.18a.255.255,0,0,1-.151-.22v.441a.255.255,0,0,0,.151.22l3.781,2.18a.835.835,0,0,0,.742,0l3.758-2.18a.254.254,0,0,0,.151-.209v-.441A.241.241,0,0,1,227.562,152.64Z" transform="translate(-219.113 -149.944)" fill="#1f2125"/>
            <path id="Trazado_116746" data-name="Trazado 116746" d="M227.552,152.552a.225.225,0,0,1,0,.429l-3.758,2.18a.835.835,0,0,1-.742,0l-3.781-2.18a.225.225,0,0,1,0-.429l3.758-2.18a.835.835,0,0,1,.742,0Z" transform="translate(-219.115 -150.285)" fill="#4d4d4d"/>
          </g>
          <g id="Grupo_112261" data-name="Grupo 112261" transform="translate(69.36 36.362)">
            <path id="Trazado_116747" data-name="Trazado 116747" d="M221.39,154l-3.746,2.18a.835.835,0,0,1-.742,0L213.121,154a.256.256,0,0,1-.151-.22v.441a.255.255,0,0,0,.151.22l3.781,2.18a.835.835,0,0,0,.742,0l3.746-2.18a.254.254,0,0,0,.151-.209v-.441A.241.241,0,0,1,221.39,154Z" transform="translate(-212.969 -151.304)" fill="#1f2125"/>
            <path id="Trazado_116748" data-name="Trazado 116748" d="M221.39,153.912a.225.225,0,0,1,0,.429l-3.746,2.18a.835.835,0,0,1-.742,0l-3.781-2.18c-.2-.116-.209-.313,0-.429l3.746-2.18a.835.835,0,0,1,.742,0Z" transform="translate(-212.969 -151.645)" fill="#4d4d4d"/>
          </g>
          <g id="Grupo_112262" data-name="Grupo 112262" transform="translate(65.342 39.876)">
            <path id="Trazado_116749" data-name="Trazado 116749" d="M217.942,157.03l-3.758,2.18a.835.835,0,0,1-.742,0l-3.781-2.18a.256.256,0,0,1-.151-.22v.441a.269.269,0,0,0,.151.22l3.781,2.18a.835.835,0,0,0,.742,0l3.758-2.18a.254.254,0,0,0,.151-.209v-.441A.241.241,0,0,1,217.942,157.03Z" transform="translate(-209.504 -154.334)" fill="#1f2125"/>
            <path id="Trazado_116750" data-name="Trazado 116750" d="M217.942,156.942a.23.23,0,0,1,0,.429l-3.758,2.18a.835.835,0,0,1-.742,0l-3.781-2.18a.225.225,0,0,1,0-.429l3.746-2.18a.835.835,0,0,1,.742,0l3.781,2.18Z" transform="translate(-209.505 -154.675)" fill="#4d4d4d"/>
          </g>
          <g id="Grupo_112263" data-name="Grupo 112263" transform="translate(57.699 41.326)">
            <path id="Trazado_116751" data-name="Trazado 116751" d="M211.352,158.269l-3.758,2.18a.835.835,0,0,1-.742,0l-3.781-2.18a.254.254,0,0,1-.151-.209v.441a.241.241,0,0,0,.151.209l3.781,2.18a.835.835,0,0,0,.742,0l3.746-2.18a.254.254,0,0,0,.151-.209v-.441a.241.241,0,0,1-.151.209Z" transform="translate(-202.914 -155.584)" fill="#1f2125"/>
            <path id="Trazado_116752" data-name="Trazado 116752" d="M211.352,158.192a.225.225,0,0,1,0,.429l-3.758,2.18a.835.835,0,0,1-.742,0l-3.781-2.18a.225.225,0,0,1,0-.429l3.758-2.18a.835.835,0,0,1,.742,0Z" transform="translate(-202.915 -155.925)" fill="#4d4d4d"/>
          </g>
          <g id="Grupo_112264" data-name="Grupo 112264" transform="translate(47.708 41.248)">
            <path id="Trazado_116753" data-name="Trazado 116753" d="M203.857,158.909l-3.665,2.122a.959.959,0,0,1-.835,0l-4.883-2.818a.294.294,0,0,1-.174-.244v.441a.294.294,0,0,0,.174.244l4.883,2.818a.959.959,0,0,0,.835,0l3.653-2.122a.294.294,0,0,0,.174-.244v-.441a.309.309,0,0,1-.174.244Z" transform="translate(-194.3 -155.52)" fill="#1f2125"/>
            <path id="Trazado_116754" data-name="Trazado 116754" d="M203.857,158.771a.249.249,0,0,1,0,.476l-3.665,2.122a.959.959,0,0,1-.835,0l-4.883-2.818a.249.249,0,0,1,0-.476l3.665-2.122a.959.959,0,0,1,.835,0Z" transform="translate(-194.3 -155.857)" fill="#4d4d4d"/>
          </g>
          <g id="Grupo_112265" data-name="Grupo 112265" transform="translate(81.672 37.789)">
            <path id="Trazado_116755" data-name="Trazado 116755" d="M232.032,155.22l-3.758,2.18a.835.835,0,0,1-.742,0l-3.781-2.18a.255.255,0,0,1-.151-.22v.441a.255.255,0,0,0,.151.22l3.781,2.18a.835.835,0,0,0,.742,0l3.758-2.18a.254.254,0,0,0,.151-.209v-.441A.241.241,0,0,1,232.032,155.22Z" transform="translate(-223.583 -152.535)" fill="#1f2125"/>
            <path id="Trazado_116756" data-name="Trazado 116756" d="M232.022,155.142a.225.225,0,0,1,0,.429l-3.758,2.18a.835.835,0,0,1-.742,0l-3.781-2.18a.225.225,0,0,1,0-.429l3.758-2.18a.835.835,0,0,1,.742,0Z" transform="translate(-223.585 -152.875)" fill="#4d4d4d"/>
          </g>
          <g id="Grupo_112266" data-name="Grupo 112266" transform="translate(74.516 39.343)">
            <path id="Trazado_116757" data-name="Trazado 116757" d="M225.85,156.57l-3.746,2.18a.835.835,0,0,1-.742,0l-3.781-2.18a.256.256,0,0,1-.151-.22v.441a.255.255,0,0,0,.151.22l3.781,2.18a.835.835,0,0,0,.742,0l3.758-2.18a.254.254,0,0,0,.151-.209v-.441a.241.241,0,0,1-.151.209Z" transform="translate(-217.413 -153.874)" fill="#1f2125"/>
            <path id="Trazado_116758" data-name="Trazado 116758" d="M225.841,156.482a.225.225,0,0,1,0,.429l-3.746,2.18a.835.835,0,0,1-.742,0l-3.781-2.18a.225.225,0,0,1,0-.429l3.758-2.18a.835.835,0,0,1,.742,0l3.781,2.18Z" transform="translate(-217.415 -154.215)" fill="#4d4d4d"/>
          </g>
          <g id="Grupo_112267" data-name="Grupo 112267" transform="translate(70.492 42.845)">
            <path id="Trazado_116759" data-name="Trazado 116759" d="M222.37,159.59l-3.746,2.18a.835.835,0,0,1-.742,0l-3.781-2.18a.256.256,0,0,1-.151-.22v.441a.269.269,0,0,0,.151.22l3.781,2.18a.835.835,0,0,0,.742,0l3.746-2.18a.254.254,0,0,0,.151-.209v-.441A.241.241,0,0,1,222.37,159.59Z" transform="translate(-213.944 -156.894)" fill="#1f2125"/>
            <path id="Trazado_116760" data-name="Trazado 116760" d="M222.371,159.5a.225.225,0,0,1,0,.429l-3.746,2.18a.835.835,0,0,1-.742,0l-3.781-2.18a.225.225,0,0,1,0-.429l3.746-2.18a.835.835,0,0,1,.742,0Z" transform="translate(-213.945 -157.235)" fill="#4d4d4d"/>
          </g>
          <g id="Grupo_112268" data-name="Grupo 112268" transform="translate(62.802 44.26)">
            <path id="Trazado_116761" data-name="Trazado 116761" d="M215.752,160.81l-3.758,2.18a.835.835,0,0,1-.742,0l-3.781-2.18a.256.256,0,0,1-.151-.22v.441a.269.269,0,0,0,.151.22l3.781,2.18a.835.835,0,0,0,.742,0l3.758-2.18a.254.254,0,0,0,.151-.209V160.6A.241.241,0,0,1,215.752,160.81Z" transform="translate(-207.314 -158.114)" fill="#1f2125"/>
            <path id="Trazado_116762" data-name="Trazado 116762" d="M215.752,160.722a.225.225,0,0,1,0,.429l-3.758,2.18a.835.835,0,0,1-.742,0l-3.781-2.18a.225.225,0,0,1,0-.429l3.746-2.18a.835.835,0,0,1,.742,0l3.781,2.18Z" transform="translate(-207.315 -158.455)" fill="#4d4d4d"/>
          </g>
          <g id="Grupo_112269" data-name="Grupo 112269" transform="translate(53.924 44.829)">
            <path id="Trazado_116763" data-name="Trazado 116763" d="M208.277,161.418l-3.735,2.169a.86.86,0,0,1-.754,0l-3.966-2.3a.271.271,0,0,1-.162-.22v.441a.25.25,0,0,0,.162.22l3.966,2.3a.86.86,0,0,0,.754,0l3.735-2.169a.256.256,0,0,0,.151-.22V161.2A.255.255,0,0,1,208.277,161.418Z" transform="translate(-199.66 -158.605)" fill="#1f2125"/>
            <path id="Trazado_116764" data-name="Trazado 116764" d="M208.276,161.328c.209.116.209.313,0,.441l-3.735,2.169a.86.86,0,0,1-.754,0l-3.966-2.3c-.209-.116-.209-.313,0-.441l3.735-2.169a.86.86,0,0,1,.754,0Z" transform="translate(-199.659 -158.945)" fill="#4d4d4d"/>
          </g>
          <g id="Grupo_112270" data-name="Grupo 112270" transform="translate(59.108 49.068)">
            <path id="Trazado_116765" data-name="Trazado 116765" d="M210.741,165.223l-1.774,1.032a.6.6,0,0,1-.545,0l-4.175-2.412a.193.193,0,0,1-.116-.162v.441a.314.314,0,0,0,.116.162l4.175,2.412a.569.569,0,0,0,.545,0l1.774-1.032c.07-.046.116-.093.116-.151v-.441a.284.284,0,0,1-.1.151Z" transform="translate(-204.13 -162.427)" fill="#1f2125"/>
            <path id="Trazado_116766" data-name="Trazado 116766" d="M210.74,165.082c.151.093.151.232,0,.313l-1.774,1.032a.6.6,0,0,1-.545,0l-4.175-2.412c-.151-.093-.151-.232,0-.313l1.774-1.032a.569.569,0,0,1,.545,0Z" transform="translate(-204.13 -162.6)" fill="#4d4d4d"/>
          </g>
          <g id="Grupo_112271" data-name="Grupo 112271" transform="translate(95.723 40.861)">
            <path id="Trazado_116767" data-name="Trazado 116767" d="M241.9,157.406l-2.552,1.485a.569.569,0,0,1-.545,0l-2.992-1.728A.219.219,0,0,1,235.7,157v.441a.314.314,0,0,0,.116.162l2.992,1.728a.569.569,0,0,0,.545,0l2.552-1.485a.223.223,0,0,0,.116-.151v-.441A.263.263,0,0,1,241.9,157.406Z" transform="translate(-235.7 -155.288)" fill="#1f2125"/>
            <path id="Trazado_116768" data-name="Trazado 116768" d="M241.9,157.317c.151.093.151.232,0,.313l-2.552,1.485a.569.569,0,0,1-.545,0l-2.992-1.728a.165.165,0,0,1,0-.313l2.552-1.485a.6.6,0,0,1,.545,0Z" transform="translate(-235.7 -155.524)" fill="#4d4d4d"/>
          </g>
          <g id="Grupo_112272" data-name="Grupo 112272" transform="translate(86.79 40.732)">
            <path id="Trazado_116769" data-name="Trazado 116769" d="M239.295,159.55l-3.537,2.053a1.056,1.056,0,0,1-.951,0l-6.6-3.8a.324.324,0,0,1-.2-.278v.441a.333.333,0,0,0,.2.278l6.6,3.8a1.056,1.056,0,0,0,.951,0l3.537-2.053a.348.348,0,0,0,.2-.278v-.441A.348.348,0,0,1,239.295,159.55Z" transform="translate(-227.995 -155.076)" fill="#1f2125"/>
            <path id="Trazado_116770" data-name="Trazado 116770" d="M239.285,159.33c.267.151.267.394,0,.557l-3.537,2.053a1.056,1.056,0,0,1-.951,0l-6.6-3.8a.294.294,0,0,1,0-.557l3.537-2.053a1.081,1.081,0,0,1,.963,0l6.6,3.8Z" transform="translate(-227.997 -155.412)" fill="#4d4d4d"/>
          </g>
          <g id="Grupo_112273" data-name="Grupo 112273" transform="translate(79.689 42.323)">
            <path id="Trazado_116771" data-name="Trazado 116771" d="M230.3,159.14l-3.746,2.18a.835.835,0,0,1-.742,0l-3.781-2.18a.255.255,0,0,1-.151-.22v.441a.255.255,0,0,0,.151.22l3.781,2.18a.835.835,0,0,0,.742,0l3.746-2.18a.254.254,0,0,0,.151-.209v-.441A.241.241,0,0,1,230.3,159.14Z" transform="translate(-221.874 -156.444)" fill="#1f2125"/>
            <path id="Trazado_116772" data-name="Trazado 116772" d="M230.3,159.052a.225.225,0,0,1,0,.429l-3.746,2.18a.835.835,0,0,1-.742,0l-3.781-2.18a.225.225,0,0,1,0-.429l3.758-2.18a.835.835,0,0,1,.742,0l3.781,2.18Z" transform="translate(-221.875 -156.785)" fill="#4d4d4d"/>
          </g>
          <g id="Grupo_112274" data-name="Grupo 112274" transform="translate(75.63 45.814)">
            <path id="Trazado_116773" data-name="Trazado 116773" d="M226.8,162.15l-3.746,2.18a.835.835,0,0,1-.742,0l-3.781-2.18a.255.255,0,0,1-.151-.22v.441a.269.269,0,0,0,.151.22l3.781,2.18a.835.835,0,0,0,.742,0l3.746-2.18a.254.254,0,0,0,.151-.209v-.441A.241.241,0,0,1,226.8,162.15Z" transform="translate(-218.374 -159.454)" fill="#1f2125"/>
            <path id="Trazado_116774" data-name="Trazado 116774" d="M226.8,162.062c.2.116.209.313,0,.429l-3.746,2.18a.835.835,0,0,1-.742,0l-3.781-2.18a.225.225,0,0,1,0-.429l3.746-2.18a.835.835,0,0,1,.742,0Z" transform="translate(-218.375 -159.795)" fill="#4d4d4d"/>
          </g>
          <g id="Grupo_112275" data-name="Grupo 112275" transform="translate(84.838 45.304)">
            <path id="Trazado_116775" data-name="Trazado 116775" d="M234.752,161.71l-3.758,2.18a.835.835,0,0,1-.742,0l-3.781-2.18a.256.256,0,0,1-.151-.22v.441a.255.255,0,0,0,.151.22l3.781,2.18a.835.835,0,0,0,.742,0l3.758-2.18a.254.254,0,0,0,.151-.209V161.5A.241.241,0,0,1,234.752,161.71Z" transform="translate(-226.314 -159.014)" fill="#1f2125"/>
            <path id="Trazado_116776" data-name="Trazado 116776" d="M234.752,161.622a.225.225,0,0,1,0,.429l-3.758,2.18a.835.835,0,0,1-.742,0l-3.781-2.18a.225.225,0,0,1,0-.429l3.746-2.18a.835.835,0,0,1,.742,0l3.781,2.18Z" transform="translate(-226.315 -159.355)" fill="#4d4d4d"/>
          </g>
          <g id="Grupo_112276" data-name="Grupo 112276" transform="translate(80.785 48.781)">
            <path id="Trazado_116777" data-name="Trazado 116777" d="M230.324,164.206l-3.839,2.227a.713.713,0,0,1-.649,0l-2.876-1.658a.247.247,0,0,1-.139-.2v.441a.247.247,0,0,0,.139.2l2.876,1.658a.713.713,0,0,0,.649,0l3.839-2.227c.093-.058.139-.116.139-.186v-.441A.218.218,0,0,1,230.324,164.206Z" transform="translate(-222.82 -162.086)" fill="#1f2125"/>
            <path id="Trazado_116778" data-name="Trazado 116778" d="M230.324,164.089a.206.206,0,0,1,0,.383l-3.839,2.227a.713.713,0,0,1-.649,0l-2.876-1.658a.2.2,0,0,1,0-.383l3.839-2.227a.737.737,0,0,1,.661,0l2.876,1.658Z" transform="translate(-222.82 -162.353)" fill="#4d4d4d"/>
          </g>
          <g id="Grupo_112277" data-name="Grupo 112277" transform="translate(68.016 47.258)">
            <path id="Trazado_116779" data-name="Trazado 116779" d="M226.771,167.436l-3.317,1.925a1.3,1.3,0,0,1-1.171,0l-10.229-5.9a.417.417,0,0,1-.244-.348v.441a.432.432,0,0,0,.244.348l10.229,5.9a1.3,1.3,0,0,0,1.171,0l3.317-1.925a.417.417,0,0,0,.244-.336V167.1A.4.4,0,0,1,226.771,167.436Z" transform="translate(-211.81 -160.709)" fill="#1f2125"/>
            <path id="Trazado_116780" data-name="Trazado 116780" d="M226.771,167.082a.362.362,0,0,1,0,.684l-3.317,1.925a1.3,1.3,0,0,1-1.171,0l-10.229-5.9c-.325-.186-.325-.487,0-.684l3.317-1.925a1.3,1.3,0,0,1,1.171,0Z" transform="translate(-211.81 -161.04)" fill="#4d4d4d"/>
          </g>
          <g id="Grupo_112278" data-name="Grupo 112278" transform="translate(64.478 50.917)">
            <path id="Trazado_116781" data-name="Trazado 116781" d="M217.377,166.678l-3.735,2.169a.86.86,0,0,1-.754,0l-3.966-2.3a.271.271,0,0,1-.162-.22v.441a.25.25,0,0,0,.162.22l3.966,2.3a.86.86,0,0,0,.754,0l3.735-2.169a.256.256,0,0,0,.151-.22v-.441A.256.256,0,0,1,217.377,166.678Z" transform="translate(-208.76 -163.854)" fill="#1f2125"/>
            <path id="Trazado_116782" data-name="Trazado 116782" d="M217.376,166.578c.209.116.209.313,0,.441l-3.735,2.169a.86.86,0,0,1-.754,0l-3.966-2.3c-.209-.116-.209-.313,0-.441l3.735-2.169a.86.86,0,0,1,.754,0Z" transform="translate(-208.759 -164.195)" fill="#4d4d4d"/>
          </g>
          <g id="Grupo_112279" data-name="Grupo 112279" transform="translate(69.581 55.126)">
            <path id="Trazado_116783" data-name="Trazado 116783" d="M219.782,170.443l-1.774,1.032a.6.6,0,0,1-.545,0l-4.187-2.412a.219.219,0,0,1-.116-.162v.441a.314.314,0,0,0,.116.162l4.187,2.412a.6.6,0,0,0,.545,0l1.774-1.032a.223.223,0,0,0,.116-.151v-.441a.284.284,0,0,1-.1.151Z" transform="translate(-213.16 -167.652)" fill="#1f2125"/>
            <path id="Trazado_116784" data-name="Trazado 116784" d="M219.782,170.3a.165.165,0,0,1,0,.313l-1.774,1.032a.6.6,0,0,1-.545,0l-4.187-2.412a.165.165,0,0,1,0-.313l1.774-1.032a.6.6,0,0,1,.545,0Z" transform="translate(-213.16 -167.824)" fill="#4d4d4d"/>
          </g>
        </g>
      </g>
      <g id="Grupo_112289" data-name="Grupo 112289" transform="translate(59.926 85.676)">
        <path id="Trazado_116785" data-name="Trazado 116785" d="M134.358,378.99,58.752,335.335c-4.21-2.436-3.688-6.68,1.183-9.487L163.167,266.34c4.859-2.807,12.224-3.108,16.434-.684l75.606,43.654c4.21,2.436,3.688,6.68-1.183,9.487L150.792,378.305C145.933,381.112,138.568,381.414,134.358,378.99Z" transform="translate(-55.908 -44.895)" fill="#f2f2f2" opacity="0.39"/>
        <g id="Grupo_112287" data-name="Grupo 112287" transform="translate(1.917 150.065)">
          <g id="Grupo_112284" data-name="Grupo 112284" transform="translate(37.391 114.181)">
            <g id="Grupo_112282" data-name="Grupo 112282">
              <path id="Trazado_116786" data-name="Trazado 116786" d="M121.448,303.14l34.33,19.948a2.2,2.2,0,0,0-2.238.22L119.21,303.36a2.2,2.2,0,0,1,2.238-.22Z" transform="translate(-85.101 -302.924)" fill="#b9ddfc"/>
              <path id="Trazado_116787" data-name="Trazado 116787" d="M126.818,341.132,92.5,321.184,123.466,303.3l34.33,19.948Z" transform="translate(-89.369 -302.864)" fill="#b9ddfc"/>
              <path id="Trazado_116788" data-name="Trazado 116788" d="M125.046,346.1l-34.33-19.948a2.178,2.178,0,0,1-.916-2.018,6.882,6.882,0,0,1,3.131-5.416l34.33,19.948a6.882,6.882,0,0,0-3.131,5.416A2.2,2.2,0,0,0,125.046,346.1Z" transform="translate(-89.8 -300.4)" fill="#084a93"/>
              <path id="Trazado_116789" data-name="Trazado 116789" d="M153.5,320.559c1.728-1,3.155-.209,3.155,1.786a6.952,6.952,0,0,1-3.131,5.428l-30.978,17.884c-1.728,1-3.143.2-3.143-1.8a6.882,6.882,0,0,1,3.131-5.416l30.978-17.884Z" transform="translate(-85.07 -300.175)" fill="#084a93"/>
            </g>
            <g id="Grupo_112283" data-name="Grupo 112283" transform="translate(12.514 2.527)">
              <path id="Trazado_116790" data-name="Trazado 116790" d="M145.857,318.089a1.362,1.362,0,0,0-1.427.139L133.3,324.653l-8.838,5.091L102.33,316.906,122.3,305.378a1.416,1.416,0,0,1,1.427-.139l16.852,9.8,5.277,3.073Z" transform="translate(-100.312 -305.103)" fill="#b9ddfc"/>
              <path id="Trazado_116791" data-name="Trazado 116791" d="M123.31,332.912,101.181,320.05a1.42,1.42,0,0,1-.591-1.3,4.433,4.433,0,0,1,2.018-3.491l22.129,12.862a4.464,4.464,0,0,0-2.018,3.491A1.42,1.42,0,0,0,123.31,332.912Z" transform="translate(-100.59 -303.481)" fill="#084a93"/>
              <path id="Trazado_116792" data-name="Trazado 116792" d="M141.648,316.449c1.113-.649,2.03-.128,2.03,1.148a4.464,4.464,0,0,1-2.018,3.491L121.7,332.616c-1.113.649-2.03.128-2.03-1.16a4.433,4.433,0,0,1,2.018-3.491l19.96-11.528Z" transform="translate(-97.541 -303.335)" fill="#084a93"/>
            </g>
          </g>
          <g id="Grupo_112285" data-name="Grupo 112285" transform="translate(62.28 52.696)">
            <path id="Trazado_116793" data-name="Trazado 116793" d="M123.636,321.606l-9.916-5.764a2.518,2.518,0,0,0,2.18.058c2.215-.812,4.338-3.734,4.732-6.53l9.916,5.764c-.394,2.783-2.528,5.706-4.732,6.53A2.518,2.518,0,0,1,123.636,321.606Z" transform="translate(-110.868 -240.41)" fill="#4d4d4d"/>
            <path id="Trazado_116794" data-name="Trazado 116794" d="M122.858,323.132l-9.916-5.764c-1.276-.742-1.937-2.517-1.589-4.917l9.916,5.764C120.933,320.615,121.582,322.389,122.858,323.132Z" transform="translate(-111.261 -239.918)" fill="#4d4d4d"/>
            <path id="Trazado_116795" data-name="Trazado 116795" d="M129.606,323.82l-9.916-5.764,8.919-63.046,9.9,5.764Z" transform="translate(-109.914 -249.096)" fill="#4d4d4d"/>
            <path id="Trazado_116796" data-name="Trazado 116796" d="M126.39,251.992l9.916,5.764c.916.534,1.38,1.8,1.137,3.5l-9.916-5.764c.244-1.716-.232-2.981-1.137-3.514Z" transform="translate(-108.843 -249.58)" fill="#d9efff"/>
            <path id="Trazado_116797" data-name="Trazado 116797" d="M127.83,250.293l9.916,5.764a3.539,3.539,0,0,0-3.05-.081l-9.916-5.764a3.536,3.536,0,0,1,3.05.081Z" transform="translate(-109.1 -249.911)" fill="#d9efff"/>
            <path id="Trazado_116798" data-name="Trazado 116798" d="M121.256,326.9l-9.916-5.753,8.919-63.046,9.916,5.753Z" transform="translate(-111.248 -248.602)" fill="#4d4d4d"/>
            <path id="Trazado_116799" data-name="Trazado 116799" d="M128.946,265.121l-9.916-5.764c.557-3.908,3.537-8.037,6.657-9.2l9.916,5.764c-3.12,1.16-6.112,5.289-6.657,9.2Z" transform="translate(-110.019 -249.871)" fill="#d9efff"/>
            <path id="Trazado_116800" data-name="Trazado 116800" d="M135.478,255.172c3.12-1.16,5.207,1.1,4.651,5.01l-8.919,63.046c-.557,3.908-3.537,8.026-6.657,9.174s-5.207-1.079-4.651-5l8.919-63.046c.557-3.908,3.537-8.037,6.657-9.2Zm-5.892,68.659,8.919-63.046c.394-2.783-1.1-4.384-3.305-3.572-2.227.823-4.338,3.758-4.732,6.541L121.549,326.8c-.394,2.783,1.09,4.372,3.305,3.549s4.338-3.735,4.732-6.53h0Z" transform="translate(-109.894 -249.119)" fill="#363339"/>
          </g>
          <path id="Trazado_116801" data-name="Trazado 116801" d="M160.783,290.674c-.139,2.134-.267,4.4.754,6.286a7.059,7.059,0,0,0,5.695,3.4,12.512,12.512,0,0,0,6.634-1.589,61.017,61.017,0,0,0,5.822-3.711,63.278,63.278,0,0,1,11.83-6.147c2.053-.8,4.152-1.5,6.2-2.32a17.164,17.164,0,0,0,4.314-2.308,7.193,7.193,0,0,0,2.668-4,3.179,3.179,0,0,0-2.227-3.943,12.046,12.046,0,0,0-2.8-.545c-5.637-.7-11.227-2.25-16.9-1.948-5.869.3-11.459,2.563-16.747,5.126-1.867.9-4.094,2.215-4.7,4.361-.638,2.25-.394,5.022-.557,7.353Z" transform="translate(-41.082 -193.396)" fill="#084a93"/>
          <path id="Trazado_116802" data-name="Trazado 116802" d="M151.2,240.086c.441,4.036,1.276,8.026,2.1,12.015q4.523,21.763,9.058,43.527a1.279,1.279,0,0,0,1.682,1.345,37.621,37.621,0,0,0,18.1-7.852,4.716,4.716,0,0,0,1.195-1.253,4.844,4.844,0,0,0,.336-2.7c-.777-11.447-1.195-22.975-2.911-34.283-1.543-10.218-2.482-20.586-5.463-30.526-.51-1.716-1.171-3.421-1.74-5.126-.348-1.055-.7-2.1-1.148-3.12a13.415,13.415,0,0,0-5.59-6.39,9.388,9.388,0,0,0-8.316-.5c-1.832.847-3.236,2.934-4.152,4.662a27.753,27.753,0,0,0-2.4,6.889c-1.716,7.55-1.612,15.634-.765,23.3Z" transform="translate(-42.695 -204.475)" fill="#333"/>
          <path id="Trazado_116803" data-name="Trazado 116803" d="M175.469,299.222a15.548,15.548,0,0,0,.858,7.179c1.055,2.424,4.941,3.4,7.33,3.5,3.143.139,5.184-1.856,7.608-3.526a18.808,18.808,0,0,1,7.527-2.841c2.552-.452,5.126-.313,7.655-.893,7.411-1.67,15.727-8.165,14.4-16.573-.522-3.317-3.966-3.514-6.657-3.862a46.676,46.676,0,0,0-10.415.035c-3.526.325-7.052.823-10.531,1.485-1.693.325-3.433.626-5.1,1.044a25.3,25.3,0,0,0-4.465,1.948c-.707.348-1.8,1.334-2.6,1.334-.36,0-2.006-1.1-1.763-1.5a27.451,27.451,0,0,0-3.862,12.665Z" transform="translate(-38.731 -192.098)" fill="#084a93"/>
          <path id="Trazado_116804" data-name="Trazado 116804" d="M177.426,301.934a2.085,2.085,0,0,0,.22.673c.742,1.3,3.642,1.148,4.894,1.1,4.755-.2,9.754-1.589,12.85-5.207a7.315,7.315,0,0,0,1.983-4.941c-.046-.545-.116-1.079-.162-1.624-.162-1.89-.29-3.781-.429-5.671-.5-7.4-.928-14.8-1.357-22.2-.348-5.961-.649-11.923-1.125-17.872-.638-7.84-1.253-15.762-2.911-23.462a16.475,16.475,0,0,0-1.566-4.7c-2.714-4.755-8.362-3.062-12.085-.5a16.024,16.024,0,0,0-5.648,6.646c-2.1,4.6-1.3,9.128-1.067,13.964.2,4.256-.476,8.548-.464,12.816.023,10.914,1.728,21.746,3.665,32.462.8,4.419,1.635,8.838,2.436,13.256.2,1.1.394,2.215.58,3.317.093.51.081,1.3.209,1.937Z" transform="translate(-39.505 -202.789)" fill="#424242"/>
          <g id="Grupo_112286" data-name="Grupo 112286" transform="translate(0 22.435)">
            <path id="Trazado_116805" data-name="Trazado 116805" d="M120.272,224.261a3.886,3.886,0,0,0-3.2-.2L64.44,240.73l58.3,33.877,52.631-16.666a3.891,3.891,0,0,1,3.2.2l-58.3-33.877Z" transform="translate(-56.462 -223.819)" fill="#b9ddfc"/>
            <path id="Trazado_116806" data-name="Trazado 116806" d="M117.776,288.466l-58.3-33.877c-1.531-.893-2.262-3.073-1.751-5.984.789-4.512,4.291-9.081,7.829-10.195l58.3,33.877c-3.537,1.113-7.028,5.683-7.829,10.195-.51,2.911.22,5.091,1.751,5.984Z" transform="translate(-57.561 -221.487)" fill="#084a93"/>
            <path id="Trazado_116807" data-name="Trazado 116807" d="M168.442,253.284c3.526-1.113,5.753,1.647,4.952,6.158s-4.3,9.093-7.829,10.206l-52.631,16.666c-3.537,1.113-5.753-1.647-4.952-6.17s4.291-9.081,7.829-10.195l52.631-16.666Z" transform="translate(-49.53 -219.15)" fill="#084a93"/>
          </g>
        </g>
        <g id="Grupo_112288" data-name="Grupo 112288" transform="translate(13.334)">
          <path id="Trazado_116808" data-name="Trazado 116808" d="M75.1,229.529a37.1,37.1,0,0,0,.174,9,14.973,14.973,0,0,0,7.55,11.482c5.1,2.992,11.25,3.607,17.165,3.526,16.991-.232,33.471-5.6,49.314-11.749a170.222,170.222,0,0,0,20.412-9.151,86.126,86.126,0,0,0,9.429-5.9c1.195-.87,2.76-1.658,3.4-2.992A22.852,22.852,0,0,0,184.221,218c.823-4.546-.476-8.536-4.245-11.366a22.669,22.669,0,0,0-8.861-3.526,92.347,92.347,0,0,0-19.044-2.238c-6.936-.093-13.859.591-20.783,1.113q-16.927,1.287-33.912,1.264c-3.885,0-7.469,1.055-10.948-1.4a1.7,1.7,0,0,0-1.113-.464c-.534.058-.847.6-1.067,1.09C81.22,208.9,78.17,215.38,76.4,222.258a48.008,48.008,0,0,0-1.311,7.272Z" transform="translate(-66.206 -54.987)" fill="#333"/>
          <path id="Trazado_116809" data-name="Trazado 116809" d="M211.055,141.716c-.731-.661-1.473-1.322-2.2-1.983a3.331,3.331,0,0,0-.51-.394,2.383,2.383,0,0,0-.742-.22c-6.46-1.206-13.094-.777-19.647-.3a8.519,8.519,0,0,0-1.8.267c-2.807.87-5.01,3.236-7.968,3.735-5.718.951-56.134,6.495-62.536,7.794a.806.806,0,0,0-.707,1.253,30.351,30.351,0,0,0,2.343,6c.986,1.8,1.067,4.361.951,6.379a1.023,1.023,0,0,0,.174.789,1.054,1.054,0,0,0,.592.22,86.219,86.219,0,0,0,14.265.58,7.14,7.14,0,0,1-.186,1.09c8.3-.278,16.191-3.561,23.752-7.005,6.274-2.853,12.6-5.857,19.264-7.469a8.993,8.993,0,0,1,.951.151c1.682.394,3.2,1.334,4.894,1.624,4.117.707,7.991-2.459,12.178-2.505a36.5,36.5,0,0,0,3.735.1,11.313,11.313,0,0,0,3.259-1.067,1.4,1.4,0,0,0,.661-.476c.267-.452-.081-1.032-.487-1.369-1.45-1.183-3.537-1-5.4-.8s-3.99.267-5.312-1.067a1.159,1.159,0,0,1-.36-.615c-.07-.6.638-.963,1.218-1.137,3.561-1.1,7.179-2.2,10.9-2.25,2.9-.035,5.88.557,8.675-.255a.606.606,0,0,0,.336-.186c.22-.267-.058-.638-.313-.87Z" transform="translate(-59.824 -64.978)" fill="#ffb78c"/>
          <path id="Trazado_116810" data-name="Trazado 116810" d="M82.182,237.612a30.381,30.381,0,0,0,3.6,12.781,35.294,35.294,0,0,0,16.828,14.915c11.134,4.79,23.868,4.442,35.745,2.03,21.885-4.454,42.17-15.657,58.511-30.873,2.865-2.668,5.706-5.579,7.063-9.255s.881-8.3-2.122-10.821c-2.32-1.948-5.579-2.262-8.606-2.262-11.111,0-21.966,3.027-32.845,5.277-2.83.58-5.66,1.113-8.513,1.589-1.427.244-2.853.464-4.28.684-1.867.278-2.262.719-2.888-1.055-1.9-5.439-3.5-10.856-5.938-16.121-1.021,2.366-3.561,3.642-5.973,4.57a76.851,76.851,0,0,1-23.2,4.5c-3.99.22-7.979.244-11.969.186-1.519-.023-3.224.29-4.419-.742-.545-.476-2.32-3.34-1.612-4.048a31.954,31.954,0,0,0-8.246,15.506,44.948,44.948,0,0,0-1.125,13.164Z" transform="translate(-65.057 -54.406)" fill="#424242"/>
          <path id="Trazado_116811" data-name="Trazado 116811" d="M76.784,127.648c-2.238.765-3.758,2.853-4.778,4.987-2.25,4.709-2.76,10.067-2.725,15.286A79.7,79.7,0,0,0,77.642,182.8c2.006,4.013,4.372,7.9,5.637,12.213,3.073,10.415-.591,21.456-3.677,31.871a7.41,7.41,0,0,0-.441,2.783,6.4,6.4,0,0,0,1.253,2.876c6.8,10.067,19.6,14.439,31.72,15.135a73.768,73.768,0,0,0,27.452-3.665c1.867-.626,3.862-1.45,4.79-3.189.835-1.577.557-3.491.267-5.254-2.946-18-4.836-36.382-2.517-54.475a31.221,31.221,0,0,0,.441-6.808,19.551,19.551,0,0,0-2.575-7.62,55.126,55.126,0,0,0-9.255-11.633c-8.49-8.617-18.475-18.069-29.261-23.718-7.086,9.174-16.144-6.553-24.692-3.653Z" transform="translate(-67.105 -66.741)" fill="#d9d9d9"/>
          <path id="Trazado_116812" data-name="Trazado 116812" d="M110.462,116.051a12.451,12.451,0,0,1-6.437-.835,51.921,51.921,0,0,1-10.972-5.2,47.159,47.159,0,0,0-5.509-3.271,9.017,9.017,0,0,0-4.187-1.067c-1.021.1-1.45.916-1.9,1.751a20.466,20.466,0,0,0-1.983,7.771c-.36,3.514-.534,7.04-.7,10.566-.1,2.308-.22,4.6-.325,6.912-.1,2.215-.615,3.92,1.021,5.671a22.176,22.176,0,0,0,11.18,6.274,28.179,28.179,0,0,0,12.9-.22,16.155,16.155,0,0,0,4.3-1.6,10.924,10.924,0,0,0,2.354-1.821c.916-.928.626-1.693.522-2.946-.2-2.436-.371-4.883-.487-7.318s-.174-4.883-.151-7.33c0-.684-.046-7.225.371-7.307Z" transform="translate(-65.665 -70.198)" fill="#ffb78c"/>
          <path id="Trazado_116813" data-name="Trazado 116813" d="M122.081,94.385a7.8,7.8,0,0,1,.87,2.111c.232,1.125-.023,2.32.232,3.433.673,2.911,4.372,4.152,5.521,6.912a9.812,9.812,0,0,0-4.024,5.358,29.213,29.213,0,0,0-1.183,6.727c-.267,2.818-.545,5.637-.812,8.466-2.6.684-5.184,1.38-7.782,2.064-2.4.638-5.033,1.253-7.283.2-2.378-1.125-3.816-3.943-6.379-4.535a7.557,7.557,0,0,0-2.7,0c-3.9.464-7.539.9-11.435.255a22.881,22.881,0,0,1-9.22-3.63,17.141,17.141,0,0,1-5.834-6.286,23.926,23.926,0,0,1-2.053-7.283,28.08,28.08,0,0,1,4.314-20.586,26.893,26.893,0,0,1,21.085-11.83,28.113,28.113,0,0,1,12.271,1.774,20.17,20.17,0,0,1,6.39,4.082c2.03,1.937,2.772,4.152,4.245,6.414,1.345,2.064,2.61,4.2,3.781,6.367Z" transform="translate(-67.055 -74.987)" fill="#ffb78c"/>
          <path id="Trazado_116814" data-name="Trazado 116814" d="M98.679,75.1A27.888,27.888,0,0,0,81.015,80.89a30.808,30.808,0,0,0-7.179,7.689,41.143,41.143,0,0,0-5.95,17.745,96.981,96.981,0,0,0-.464,12.584c.023,2.146.22,4.361.058,6.506-.139,1.809.418,2.54,1.832,3.792a40.208,40.208,0,0,0,20.435,9.719,33.867,33.867,0,0,0,22.117-4.14,2.128,2.128,0,0,0,.684-.557,2.272,2.272,0,0,0,.3-1.032c.232-2.018.731-4.4-.858-5.892s-3.723-1.612-5.439-2.853a4.825,4.825,0,0,1-.87-6.7c1.3-1.566,3.421-2.1,5.347-2.8a4.926,4.926,0,0,0,1.763-.963c1.392-1.345,1.287-3.468,1.485-5.254.255-2.285.51-4.581.765-6.866.452-3.99.916-7.979,1.345-11.969.29-2.656.023-6.588-2.134-8.5a26.621,26.621,0,0,0-6.182-3.966A24.08,24.08,0,0,0,98.655,75.1Z" transform="translate(-67.405 -75.084)" fill="#084a93"/>
          <path id="Trazado_116815" data-name="Trazado 116815" d="M223.7,146.614c-.371-.638-1.241-.719-1.948-.9-1.508-.394-2.714-1.554-4.2-2.041a14.8,14.8,0,0,1-2.111-.649c-.8-.394-1.4-1.113-2.2-1.519a5.952,5.952,0,0,0-3.1-.394,30.928,30.928,0,0,0-11.888,3.34c-4.454,2.3-6.518,7.179-9.777,10.763-1.45,1.589-23.868,18.951-24.9,19.658s-1.89.244-2.981-.2c-1.218-.5-25.759-18.069-38.2-23.926-2.586-1.218-5.416-2.227-8.258-1.89-3.294.383-4.825,2.424-6.216,5.126a16.989,16.989,0,0,0-1.438,9.928,24.6,24.6,0,0,0,.963,4.326c.87,2.737,3.445,5.231,5.37,7.249,8.664,9.07,20.227,14.926,32.161,18.812a51.678,51.678,0,0,0,14.88,2.946,9.49,9.49,0,0,0,3.526-.441c3.363-1.241,6.576-3.955,9.359-6.17a90,90,0,0,0,8.687-8,176.453,176.453,0,0,0,14.289-17.478,24.29,24.29,0,0,1,1.983-2.714,6.443,6.443,0,0,1,2.667-1.148,38.173,38.173,0,0,0,6.124-2.308,58.331,58.331,0,0,0,5.347-3.375,61.967,61.967,0,0,1,6.541-3.758c1.751-.87,3.607-1.693,4.848-3.189a1.874,1.874,0,0,0,.476-2.03Z" transform="translate(-61.189 -64.541)" fill="#ffb78c"/>
          <path id="Trazado_116816" data-name="Trazado 116816" d="M104.412,159.081c-.522,12.34,12.456,20.992,21.375,27.3,3.514,2.482,7.109,5,11.227,6.251a2.56,2.56,0,0,0,1.137.162,2.656,2.656,0,0,0,1.183-.591,37.9,37.9,0,0,0,9.754-10.044A25.592,25.592,0,0,0,153.3,168.9c0-.371-6.75-5.915-8.2-7.109-8.014-6.564-16.747-12.966-26.953-14.741a13,13,0,0,0-6.993.325,10.416,10.416,0,0,0-5.474,5.857,17.163,17.163,0,0,0-1.264,5.834Z" transform="translate(-61.494 -63.636)" fill="#f2f2f2"/>
        </g>
      </g>
      <g id="Grupo_112291" data-name="Grupo 112291" transform="translate(272.003 180.351)">
        <path id="Trazado_116817" data-name="Trazado 116817" d="M257.884,187.5l-17.919-10.345c-1.774-1.032-1.554-2.818.5-4.013l26.768-15.448a7.758,7.758,0,0,1,6.947-.29L292.1,167.75c1.774,1.032,1.554,2.818-.5,4.013l-26.768,15.448a7.758,7.758,0,0,1-6.947.29Z" transform="translate(-238.767 -156.716)" fill="#595959"/>
        <path id="Trazado_116818" data-name="Trazado 116818" d="M258.766,179.251l-9-5.2c-.383-.22-.336-.6.1-.858l15.7-9.058a1.642,1.642,0,0,1,1.485-.058l9,5.2c.383.22.336.6-.1.858l-15.7,9.058A1.642,1.642,0,0,1,258.766,179.251Z" transform="translate(-237.051 -155.563)" fill="#333"/>
        <g id="Grupo_112290" data-name="Grupo 112290" transform="translate(16.032 8.667)">
          <path id="Trazado_116819" data-name="Trazado 116819" d="M258.612,176.378s7.62-4.164,13.929-8.374l-7.353-.325-4.883,1.183-1.856,2.505.174,5Z" transform="translate(-251.653 -163.631)" fill="#747474"/>
          <path id="Trazado_116820" data-name="Trazado 116820" d="M273.536,168.493c.151-.29-.487-.858-.661-1.044a10.6,10.6,0,0,0-8.629-3.189,13.9,13.9,0,0,0-6.75,3.178,24.8,24.8,0,0,0-4.129,4.268c-.2.255-.394.522-.58.789-.023.035-.209.244-.2.3,0,0,.893,4.21,6.97,4.14a45.915,45.915,0,0,1,5.057-4.036,31.781,31.781,0,0,1,7.481-3.99,5.486,5.486,0,0,1,1.3-.336.148.148,0,0,0,.139-.081Z" transform="translate(-252.59 -164.189)" fill="url(#linear-gradient)"/>
        </g>
      </g>
      <g id="Grupo_112296" data-name="Grupo 112296" transform="translate(212.808 8.798)">
        <path id="Trazado_116821" data-name="Trazado 116821" d="M307.038,168.937l-39-22.5,6.332-3.653c1.009-.58,1.125-1.461.244-1.972L238.251,119.9a3.8,3.8,0,0,0-3.421.139l-6.274,3.63-37.032-21.363a2.236,2.236,0,0,0-2.006.081l-1.3.754c-.591.348-.661.858-.139,1.16l37.032,21.363-11.041,6.379c-1.009.58-1.125,1.461-.244,1.972l36.359,20.911a3.805,3.805,0,0,0,3.421-.139l10.983-6.344,39,22.5a2.236,2.236,0,0,0,2.006-.081l1.3-.754c.591-.348.661-.858.139-1.16Z" transform="translate(-187.727 6.111)" fill="#d9d9d9"/>
        <g id="Grupo_112292" data-name="Grupo 112292" transform="translate(30.204 96.183)">
          <path id="Trazado_116822" data-name="Trazado 116822" d="M266.32,138.782l-.336,1.763-.893,1.693-2.053,1.5-1.473,1.067-6.657,3.723-8.513,5.358-32.5-18.789h0a.445.445,0,0,1-.128-.336,1.272,1.272,0,0,1,.568-.986l15.692-9.093.707-.406a5.6,5.6,0,0,0,2.169-2.459,3.976,3.976,0,0,0,.36-2.876l-9.081-26.176,1.079-1.032,32.5,18.777-.116,2.459,3.735,10.044,2.911,8.606,1.867,4.941.162,2.215Z" transform="translate(-213.77 -91.73)" fill="#ccc"/>
          <path id="Trazado_116823" data-name="Trazado 116823" d="M263.038,139.205l-1.473,1.067L254.908,144l-8.513,5.358-32.5-18.789h0a.445.445,0,0,1-.128-.336,1.272,1.272,0,0,1,.568-.986l15.692-9.093,33,19.055Z" transform="translate(-213.77 -87.189)" fill="#e6e6e6"/>
          <path id="Trazado_116824" data-name="Trazado 116824" d="M258.734,141.806l-16.376,9.475c-.313.186-.568.035-.568-.325h0a1.272,1.272,0,0,1,.568-.986l16.4-9.487a5.637,5.637,0,0,0,2.169-2.47,3.976,3.976,0,0,0,.36-2.876L252.2,108.972l1.079-1.032,9.081,26.165a5.7,5.7,0,0,1-.464,4.013,8.222,8.222,0,0,1-3.178,3.688Z" transform="translate(-209.293 -89.14)" fill="#a6a6a6"/>
        </g>
        <g id="Grupo_112295" data-name="Grupo 112295" transform="translate(0.27)">
          <g id="Grupo_112293" data-name="Grupo 112293" transform="translate(0)">
            <path id="Trazado_116825" data-name="Trazado 116825" d="M304.161,73.412,192.856,9.148a1.774,1.774,0,0,0-1.809-.174l-2.227,1.3a1.8,1.8,0,0,1,1.809.174l111.3,64.264a5.557,5.557,0,0,1,2.528,4.384l-.244,85.441a1.8,1.8,0,0,1-.742,1.635l2.227-1.3a1.782,1.782,0,0,0,.742-1.635l.244-85.441a5.588,5.588,0,0,0-2.528-4.384Z" transform="translate(-187.823 -8.798)" fill="#595959"/>
            <path id="Trazado_116826" data-name="Trazado 116826" d="M290.7,129.05l-.046,14.973a1.8,1.8,0,0,1-.742,1.635l-2.227,1.3a1.782,1.782,0,0,0,.742-1.635l.046-14.984Z" transform="translate(-172.026 10.417)" fill="#bfbfbf"/>
            <path id="Trazado_116827" data-name="Trazado 116827" d="M304.6,78.917l-.244,85.441c0,1.612-1.148,2.262-2.552,1.45L190.5,101.545a5.572,5.572,0,0,1-2.54-4.4l.244-85.441c0-1.612,1.148-2.262,2.552-1.45l111.3,64.264a5.557,5.557,0,0,1,2.528,4.384Z" transform="translate(-187.96 -8.621)" fill="#333"/>
          </g>
          <path id="Trazado_116828" data-name="Trazado 116828" d="M304.4,139.43l-.046,14.973c0,1.612-1.148,2.262-2.552,1.45L190.5,91.588a5.572,5.572,0,0,1-2.54-4.4l.046-14.973,116.384,67.2Z" transform="translate(-187.96 1.336)" fill="#d9d9d9"/>
          <path id="Trazado_116829" data-name="Trazado 116829" d="M300.979,141.886,191.46,78.481V15.11L300.979,78.515Z" transform="translate(-187.401 -7.789)" fill="#1a1a1a"/>
          <g id="Grupo_112294" data-name="Grupo 112294" transform="translate(12.479 19.237)">
            <path id="Trazado_116830" data-name="Trazado 116830" d="M202.524,29.473l-2.946-1.7a2.058,2.058,0,0,1-.858-1.635h0c0-.626.383-.916.858-.649l2.946,1.7a2.058,2.058,0,0,1,.858,1.635h0C203.382,29.45,203,29.74,202.524,29.473Z" transform="translate(-198.72 -25.385)" fill="#006eff"/>
            <path id="Trazado_116831" data-name="Trazado 116831" d="M202.524,64.043l-2.946-1.7a2.058,2.058,0,0,1-.858-1.635h0c0-.626.383-.916.858-.649l2.946,1.7a2.058,2.058,0,0,1,.858,1.635h0C203.382,64.02,203,64.31,202.524,64.043Z" transform="translate(-198.72 -19.861)" fill="#006eff"/>
            <path id="Trazado_116832" data-name="Trazado 116832" d="M210.082,68.408l-5.9-3.41a2.058,2.058,0,0,1-.858-1.635h0c0-.626.383-.916.858-.649l5.9,3.41a2.058,2.058,0,0,1,.858,1.635h0C210.94,68.385,210.557,68.675,210.082,68.408Z" transform="translate(-197.985 -19.436)" fill="#b3d4ff"/>
            <path id="Trazado_116833" data-name="Trazado 116833" d="M230.206,80.027,211.348,69.148a2.058,2.058,0,0,1-.858-1.635h0c0-.626.383-.916.858-.649l18.858,10.879a2.058,2.058,0,0,1,.858,1.635h0C231.065,80,230.682,80.294,230.206,80.027Z" transform="translate(-196.839 -18.773)" fill="#ffad66"/>
            <path id="Trazado_116834" data-name="Trazado 116834" d="M213.38,35.739l-8.942-5.161a2.058,2.058,0,0,1-.858-1.635h0c0-.626.383-.916.858-.649l8.942,5.161a2.058,2.058,0,0,1,.858,1.635h0C214.238,35.716,213.856,36.006,213.38,35.739Z" transform="translate(-197.943 -24.936)" fill="#b3d4ff"/>
            <path id="Trazado_116835" data-name="Trazado 116835" d="M241.38,51.906,214.508,36.388a2.058,2.058,0,0,1-.858-1.635h0c0-.626.383-.916.858-.649L241.38,49.622a2.058,2.058,0,0,1,.858,1.635h0C242.239,51.883,241.856,52.173,241.38,51.906Z" transform="translate(-196.334 -24.007)" fill="#ffad66"/>
            <path id="Trazado_116836" data-name="Trazado 116836" d="M204.914,34.233l-2.946-1.7a2.058,2.058,0,0,1-.858-1.635h0c0-.626.383-.916.858-.649l2.946,1.7a2.058,2.058,0,0,1,.858,1.635h0C205.772,34.21,205.39,34.5,204.914,34.233Z" transform="translate(-198.338 -24.624)" fill="#006eff"/>
            <path id="Trazado_116837" data-name="Trazado 116837" d="M215.77,40.5l-8.942-5.161a2.058,2.058,0,0,1-.858-1.635h0c0-.626.383-.916.858-.649l8.942,5.161a2.058,2.058,0,0,1,.858,1.635h0C216.628,40.476,216.246,40.766,215.77,40.5Z" transform="translate(-197.562 -24.175)" fill="#b3d4ff"/>
            <path id="Trazado_116838" data-name="Trazado 116838" d="M243.77,56.666,216.9,41.148a2.058,2.058,0,0,1-.858-1.635h0c0-.626.383-.916.858-.649L243.77,54.382a2.058,2.058,0,0,1,.858,1.635h0C244.629,56.643,244.246,56.933,243.77,56.666Z" transform="translate(-195.952 -23.247)" fill="#ffad66"/>
            <path id="Trazado_116839" data-name="Trazado 116839" d="M204.914,37.893l-2.946-1.7a2.058,2.058,0,0,1-.858-1.635h0c0-.626.383-.916.858-.649l2.946,1.7a2.058,2.058,0,0,1,.858,1.635h0C205.772,37.87,205.39,38.16,204.914,37.893Z" transform="translate(-198.338 -24.039)" fill="#006eff"/>
            <path id="Trazado_116840" data-name="Trazado 116840" d="M204.914,41.363l-2.946-1.7a2.058,2.058,0,0,1-.858-1.635h0c0-.626.383-.916.858-.649l2.946,1.7a2.058,2.058,0,0,1,.858,1.635h0C205.772,41.34,205.39,41.63,204.914,41.363Z" transform="translate(-198.338 -23.485)" fill="#006eff"/>
            <path id="Trazado_116841" data-name="Trazado 116841" d="M204.914,55.383l-2.946-1.7a2.058,2.058,0,0,1-.858-1.635h0c0-.626.383-.916.858-.649l2.946,1.7a2.058,2.058,0,0,1,.858,1.635h0C205.772,55.36,205.39,55.65,204.914,55.383Z" transform="translate(-198.338 -21.244)" fill="#006eff"/>
            <path id="Trazado_116842" data-name="Trazado 116842" d="M204.914,58.793l-2.946-1.7a2.058,2.058,0,0,1-.858-1.635h0c0-.626.383-.916.858-.649l2.946,1.7a2.058,2.058,0,0,1,.858,1.635h0C205.772,58.77,205.39,59.06,204.914,58.793Z" transform="translate(-198.338 -20.7)" fill="#006eff"/>
            <path id="Trazado_116843" data-name="Trazado 116843" d="M204.914,68.523l-2.946-1.7a2.058,2.058,0,0,1-.858-1.635h0c0-.626.383-.916.858-.649l2.946,1.7a2.058,2.058,0,0,1,.858,1.635h0C205.772,68.5,205.39,68.79,204.914,68.523Z" transform="translate(-198.338 -19.145)" fill="#006eff"/>
            <path id="Trazado_116844" data-name="Trazado 116844" d="M212.248,72.754l-5.729-3.305a2.058,2.058,0,0,1-.858-1.635h0c0-.626.383-.916.858-.649l5.729,3.305a2.058,2.058,0,0,1,.858,1.635h0C213.106,72.731,212.723,73.021,212.248,72.754Z" transform="translate(-197.611 -18.725)" fill="#b3d4ff"/>
            <path id="Trazado_116845" data-name="Trazado 116845" d="M233.319,84.918l-19.6-11.32a2.058,2.058,0,0,1-.858-1.635h0c0-.626.383-.916.858-.649l19.6,11.32a2.058,2.058,0,0,1,.858,1.635h0C234.177,84.895,233.794,85.185,233.319,84.918Z" transform="translate(-196.461 -18.062)" fill="#ffad66"/>
            <path id="Trazado_116846" data-name="Trazado 116846" d="M240.074,79.093l-2.946-1.7a2.058,2.058,0,0,1-.858-1.635h0c0-.626.383-.916.858-.649l2.946,1.7a2.058,2.058,0,0,1,.858,1.635h0C240.932,79.07,240.55,79.36,240.074,79.093Z" transform="translate(-192.72 -17.456)" fill="#006eff"/>
            <path id="Trazado_116847" data-name="Trazado 116847" d="M203.484,43.613l-2.946-1.7a2.058,2.058,0,0,1-.858-1.635h0c0-.626.383-.916.858-.649l2.946,1.7a2.058,2.058,0,0,1,.858,1.635h0C204.342,43.59,203.96,43.88,203.484,43.613Z" transform="translate(-198.567 -23.125)" fill="#006eff"/>
            <path id="Trazado_116848" data-name="Trazado 116848" d="M210.885,47.887l-5.637-3.259a2.058,2.058,0,0,1-.858-1.635h0c0-.626.383-.916.858-.649l5.637,3.259a2.058,2.058,0,0,1,.858,1.635h0C211.743,47.864,211.36,48.154,210.885,47.887Z" transform="translate(-197.814 -22.691)" fill="#b3d4ff"/>
            <path id="Trazado_116849" data-name="Trazado 116849" d="M236.8,62.845l-3.978-2.3a2.058,2.058,0,0,1-.858-1.635h0c0-.626.383-.916.858-.649l3.978,2.3a2.058,2.058,0,0,1,.858,1.635h0C237.655,62.822,237.272,63.112,236.8,62.845Z" transform="translate(-193.409 -20.147)" fill="#b3d4ff"/>
            <path id="Trazado_116850" data-name="Trazado 116850" d="M221.472,54,212.3,48.7a2.058,2.058,0,0,1-.858-1.635h0c0-.626.383-.916.858-.649l9.174,5.3a2.058,2.058,0,0,1,.858,1.635h0C222.33,53.975,221.948,54.265,221.472,54Z" transform="translate(-196.688 -22.04)" fill="#ffad66"/>
            <path id="Trazado_116851" data-name="Trazado 116851" d="M203.484,47.413l-2.946-1.7a2.058,2.058,0,0,1-.858-1.635h0c0-.626.383-.916.858-.649l2.946,1.7a2.058,2.058,0,0,1,.858,1.635h0C204.342,47.39,203.96,47.68,203.484,47.413Z" transform="translate(-198.567 -22.518)" fill="#006eff"/>
            <path id="Trazado_116852" data-name="Trazado 116852" d="M203.484,61.293l-2.946-1.7a2.058,2.058,0,0,1-.858-1.635h0c0-.626.383-.916.858-.649l2.946,1.7a2.058,2.058,0,0,1,.858,1.635h0C204.342,61.27,203.96,61.56,203.484,61.293Z" transform="translate(-198.567 -20.3)" fill="#006eff"/>
            <path id="Trazado_116853" data-name="Trazado 116853" d="M210.885,51.687l-5.637-3.259a2.058,2.058,0,0,1-.858-1.635h0c0-.626.383-.916.858-.649l5.637,3.259a2.058,2.058,0,0,1,.858,1.635h0C211.743,51.664,211.36,51.954,210.885,51.687Z" transform="translate(-197.814 -22.083)" fill="#b3d4ff"/>
            <path id="Trazado_116854" data-name="Trazado 116854" d="M210.624,62.086l-3.746-2.157a2.058,2.058,0,0,1-.858-1.635h0c0-.626.383-.916.858-.649l3.746,2.157a2.058,2.058,0,0,1,.858,1.635h0C211.483,62.062,211.1,62.352,210.624,62.086Z" transform="translate(-197.554 -20.246)" fill="#b3d4ff"/>
            <path id="Trazado_116855" data-name="Trazado 116855" d="M224.424,70.056,220.678,67.9a2.058,2.058,0,0,1-.858-1.635h0c0-.626.383-.916.858-.649l3.746,2.157a2.058,2.058,0,0,1,.858,1.635h0C225.283,70.032,224.9,70.322,224.424,70.056Z" transform="translate(-195.349 -18.972)" fill="#b3d4ff"/>
            <path id="Trazado_116856" data-name="Trazado 116856" d="M252.833,79.78,203.148,51.1a2.058,2.058,0,0,1-.858-1.635h0c0-.626.383-.916.858-.649L252.833,77.5a2.058,2.058,0,0,1,.858,1.635h0C253.692,79.757,253.309,80.047,252.833,79.78Z" transform="translate(-198.15 -21.657)" fill="#f2f2f2"/>
            <path id="Trazado_116857" data-name="Trazado 116857" d="M219.385,56.6,212.3,52.508a2.058,2.058,0,0,1-.858-1.635h0c0-.626.383-.916.858-.649l7.086,4.094a2.058,2.058,0,0,1,.858,1.635h0C220.243,56.579,219.86,56.869,219.385,56.6Z" transform="translate(-196.688 -21.431)" fill="#ffad66"/>
            <path id="Trazado_116858" data-name="Trazado 116858" d="M219.385,67.142,212.3,63.048a2.058,2.058,0,0,1-.858-1.635h0c0-.626.383-.916.858-.649l7.086,4.094a2.058,2.058,0,0,1,.858,1.635h0C220.243,67.119,219.86,67.409,219.385,67.142Z" transform="translate(-196.688 -19.747)" fill="#ffad66"/>
            <path id="Trazado_116859" data-name="Trazado 116859" d="M236.237,76.874,226.228,71.1a2.058,2.058,0,0,1-.858-1.635h0c0-.626.383-.916.858-.649l10.009,5.776a2.058,2.058,0,0,1,.858,1.635h0C237.1,76.851,236.713,77.141,236.237,76.874Z" transform="translate(-194.462 -18.461)" fill="#f2f2f2"/>
            <path id="Trazado_116860" data-name="Trazado 116860" d="M231.962,60.059l-9.174-5.3a2.058,2.058,0,0,1-.858-1.635h0c0-.626.383-.916.858-.649l9.174,5.3a2.058,2.058,0,0,1,.858,1.635h0C232.82,60.035,232.438,60.325,231.962,60.059Z" transform="translate(-195.011 -21.072)" fill="#f2f2f2"/>
            <path id="Trazado_116861" data-name="Trazado 116861" d="M215.77,44.159,206.828,39a2.058,2.058,0,0,1-.858-1.635h0c0-.626.383-.916.858-.649l8.942,5.161a2.058,2.058,0,0,1,.858,1.635h0C216.628,44.136,216.246,44.426,215.77,44.159Z" transform="translate(-197.562 -23.59)" fill="#b3d4ff"/>
            <path id="Trazado_116862" data-name="Trazado 116862" d="M232.34,53.729,223.4,48.568a2.058,2.058,0,0,1-.858-1.635h0c0-.626.383-.916.858-.649l8.942,5.161a2.058,2.058,0,0,1,.858,1.635h0C233.2,53.706,232.816,54,232.34,53.729Z" transform="translate(-194.914 -22.061)" fill="#b3d4ff"/>
            <path id="Trazado_116863" data-name="Trazado 116863" d="M221.421,47.428l-4.523-2.61a2.058,2.058,0,0,1-.858-1.635h0c0-.626.383-.916.858-.649l4.523,2.61a2.058,2.058,0,0,1,.858,1.635h0C222.28,47.4,221.9,47.695,221.421,47.428Z" transform="translate(-195.952 -22.66)" fill="#ffad66"/>
            <path id="Trazado_116864" data-name="Trazado 116864" d="M248.308,62.95l-14.59-8.432a2.058,2.058,0,0,1-.858-1.635h0c0-.626.383-.916.858-.649l14.59,8.432a2.058,2.058,0,0,1,.858,1.635h0C249.167,62.927,248.784,63.217,248.308,62.95Z" transform="translate(-193.265 -21.11)" fill="#ffad66"/>
            <path id="Trazado_116865" data-name="Trazado 116865" d="M204.914,71.623l-2.946-1.7a2.058,2.058,0,0,1-.858-1.635h0c0-.626.383-.916.858-.649l2.946,1.7a2.058,2.058,0,0,1,.858,1.635h0C205.772,71.6,205.39,71.89,204.914,71.623Z" transform="translate(-198.338 -18.65)" fill="#006eff"/>
            <path id="Trazado_116866" data-name="Trazado 116866" d="M215.77,77.889l-8.942-5.161a2.058,2.058,0,0,1-.858-1.635h0c0-.626.383-.916.858-.649L215.77,75.6a2.058,2.058,0,0,1,.858,1.635h0C216.628,77.866,216.246,78.156,215.77,77.889Z" transform="translate(-197.562 -18.201)" fill="#b3d4ff"/>
            <path id="Trazado_116867" data-name="Trazado 116867" d="M232.34,87.459,223.4,82.3a2.058,2.058,0,0,1-.858-1.635h0c0-.626.383-.916.858-.649l8.942,5.161a2.058,2.058,0,0,1,.858,1.635h0C233.2,87.436,232.816,87.726,232.34,87.459Z" transform="translate(-194.914 -16.671)" fill="#b3d4ff"/>
            <path id="Trazado_116868" data-name="Trazado 116868" d="M221.421,81.148l-4.523-2.61a2.058,2.058,0,0,1-.858-1.635h0c0-.626.383-.916.858-.649l4.523,2.61a2.058,2.058,0,0,1,.858,1.635h0C222.28,81.125,221.9,81.415,221.421,81.148Z" transform="translate(-195.952 -17.272)" fill="#ffad66"/>
            <path id="Trazado_116869" data-name="Trazado 116869" d="M248.308,96.67l-14.59-8.432a2.058,2.058,0,0,1-.858-1.635h0c0-.626.383-.916.858-.649l14.59,8.432a2.058,2.058,0,0,1,.858,1.635h0C249.167,96.647,248.784,96.937,248.308,96.67Z" transform="translate(-193.265 -15.722)" fill="#ffad66"/>
          </g>
        </g>
      </g>
      <g id="Grupo_112299" data-name="Grupo 112299" transform="translate(30.76 28.558)">
        <g id="Grupo_112297" data-name="Grupo 112297" transform="translate(0.94)">
          <path id="Trazado_116870" data-name="Trazado 116870" d="M55.12,77.759a25.122,25.122,0,0,0,6.866,15.147l3.607-2.1A25.221,25.221,0,0,1,58.727,75.66l-3.607,2.1Z" transform="translate(-27.807 -17.874)" fill="#595959"/>
          <path id="Trazado_116871" data-name="Trazado 116871" d="M68.695,44.4,37.23,26.235a2.046,2.046,0,0,0-2.053-.209l-3.607,2.1a2.045,2.045,0,0,1,2.053.209L65.088,46.5a6.277,6.277,0,0,1,2.853,4.941l-.1,36.162A2.03,2.03,0,0,1,67,89.455l3.607-2.1a2.03,2.03,0,0,0,.835-1.856l.1-36.162A6.277,6.277,0,0,0,68.695,44.4Z" transform="translate(-31.57 -25.836)" fill="#595959"/>
        </g>
        <path id="Trazado_116872" data-name="Trazado 116872" d="M65.217,46.2a6.277,6.277,0,0,1,2.853,4.941l-.1,36.162c0,1.844-1.287,2.563-2.865,1.658l-6.077-3.514A25.148,25.148,0,0,0,65.89,100.59a12.1,12.1,0,0,1-3.271-1.415c-3.769-2.169-10-7.481-14.416-19.983L33.625,70.784A6.252,6.252,0,0,1,30.76,65.82l.1-36.151c0-1.821,1.287-2.552,2.888-1.624L65.217,46.208Z" transform="translate(-30.76 -25.547)" fill="#333"/>
        <g id="Grupo_112298" data-name="Grupo 112298" transform="translate(4.697 24.245)">
          <path id="Trazado_116873" data-name="Trazado 116873" d="M38.289,49.489l5.115,6.39v2.273L34.81,47.471,43.4,46.74v2.273l-5.115.464Z" transform="translate(-34.81 -46.74)" fill="#fff"/>
          <path id="Trazado_116874" data-name="Trazado 116874" d="M45.788,63.237l-1.658-.951q2.453-6.176,3.653-9.267l1.832-4.639,1.658.951L45.788,63.237Z" transform="translate(-33.321 -46.478)" fill="#fff"/>
          <path id="Trazado_116875" data-name="Trazado 116875" d="M57.008,60.972l-5.138-6.4V52.32l8.617,10.67-8.617.742v-2.3l5.138-.452Z" transform="translate(-32.084 -45.848)" fill="#fff"/>
        </g>
      </g>
    </g>
  </g>
</svg>
