<svg xmlns="http://www.w3.org/2000/svg" width="85.867" height="98.906" viewBox="0 0 85.867 98.906">
  <g id="Grupo_131832" data-name="Grupo 131832" transform="translate(-180 -4551.721)">
    <g id="_1_2_C" data-name="1_2_C" transform="translate(147.1 4545.363)">
      <g id="Layer_1" transform="translate(32.9 6.357)">
        <g id="Grupo_112402" data-name="Grupo 112402">
          <g id="Grupo_112399" data-name="Grupo 112399" transform="translate(19.595)">
            <g id="Grupo_112397" data-name="Grupo 112397" transform="translate(0.586)">
              <g id="Grupo_112383" data-name="Grupo 112383" transform="translate(8.497)">
                <path id="Trazado_117172" data-name="Trazado 117172" d="M164.8,307.863l-29.233-16.872c-.625-.362-.547-.993.174-1.408l1.661-.959a2.707,2.707,0,0,1,2.44-.1l29.233,16.872c.626.362.547.993-.174,1.408l-1.661.959A2.707,2.707,0,0,1,164.8,307.863Z" transform="translate(-135.144 -209.202)" fill="#f2f2f2"/>
                <path id="Trazado_117173" data-name="Trazado 117173" d="M171.941,22.124l-26.9-15.531a1.284,1.284,0,0,0-1.316-.1L141.07,8.03l3.125,2.429.763-.194V74.013a4.862,4.862,0,0,0,2.031,3.879l23.587,17.264v1.063l2.746-1.6v-.011a1.837,1.837,0,0,0,.651-1.6V26A4.862,4.862,0,0,0,171.941,22.124Z" transform="translate(-139.408 -6.357)" fill="#999"/>
                <path id="Trazado_117174" data-name="Trazado 117174" d="M167.826,27.82v-3.01L165.181,26.8l-11.562-4.844-8.662-6.305V10.27l-.769.191L141.07,8.034,143.723,6.5a1.3,1.3,0,0,1,1.316.1l26.9,15.536a4.378,4.378,0,0,1,1.733,2.308l-5.845,3.377Z" transform="translate(-139.408 -6.362)" fill="#e6e6e6"/>
                <g id="Grupo_112381" data-name="Grupo 112381" transform="translate(0.93 1.549)">
                  <path id="Trazado_117175" data-name="Trazado 117175" d="M167.4,100.07,140.5,84.539a4.862,4.862,0,0,1-2.031-3.879v-67c0-1.5.909-2.182,2.031-1.534l26.9,15.531a4.862,4.862,0,0,1,2.031,3.879v67C169.431,100.03,168.522,100.718,167.4,100.07Z" transform="translate(-138.467 -11.88)" fill="#ccc"/>
                  <path id="Trazado_117176" data-name="Trazado 117176" d="M140.58,83.043V15.935c0-1.088.662-1.59,1.481-1.119L168.876,30.3a3.545,3.545,0,0,1,1.481,2.827v67.108c0,1.088-.662,1.59-1.481,1.119L142.061,85.87A3.545,3.545,0,0,1,140.58,83.043Z" transform="translate(-139.985 -13.865)" fill="#333"/>
                  <path id="Trazado_117177" data-name="Trazado 117177" d="M171.573,38.545v65c0,.968-.682,1.349-1.52.867L144.9,89.892a3.361,3.361,0,0,1-1.526-2.631v-65c0-.968.682-1.355,1.526-.87l4.6,2.653a.952.952,0,0,1,.412.595l.213.971a3.843,3.843,0,0,0,1.745,2.457l11.217,6.477c.855.494,1.59.306,1.745-.443l.213-.726c.053-.18.222-.23.412-.118l4.6,2.656a3.361,3.361,0,0,1,1.52,2.628Z" transform="translate(-141.993 -18.574)" fill="#b9ddfc"/>
                  <path id="Trazado_117178" data-name="Trazado 117178" d="M180.366,116.441a1.747,1.747,0,0,1,.794,1.377l-.008,2.752c0,.5-.359.712-.8.457l-16.128-9.312a1.747,1.747,0,0,1-.794-1.377l.008-2.752c0-.508.359-.712.8-.457Z" transform="translate(-156.426 -80.333)" fill="#57b2ff"/>
                  <path id="Trazado_117179" data-name="Trazado 117179" d="M180.366,150.751a1.747,1.747,0,0,1,.794,1.377l-.008,2.754c0,.5-.359.71-.8.454l-16.128-9.312a1.746,1.746,0,0,1-.794-1.374l.008-2.754c0-.508.359-.712.8-.457Z" transform="translate(-156.426 -105.019)" fill="#57b2ff"/>
                  <g id="Grupo_112378" data-name="Grupo 112378" transform="translate(0 43.011)">
                    <path id="Trazado_117180" data-name="Trazado 117180" d="M139.843,166.019v4.656l-1.383-.8V165.22Z" transform="translate(-138.46 -165.22)" fill="#b3b3b3"/>
                    <path id="Trazado_117181" data-name="Trazado 117181" d="M166.737,182.772l-.006,2.2c-.006.676-.485.951-1.074.614L143.38,172.719V168.06l22.288,12.863A2.367,2.367,0,0,1,166.737,182.772Z" transform="translate(-142 -167.263)" fill="#57b2ff"/>
                  </g>
                  <path id="Trazado_117182" data-name="Trazado 117182" d="M161.577,223.337a1.689,1.689,0,0,1,.766,1.33l-.022,7.542c0,.488-.348.684-.771.438l-6.564-3.789a1.692,1.692,0,0,1-.766-1.327l.022-7.542c0-.488.345-.687.771-.44Z" transform="translate(-149.799 -161.223)" fill="#57b2ff"/>
                  <path id="Trazado_117183" data-name="Trazado 117183" d="M205.037,248.391a1.692,1.692,0,0,1,.766,1.327l-.022,7.542c0,.488-.345.684-.771.44l-6.564-3.789a1.684,1.684,0,0,1-.766-1.327l.022-7.542c0-.488.348-.684.771-.44l6.564,3.789Z" transform="translate(-181.069 -179.249)" fill="#57b2ff"/>
                  <path id="Trazado_117184" data-name="Trazado 117184" d="M171.2,58.965a2.727,2.727,0,0,1,1.237,2.143l-.02,6.457c0,.788-.561,1.105-1.245.71L152.547,57.52a2.727,2.727,0,0,1-1.237-2.143l.02-6.457c0-.788.561-1.105,1.245-.712L171.2,58.962Z" transform="translate(-147.706 -37.897)" fill="#57b2ff"/>
                  <g id="Grupo_112379" data-name="Grupo 112379" transform="translate(0 22.857)">
                    <path id="Trazado_117185" data-name="Trazado 117185" d="M139.843,94.169v12.647l-1.383-.8V93.37Z" transform="translate(-138.46 -93.37)" fill="#b3b3b3"/>
                    <path id="Trazado_117186" data-name="Trazado 117186" d="M145.452,98.643l-.031,10.168c0,.676-.48.945-1.074.609l-.956-.553V96.22l.993.578a2.361,2.361,0,0,1,1.069,1.848Z" transform="translate(-142.007 -95.421)" fill="#57b2ff"/>
                  </g>
                  <g id="Grupo_112380" data-name="Grupo 112380" transform="translate(9.265 7.034)">
                    <path id="Trazado_117187" data-name="Trazado 117187" d="M173.122,38.479c0,.516-.365.726-.816.466a1.8,1.8,0,0,1-.816-1.408c0-.519.365-.726.816-.466A1.8,1.8,0,0,1,173.122,38.479Z" transform="translate(-171.49 -36.959)" fill="#666"/>
                    <path id="Trazado_117188" data-name="Trazado 117188" d="M173.712,39.484c0,.283-.2.4-.446.255a.985.985,0,0,1-.446-.771c0-.283.2-.4.446-.255A.985.985,0,0,1,173.712,39.484Z" transform="translate(-172.447 -38.176)" fill="#333"/>
                  </g>
                  <path id="Trazado_117189" data-name="Trazado 117189" d="M186.548,41.442l-7.98-4.608a.57.57,0,0,1-.238-.454v-.323c0-.174.107-.255.238-.18l7.98,4.608a.57.57,0,0,1,.238.454v.323C186.787,41.437,186.68,41.518,186.548,41.442Z" transform="translate(-167.147 -29.126)"/>
                </g>
                <g id="Grupo_112382" data-name="Grupo 112382" transform="translate(32.331 29.913)">
                  <path id="Trazado_117190" data-name="Trazado 117190" d="M251.9,113.059a.613.613,0,0,0-.62.062,1.9,1.9,0,0,0-.867,1.5l.022,7.963a.611.611,0,0,0,.255.558l.482.28a.608.608,0,0,1-.255-.558l-.022-7.963a1.919,1.919,0,0,1,.867-1.5.613.613,0,0,1,.62-.062Z" transform="translate(-250.41 -113)" fill="#e6e6e6"/>
                  <path id="Trazado_117191" data-name="Trazado 117191" d="M253,114.123c.482-.278.872-.056.872.5l.022,7.963a1.928,1.928,0,0,1-.867,1.5c-.482.278-.872.05-.872-.5l-.022-7.963a1.92,1.92,0,0,1,.867-1.5Z" transform="translate(-251.648 -113.722)" fill="#bfbfbf"/>
                  <path id="Trazado_117192" data-name="Trazado 117192" d="M253.892,117.369c.4-.227.715-.045.715.41l.02,6.533a1.583,1.583,0,0,1-.712,1.234c-.4.227-.715.042-.715-.41l-.02-6.533a1.574,1.574,0,0,1,.712-1.234Z" transform="translate(-252.403 -116.074)" fill="#ccc"/>
                </g>
              </g>
              <g id="Grupo_112386" data-name="Grupo 112386" transform="translate(0 5.446)">
                <path id="Trazado_117193" data-name="Trazado 117193" d="M114.075,29.669l-6.564-3.789a.542.542,0,0,0-.547-.053l-1.234.718a.542.542,0,0,1,.547.053l6.564,3.789a1.689,1.689,0,0,1,.766,1.33l-.022,7.542a.533.533,0,0,1-.224.491l1.234-.718a.536.536,0,0,0,.224-.491L114.84,31a1.7,1.7,0,0,0-.766-1.33Z" transform="translate(-105.483 -25.774)" fill="#084a93"/>
                <path id="Trazado_117194" data-name="Trazado 117194" d="M112.207,32.227a1.689,1.689,0,0,1,.766,1.33l-.022,7.542c0,.488-.348.684-.771.438l-6.564-3.789a1.692,1.692,0,0,1-.766-1.327l.022-7.542c0-.488.345-.687.771-.44Z" transform="translate(-104.85 -27.615)" fill="#ffb30b"/>
                <g id="Grupo_112385" data-name="Grupo 112385" transform="translate(0.407 3.755)">
                  <g id="Grupo_112384" data-name="Grupo 112384" transform="translate(0 1.649)">
                    <path id="Trazado_117195" data-name="Trazado 117195" d="M109.486,47.8l-.617,1.655L106.3,47.971l1.6-2.25c.224-.317.783.008,1.007.581l.583,1.5Z" transform="translate(-106.3 -45.441)" fill="#fff"/>
                    <path id="Trazado_117196" data-name="Trazado 117196" d="M117.09,56.047l-1.63-.942.617-1.655Z" transform="translate(-112.891 -51.09)" fill="#e6e6e6"/>
                    <path id="Trazado_117197" data-name="Trazado 117197" d="M121.242,51.476l-2.569-1.484L117.66,47.4l.78-2.09c.233-.625,1.172-.084,1.405.811Z" transform="translate(-114.474 -45.038)" fill="#fff"/>
                  </g>
                  <path id="Trazado_117198" data-name="Trazado 117198" d="M114.764,40.229c0,.365-.258.51-.572.328a1.261,1.261,0,0,1-.572-.99c0-.365.258-.51.572-.328A1.261,1.261,0,0,1,114.764,40.229Z" transform="translate(-111.567 -39.16)" fill="#e6e6e6"/>
                </g>
              </g>
              <g id="Grupo_112387" data-name="Grupo 112387" transform="translate(14.566 28.616)">
                <path id="Trazado_117199" data-name="Trazado 117199" d="M175.569,117.8l-16.128-9.312a.559.559,0,0,0-.567-.056l-1.234.718a.559.559,0,0,1,.567.056l16.128,9.312a1.747,1.747,0,0,1,.794,1.377l-.008,2.752a.56.56,0,0,1-.233.513l1.234-.718a.56.56,0,0,0,.233-.513l.008-2.752A1.754,1.754,0,0,0,175.569,117.8Z" transform="translate(-157.399 -108.378)" fill="#084a93"/>
                <path id="Trazado_117200" data-name="Trazado 117200" d="M173.716,120.361a1.747,1.747,0,0,1,.794,1.377l-.008,2.752c0,.508-.359.712-.8.457l-16.128-9.312a1.747,1.747,0,0,1-.794-1.377l.008-2.752c0-.508.359-.712.8-.457Z" transform="translate(-156.78 -110.22)" fill="#ffb30b"/>
                <path id="Trazado_117201" data-name="Trazado 117201" d="M176.519,128.418l-14.793-8.583c-.168-.1-.306.006-.306.233h0a.736.736,0,0,0,.306.586l14.793,8.583c.168.1.306-.006.306-.233h0A.736.736,0,0,0,176.519,128.418Z" transform="translate(-160.118 -116.595)" fill="#fff"/>
              </g>
              <g id="Grupo_112388" data-name="Grupo 112388" transform="translate(14.566 38.242)">
                <path id="Trazado_117202" data-name="Trazado 117202" d="M175.569,152.12l-16.128-9.312a.559.559,0,0,0-.567-.056l-1.234.718a.559.559,0,0,1,.567.056l16.128,9.312a1.747,1.747,0,0,1,.794,1.377l-.008,2.754a.552.552,0,0,1-.233.511l1.234-.718a.564.564,0,0,0,.233-.51l.008-2.754A1.755,1.755,0,0,0,175.569,152.12Z" transform="translate(-157.399 -142.698)" fill="#084a93"/>
                <path id="Trazado_117203" data-name="Trazado 117203" d="M173.716,154.671a1.747,1.747,0,0,1,.794,1.377L174.5,158.8c0,.5-.359.71-.8.454l-16.128-9.312a1.746,1.746,0,0,1-.794-1.374l.008-2.754c0-.508.359-.712.8-.457l16.128,9.312Z" transform="translate(-156.78 -144.533)" fill="#ffb30b"/>
                <path id="Trazado_117204" data-name="Trazado 117204" d="M176.519,162.188l-14.793-8.583c-.168-.1-.306.006-.306.233h0a.736.736,0,0,0,.306.586l14.793,8.583c.168.1.306-.006.306-.233h0A.736.736,0,0,0,176.519,162.188Z" transform="translate(-160.118 -150.519)" fill="#fff"/>
              </g>
              <g id="Grupo_112390" data-name="Grupo 112390" transform="translate(0 53.248)">
                <path id="Trazado_117205" data-name="Trazado 117205" d="M114.075,200.089l-6.564-3.789a.542.542,0,0,0-.547-.053l-1.234.718a.542.542,0,0,1,.547.053l6.564,3.789a1.689,1.689,0,0,1,.766,1.33l-.022,7.542a.533.533,0,0,1-.224.491l1.234-.718a.536.536,0,0,0,.224-.491l.022-7.542a1.7,1.7,0,0,0-.766-1.33Z" transform="translate(-105.483 -196.194)" fill="#084a93"/>
                <path id="Trazado_117206" data-name="Trazado 117206" d="M112.207,202.647a1.689,1.689,0,0,1,.766,1.33l-.022,7.542c0,.488-.348.684-.771.438l-6.564-3.789a1.692,1.692,0,0,1-.766-1.327l.022-7.542c0-.488.345-.687.771-.44Z" transform="translate(-104.85 -198.035)" fill="#ffb30b"/>
                <g id="Grupo_112389" data-name="Grupo 112389" transform="translate(0.841 3.402)">
                  <path id="Trazado_117207" data-name="Trazado 117207" d="M114.15,212.1v.011l-3.127.264-3.172-3.91h0c0-.123.087-.171.194-.109l5.913,3.414a.426.426,0,0,1,.194.334Z" transform="translate(-107.85 -208.324)" fill="#fff"/>
                  <path id="Trazado_117208" data-name="Trazado 117208" d="M111.022,213.593l3.127-.264v3.806c0,.123-.087.171-.194.109l-5.913-3.414a.426.426,0,0,1-.194-.334V209.68l3.127,3.854.048.059Z" transform="translate(-107.85 -209.3)" fill="#fff"/>
                </g>
              </g>
              <g id="Grupo_112391" data-name="Grupo 112391" transform="translate(0.951 41.597)">
                <path id="Trazado_117209" data-name="Trazado 117209" d="M140.566,171.663l-29.2-16.86a.757.757,0,0,0-.76-.076l-1.234.718a.75.75,0,0,1,.76.076l29.2,16.86a2.347,2.347,0,0,1,1.066,1.843l-.006,2.2a.753.753,0,0,1-.311.687l1.234-.718a.753.753,0,0,0,.311-.687l.006-2.2A2.342,2.342,0,0,0,140.566,171.663Z" transform="translate(-109.053 -154.656)" fill="#084a93"/>
                <path id="Trazado_117210" data-name="Trazado 117210" d="M138.519,174.219a2.347,2.347,0,0,1,1.066,1.843l-.006,2.2c0,.679-.48.954-1.071.611l-29.2-16.86a2.355,2.355,0,0,1-1.066-1.846l.006-2.2c0-.679.482-.951,1.071-.611l29.2,16.86Z" transform="translate(-108.24 -156.493)" fill="#ffb30b"/>
                <path id="Trazado_117211" data-name="Trazado 117211" d="M140.564,181.773l-28.108-16.327c-.168-.1-.306.006-.306.233h0a.736.736,0,0,0,.306.586l28.108,16.327c.168.1.306-.006.306-.233h0A.736.736,0,0,0,140.564,181.773Z" transform="translate(-111.053 -162.392)" fill="#fff"/>
              </g>
              <g id="Grupo_112393" data-name="Grupo 112393" transform="translate(11.983 60.154)">
                <path id="Trazado_117212" data-name="Trazado 117212" d="M156.785,224.709l-6.564-3.789a.542.542,0,0,0-.547-.053l-1.234.718a.542.542,0,0,1,.547.053l6.564,3.789a1.689,1.689,0,0,1,.766,1.33l-.022,7.542a.533.533,0,0,1-.224.491l1.234-.718a.536.536,0,0,0,.224-.491l.022-7.542A1.7,1.7,0,0,0,156.785,224.709Z" transform="translate(-148.196 -220.814)" fill="#084a93"/>
                <path id="Trazado_117213" data-name="Trazado 117213" d="M154.927,227.257a1.689,1.689,0,0,1,.766,1.33l-.022,7.542c0,.488-.348.684-.771.438l-6.564-3.789a1.692,1.692,0,0,1-.766-1.327l.022-7.542c0-.488.345-.687.771-.44Z" transform="translate(-147.57 -222.647)" fill="#ffb30b"/>
                <g id="Grupo_112392" data-name="Grupo 112392" transform="translate(0.755 3.729)">
                  <path id="Trazado_117214" data-name="Trazado 117214" d="M156.274,242.024l-5.422-3.13a1.3,1.3,0,0,1-.592-1.024v-2.987c0-.376.266-.527.592-.339l5.422,3.13a1.3,1.3,0,0,1,.592,1.024v2.987C156.866,242.06,156.6,242.212,156.274,242.024Zm-5.422-7.195c-.191-.109-.345-.022-.345.2v2.987a.767.767,0,0,0,.345.6l5.422,3.13c.191.109.345.022.345-.2v-2.987a.767.767,0,0,0-.345-.6Z" transform="translate(-150.26 -234.364)" fill="#fff"/>
                  <path id="Trazado_117215" data-name="Trazado 117215" d="M158.332,245.111a3.185,3.185,0,0,1-1.442-2.488c0-.914.648-1.282,1.442-.822a3.185,3.185,0,0,1,1.442,2.488C159.773,245.2,159.126,245.571,158.332,245.111Zm0-3.024c-.659-.381-1.195-.076-1.195.682a2.637,2.637,0,0,0,1.195,2.062c.659.381,1.195.076,1.195-.682A2.637,2.637,0,0,0,158.332,242.087Z" transform="translate(-155.03 -239.501)" fill="#fff"/>
                  <path id="Trazado_117216" data-name="Trazado 117216" d="M159.362,237.078,155.94,235.1v-.715c0-.247.174-.345.39-.222l2.645,1.526a.857.857,0,0,1,.39.67v.715Zm-3.175-2.118,2.928,1.691v-.432a.312.312,0,0,0-.143-.244l-2.645-1.526c-.079-.045-.143-.008-.143.081v.432Z" transform="translate(-154.347 -234.11)" fill="#fff"/>
                </g>
              </g>
              <g id="Grupo_112394" data-name="Grupo 112394" transform="translate(24.173 67.18)">
                <path id="Trazado_117217" data-name="Trazado 117217" d="M200.255,249.759l-6.564-3.789a.542.542,0,0,0-.547-.053l-1.234.718a.542.542,0,0,1,.547.053l6.564,3.789a1.692,1.692,0,0,1,.766,1.327l-.022,7.542a.542.542,0,0,1-.224.494l1.234-.718a.538.538,0,0,0,.224-.494l.022-7.542a1.684,1.684,0,0,0-.766-1.327Z" transform="translate(-191.663 -245.864)" fill="#084a93"/>
                <path id="Trazado_117218" data-name="Trazado 117218" d="M198.387,252.311a1.692,1.692,0,0,1,.766,1.327l-.022,7.542c0,.488-.345.684-.771.44l-6.564-3.789a1.684,1.684,0,0,1-.766-1.327l.022-7.542c0-.488.348-.684.771-.44Z" transform="translate(-191.03 -247.7)" fill="#ffb30b"/>
                <path id="Trazado_117219" data-name="Trazado 117219" d="M198.645,260.582c-1.5-.867-2.715-.412-2.715,1.01a4.864,4.864,0,0,0,1.279,2.923c-.036.241-.191.746-.878.356,0,0,.948,1.043,1.846.553a4.556,4.556,0,0,0,.471.311c1.5.867,2.715.412,2.715-1.01a5.53,5.53,0,0,0-2.715-4.146Z" transform="translate(-194.556 -256.137)" fill="#fff"/>
              </g>
              <g id="Grupo_112396" data-name="Grupo 112396" transform="translate(11.166 12.075)">
                <path id="Trazado_117220" data-name="Trazado 117220" d="M166.765,60.329,148.138,49.575a.882.882,0,0,0-.884-.087l-1.234.718a.875.875,0,0,1,.884.087l18.628,10.754a2.727,2.727,0,0,1,1.237,2.143l-.02,6.454a.874.874,0,0,1-.362.8l1.234-.718a.868.868,0,0,0,.362-.8l.02-6.454A2.734,2.734,0,0,0,166.765,60.329Z" transform="translate(-145.639 -49.405)" fill="#084a93"/>
                <path id="Trazado_117221" data-name="Trazado 117221" d="M164.552,62.892a2.727,2.727,0,0,1,1.237,2.143l-.02,6.457c0,.788-.561,1.105-1.245.71L145.9,61.448A2.727,2.727,0,0,1,144.66,59.3l.02-6.454c0-.788.561-1.105,1.245-.712Z" transform="translate(-144.66 -51.25)" fill="#ffb30b"/>
                <g id="Grupo_112395" data-name="Grupo 112395" transform="translate(1.554 2.971)">
                  <path id="Trazado_117222" data-name="Trazado 117222" d="M168.07,70.217,150.506,60.035c-.168-.1-.306.006-.306.233h0a.736.736,0,0,0,.306.586L168.07,71.036c.168.1.306-.006.306-.233h0A.736.736,0,0,0,168.07,70.217Z" transform="translate(-150.2 -59.998)" fill="#fff"/>
                  <path id="Trazado_117223" data-name="Trazado 117223" d="M168.07,78.907,150.506,68.725c-.168-.1-.306.006-.306.233h0a.736.736,0,0,0,.306.586L168.07,79.726c.168.1.306-.006.306-.233h0A.736.736,0,0,0,168.07,78.907Z" transform="translate(-150.2 -66.251)" fill="#fff"/>
                  <path id="Trazado_117224" data-name="Trazado 117224" d="M168.07,87.6,150.506,77.415c-.168-.1-.306.006-.306.233h0a.736.736,0,0,0,.306.586L168.07,88.416c.168.1.306-.006.306-.233h0A.736.736,0,0,0,168.07,87.6Z" transform="translate(-150.2 -72.503)" fill="#fff"/>
                </g>
              </g>
            </g>
            <g id="Grupo_112398" data-name="Grupo 112398" transform="translate(0 20.582)">
              <path id="Trazado_117225" data-name="Trazado 117225" d="M115.4,85.322l-9.422-5.439a.757.757,0,0,0-.76-.076l-1.234.718a.75.75,0,0,1,.76.076l9.422,5.439a2.344,2.344,0,0,1,1.066,1.846L115.2,98.051a.747.747,0,0,1-.311.684l1.234-.718a.747.747,0,0,0,.311-.684l.028-10.165a2.363,2.363,0,0,0-1.066-1.846Z" transform="translate(-103.638 -79.736)" fill="#084a93"/>
              <path id="Trazado_117226" data-name="Trazado 117226" d="M113.284,87.881a2.344,2.344,0,0,1,1.066,1.846l-.028,10.165c0,.676-.482.951-1.074.609l-9.422-5.439a2.344,2.344,0,0,1-1.066-1.846l.028-10.165c0-.676.482-.951,1.074-.609Z" transform="translate(-102.76 -81.577)" fill="#ffb30b"/>
              <path id="Trazado_117227" data-name="Trazado 117227" d="M114.581,101.793c-1.658-.956-3-.191-3,1.711a6.609,6.609,0,0,0,3,5.175c1.658.956,3,.191,3-1.711A6.609,6.609,0,0,0,114.581,101.793Zm-.732,4.608v-3.1l2.337,2.9Z" transform="translate(-109.106 -95.31)" fill="#fff"/>
            </g>
          </g>
          <g id="Grupo_112400" data-name="Grupo 112400" transform="translate(49.496 23.797)">
            <path id="Trazado_117228" data-name="Trazado 117228" d="M244.587,102.085l6.036,1.416a21.373,21.373,0,0,1,3.559,1.057,7.118,7.118,0,0,1,2.951,2.188c.042.056.084.135.045.191a.19.19,0,0,1-.118.059,16.406,16.406,0,0,1-4.721.494,12.246,12.246,0,0,1-3.529-.956,24.283,24.283,0,0,1-3.638-1.86,6.288,6.288,0,0,1-2.348-2.193.493.493,0,0,1-.079-.37.5.5,0,0,1,.216-.236c.258-.171.488-.339.763-.146a2.372,2.372,0,0,0,.861.353Z" transform="translate(-233.373 -98.712)" fill="#ffb78c"/>
            <path id="Trazado_117229" data-name="Trazado 117229" d="M245.732,107.514a9.591,9.591,0,0,1-4.37,7.528,3.055,3.055,0,0,1-3.116.295.113.113,0,0,1-.048-.025,13.706,13.706,0,0,0-4.743-1.613c-2.289-.381-4.628-.373-6.948-.547a10.126,10.126,0,0,1-2.934-.547,9.713,9.713,0,0,1-2.836-1.86c-.743-.645-1.461-1.332-2.171-2.014q-3.185-3.055-6.376-6.106a5.144,5.144,0,0,1-.7-.766.983.983,0,0,1,.067-.934,2.5,2.5,0,0,1,.64-.712.179.179,0,0,0,.036-.031.134.134,0,0,0,.042-.123.137.137,0,0,0-.05-.048c-.011-.011-.025-.02-.036-.031a.005.005,0,0,0-.006-.006c-.5-.4-.987-.805-1.484-1.2a1.777,1.777,0,0,1-.718-.909,1.061,1.061,0,0,1,.337-.976,1.273,1.273,0,0,1,.449-.264.522.522,0,0,1,.191-.031,1.294,1.294,0,0,0,.345-.011c-.247-.177-.491-.356-.738-.527,0-.011-.006-.011-.011-.006-.227-.171-.454-.331-.682-.5a1.128,1.128,0,0,1-.51-.785,1.267,1.267,0,0,1,.724-1.167,2.1,2.1,0,0,1,1.9.3,2.024,2.024,0,0,1,.171.118c-.056-.042-.1-.191-.149-.252-.062-.1-.135-.191-.2-.283l-.109-.14a3.777,3.777,0,0,1-.306-.424,1.182,1.182,0,0,1-.14-1.259,1.149,1.149,0,0,1,.962-.46,3.593,3.593,0,0,1,1.245.247A40.554,40.554,0,0,1,217.7,93.1a13.737,13.737,0,0,1,1.848.962,20.58,20.58,0,0,1,1.694,1.332,11.181,11.181,0,0,0,6.381,2.466,27.6,27.6,0,0,1,3.343.154,12.222,12.222,0,0,1,3.192,1.215c1.68.847,6.721,3.59,9.983,5.332.16.087.32.165.466.247a3.141,3.141,0,0,1,1.122,2.707Z" transform="translate(-209.36 -91.197)" fill="#ffe5cc"/>
            <path id="Trazado_117230" data-name="Trazado 117230" d="M316.632,141.436a9.591,9.591,0,0,1-4.37,7.528,3.055,3.055,0,0,1-3.116.295.112.112,0,0,1-.048-.025,3.074,3.074,0,0,1-1.2-2.754,9.632,9.632,0,0,1,4.362-7.537,3.32,3.32,0,0,1,2.78-.46,1.9,1.9,0,0,1,.466.247,3.141,3.141,0,0,1,1.122,2.707Z" transform="translate(-280.26 -125.119)" fill="#ffb78c"/>
            <path id="Trazado_117231" data-name="Trazado 117231" d="M216.1,92.238a1.146,1.146,0,0,0-.216.673.665.665,0,0,0,.174.525,5,5,0,0,0,1.128,1,2.7,2.7,0,0,0,.37-1.428.3.3,0,0,0-.006-.1.239.239,0,0,0-.048-.081c-.151-.2-.306-.4-.457-.6-.126-.165-.21-.269-.421-.25a.716.716,0,0,0-.522.261Z" transform="translate(-214.056 -91.754)" fill="#ffb78c"/>
            <path id="Trazado_117232" data-name="Trazado 117232" d="M209.461,101.737a1.479,1.479,0,0,0,0,.544.568.568,0,0,0,.1.289.6.6,0,0,0,.171.129,5.739,5.739,0,0,0,1.45.578,4.124,4.124,0,0,0,.157-1.189.439.439,0,0,0-.017-.16.371.371,0,0,0-.065-.1,2,2,0,0,0-1-.617c-.2-.05-.309-.087-.48.045a.871.871,0,0,0-.311.477Z" transform="translate(-209.414 -98.37)" fill="#ffb78c"/>
            <path id="Trazado_117233" data-name="Trazado 117233" d="M211.832,113.521a.74.74,0,0,0-.031.466.688.688,0,0,0,.18.241,4.718,4.718,0,0,0,1.436,1.024,3.978,3.978,0,0,0,.05-.774,1.362,1.362,0,0,0-.241-.726,1.609,1.609,0,0,0-.777-.513c-.1-.036-.289-.143-.393-.107-.126.045-.188.278-.222.39Z" transform="translate(-211.097 -106.973)" fill="#ffb78c"/>
            <path id="Trazado_117234" data-name="Trazado 117234" d="M216.782,126.811c.331.227.665.452,1,.679a.06.06,0,0,0,.056.014c.02-.008.025-.034.025-.056a1.731,1.731,0,0,0-.067-.769,1.5,1.5,0,0,0-.4-.5,1.46,1.46,0,0,0-.516-.37.426.426,0,0,0-.513.553.966.966,0,0,0,.418.449Z" transform="translate(-214.384 -116.087)" fill="#ffb78c"/>
            <path id="Trazado_117235" data-name="Trazado 117235" d="M229.069,132.316a9.166,9.166,0,0,1-2.841-2.233q-2-2.032-3.983-4.081a16.721,16.721,0,0,1-1.431-1.59,14.619,14.619,0,0,0-1.332-1.68.134.134,0,0,0,.042-.123.155.155,0,0,0-.048-.048c-.011-.011-.025-.02-.036-.031a7.019,7.019,0,0,1,1.632,1.509c1.2,1.394,2.362,2.822,3.674,4.106,1.431,1.405,3.038,2.639,4.32,4.174Z" transform="translate(-216.613 -113.741)" fill="#ffb78c"/>
            <path id="Trazado_117236" data-name="Trazado 117236" d="M224.12,118.509a22.944,22.944,0,0,1-3.369-3.254c-.889-.987-1.773-1.969-2.662-2.951a13.96,13.96,0,0,0-1.189-1.22,13.5,13.5,0,0,0-1.271-.951c-.485-.331-.962-.707-1.473-.993a.633.633,0,0,1-.1-.062,1.294,1.294,0,0,0,.345-.011c-.247-.177-.491-.356-.738-.527a12.549,12.549,0,0,1,3.2,2.314c.485.46.94.951,1.394,1.447q2.9,3.13,5.868,6.21Z" transform="translate(-212.454 -103.676)" fill="#ffb78c"/>
            <path id="Trazado_117237" data-name="Trazado 117237" d="M227.527,107.172a8.479,8.479,0,0,1-1.854-1.467,53.158,53.158,0,0,0-5.787-4.757,13.389,13.389,0,0,1-1.854-1.447.7.7,0,0,1-.073-.093,2.03,2.03,0,0,1,.171.118c-.056-.042-.1-.191-.149-.252-.062-.1-.135-.191-.2-.283l-.109-.14c.185.123.367.244.547.373a53.3,53.3,0,0,1,4.8,3.933l1.689,1.5c.945.841,1.885,1.675,2.822,2.51Z" transform="translate(-215.339 -96.703)" fill="#ffb78c"/>
            <path id="Trazado_117238" data-name="Trazado 117238" d="M260.67,124.908a2.5,2.5,0,0,0,.522,0,.465.465,0,0,0,.247-.076.4.4,0,0,0,.121-.182,1,1,0,0,0-.039-.721c-.25-.6-1.172-1.45-1.731-.7a1.129,1.129,0,0,0,.878,1.683Z" transform="translate(-245.515 -114.033)" fill="#ffb78c"/>
            <path id="Trazado_117239" data-name="Trazado 117239" d="M255.092,143.925a.775.775,0,0,0,.311-.022.546.546,0,0,0,.334-.567c-.073-.746-1.386-1.13-1.9-.628-.673.648.788,1.178,1.259,1.22Z" transform="translate(-241.233 -128.096)" fill="#ffb78c"/>
            <path id="Trazado_117240" data-name="Trazado 117240" d="M255.357,155.446c.339-.151-.328-1.834-1.1-1.2a.545.545,0,0,0-.2.684,1.665,1.665,0,0,0,1.31.513Z" transform="translate(-241.473 -136.459)" fill="#ffb78c"/>
            <path id="Trazado_117241" data-name="Trazado 117241" d="M255.751,162.441a.144.144,0,0,0,.031-.1c.017-.393-.917-1.08-1.077-.519a.566.566,0,0,0,.16.51c.132.118.757.247.886.1Z" transform="translate(-241.977 -141.863)" fill="#ffb78c"/>
          </g>
          <g id="Grupo_112401" data-name="Grupo 112401" transform="translate(0 37.717)">
            <path id="Trazado_117242" data-name="Trazado 117242" d="M51.253,155.53c-.079.109-.46.569-.631.527a6.37,6.37,0,0,1-2.135-1.245,35.7,35.7,0,0,0-3.509-2.466,8.663,8.663,0,0,0-1.958-.92,4.483,4.483,0,0,0-1.68-.185c-.222.02-.614.036-.774.222a3.274,3.274,0,0,0-.208.471c-.578,1.007-1.184,1.994-1.75,3.007A24.587,24.587,0,0,0,34.4,150.7c-.208-.165-.424-.331-.645-.491-.123-.093-.252-.185-.367-.283a3.355,3.355,0,0,1-.485-1.871,8.547,8.547,0,0,1,3.885-6.7c1.344-.78,2.527-.676,3.223.118.062.087.129.171.2.258a.02.02,0,0,1,.006.011,19.509,19.509,0,0,0,4.738,4.836c1.523.987,3.313,1.627,4.522,2.982a7.761,7.761,0,0,1,1.6,3.3c.154.614.269,1.234.373,1.854a.92.92,0,0,1-.185.811Z" transform="translate(-32.9 -140.826)" fill="#ffb78c"/>
            <path id="Trazado_117243" data-name="Trazado 117243" d="M65.927,180.059a2.065,2.065,0,0,0-.362.087.429.429,0,0,0-.216.165.6.6,0,0,0-.031.093,1.631,1.631,0,0,0-.02.289,1.382,1.382,0,0,1-1.492,1.13,4.014,4.014,0,0,1-1.9-.766v.02a3.146,3.146,0,0,1-.031.362,2.2,2.2,0,0,1-.2.738,1.057,1.057,0,0,1-.895.614c-.46-.006-.805-.393-1.184-.651a11.908,11.908,0,0,0-2.143-.816,12.072,12.072,0,0,1-1.719-1.038c-1.074-.676-2.264-1.142-3.374-1.75a6.706,6.706,0,0,1-2.791-2.51c-.233-.429-.393-.895-.662-1.307a7.327,7.327,0,0,1-.889-1.3,3.263,3.263,0,0,1-.14-1.167c0-.676,0-1.349.006-2.025a3.429,3.429,0,0,1,.283-1.576c.109-.227.165-.429.258-.651a2.628,2.628,0,0,1,.48-.595,3.708,3.708,0,0,0,.595-1.694,2.644,2.644,0,0,1,.749-1.607c.135-.118.295-.2.429-.325.393-.367.471-.956.8-1.394a1.921,1.921,0,0,1,1.2-.7,4.794,4.794,0,0,1,1.416-.02,2.6,2.6,0,0,1,.914.208,1.922,1.922,0,0,1,.92,1.13,5.974,5.974,0,0,1,.252,1.473c.031.4-.025.766.264,1.055a10.041,10.041,0,0,0,1.069.909c.934.712,1.958,1.3,2.934,1.952a26.537,26.537,0,0,1,4.019,3.282,5.372,5.372,0,0,1,1.467,2.1,2.248,2.248,0,0,1-.362,2.112,1.119,1.119,0,0,1-.252.233c.006.006.011.006.02.011a3.084,3.084,0,0,1,1.68,1.854,1.686,1.686,0,0,1-1.086,2.067Z" transform="translate(-43.678 -155.793)" fill="#ffe5cc"/>
            <path id="Trazado_117244" data-name="Trazado 117244" d="M55.391,173.67a1.839,1.839,0,0,0,.412-1.215c-.048-.449-.536-.438-.884-.314a1.179,1.179,0,0,0-.561,1.5c.16.583.738.407,1.032.028Z" transform="translate(-48.295 -163.305)" fill="#ffb78c"/>
            <path id="Trazado_117245" data-name="Trazado 117245" d="M49.726,189a.522.522,0,0,0,.208-.272,1.923,1.923,0,0,0,.123-.429c.042-.272-.011-.673-.351-.718-.261-.034-.589.283-.735.474-.359.468.21,1.243.755.942Z" transform="translate(-44.383 -174.467)" fill="#ffb78c"/>
            <path id="Trazado_117246" data-name="Trazado 117246" d="M49.017,201.024a.215.215,0,0,0,.18-.056.257.257,0,0,0,.048-.143,1.525,1.525,0,0,0,0-.575.474.474,0,0,0-.906-.112c-.16.4.292.864.679.884Z" transform="translate(-43.982 -183.287)" fill="#ffb78c"/>
            <path id="Trazado_117247" data-name="Trazado 117247" d="M88.323,231.332a.993.993,0,0,0,.331.5,2.059,2.059,0,0,0,.886.463.07.07,0,0,0,.053,0,.083.083,0,0,0,.039-.064c.093-.353.188-.7.28-1.057a.18.18,0,0,0,.006-.115.183.183,0,0,0-.073-.073c-.311-.208-.785-.544-1.186-.435-.3.081-.4.508-.339.771Z" transform="translate(-72.764 -205.372)" fill="#ffb78c"/>
            <path id="Trazado_117248" data-name="Trazado 117248" d="M97.7,225.048a1.621,1.621,0,0,0,.376.443,5.961,5.961,0,0,0,1.534,1.063,1.225,1.225,0,0,0,.154-.53c.039-.3.081-.595.121-.892a1.046,1.046,0,0,0-.028-.567.983.983,0,0,0-.774-.443,2.411,2.411,0,0,0-.763-.042c-.508.073-.884.443-.623.968Z" transform="translate(-79.464 -200.717)" fill="#ffb78c"/>
            <path id="Trazado_117249" data-name="Trazado 117249" d="M103.024,218.553a5.293,5.293,0,0,0,1.405,1,.072.072,0,0,0,.053.011c.025-.006.039-.034.05-.059q.307-.741.581-1.489a.421.421,0,0,0,.036-.174.367.367,0,0,0-.045-.132,1.587,1.587,0,0,0-1.394-.844,1.229,1.229,0,0,0-1.071.62C102.427,217.86,102.775,218.3,103.024,218.553Z" transform="translate(-83.031 -195.54)" fill="#ffb78c"/>
            <path id="Trazado_117250" data-name="Trazado 117250" d="M100.7,203.959a1.717,1.717,0,0,0,.376.752,3.074,3.074,0,0,0,.527.536,2.572,2.572,0,0,0,1.324.533c.157-.575.311-1.15.468-1.725a.613.613,0,0,0,0-.452.583.583,0,0,0-.255-.208,3.708,3.708,0,0,0-1.021-.429,1.758,1.758,0,0,0-1.1.163.794.794,0,0,0-.325.833Z" transform="translate(-81.67 -185.516)" fill="#ffb78c"/>
            <path id="Trazado_117251" data-name="Trazado 117251" d="M71.116,218.64a3.147,3.147,0,0,1-.031.362c-.2-.154-.387-.331-.589-.46a15.828,15.828,0,0,0-2.97-.982c-.522-.208-1-.527-1.523-.743a17.351,17.351,0,0,1-1.773-.651,9.334,9.334,0,0,1-1.363-1.085,7.077,7.077,0,0,0-2.2-1.234,2.048,2.048,0,0,1,1.08.283,10.118,10.118,0,0,1,1.5.92,13.085,13.085,0,0,0,1.147.816,12.124,12.124,0,0,0,1.576.625c.738.275,1.431.656,2.171.909.578.191,1.178.306,1.742.516a3.522,3.522,0,0,1,1.032.564c.056.042.123.1.2.16Z" transform="translate(-52.881 -193.361)" fill="#ffb78c"/>
            <path id="Trazado_117252" data-name="Trazado 117252" d="M78.7,210.986a.429.429,0,0,0-.216.165.6.6,0,0,0-.031.093,3.036,3.036,0,0,1-.712-.345,3.42,3.42,0,0,1-.687-.46,5.174,5.174,0,0,0-.516-.471,8.975,8.975,0,0,0-1.344-.853c-.7-.362-1.436-.631-2.154-.956s-1.38-.687-2.087-1c-.729-.331-1.484-.6-2.2-.962a19.151,19.151,0,0,1-2.62-1.705,76.4,76.4,0,0,0,7.77,3.719,13.948,13.948,0,0,1,1.705.631,5.976,5.976,0,0,1,1.571,1.136,5.9,5.9,0,0,0,.864.791,1.358,1.358,0,0,0,.651.222Z" transform="translate(-56.816 -186.633)" fill="#ffb78c"/>
            <path id="Trazado_117253" data-name="Trazado 117253" d="M78.149,194.85l.02.011a1.134,1.134,0,0,1-.454.129,1.9,1.9,0,0,1-1.153-.418c-.46-.314-.976-.553-1.447-.853-.564-.356-1.116-.712-1.675-1.074q-3.858-2.495-7.719-5c1.9.766,3.5,2.1,5.338,3.007.485.233.982.443,1.447.707a14.524,14.524,0,0,1,1.394.914c.878.625,1.756,1.259,2.634,1.885a3.333,3.333,0,0,0,.945.527,1.305,1.305,0,0,0,.926-.073,1.118,1.118,0,0,1-.252.233Z" transform="translate(-56.514 -174.516)" fill="#ffb78c"/>
          </g>
        </g>
      </g>
    </g>
  </g>
</svg>
