<svg xmlns="http://www.w3.org/2000/svg" width="296.531" height="455.522" viewBox="0 0 296.531 455.522">
  <g id="_1_1_C" data-name="1_1_C" transform="translate(-73.979 -8.913)">
    <g id="Grupo_112100" data-name="Grupo 112100" transform="translate(201.286 28.04)">
      <path id="Trazado_116216" data-name="Trazado 116216" d="M303.256,379.9,174.361,305.505c-2.752-1.589-2.416-4.381.775-6.215l7.314-4.225c3.192-1.835,8-2.042,10.764-.452L322.109,369c2.765,1.589,2.416,4.38-.775,6.215l-7.314,4.225c-3.192,1.835-8,2.042-10.764.452Z" transform="translate(-172.5 55.123)" fill="#f2f2f2" opacity="0.49"/>
      <path id="Trazado_116217" data-name="Trazado 116217" d="M314.275,93.251,195.666,24.766c-2.223-1.292-4.238-1.318-5.8-.439L178.17,31.1,191.945,41.81l3.373-.853V322.019c0,6.59,4.006,14.253,8.955,17.108L308.267,415.25v4.691l12.108-7.068v-.052c1.757-1.163,2.869-3.605,2.869-7.055V110.347c0-6.59-4.006-14.253-8.955-17.108Z" transform="translate(-170.843 -23.713)" fill="#999"/>
      <path id="Trazado_116218" data-name="Trazado 116218" d="M296.146,118.335V105.064l-11.668,8.761L233.5,92.465,195.3,64.671V40.946l-3.385.84-13.749-10.7,11.694-6.771c1.576-.879,3.566-.84,5.8.426l118.6,68.5c3.269,1.874,6.1,5.828,7.65,10.182l-25.779,14.9Z" transform="translate(-170.843 -23.715)" fill="#e6e6e6"/>
      <g id="Grupo_112098" data-name="Grupo 112098" transform="translate(4.096 6.84)">
        <path id="Trazado_116219" data-name="Trazado 116219" d="M303.234,417.853,184.625,349.381c-4.949-2.856-8.955-10.518-8.955-17.108V36.854c0-6.59,4.006-9.627,8.955-6.771L303.234,98.555c4.949,2.856,8.955,10.518,8.955,17.108V411.082C312.189,417.672,308.183,420.709,303.234,417.853Z" transform="translate(-175.67 -29.009)" fill="#ccc"/>
        <path id="Trazado_116220" data-name="Trazado 116220" d="M177.7,333.247V37.363c0-4.807,2.92-7.017,6.526-4.936L302.46,100.68c3.605,2.08,6.526,7.663,6.526,12.47V409.033c0,4.807-2.92,7.017-6.526,4.936L184.226,345.716c-3.605-2.08-6.526-7.663-6.526-12.47Z" transform="translate(-175.077 -28.239)" fill="#333"/>
        <path id="Trazado_116221" data-name="Trazado 116221" d="M304.724,114.46V401.079c0,4.264-3.011,5.944-6.693,3.825l-110.921-64.04a14.832,14.832,0,0,1-6.719-11.6V42.667c0-4.264,3.011-5.983,6.719-3.838l20.261,11.694a4.282,4.282,0,0,1,1.822,2.623l.943,4.277a17.056,17.056,0,0,0,7.688,10.841l49.452,28.557c3.773,2.171,7.017,1.344,7.688-1.951l.943-3.192c.233-.8.982-1.008,1.822-.517l20.287,11.72a14.8,14.8,0,0,1,6.693,11.591Z" transform="translate(-174.291 -26.41)" fill="#80c5ff"/>
        <g id="Grupo_112097" data-name="Grupo 112097" transform="translate(40.872 31.024)">
          <path id="Trazado_116222" data-name="Trazado 116222" d="M214.485,59.714c0,2.274-1.615,3.2-3.592,2.055a7.922,7.922,0,0,1-3.592-6.2c0-2.274,1.615-3.2,3.592-2.055A7.922,7.922,0,0,1,214.485,59.714Z" transform="translate(-207.3 -53.018)" fill="#666"/>
          <path id="Trazado_116223" data-name="Trazado 116223" d="M212.494,58.31c0,1.253-.879,1.757-1.977,1.124a4.376,4.376,0,0,1-1.977-3.4c0-1.24.879-1.757,1.977-1.124A4.356,4.356,0,0,1,212.494,58.31Z" transform="translate(-206.938 -52.544)" fill="#333"/>
        </g>
        <path id="Trazado_116224" data-name="Trazado 116224" d="M250.063,76.6,214.877,56.291a2.5,2.5,0,0,1-1.047-2V52.867c0-.775.465-1.124,1.047-.788l35.186,20.313a2.5,2.5,0,0,1,1.047,2v1.421C251.109,76.592,250.644,76.94,250.063,76.6Z" transform="translate(-164.52 -22.306)"/>
      </g>
      <g id="Grupo_112099" data-name="Grupo 112099" transform="translate(142.553 131.914)">
        <path id="Trazado_116225" data-name="Trazado 116225" d="M289.371,126.058a2.7,2.7,0,0,0-2.727.271,8.417,8.417,0,0,0-3.825,6.629l.1,35.109a2.66,2.66,0,0,0,1.124,2.455l2.132,1.24a2.66,2.66,0,0,1-1.124-2.455l-.1-35.109a8.451,8.451,0,0,1,3.825-6.629,2.7,2.7,0,0,1,2.727-.271l-2.132-1.24Z" transform="translate(-282.82 -125.801)" fill="#e6e6e6"/>
        <path id="Trazado_116226" data-name="Trazado 116226" d="M288.285,127.28c2.119-1.228,3.851-.246,3.851,2.2l.1,35.109a8.491,8.491,0,0,1-3.825,6.629c-2.119,1.228-3.851.22-3.851-2.2l-.1-35.109a8.451,8.451,0,0,1,3.825-6.629Z" transform="translate(-282.341 -125.524)" fill="#bfbfbf"/>
        <path id="Trazado_116227" data-name="Trazado 116227" d="M288.61,130.318c1.744-1.008,3.153-.194,3.153,1.8l.078,28.8a6.965,6.965,0,0,1-3.14,5.44c-1.744,1.008-3.153.181-3.153-1.8l-.078-28.8a6.925,6.925,0,0,1,3.14-5.44Z" transform="translate(-282.046 -124.608)" fill="#ccc"/>
      </g>
    </g>
    <g id="Grupo_112116" data-name="Grupo 112116" transform="translate(255.247 106.696)">
      <g id="Grupo_112101" data-name="Grupo 112101">
        <path id="Trazado_116228" data-name="Trazado 116228" d="M322.825,141.667l-97.4-56.236c-1.719-.982-3.269-1.085-4.393-.426l-4.9,2.843c1.124-.646,2.675-.556,4.393.426l97.4,56.236a13.533,13.533,0,0,1,6.151,10.648l-.62,219.141c0,1.938-.685,3.308-1.8,3.941l4.9-2.843c1.1-.646,1.783-2,1.8-3.941l.62-219.141a13.527,13.527,0,0,0-6.151-10.648Z" transform="translate(-213.713 -84.586)" fill="#f2f2f2"/>
        <path id="Trazado_116229" data-name="Trazado 116229" d="M324.625,154.516l-.039,14.24L324,373.656c-.013,3.915-2.765,5.479-6.19,3.515l-97.4-56.249A13.413,13.413,0,0,1,214.26,310.3l.581-204.9.039-14.24c.013-3.915,2.791-5.5,6.19-3.528l97.4,56.236a13.5,13.5,0,0,1,6.151,10.66Z" transform="translate(-214.26 -83.945)" fill="#ccc"/>
        <path id="Trazado_116230" data-name="Trazado 116230" d="M321.25,156.764l-.039,13.529-.556,194.693c-.013,3.709-2.636,5.207-5.879,3.334l-92.546-53.445a12.739,12.739,0,0,1-5.841-10.092l.556-194.693.039-13.529c.013-3.709,2.649-5.233,5.879-3.36l92.546,53.432A12.808,12.808,0,0,1,321.25,156.764Z" transform="translate(-213.638 -82.304)" fill="#333"/>
      </g>
      <g id="Grupo_112102" data-name="Grupo 112102" transform="translate(4.872 44.785)">
        <path id="Trazado_116231" data-name="Trazado 116231" d="M249.068,135.714a6.911,6.911,0,0,1,3.14,5.44l-.09,29.979c0,2-1.421,2.8-3.166,1.8L221.17,156.893a6.911,6.911,0,0,1-3.14-5.44l.09-29.979c0-1.99,1.421-2.8,3.166-1.8Z" transform="translate(-218.03 -119.245)" fill="#ccc"/>
        <path id="Trazado_116232" data-name="Trazado 116232" d="M232.531,132.675c-4.884-2.817-8.851-.569-8.851,5.04s3.954,12.444,8.851,15.261,8.851.556,8.851-5.039S237.416,135.492,232.531,132.675Zm-2.158,13.594v-9.136l6.887,8.541-6.887.581Z" transform="translate(-216.379 -115.676)" fill="#fff"/>
      </g>
      <g id="Grupo_112105" data-name="Grupo 112105" transform="translate(6.603 107.903)">
        <path id="Trazado_116233" data-name="Trazado 116233" d="M241.066,179.59a5,5,0,0,1,2.261,3.915l-.065,22.238c0,1.434-1.021,2.016-2.274,1.292l-19.357-11.177a4.98,4.98,0,0,1-2.261-3.915l.065-22.238c0-1.434,1.021-2.029,2.274-1.305l19.357,11.177Z" transform="translate(-219.37 -168.091)" fill="#ccc"/>
        <g id="Grupo_112104" data-name="Grupo 112104" transform="translate(1.202 8.972)">
          <g id="Grupo_112103" data-name="Grupo 112103" transform="translate(0 4.871)">
            <path id="Trazado_116234" data-name="Trazado 116234" d="M229.694,185.644l-1.822,4.884-7.572-4.368,4.7-6.629c.659-.93,2.313.026,2.972,1.719l1.719,4.406Z" transform="translate(-220.3 -178.697)" fill="#57b2ff"/>
            <path id="Trazado_116235" data-name="Trazado 116235" d="M230.967,191.843l-4.807-2.778,1.822-4.884Z" transform="translate(-218.588 -177.232)" fill="#4d4bb7"/>
            <path id="Trazado_116236" data-name="Trazado 116236" d="M238.127,197.781l-7.572-4.368-2.985-7.65,2.3-6.164c.685-1.848,3.45-.246,4.148,2.391l4.122,15.8Z" transform="translate(-218.176 -178.803)" fill="#fff"/>
          </g>
          <path id="Trazado_116237" data-name="Trazado 116237" d="M228.366,178.182c0,1.073-.762,1.5-1.693.969a3.748,3.748,0,0,1-1.693-2.92c0-1.073.762-1.5,1.693-.969A3.748,3.748,0,0,1,228.366,178.182Z" transform="translate(-218.933 -175.034)" fill="#4d4bb7"/>
        </g>
      </g>
      <g id="Grupo_112106" data-name="Grupo 112106" transform="translate(49.568 68.477)">
        <path id="Trazado_116238" data-name="Trazado 116238" d="M302.563,165.362a5.106,5.106,0,0,1,2.339,4.057l-.026,8.115c0,1.5-1.06,2.093-2.352,1.344l-47.565-27.459a5.126,5.126,0,0,1-2.339-4.057l.026-8.115c0-1.5,1.06-2.093,2.352-1.344l47.565,27.459Z" transform="translate(-252.62 -137.579)" fill="#ccc"/>
        <path id="Trazado_116239" data-name="Trazado 116239" d="M300.109,168.668l-43.624-25.314c-.5-.284-.9.013-.9.685h0a2.165,2.165,0,0,0,.9,1.732l43.624,25.314c.5.284.9-.013.9-.685h0A2.165,2.165,0,0,0,300.109,168.668Z" transform="translate(-251.755 -135.924)" fill="#fff"/>
      </g>
      <g id="Grupo_112107" data-name="Grupo 112107" transform="translate(49.568 96.866)">
        <path id="Trazado_116240" data-name="Trazado 116240" d="M302.563,187.332a5.126,5.126,0,0,1,2.339,4.057l-.026,8.115c0,1.5-1.06,2.093-2.352,1.344l-47.565-27.459a5.106,5.106,0,0,1-2.339-4.057l.026-8.115c0-1.5,1.06-2.093,2.352-1.344l47.565,27.459Z" transform="translate(-252.62 -159.549)" fill="#ccc"/>
        <path id="Trazado_116241" data-name="Trazado 116241" d="M300.109,190.288l-43.624-25.314c-.5-.284-.9.013-.9.685h0a2.165,2.165,0,0,0,.9,1.732L300.109,192.7c.5.284.9-.013.9-.685h0A2.165,2.165,0,0,0,300.109,190.288Z" transform="translate(-251.755 -157.996)" fill="#fff"/>
      </g>
      <g id="Grupo_112109" data-name="Grupo 112109" transform="translate(6.603 159.978)">
        <path id="Trazado_116242" data-name="Trazado 116242" d="M241.066,219.89a5,5,0,0,1,2.261,3.915l-.065,22.238c0,1.434-1.021,2.016-2.274,1.292l-19.357-11.177a4.98,4.98,0,0,1-2.261-3.915L219.435,210c0-1.434,1.021-2.029,2.274-1.305l19.357,11.177Z" transform="translate(-219.37 -208.391)" fill="#ccc"/>
        <g id="Grupo_112108" data-name="Grupo 112108" transform="translate(2.481 7.919)">
          <path id="Trazado_116243" data-name="Trazado 116243" d="M239.872,225.659v.026l-9.226.775-9.355-11.539h0c0-.362.258-.5.569-.323l17.432,10.066a1.263,1.263,0,0,1,.569.982Z" transform="translate(-221.29 -214.519)" fill="#fff"/>
          <path id="Trazado_116244" data-name="Trazado 116244" d="M230.642,226.939l9.226-.775v11.229c0,.362-.258.5-.569.323L221.869,227.65a1.263,1.263,0,0,1-.569-.982V215.4l9.226,11.371.142.168Z" transform="translate(-221.287 -214.262)" fill="#fff"/>
        </g>
      </g>
      <g id="Grupo_112110" data-name="Grupo 112110" transform="translate(9.407 210.763)">
        <path id="Trazado_116245" data-name="Trazado 116245" d="M310.843,297.839a6.925,6.925,0,0,1,3.14,5.44v6.487c-.026,2-1.434,2.817-3.179,1.809L224.68,261.851a6.96,6.96,0,0,1-3.14-5.44v-6.487c.026-2,1.447-2.8,3.179-1.8l86.124,49.723Z" transform="translate(-221.54 -247.693)" fill="#ccc"/>
        <path id="Trazado_116246" data-name="Trazado 116246" d="M307.838,301.191l-82.893-48.147c-.5-.284-.9.013-.9.685h0a2.165,2.165,0,0,0,.9,1.732l82.893,48.147c.5.284.9-.013.9-.685h0A2.165,2.165,0,0,0,307.838,301.191Z" transform="translate(-220.81 -246.161)" fill="#fff"/>
      </g>
      <g id="Grupo_112112" data-name="Grupo 112112" transform="translate(41.944 180.343)">
        <path id="Trazado_116247" data-name="Trazado 116247" d="M268.416,235.65a5,5,0,0,1,2.261,3.915l-.065,22.238c0,1.434-1.021,2.016-2.274,1.292l-19.357-11.177A4.98,4.98,0,0,1,246.72,248l.065-22.238c0-1.434,1.021-2.029,2.274-1.305l19.357,11.177Z" transform="translate(-246.72 -224.151)" fill="#ccc"/>
        <g id="Grupo_112111" data-name="Grupo 112111" transform="translate(2.223 8.903)">
          <path id="Trazado_116248" data-name="Trazado 116248" d="M266.169,253.569l-15.984-9.226a3.842,3.842,0,0,1-1.744-3.011v-8.813c0-1.111.788-1.551,1.744-.995l15.984,9.226a3.842,3.842,0,0,1,1.744,3.011v8.813C267.913,253.685,267.125,254.125,266.169,253.569Zm-15.984-21.218c-.569-.323-1.021-.065-1.021.581v8.813a2.228,2.228,0,0,0,1.021,1.757l15.984,9.226c.569.323,1.021.065,1.021-.581v-8.813a2.228,2.228,0,0,0-1.021-1.757Z" transform="translate(-248.44 -230.97)" fill="#fff"/>
          <path id="Trazado_116249" data-name="Trazado 116249" d="M256.941,246.18a9.4,9.4,0,0,1-4.251-7.34c0-2.7,1.912-3.773,4.251-2.429a9.4,9.4,0,0,1,4.251,7.34C261.193,246.451,259.28,247.524,256.941,246.18Zm0-8.916c-1.938-1.124-3.528-.22-3.528,2a7.764,7.764,0,0,0,3.528,6.073c1.938,1.124,3.528.22,3.528-2A7.764,7.764,0,0,0,256.941,237.264Z" transform="translate(-247.198 -229.641)" fill="#fff"/>
          <path id="Trazado_116250" data-name="Trazado 116250" d="M262.162,239.788,252.07,233.96v-2.106c0-.724.517-1.021,1.15-.659l7.8,4.5a2.528,2.528,0,0,1,1.15,1.977v2.106Zm-9.368-6.241,8.632,4.988v-1.279a.935.935,0,0,0-.413-.724l-7.8-4.5c-.233-.129-.414-.026-.414.233v1.279Z" transform="translate(-247.379 -231.041)" fill="#fff"/>
        </g>
      </g>
      <g id="Grupo_112113" data-name="Grupo 112113" transform="translate(77.893 201.08)">
        <path id="Trazado_116251" data-name="Trazado 116251" d="M296.236,251.688A5,5,0,0,1,298.5,255.6l-.065,22.238c0,1.434-1.021,2.016-2.274,1.292L276.8,267.956a4.98,4.98,0,0,1-2.261-3.915L274.6,241.8c0-1.434,1.021-2.016,2.274-1.292Z" transform="translate(-274.54 -240.199)" fill="#ccc"/>
        <path id="Trazado_116252" data-name="Trazado 116252" d="M285.682,249c-4.419-2.559-8.012-1.215-8.012,2.985,0,2.727,1.512,5.97,3.773,8.619-.1.711-.569,2.2-2.584,1.06,0,0,2.791,3.075,5.44,1.628a15.052,15.052,0,0,0,1.383.917c4.419,2.559,8.012,1.215,8.012-2.985S290.1,251.549,285.682,249Z" transform="translate(-273.625 -238.006)" fill="#fff"/>
      </g>
      <g id="Grupo_112115" data-name="Grupo 112115" transform="translate(39.554 127.45)">
        <path id="Trazado_116253" data-name="Trazado 116253" d="M303.522,215.448a8.023,8.023,0,0,1,3.644,6.319l-.052,19.034c0,2.326-1.654,3.256-3.67,2.093L248.514,211.17a8.023,8.023,0,0,1-3.644-6.319l.052-19.034c0-2.326,1.654-3.269,3.67-2.093Z" transform="translate(-244.87 -183.218)" fill="#ccc"/>
        <g id="Grupo_112114" data-name="Grupo 112114" transform="translate(4.561 6.666)">
          <path id="Trazado_116254" data-name="Trazado 116254" d="M301.108,218.515l-51.8-30.03c-.5-.284-.9.013-.9.685h0a2.165,2.165,0,0,0,.9,1.732l51.8,30.03c.5.284.9-.013.9-.685h0A2.165,2.165,0,0,0,301.108,218.515Z" transform="translate(-248.4 -188.377)" fill="#fff"/>
          <path id="Trazado_116255" data-name="Trazado 116255" d="M301.108,224.075l-51.8-30.03c-.5-.284-.9.013-.9.685h0a2.165,2.165,0,0,0,.9,1.732l51.8,30.03c.5.284.9-.013.9-.685h0A2.165,2.165,0,0,0,301.108,224.075Z" transform="translate(-248.4 -186.752)" fill="#fff"/>
          <path id="Trazado_116256" data-name="Trazado 116256" d="M301.108,229.645l-51.8-30.03c-.5-.284-.9.013-.9.685h0a2.165,2.165,0,0,0,.9,1.732l51.8,30.03c.5.284.9-.013.9-.685h0A2.165,2.165,0,0,0,301.108,229.645Z" transform="translate(-248.4 -185.125)" fill="#fff"/>
        </g>
      </g>
      <path id="Trazado_116257" data-name="Trazado 116257" d="M324.494,154.516l-.039,14.24L214.71,105.4l.039-14.24c.013-3.915,2.791-5.5,6.19-3.528l97.4,56.236a13.5,13.5,0,0,1,6.151,10.66Z" transform="translate(-214.128 -83.945)" fill="#ccc"/>
    </g>
    <g id="Grupo_112133" data-name="Grupo 112133" transform="translate(85.817 8.913)">
      <g id="Grupo_112117" data-name="Grupo 112117">
        <path id="Trazado_116258" data-name="Trazado 116258" d="M191.705,66,94.3,9.762c-1.719-.995-3.269-1.085-4.393-.426l-4.9,2.843c1.124-.646,2.675-.556,4.393.426l97.4,56.236a13.533,13.533,0,0,1,6.151,10.648l-.62,219.141c0,1.938-.685,3.308-1.8,3.941l4.9-2.843c1.1-.646,1.783-2,1.8-3.941l.62-219.141A13.527,13.527,0,0,0,191.705,66Z" transform="translate(-82.593 -8.913)" fill="#ffd166"/>
        <path id="Trazado_116259" data-name="Trazado 116259" d="M193.505,78.856l-.039,14.24L192.885,298c-.013,3.915-2.765,5.479-6.19,3.515l-97.4-56.249a13.413,13.413,0,0,1-6.151-10.622l.581-204.9L83.76,15.5c.013-3.915,2.791-5.5,6.19-3.528l97.4,56.236a13.5,13.5,0,0,1,6.151,10.66Z" transform="translate(-83.14 -8.268)" fill="#ffb30b"/>
        <path id="Trazado_116260" data-name="Trazado 116260" d="M190.13,81.094l-.039,13.529-.556,194.693c-.013,3.709-2.636,5.207-5.879,3.334L91.111,239.2a12.739,12.739,0,0,1-5.841-10.092L85.826,34.42l.039-13.529c.013-3.709,2.649-5.233,5.879-3.36L184.29,70.963a12.808,12.808,0,0,1,5.841,10.131Z" transform="translate(-82.518 -6.63)" fill="#333"/>
      </g>
      <g id="Grupo_112118" data-name="Grupo 112118" transform="translate(7.236 88.245)">
        <path id="Trazado_116261" data-name="Trazado 116261" d="M119.778,93.674a6.911,6.911,0,0,1,3.14,5.44l-.09,29.979c0,2-1.421,2.8-3.166,1.8L91.88,114.853a6.911,6.911,0,0,1-3.14-5.44l.09-29.979c0-1.99,1.421-2.8,3.166-1.8Z" transform="translate(-88.74 -77.205)" fill="#ffb30b"/>
        <path id="Trazado_116262" data-name="Trazado 116262" d="M103.241,90.635c-4.884-2.817-8.851-.569-8.851,5.04s3.954,12.444,8.851,15.261,8.851.556,8.851-5.04S108.126,93.452,103.241,90.635Zm-2.158,13.594V95.093l6.887,8.541-6.887.581Z" transform="translate(-87.089 -73.636)" fill="#fff"/>
      </g>
      <g id="Grupo_112121" data-name="Grupo 112121" transform="translate(8.852 37.544)">
        <path id="Trazado_116263" data-name="Trazado 116263" d="M121.17,54.485a7.2,7.2,0,0,1,3.256,5.634l-.09,31.981c0,2.067-1.473,2.894-3.269,1.861L93.233,77.886a7.128,7.128,0,0,1-3.243-5.621l.09-31.981c0-2.067,1.46-2.907,3.269-1.874l27.834,16.075Z" transform="translate(-89.99 -37.968)" fill="#ffb30b"/>
        <g id="Grupo_112120" data-name="Grupo 112120" transform="translate(1.719 12.873)">
          <g id="Grupo_112119" data-name="Grupo 112119" transform="translate(0 6.997)">
            <path id="Trazado_116264" data-name="Trazado 116264" d="M104.823,63.212l-2.61,7.017L91.32,63.936,98.078,54.4c.943-1.344,3.321.026,4.277,2.468l2.468,6.345Z" transform="translate(-91.32 -53.191)" fill="#fff"/>
            <path id="Trazado_116265" data-name="Trazado 116265" d="M106.65,72.109l-6.9-3.993,2.61-7.017Z" transform="translate(-88.857 -51.079)" fill="#e6e6e6"/>
            <path id="Trazado_116266" data-name="Trazado 116266" d="M116.963,80.655,106.07,74.362l-4.29-11.009,3.308-8.864c.995-2.649,4.975-.362,5.957,3.437l5.918,22.717Z" transform="translate(-88.264 -53.345)" fill="#fff"/>
          </g>
          <path id="Trazado_116267" data-name="Trazado 116267" d="M102.909,52.466c0,1.538-1.085,2.158-2.429,1.383a5.348,5.348,0,0,1-2.429-4.2c0-1.551,1.085-2.158,2.429-1.383A5.348,5.348,0,0,1,102.909,52.466Z" transform="translate(-89.354 -47.93)" fill="#e6e6e6"/>
        </g>
      </g>
      <g id="Grupo_112122" data-name="Grupo 112122" transform="translate(49.568 66.736)">
        <path id="Trazado_116268" data-name="Trazado 116268" d="M171.443,88.342a5.106,5.106,0,0,1,2.339,4.057l-.026,8.115c0,1.5-1.06,2.093-2.352,1.344L123.839,74.4a5.126,5.126,0,0,1-2.339-4.057l.026-8.115c0-1.5,1.06-2.093,2.352-1.344l47.565,27.459Z" transform="translate(-121.5 -60.559)" fill="#ffb30b"/>
        <path id="Trazado_116269" data-name="Trazado 116269" d="M168.989,91.648,125.365,66.334c-.5-.284-.9.013-.9.685h0a2.165,2.165,0,0,0,.9,1.732l43.624,25.314c.5.284.9-.013.9-.685h0a2.165,2.165,0,0,0-.9-1.732Z" transform="translate(-120.635 -58.904)" fill="#fff"/>
      </g>
      <g id="Grupo_112123" data-name="Grupo 112123" transform="translate(49.568 85.873)">
        <path id="Trazado_116270" data-name="Trazado 116270" d="M171.443,103.152a5.126,5.126,0,0,1,2.339,4.057l-.026,8.115c0,1.5-1.06,2.093-2.352,1.344L123.839,89.209a5.106,5.106,0,0,1-2.339-4.057l.026-8.115c0-1.5,1.06-2.093,2.352-1.344l47.565,27.459Z" transform="translate(-121.5 -75.369)" fill="#ffb30b"/>
        <path id="Trazado_116271" data-name="Trazado 116271" d="M168.989,106.118,125.365,80.8c-.5-.284-.9.013-.9.685h0a2.165,2.165,0,0,0,.9,1.732l43.624,25.314c.5.284.9-.013.9-.685h0A2.165,2.165,0,0,0,168.989,106.118Z" transform="translate(-120.635 -73.813)" fill="#fff"/>
      </g>
      <g id="Grupo_112125" data-name="Grupo 112125" transform="translate(6.603 143.584)">
        <path id="Trazado_116272" data-name="Trazado 116272" d="M109.946,131.53a5,5,0,0,1,2.261,3.915l-.065,22.238c0,1.434-1.021,2.016-2.274,1.292L90.511,147.8a4.98,4.98,0,0,1-2.261-3.915l.065-22.238c0-1.434,1.021-2.029,2.274-1.305l19.357,11.177Z" transform="translate(-88.25 -120.031)" fill="#ffb30b"/>
        <g id="Grupo_112124" data-name="Grupo 112124" transform="translate(2.481 7.919)">
          <path id="Trazado_116273" data-name="Trazado 116273" d="M108.752,137.3v.026l-9.226.775L90.17,126.561h0c0-.362.258-.5.569-.323L108.17,136.3a1.263,1.263,0,0,1,.569.982Z" transform="translate(-90.17 -126.159)" fill="#fff"/>
          <path id="Trazado_116274" data-name="Trazado 116274" d="M99.522,138.579l9.226-.775v11.229c0,.362-.258.5-.569.323L90.749,139.29a1.263,1.263,0,0,1-.569-.982V127.04l9.226,11.371.142.168Z" transform="translate(-90.167 -125.902)" fill="#fff"/>
        </g>
      </g>
      <g id="Grupo_112126" data-name="Grupo 112126" transform="translate(9.407 210.599)">
        <path id="Trazado_116275" data-name="Trazado 116275" d="M179.723,222.039a6.925,6.925,0,0,1,3.14,5.44v6.487c-.026,2-1.434,2.817-3.179,1.809L93.56,186.051a6.96,6.96,0,0,1-3.14-5.44v-6.487c.026-2,1.447-2.8,3.179-1.8l86.124,49.723Z" transform="translate(-90.42 -171.893)" fill="#ffb30b"/>
        <path id="Trazado_116276" data-name="Trazado 116276" d="M176.718,225.4,93.825,177.254c-.5-.284-.9.013-.9.685h0a2.165,2.165,0,0,0,.9,1.732l82.893,48.147c.5.284.9-.013.9-.685h0A2.165,2.165,0,0,0,176.718,225.4Z" transform="translate(-89.69 -170.358)" fill="#fff"/>
      </g>
      <g id="Grupo_112127" data-name="Grupo 112127" transform="translate(9.407 188.955)">
        <path id="Trazado_116277" data-name="Trazado 116277" d="M179.723,205.289a6.925,6.925,0,0,1,3.14,5.44v6.487c-.026,2-1.434,2.817-3.179,1.809L93.56,169.3a6.96,6.96,0,0,1-3.14-5.44v-6.487c.026-2,1.447-2.8,3.179-1.8L179.723,205.3Z" transform="translate(-90.42 -155.143)" fill="#ffb30b"/>
        <path id="Trazado_116278" data-name="Trazado 116278" d="M176.718,208.641,93.825,160.494c-.5-.284-.9.013-.9.685h0a2.165,2.165,0,0,0,.9,1.732l82.893,48.147c.5.284.9-.013.9-.685h0A2.165,2.165,0,0,0,176.718,208.641Z" transform="translate(-89.69 -153.611)" fill="#fff"/>
      </g>
      <g id="Grupo_112129" data-name="Grupo 112129" transform="translate(41.944 163.949)">
        <path id="Trazado_116279" data-name="Trazado 116279" d="M137.3,147.29a5,5,0,0,1,2.261,3.915l-.065,22.238c0,1.434-1.021,2.016-2.274,1.292l-19.357-11.177a4.98,4.98,0,0,1-2.261-3.915l.065-22.238c0-1.434,1.021-2.029,2.274-1.305L137.3,147.277Z" transform="translate(-115.6 -135.791)" fill="#ffb30b"/>
        <g id="Grupo_112128" data-name="Grupo 112128" transform="translate(2.223 8.903)">
          <path id="Trazado_116280" data-name="Trazado 116280" d="M135.049,165.2l-15.984-9.226a3.846,3.846,0,0,1-1.744-3.024v-8.813c0-1.111.788-1.551,1.744-.995l15.984,9.226a3.842,3.842,0,0,1,1.744,3.011v8.813c0,1.111-.788,1.551-1.744.995Zm-15.984-21.218c-.569-.323-1.021-.065-1.021.581v8.813a2.228,2.228,0,0,0,1.021,1.757l15.984,9.226c.569.323,1.021.065,1.021-.581v-8.813a2.228,2.228,0,0,0-1.021-1.757Z" transform="translate(-117.32 -142.615)" fill="#fff"/>
          <path id="Trazado_116281" data-name="Trazado 116281" d="M125.821,157.82a9.4,9.4,0,0,1-4.251-7.34c0-2.7,1.912-3.773,4.251-2.429a9.4,9.4,0,0,1,4.251,7.34C130.073,158.091,128.16,159.164,125.821,157.82Zm0-8.916c-1.938-1.124-3.528-.22-3.528,2a7.764,7.764,0,0,0,3.528,6.073c1.938,1.124,3.528.22,3.528-2A7.764,7.764,0,0,0,125.821,148.9Z" transform="translate(-116.078 -141.281)" fill="#fff"/>
          <path id="Trazado_116282" data-name="Trazado 116282" d="M131.042,151.428,120.95,145.6v-2.106c0-.724.517-1.021,1.15-.659l7.8,4.5a2.528,2.528,0,0,1,1.15,1.977v2.106Zm-9.368-6.241,8.632,4.988V148.9a.935.935,0,0,0-.413-.724l-7.8-4.5c-.233-.129-.413-.026-.413.233Z" transform="translate(-116.259 -142.681)" fill="#fff"/>
        </g>
      </g>
      <g id="Grupo_112130" data-name="Grupo 112130" transform="translate(77.893 184.686)">
        <path id="Trazado_116283" data-name="Trazado 116283" d="M165.116,163.328a5,5,0,0,1,2.261,3.915l-.065,22.238c0,1.434-1.021,2.016-2.274,1.292L145.681,179.6a4.98,4.98,0,0,1-2.261-3.915l.065-22.238c0-1.434,1.021-2.016,2.274-1.292l19.357,11.177Z" transform="translate(-143.42 -151.839)" fill="#ffad66"/>
        <path id="Trazado_116284" data-name="Trazado 116284" d="M154.572,160.643c-4.419-2.559-8.012-1.215-8.012,2.985,0,2.727,1.512,5.97,3.773,8.619-.1.711-.569,2.2-2.584,1.06,0,0,2.791,3.075,5.44,1.628a15.066,15.066,0,0,0,1.383.917c4.419,2.559,8.012,1.215,8.012-2.985s-3.592-9.678-8.012-12.224Z" transform="translate(-142.503 -149.646)" fill="#fff"/>
      </g>
      <g id="Grupo_112132" data-name="Grupo 112132" transform="translate(46.389 119.598)">
        <path id="Trazado_116285" data-name="Trazado 116285" d="M170.856,129.666a8.023,8.023,0,0,1,3.644,6.319l-.052,19.034c0,2.326-1.654,3.256-3.67,2.093L122.684,129.42a8.023,8.023,0,0,1-3.644-6.319l.052-19.034c0-2.326,1.654-3.269,3.67-2.093l48.095,27.691Z" transform="translate(-119.04 -101.468)" fill="#ffb30b"/>
        <g id="Grupo_112131" data-name="Grupo 112131" transform="translate(4.574 6.666)">
          <path id="Trazado_116286" data-name="Trazado 116286" d="M168.439,132.733l-44.955-26c-.5-.284-.9.013-.9.685h0a2.165,2.165,0,0,0,.9,1.732l44.955,26c.5.284.9-.013.9-.685h0A2.165,2.165,0,0,0,168.439,132.733Z" transform="translate(-122.58 -106.627)" fill="#fff"/>
          <path id="Trazado_116287" data-name="Trazado 116287" d="M168.439,138.293l-44.955-26c-.5-.284-.9.013-.9.685h0a2.165,2.165,0,0,0,.9,1.732l44.955,26c.5.284.9-.013.9-.685h0A2.165,2.165,0,0,0,168.439,138.293Z" transform="translate(-122.58 -105.002)" fill="#fff"/>
          <path id="Trazado_116288" data-name="Trazado 116288" d="M168.439,143.853l-44.955-26c-.5-.284-.9.013-.9.685h0a2.165,2.165,0,0,0,.9,1.732l44.955,26c.5.284.9-.013.9-.685h0A2.165,2.165,0,0,0,168.439,143.853Z" transform="translate(-122.58 -103.378)" fill="#fff"/>
        </g>
      </g>
      <path id="Trazado_116289" data-name="Trazado 116289" d="M193.374,78.856l-.039,14.24L83.59,29.74l.039-14.24c.013-3.915,2.791-5.5,6.19-3.528l97.4,56.236a13.5,13.5,0,0,1,6.151,10.66Z" transform="translate(-83.008 -8.268)" fill="#ffb30b"/>
    </g>
    <g id="Grupo_112149" data-name="Grupo 112149" transform="translate(159.626 76.498)">
      <g id="Grupo_112134" data-name="Grupo 112134" transform="translate(0)">
        <path id="Trazado_116290" data-name="Trazado 116290" d="M248.835,118.3l-97.4-56.236c-1.719-.982-3.269-1.085-4.393-.426l-4.9,2.843c1.124-.646,2.675-.556,4.393.426l97.4,56.236a13.533,13.533,0,0,1,6.151,10.648l-.62,219.141c0,1.938-.685,3.308-1.8,3.941l4.9-2.843c1.1-.646,1.783-2,1.8-3.941l.62-219.141a13.527,13.527,0,0,0-6.151-10.648Z" transform="translate(-139.711 -61.216)" fill="#084a93"/>
        <path id="Trazado_116291" data-name="Trazado 116291" d="M250.625,131.156l-.039,14.24L250,350.3c-.013,3.915-2.765,5.479-6.19,3.515l-97.4-56.249a13.413,13.413,0,0,1-6.151-10.622l.581-204.9.039-14.24c.013-3.915,2.791-5.5,6.19-3.528l97.4,56.236a13.5,13.5,0,0,1,6.151,10.66Z" transform="translate(-140.26 -60.572)" fill="#084a93"/>
        <path id="Trazado_116292" data-name="Trazado 116292" d="M247.25,133.393l-.039,13.529-.556,194.693c-.013,3.709-2.636,5.207-5.879,3.334L148.231,291.5a12.739,12.739,0,0,1-5.841-10.092l.556-194.693.039-13.529c.013-3.709,2.649-5.233,5.879-3.347l92.546,53.432a12.808,12.808,0,0,1,5.841,10.131Z" transform="translate(-139.638 -58.933)" fill="#333"/>
      </g>
      <g id="Grupo_112135" data-name="Grupo 112135" transform="translate(7.676 87.231)">
        <path id="Trazado_116293" data-name="Trazado 116293" d="M177.238,145.194a6.911,6.911,0,0,1,3.14,5.44l-.09,29.979c0,2-1.421,2.8-3.166,1.8L149.34,166.373a6.911,6.911,0,0,1-3.14-5.44l.09-29.979c0-2,1.421-2.8,3.166-1.8Z" transform="translate(-146.2 -128.723)" fill="#084a93"/>
        <path id="Trazado_116294" data-name="Trazado 116294" d="M160.7,142.155c-4.884-2.817-8.851-.569-8.851,5.039s3.954,12.444,8.851,15.261,8.851.556,8.851-5.04S165.586,144.972,160.7,142.155Zm-2.158,13.594v-9.136l6.887,8.541-6.887.581Z" transform="translate(-144.549 -125.154)" fill="#fff"/>
      </g>
      <g id="Grupo_112138" data-name="Grupo 112138" transform="translate(9.407 42.584)">
        <path id="Trazado_116295" data-name="Trazado 116295" d="M169.236,105.67a5,5,0,0,1,2.261,3.915l-.065,22.238c0,1.434-1.021,2.016-2.274,1.292L149.8,121.939a4.98,4.98,0,0,1-2.261-3.915l.065-22.238c0-1.434,1.021-2.029,2.274-1.305l19.357,11.177Z" transform="translate(-147.54 -94.171)" fill="#084a93"/>
        <g id="Grupo_112137" data-name="Grupo 112137" transform="translate(1.202 8.972)">
          <g id="Grupo_112136" data-name="Grupo 112136" transform="translate(0 4.871)">
            <path id="Trazado_116296" data-name="Trazado 116296" d="M157.864,111.724l-1.822,4.884-7.572-4.368,4.7-6.629c.659-.93,2.313.026,2.972,1.719l1.719,4.406Z" transform="translate(-148.47 -104.777)" fill="#fff"/>
            <path id="Trazado_116297" data-name="Trazado 116297" d="M159.137,117.91l-4.807-2.765,1.822-4.884Z" transform="translate(-146.758 -103.312)" fill="#e6e6e6"/>
            <path id="Trazado_116298" data-name="Trazado 116298" d="M166.3,123.861l-7.572-4.368-2.985-7.65,2.3-6.164c.685-1.848,3.45-.246,4.148,2.391l4.122,15.8Z" transform="translate(-146.346 -104.883)" fill="#fff"/>
          </g>
          <path id="Trazado_116299" data-name="Trazado 116299" d="M156.536,104.262c0,1.073-.762,1.5-1.693.969a3.748,3.748,0,0,1-1.693-2.92c0-1.073.762-1.5,1.693-.969A3.748,3.748,0,0,1,156.536,104.262Z" transform="translate(-147.103 -101.114)" fill="#e6e6e6"/>
        </g>
      </g>
      <g id="Grupo_112139" data-name="Grupo 112139" transform="translate(49.568 109.4)">
        <path id="Trazado_116300" data-name="Trazado 116300" d="M228.563,173.662a5.106,5.106,0,0,1,2.339,4.057l-.026,8.115c0,1.5-1.06,2.093-2.352,1.344l-47.565-27.459a5.126,5.126,0,0,1-2.339-4.057l.026-8.115c0-1.5,1.06-2.093,2.352-1.344Z" transform="translate(-178.62 -145.879)" fill="#084a93"/>
        <path id="Trazado_116301" data-name="Trazado 116301" d="M226.119,176.978l-43.624-25.314c-.5-.284-.9.013-.9.685h0a2.165,2.165,0,0,0,.9,1.732l43.624,25.314c.5.284.9-.013.9-.685h0A2.165,2.165,0,0,0,226.119,176.978Z" transform="translate(-177.752 -144.221)" fill="#fff"/>
      </g>
      <g id="Grupo_112140" data-name="Grupo 112140" transform="translate(49.568 137.789)">
        <path id="Trazado_116302" data-name="Trazado 116302" d="M228.563,195.632a5.126,5.126,0,0,1,2.339,4.057l-.026,8.115c0,1.5-1.06,2.093-2.352,1.344l-47.565-27.459a5.106,5.106,0,0,1-2.339-4.057l.026-8.115c0-1.5,1.06-2.093,2.352-1.344Z" transform="translate(-178.62 -167.849)" fill="#084a93"/>
        <path id="Trazado_116303" data-name="Trazado 116303" d="M226.119,198.588l-43.624-25.314c-.5-.284-.9.013-.9.685h0a2.165,2.165,0,0,0,.9,1.732L226.119,201c.5.284.9-.013.9-.685h0A2.165,2.165,0,0,0,226.119,198.588Z" transform="translate(-177.752 -166.296)" fill="#fff"/>
      </g>
      <g id="Grupo_112142" data-name="Grupo 112142" transform="translate(6.603 182.023)">
        <path id="Trazado_116304" data-name="Trazado 116304" d="M167.066,213.58a5,5,0,0,1,2.261,3.915l-.065,22.238c0,1.434-1.021,2.016-2.274,1.292l-19.357-11.177a4.98,4.98,0,0,1-2.261-3.915l.065-22.238c0-1.434,1.021-2.029,2.274-1.305l19.357,11.177Z" transform="translate(-145.37 -202.081)" fill="#084a93"/>
        <g id="Grupo_112141" data-name="Grupo 112141" transform="translate(2.481 7.919)">
          <path id="Trazado_116305" data-name="Trazado 116305" d="M165.872,219.349v.026l-9.226.775-9.355-11.539h0c0-.362.258-.5.569-.323l17.432,10.066a1.263,1.263,0,0,1,.569.982Z" transform="translate(-147.29 -208.209)" fill="#fff"/>
          <path id="Trazado_116306" data-name="Trazado 116306" d="M156.642,220.629l9.226-.775v11.229c0,.362-.258.5-.569.323L147.869,221.34a1.263,1.263,0,0,1-.569-.982V209.09l9.226,11.371.142.168Z" transform="translate(-147.287 -207.952)" fill="#fff"/>
        </g>
      </g>
      <g id="Grupo_112143" data-name="Grupo 112143" transform="translate(9.407 147.692)">
        <path id="Trazado_116307" data-name="Trazado 116307" d="M236.843,225.659a6.925,6.925,0,0,1,3.14,5.44v6.487c-.026,2-1.434,2.817-3.179,1.809L150.68,189.671a6.96,6.96,0,0,1-3.14-5.44v-6.487c.026-2,1.447-2.8,3.179-1.8l86.124,49.723Z" transform="translate(-147.54 -175.513)" fill="#084a93"/>
        <path id="Trazado_116308" data-name="Trazado 116308" d="M233.838,229.011l-82.893-48.147c-.5-.284-.9.013-.9.685h0a2.165,2.165,0,0,0,.9,1.732l82.893,48.147c.5.284.9-.013.9-.685h0a2.165,2.165,0,0,0-.9-1.732Z" transform="translate(-146.81 -173.981)" fill="#fff"/>
      </g>
      <g id="Grupo_112145" data-name="Grupo 112145" transform="translate(41.944 202.388)">
        <path id="Trazado_116309" data-name="Trazado 116309" d="M194.416,229.34a5,5,0,0,1,2.261,3.915l-.065,22.238c0,1.434-1.021,2.016-2.274,1.292l-19.357-11.177a4.98,4.98,0,0,1-2.261-3.915l.065-22.238c0-1.434,1.021-2.029,2.274-1.305l19.357,11.177Z" transform="translate(-172.72 -217.841)" fill="#084a93"/>
        <g id="Grupo_112144" data-name="Grupo 112144" transform="translate(2.235 8.903)">
          <path id="Trazado_116310" data-name="Trazado 116310" d="M192.179,247.249l-15.984-9.226a3.842,3.842,0,0,1-1.744-3.011V226.2c0-1.111.788-1.551,1.744-.995l15.984,9.226a3.842,3.842,0,0,1,1.744,3.011v8.813C193.923,247.365,193.135,247.8,192.179,247.249Zm-15.984-21.218c-.569-.323-1.021-.065-1.021.581v8.813a2.228,2.228,0,0,0,1.021,1.757l15.984,9.226c.569.323,1.021.065,1.021-.581v-8.813a2.228,2.228,0,0,0-1.021-1.757Z" transform="translate(-174.45 -224.662)" fill="#fff"/>
          <path id="Trazado_116311" data-name="Trazado 116311" d="M182.941,239.87a9.4,9.4,0,0,1-4.251-7.34c0-2.7,1.912-3.773,4.251-2.429a9.376,9.376,0,0,1,4.251,7.34C187.193,240.141,185.28,241.214,182.941,239.87Zm0-8.916c-1.938-1.124-3.528-.22-3.528,2a7.764,7.764,0,0,0,3.528,6.073c1.938,1.124,3.528.22,3.528-2A7.764,7.764,0,0,0,182.941,230.954Z" transform="translate(-173.211 -223.331)" fill="#fff"/>
          <path id="Trazado_116312" data-name="Trazado 116312" d="M188.172,233.478,178.08,227.65v-2.106c0-.724.517-1.021,1.15-.659l7.8,4.5a2.528,2.528,0,0,1,1.15,1.977v2.106Zm-9.368-6.241,8.632,4.988v-1.279a.935.935,0,0,0-.414-.724l-7.8-4.5c-.233-.129-.413-.026-.413.233v1.279Z" transform="translate(-173.389 -224.731)" fill="#fff"/>
        </g>
      </g>
      <g id="Grupo_112146" data-name="Grupo 112146" transform="translate(77.893 223.124)">
        <path id="Trazado_116313" data-name="Trazado 116313" d="M222.236,245.378a5,5,0,0,1,2.261,3.915l-.065,22.238c0,1.434-1.021,2.016-2.274,1.292L202.8,261.646a4.98,4.98,0,0,1-2.261-3.915l.065-22.238c0-1.434,1.021-2.016,2.274-1.292Z" transform="translate(-200.54 -233.889)" fill="#084a93"/>
        <path id="Trazado_116314" data-name="Trazado 116314" d="M211.692,242.693c-4.419-2.559-8.012-1.215-8.012,2.985,0,2.727,1.512,5.97,3.773,8.619-.1.711-.569,2.2-2.584,1.06,0,0,2.791,3.075,5.44,1.628a15.069,15.069,0,0,0,1.383.917c4.419,2.559,8.012,1.215,8.012-2.985S216.111,245.239,211.692,242.693Z" transform="translate(-199.623 -231.696)" fill="#fff"/>
      </g>
      <g id="Grupo_112148" data-name="Grupo 112148" transform="translate(39.554 60.606)">
        <path id="Trazado_116315" data-name="Trazado 116315" d="M229.522,140.348a8.023,8.023,0,0,1,3.644,6.319l-.052,19.034c0,2.326-1.654,3.256-3.67,2.093L174.514,136.07a8.023,8.023,0,0,1-3.644-6.319l.052-19.034c0-2.326,1.654-3.269,3.67-2.093Z" transform="translate(-170.87 -108.118)" fill="#084a93"/>
        <g id="Grupo_112147" data-name="Grupo 112147" transform="translate(4.561 6.653)">
          <path id="Trazado_116316" data-name="Trazado 116316" d="M227.108,143.4l-51.8-30.03c-.5-.284-.9.013-.9.685h0a2.165,2.165,0,0,0,.9,1.732l51.8,30.03c.5.284.9-.013.9-.685h0A2.165,2.165,0,0,0,227.108,143.4Z" transform="translate(-174.4 -113.267)" fill="#fff"/>
          <path id="Trazado_116317" data-name="Trazado 116317" d="M227.108,148.975l-51.8-30.03c-.5-.284-.9.013-.9.685h0a2.165,2.165,0,0,0,.9,1.732l51.8,30.03c.5.284.9-.013.9-.685h0A2.165,2.165,0,0,0,227.108,148.975Z" transform="translate(-174.4 -111.639)" fill="#fff"/>
          <path id="Trazado_116318" data-name="Trazado 116318" d="M227.108,154.535,175.3,124.5c-.5-.284-.9.013-.9.685h0a2.165,2.165,0,0,0,.9,1.732l51.8,30.03c.5.284.9-.013.9-.685h0A2.165,2.165,0,0,0,227.108,154.535Z" transform="translate(-174.4 -110.015)" fill="#fff"/>
        </g>
      </g>
      <path id="Trazado_116319" data-name="Trazado 116319" d="M250.494,131.156l-.039,14.24L140.71,82.04l.039-14.24c.013-3.915,2.791-5.5,6.19-3.528l97.4,56.236a13.5,13.5,0,0,1,6.151,10.66Z" transform="translate(-140.128 -60.572)" fill="#084a93"/>
    </g>
    <g id="Grupo_112150" data-name="Grupo 112150" transform="translate(73.979 177.244)">
      <ellipse id="Elipse_4717" data-name="Elipse 4717" cx="26.115" cy="45.239" rx="26.115" ry="45.239" transform="matrix(0.005, -1, 1, 0.005, 25.814, 286.702)" fill="#f2f2f2" opacity="0.51"/>
      <path id="Trazado_116320" data-name="Trazado 116320" d="M118.38,230.474a.434.434,0,0,0-.362-.065,14.035,14.035,0,0,0-4.729,1.318c-1.176.556-2.274,1.279-3.5,1.719a3.37,3.37,0,0,1-1.977.388,3.255,3.255,0,0,1-.633-.323,36.6,36.6,0,0,1-8.722-9.123c-1.421-2.042-2.727-4.161-4.006-6.306-.633-1.073-1.266-2.145-1.912-3.2-.749-1.24-1.576-2.2-.452-3.5q5-5.873,9.691-11.991a14.76,14.76,0,0,0,3.928-9.226c.323-2.52.672-5.052.749-7.6.065-2.093-1.874-2.856-3.747-3.011A12.114,12.114,0,0,0,90.6,186.5c-.659,1.5-1.163,3.062-1.951,4.5a36.921,36.921,0,0,1-4.574,5.867c-3.747,4.445-6.577,9.588-9.3,14.731a4.373,4.373,0,0,0-.53,3.838,16.4,16.4,0,0,0,3.075,3.993q5.214,5.7,10.816,11.035a49.61,49.61,0,0,0,9.187,7.34,47.869,47.869,0,0,0,6.228,2.907c3.773,1.525,7.766,2.972,11.8,2.468.026-1.189-.181-2.391.543-3.373.594-.8,1.512-1.37,1.887-2.326a5.838,5.838,0,0,0,.271-1.564c.142-1.68.271-3.36.413-5.027,0-.142.013-.3-.09-.388Z" transform="translate(-73.979 -127.4)" fill="#ffb78c"/>
      <path id="Trazado_116321" data-name="Trazado 116321" d="M102.248,174.915c-.7.284-1.383.607-2.055.943a35.918,35.918,0,0,0-9.252,7.43,65.125,65.125,0,0,0-4.574,5.22,44.356,44.356,0,0,0-4.884,7.766c-.853,1.757,1.37,4.006,2.52,5.13a16.872,16.872,0,0,0,8.141,4.665,18.964,18.964,0,0,0,5.737.129,11.49,11.49,0,0,0,4.213-1.047c.065-.039.142-.078.168-.155a.334.334,0,0,0-.039-.246,5.548,5.548,0,0,1-.827-2.481,8.091,8.091,0,0,1,1.06-2.313,53.564,53.564,0,0,0,2.235-5.414c.9-2.571,1.6-5.22,2.7-7.714a17.323,17.323,0,0,0,1.331-3.489,12.458,12.458,0,0,0,.1-3.4,10.494,10.494,0,0,0-.594-3.631c-.207-.465-.517-.749-.556-1.253a5.739,5.739,0,0,1,.194-1.757c-.362.065-.724.129-1.085.207a26.656,26.656,0,0,0-4.536,1.4Z" transform="translate(-71.842 -129.214)" fill="#f2f2f2"/>
      <path id="Trazado_116322" data-name="Trazado 116322" d="M101.782,342.771c-.078,2.365.362,5.543,2.61,6.693a5.913,5.913,0,0,0,4.665.22c2.429-.892,4.045-3.114,5.957-4.846a11.731,11.731,0,0,1,4.613-2.726,27.765,27.765,0,0,1,4.135-.62c4.523-.607,8.722-2.636,12.676-4.923a3.744,3.744,0,0,0,.659-6.034c-1.292-1.163-3.179-1.292-4.923-1.357-6.5-.233-13.077-.426-19.421.995a13.53,13.53,0,0,0-3.734,1.318,10.967,10.967,0,0,0-2.365,1.861c-.375.388-.491.711-1.047.5-.129-.052-.879-.607-.711-.8a9.546,9.546,0,0,0-1.693,3.2,22.037,22.037,0,0,0-1.408,6.151,3.148,3.148,0,0,1-.013.349Z" transform="translate(-65.858 -83.717)" fill="#084a93"/>
      <path id="Trazado_116323" data-name="Trazado 116323" d="M124.128,229.929a15.105,15.105,0,0,0-2.08-4.678,14.315,14.315,0,0,0-3.747-3.166c-3.114-2.042-8.128-3.838-10.854-.129a21.055,21.055,0,0,0-1.874,4.277c-1.06,2.52-2.274,4.975-3.282,7.508a64.159,64.159,0,0,0-2.972,9.2c-1.6,6.874-1.654,14.33,1.228,20.778a35.829,35.829,0,0,1,2.158,5.039,21.012,21.012,0,0,1,.491,5.091v.426q.1,10.525-.09,21.063c-.065,3.515-.168,7.017-.258,10.531a32.615,32.615,0,0,1-.181,4.484c-.258,1.615-.659,3.2-.969,4.807-.543,2.752-1.073,5.518-1.4,8.3a54.33,54.33,0,0,0-.413,8.322c.233,6.913,2.042,13.632,3.4,20.378a72.736,72.736,0,0,1,1.46,10.286c.09,1.667-.013,3.308-.026,4.962,0,1.473,1.189,2.236,2.662,2.494a8.434,8.434,0,0,0,3.67-.323,19.811,19.811,0,0,0,4.691-1.925,5.974,5.974,0,0,0,3.05-3.192,6.883,6.883,0,0,0,.065-2.623c-1.228-12.2-1.951-24.564-.1-36.685.233-1.564.426-3.14.775-4.678a19.4,19.4,0,0,1,1.576-3.812,51.515,51.515,0,0,0,2.946-8.813,155.827,155.827,0,0,0,2.907-18.62c.31-2.559.633-5.117,1.034-7.676.93-5.892,2.3-11.733,2.584-17.69.556-11.565-2.972-22.9-6.448-33.946Z" transform="translate(-66.896 -115.626)" fill="#333"/>
      <path id="Trazado_116324" data-name="Trazado 116324" d="M126.86,346.822c-.633,2.132-1.073,4.613.181,6.448a5.917,5.917,0,0,0,4.523,2.223,6.845,6.845,0,0,0,2.4-.194,14,14,0,0,0,2.972-1.512,11.927,11.927,0,0,1,3.5-1.408,27.67,27.67,0,0,1,5.944-.09,33.724,33.724,0,0,0,5.582-.517A25.245,25.245,0,0,0,159.5,349.6a10.906,10.906,0,0,0,5.363-5.531,5.45,5.45,0,0,0,.4-2.714,5.531,5.531,0,0,0-3.463-4.032,17.439,17.439,0,0,0-5.427-1.047c-4.057-.362-8.1-.866-12.185-.917a32.837,32.837,0,0,0-12,1.835,6.675,6.675,0,0,0-2.339,1.331c-1.073,1.021-.827,2.352-1.344,3.605a46.988,46.988,0,0,0-1.654,4.691Z" transform="translate(-58.709 -81.864)" fill="#084a93"/>
      <path id="Trazado_116325" data-name="Trazado 116325" d="M151.706,288.189a70.945,70.945,0,0,0-.62-23.944c-2.61-12.87-5.634-25.792-6.861-38.895.271,2.907-2.765,8.115-5.078,9.795-.892.659-2.714.762-3.786.84a18.406,18.406,0,0,1-8.05-1.253c-3.5-1.357-6.551-3.5-9.808-5.311-2.507-1.4-5.13-3.993-7.779-1.719-4.962,4.251-7.275,12.7-7.353,18.956-.194,15.765,14.007,25.34,18.892,39.386a99.687,99.687,0,0,1,3.2,12.728c.711,3.489,1.434,6.978,2.145,10.454A46.248,46.248,0,0,1,127.9,319.7c-.09,3.579-.672,7.133-.8,10.712a43.078,43.078,0,0,0,.9,8.722c.465,2.688,1.073,5.35,1.744,7.986,2.093,8.205,4.846,16.281,6.1,24.655a5.5,5.5,0,0,0,.491,2.158c.362.478,1.085.53,1.706.607a10.778,10.778,0,0,0,4.665-.465,16.35,16.35,0,0,0,5.531-3.23c1.421-1.215,2.533-2.649,2.132-4.548-.491-2.416-1.047-4.807-1.46-7.236a105.406,105.406,0,0,1-1.4-14.253c-.181-5.866.246-11.72.09-17.587-.09-3.45-.22-7.094-.065-10.622a94.531,94.531,0,0,1,1.551-10.8c.917-5.867,1.835-11.72,2.61-17.6Z" transform="translate(-65.684 -114.006)" fill="#424242"/>
      <path id="Trazado_116326" data-name="Trazado 116326" d="M148.29,214.318c.116-2.145,1.124-4.135,1.835-6.164a22.369,22.369,0,0,0,1.24-6.952,6.835,6.835,0,0,0-.478-3.024,7.685,7.685,0,0,0-2.7-2.727c-.9-.646-1.809-1.279-2.714-1.912-4.548-3.166-9.187-6.177-13.878-9.123-2.352-1.473-4.7-2.92-7.068-4.368a12.01,12.01,0,0,0-3.011-1.525,24.979,24.979,0,0,1-3.437-1.421,60.006,60.006,0,0,0-7.417-2.3,21.885,21.885,0,0,0-3.618-.827,13.384,13.384,0,0,0-8.167,1.512,12.476,12.476,0,0,0-5.3,5.8,18.634,18.634,0,0,0-1.46,5.763,26.15,26.15,0,0,0-.129,2.649,24.852,24.852,0,0,0,2.8,11.216,110.426,110.426,0,0,0,7.714,12.728c2.6,3.747,3.489,9.149,3.76,13.581.388,6.19-.659,12.379-1.564,18.478a10.781,10.781,0,0,0-.142,3.282c.465,2.791,2.985,4.716,5.4,6.19a47.048,47.048,0,0,0,17.147,6.694A28.538,28.538,0,0,0,145.1,259.1a7.316,7.316,0,0,0,2.92-2.494,8.677,8.677,0,0,0,.775-4.7c-.1-5.608-.388-11.216-.31-16.824.052-3.644.659-7.249.917-10.88a14.574,14.574,0,0,0-.142-5.027,13.99,13.99,0,0,1-.943-4.846Z" transform="translate(-68.717 -129.05)" fill="#b9ddfc"/>
      <path id="Trazado_116327" data-name="Trazado 116327" d="M102.706,177.963a7.32,7.32,0,0,0-.013,1.189c-.039.581-.362,1.111-.439,1.68a3.019,3.019,0,0,0,.349,1.667,6.66,6.66,0,0,0,2.972,2.933,12.963,12.963,0,0,0,4.045,1.215,47.8,47.8,0,0,0,5.259.414,33.43,33.43,0,0,0,4.691-.026,4.686,4.686,0,0,0,2.778-1.021c.9-.866.685-1.667.633-2.752-.078-1.551-.052-3.114-.129-4.665a63.944,63.944,0,0,1,.168-8.761.635.635,0,0,0-.478-.827,38.419,38.419,0,0,1-5.66-2.8,32.954,32.954,0,0,0-3.812-2.223,14.376,14.376,0,0,0-3.747-1.021,8.238,8.238,0,0,0-4.161.271,4.3,4.3,0,0,0-2.442,2.429,6.415,6.415,0,0,0,.039,3.011,30.35,30.35,0,0,1-.078,9.3Z" transform="translate(-65.722 -132.275)" fill="#ffb78c"/>
      <path id="Trazado_116328" data-name="Trazado 116328" d="M133.44,154.2a4.426,4.426,0,0,1,.581,1.8c.039.956-.685,1.783-.814,2.739a3.836,3.836,0,0,0,1.6,3.179,12.227,12.227,0,0,1,2.675,2.546.886.886,0,0,1,.168.465c0,.439-.517.659-.917.866a4.183,4.183,0,0,0-1.977,2.714,16.087,16.087,0,0,0-.362,3.437c-.052,1.06-.142,2.106-.284,3.166a18.1,18.1,0,0,0-.078,2.778,1.193,1.193,0,0,1-.039.375.922.922,0,0,1-.336.4,9.887,9.887,0,0,1-4.432,1.951,22.763,22.763,0,0,1-4.872.3,2.744,2.744,0,0,1-1.124-.181c-.633-.284-.517-.814-.827-1.292a4.872,4.872,0,0,0-1.447-1.215,7.571,7.571,0,0,0-3.541-1.2c-1.564-.1-3.114.3-4.678.233a16.306,16.306,0,0,1-5.647-1.6,22.193,22.193,0,0,1-5.957-3.243c-2.856-2.442-4.277-6.215-4.678-9.937-.659-6.047,1.318-12.56,5.957-16.5a19.111,19.111,0,0,1,6.409-3.489c3.088-1.034,7.624-2.08,10.673-.62a32.2,32.2,0,0,1,8.761,5.711,28.31,28.31,0,0,1,3.489,4.07,26.289,26.289,0,0,1,1.719,2.546Z" transform="translate(-67.447 -138.61)" fill="#ffb78c"/>
      <path id="Trazado_116329" data-name="Trazado 116329" d="M106.785,142.081a24.123,24.123,0,0,1,13.633-1.744c5.673,1.034,10.441,5.776,10.557,11.733a13.286,13.286,0,0,1-2.042,7.172c-1.1,1.783-2.623,4.122-4.561,5.027-.879.414-1.861.569-2.727,1.034-1.964,1.06-2.274,3.282-1.331,5.182a16.678,16.678,0,0,0,2.016,2.843,28.7,28.7,0,0,1,4.225,7.482,1.466,1.466,0,0,1,.129.659,1.335,1.335,0,0,1-.517.762,14.521,14.521,0,0,1-6.952,3.166,28.546,28.546,0,0,1-7.714.194A40.36,40.36,0,0,1,96.835,181.7c-1.538-.775-3.8-2.016-4.316-3.8a17.666,17.666,0,0,1-.284-5.35,57.09,57.09,0,0,1,1.757-12.379c.465-1.744.633-3.566,1.24-5.311,2.042-5.879,5.776-10.337,11.552-12.78Z" transform="translate(-68.665 -138.944)" fill="#084a93"/>
      <path id="Trazado_116330" data-name="Trazado 116330" d="M210.117,148.548a2.636,2.636,0,0,0-.892-1.744,1.162,1.162,0,0,0-1.719.323c-.142-1.2-.271-2.4-.413-3.605a1.938,1.938,0,0,0-.349-1.085c-.155-.181-.388-.3-.543-.491-.413-.491-.168-1.253-.362-1.861a1.313,1.313,0,0,0-2.559.336,2.354,2.354,0,0,0-2.158,1.073,7.056,7.056,0,0,0-.93,2.352q-1.88,7.21-3.773,14.421a31.175,31.175,0,0,1-.711,3.179c-.478,2.972.22,6.4-1.706,8.994-1.447,1.951-19.615,21.683-20.688,22.717a17.4,17.4,0,0,1-5,3.9,37.416,37.416,0,0,1-5.7,1.525,80.663,80.663,0,0,1-10.221,1.99,43.787,43.787,0,0,1-9.821.142c-2.429-.246-4.82-.737-7.249-.866a13.973,13.973,0,0,0-8.335,1.783A8.846,8.846,0,0,0,123,208.246c-.258,4.212-.078,8.567,3.45,11.487,2.391,1.977,5.3,2.287,8.283,2.352a40.5,40.5,0,0,0,10.1-1.357c10.454-2.468,20.546-6.254,30.521-10.221,5.052-2,8.477-6.745,11.449-11.1,2-2.946,3.928-5.957,5.75-9.019,2.714-4.548,5.22-9.213,8.024-13.7,2.119-3.4,5.1-5.879,6.306-9.846.724-2.391.917-4.9,1.46-7.34.814-3.644,2.442-7.275,1.757-10.945Z" transform="translate(-59.68 -139.182)" fill="#ffb78c"/>
      <path id="Trazado_116331" data-name="Trazado 116331" d="M130.876,185.818a13.8,13.8,0,0,0-5,1.68,10.221,10.221,0,0,0-4.342,6.009,11.915,11.915,0,0,0,2.856,10.945c3.218,3.566,7.456,4.006,11.991,4.419a60.937,60.937,0,0,0,17.2-.892,5.232,5.232,0,0,0,1.189-.336,4.534,4.534,0,0,0,1.318-1.008,14.042,14.042,0,0,0,3.515-9.084,30.149,30.149,0,0,0-.827-7.753c-.452-2.068-.517-3.915-2.959-3.838-5.337.168-10.609-.375-15.945-.569a44.576,44.576,0,0,0-8.994.439Z" transform="translate(-60.192 -125.696)" fill="#f2f2f2"/>
    </g>
  </g>
</svg>
