<svg xmlns="http://www.w3.org/2000/svg" width="173" height="173" viewBox="0 0 173 173">
  <g id="Grupo_131833" data-name="Grupo 131833" transform="translate(-404 -494)">
    <g id="Grupo_131774" data-name="Grupo 131774" transform="translate(1 -24)">
      <g id="Grupo_131773" data-name="Grupo 131773" transform="translate(412.92 527.731)">
        <g id="Elipse_157" data-name="Elipse 157" transform="translate(0.08 0.269)" fill="#f3f9ff" stroke="#26defc" stroke-linejoin="round" stroke-width="10">
          <circle cx="76.5" cy="76.5" r="76.5" stroke="none"/>
          <circle cx="76.5" cy="76.5" r="81.5" fill="none"/>
        </g>
      </g>
      <g id="Grupo_111987" data-name="Grupo 111987" transform="translate(416.871 519.279)">
        <path id="Trazado_115583" data-name="Trazado 115583" d="M91.541,232.111,22.454,192.224c-1.956-1.128-1.71-3.1.546-4.4L70.042,160.67c2.256-1.3,5.671-1.445,7.623-.317l69.087,39.886c1.956,1.128,1.71,3.1-.546,4.4L99.164,231.794c-2.256,1.3-5.671,1.445-7.623.317Z" transform="translate(-21.133 -89.271)" fill="#c4d9e8" opacity="0.5"/>
        <path id="Trazado_115584" data-name="Trazado 115584" d="M237.253,40.315,168.165.429a2.79,2.79,0,0,0-2.34-.286V.134l-.119.048a.093.093,0,0,0-.031.013l-2.5.956,2.243,1.1c-.009.04-.022.079-.031.123L154.136,53.6c-.564,2.565.564,5.556,2.52,6.684l67.426,38.926-.242,2.855L226.567,101a3.817,3.817,0,0,0,1.952-2.78L239.773,47c.564-2.565-.564-5.556-2.52-6.684Z" transform="translate(-95.449 -0.003)" fill="#173d7a"/>
        <path id="Trazado_115585" data-name="Trazado 115585" d="M242.309,40.315,173.222.429a2.79,2.79,0,0,0-2.34-.286V.134l-.119.048a.093.093,0,0,0-.031.013l-2.5.956,2.243,1.1c-.009.04-.022.079-.031.123L163.03,36.129l33.8,26.337,47.664-19.392a5.38,5.38,0,0,0-2.181-2.754Z" transform="translate(-100.505 -0.003)" fill="#396caa"/>
        <path id="Trazado_115586" data-name="Trazado 115586" d="M330.445,99.834l5.261-2.238a6.573,6.573,0,0,0-2.133-5.266l-8.324,3.5,5.2,4.005Z" transform="translate(-191.245 -51.647)" fill="#274f89"/>
        <path id="Trazado_115587" data-name="Trazado 115587" d="M215.965,103.008,146.878,63.121c-1.956-1.128-3.08-4.12-2.52-6.684L155.616,5.213c.564-2.565,2.6-3.728,4.556-2.6L229.259,42.5c1.956,1.128,3.08,4.12,2.52,6.684l-11.254,51.224c-.564,2.565-2.6,3.728-4.556,2.6Z" transform="translate(-89.98 -1.222)" fill="#d4ecff"/>
        <path id="Trazado_115588" data-name="Trazado 115588" d="M218.078,103.965,153.106,66.471c-1.789-1.031-2.82-3.772-2.3-6.116L161.1,13.48c.516-2.344,2.384-3.411,4.173-2.379l64.972,37.494c1.789,1.031,2.82,3.772,2.3,6.116l-10.3,46.875c-.516,2.344-2.384,3.411-4.173,2.379Z" transform="translate(-93.591 -5.991)" fill="#fff"/>
        <path id="Trazado_115589" data-name="Trazado 115589" d="M218.078,103.965,153.106,66.471c-1.789-1.031-2.82-3.772-2.3-6.116L161.1,13.48c.516-2.344,2.384-3.411,4.173-2.379l64.972,37.494c1.789,1.031,2.82,3.772,2.3,6.116l-10.3,46.875c-.516,2.344-2.384,3.411-4.173,2.379Z" transform="translate(-93.591 -5.991)" fill="#fff"/>
        <path id="Trazado_115590" data-name="Trazado 115590" d="M148.084,187.714l-9.443-1.247L77.679,151.273c-1.956-1.128-5.367-.987-7.623.317l-43.2,24.931-5.711-.753v3.239h0a2.219,2.219,0,0,0,1.313,2l69.087,39.886c1.956,1.128,5.367.987,7.623-.317l47.042-27.152a3.072,3.072,0,0,0,1.864-2.565h0Z" transform="translate(-21.143 -84.192)" fill="#173d7a"/>
        <path id="Trazado_115591" data-name="Trazado 115591" d="M102.28,181.3l-4.331-2.5H50.333L26.861,192.345l-5.711-.753v3.239h0a2.219,2.219,0,0,0,1.313,2l69.087,39.886a7.155,7.155,0,0,0,3.935.736l6.795-56.155Z" transform="translate(-21.143 -100.015)" fill="#396caa"/>
        <path id="Trazado_115592" data-name="Trazado 115592" d="M23.684,208.155l-2.534-.335v3.239h0a2.219,2.219,0,0,0,1.313,2l1.216.705Z" transform="translate(-21.143 -116.248)" fill="#5793ce"/>
        <path id="Trazado_115593" data-name="Trazado 115593" d="M182.5,301.287a8.856,8.856,0,0,0,6.477-.4V293.66H182.5Z" transform="translate(-111.396 -164.264)" fill="#274f89"/>
        <path id="Trazado_115594" data-name="Trazado 115594" d="M91.541,210.831,22.454,170.944c-1.956-1.128-1.71-3.1.546-4.4L70.042,139.39c2.256-1.3,5.671-1.445,7.623-.317l69.087,39.886c1.956,1.128,1.71,3.1-.546,4.4L99.164,210.514C96.908,211.818,93.493,211.959,91.541,210.831Z" transform="translate(-21.133 -77.368)" fill="#d4ecff"/>
        <path id="Trazado_115595" data-name="Trazado 115595" d="M146.212,220.418,99.17,247.57c-2.256,1.3-5.671,1.445-7.623.317L22.46,208a2.593,2.593,0,0,1-1.216-1.331,2.089,2.089,0,0,0,1.216,2.512l69.087,39.886c1.956,1.128,5.367.987,7.623-.317L146.212,221.6c1.516-.877,2.119-2.053,1.763-3.071A3.684,3.684,0,0,1,146.212,220.418Z" transform="translate(-21.139 -115.605)" fill="#fff"/>
        <g id="Grupo_111986" data-name="Grupo 111986" transform="translate(27.413 63.405)">
          <path id="Trazado_115596" data-name="Trazado 115596" d="M86.639,176.524l-3.124-1.807c-.251-.145-.22-.4.071-.564l3.688-2.128a1.084,1.084,0,0,1,.978-.04l3.124,1.807c.251.145.22.4-.071.564l-3.688,2.128A1.084,1.084,0,0,1,86.639,176.524Z" transform="translate(-83.345 -159.553)" fill="#173d7a"/>
          <path id="Trazado_115597" data-name="Trazado 115597" d="M97.589,182.844l-3.124-1.807c-.251-.145-.22-.4.071-.564l3.688-2.128a1.084,1.084,0,0,1,.978-.04l3.124,1.807c.251.145.22.4-.07.564L98.567,182.8A1.084,1.084,0,0,1,97.589,182.844Z" transform="translate(-89.47 -163.088)" fill="#173d7a"/>
          <path id="Trazado_115598" data-name="Trazado 115598" d="M108.549,189.174l-3.124-1.807c-.251-.145-.22-.4.071-.564l3.688-2.128a1.084,1.084,0,0,1,.978-.04l3.124,1.807c.251.145.22.4-.071.564l-3.688,2.128A1.084,1.084,0,0,1,108.549,189.174Z" transform="translate(-95.6 -166.629)" fill="#173d7a"/>
          <path id="Trazado_115599" data-name="Trazado 115599" d="M123.7,184.374l-3.124-1.807c-.251-.145-.22-.4.071-.564l3.1-1.789a1.084,1.084,0,0,1,.978-.04l3.124,1.807c.251.145.22.4-.071.564l-3.1,1.789a1.084,1.084,0,0,1-.978.04Z" transform="translate(-104.075 -164.134)" fill="#173d7a"/>
          <path id="Trazado_115600" data-name="Trazado 115600" d="M134.649,190.7l-3.124-1.807c-.251-.145-.22-.4.071-.564l3.1-1.789a1.084,1.084,0,0,1,.978-.04l3.124,1.807c.251.145.22.4-.07.564l-3.1,1.789A1.084,1.084,0,0,1,134.649,190.7Z" transform="translate(-110.2 -167.675)" fill="#173d7a"/>
          <path id="Trazado_115601" data-name="Trazado 115601" d="M145.609,197.024l-3.124-1.807c-.251-.145-.22-.4.07-.564l3.1-1.789a1.084,1.084,0,0,1,.978-.04l3.124,1.807c.251.145.22.4-.07.564l-3.1,1.789A1.084,1.084,0,0,1,145.609,197.024Z" transform="translate(-116.33 -171.21)" fill="#173d7a"/>
          <path id="Trazado_115602" data-name="Trazado 115602" d="M156.569,203.354l-3.124-1.807c-.251-.145-.22-.4.07-.564l3.1-1.789a1.084,1.084,0,0,1,.978-.04l3.124,1.807c.251.145.22.4-.071.564l-3.1,1.789A1.084,1.084,0,0,1,156.569,203.354Z" transform="translate(-122.461 -174.751)" fill="#173d7a"/>
          <path id="Trazado_115603" data-name="Trazado 115603" d="M167.519,209.674l-3.124-1.807c-.251-.145-.22-.4.071-.564l3.1-1.789a1.084,1.084,0,0,1,.978-.04l3.124,1.807c.251.145.22.4-.071.564l-3.1,1.789A1.084,1.084,0,0,1,167.519,209.674Z" transform="translate(-128.586 -178.286)" fill="#173d7a"/>
          <path id="Trazado_115604" data-name="Trazado 115604" d="M178.479,216l-3.124-1.807c-.251-.145-.22-.4.07-.564l3.1-1.789a1.084,1.084,0,0,1,.978-.04l3.124,1.807c.251.145.22.4-.071.564l-3.1,1.789A1.084,1.084,0,0,1,178.479,216Z" transform="translate(-134.717 -181.827)" fill="#173d7a"/>
          <path id="Trazado_115605" data-name="Trazado 115605" d="M189.429,222.324l-3.124-1.807c-.251-.145-.22-.4.071-.564l3.1-1.789a1.084,1.084,0,0,1,.978-.04l3.124,1.807c.251.145.22.4-.07.564l-3.1,1.789A1.084,1.084,0,0,1,189.429,222.324Z" transform="translate(-140.842 -185.362)" fill="#173d7a"/>
          <path id="Trazado_115606" data-name="Trazado 115606" d="M200.389,228.654l-3.124-1.807c-.251-.145-.22-.4.071-.564l3.1-1.789a1.084,1.084,0,0,1,.978-.04l3.124,1.807c.251.145.22.4-.07.564l-3.1,1.789A1.084,1.084,0,0,1,200.389,228.654Z" transform="translate(-146.972 -188.903)" fill="#173d7a"/>
          <path id="Trazado_115607" data-name="Trazado 115607" d="M211.339,234.974l-3.124-1.807c-.251-.145-.22-.4.07-.564l3.1-1.789a1.084,1.084,0,0,1,.978-.04l3.124,1.807c.251.145.22.4-.071.564l-3.1,1.789A1.084,1.084,0,0,1,211.339,234.974Z" transform="translate(-153.097 -192.438)" fill="#173d7a"/>
          <path id="Trazado_115608" data-name="Trazado 115608" d="M222.3,241.3l-3.124-1.807c-.251-.145-.22-.4.071-.564l3.1-1.789a1.084,1.084,0,0,1,.978-.04l3.124,1.807c.251.145.22.4-.07.564l-3.1,1.789A1.084,1.084,0,0,1,222.3,241.3Z" transform="translate(-159.228 -195.979)" fill="#173d7a"/>
          <path id="Trazado_115609" data-name="Trazado 115609" d="M139.839,181.384l-3.124-1.807c-.251-.145-.22-.4.071-.564l3.1-1.789a1.084,1.084,0,0,1,.978-.04l3.124,1.807c.251.145.22.4-.07.564l-3.1,1.789A1.084,1.084,0,0,1,139.839,181.384Z" transform="translate(-113.103 -162.462)" fill="#396caa"/>
          <path id="Trazado_115610" data-name="Trazado 115610" d="M128.719,174.964l-3.124-1.807c-.251-.145-.22-.4.071-.564l3.1-1.789a1.084,1.084,0,0,1,.978-.04l3.124,1.807c.251.145.22.4-.07.564l-3.1,1.789A1.084,1.084,0,0,1,128.719,174.964Z" transform="translate(-106.883 -158.871)" fill="#396caa"/>
          <path id="Trazado_115611" data-name="Trazado 115611" d="M113.007,165.894l-6.733-3.886c-.251-.145-.22-.4.07-.564l3.1-1.789a1.084,1.084,0,0,1,.978-.04l6.733,3.886c.251.145.22.4-.071.564l-3.1,1.789a1.084,1.084,0,0,1-.978.04Z" transform="translate(-96.076 -152.634)" fill="#173d7a"/>
          <path id="Trazado_115612" data-name="Trazado 115612" d="M122.4,159l-5.464-3.155c-.251-.145-.22-.4.071-.564l3.1-1.789a1.084,1.084,0,0,1,.978-.04l5.464,3.155c.251.145.22.4-.071.564l-3.1,1.789A1.084,1.084,0,0,1,122.4,159Z" transform="translate(-102.039 -149.188)" fill="#173d7a"/>
          <path id="Trazado_115613" data-name="Trazado 115613" d="M150.8,187.7l-3.124-1.807c-.251-.145-.22-.4.07-.564l3.1-1.789a1.084,1.084,0,0,1,.978-.04l3.124,1.807c.251.145.22.4-.071.564l-3.1,1.789A1.084,1.084,0,0,1,150.8,187.7Z" transform="translate(-119.233 -165.997)" fill="#396caa"/>
          <path id="Trazado_115614" data-name="Trazado 115614" d="M161.749,194.034l-3.124-1.807c-.251-.145-.22-.4.07-.564l3.1-1.789a1.084,1.084,0,0,1,.978-.04l3.124,1.807c.251.145.22.4-.071.564l-3.1,1.789A1.084,1.084,0,0,1,161.749,194.034Z" transform="translate(-125.359 -169.538)" fill="#173d7a"/>
          <path id="Trazado_115615" data-name="Trazado 115615" d="M172.709,200.354l-3.124-1.807c-.251-.145-.22-.4.071-.564l3.1-1.789a1.084,1.084,0,0,1,.978-.04l3.124,1.807c.251.145.22.4-.07.564l-3.1,1.789A1.084,1.084,0,0,1,172.709,200.354Z" transform="translate(-131.489 -173.073)" fill="#173d7a"/>
          <path id="Trazado_115616" data-name="Trazado 115616" d="M183.659,206.684l-3.124-1.807c-.251-.145-.22-.4.07-.564l3.1-1.789a1.084,1.084,0,0,1,.978-.04l3.124,1.807c.251.145.22.4-.071.564l-3.1,1.789A1.084,1.084,0,0,1,183.659,206.684Z" transform="translate(-137.614 -176.614)" fill="#173d7a"/>
          <path id="Trazado_115617" data-name="Trazado 115617" d="M194.619,213l-3.124-1.807c-.251-.145-.22-.4.07-.564l3.1-1.789a1.084,1.084,0,0,1,.978-.04l3.124,1.807c.251.145.22.4-.071.564l-3.1,1.789A1.084,1.084,0,0,1,194.619,213Z" transform="translate(-143.745 -180.149)" fill="#173d7a"/>
          <path id="Trazado_115618" data-name="Trazado 115618" d="M205.569,219.334l-3.124-1.807c-.251-.145-.22-.4.071-.564l3.1-1.789a1.084,1.084,0,0,1,.978-.04l3.124,1.807c.251.145.22.4-.07.564l-3.1,1.789A1.084,1.084,0,0,1,205.569,219.334Z" transform="translate(-149.87 -183.69)" fill="#173d7a"/>
          <path id="Trazado_115619" data-name="Trazado 115619" d="M216.529,225.654l-3.124-1.807c-.251-.145-.22-.4.071-.564l3.1-1.789a1.084,1.084,0,0,1,.978-.04l3.124,1.807c.251.145.22.4-.071.564l-3.1,1.789A1.084,1.084,0,0,1,216.529,225.654Z" transform="translate(-156 -187.225)" fill="#173d7a"/>
          <path id="Trazado_115620" data-name="Trazado 115620" d="M227.479,231.984l-3.124-1.807c-.251-.145-.22-.4.07-.564l3.1-1.789a1.084,1.084,0,0,1,.978-.04l3.124,1.807c.251.145.22.4-.07.564l-3.1,1.789A1.084,1.084,0,0,1,227.479,231.984Z" transform="translate(-162.125 -190.766)" fill="#173d7a"/>
          <path id="Trazado_115621" data-name="Trazado 115621" d="M238.439,238.3l-3.124-1.807c-.251-.145-.22-.4.071-.564l3.1-1.789a1.084,1.084,0,0,1,.978-.04l3.124,1.807c.251.145.22.4-.07.564l-3.1,1.789A1.084,1.084,0,0,1,238.439,238.3Z" transform="translate(-168.256 -194.301)" fill="#173d7a"/>
          <path id="Trazado_115622" data-name="Trazado 115622" d="M253.216,246.847l-6.821-3.939c-.251-.145-.22-.4.071-.564l3.1-1.789a1.084,1.084,0,0,1,.978-.04l6.821,3.939c.251.145.22.4-.07.564l-3.1,1.789A1.084,1.084,0,0,1,253.216,246.847Z" transform="translate(-174.454 -197.886)" fill="#173d7a"/>
          <path id="Trazado_115623" data-name="Trazado 115623" d="M275.9,235.31l-5.755-3.322c-.251-.145-.22-.4.07-.564l3.1-1.789a1.084,1.084,0,0,1,.978-.04l5.755,3.322c.251.145.22.4-.07.564l-3.1,1.789A1.084,1.084,0,0,1,275.9,235.31Z" transform="translate(-187.739 -191.778)" fill="#173d7a"/>
          <path id="Trazado_115624" data-name="Trazado 115624" d="M169.979,186.474l-3.124-1.807c-.251-.145-.22-.4.07-.564l3.1-1.789a1.084,1.084,0,0,1,.978-.04l3.124,1.807c.251.145.22.4-.07.564l-3.1,1.789A1.084,1.084,0,0,1,169.979,186.474Z" transform="translate(-129.962 -165.309)" fill="#173d7a"/>
          <path id="Trazado_115625" data-name="Trazado 115625" d="M158.749,179.984l-3.124-1.807c-.251-.145-.22-.4.07-.564l3.1-1.789a1.084,1.084,0,0,1,.978-.04l3.124,1.807c.251.145.22.4-.071.564l-3.1,1.789A1.084,1.084,0,0,1,158.749,179.984Z" transform="translate(-123.68 -161.679)" fill="#173d7a"/>
          <path id="Trazado_115626" data-name="Trazado 115626" d="M147.529,173.5,144.4,171.7c-.251-.145-.22-.4.07-.564l3.1-1.789a1.084,1.084,0,0,1,.978-.04l3.124,1.807c.251.145.22.4-.071.564l-3.1,1.789A1.084,1.084,0,0,1,147.529,173.5Z" transform="translate(-117.404 -158.054)" fill="#396caa"/>
          <path id="Trazado_115627" data-name="Trazado 115627" d="M136.3,167.024l-3.124-1.807c-.251-.145-.22-.4.07-.564l3.1-1.789a1.084,1.084,0,0,1,.978-.04l3.124,1.807c.251.145.22.4-.071.564l-3.1,1.789A1.084,1.084,0,0,1,136.3,167.024Z" transform="translate(-111.123 -154.429)" fill="#173d7a"/>
          <path id="Trazado_115628" data-name="Trazado 115628" d="M180.939,192.794l-3.124-1.807c-.251-.145-.22-.4.07-.564l3.1-1.789a1.084,1.084,0,0,1,.978-.04l3.124,1.807c.251.145.22.4-.07.564l-3.1,1.789A1.084,1.084,0,0,1,180.939,192.794Z" transform="translate(-136.093 -168.844)" fill="#173d7a"/>
          <path id="Trazado_115629" data-name="Trazado 115629" d="M191.889,199.124l-3.124-1.807c-.251-.145-.22-.4.07-.564l3.1-1.789a1.084,1.084,0,0,1,.978-.04l3.124,1.807c.251.145.22.4-.07.564l-3.1,1.789A1.084,1.084,0,0,1,191.889,199.124Z" transform="translate(-142.218 -172.385)" fill="#173d7a"/>
          <path id="Trazado_115630" data-name="Trazado 115630" d="M202.849,205.444l-3.124-1.807c-.251-.145-.22-.4.07-.564l3.1-1.789a1.084,1.084,0,0,1,.978-.04l3.124,1.807c.251.145.22.4-.07.564l-3.1,1.789A1.084,1.084,0,0,1,202.849,205.444Z" transform="translate(-148.348 -175.92)" fill="#173d7a"/>
          <path id="Trazado_115631" data-name="Trazado 115631" d="M213.8,211.774l-3.124-1.807c-.251-.145-.22-.4.071-.564l3.1-1.789a1.084,1.084,0,0,1,.978-.04l3.124,1.807c.251.145.22.4-.07.564l-3.1,1.789A1.084,1.084,0,0,1,213.8,211.774Z" transform="translate(-154.473 -179.461)" fill="#173d7a"/>
          <path id="Trazado_115632" data-name="Trazado 115632" d="M224.759,218.094l-3.124-1.807c-.251-.145-.22-.4.07-.564l3.1-1.789a1.084,1.084,0,0,1,.978-.04L228.9,215.7c.251.145.22.4-.071.564l-3.1,1.789A1.084,1.084,0,0,1,224.759,218.094Z" transform="translate(-160.604 -182.996)" fill="#173d7a"/>
          <path id="Trazado_115633" data-name="Trazado 115633" d="M235.709,224.424l-3.124-1.807c-.251-.145-.22-.4.071-.564l3.1-1.789a1.084,1.084,0,0,1,.978-.04l3.124,1.807c.251.145.22.4-.07.564l-3.1,1.789A1.084,1.084,0,0,1,235.709,224.424Z" transform="translate(-166.729 -186.537)" fill="#173d7a"/>
          <path id="Trazado_115634" data-name="Trazado 115634" d="M246.669,230.744l-3.124-1.807c-.251-.145-.22-.4.07-.564l3.1-1.789a1.084,1.084,0,0,1,.978-.04l3.124,1.807c.251.145.22.4-.071.564l-3.1,1.789A1.084,1.084,0,0,1,246.669,230.744Z" transform="translate(-172.86 -190.072)" fill="#173d7a"/>
          <path id="Trazado_115635" data-name="Trazado 115635" d="M257.619,237.074l-3.124-1.807c-.251-.145-.22-.4.07-.564l3.1-1.789a1.084,1.084,0,0,1,.978-.04l3.124,1.807c.251.145.22.4-.07.564l-3.1,1.789A1.084,1.084,0,0,1,257.619,237.074Z" transform="translate(-178.985 -193.613)" fill="#173d7a"/>
          <path id="Trazado_115636" data-name="Trazado 115636" d="M268.579,243.394l-3.124-1.807c-.251-.145-.22-.4.07-.564l3.1-1.789a1.084,1.084,0,0,1,.978-.04L272.725,241c.251.145.22.4-.07.564l-3.1,1.789A1.084,1.084,0,0,1,268.579,243.394Z" transform="translate(-185.115 -197.148)" fill="#173d7a"/>
          <path id="Trazado_115637" data-name="Trazado 115637" d="M164.209,170.824l-3.124-1.807c-.251-.145-.22-.4.071-.564l3.1-1.789a1.084,1.084,0,0,1,.978-.04l3.124,1.807c.251.145.22.4-.07.564l-3.1,1.789A1.084,1.084,0,0,1,164.209,170.824Z" transform="translate(-126.735 -156.555)" fill="#173d7a"/>
          <path id="Trazado_115638" data-name="Trazado 115638" d="M153.309,164.534l-3.124-1.807c-.251-.145-.22-.4.07-.564l3.1-1.789a1.084,1.084,0,0,1,.978-.04l3.124,1.807c.251.145.22.4-.071.564l-3.1,1.789A1.084,1.084,0,0,1,153.309,164.534Z" transform="translate(-120.637 -153.037)" fill="#173d7a"/>
          <path id="Trazado_115639" data-name="Trazado 115639" d="M142.409,158.234l-3.124-1.807c-.251-.145-.22-.4.07-.564l3.1-1.789a1.084,1.084,0,0,1,.978-.04l3.124,1.807c.251.145.22.4-.07.564l-3.1,1.789A1.084,1.084,0,0,1,142.409,158.234Z" transform="translate(-114.54 -149.513)" fill="#173d7a"/>
          <path id="Trazado_115640" data-name="Trazado 115640" d="M131.509,151.944l-3.124-1.807c-.251-.145-.22-.4.07-.564l3.1-1.789a1.084,1.084,0,0,1,.978-.04l3.124,1.807c.251.145.22.4-.07.564l-3.1,1.789A1.084,1.084,0,0,1,131.509,151.944Z" transform="translate(-108.443 -145.994)" fill="#173d7a"/>
          <path id="Trazado_115641" data-name="Trazado 115641" d="M142.719,147l-3.124-1.807c-.251-.145-.22-.4.07-.564l1.022-.59a1.084,1.084,0,0,1,.978-.04l3.124,1.807c.251.145.22.4-.071.564l-1.022.59A1.084,1.084,0,0,1,142.719,147Z" transform="translate(-114.714 -143.897)" fill="#173d7a"/>
          <path id="Trazado_115642" data-name="Trazado 115642" d="M156.949,155.206l-3.124-1.807c-.251-.145-.22-.4.07-.564l1.022-.59a1.084,1.084,0,0,1,.978-.04l3.124,1.807c.251.145.22.4-.07.564l-1.022.59A1.084,1.084,0,0,1,156.949,155.206Z" transform="translate(-122.674 -148.489)" fill="#173d7a"/>
          <path id="Trazado_115643" data-name="Trazado 115643" d="M167.8,161.476l-3.124-1.807c-.251-.145-.22-.4.07-.564l1.022-.59a1.084,1.084,0,0,1,.978-.04l3.124,1.807c.251.145.22.4-.07.564l-1.022.59A1.084,1.084,0,0,1,167.8,161.476Z" transform="translate(-128.743 -151.996)" fill="#173d7a"/>
          <path id="Trazado_115644" data-name="Trazado 115644" d="M178.659,167.746l-3.124-1.807c-.251-.145-.22-.4.07-.564l1.022-.59a1.084,1.084,0,0,1,.978-.04l3.124,1.807c.251.145.22.4-.071.564l-1.022.59A1.084,1.084,0,0,1,178.659,167.746Z" transform="translate(-134.817 -155.503)" fill="#173d7a"/>
          <path id="Trazado_115645" data-name="Trazado 115645" d="M189.509,174.006l-3.124-1.807c-.251-.145-.22-.4.07-.564l1.022-.59a1.084,1.084,0,0,1,.978-.04l3.124,1.807c.251.145.22.4-.071.564l-1.022.59A1.084,1.084,0,0,1,189.509,174.006Z" transform="translate(-140.886 -159.005)" fill="#173d7a"/>
          <path id="Trazado_115646" data-name="Trazado 115646" d="M250.109,209l-3.124-1.807c-.251-.145-.22-.4.07-.564l1.022-.59a1.084,1.084,0,0,1,.978-.04l3.124,1.807c.251.145.22.4-.07.564l-1.022.59A1.084,1.084,0,0,1,250.109,209Z" transform="translate(-174.784 -178.577)" fill="#173d7a"/>
          <path id="Trazado_115647" data-name="Trazado 115647" d="M260.969,215.266l-3.124-1.807c-.251-.145-.22-.4.07-.564l1.022-.59a1.084,1.084,0,0,1,.978-.04l3.124,1.807c.251.145.22.4-.07.564l-1.022.59A1.084,1.084,0,0,1,260.969,215.266Z" transform="translate(-180.859 -182.084)" fill="#173d7a"/>
          <path id="Trazado_115648" data-name="Trazado 115648" d="M271.829,221.536l-3.124-1.807c-.251-.145-.22-.4.07-.564l1.022-.59a1.084,1.084,0,0,1,.978-.04l3.124,1.807c.251.145.22.4-.071.564l-1.022.59A1.084,1.084,0,0,1,271.829,221.536Z" transform="translate(-186.933 -185.591)" fill="#173d7a"/>
          <path id="Trazado_115649" data-name="Trazado 115649" d="M282.679,227.806,279.554,226c-.251-.145-.22-.4.07-.564l1.022-.59a1.084,1.084,0,0,1,.978-.04l3.124,1.807c.251.145.22.4-.07.564l-1.022.59A1.084,1.084,0,0,1,282.679,227.806Z" transform="translate(-193.002 -189.099)" fill="#173d7a"/>
          <path id="Trazado_115650" data-name="Trazado 115650" d="M175.169,177.154l-3.124-1.807c-.251-.145-.22-.4.07-.564l3.1-1.789a1.084,1.084,0,0,1,.978-.04l3.124,1.807c.251.145.22.4-.071.564l-3.1,1.789A1.084,1.084,0,0,1,175.169,177.154Z" transform="translate(-132.865 -160.096)" fill="#173d7a"/>
          <path id="Trazado_115651" data-name="Trazado 115651" d="M186.119,183.474l-3.124-1.807c-.251-.145-.22-.4.071-.564l3.1-1.789a1.084,1.084,0,0,1,.978-.04l3.124,1.807c.251.145.22.4-.07.564l-3.1,1.789A1.084,1.084,0,0,1,186.119,183.474Z" transform="translate(-138.99 -163.631)" fill="#173d7a"/>
          <path id="Trazado_115652" data-name="Trazado 115652" d="M197.079,189.8,193.954,188c-.251-.145-.22-.4.071-.564l3.1-1.789a1.084,1.084,0,0,1,.978-.04l3.124,1.807c.251.145.22.4-.07.564l-3.1,1.789A1.084,1.084,0,0,1,197.079,189.8Z" transform="translate(-145.121 -167.172)" fill="#173d7a"/>
          <path id="Trazado_115653" data-name="Trazado 115653" d="M208.029,196.124l-3.124-1.807c-.251-.145-.22-.4.07-.564l3.1-1.789a1.084,1.084,0,0,1,.978-.04l3.124,1.807c.251.145.22.4-.07.564l-3.1,1.789A1.084,1.084,0,0,1,208.029,196.124Z" transform="translate(-151.246 -170.707)" fill="#173d7a"/>
          <path id="Trazado_115654" data-name="Trazado 115654" d="M218.989,202.454l-3.124-1.807c-.251-.145-.22-.4.07-.564l3.1-1.789a1.084,1.084,0,0,1,.978-.04l3.124,1.807c.251.145.22.4-.071.564l-3.1,1.789A1.084,1.084,0,0,1,218.989,202.454Z" transform="translate(-157.376 -174.248)" fill="#173d7a"/>
          <path id="Trazado_115655" data-name="Trazado 115655" d="M229.939,208.774l-3.124-1.807c-.251-.145-.22-.4.07-.564l3.1-1.789a1.084,1.084,0,0,1,.978-.04l3.124,1.807c.251.145.22.4-.07.564l-3.1,1.789A1.084,1.084,0,0,1,229.939,208.774Z" transform="translate(-163.502 -177.783)" fill="#173d7a"/>
          <path id="Trazado_115656" data-name="Trazado 115656" d="M240.9,215.1l-3.124-1.807c-.251-.145-.22-.4.071-.564l3.1-1.789a1.084,1.084,0,0,1,.978-.04l3.124,1.807c.251.145.22.4-.07.564l-3.1,1.789A1.084,1.084,0,0,1,240.9,215.1Z" transform="translate(-169.632 -181.324)" fill="#173d7a"/>
          <path id="Trazado_115657" data-name="Trazado 115657" d="M251.849,221.424l-3.124-1.807c-.251-.145-.22-.4.07-.564l3.1-1.789a1.084,1.084,0,0,1,.978-.04l3.124,1.807c.251.145.22.4-.071.564l-3.1,1.789A1.084,1.084,0,0,1,251.849,221.424Z" transform="translate(-175.757 -184.859)" fill="#173d7a"/>
          <path id="Trazado_115658" data-name="Trazado 115658" d="M262.809,227.754l-3.124-1.807c-.251-.145-.22-.4.07-.564l3.1-1.789a1.084,1.084,0,0,1,.978-.04l3.124,1.807c.251.145.22.4-.071.564l-3.1,1.789A1.084,1.084,0,0,1,262.809,227.754Z" transform="translate(-181.888 -188.399)" fill="#173d7a"/>
          <path id="Trazado_115659" data-name="Trazado 115659" d="M104.819,173.482l-9.2-5.314c-.251-.145-.22-.4.071-.564l3.1-1.789a1.084,1.084,0,0,1,.978-.04l9.2,5.314c.251.145.22.4-.071.564l-3.1,1.789A1.084,1.084,0,0,1,104.819,173.482Z" transform="translate(-90.113 -156.079)" fill="#173d7a"/>
          <path id="Trazado_115660" data-name="Trazado 115660" d="M239.4,251.182l-9.2-5.314c-.251-.145-.22-.4.07-.564l3.1-1.789a1.084,1.084,0,0,1,.978-.04l9.2,5.314c.251.145.22.4-.071.564l-3.1,1.789a1.084,1.084,0,0,1-.978.04Z" transform="translate(-165.392 -199.542)" fill="#173d7a"/>
          <path id="Trazado_115661" data-name="Trazado 115661" d="M203.309,243.884l-3.124-1.807c-.251-.145-.22-.4.071-.564l3.688-2.128a1.084,1.084,0,0,1,.978-.04l3.124,1.807c.251.145.22.4-.07.564l-3.688,2.128A1.084,1.084,0,0,1,203.309,243.884Z" transform="translate(-148.606 -197.232)" fill="#173d7a"/>
          <path id="Trazado_115662" data-name="Trazado 115662" d="M121.366,196.583l-5-2.886c-.251-.145-.22-.4.071-.564L120.123,191a1.084,1.084,0,0,1,.978-.04l5,2.886c.251.145.22.4-.071.564l-3.688,2.128a1.084,1.084,0,0,1-.978.04Z" transform="translate(-101.72 -170.17)" fill="#173d7a"/>
          <path id="Trazado_115663" data-name="Trazado 115663" d="M190.376,236.413l-5-2.886c-.251-.145-.22-.4.07-.564l3.688-2.128a1.084,1.084,0,0,1,.978-.04l5,2.886c.251.145.22.4-.071.564l-3.688,2.128A1.084,1.084,0,0,1,190.376,236.413Z" transform="translate(-140.321 -192.449)" fill="#173d7a"/>
          <path id="Trazado_115664" data-name="Trazado 115664" d="M137.176,205.7l-5-2.886c-.251-.145-.22-.4.07-.564l3.688-2.128a1.084,1.084,0,0,1,.978-.04l5,2.886c.251.145.22.4-.07.564l-3.688,2.128A1.084,1.084,0,0,1,137.176,205.7Z" transform="translate(-110.563 -175.271)" fill="#173d7a"/>
          <path id="Trazado_115665" data-name="Trazado 115665" d="M137.211,200.25,158.948,212.8a.3.3,0,0,1,0,.564l-3.763,2.172a1.092,1.092,0,0,1-.978,0L132.47,202.986l4.741-2.736Z" transform="translate(-110.824 -175.419)" fill="#173d7a"/>
          <path id="Trazado_115666" data-name="Trazado 115666" d="M234.923,261.142l3.481,2.009c.207.119.181.326-.057.463l-1.511.872a.892.892,0,0,1-.8.035l-3.481-2.009c-.207-.119-.181-.326.057-.463l1.511-.872A.906.906,0,0,1,234.923,261.142Z" transform="translate(-166.728 -209.436)" fill="#173d7a"/>
          <path id="Trazado_115667" data-name="Trazado 115667" d="M223.873,254.759l3.481,2.009c.207.119.181.326-.057.463l-1.511.872a.892.892,0,0,1-.8.035L221.5,256.13c-.207-.119-.181-.326.057-.463l1.511-.872a.892.892,0,0,1,.8-.035Z" transform="translate(-160.547 -205.865)" fill="#173d7a"/>
          <path id="Trazado_115668" data-name="Trazado 115668" d="M212.923,248.432l3.481,2.009c.207.119.181.326-.057.463l-1.511.872a.892.892,0,0,1-.8.035l-3.481-2.009c-.207-.119-.181-.326.057-.463l1.511-.872A.906.906,0,0,1,212.923,248.432Z" transform="translate(-154.422 -202.326)" fill="#173d7a"/>
          <path id="Trazado_115669" data-name="Trazado 115669" d="M229.923,251.272l3.481,2.009c.207.119.181.326-.057.463l-1.511.872a.892.892,0,0,1-.8.035l-3.481-2.009c-.207-.119-.181-.326.057-.463l1.511-.872a.906.906,0,0,1,.8-.035Z" transform="translate(-163.931 -203.915)" fill="#173d7a"/>
        </g>
      </g>
      <g id="Grupo_111995" data-name="Grupo 111995" transform="translate(515.547 609.307)">
        <path id="Trazado_115670" data-name="Trazado 115670" d="M272.887,317.883l-16.348-9.438c-1-.577-.877-1.591.282-2.26l15.788-9.117a4.351,4.351,0,0,1,3.913-.163l16.348,9.438c1,.577.877,1.591-.282,2.26L276.8,317.72A4.352,4.352,0,0,1,272.887,317.883Z" transform="translate(-251.108 -255.889)" fill="#c4d9e8" opacity="0.5"/>
        <g id="Grupo_111989" data-name="Grupo 111989" transform="translate(0 22.578)">
          <path id="Trazado_115671" data-name="Trazado 115671" d="M292.26,288.9h0v-7.063l-15.841-.009-5.477-3.159a5.45,5.45,0,0,0-4.9.2l-5.107,2.948-15.854-.009v7.266a1.423,1.423,0,0,0,.842,1.313l20.472,11.822a5.45,5.45,0,0,0,4.9-.2L291.061,290.6c.837-.485,1.243-1.11,1.194-1.692Z" transform="translate(-245.073 -268.21)" fill="#396caa"/>
          <path id="Trazado_115672" data-name="Trazado 115672" d="M268.683,278.18a5.679,5.679,0,0,0-2.626.687l-5.107,2.948-15.854-.009v7.266a1.423,1.423,0,0,0,.842,1.313l20.472,11.822a4.424,4.424,0,0,0,2.274.485Z" transform="translate(-245.084 -268.211)" fill="#396caa"/>
          <path id="Trazado_115673" data-name="Trazado 115673" d="M246.88,286.42h-1.793v7.266a1.423,1.423,0,0,0,.842,1.313l.952.551v-9.126Z" transform="translate(-245.079 -272.821)" fill="#5793ce"/>
          <path id="Trazado_115674" data-name="Trazado 115674" d="M294.18,322.533a5.582,5.582,0,0,0,3.917-.044V314.24H294.18Z" transform="translate(-272.542 -288.382)" fill="#5793ce"/>
          <path id="Trazado_115675" data-name="Trazado 115675" d="M266.4,282.314l-20.472-11.822c-1.256-.727-1.1-1.992.353-2.829l19.767-11.412a5.449,5.449,0,0,1,4.9-.2L291.42,267.87c1.256.727,1.1,1.992-.353,2.829L271.3,282.111A5.449,5.449,0,0,1,266.4,282.314Z" transform="translate(-245.075 -255.557)" fill="#d4ecff"/>
          <path id="Trazado_115676" data-name="Trazado 115676" d="M271.616,282.985l-17.158-9.906c-1.053-.608-.921-1.67.3-2.371l16.568-9.566a4.568,4.568,0,0,1,4.107-.172l17.158,9.906c1.053.608.921,1.67-.3,2.371l-16.568,9.566A4.567,4.567,0,0,1,271.616,282.985Z" transform="translate(-249.925 -258.356)" fill="#5793ce"/>
          <g id="Grupo_111988" data-name="Grupo 111988" transform="translate(37.999 18.893)">
            <path id="Trazado_115677" data-name="Trazado 115677" d="M332.967,305.992a1.824,1.824,0,0,1-.828,1.432c-.458.264-.828.048-.828-.476a1.831,1.831,0,0,1,.828-1.432C332.6,305.252,332.967,305.468,332.967,305.992Z" transform="translate(-331.31 -302.332)" fill="#d4ecff"/>
            <path id="Trazado_115678" data-name="Trazado 115678" d="M339.007,302.5a1.824,1.824,0,0,1-.828,1.432c-.458.264-.828.048-.828-.476a1.831,1.831,0,0,1,.828-1.432C338.637,301.762,339.007,301.978,339.007,302.5Z" transform="translate(-334.689 -300.38)" fill="#d4ecff"/>
            <path id="Trazado_115679" data-name="Trazado 115679" d="M345.047,299.022a1.824,1.824,0,0,1-.828,1.432c-.458.264-.828.048-.828-.476a1.83,1.83,0,0,1,.828-1.432C344.677,298.282,345.047,298.5,345.047,299.022Z" transform="translate(-338.067 -298.434)" fill="#d4ecff"/>
          </g>
        </g>
        <g id="Grupo_111991" data-name="Grupo 111991" transform="translate(0 11.289)">
          <path id="Trazado_115680" data-name="Trazado 115680" d="M292.26,263.279h0v-7.063l-15.841-.009-5.477-3.159a5.45,5.45,0,0,0-4.9.2L260.93,256.2l-15.854-.009v7.266a1.423,1.423,0,0,0,.842,1.313l20.472,11.822a5.45,5.45,0,0,0,4.9-.2l19.767-11.412c.837-.485,1.243-1.11,1.194-1.692Z" transform="translate(-245.073 -242.59)" fill="#396caa"/>
          <path id="Trazado_115681" data-name="Trazado 115681" d="M268.683,252.56a5.679,5.679,0,0,0-2.626.687L260.95,256.2l-15.854-.009v7.266a1.423,1.423,0,0,0,.842,1.313l20.472,11.822a4.423,4.423,0,0,0,2.274.485Z" transform="translate(-245.084 -242.591)" fill="#396caa"/>
          <path id="Trazado_115682" data-name="Trazado 115682" d="M246.88,260.8h-1.793v7.266a1.423,1.423,0,0,0,.842,1.313l.952.551V260.8Z" transform="translate(-245.079 -247.201)" fill="#5793ce"/>
          <path id="Trazado_115683" data-name="Trazado 115683" d="M294.18,296.913a5.582,5.582,0,0,0,3.917-.044V288.62H294.18Z" transform="translate(-272.542 -262.762)" fill="#5793ce"/>
          <path id="Trazado_115684" data-name="Trazado 115684" d="M266.4,256.694l-20.472-11.822c-1.256-.727-1.1-1.992.353-2.829l19.767-11.412a5.449,5.449,0,0,1,4.9-.2L291.42,242.25c1.256.727,1.1,1.992-.353,2.829L271.3,256.491A5.449,5.449,0,0,1,266.4,256.694Z" transform="translate(-245.075 -229.937)" fill="#d4ecff"/>
          <path id="Trazado_115685" data-name="Trazado 115685" d="M271.616,257.365l-17.158-9.906c-1.053-.608-.921-1.67.3-2.371l16.568-9.566a4.567,4.567,0,0,1,4.107-.172l17.158,9.906c1.053.608.921,1.67-.3,2.371l-16.568,9.566A4.567,4.567,0,0,1,271.616,257.365Z" transform="translate(-249.925 -232.736)" fill="#5793ce"/>
          <g id="Grupo_111990" data-name="Grupo 111990" transform="translate(37.999 18.893)">
            <path id="Trazado_115686" data-name="Trazado 115686" d="M332.967,280.372a1.824,1.824,0,0,1-.828,1.432c-.458.264-.828.048-.828-.476a1.831,1.831,0,0,1,.828-1.432C332.6,279.632,332.967,279.848,332.967,280.372Z" transform="translate(-331.31 -276.712)" fill="#d4ecff"/>
            <path id="Trazado_115687" data-name="Trazado 115687" d="M339.007,276.882a1.824,1.824,0,0,1-.828,1.432c-.458.264-.828.048-.828-.476a1.831,1.831,0,0,1,.828-1.432C338.637,276.142,339.007,276.358,339.007,276.882Z" transform="translate(-334.689 -274.76)" fill="#d4ecff"/>
            <path id="Trazado_115688" data-name="Trazado 115688" d="M345.047,273.4a1.824,1.824,0,0,1-.828,1.432c-.458.264-.828.048-.828-.476a1.83,1.83,0,0,1,.828-1.432C344.677,272.662,345.047,272.878,345.047,273.4Z" transform="translate(-338.067 -272.814)" fill="#d4ecff"/>
          </g>
        </g>
        <g id="Grupo_111994" data-name="Grupo 111994">
          <path id="Trazado_115689" data-name="Trazado 115689" d="M292.26,237.659h0V230.6l-15.841-.009-5.477-3.159a5.449,5.449,0,0,0-4.9.2l-5.107,2.948-15.854-.009v7.266a1.423,1.423,0,0,0,.842,1.313l20.472,11.822a5.45,5.45,0,0,0,4.9-.2l19.767-11.412c.837-.485,1.243-1.11,1.194-1.692Z" transform="translate(-245.073 -216.97)" fill="#396caa"/>
          <path id="Trazado_115690" data-name="Trazado 115690" d="M268.683,226.94a5.679,5.679,0,0,0-2.626.687l-5.107,2.948-15.854-.009v7.266a1.423,1.423,0,0,0,.842,1.313l20.472,11.822a4.423,4.423,0,0,0,2.274.485Z" transform="translate(-245.084 -216.971)" fill="#396caa"/>
          <path id="Trazado_115691" data-name="Trazado 115691" d="M246.88,235.18h-1.793v7.266a1.423,1.423,0,0,0,.842,1.313l.952.551v-9.126Z" transform="translate(-245.079 -221.581)" fill="#5793ce"/>
          <path id="Trazado_115692" data-name="Trazado 115692" d="M294.18,271.293a5.582,5.582,0,0,0,3.917-.044V263H294.18Z" transform="translate(-272.542 -237.142)" fill="#5793ce"/>
          <path id="Trazado_115693" data-name="Trazado 115693" d="M266.4,231.074l-20.472-11.822c-1.256-.727-1.1-1.992.353-2.829l19.767-11.412a5.449,5.449,0,0,1,4.9-.2L291.42,216.63c1.256.727,1.1,1.992-.353,2.829L271.3,230.871A5.449,5.449,0,0,1,266.4,231.074Z" transform="translate(-245.075 -204.317)" fill="#d4ecff"/>
          <path id="Trazado_115694" data-name="Trazado 115694" d="M291.067,234.4,271.3,245.814a5.449,5.449,0,0,1-4.9.2l-20.472-11.822a1.906,1.906,0,0,1-.626-.555,1.317,1.317,0,0,0,.626,1.948L266.4,247.409a5.45,5.45,0,0,0,4.9-.2l19.767-11.412c1.128-.652,1.472-1.56.978-2.274a2.774,2.774,0,0,1-.978.886Z" transform="translate(-245.075 -220.652)" fill="#fff"/>
          <g id="Grupo_111992" data-name="Grupo 111992" transform="translate(37.999 18.893)">
            <path id="Trazado_115695" data-name="Trazado 115695" d="M332.967,254.752a1.824,1.824,0,0,1-.828,1.432c-.458.264-.828.048-.828-.476a1.83,1.83,0,0,1,.828-1.432C332.6,254.012,332.967,254.228,332.967,254.752Z" transform="translate(-331.31 -251.092)" fill="#d4ecff"/>
            <path id="Trazado_115696" data-name="Trazado 115696" d="M339.007,251.262a1.824,1.824,0,0,1-.828,1.432c-.458.264-.828.048-.828-.476a1.831,1.831,0,0,1,.828-1.432C338.637,250.522,339.007,250.738,339.007,251.262Z" transform="translate(-334.689 -249.14)" fill="#d4ecff"/>
            <path id="Trazado_115697" data-name="Trazado 115697" d="M345.047,247.782a1.824,1.824,0,0,1-.828,1.432c-.458.264-.828.048-.828-.476a1.83,1.83,0,0,1,.828-1.432C344.677,247.042,345.047,247.258,345.047,247.782Z" transform="translate(-338.067 -247.193)" fill="#d4ecff"/>
          </g>
          <g id="Grupo_111993" data-name="Grupo 111993" transform="translate(12.555 6.907)">
            <path id="Trazado_115698" data-name="Trazado 115698" d="M283.546,232.514l-9.579-5.53c-.586-.339-.516-.934.163-1.326l9.249-5.34a2.554,2.554,0,0,1,2.3-.1l9.579,5.53c.586.339.516.934-.163,1.326l-9.249,5.341A2.554,2.554,0,0,1,283.546,232.514Z" transform="translate(-273.568 -219.992)" fill="#5793ce"/>
            <path id="Trazado_115699" data-name="Trazado 115699" d="M296.538,235.695l-1.326-.767c-.079-.048-.071-.128.022-.185l1.278-.74a.352.352,0,0,1,.317-.013l1.326.767c.079.048.071.128-.022.185l-1.278.74A.352.352,0,0,1,296.538,235.695Z" transform="translate(-285.643 -227.804)" fill="#d4ecff"/>
            <path id="Trazado_115700" data-name="Trazado 115700" d="M273.964,227l.026.018a1.5,1.5,0,0,1,.137-.093l9.249-5.34a2.554,2.554,0,0,1,2.3-.1L295.225,227c.542-.388.568-.917.026-1.229l-9.579-5.53a2.554,2.554,0,0,0-2.3.1l-9.249,5.341c-.679.392-.753.987-.163,1.326Z" transform="translate(-273.566 -220.003)" fill="#396caa"/>
          </g>
        </g>
      </g>
      <g id="Grupo_112003" data-name="Grupo 112003" transform="translate(415.546 525.699)">
        <path id="Trazado_115701" data-name="Trazado 115701" d="M46.572,130.719,29.85,121.065c-1.027-.59-.9-1.626.286-2.313l16.145-9.319a4.464,4.464,0,0,1,4.005-.167l16.722,9.654c1.027.59.9,1.626-.286,2.313l-16.145,9.319A4.464,4.464,0,0,1,46.572,130.719Z" transform="translate(-24.296 -67.317)" fill="#c4d9e8" opacity="0.5"/>
        <g id="Grupo_111997" data-name="Grupo 111997" transform="translate(0.001 23.094)">
          <path id="Trazado_115702" data-name="Trazado 115702" d="M66.39,101.065h0V93.839l-16.2-.009-5.6-3.234a5.585,5.585,0,0,0-5.014.207l-5.226,3.014-16.215-.009v7.429A1.456,1.456,0,0,0,19,102.581l20.939,12.087a5.585,5.585,0,0,0,5.014-.207l20.216-11.672a1.984,1.984,0,0,0,1.221-1.732Z" transform="translate(-18.132 -79.911)" fill="#396caa"/>
          <path id="Trazado_115703" data-name="Trazado 115703" d="M42.265,90.1a5.782,5.782,0,0,0-2.688.705l-5.226,3.014-16.215-.009v7.429A1.456,1.456,0,0,0,19,102.588l20.939,12.087a4.527,4.527,0,0,0,2.327.5V90.1Z" transform="translate(-18.132 -79.913)" fill="#396caa"/>
          <path id="Trazado_115704" data-name="Trazado 115704" d="M19.979,98.54H18.146v7.429a1.456,1.456,0,0,0,.859,1.344l.974.564V98.544Z" transform="translate(-18.137 -84.634)" fill="#5793ce"/>
          <path id="Trazado_115705" data-name="Trazado 115705" d="M68.35,135.472a5.716,5.716,0,0,0,4.01-.044V126.99H68.35Z" transform="translate(-46.221 -100.548)" fill="#5793ce"/>
          <path id="Trazado_115706" data-name="Trazado 115706" d="M39.937,94.344,19,82.258c-1.287-.74-1.124-2.036.361-2.895L39.576,67.69a5.571,5.571,0,0,1,5.014-.207L65.529,79.57c1.287.74,1.124,2.036-.361,2.895L44.952,94.137A5.571,5.571,0,0,1,39.937,94.344Z" transform="translate(-18.13 -66.981)" fill="#d4ecff"/>
          <path id="Trazado_115707" data-name="Trazado 115707" d="M45.283,95.031,27.737,84.9c-1.075-.621-.943-1.71.3-2.424l16.942-9.782a4.666,4.666,0,0,1,4.2-.176l17.546,10.13c1.075.621.943,1.71-.3,2.424L49.483,94.854a4.666,4.666,0,0,1-4.2.176Z" transform="translate(-23.097 -69.844)" fill="#5793ce"/>
          <g id="Grupo_111996" data-name="Grupo 111996" transform="translate(38.864 19.316)">
            <path id="Trazado_115708" data-name="Trazado 115708" d="M108.022,118.553a1.868,1.868,0,0,1-.846,1.463c-.467.269-.846.053-.846-.489a1.861,1.861,0,0,1,.846-1.463C107.643,117.795,108.022,118.011,108.022,118.553Z" transform="translate(-106.33 -114.806)" fill="#d4ecff"/>
            <path id="Trazado_115709" data-name="Trazado 115709" d="M114.2,114.983a1.868,1.868,0,0,1-.846,1.463c-.467.269-.846.053-.846-.489a1.861,1.861,0,0,1,.846-1.463C113.823,114.225,114.2,114.441,114.2,114.983Z" transform="translate(-109.787 -112.809)" fill="#d4ecff"/>
            <path id="Trazado_115710" data-name="Trazado 115710" d="M120.372,111.423a1.868,1.868,0,0,1-.846,1.463c-.467.269-.846.053-.846-.489a1.861,1.861,0,0,1,.846-1.463C119.993,110.665,120.372,110.881,120.372,111.423Z" transform="translate(-113.238 -110.818)" fill="#d4ecff"/>
          </g>
        </g>
        <g id="Grupo_111999" data-name="Grupo 111999" transform="translate(0.001 11.549)">
          <path id="Trazado_115711" data-name="Trazado 115711" d="M66.39,74.865h0V67.639l-16.2-.009-5.6-3.234a5.585,5.585,0,0,0-5.014.207l-5.226,3.014-16.215-.009v7.429A1.456,1.456,0,0,0,19,76.381L39.935,88.467a5.585,5.585,0,0,0,5.014-.207L65.165,76.588a1.984,1.984,0,0,0,1.221-1.732Z" transform="translate(-18.132 -53.711)" fill="#396caa"/>
          <path id="Trazado_115712" data-name="Trazado 115712" d="M42.265,63.91a5.782,5.782,0,0,0-2.688.705l-5.226,3.014L18.136,67.62v7.429A1.456,1.456,0,0,0,19,76.393L39.935,88.48a4.527,4.527,0,0,0,2.327.5V63.91Z" transform="translate(-18.132 -53.719)" fill="#396caa"/>
          <path id="Trazado_115713" data-name="Trazado 115713" d="M19.979,72.34H18.146v7.429a1.456,1.456,0,0,0,.859,1.344l.974.564V72.344Z" transform="translate(-18.137 -58.434)" fill="#5793ce"/>
          <path id="Trazado_115714" data-name="Trazado 115714" d="M68.35,109.272a5.716,5.716,0,0,0,4.01-.044V100.79H68.35Z" transform="translate(-46.221 -74.348)" fill="#5793ce"/>
          <path id="Trazado_115715" data-name="Trazado 115715" d="M39.937,68.144,19,56.058c-1.287-.74-1.124-2.036.361-2.895L39.576,41.49a5.571,5.571,0,0,1,5.014-.207L65.529,53.37c1.287.74,1.124,2.036-.361,2.895L44.952,67.937A5.571,5.571,0,0,1,39.937,68.144Z" transform="translate(-18.13 -40.781)" fill="#d4ecff"/>
          <path id="Trazado_115716" data-name="Trazado 115716" d="M45.283,68.831,27.737,58.7c-1.075-.621-.943-1.71.3-2.424l16.942-9.782a4.666,4.666,0,0,1,4.2-.176l17.546,10.13c1.075.621.943,1.71-.3,2.424L49.483,68.654a4.666,4.666,0,0,1-4.2.176Z" transform="translate(-23.097 -43.644)" fill="#5793ce"/>
          <g id="Grupo_111998" data-name="Grupo 111998" transform="translate(38.864 19.316)">
            <path id="Trazado_115717" data-name="Trazado 115717" d="M108.022,92.353a1.868,1.868,0,0,1-.846,1.463c-.467.269-.846.053-.846-.489a1.861,1.861,0,0,1,.846-1.463C107.643,91.595,108.022,91.811,108.022,92.353Z" transform="translate(-106.33 -88.606)" fill="#d4ecff"/>
            <path id="Trazado_115718" data-name="Trazado 115718" d="M114.2,88.783a1.868,1.868,0,0,1-.846,1.463c-.467.269-.846.053-.846-.489a1.861,1.861,0,0,1,.846-1.463C113.823,88.025,114.2,88.241,114.2,88.783Z" transform="translate(-109.787 -86.609)" fill="#d4ecff"/>
            <path id="Trazado_115719" data-name="Trazado 115719" d="M120.372,85.223a1.868,1.868,0,0,1-.846,1.463c-.467.269-.846.053-.846-.489a1.861,1.861,0,0,1,.846-1.463C119.993,84.465,120.372,84.681,120.372,85.223Z" transform="translate(-113.238 -84.618)" fill="#d4ecff"/>
          </g>
        </g>
        <g id="Grupo_112002" data-name="Grupo 112002">
          <path id="Trazado_115720" data-name="Trazado 115720" d="M66.39,48.665h0V41.439l-16.2-.009-5.6-3.234a5.585,5.585,0,0,0-5.014.207l-5.226,3.018-16.215-.009v7.429A1.456,1.456,0,0,0,19,50.185L39.935,62.272a5.585,5.585,0,0,0,5.014-.207L65.165,50.392a1.984,1.984,0,0,0,1.221-1.732Z" transform="translate(-18.131 -27.506)" fill="#396caa"/>
          <path id="Trazado_115721" data-name="Trazado 115721" d="M42.265,37.71a5.782,5.782,0,0,0-2.688.705l-5.226,3.018-16.215-.009v7.429A1.456,1.456,0,0,0,19,50.2L39.935,62.284a4.527,4.527,0,0,0,2.327.5V37.71Z" transform="translate(-18.131 -27.514)" fill="#396caa"/>
          <path id="Trazado_115722" data-name="Trazado 115722" d="M19.979,46.14H18.146v7.429a1.456,1.456,0,0,0,.859,1.344l.974.564V46.144Z" transform="translate(-18.136 -32.23)" fill="#5793ce"/>
          <path id="Trazado_115723" data-name="Trazado 115723" d="M68.35,83.072a5.716,5.716,0,0,0,4.01-.044V74.59H68.35Z" transform="translate(-46.22 -48.144)" fill="#5793ce"/>
          <path id="Trazado_115724" data-name="Trazado 115724" d="M39.937,41.939,19,29.848c-1.287-.74-1.124-2.036.361-2.895L39.576,15.28a5.571,5.571,0,0,1,5.014-.207L65.529,27.16c1.287.74,1.124,2.036-.361,2.895L44.952,41.727a5.571,5.571,0,0,1-5.014.207Z" transform="translate(-18.129 -14.571)" fill="#d4ecff"/>
          <path id="Trazado_115725" data-name="Trazado 115725" d="M65.166,45.343,44.95,57.016a5.571,5.571,0,0,1-5.014.207L19,45.136a2.01,2.01,0,0,1-.643-.568A1.347,1.347,0,0,0,19,46.559L39.936,58.646a5.585,5.585,0,0,0,5.014-.207L65.166,46.767c1.154-.665,1.5-1.6,1-2.327A2.814,2.814,0,0,1,65.166,45.343Z" transform="translate(-18.127 -31.279)" fill="#fff"/>
          <g id="Grupo_112000" data-name="Grupo 112000" transform="translate(38.865 19.32)">
            <path id="Trazado_115726" data-name="Trazado 115726" d="M108.022,66.153a1.868,1.868,0,0,1-.846,1.463c-.467.269-.846.053-.846-.489a1.861,1.861,0,0,1,.846-1.463C107.643,65.395,108.022,65.611,108.022,66.153Z" transform="translate(-106.33 -62.406)" fill="#d4ecff"/>
            <path id="Trazado_115727" data-name="Trazado 115727" d="M114.2,62.583a1.868,1.868,0,0,1-.846,1.463c-.467.269-.846.053-.846-.489a1.861,1.861,0,0,1,.846-1.463C113.823,61.825,114.2,62.041,114.2,62.583Z" transform="translate(-109.787 -60.409)" fill="#d4ecff"/>
            <path id="Trazado_115728" data-name="Trazado 115728" d="M120.372,59.023a1.868,1.868,0,0,1-.846,1.463c-.467.269-.846.053-.846-.489a1.861,1.861,0,0,1,.846-1.463C119.993,58.265,120.372,58.481,120.372,59.023Z" transform="translate(-113.238 -58.418)" fill="#d4ecff"/>
          </g>
          <g id="Grupo_112001" data-name="Grupo 112001" transform="translate(12.834 7.066)">
            <path id="Trazado_115729" data-name="Trazado 115729" d="M57.476,43.413l-9.8-5.658c-.6-.348-.524-.952.167-1.353l9.46-5.464a2.6,2.6,0,0,1,2.344-.1l9.8,5.658c.6.348.524.952-.167,1.353l-9.46,5.464A2.6,2.6,0,0,1,57.476,43.413Z" transform="translate(-47.264 -30.607)" fill="#5793ce"/>
            <path id="Trazado_115730" data-name="Trazado 115730" d="M70.765,46.663l-1.357-.784c-.084-.048-.075-.132.022-.189l1.309-.758a.357.357,0,0,1,.326-.013l1.357.784c.084.048.075.132-.022.189l-1.309.758A.357.357,0,0,1,70.765,46.663Z" transform="translate(-59.614 -38.593)" fill="#d4ecff"/>
            <path id="Trazado_115731" data-name="Trazado 115731" d="M47.667,37.755l.026.018c.044-.031.088-.066.141-.1l9.46-5.464a2.6,2.6,0,0,1,2.344-.1l9.769,5.64c.555-.4.582-.939.026-1.256l-9.8-5.658a2.6,2.6,0,0,0-2.344.1L47.83,36.4c-.7.4-.771,1.009-.167,1.353Z" transform="translate(-47.254 -30.607)" fill="#396caa"/>
          </g>
        </g>
      </g>
      <g id="Grupo_112008" data-name="Grupo 112008" transform="translate(504.125 577.543)">
        <g id="Grupo_112005" data-name="Grupo 112005" transform="translate(1.527)">
          <path id="Trazado_115732" data-name="Trazado 115732" d="M246.285,322.705s-2.023-1.018-3.265.5-3.018,5.1-3.071,7.526,1.917,2.26,3.089,1.683,4.6-5.539,4.8-6.513a3.378,3.378,0,0,0-.573-2.547C246.937,323.1,246.285,322.705,246.285,322.705Z" transform="translate(-232.31 -238.588)" fill="#173d7a"/>
          <path id="Trazado_115733" data-name="Trazado 115733" d="M250.472,321.411l.093,2.093a1.181,1.181,0,0,1-.59,1.088,2.353,2.353,0,0,1-1.56.242c-1.525-.247-1.661-.679-1.767-2.776s3.825-.652,3.825-.652Z" transform="translate(-236.056 -237.778)" fill="#e8a200"/>
          <g id="Grupo_112004" data-name="Grupo 112004" transform="translate(0 37.161)">
            <path id="Trazado_115734" data-name="Trazado 115734" d="M229.485,313.565s-2.023-1.018-3.265.5-3.018,5.1-3.071,7.526,1.917,2.26,3.089,1.683,4.6-5.539,4.8-6.513a3.378,3.378,0,0,0-.573-2.547c-.33-.256-.983-.648-.983-.648Z" transform="translate(-222.913 -270.636)" fill="#173d7a"/>
            <path id="Trazado_115735" data-name="Trazado 115735" d="M233.672,312.271l.093,2.093a1.181,1.181,0,0,1-.59,1.088,2.353,2.353,0,0,1-1.56.242c-1.525-.247-1.661-.679-1.767-2.776s3.825-.652,3.825-.652Z" transform="translate(-226.659 -269.826)" fill="#e8a200"/>
            <path id="Trazado_115736" data-name="Trazado 115736" d="M247.672,220.551c-.6-9.738-10.544,1.432-10.544,1.432l-6.808,6.671-6.129,6.733a6.045,6.045,0,0,0-1.525,4.856l2.481,18.881a1.854,1.854,0,0,0,1.859,1.613,6.181,6.181,0,0,0,.917-.079,2.308,2.308,0,0,0,2.049-2.45l-.454-17.661,12.875-7.76s5.874-2.5,5.274-12.241Z" transform="translate(-222.615 -216.565)" fill="#084a93"/>
          </g>
          <path id="Trazado_115737" data-name="Trazado 115737" d="M264.462,228.971c-.6-9.738-10.544,1.432-10.544,1.432l-6.808,6.671-6.129,6.733a6.045,6.045,0,0,0-1.525,4.856l2.481,18.881a1.854,1.854,0,0,0,1.859,1.613,6.181,6.181,0,0,0,.917-.079,2.308,2.308,0,0,0,2.049-2.45l-.454-17.661,12.875-7.76s5.874-2.5,5.274-12.241Z" transform="translate(-232.007 -184.114)" fill="#084a93"/>
          <path id="Trazado_115738" data-name="Trazado 115738" d="M264.45,161.718c7.539,3.129,7.389,7.583,7.389,7.583s-1.476,16.343-.974,27.258c.212,4.561-24.239,4.909-20.6-7.262,4.3-14.352,2.688-25.971,4.7-27.72s7.526-.665,9.478.145Z" transform="translate(-237.877 -148.12)" fill="#ffb30b"/>
          <path id="Trazado_115739" data-name="Trazado 115739" d="M278.77,167.1c-.4,1.529-2.4,2.34-4.481,1.8s-3.446-2.212-3.054-3.741,2.4-2.34,4.481-1.8S279.162,165.571,278.77,167.1Z" transform="translate(-249.774 -149.55)" fill="#ffc2b0"/>
          <path id="Trazado_115740" data-name="Trazado 115740" d="M275.12,168.977a5.473,5.473,0,0,1-1.375-.176c-2.269-.586-3.754-2.459-3.314-4.182s2.653-2.648,4.918-2.062a5.013,5.013,0,0,1,2.644,1.617,2.726,2.726,0,0,1-1.159,4.481,4.6,4.6,0,0,1-1.718.317Zm-1.15-5.878a2.734,2.734,0,0,0-2.842,1.7c-.344,1.335.908,2.816,2.794,3.3a4.3,4.3,0,0,0,2.648-.11,2.178,2.178,0,0,0,1.392-1.432h0a2.174,2.174,0,0,0-.529-1.926,4.273,4.273,0,0,0-2.265-1.375,4.818,4.818,0,0,0-1.2-.154Z" transform="translate(-249.319 -149.095)" fill="#fff"/>
          <path id="Trazado_115741" data-name="Trazado 115741" d="M275.976,160.411a18.336,18.336,0,0,1-.066,2.692c-.04.749,2.591,1.454,3.27.771s.41-1.388.573-3.944S275.976,160.411,275.976,160.411Z" transform="translate(-252.426 -147.152)" fill="#ffc2b0"/>
          <path id="Trazado_115742" data-name="Trazado 115742" d="M279.742,161.24a5.3,5.3,0,0,1-3.842,3.278l.048-2.155,3.794-1.124Z" transform="translate(-252.421 -148.457)" fill="#ea9c92"/>
          <path id="Trazado_115743" data-name="Trazado 115743" d="M274.7,142.042a5.8,5.8,0,1,1-7.072-4.168A5.8,5.8,0,0,1,274.7,142.042Z" transform="translate(-245.36 -135.283)" fill="#ffc2b0"/>
          <path id="Trazado_115744" data-name="Trazado 115744" d="M270.377,149.571a17.89,17.89,0,0,1-5.407,1.384c-2.212.013-1.727-1.837-1.727-1.837l6.57-.947Z" transform="translate(-245.316 -141.146)" fill="#ea9c92"/>
          <path id="Trazado_115745" data-name="Trazado 115745" d="M261.087,141.016a10.367,10.367,0,0,1,5.226-.687,2.561,2.561,0,0,1,1.476.877.858.858,0,0,0,.445.322c.432.1,1.141-1.7,1.983-1.741s1.406.555.714,1.661-.458,2.34-.141,2.52,3.688-2.4.714-8.288-10.518-2.714-11.694-1.525c0,0-1.238,1.08-2.243.119,0,0-1.128,8.443,3.512,6.742Z" transform="translate(-242.098 -132.23)" fill="#084a93"/>
          <path id="Trazado_115746" data-name="Trazado 115746" d="M277.829,204.206v4.415a1.8,1.8,0,0,1-.586,1.331l-9.073,8.271L269.2,219.8l11.981-8.689a2.43,2.43,0,0,0,.991-1.718l.811-7.7-5.155,2.516Z" transform="translate(-248.097 -171.083)" fill="#ffc2b0"/>
          <path id="Trazado_115747" data-name="Trazado 115747" d="M292.842,175.29s2.754,4.138,3.776,15.035c0,0-4.7,1.52-7.367.657S292.842,175.29,292.842,175.29Z" transform="translate(-259.519 -156.316)" fill="#ffb30b"/>
          <path id="Trazado_115748" data-name="Trazado 115748" d="M287.506,187.17a75.967,75.967,0,0,0-1.137,8.478,1.725,1.725,0,0,0,1.137,1.67h0Z" transform="translate(-258.277 -162.962)" fill="#ed7d2b"/>
        </g>
        <g id="Grupo_112006" data-name="Grupo 112006" transform="translate(1.452 43.838)">
          <path id="Trazado_115749" data-name="Trazado 115749" d="M249.4,242.212l-2-.264-12.941-7.473a1.8,1.8,0,0,0-1.617.066l-9.17,5.292-1.212-.159v1.207h0a.468.468,0,0,0,.278.423l14.669,8.469a1.8,1.8,0,0,0,1.617-.066l9.989-5.764a.653.653,0,0,0,.4-.546h0v-1.185Z" transform="translate(-222.453 -233.17)" fill="#173d7a"/>
          <path id="Trazado_115750" data-name="Trazado 115750" d="M239.674,240.849l-.921-.529H228.645l-4.984,2.877-1.212-.159v1.207h0a.468.468,0,0,0,.278.423l14.669,8.469a1.537,1.537,0,0,0,.837.159l1.441-12.439Z" transform="translate(-222.447 -236.53)" fill="#396caa"/>
          <path id="Trazado_115751" data-name="Trazado 115751" d="M222.987,246.55l-.538-.07v1.207h0a.468.468,0,0,0,.278.423l.26.15Z" transform="translate(-222.447 -239.976)" fill="#5793ce"/>
          <path id="Trazado_115752" data-name="Trazado 115752" d="M256.7,266.847a1.892,1.892,0,0,0,1.375-.084V264.71H256.7Z" transform="translate(-241.606 -250.173)" fill="#274f89"/>
          <path id="Trazado_115753" data-name="Trazado 115753" d="M237.394,247.115l-14.669-8.469c-.414-.238-.361-.657.115-.934l9.989-5.764a1.784,1.784,0,0,1,1.617-.066l14.669,8.469c.414.238.361.657-.115.934l-9.989,5.764a1.784,1.784,0,0,1-1.617.066Z" transform="translate(-222.446 -231.719)" fill="#fff"/>
          <path id="Trazado_115754" data-name="Trazado 115754" d="M240.033,249.765l-12.2-7.041c-.344-.2-.3-.546.1-.776l5.354-3.01a1.5,1.5,0,0,1,1.344-.057l12.2,7.041c.344.2.3.546-.1.776l-5.354,3.01A1.5,1.5,0,0,1,240.033,249.765Z" transform="translate(-225.331 -235.65)" fill="#d4ecff"/>
        </g>
        <path id="Trazado_115755" data-name="Trazado 115755" d="M247.006,230.97l-.15,1.013a7.551,7.551,0,0,0,.066,2.6l.181.89a1.255,1.255,0,0,0,1,.987h0a.694.694,0,0,0,.811-.6l.242-2.164s.555.727.82.727-.3-2.168-.9-3.393-2.071-.048-2.071-.048Z" transform="translate(-234.602 -187.179)" fill="#ffc2b0"/>
        <path id="Trazado_115756" data-name="Trazado 115756" d="M251.06,191.239l-1.573,3.115a6.149,6.149,0,0,0-.643,2.366l-.683,10.655-2.071-.048-.939-11.963a4.229,4.229,0,0,1,.053-1.106l1.075-6.068,4.785,3.054Z" transform="translate(-233.686 -163.532)" fill="#ffc2b0"/>
        <g id="Grupo_112007" data-name="Grupo 112007" transform="translate(0 37.496)">
          <path id="Trazado_115757" data-name="Trazado 115757" d="M235.383,239.885l-1.229-1.6-12.933-7.486a1.8,1.8,0,0,1-.749-1.436l.013-10.589-.745-.969.7-.405h0a.474.474,0,0,1,.507.031l14.656,8.487a1.8,1.8,0,0,1,.749,1.436l-.013,11.531a.655.655,0,0,1-.273.617h0l-.683.4Z" transform="translate(-219.48 -217.331)" fill="#173d7a"/>
          <path id="Trazado_115758" data-name="Trazado 115758" d="M226.426,233.807l-.921-.533-5.045-8.76v-5.755l-.74-.969.7-.405h0a.474.474,0,0,1,.507.031l14.656,8.487a1.5,1.5,0,0,1,.551.648l-9.716,7.262Z" transform="translate(-219.469 -217.325)" fill="#396caa"/>
          <path id="Trazado_115759" data-name="Trazado 115759" d="M220.07,218.222l-.33-.432.7-.405h0a.474.474,0,0,1,.507.031l.26.15-1.137.657Z" transform="translate(-219.48 -217.325)" fill="#5793ce"/>
          <path id="Trazado_115760" data-name="Trazado 115760" d="M254.127,237a1.878,1.878,0,0,1,.612,1.234l-1.432.828-.687-1.194Z" transform="translate(-237.872 -228.331)" fill="#274f89"/>
          <path id="Trazado_115761" data-name="Trazado 115761" d="M234.572,226.823l-14.656-8.487c-.414-.238-.749.013-.753.568l-.013,11.531a1.8,1.8,0,0,0,.749,1.436l14.656,8.487c.414.238.749-.013.753-.568l.013-11.531a1.8,1.8,0,0,0-.749-1.436Z" transform="translate(-219.15 -217.841)" fill="#fff"/>
        </g>
        <path id="Trazado_115762" data-name="Trazado 115762" d="M264.383,240.777l-.234.485a3.254,3.254,0,0,1-1.225,1.357l-1.454.9a1.448,1.448,0,0,1-1.485.035.182.182,0,0,1-.048-.031.876.876,0,0,1-.123-1.344l1.52-1.564s-.855.657-1.093.392c-.176-.194.828-1.137,1.6-1.168a3.029,3.029,0,0,0,1.516-.639l1.031,1.577Z" transform="translate(-241.752 -192.065)" fill="#ffc2b0"/>
        <path id="Trazado_115763" data-name="Trazado 115763" d="M251.816,162.71s-5.578,6.068-7.826,11.637a11.389,11.389,0,0,0,6.574,4.785c4.666,1.348,1.251-16.418,1.251-16.418Z" transform="translate(-233.045 -149.279)" fill="#ffb30b"/>
        <path id="Trazado_115764" data-name="Trazado 115764" d="M254.975,188.073l.9-8.733-2.128,8.183A11.656,11.656,0,0,0,254.975,188.073Z" transform="translate(-238.504 -158.582)" fill="#ed7d2b"/>
        <path id="Trazado_115765" data-name="Trazado 115765" d="M269.328,159.41l-1.5-.41a3.63,3.63,0,0,0,1.758,1.414c1.044.286,1.207-.6,1.207-.6Z" transform="translate(-246.38 -147.204)" fill="#fff"/>
      </g>
    </g>
  </g>
</svg>
