<svg xmlns="http://www.w3.org/2000/svg" xmlns:xlink="http://www.w3.org/1999/xlink" width="176.293" height="182.584" viewBox="0 0 176.293 182.584">
  <defs>
    <clipPath id="clip-path">
      <circle id="Elipse_4785" data-name="Elipse 4785" cx="75.415" cy="75.415" r="75.415" fill="none"/>
    </clipPath>
  </defs>
  <g id="Grupo_131834" data-name="Grupo 131834" transform="translate(-1024 -495.246)">
    <g id="Grupo_131794" data-name="Grupo 131794" transform="translate(0 -24)">
      <g id="Grupo_131775" data-name="Grupo 131775" transform="translate(1033.92 539.731)">
        <g id="Trazado_187974" data-name="Trazado 187974" transform="translate(0.08 0.269)" fill="#f3f9ff">
          <path d="M 75.91510009765625 156.8302001953125 C 70.42838287353516 156.8302001953125 64.94362640380859 156.2771301269531 59.61319351196289 155.1863555908203 C 54.41567230224609 154.1227874755859 49.30319595336914 152.5357971191406 44.41776657104492 150.4694366455078 C 39.62214660644531 148.4410552978516 34.99712371826172 145.9307403564453 30.67121887207031 143.0081939697266 C 26.3876953125 140.1143188476562 22.35981369018555 136.7910461425781 18.69948196411133 133.1307220458984 C 15.03914737701416 129.4703826904297 11.71588611602783 125.4425048828125 8.822005271911621 121.1589813232422 C 5.899457454681396 116.8330764770508 3.389147758483887 112.2080535888672 1.360766768455505 107.4124298095703 C -0.7055903673171997 102.5270080566406 -2.292590379714966 97.41452789306641 -3.356161832809448 92.21700286865234 C -4.446923732757568 86.88657379150391 -4.999995231628418 81.40181732177734 -4.999995231628418 75.91510009765625 C -4.999995231628418 70.42838287353516 -4.446923732757568 64.94362640380859 -3.356161832809448 59.61319351196289 C -2.292590379714966 54.41567230224609 -0.7055903673171997 49.30319595336914 1.360766768455505 44.41776657104492 C 3.389147758483887 39.62214660644531 5.899457454681396 34.99712371826172 8.822005271911621 30.67121887207031 C 11.71588611602783 26.3876953125 15.03914737701416 22.35981369018555 18.69948196411133 18.69948196411133 C 22.35981369018555 15.03914737701416 26.3876953125 11.71588611602783 30.67121887207031 8.822005271911621 C 34.99712371826172 5.899457454681396 39.62214660644531 3.389147758483887 44.41776657104492 1.360766768455505 C 49.30319595336914 -0.7055903673171997 54.41567230224609 -2.292590379714966 59.61319351196289 -3.356161832809448 C 64.94362640380859 -4.446923732757568 70.42838287353516 -4.999995231628418 75.91510009765625 -4.999995231628418 C 81.40181732177734 -4.999995231628418 86.88657379150391 -4.446923732757568 92.21700286865234 -3.356161832809448 C 97.41452789306641 -2.292590379714966 102.5270080566406 -0.7055903673171997 107.4124298095703 1.360766768455505 C 112.2080535888672 3.389147758483887 116.8330764770508 5.899457454681396 121.1589813232422 8.822005271911621 C 125.4425048828125 11.71588611602783 129.4703826904297 15.03914737701416 133.1307220458984 18.69948196411133 C 136.7910461425781 22.35981369018555 140.1143188476562 26.3876953125 143.0081939697266 30.67121887207031 C 145.9307403564453 34.99712371826172 148.4410552978516 39.62214660644531 150.4694366455078 44.41776657104492 C 152.5357971191406 49.30319595336914 154.1227874755859 54.41567230224609 155.1863555908203 59.61319351196289 C 156.2771301269531 64.94362640380859 156.8302001953125 70.42838287353516 156.8302001953125 75.91510009765625 C 156.8302001953125 81.40181732177734 156.2771301269531 86.88657379150391 155.1863555908203 92.21700286865234 C 154.1227874755859 97.41452789306641 152.5357971191406 102.5270080566406 150.4694366455078 107.4124298095703 C 148.4410552978516 112.2080535888672 145.9307403564453 116.8330764770508 143.0081939697266 121.1589813232422 C 140.1143188476562 125.4425048828125 136.7910461425781 129.4703826904297 133.1307220458984 133.1307220458984 C 129.4703826904297 136.7910461425781 125.4425048828125 140.1143188476562 121.1589813232422 143.0081939697266 C 116.8330764770508 145.9307403564453 112.2080535888672 148.4410552978516 107.4124298095703 150.4694366455078 C 102.5270080566406 152.5357971191406 97.41452789306641 154.1227874755859 92.21700286865234 155.1863555908203 C 86.88657379150391 156.2771301269531 81.40181732177734 156.8302001953125 75.91510009765625 156.8302001953125 Z" stroke="none"/>
          <path d="M 75.91510009765625 -1.52587890625e-05 C 33.98833465576172 -1.52587890625e-05 -1.52587890625e-05 33.98833465576172 -1.52587890625e-05 75.91510009765625 C -1.52587890625e-05 117.8418350219727 33.98833465576172 151.8301849365234 75.91510009765625 151.8301849365234 C 117.8418350219727 151.8301849365234 151.8301849365234 117.8418350219727 151.8301849365234 75.91510009765625 C 151.8301849365234 33.98833465576172 117.8418350219727 -1.52587890625e-05 75.91510009765625 -1.52587890625e-05 M 75.91510009765625 -10.00001525878906 C 123.2888336181641 -10.00001525878906 161.8301849365234 28.54133605957031 161.8301849365234 75.91510009765625 C 161.8301849365234 123.2888336181641 123.2888336181641 161.8301849365234 75.91510009765625 161.8301849365234 C 28.54133605957031 161.8301849365234 -10.00001525878906 123.2888336181641 -10.00001525878906 75.91510009765625 C -10.00001525878906 28.54133605957031 28.54133605957031 -10.00001525878906 75.91510009765625 -10.00001525878906 Z" stroke="none" fill="#fdb32b"/>
        </g>
      </g>
      <g id="Grupo_131793" data-name="Grupo 131793" transform="translate(1035 540.17)" clip-path="url(#clip-path)">
        <circle id="Elipse_4783" data-name="Elipse 4783" cx="105.329" cy="105.329" r="105.329" transform="translate(-23.883 -33.711)" fill="#ebf3fa"/>
        <g id="Grupo_131792" data-name="Grupo 131792" transform="translate(5.028 38.083)">
          <g id="Grupo_131778" data-name="Grupo 131778" transform="translate(103.943)" opacity="0.5">
            <g id="Grupo_131776" data-name="Grupo 131776" transform="translate(0 1.021)" opacity="0.5">
              <path id="Trazado_191618" data-name="Trazado 191618" d="M265.189,137.27s-1.975-15.649,3.548-26.66a1.75,1.75,0,0,1,3.267.407c0,.026.013.053.018.079.574,2.737-5.291,16.345-6.837,26.169Z" transform="translate(-264.846 -109.652)" fill="#aec3ff"/>
            </g>
            <g id="Grupo_131777" data-name="Grupo 131777" transform="translate(0.479)" opacity="0.5">
              <path id="Trazado_191619" data-name="Trazado 191619" d="M265.94,140.546s3.022-20.927,14.182-32.634a1.856,1.856,0,0,1,2.558-.149,2.944,2.944,0,0,1,.758,2.54C283.214,113.908,271.24,128.838,265.94,140.546Z" transform="translate(-265.94 -107.321)" fill="#aec3ff"/>
            </g>
          </g>
          <g id="Grupo_131791" data-name="Grupo 131791" transform="translate(0 4.66)" opacity="0.4">
            <g id="Grupo_131780" data-name="Grupo 131780" transform="translate(3.386 4.152)">
              <rect id="Rectángulo_293719" data-name="Rectángulo 293719" width="8.729" height="29.971" rx="2.41" transform="translate(8.729 29.971) rotate(180)" fill="#8c9df4"/>
              <path id="Trazado_191620" data-name="Trazado 191620" d="M44.641,178.485a2.045,2.045,0,1,0-2.045,2.045A2.045,2.045,0,0,0,44.641,178.485Z" transform="translate(-38.229 -154.979)" fill="#505aba"/>
              <path id="Trazado_191621" data-name="Trazado 191621" d="M42.314,180.489a2.264,2.264,0,1,1,2.264-2.264A2.267,2.267,0,0,1,42.314,180.489Zm0-4.091a1.831,1.831,0,1,0,1.831,1.831A1.833,1.833,0,0,0,42.314,176.4Z" transform="translate(-37.948 -154.709)" fill="#fff"/>
              <rect id="Rectángulo_293720" data-name="Rectángulo 293720" width="5.111" height="16.849" rx="0.89" transform="translate(6.924 18.215) rotate(180)" fill="#aec3ff"/>
              <path id="Trazado_191622" data-name="Trazado 191622" d="M.311,0H3.5A.312.312,0,0,1,3.81.311V.368A.312.312,0,0,1,3.5.679H.311A.312.312,0,0,1,0,.368V.311A.312.312,0,0,1,.311,0Z" transform="translate(6.219 2.659) rotate(180)" fill="#f99746"/>
              <g id="Grupo_131779" data-name="Grupo 131779" transform="translate(3.083 5.589)">
                <path id="Trazado_191623" data-name="Trazado 191623" d="M46.71,156.321v3.473a.171.171,0,0,0,.171.171h0a.171.171,0,0,0,.171-.171v-3.473a.171.171,0,0,0-.171-.171h0A.171.171,0,0,0,46.71,156.321Z" transform="translate(-44.774 -149.164)" fill="#505aba"/>
                <path id="Trazado_191624" data-name="Trazado 191624" d="M46.71,145.421v3.473a.171.171,0,0,0,.171.171h0a.171.171,0,0,0,.171-.171v-3.473a.171.171,0,0,0-.171-.171h0A.171.171,0,0,0,46.71,145.421Z" transform="translate(-44.774 -143.038)" fill="#505aba"/>
                <path id="Trazado_191625" data-name="Trazado 191625" d="M42.29,156.321v3.473a.171.171,0,0,0,.171.171h0a.171.171,0,0,0,.171-.171v-3.473a.171.171,0,0,0-.171-.171h0A.171.171,0,0,0,42.29,156.321Z" transform="translate(-42.29 -149.164)" fill="#505aba"/>
                <path id="Trazado_191626" data-name="Trazado 191626" d="M42.29,145.421v3.473a.171.171,0,0,0,.171.171h0a.171.171,0,0,0,.171-.171v-3.473a.171.171,0,0,0-.171-.171h0A.171.171,0,0,0,42.29,145.421Z" transform="translate(-42.29 -143.038)" fill="#505aba"/>
                <path id="Trazado_191627" data-name="Trazado 191627" d="M44.59,154.091v4.454a.171.171,0,0,0,.171.171h0a.171.171,0,0,0,.171-.171v-4.454a.171.171,0,0,0-.171-.171h0A.171.171,0,0,0,44.59,154.091Z" transform="translate(-43.583 -147.911)" fill="#505aba"/>
                <path id="Trazado_191628" data-name="Trazado 191628" d="M44.59,140.371v4.454a.171.171,0,0,0,.171.171h0a.171.171,0,0,0,.171-.171v-4.454a.171.171,0,0,0-.171-.171h0A.171.171,0,0,0,44.59,140.371Z" transform="translate(-43.583 -140.2)" fill="#505aba"/>
              </g>
            </g>
            <g id="Grupo_131782" data-name="Grupo 131782" transform="translate(14.278 4.152)">
              <rect id="Rectángulo_293721" data-name="Rectángulo 293721" width="8.729" height="29.971" rx="2.41" transform="translate(8.729 29.971) rotate(180)" fill="#8c9df4"/>
              <path id="Trazado_191629" data-name="Trazado 191629" d="M69.5,178.485a2.045,2.045,0,1,0-2.045,2.045A2.045,2.045,0,0,0,69.5,178.485Z" transform="translate(-63.093 -154.979)" fill="#505aba"/>
              <path id="Trazado_191630" data-name="Trazado 191630" d="M67.174,180.489a2.264,2.264,0,1,1,2.264-2.264A2.267,2.267,0,0,1,67.174,180.489Zm0-4.091a1.831,1.831,0,1,0,1.831,1.831A1.833,1.833,0,0,0,67.174,176.4Z" transform="translate(-62.812 -154.709)" fill="#fff"/>
              <rect id="Rectángulo_293722" data-name="Rectángulo 293722" width="5.111" height="16.849" rx="0.89" transform="translate(6.916 18.215) rotate(180)" fill="#aec3ff"/>
              <rect id="Rectángulo_293723" data-name="Rectángulo 293723" width="3.81" height="0.674" rx="0.337" transform="translate(6.215 2.659) rotate(180)" fill="#f99746"/>
              <g id="Grupo_131781" data-name="Grupo 131781" transform="translate(3.075 5.589)">
                <path id="Trazado_191631" data-name="Trazado 191631" d="M71.57,156.321v3.473a.171.171,0,0,0,.171.171h0a.171.171,0,0,0,.171-.171v-3.473a.171.171,0,0,0-.171-.171h0A.171.171,0,0,0,71.57,156.321Z" transform="translate(-69.63 -149.164)" fill="#505aba"/>
                <path id="Trazado_191632" data-name="Trazado 191632" d="M71.57,145.421v3.473a.171.171,0,0,0,.171.171h0a.171.171,0,0,0,.171-.171v-3.473a.171.171,0,0,0-.171-.171h0A.171.171,0,0,0,71.57,145.421Z" transform="translate(-69.63 -143.038)" fill="#505aba"/>
                <path id="Trazado_191633" data-name="Trazado 191633" d="M67.14,156.321v3.473a.171.171,0,0,0,.171.171h0a.171.171,0,0,0,.171-.171v-3.473a.171.171,0,0,0-.171-.171h0A.171.171,0,0,0,67.14,156.321Z" transform="translate(-67.14 -149.164)" fill="#505aba"/>
                <path id="Trazado_191634" data-name="Trazado 191634" d="M67.14,145.421v3.473a.171.171,0,0,0,.171.171h0a.171.171,0,0,0,.171-.171v-3.473a.171.171,0,0,0-.171-.171h0A.171.171,0,0,0,67.14,145.421Z" transform="translate(-67.14 -143.038)" fill="#505aba"/>
                <path id="Trazado_191635" data-name="Trazado 191635" d="M69.45,154.091v4.454a.171.171,0,0,0,.171.171h0a.171.171,0,0,0,.171-.171v-4.454a.171.171,0,0,0-.171-.171h0A.171.171,0,0,0,69.45,154.091Z" transform="translate(-68.438 -147.911)" fill="#505aba"/>
                <path id="Trazado_191636" data-name="Trazado 191636" d="M69.45,140.371v4.454a.171.171,0,0,0,.171.171h0a.171.171,0,0,0,.171-.171v-4.454a.171.171,0,0,0-.171-.171h0A.171.171,0,0,0,69.45,140.371Z" transform="translate(-68.438 -140.2)" fill="#505aba"/>
              </g>
            </g>
            <g id="Grupo_131784" data-name="Grupo 131784" transform="translate(25.368 4.152)">
              <rect id="Rectángulo_293724" data-name="Rectángulo 293724" width="8.729" height="29.971" rx="2.41" transform="translate(8.729 29.971) rotate(180)" fill="#8c9df4"/>
              <path id="Trazado_191637" data-name="Trazado 191637" d="M94.831,178.485a2.045,2.045,0,1,0-2.045,2.045A2.045,2.045,0,0,0,94.831,178.485Z" transform="translate(-88.419 -154.979)" fill="#505aba"/>
              <path id="Trazado_191638" data-name="Trazado 191638" d="M92.5,180.489a2.264,2.264,0,1,1,2.264-2.264A2.267,2.267,0,0,1,92.5,180.489Zm0-4.091a1.831,1.831,0,1,0,1.831,1.831A1.833,1.833,0,0,0,92.5,176.4Z" transform="translate(-88.138 -154.709)" fill="#fff"/>
              <rect id="Rectángulo_293725" data-name="Rectángulo 293725" width="5.111" height="16.849" rx="0.89" transform="translate(6.924 18.215) rotate(180)" fill="#aec3ff"/>
              <path id="Trazado_191639" data-name="Trazado 191639" d="M.311,0H3.5A.312.312,0,0,1,3.81.311V.368A.312.312,0,0,1,3.5.679H.311A.312.312,0,0,1,0,.368V.311A.312.312,0,0,1,.311,0Z" transform="translate(6.219 2.659) rotate(180)" fill="#f99746"/>
              <g id="Grupo_131783" data-name="Grupo 131783" transform="translate(3.083 5.589)">
                <path id="Trazado_191640" data-name="Trazado 191640" d="M96.9,156.321v3.473a.171.171,0,0,0,.171.171h0a.171.171,0,0,0,.171-.171v-3.473a.171.171,0,0,0-.171-.171h0A.171.171,0,0,0,96.9,156.321Z" transform="translate(-94.964 -149.164)" fill="#505aba"/>
                <path id="Trazado_191641" data-name="Trazado 191641" d="M96.9,145.421v3.473a.171.171,0,0,0,.171.171h0a.171.171,0,0,0,.171-.171v-3.473a.171.171,0,0,0-.171-.171h0A.171.171,0,0,0,96.9,145.421Z" transform="translate(-94.964 -143.038)" fill="#505aba"/>
                <path id="Trazado_191642" data-name="Trazado 191642" d="M92.48,156.321v3.473a.171.171,0,0,0,.171.171h0a.171.171,0,0,0,.171-.171v-3.473a.171.171,0,0,0-.171-.171h0A.171.171,0,0,0,92.48,156.321Z" transform="translate(-92.48 -149.164)" fill="#505aba"/>
                <path id="Trazado_191643" data-name="Trazado 191643" d="M92.48,145.421v3.473a.171.171,0,0,0,.171.171h0a.171.171,0,0,0,.171-.171v-3.473a.171.171,0,0,0-.171-.171h0A.171.171,0,0,0,92.48,145.421Z" transform="translate(-92.48 -143.038)" fill="#505aba"/>
                <path id="Trazado_191644" data-name="Trazado 191644" d="M94.78,154.091v4.454a.171.171,0,0,0,.171.171h0a.171.171,0,0,0,.171-.171v-4.454a.171.171,0,0,0-.171-.171h0A.171.171,0,0,0,94.78,154.091Z" transform="translate(-93.773 -147.911)" fill="#505aba"/>
                <path id="Trazado_191645" data-name="Trazado 191645" d="M94.78,140.371v4.454a.171.171,0,0,0,.171.171h0a.171.171,0,0,0,.171-.171v-4.454a.171.171,0,0,0-.171-.171h0A.171.171,0,0,0,94.78,140.371Z" transform="translate(-93.773 -140.2)" fill="#505aba"/>
              </g>
            </g>
            <g id="Grupo_131785" data-name="Grupo 131785" transform="translate(36.799 4.152)">
              <rect id="Rectángulo_293726" data-name="Rectángulo 293726" width="8.729" height="29.971" rx="2.41" transform="translate(8.729 29.971) rotate(180)" fill="#8c9df4"/>
              <rect id="Rectángulo_293727" data-name="Rectángulo 293727" width="5.111" height="16.849" rx="0.89" transform="translate(6.916 18.215) rotate(180)" fill="#aec3ff"/>
              <path id="Trazado_191646" data-name="Trazado 191646" d="M.311,0H3.5A.312.312,0,0,1,3.81.311V.368A.312.312,0,0,1,3.5.679H.311A.312.312,0,0,1,0,.368V.311A.312.312,0,0,1,.311,0Z" transform="translate(6.215 2.659) rotate(180)" fill="#f99746"/>
            </g>
            <g id="Grupo_131786" data-name="Grupo 131786" transform="translate(47.823 4.152)">
              <rect id="Rectángulo_293728" data-name="Rectángulo 293728" width="8.729" height="29.971" rx="2.41" transform="translate(8.729 29.971) rotate(180)" fill="#8c9df4"/>
              <rect id="Rectángulo_293729" data-name="Rectángulo 293729" width="5.111" height="16.849" rx="0.89" transform="translate(6.916 18.215) rotate(180)" fill="#aec3ff"/>
              <path id="Trazado_191647" data-name="Trazado 191647" d="M.311,0H3.5A.312.312,0,0,1,3.81.311V.368A.312.312,0,0,1,3.5.679H.311A.312.312,0,0,1,0,.368V.311A.312.312,0,0,1,.311,0Z" transform="translate(6.219 2.659) rotate(180)" fill="#f99746"/>
            </g>
            <g id="Grupo_131788" data-name="Grupo 131788" transform="translate(3.386 38.051)">
              <rect id="Rectángulo_293730" data-name="Rectángulo 293730" width="8.729" height="29.971" rx="2.41" transform="translate(8.729 29.971) rotate(180)" fill="#8c9df4"/>
              <circle id="Elipse_4784" data-name="Elipse 4784" cx="2.045" cy="2.045" r="2.045" transform="translate(2.321 21.461)" fill="#505aba"/>
              <path id="Trazado_191648" data-name="Trazado 191648" d="M42.314,257.889a2.264,2.264,0,1,1,2.264-2.264A2.267,2.267,0,0,1,42.314,257.889Zm0-4.091a1.831,1.831,0,1,0,1.831,1.831A1.833,1.833,0,0,0,42.314,253.8Z" transform="translate(-37.948 -232.109)" fill="#fff"/>
              <rect id="Rectángulo_293731" data-name="Rectángulo 293731" width="5.111" height="16.849" rx="0.89" transform="translate(6.924 18.22) rotate(180)" fill="#aec3ff"/>
              <path id="Trazado_191649" data-name="Trazado 191649" d="M.311,0H3.5A.312.312,0,0,1,3.81.311V.368A.312.312,0,0,1,3.5.679H.311A.312.312,0,0,1,0,.368V.311A.312.312,0,0,1,.311,0Z" transform="translate(6.219 2.659) rotate(180)" fill="#f99746"/>
              <g id="Grupo_131787" data-name="Grupo 131787" transform="translate(3.083 5.589)">
                <path id="Trazado_191650" data-name="Trazado 191650" d="M46.71,233.731V237.2a.171.171,0,0,0,.171.171h0a.171.171,0,0,0,.171-.171v-3.473a.171.171,0,0,0-.171-.171h0A.171.171,0,0,0,46.71,233.731Z" transform="translate(-44.774 -226.57)" fill="#505aba"/>
                <path id="Trazado_191651" data-name="Trazado 191651" d="M46.71,222.821v3.473a.171.171,0,0,0,.171.171h0a.171.171,0,0,0,.171-.171v-3.473a.171.171,0,0,0-.171-.171h0A.171.171,0,0,0,46.71,222.821Z" transform="translate(-44.774 -220.438)" fill="#505aba"/>
                <path id="Trazado_191652" data-name="Trazado 191652" d="M42.29,233.731V237.2a.171.171,0,0,0,.171.171h0a.171.171,0,0,0,.171-.171v-3.473a.171.171,0,0,0-.171-.171h0A.171.171,0,0,0,42.29,233.731Z" transform="translate(-42.29 -226.57)" fill="#505aba"/>
                <path id="Trazado_191653" data-name="Trazado 191653" d="M42.29,222.821v3.473a.171.171,0,0,0,.171.171h0a.171.171,0,0,0,.171-.171v-3.473a.171.171,0,0,0-.171-.171h0A.171.171,0,0,0,42.29,222.821Z" transform="translate(-42.29 -220.438)" fill="#505aba"/>
                <path id="Trazado_191654" data-name="Trazado 191654" d="M44.59,231.491v4.454a.171.171,0,0,0,.171.171h0a.171.171,0,0,0,.171-.171v-4.454a.171.171,0,0,0-.171-.171h0A.171.171,0,0,0,44.59,231.491Z" transform="translate(-43.583 -225.311)" fill="#505aba"/>
                <path id="Trazado_191655" data-name="Trazado 191655" d="M44.59,217.771v4.454a.171.171,0,0,0,.171.171h0a.171.171,0,0,0,.171-.171v-4.454a.171.171,0,0,0-.171-.171h0A.171.171,0,0,0,44.59,217.771Z" transform="translate(-43.583 -217.6)" fill="#505aba"/>
              </g>
            </g>
            <g id="Grupo_131790" data-name="Grupo 131790" transform="translate(14.278 38.051)">
              <rect id="Rectángulo_293732" data-name="Rectángulo 293732" width="8.729" height="29.971" rx="2.41" transform="translate(8.729 29.971) rotate(180)" fill="#8c9df4"/>
              <path id="Trazado_191656" data-name="Trazado 191656" d="M69.5,255.885a2.045,2.045,0,1,0-2.045,2.045A2.045,2.045,0,0,0,69.5,255.885Z" transform="translate(-63.093 -232.379)" fill="#505aba"/>
              <path id="Trazado_191657" data-name="Trazado 191657" d="M67.174,257.889a2.264,2.264,0,1,1,2.264-2.264A2.267,2.267,0,0,1,67.174,257.889Zm0-4.091a1.831,1.831,0,1,0,1.831,1.831A1.833,1.833,0,0,0,67.174,253.8Z" transform="translate(-62.812 -232.109)" fill="#fff"/>
              <rect id="Rectángulo_293733" data-name="Rectángulo 293733" width="5.111" height="16.849" rx="0.89" transform="translate(6.916 18.22) rotate(180)" fill="#aec3ff"/>
              <rect id="Rectángulo_293734" data-name="Rectángulo 293734" width="3.81" height="0.674" rx="0.337" transform="translate(6.215 2.659) rotate(180)" fill="#f99746"/>
              <g id="Grupo_131789" data-name="Grupo 131789" transform="translate(3.075 5.589)">
                <path id="Trazado_191658" data-name="Trazado 191658" d="M71.57,233.731V237.2a.171.171,0,0,0,.171.171h0a.171.171,0,0,0,.171-.171v-3.473a.171.171,0,0,0-.171-.171h0A.171.171,0,0,0,71.57,233.731Z" transform="translate(-69.63 -226.57)" fill="#505aba"/>
                <path id="Trazado_191659" data-name="Trazado 191659" d="M71.57,222.821v3.473a.171.171,0,0,0,.171.171h0a.171.171,0,0,0,.171-.171v-3.473a.171.171,0,0,0-.171-.171h0A.171.171,0,0,0,71.57,222.821Z" transform="translate(-69.63 -220.438)" fill="#505aba"/>
                <path id="Trazado_191660" data-name="Trazado 191660" d="M67.14,233.731V237.2a.171.171,0,0,0,.171.171h0a.171.171,0,0,0,.171-.171v-3.473a.171.171,0,0,0-.171-.171h0A.171.171,0,0,0,67.14,233.731Z" transform="translate(-67.14 -226.57)" fill="#505aba"/>
                <path id="Trazado_191661" data-name="Trazado 191661" d="M67.14,222.821v3.473a.171.171,0,0,0,.171.171h0a.171.171,0,0,0,.171-.171v-3.473a.171.171,0,0,0-.171-.171h0A.171.171,0,0,0,67.14,222.821Z" transform="translate(-67.14 -220.438)" fill="#505aba"/>
                <path id="Trazado_191662" data-name="Trazado 191662" d="M69.45,231.491v4.454a.171.171,0,0,0,.171.171h0a.171.171,0,0,0,.171-.171v-4.454a.171.171,0,0,0-.171-.171h0A.171.171,0,0,0,69.45,231.491Z" transform="translate(-68.438 -225.311)" fill="#505aba"/>
                <path id="Trazado_191663" data-name="Trazado 191663" d="M69.45,217.771v4.454a.171.171,0,0,0,.171.171h0a.171.171,0,0,0,.171-.171v-4.454a.171.171,0,0,0-.171-.171h0A.171.171,0,0,0,69.45,217.771Z" transform="translate(-68.438 -217.6)" fill="#505aba"/>
              </g>
            </g>
            <rect id="Rectángulo_293735" data-name="Rectángulo 293735" width="8.729" height="29.971" rx="2.41" transform="translate(34.096 68.022) rotate(180)" fill="#8c9df4"/>
            <rect id="Rectángulo_293736" data-name="Rectángulo 293736" width="8.729" height="29.971" rx="2.41" transform="translate(45.528 68.022) rotate(180)" fill="#8c9df4"/>
            <rect id="Rectángulo_293737" data-name="Rectángulo 293737" width="8.729" height="29.971" rx="2.41" transform="translate(56.552 68.022) rotate(180)" fill="#8c9df4"/>
            <path id="Trazado_191664" data-name="Trazado 191664" d="M28.571,203.541h0a1.051,1.051,0,0,1-1.051-1.051V119.011a1.051,1.051,0,0,1,1.051-1.051h0a1.051,1.051,0,0,1,1.051,1.051v83.483a1.051,1.051,0,0,1-1.051,1.051Z" transform="translate(-27.52 -117.96)" fill="#bdd1f9"/>
            <rect id="Rectángulo_293738" data-name="Rectángulo 293738" width="60.642" height="0.841" transform="translate(60.642 34.968) rotate(180)" fill="#bdd1f9"/>
            <rect id="Rectángulo_293739" data-name="Rectángulo 293739" width="64.404" height="0.841" transform="translate(64.409 68.85) rotate(180)" fill="#bdd1f9"/>
          </g>
          <path id="Trazado_191665" data-name="Trazado 191665" d="M294.308,183.347s-5.764,5.006-4.77,6.022,6.022-6.04,6.022-6.04,7.551,1.7,9.53,3.6c0,0-7.941,3.057-6.723,3.8S308,188.672,308,188.672s6.425,3.4,4.7,7.437-4.5,4.542-5.492,4.1-6.267-4.739-6.679-3.937,2.313,4.756,4.813,5.724c0,0-6.543,3.714-9.233,1.134s-2.164-5.089-3.85-6.653-3.39-2.12-2.873-.924,3.819,3.28,4.292,5.667,1.047,4.078-2.089,2.5-7.708-5.764-7.03-8.611c.031-.123.057-.241.083-.355a1.286,1.286,0,0,0-.083.355c-.727-.105-2.571.688-3.929,1.34-.219.123-.53.28-.977.482h0c-.193.1-.346.18-.455.237-2.838,1.625-5.589,6.136-5.589,6.136l-.7-.3a12.224,12.224,0,0,1,6.938-6.784,14.037,14.037,0,0,0,5.383-3.955s-2.886-7.016,2.659-9.044c0,0,3.854-.889,6.425.136Z" transform="translate(-165.429 -149.772)" fill="#d2e2f9"/>
        </g>
      </g>
      <g id="Artboard_8" data-name="Artboard 8" transform="translate(1042 519.246)">
        <g id="Layer_1" transform="translate(0 0)">
          <g id="Grupo_111970" data-name="Grupo 111970" transform="translate(121.065 90.299)">
            <g id="Grupo_111966" data-name="Grupo 111966" transform="translate(18.456 0)">
              <rect id="Rectángulo_40333" data-name="Rectángulo 40333" width="4.958" height="15.995" transform="translate(16.915 15.995) rotate(180)" fill="#35488b"/>
              <rect id="Rectángulo_40334" data-name="Rectángulo 40334" width="11.957" height="15.995" transform="translate(11.957 15.995) rotate(180)" fill="#2c3a64"/>
              <path id="Trazado_115488" data-name="Trazado 115488" d="M367.326,209.668a.828.828,0,1,0-.828.828A.83.83,0,0,0,367.326,209.668Z" transform="translate(-352.062 -207.671)" fill="#dde7fe"/>
              <path id="Trazado_115489" data-name="Trazado 115489" d="M367.384,209.977a.587.587,0,1,0-.587.587A.587.587,0,0,0,367.384,209.977Z" transform="translate(-352.366 -207.98)" fill="#6c7aff"/>
              <rect id="Rectángulo_40335" data-name="Rectángulo 40335" width="2.334" height="4.213" transform="translate(15.583 8.203) rotate(180)" fill="#8fadef"/>
            </g>
            <g id="Grupo_111967" data-name="Grupo 111967" transform="translate(9.206 0)">
              <rect id="Rectángulo_40336" data-name="Rectángulo 40336" width="4.958" height="15.995" transform="translate(16.91 15.995) rotate(180)" fill="#35488b"/>
              <rect id="Rectángulo_40337" data-name="Rectángulo 40337" width="11.957" height="15.995" transform="translate(11.957 15.995) rotate(180)" fill="#2c3a64"/>
              <path id="Trazado_115490" data-name="Trazado 115490" d="M346.206,209.668a.828.828,0,1,0-.828.828A.83.83,0,0,0,346.206,209.668Z" transform="translate(-330.942 -207.671)" fill="#dde7fe"/>
              <path id="Trazado_115491" data-name="Trazado 115491" d="M346.264,209.977a.587.587,0,1,0-.587.587A.587.587,0,0,0,346.264,209.977Z" transform="translate(-331.246 -207.98)" fill="#6c7aff"/>
              <rect id="Rectángulo_40338" data-name="Rectángulo 40338" width="2.334" height="4.213" transform="translate(15.583 8.203) rotate(180)" fill="#8fadef"/>
            </g>
            <g id="Grupo_111968" data-name="Grupo 111968" transform="translate(0.749 0)">
              <rect id="Rectángulo_40339" data-name="Rectángulo 40339" width="4.958" height="15.995" transform="translate(16.915 15.995) rotate(180)" fill="#35488b"/>
              <rect id="Rectángulo_40340" data-name="Rectángulo 40340" width="11.957" height="15.995" transform="translate(11.957 15.995) rotate(180)" fill="#2c3a64"/>
              <path id="Trazado_115492" data-name="Trazado 115492" d="M326.886,209.668a.828.828,0,1,0-.828.828A.83.83,0,0,0,326.886,209.668Z" transform="translate(-311.626 -207.671)" fill="#dde7fe"/>
              <path id="Trazado_115493" data-name="Trazado 115493" d="M326.954,209.977a.587.587,0,1,0-.587.587A.587.587,0,0,0,326.954,209.977Z" transform="translate(-311.936 -207.98)" fill="#6c7aff"/>
              <rect id="Rectángulo_40341" data-name="Rectángulo 40341" width="2.334" height="4.213" transform="translate(15.583 8.203) rotate(180)" fill="#8fadef"/>
            </g>
            <g id="Grupo_111969" data-name="Grupo 111969" transform="translate(0 10.415)">
              <rect id="Rectángulo_40342" data-name="Rectángulo 40342" width="28.017" height="20.699" transform="translate(28.017 20.699) rotate(180)" fill="#afafaf"/>
              <rect id="Rectángulo_40343" data-name="Rectángulo 40343" width="22.214" height="20.699" transform="translate(37.228 20.699) rotate(180)" fill="#f6f6f6"/>
              <rect id="Rectángulo_40344" data-name="Rectángulo 40344" width="7.047" height="1.38" rx="0.69" transform="translate(30.912 3.377) rotate(180)" fill="#636363"/>
            </g>
          </g>
          <g id="Grupo_111982" data-name="Grupo 111982" transform="translate(10.174)">
            <g id="Grupo_111972" data-name="Grupo 111972" transform="translate(0 29.539)">
              <path id="Trazado_115494" data-name="Trazado 115494" d="M152.988,138.283l-4.84,57.537s-.508,3.486,2.089,3.5c4.266.009,21.229,0,21.229,0s-3.21-.727-3.171-2.361c.044-1.927,5.654-59.214,5.654-59.214l-20.962.543Z" transform="translate(-100.44 -106.95)" fill="#798ee8"/>
              <path id="Trazado_115495" data-name="Trazado 115495" d="M174.848,196.893c-.841,0-17.265.031-21.417-.022-1.809-.022-2.129-1.612-2.142-2.637a4.912,4.912,0,0,1,.057-.858l.127-1.493.32-3.81.285-3.368.364-4.327.307-3.653,3.438-40.881,20.962-.543s-2.361,23.975-4.034,41.428c-.188,1.945-.364,3.81-.53,5.549-.053.556-.105,1.1-.153,1.629-.153,1.651-.3,3.167-.42,4.507-.066.705-.127,1.362-.18,1.962-.215,2.352-.337,3.859-.342,4.143a2.584,2.584,0,0,0,.039.464c.346,1.835,3,1.918,3.315,1.918Z" transform="translate(-102.227 -105.579)" fill="#aec3ff"/>
              <path id="Trazado_115496" data-name="Trazado 115496" d="M43,67.44l11.79,47.341,1.612,6.486,5.492,22.052H163.882L143.647,67.44Z" transform="translate(-41.366 -67.44)" fill="#b9ddfc"/>
              <path id="Trazado_115497" data-name="Trazado 115497" d="M40.9,67.44l-1.634.543,18.356,76.983,2.172-1.647Z" transform="translate(-39.27 -67.44)" fill="#798ee8"/>
              <path id="Trazado_115498" data-name="Trazado 115498" d="M81.18,242.337H182.541l2.8-1.647H83.352Z" transform="translate(-62.824 -164.811)" fill="#849def"/>
              <rect id="Rectángulo_40345" data-name="Rectángulo 40345" width="21.947" height="1.042" transform="translate(75.893 92.361) rotate(180)" fill="#aec3ff"/>
              <path id="Trazado_115499" data-name="Trazado 115499" d="M173.191,244.45l-.114.8-20.637,4.17.28-3.368.136-1.6Z" transform="translate(-102.874 -166.924)" fill="#8c9df4"/>
              <g id="Grupo_111971" data-name="Grupo 111971" transform="translate(49.062 84.792)" opacity="0.5">
                <path id="Trazado_115500" data-name="Trazado 115500" d="M174.849,267.561c-.841,0-17.265.031-21.417-.022-1.809-.022-2.129-1.612-2.142-2.637l20.541-3.863c-.215,2.352-.337,3.859-.342,4.143a2.585,2.585,0,0,0,.039.464c.346,1.835,3,1.918,3.315,1.918Z" transform="translate(-151.29 -261.04)" fill="#8c9df4"/>
              </g>
              <path id="Trazado_115501" data-name="Trazado 115501" d="M43,67.44H143.647l16.328,60.984H58.185Z" transform="translate(-41.366 -67.44)" fill="#b9ddfc"/>
              <path id="Trazado_115502" data-name="Trazado 115502" d="M160.582,129.966H66.347L62.979,116.55l-1.305-5.19-.53-2.115-3.46-13.788-.18-.718-1.831-7.288-.819-3.259-.7-2.781-.569-2.269L52.52,74.89H145.4l1.174,4.253.622,2.269.766,2.781.9,3.259,5.921,21.483h0l.5,1.822.232.845,4.091,14.83Z" transform="translate(-46.717 -71.627)" fill="#084a93"/>
            </g>
            <path id="Trazado_115503" data-name="Trazado 115503" d="M81.977,107.341l-.867-1.283a5.079,5.079,0,0,0-4-2.277H67.55l1.66,6.066,6.583,24.071a2.481,2.481,0,0,0,2.4,1.826h34.4a2.484,2.484,0,0,0,2.4-3.136l-6.224-22.762H86.379a5.575,5.575,0,0,1-4.4-2.505Z" transform="translate(-55.164 -58.325)" fill="#ffb30b"/>
            <g id="Grupo_111974" data-name="Grupo 111974" transform="translate(14.04)">
              <g id="Grupo_111973" data-name="Grupo 111973">
                <path id="Trazado_115504" data-name="Trazado 115504" d="M102.583,89.3a.534.534,0,0,0-.1.569h0A3.532,3.532,0,0,0,103.6,91.1c.066.053.127.105.18.149.013.013.026.022.039.035s.022.018.031.026c.491.451.307.556,1.187,1.476,1.007,1.047,1.7,1.064,1.9.972.166-.083-.171-.635-.547-1.261l-.053-.092c-.048-.083-.1-.166-.149-.25-.438-.749-.328-1.1-.223-2.221.083-.907,1.415-5.072,1.415-5.072l-1.927-.333s-.583,3.315-1.222,3.828c-.342.272-.723.276-1.056.477a.614.614,0,0,0-.07.044,2.331,2.331,0,0,0-.526.425Z" transform="translate(-88.816 -47.506)" fill="#ffb27d"/>
                <path id="Trazado_115505" data-name="Trazado 115505" d="M102.583,94.879a.534.534,0,0,0-.1.569h0a4.037,4.037,0,0,0,1.117,1.222c.066.057.127.105.175.153.013.013.026.022.039.035s.022.018.031.026c.491.451.307.556,1.187,1.476,1.007,1.047,1.7,1.064,1.9.972.166-.083-.171-.635-.547-1.261a4.266,4.266,0,0,1-1.791-1.323c-.583-.745-.981-1.695-1.375-2.277l-.114-.022a2.331,2.331,0,0,0-.526.425Z" transform="translate(-88.816 -53.081)" fill="#233862"/>
                <path id="Trazado_115506" data-name="Trazado 115506" d="M136.267,87.356c.118.6.968.495,1.914.263s.723.044,2.072-.105,1.756-.653,1.8-.854c.035-.18-.631-.241-1.345-.324-.092-.009-.18-.022-.272-.031a5.794,5.794,0,0,1-2.129-1.051,8.659,8.659,0,0,1-1.73-2.054l-1.848.145s.968,1.476,1.345,2.115a2.225,2.225,0,0,1,.18,1.261,2.529,2.529,0,0,0,.013.631Z" transform="translate(-106.961 -46.759)" fill="#ffb27d"/>
                <path id="Trazado_115507" data-name="Trazado 115507" d="M140.12,91.643c.946-.232.723.044,2.072-.105s1.756-.653,1.8-.854c.035-.18-.631-.241-1.345-.324l-.009.013a3.8,3.8,0,0,1-1.931.6c-.915.022-1.883-.241-2.514-.232a2.529,2.529,0,0,0,.013.631c.118.6.968.495,1.914.263Z" transform="translate(-108.9 -50.783)" fill="#233862"/>
                <path id="Trazado_115508" data-name="Trazado 115508" d="M113.921,61.884l-1.73,4.651-2.26,6.075a3.734,3.734,0,0,1-1.2-.109,5.318,5.318,0,0,1-1.161-.565,66.185,66.185,0,0,1,1.8-10.266,6.622,6.622,0,0,1,1.007-2.177c1.813-2.142,3.543,2.391,3.543,2.391Z" transform="translate(-91.697 -33.111)" fill="#00abc2"/>
                <path id="Trazado_115509" data-name="Trazado 115509" d="M96.612,47.617c-.985-.32-3.552,0-6.338.495a1.887,1.887,0,0,1-1.949-.88h0l-7.008-.552s-2.313,5.129-1.051,8.4a1.224,1.224,0,0,0,1.226.788h0s4.235.009,5.589.009c3.486,0,7.376-2.391,7.879-2.492.823-.166,1.152,1.485,1.975,3.215s7.743,7.665,7.743,7.665a5.984,5.984,0,0,0,1.5-.153,1.442,1.442,0,0,0,.644-.407S99.161,48.441,96.608,47.617Z" transform="translate(-76.14 -26.234)" fill="#00defc"/>
                <path id="Trazado_115510" data-name="Trazado 115510" d="M82.807.414a2.488,2.488,0,0,0-1.34-.35,4.026,4.026,0,0,1-.648-.039c-2.676-.394-4.288,3.491-4.38,4.664-.175,2.155-1.314,2.483-2.921,3.832C70.3,11.228,71.24,14.372,73,15.542c1.056.7,2.917,0,2.917,0,.026.018,5.089-2.829,7.586-4.2,3.74-.53.8-10.034-.7-10.928Z" transform="translate(-71.362 0.004)" fill="#233862"/>
                <path id="Trazado_115511" data-name="Trazado 115511" d="M89.9,18.189a3.368,3.368,0,0,1-2.058.061,3.641,3.641,0,0,1-1.358-1.629c.355-.018.745-.324,1.042-2.361l.149.053,2.536.915s-.184.815-.3,1.59c-.1.653-.153,1.275-.018,1.366Z" transform="translate(-79.843 -8.013)" fill="#ffb27d"/>
                <path id="Trazado_115512" data-name="Trazado 115512" d="M91.756,15.311s-.1.438-.25,1.261A2.855,2.855,0,0,1,89.22,14.4l2.536.915Z" transform="translate(-81.383 -8.091)" fill="#ed975d"/>
                <path id="Trazado_115513" data-name="Trazado 115513" d="M91.8,10.494s-3.473-.469-3.149-2.623.1-3.67,2.326-3.464S93.514,5.5,93.584,6.25,92.717,10.564,91.8,10.5Z" transform="translate(-81.052 -2.464)" fill="#ffb27d"/>
                <path id="Trazado_115514" data-name="Trazado 115514" d="M92.181,4.81s-2.225,1.914-3.736,2.067a2.9,2.9,0,0,1-2.085-.333,5.87,5.87,0,0,0,1.428-1.936,1.058,1.058,0,0,1,.876-.626c1.082-.092,3.127-.136,3.517.823Z" transform="translate(-79.776 -2.211)" fill="#233862"/>
                <path id="Trazado_115515" data-name="Trazado 115515" d="M96.48,5a5.4,5.4,0,0,1,.977,1.253,4.19,4.19,0,0,1,.114,2.234s1.161-2.251.5-3.346A.926.926,0,0,0,96.48,5Z" transform="translate(-85.464 -2.574)" fill="#233862"/>
                <path id="Trazado_115516" data-name="Trazado 115516" d="M89,26.236c-.109,7.03-.031,5.562-.8,6.228a2.962,2.962,0,0,1-1.393.3c-2.155.145-5.943-.215-6.088-.613-.495-1.38-.145-1.8-.561-3.916-.044-.223-.1-.469-.158-.731-.346-1.45-.683-1.945.547-4.27a18.145,18.145,0,0,1,2.374-3.758c2.934,1.743,3.171.28,3.171.28S89.052,22.811,89,26.24Z" transform="translate(-76.021 -10.944)" fill="#084a93"/>
                <path id="Trazado_115517" data-name="Trazado 115517" d="M112.191,70.066l-2.26,6.075a3.734,3.734,0,0,1-1.2-.109,5.318,5.318,0,0,1-1.161-.565,66.185,66.185,0,0,1,1.8-10.266l2.816,4.866Z" transform="translate(-91.697 -36.642)" fill="#00defc"/>
                <path id="Trazado_115518" data-name="Trazado 115518" d="M94.32,20.11s3.022.512,3.377,1.813,1.52,9.2,1.52,9.2-.854.832-1.559.123-2.229-7.389-2.229-7.389l-1.1-3.745Z" transform="translate(-84.25 -11.301)" fill="#084a93"/>
                <path id="Trazado_115519" data-name="Trazado 115519" d="M87.418,40.254c-2.155.145-5.943-.215-6.088-.613-.495-1.38-.145-1.8-.561-3.916L81.812,32.8s-.175,3.259.788,4.117,3.937,1.656,4.4,2.374a2.664,2.664,0,0,1,.416.968Z" transform="translate(-76.634 -18.433)" fill="#233862"/>
                <path id="Trazado_115520" data-name="Trazado 115520" d="M90.31,46.268a9.07,9.07,0,0,1,2.47-.285A4.992,4.992,0,0,1,94.068,47.1c.105.241-.762-.184-1.047-.258a2.53,2.53,0,0,0-.9.2A3.027,3.027,0,0,1,90.5,47.2l-.188-.933Z" transform="translate(-81.996 -25.817)" fill="#ffb27d"/>
                <path id="Trazado_115521" data-name="Trazado 115521" d="M78.222,19.47s-2.856.175-3.845,1.555c-1.393,1.94-4.156,10.209-2.575,11.313,1.783,1.244,8.107.328,8.107.328a2.562,2.562,0,0,0-.083-1.458c-.293-.477-5.054-1.248-5.273-1.467S77.3,25.457,77.3,24.8s.915-5.326.915-5.326Z" transform="translate(-71.327 -10.941)" fill="#084a93"/>
                <path id="Trazado_115522" data-name="Trazado 115522" d="M96.19,47.39a4.254,4.254,0,0,0,.591.644.428.428,0,0,0,.241.053l-.3-.539-.53-.153Z" transform="translate(-85.301 -26.633)" fill="#ffb27d"/>
                <path id="Trazado_115523" data-name="Trazado 115523" d="M95.95,46.04l1.3.631a.23.23,0,0,1-.215.083,3.27,3.27,0,0,1-.561-.153l-.517-.556Z" transform="translate(-85.166 -25.874)" fill="#ffb27d"/>
              </g>
              <path id="Trazado_115524" data-name="Trazado 115524" d="M103.843,49.419,90.31,49.41v.3l13.415,0Z" transform="translate(-81.996 -27.768)" fill="#233862"/>
              <path id="Trazado_115525" data-name="Trazado 115525" d="M97.54,40.265l10.249,0,3.083-7.665-10.231,0Z" transform="translate(-86.059 -18.32)" fill="#233862"/>
              <path id="Trazado_115526" data-name="Trazado 115526" d="M113.756,40.726a.352.352,0,0,0-.346-.486.694.694,0,0,0-.626.486.352.352,0,0,0,.346.486A.694.694,0,0,0,113.756,40.726Z" transform="translate(-94.615 -22.614)" fill="#fff"/>
            </g>
            <g id="Grupo_111975" data-name="Grupo 111975" transform="translate(63.117 41.058)" opacity="0.5">
              <path id="Trazado_115527" data-name="Trazado 115527" d="M203.991,99.968l-2.834-3.618-.131-.171-.162-.031L187.782,93.74l-4.4,23.931,16.958,3.118,3.767-20.467.031-.171Z" transform="translate(-183.38 -93.74)" fill="#8c9df4"/>
            </g>
            <path id="Trazado_115528" data-name="Trazado 115528" d="M188.741,86.907l0,.171.806,20.8-17.23.666-.942-24.312,13.293-.512.162-.009.166.14,3.556,2.913Z" transform="translate(-113.519 -47.045)" fill="#00defc"/>
            <g id="Grupo_111977" data-name="Grupo 111977" transform="translate(35.029 44.18)">
              <path id="Trazado_115529" data-name="Trazado 115529" d="M148.108,104.61l-28.758,1.6a.107.107,0,0,0-.1.109l2.1,37.657a.107.107,0,0,0,.109.1l28.714-1.6a.107.107,0,0,0,.1-.109l-2.1-37.7a.064.064,0,0,0-.066-.061Z" transform="translate(-119.25 -102.972)" fill="#233862"/>
              <path id="Trazado_115530" data-name="Trazado 115530" d="M149.295,142.49l-24.356,1.529a1.324,1.324,0,0,1-1.406-1.239l-2.076-33.1a1.324,1.324,0,0,1,1.239-1.406l24.356-1.529a1.324,1.324,0,0,1,1.406,1.239l2.076,33.1A1.324,1.324,0,0,1,149.295,142.49Z" transform="translate(-120.489 -104.172)" fill="#ebf3fa"/>
              <g id="Grupo_111976" data-name="Grupo 111976" transform="translate(3.837 7.625)">
                <path id="Trazado_115531" data-name="Trazado 115531" d="M143.365,118.687l-15.32.964s-.013,0-.013-.013l-.022-.381s0-.013.013-.013l15.32-.964s.013,0,.013.013l.022.381S143.374,118.687,143.365,118.687Z" transform="translate(-128.01 -118.28)" fill="#bdd1f9"/>
                <path id="Trazado_115532" data-name="Trazado 115532" d="M143.835,126.2l-15.32.964s-.013,0-.013-.013l-.022-.381s0-.013.013-.013l15.32-.964s.013,0,.013.013l.026.381s0,.013-.013.013Z" transform="translate(-128.274 -122.501)" fill="#bdd1f9"/>
                <path id="Trazado_115533" data-name="Trazado 115533" d="M149.451,121.607l-21.176,1.327s-.013,0-.013-.013l-.022-.381s0-.013.013-.013l21.176-1.327s.013,0,.013.013l.022.381S149.46,121.607,149.451,121.607Z" transform="translate(-128.139 -119.921)" fill="#bdd1f9"/>
                <path id="Trazado_115534" data-name="Trazado 115534" d="M141.653,150.066l-10.424.653s-.013,0-.013-.013l-.026-.39s0-.013.013-.013l10.424-.653s.013,0,.013.013l.026.39s0,.013-.009.013Z" transform="translate(-129.797 -135.911)" fill="#bdd1f9"/>
                <path id="Trazado_115535" data-name="Trazado 115535" d="M145.409,145.752l-14.409.9s-.013,0-.013-.009l-.026-.39s0-.013.013-.013l14.409-.9s.013,0,.013.009l.026.39S145.418,145.752,145.409,145.752Z" transform="translate(-129.668 -133.488)" fill="#bdd1f9"/>
                <path id="Trazado_115536" data-name="Trazado 115536" d="M146.665,153.567l-15.32.964s-.013,0-.013-.013l-.022-.381s0-.013.013-.013l15.32-.964s.013,0,.013.013l.026.381s0,.013-.013.013Z" transform="translate(-129.865 -137.883)" fill="#bdd1f9"/>
                <path id="Trazado_115537" data-name="Trazado 115537" d="M148.607,157.072l-17.037,1.069s-.013,0-.013-.013l-.026-.385s0-.013.013-.013l17.037-1.069s.013,0,.013.013l.026.385s0,.013-.013.013Z" transform="translate(-129.988 -139.85)" fill="#bdd1f9"/>
                <path id="Trazado_115538" data-name="Trazado 115538" d="M143.156,164.522l-10.967.688s-.013,0-.013-.013l-.026-.385s0-.013.013-.013l10.967-.688s.013,0,.013.013l.026.385S143.165,164.522,143.156,164.522Z" transform="translate(-130.337 -144.038)" fill="#bdd1f9"/>
                <path id="Trazado_115539" data-name="Trazado 115539" d="M143.626,172.032l-10.967.688s-.013,0-.013-.013l-.026-.385s0-.013.013-.013l10.967-.688s.013,0,.013.013l.026.385S143.635,172.032,143.626,172.032Z" transform="translate(-130.601 -148.258)" fill="#bdd1f9"/>
                <path id="Trazado_115540" data-name="Trazado 115540" d="M147.588,167.682l-15.158.95s-.013,0-.013-.013l-.026-.385s0-.013.013-.013l15.158-.95s.013,0,.013.013l.026.385S147.6,167.682,147.588,167.682Z" transform="translate(-130.472 -145.814)" fill="#bdd1f9"/>
              </g>
              <path id="Trazado_115541" data-name="Trazado 115541" d="M148.088,100.87l-13.411.749a1.55,1.55,0,0,0-1.52,1.577l.114,2.028a.36.36,0,0,0,.39.324l15.872-.885a.356.356,0,0,0,.35-.364l-.114-2.028a1.551,1.551,0,0,0-1.682-1.4Z" transform="translate(-127.065 -100.87)" fill="#ff8c64"/>
            </g>
            <g id="Grupo_111981" data-name="Grupo 111981" transform="translate(47.475 41.497)">
              <path id="Trazado_115542" data-name="Trazado 115542" d="M220,135.565s-.28-.626-.46-.924-.95-1.165-1.082-.968-.657,1.524-.377,1.892-.018,1.016,1.371,1.406l.552-1.406Z" transform="translate(-187.198 -116.606)" fill="#ffb27d"/>
              <path id="Trazado_115543" data-name="Trazado 115543" d="M237.041,128.984s-7.1,5.926-9.872,5.378c-2.164-.429-5.589-1.515-5.589-1.515a2.186,2.186,0,0,0-.648,1.888s4.362,4.1,7.468,4.13c4.857.039,7.148-2.409,7.148-2.409l1.489-7.476Z" transform="translate(-188.818 -113.985)" fill="#ed7d2b"/>
              <path id="Trazado_115544" data-name="Trazado 115544" d="M275.718,270.38s-.206,3.324-.85,3.372c-.088,0-3.263,0-3.263,0l-4.056-.022a1.315,1.315,0,0,1,1.213-1.183,5.491,5.491,0,0,0,3.889-2.606c.758-1.647,3.07.434,3.07.434Z" transform="translate(-215.044 -192.855)" fill="#113c68"/>
              <path id="Trazado_115545" data-name="Trazado 115545" d="M269.081,219.6a8.492,8.492,0,0,1-2.194.412,8.045,8.045,0,0,1-2.05-.293,55.95,55.95,0,0,0-1.511-7.192c-.67-2.593-1.625-5.926-2.987-10.069a136.405,136.405,0,0,1-5.01-18.78.292.292,0,0,0-.009-.048h.013L266.9,178.54s-1.428,15.78.394,21.837a25.977,25.977,0,0,1,.661,2.9,116.336,116.336,0,0,1,1.126,16.319Z" transform="translate(-208.17 -141.839)" fill="#084a93"/>
              <path id="Trazado_115546" data-name="Trazado 115546" d="M263.337,212.517c-.67-2.593-1.625-5.926-2.987-10.069a136.4,136.4,0,0,1-5.01-18.78.271.271,0,0,1,0-.057l11.567-5.081s-1.428,15.78.394,21.838C267.56,201.213,263.337,212.517,263.337,212.517Z" transform="translate(-208.181 -141.833)" fill="#233862"/>
              <path id="Trazado_115547" data-name="Trazado 115547" d="M255.1,270.38s-.206,3.324-.85,3.372c-.088,0-3.263,0-3.263,0l-4.056-.022a1.315,1.315,0,0,1,1.213-1.183,5.491,5.491,0,0,0,3.889-2.606c.758-1.647,3.07.434,3.07.434Z" transform="translate(-203.455 -192.855)" fill="#15447c"/>
              <path id="Trazado_115548" data-name="Trazado 115548" d="M250.6,179.39a164.78,164.78,0,0,0,1.62,22.779c1.769,12.557,1.169,17.883,1.169,17.883a12.032,12.032,0,0,0,1.708.434,7.779,7.779,0,0,0,2.532-.293s2.531-12.561,1.8-18.842,3.469-21.562,3.469-21.562l-12.3-.4Z" transform="translate(-205.513 -142.317)" fill="#084a93"/>
              <path id="Trazado_115549" data-name="Trazado 115549" d="M263.17,118.264l-2.26,1.48-2.059-.583a4.894,4.894,0,0,1-.482-2.466,16.039,16.039,0,0,1,.079-1.642l3.048-1.345,1.139-.5s-.088.933-.1,1.069a7.8,7.8,0,0,0,.631,3.986Z" transform="translate(-209.884 -105.122)" fill="#ffb27d"/>
              <path id="Trazado_115550" data-name="Trazado 115550" d="M250.423,150.429c2.812,2.715,13.446,2.256,14.1-.731s-.714-25.451-5.514-26.861c-.994-.293-6.324,1.428-6.324,1.428a33.619,33.619,0,0,0-1.384,4.971c-.105.543-.416,6.281-.648,11.65-.109,2.51-.2,4.945-.245,6.723a18.842,18.842,0,0,0,.018,2.821Z" transform="translate(-205.393 -110.514)" fill="#ffb30b"/>
              <path id="Trazado_115551" data-name="Trazado 115551" d="M262.307,114.968c-.618,1.047-2.786,1.958-3.937,2.378a16.039,16.039,0,0,1,.079-1.642l3.048-1.345C262.171,114.351,262.579,114.5,262.307,114.968Z" transform="translate(-209.884 -105.768)" fill="#fca56b"/>
              <path id="Trazado_115552" data-name="Trazado 115552" d="M255.155,106.633s4.91,1.533,5.816-1.542,2.15-4.945-.946-6.048-4.051-.114-4.6.837-1.52,6.276-.263,6.754Z" transform="translate(-207.734 -96.885)" fill="#ffb27d"/>
              <path id="Trazado_115553" data-name="Trazado 115553" d="M256.382,97.444s.311,3.574,1.051,3.421,1.555-.486,1.445.591.718,2.926,1.783,2.921c2.286-.009,4.77-5.873,4.143-6.986-1.8-3.21-11.037-3.859-8.427.057Z" transform="translate(-208.505 -94.743)" fill="#163560"/>
              <path id="Trazado_115554" data-name="Trazado 115554" d="M256.95,121.117c.061-.026,3.653-1.638,4.073-1.5s.942,1.423.942,1.423l-6.324,1.428a3.16,3.16,0,0,1,1.305-1.353Z" transform="translate(-208.35 -108.719)" fill="#ed7d2b"/>
              <g id="Grupo_111979" data-name="Grupo 111979" transform="translate(0 2.256)">
                <path id="Trazado_115555" data-name="Trazado 115555" d="M207.042,160.3l20.129,18.951c.394.372.893.491,1.1.263l.679-.723c.215-.228.066-.718-.328-1.086L208.5,158.754c-.394-.372-.893-.491-1.1-.263l-.679.723C206.5,159.442,206.648,159.932,207.042,160.3Z" transform="translate(-180.797 -132.762)" fill="#1f4d84"/>
                <path id="Trazado_115556" data-name="Trazado 115556" d="M233.38,185.066l8.834,8.317c.394.372.893.491,1.1.263l.679-.723c.215-.228.066-.718-.328-1.086l-8.834-8.317-1.454,1.546Z" transform="translate(-195.839 -146.893)" fill="#739af0"/>
                <path id="Trazado_115557" data-name="Trazado 115557" d="M174.936,104.858a15.778,15.778,0,0,0-22.3-.679c-.083.079-.166.158-.25.241a15.778,15.778,0,1,0,22.547.438Zm-1.533,21.4a14.534,14.534,0,1,1,.626-20.541A14.513,14.513,0,0,1,173.4,126.254Z" transform="translate(-147.666 -99.893)" fill="#1f4d84"/>
                <g id="Grupo_111978" data-name="Grupo 111978" transform="translate(1.247 1.247)" opacity="0.5">
                  <path id="Trazado_115558" data-name="Trazado 115558" d="M154.462,127.228a14.53,14.53,0,1,0,.626-20.541A14.493,14.493,0,0,0,154.462,127.228Z" transform="translate(-150.513 -102.741)" fill="#b3cff9"/>
                </g>
              </g>
              <path id="Trazado_115559" data-name="Trazado 115559" d="M250.45,155.758c11.09-7.905,10.17-18.448,10.17-18.448-4.056,2.286-8.076,7.34-9.92,11.729-.109,2.51-.2,4.945-.245,6.723Z" transform="translate(-205.433 -118.667)" fill="#ed7d2b"/>
              <g id="Grupo_111980" data-name="Grupo 111980" transform="translate(30.883 13.747)">
                <path id="Trazado_115560" data-name="Trazado 115560" d="M221.364,170.1a2.96,2.96,0,0,1-1.415-.876s-.333.022.053.736c.031.061.105.21.158.32a.071.071,0,0,1-.057.1,7.485,7.485,0,0,0-1.774.035c-.118.026-.153.311-.149.434a1.116,1.116,0,0,0,.232.758,3.87,3.87,0,0,0,1.4.736,4.29,4.29,0,0,0,2.168-.272l.71-.328-.219-1.318-.18.039c-.285.061-.635-.285-.929-.359Z" transform="translate(-218.179 -150.348)" fill="#ffb27d"/>
                <path id="Trazado_115561" data-name="Trazado 115561" d="M244.174,126.134s9.964,1.9-2.93,16.328c-2.063,2.308-13.209,5.313-13.209,5.313s-1.13-.964-.561-1.739c0,0,7.673-5.571,9.36-6.46.758-.4,2.948-8.9,4.187-10.941a5.594,5.594,0,0,1,3.153-2.505Z" transform="translate(-223.313 -126.13)" fill="#ffb30b"/>
              </g>
              <path id="Trazado_115562" data-name="Trazado 115562" d="M220.217,135.318a5.2,5.2,0,0,1-.39-.95,5.231,5.231,0,0,0-.644-1.454c-.066-.066-.289.022-.315.311a1.677,1.677,0,0,0,.162.631,6.918,6.918,0,0,1,.21,1.253c.153.5.981.215.981.215Z" transform="translate(-187.682 -116.184)" fill="#ffb27d"/>
            </g>
          </g>
          <g id="Grupo_111983" data-name="Grupo 111983" transform="translate(8.752 78.794)">
            <path id="Trazado_115563" data-name="Trazado 115563" d="M113.468,182.913a2.772,2.772,0,0,0-3.092-3.013,3.947,3.947,0,0,1,1.55.832,3.98,3.98,0,0,0-4.485.679c-2.339,1.94-.885,6.8-1.6,7.722s-3.482,1.108-3.14,4.091,8.786,6.723,8.247,9.189c0,0,3.311-4.866.942-7.091a4.361,4.361,0,0,1,1.27,2.378s.311-2.523-1.292-3.329a5.93,5.93,0,0,1-2.461-3.793c.123-.469,4.06-7.665,4.06-7.665Z" transform="translate(-73.482 -179.9)" fill="#2c3a64"/>
            <path id="Trazado_115564" data-name="Trazado 115564" d="M115.175,219.83s2.518,10.411,4.989,12.491c1.485,1.253,5.9,4.121,5.9,4.121l-1.835.666s-6.123-2.067-7.494-3.679-5.124-9.688-5.124-9.688l3.57-3.911Z" transform="translate(-78.505 -202.342)" fill="#ffb27d"/>
            <path id="Trazado_115565" data-name="Trazado 115565" d="M133.221,261.24l-.591-1.463a4.151,4.151,0,0,0-3.85-2.6H117.87v36.479H163V264.1H137.461a4.571,4.571,0,0,1-4.24-2.86Z" transform="translate(-82.023 -223.333)" fill="#ffb30b"/>
            <path id="Trazado_115566" data-name="Trazado 115566" d="M63.726,248.961c.022.039.044.079.07.123.552.959,1.813,3.3,3.206,5.869.657,1.218,1.349,2.488,2,3.679,1.126,2.059,2.15,3.894,2.75,4.862.609.985,1.056,1.677,1.235,1.953h0a.473.473,0,0,1,.057.289,15.354,15.354,0,0,0,.039,2.58,19.8,19.8,0,0,0,6.469,12.824l1.673.245s-2.369-8.777-3.066-13.739a9.313,9.313,0,0,1-.127-1.967,20.607,20.607,0,0,0-.539-5.37,119.24,119.24,0,0,0-3.425-12.43c-.079-.241-2.431-8.76-2.431-8.76-1.975,1.726-9.184,2.44-9.184,2.44s-1.222,2.97,1.27,7.4Z" transform="translate(-50.71 -213.183)" fill="#084a93"/>
            <path id="Trazado_115567" data-name="Trazado 115567" d="M104.717,335.469H97.731a3.861,3.861,0,0,1,.2-1.875c.35-.775.85-.8.066-2.015a4.262,4.262,0,0,0,2.882.512,8.428,8.428,0,0,0,1.213,1.844c.455.328,2.492.21,2.632,1.533Z" transform="translate(-70.683 -265.148)" fill="#233862"/>
            <path id="Trazado_115568" data-name="Trazado 115568" d="M65.74,256.307c.022.039.044.079.07.123.552.959,3.53,6.46,4.918,9.027a37.216,37.216,0,0,1-.491-13.266l-4.5,4.121Z" transform="translate(-52.725 -220.529)" fill="#233862"/>
            <path id="Trazado_115569" data-name="Trazado 115569" d="M118.148,185.742a28.277,28.277,0,0,0-4.2,2.05c-1.892,2.1-1.353,4.84-.272,4.866.7.018.561,1.174.561,1.174l7.739-3.276s-.933-5.435-3.832-4.818Z" transform="translate(-79.117 -183.153)" fill="#2c3a64"/>
            <path id="Trazado_115570" data-name="Trazado 115570" d="M113.973,216.254A9.889,9.889,0,0,1,115,220.516a7.393,7.393,0,0,1-5.1,2.807s3.167-7.073,4.073-7.073Z" transform="translate(-77.544 -200.33)" fill="#00defc"/>
            <path id="Trazado_115571" data-name="Trazado 115571" d="M55.672,240.215l.022-1.305c-2.6.328-8.979-3.11-8.979-3.11s-2.724,1.813-3.1,6.986c-.184,2.527-1.331,13.205-1.463,16.393-.048,1.156-.061,1.98-.066,2.313h0a.439.439,0,0,1-.109.267,14.654,14.654,0,0,0-1.41,2.164c-3.972,7.393-1.9,17.436-1.9,17.436l.924-.237s3.359-10.411,5.554-14.917a9.476,9.476,0,0,1,.994-1.7,20.66,20.66,0,0,0,2.553-4.756c1.621-3.876,6.968-19.538,6.968-19.538Z" transform="translate(-37.208 -211.317)" fill="#084a93"/>
            <path id="Trazado_115572" data-name="Trazado 115572" d="M43.047,335.4H36.061a3.861,3.861,0,0,1,.2-1.875c.35-.775.9-1.126.766-2.067a2.52,2.52,0,0,0,2.177.832,7.541,7.541,0,0,0,1.213,1.572c.455.328,2.492.21,2.632,1.533Z" transform="translate(-36.023 -265.08)" fill="#233862"/>
            <path id="Trazado_115573" data-name="Trazado 115573" d="M79.757,219.748c-.937.162.153.907-1.139,1.047a23.268,23.268,0,0,0-4.73.736,1.059,1.059,0,0,0-.679.552c-.429,1.3-3.158,3.521-3.158,3.521-12.167-.552-12.951-5.978-12.951-5.978,7.9-7.669,14.615-11.852,20.164-12.368a9.863,9.863,0,0,1,4.029.425c1.94.863,3,3.5,3,3.5s-.977,7.962-4.546,8.571Z" transform="translate(-47.869 -195.252)" fill="#00defc"/>
            <path id="Trazado_115574" data-name="Trazado 115574" d="M100.109,225.518a23.269,23.269,0,0,0-4.73.736,19.381,19.381,0,0,1,2.457-10.634s1.87,7.6,2.269,9.9Z" transform="translate(-69.36 -199.975)" fill="#e8e8e8"/>
            <path id="Trazado_115575" data-name="Trazado 115575" d="M102.65,213.273s-4.621-.254-5.44,2.65,1.542,14.48,2.05,15.675c.929,2.177,5.6,8.654,5.6,8.654l1.5-.775s-3.009-9.487-3.679-10.424C101.621,227.581,104.034,214.539,102.65,213.273Z" transform="translate(-70.316 -198.653)" fill="#ffb27d"/>
            <path id="Trazado_115576" data-name="Trazado 115576" d="M116.116,272.841a7.114,7.114,0,0,1,.7.714c.311.381.039.517.929,2.238,0,0-.044.241-.241.2s-.867-.71-1.213-.661c0,0-.245.2-.276.876a16.458,16.458,0,0,1-.136,2.286c-.109.263-.911-1.1-1.305-2.08a13.442,13.442,0,0,1-.009-3.771l1.55.2Z" transform="translate(-80.08 -232.022)" fill="#ffb27d"/>
            <path id="Trazado_115577" data-name="Trazado 115577" d="M95.34,218.695c.013.07,4.371.8,7.1-.582,0,0,2.277-7.139-.977-6.8s-5.186,1.366-5.264,2.926a30.288,30.288,0,0,1-.854,4.454Z" transform="translate(-69.361 -197.549)" fill="#00defc"/>
            <path id="Trazado_115578" data-name="Trazado 115578" d="M112.094,205.846a2.915,2.915,0,0,0,.876,2.032c.578.6,1.415,1.06,2.006.473a6.361,6.361,0,0,0,.911-1.1c.508-.872,1.112-1.765,1.112-1.765l-2.615-2.291-.158-.136a6.666,6.666,0,0,1-1.949,2.212.6.6,0,0,0-.184.574Z" transform="translate(-78.774 -192.916)" fill="#ffb27d"/>
            <path id="Trazado_115579" data-name="Trazado 115579" d="M119.882,205.671s-.6.889-1.112,1.765c-1.625-1-1.629-3.013-1.5-4.056Z" transform="translate(-81.657 -193.096)" fill="#ed985f"/>
            <path id="Trazado_115580" data-name="Trazado 115580" d="M119.812,200.817s-3.946-2.194-2.54-4.634,1.844-4.362,4.424-3.061,2.527,2.51,2.256,3.438S120.876,201.325,119.812,200.817Z" transform="translate(-81.516 -187.095)" fill="#ffb27d"/>
            <path id="Trazado_115581" data-name="Trazado 115581" d="M124.089,194.714c-.18-1.082-.731-1.187-1.112-1.112a3.158,3.158,0,0,0-3.837-1.472,5.388,5.388,0,0,1-3.11,1.87,3.733,3.733,0,0,0,2.343,1.38,3.233,3.233,0,0,0,1.861-.149,10.421,10.421,0,0,1-2.676,1.007c2.488.228,4.853-2.045,5.1-2.291a3.577,3.577,0,0,1,.2,1.629c-.162.731-.815,2.058-.416,2.234,0,0,1.931-1.476,1.66-3.1Z" transform="translate(-80.989 -186.672)" fill="#2c3a64"/>
            <path id="Trazado_115582" data-name="Trazado 115582" d="M145.505,257.684s-1.1.828-.272,1.366,2.313.688,2.317.333C147.573,258.2,146.977,257.347,145.505,257.684Z" transform="translate(-97.229 -223.575)" fill="#ffb27d"/>
          </g>
        </g>
      </g>
    </g>
  </g>
</svg>
