<svg xmlns="http://www.w3.org/2000/svg" width="85" height="81.326" viewBox="0 0 85 81.326">
  <g id="Grupo_131832" data-name="Grupo 131832" transform="translate(-180 -2254)">
    <g id="computadora" transform="translate(180 2242.934)">
      <path id="Trazado_191666" data-name="Trazado 191666" d="M86.31,18.565H11.2a3.7,3.7,0,0,0-3.7,3.7V72.1h82.51V22.265A3.7,3.7,0,0,0,86.31,18.565Z" transform="translate(-6.256 -6.254)" fill="#dee4f0"/>
      <path id="Trazado_191667" data-name="Trazado 191667" d="M15.746,18.565H11.2a3.7,3.7,0,0,0-3.7,3.7V72.1h4.545V22.265A3.7,3.7,0,0,1,15.746,18.565Z" transform="translate(-6.256 -6.254)" fill="#b8bdc7"/>
      <rect id="Rect치ngulo_293740" data-name="Rect치ngulo 293740" width="18.927" height="13.097" transform="translate(33.036 74.168)" fill="#ccc"/>
      <rect id="Rect치ngulo_293741" data-name="Rect치ngulo 293741" width="4.981" height="13.097" transform="translate(33.037 74.168)" fill="#bcbbb8"/>
      <path id="Trazado_191668" data-name="Trazado 191668" d="M34.878,91.592v33.6a1.263,1.263,0,0,0,1.261,1.261h70.9a1.263,1.263,0,0,0,1.261-1.261v-33.6Z" transform="translate(-29.088 -67.157)" fill="#b9ddfc"/>
      <path id="Trazado_191669" data-name="Trazado 191669" d="M39.936,125.189v-33.6H34.878v33.6a1.263,1.263,0,0,0,1.261,1.261H41.2A1.263,1.263,0,0,1,39.936,125.189Z" transform="translate(-29.088 -67.157)" fill="#8dc9fc"/>
      <path id="Trazado_191670" data-name="Trazado 191670" d="M7.5,328.941v7.192a3.7,3.7,0,0,0,3.7,3.7H86.309a3.7,3.7,0,0,0,3.7-3.7v-7.192Z" transform="translate(-6.255 -265.103)" fill="#efefef"/>
      <path id="Trazado_191671" data-name="Trazado 191671" d="M12.045,336.133v-7.192H7.5v7.192a3.7,3.7,0,0,0,3.7,3.7h4.545A3.7,3.7,0,0,1,12.045,336.133Z" transform="translate(-6.255 -265.103)" fill="#ddd"/>
      <path id="Trazado_191672" data-name="Trazado 191672" d="M196.589,470.6H172.732a2.273,2.273,0,0,1-2.273-2.273h0a2.273,2.273,0,0,1,2.273-2.273h23.857a2.273,2.273,0,0,1,2.273,2.273h0A2.273,2.273,0,0,1,196.589,470.6Z" transform="translate(-142.16 -379.454)" fill="#efefef"/>
      <path id="Trazado_191673" data-name="Trazado 191673" d="M177.979,468.328a2.273,2.273,0,0,1,2.273-2.273h-7.52a2.273,2.273,0,0,0,0,4.545h7.52A2.273,2.273,0,0,1,177.979,468.328Z" transform="translate(-142.16 -379.454)" fill="#ddd"/>
      <path id="Trazado_191674" data-name="Trazado 191674" d="M34.878,47.2v7.829H108.3V47.2a1.263,1.263,0,0,0-1.261-1.261H36.14A1.263,1.263,0,0,0,34.878,47.2Z" transform="translate(-29.088 -29.087)" fill="#ffc952"/>
      <path id="Trazado_191675" data-name="Trazado 191675" d="M41.2,45.943H36.14A1.263,1.263,0,0,0,34.879,47.2v7.829h5.058V47.2A1.263,1.263,0,0,1,41.2,45.943Z" transform="translate(-29.089 -29.087)" fill="#ffb30b"/>
      <path id="Trazado_191676" data-name="Trazado 191676" d="M89.52,131.26H66.859a1.515,1.515,0,0,0-1.515,1.515v20.38a1.515,1.515,0,0,0,1.515,1.515H89.52a1.515,1.515,0,0,0,1.515-1.515v-20.38A1.515,1.515,0,0,0,89.52,131.26Z" transform="translate(-54.496 -100.24)" fill="#65eafc"/>
      <path id="Trazado_191677" data-name="Trazado 191677" d="M70.325,153.155v-20.38a1.515,1.515,0,0,1,1.515-1.515H66.859a1.515,1.515,0,0,0-1.515,1.515v20.38a1.515,1.515,0,0,0,1.515,1.515H71.84A1.515,1.515,0,0,1,70.325,153.155Z" transform="translate(-54.496 -100.24)" fill="#00defc"/>
      <path id="Trazado_191678" data-name="Trazado 191678" d="M248.593,355.968a1.141,1.141,0,0,0,.113.214,1.228,1.228,0,0,0,.156.189,1.211,1.211,0,0,0,.189.156,1.243,1.243,0,0,0,.214.115,1.309,1.309,0,0,0,.234.07,1.19,1.19,0,0,0,.242.025,1.248,1.248,0,0,0,.88-.365,1.224,1.224,0,0,0,.156-.189,1.244,1.244,0,0,0,.115-.214,1.288,1.288,0,0,0,.07-.232,1.218,1.218,0,0,0,.025-.244,1.231,1.231,0,0,0-.025-.244,1.282,1.282,0,0,0-.07-.232,1.256,1.256,0,0,0-.115-.214,1.248,1.248,0,0,0-1.278-.53,1.3,1.3,0,0,0-.234.07,1.256,1.256,0,0,0-.214.115,1.272,1.272,0,0,0-.345.345,1.15,1.15,0,0,0-.113.214,1.183,1.183,0,0,0-.071.232,1.218,1.218,0,0,0-.025.244,1.234,1.234,0,0,0,.025.244A1.17,1.17,0,0,0,248.593,355.968Z" transform="translate(-207.243 -286.208)"/>
      <path id="Trazado_191679" data-name="Trazado 191679" d="M57.941,67.776a1.343,1.343,0,0,0,.114.216,1.313,1.313,0,0,0,.155.189,1.293,1.293,0,0,0,.189.154,1.357,1.357,0,0,0,.216.115,1.28,1.28,0,0,0,.232.071,1.332,1.332,0,0,0,.244.023,1.22,1.22,0,0,0,.476-.095,1.341,1.341,0,0,0,.214-.115,1.421,1.421,0,0,0,.189-.154,1.2,1.2,0,0,0,.155-.189,1.329,1.329,0,0,0,.114-.216,1.244,1.244,0,0,0,.071-.232,1.206,1.206,0,0,0,.025-.244,1.242,1.242,0,0,0-1.721-1.149,1.223,1.223,0,0,0-.216.115,1.2,1.2,0,0,0-.189.154,1.255,1.255,0,0,0-.364.88,1.353,1.353,0,0,0,.023.244A1.257,1.257,0,0,0,57.941,67.776Z" transform="translate(-48.243 -45.861)"/>
      <path id="Trazado_191680" data-name="Trazado 191680" d="M86.392,67.776a1.343,1.343,0,0,0,.114.216,1.324,1.324,0,0,0,.154.189,1.3,1.3,0,0,0,.189.154,1.285,1.285,0,0,0,.448.186,1.284,1.284,0,0,0,.486,0,1.271,1.271,0,0,0,.232-.071,1.289,1.289,0,0,0,.216-.115,1.422,1.422,0,0,0,.189-.154,1.3,1.3,0,0,0,.154-.189,1.33,1.33,0,0,0,.115-.216,1.256,1.256,0,0,0,.071-.232,1.2,1.2,0,0,0,.023-.244,1.241,1.241,0,0,0-1.72-1.149,1.168,1.168,0,0,0-.216.115,1.211,1.211,0,0,0-.189.154,1.255,1.255,0,0,0-.363.88,1.353,1.353,0,0,0,.023.244A1.243,1.243,0,0,0,86.392,67.776Z" transform="translate(-71.971 -45.861)"/>
      <path id="Trazado_191681" data-name="Trazado 191681" d="M114.836,67.77a1.234,1.234,0,0,0,.115.216,1.211,1.211,0,0,0,.154.189,1.327,1.327,0,0,0,.189.154,1.267,1.267,0,0,0,.214.115,1.341,1.341,0,0,0,.234.071,1.319,1.319,0,0,0,.242.023,1.339,1.339,0,0,0,.244-.023,1.265,1.265,0,0,0,.232-.071,1.29,1.29,0,0,0,.216-.115,1.443,1.443,0,0,0,.189-.154,1.3,1.3,0,0,0,.154-.189,1.33,1.33,0,0,0,.115-.216,1.269,1.269,0,0,0,.071-.232,1.35,1.35,0,0,0,.023-.244,1.256,1.256,0,0,0-.363-.88,1.21,1.21,0,0,0-.189-.154,1.149,1.149,0,0,0-.216-.115,1.265,1.265,0,0,0-.232-.071,1.2,1.2,0,0,0-.487,0,1.314,1.314,0,0,0-.234.071,1.148,1.148,0,0,0-.214.115,1.132,1.132,0,0,0-.189.154,1.25,1.25,0,0,0-.365.88,1.233,1.233,0,0,0,.025.244A1.131,1.131,0,0,0,114.836,67.77Z" transform="translate(-95.691 -45.854)"/>
      <path id="Trazado_191682" data-name="Trazado 191682" d="M150.935,68.541h40.34a1.245,1.245,0,1,0,0-2.49h-40.34a1.245,1.245,0,0,0,0,2.49Z" transform="translate(-124.839 -45.857)"/>
      <path id="Trazado_191683" data-name="Trazado 191683" d="M422.4,68.541h3.241a1.245,1.245,0,0,0,0-2.49H422.4a1.245,1.245,0,0,0,0,2.49Z" transform="translate(-351.237 -45.857)"/>
      <path id="Trazado_191684" data-name="Trazado 191684" d="M27.377,40.948V80.862a2.51,2.51,0,0,0,2.507,2.507h70.9a2.509,2.509,0,0,0,2.507-2.507V40.948a2.509,2.509,0,0,0-2.507-2.507h-70.9A2.51,2.51,0,0,0,27.377,40.948Zm73.4,39.931h-70.9a.018.018,0,0,1-.016-.016V50.022H100.8v30.84A.019.019,0,0,1,100.78,80.878Zm.016-39.931v6.583H29.867V40.948a.018.018,0,0,1,.016-.016h70.9A.018.018,0,0,1,100.8,40.948Z" transform="translate(-22.832 -22.83)"/>
      <path id="Trazado_191685" data-name="Trazado 191685" d="M267.541,165.846a1.246,1.246,0,0,0-1.761,0l-4.816,4.816a1.246,1.246,0,0,0,0,1.761l4.816,4.816a1.245,1.245,0,1,0,1.761-1.761l-3.935-3.935,3.935-3.935A1.246,1.246,0,0,0,267.541,165.846Z" transform="translate(-217.335 -128.78)"/>
      <path id="Trazado_191686" data-name="Trazado 191686" d="M388.663,165.846a1.245,1.245,0,0,0-1.761,1.761l3.935,3.935-3.935,3.935a1.245,1.245,0,0,0,1.761,1.761l4.816-4.816a1.246,1.246,0,0,0,0-1.761Z" transform="translate(-322.366 -128.78)"/>
      <path id="Trazado_191687" data-name="Trazado 191687" d="M327.592,152.4a1.245,1.245,0,0,0-1.6.744L320.587,168a1.245,1.245,0,1,0,2.34.852l5.409-14.861A1.245,1.245,0,0,0,327.592,152.4Z" transform="translate(-267.302 -117.805)"/>
      <path id="Trazado_191688" data-name="Trazado 191688" d="M83.265,123.76H60.6a2.763,2.763,0,0,0-2.76,2.76V146.9a2.763,2.763,0,0,0,2.76,2.76H65.63a1.245,1.245,0,0,0,0-2.49H60.6a.27.27,0,0,1-.27-.27V126.52a.27.27,0,0,1,.27-.27H83.265a.27.27,0,0,1,.27.27V146.9a.27.27,0,0,1-.27.27H71.441a1.245,1.245,0,0,0,0,2.49H83.265a2.763,2.763,0,0,0,2.76-2.76V126.52A2.763,2.763,0,0,0,83.265,123.76Z" transform="translate(-48.241 -93.985)"/>
      <path id="Trazado_191689" data-name="Trazado 191689" d="M83.755,55.73a1.245,1.245,0,0,0-1.245,1.245v5.619H2.49V16.012a2.458,2.458,0,0,1,2.455-2.455H69.879a1.245,1.245,0,0,0,0-2.49H4.946A4.951,4.951,0,0,0,0,16.012V71.031q0,.128.006.254a4.952,4.952,0,0,0,4.939,4.692H31.791v9.38h-1.22a3.518,3.518,0,0,0,0,7.035H54.429a3.518,3.518,0,0,0,0-7.035h-1.22v-9.38H80.054A4.951,4.951,0,0,0,85,71.031V56.975A1.245,1.245,0,0,0,83.755,55.73Zm-28.3,33.145A1.028,1.028,0,0,1,54.429,89.9H30.571a1.027,1.027,0,1,1,0-2.055H54.429A1.028,1.028,0,0,1,55.456,88.875Zm-4.738-3.518H34.282v-9.38H50.718ZM82.51,71.031a2.458,2.458,0,0,1-2.455,2.455H4.946A2.455,2.455,0,0,1,2.49,71.031V65.084H82.51Z" transform="translate(0 -0.001)"/>
      <path id="Trazado_191690" data-name="Trazado 191690" d="M454.027,11.066h-4.365a1.245,1.245,0,0,0,0,2.49h4.365a2.458,2.458,0,0,1,2.455,2.455V51.163a1.245,1.245,0,1,0,2.49,0V16.011A4.951,4.951,0,0,0,454.027,11.066Z" transform="translate(-373.973)"/>
    </g>
  </g>
</svg>
