<svg xmlns="http://www.w3.org/2000/svg" width="329.594" height="224.727" viewBox="0 0 329.594 224.727">
  <g id="Grupo_131832" data-name="Grupo 131832" transform="translate(-1053 -2692)">
    <g id="scrum" transform="translate(1043.55 2663.34)">
      <path id="Trazado_120226" data-name="Trazado 120226" d="M140.132,30.834l-1.966,1.146a1.408,1.408,0,0,0-.509,1.909l.433.745c.515.885.286,1.279.134,1.419-.439.395-.846.821-1.254,1.241-.121.121-.5.547-1.5-.032l-.687-.4a1.4,1.4,0,0,0-1.909.5l-1.146,1.966a1.4,1.4,0,0,0,.509,1.909l.681.395c.942.547.916.827.8,1.222-.165.547-.337,1.095-.458,1.655-.108.5-.057.866-1.336.866h-.783a1.4,1.4,0,0,0-1.394,1.394v2.278a1.4,1.4,0,0,0,1.394,1.394h.783c1.279,0,1.228.356,1.336.866.121.566.293,1.114.458,1.655.121.4.14.675-.8,1.222l-.681.395a1.407,1.407,0,0,0-.509,1.909l1.146,1.966a1.4,1.4,0,0,0,1.909.5l.687-.4c1-.585,1.381-.159,1.5-.032.407.426.815.846,1.254,1.241.159.146.382.541-.134,1.426l-.433.745a1.4,1.4,0,0,0,.509,1.909l1.966,1.146a1.4,1.4,0,0,0,1.909-.509l.433-.745c.522-.9,1.031-.859,1.247-.789.63.2,1.209.331,1.858.5.235.064.643.235.643,1.3v.8a1.4,1.4,0,0,0,1.394,1.394h2.278a1.4,1.4,0,0,0,1.394-1.394v-.8c0-1.069.407-1.241.643-1.3.649-.172,1.228-.3,1.858-.5.216-.07.732-.1,1.247.789l.433.745a1.407,1.407,0,0,0,1.909.509l1.966-1.146a1.4,1.4,0,0,0,.5-1.909l-.433-.745c-.515-.885-.293-1.279-.134-1.426.439-.395.846-.815,1.254-1.241.121-.127.5-.554,1.5.032l.687.4a1.4,1.4,0,0,0,1.909-.5l1.146-1.966a1.4,1.4,0,0,0-.5-1.909l-.681-.395c-.936-.547-.916-.827-.8-1.222.165-.547.337-1.095.458-1.655.108-.5.057-.866,1.336-.866h.783a1.4,1.4,0,0,0,1.394-1.394V46.769a1.393,1.393,0,0,0-1.394-1.394h-.783c-1.279,0-1.228-.363-1.336-.866-.121-.566-.293-1.114-.458-1.655-.121-.4-.14-.675.8-1.222l.681-.395a1.4,1.4,0,0,0,.5-1.909l-1.146-1.966a1.4,1.4,0,0,0-1.909-.5l-.687.4c-1,.579-1.381.153-1.5.032-.407-.426-.815-.846-1.254-1.241-.159-.14-.382-.541.134-1.419l.433-.745a1.4,1.4,0,0,0-.5-1.909l-1.966-1.146a1.4,1.4,0,0,0-1.909.5l-.433.745c-.522.9-1.031.859-1.247.789-.63-.2-1.209-.331-1.858-.5-.235-.064-.643-.235-.643-1.3v-.8a1.393,1.393,0,0,0-1.394-1.394h-2.278a1.393,1.393,0,0,0-1.394,1.394v.8c0,1.069-.407,1.241-.643,1.3-.649.172-1.228.3-1.858.5-.216.07-.726.1-1.247-.789l-.433-.745a1.4,1.4,0,0,0-1.909-.5h0Zm8.623,14.084a3.007,3.007,0,1,1-3.01,3,3.005,3.005,0,0,1,3.01-3Zm-9.425,3a.643.643,0,1,1,1.286,0,8.148,8.148,0,0,0,8.14,8.14.643.643,0,0,1,0,1.286,9.43,9.43,0,0,1-9.431-9.425h0ZM158.06,46.4a.641.641,0,1,1-1.266.2,8.148,8.148,0,0,0-6.638-6.708.642.642,0,0,1,.216-1.266,9.437,9.437,0,0,1,7.694,7.764h0Zm-9.3-9.648a11.169,11.169,0,1,1-11.169,11.169A11.171,11.171,0,0,1,148.756,36.752Z" transform="translate(-43.737 -0.08)" fill="#a3cffb" fill-rule="evenodd"/>
      <path id="Trazado_120227" data-name="Trazado 120227" d="M178.959,374.363c85.762,0,155.709-2.915,155.709-6.491s-69.947-6.491-155.709-6.491S23.25,364.295,23.25,367.871s69.947,6.491,155.709,6.491Z" transform="translate(-5.018 -120.976)" fill="#d1deed" fill-rule="evenodd"/>
      <path id="Trazado_120228" data-name="Trazado 120228" d="M306.351,41.033a5.6,5.6,0,1,1,5.6-5.6,5.6,5.6,0,0,1-5.6,5.6ZM68.629,175.264H38.718A29.354,29.354,0,0,0,9.45,204.532h0A29.358,29.358,0,0,0,38.718,233.8H291.644a47.542,47.542,0,0,0,47.4-47.4h0a47.538,47.538,0,0,0-47.4-47.4h0a20.1,20.1,0,0,1-20.04-20.04h0a20.1,20.1,0,0,1,20.04-20.04h24.12A20.9,20.9,0,0,0,336.6,78.085h0a20.9,20.9,0,0,0-20.836-20.836h-30.5a8.14,8.14,0,0,1-8.114-8.114h0a8.136,8.136,0,0,1,8.114-8.114h5.378a5.617,5.617,0,0,0,5.6-5.6h0a5.617,5.617,0,0,0-5.6-5.6H255.356c-7.427,0-8.261,8.776-27.022,8.776H184.817a7.331,7.331,0,0,0-7.306,7.306h0a7.327,7.327,0,0,0,7.306,7.306h7.013a10.616,10.616,0,0,1,10.583,10.583h0a10.616,10.616,0,0,1-10.583,10.583H170.715c-28.511,0-32.539,7.452-37.529,22.268s-30.923,16.012-30.923,16.012H66.8A16,16,0,0,0,50.854,128.6h0A16,16,0,0,0,66.8,144.551h1.826a15.389,15.389,0,0,1,15.344,15.344h0a15.389,15.389,0,0,1-15.344,15.344h0Z" transform="translate(0 -0.422)" fill="#fff" fill-rule="evenodd"/>
      <rect id="Rectángulo_40459" data-name="Rectángulo 40459" width="208.149" height="7.815" transform="translate(64.302 53.594)" fill="#4f8dcb"/>
      <rect id="Rectángulo_40460" data-name="Rectángulo 40460" width="208.149" height="7.815" transform="translate(64.302 177.967)" fill="#4f8dcb"/>
      <rect id="Rectángulo_40461" data-name="Rectángulo 40461" width="192.856" height="116.564" transform="translate(71.951 61.403)" fill="#eef8fb"/>
      <path id="Trazado_120229" data-name="Trazado 120229" d="M107.745,196.314H300.206V80.215H107.745V196.307h0Zm192.659.471H107.35V79.75H300.594V196.785h-.2Z" transform="translate(-35.596 -18.576)" fill="#4f8dcb" fill-rule="evenodd"/>
      <path id="Trazado_120230" data-name="Trazado 120230" d="M233.387,286.02l44.084,45.216H280.6a.914.914,0,0,1,.91.91v2.985a.914.914,0,0,1-.91.91H267.759a.914.914,0,0,1-.91-.91v-2.985a.914.914,0,0,1,.91-.91h3.729l-25.825-26.493-12.276,8.725v3.608h-7.325v-3.6l-12.276-8.725-25.825,26.494H191.7a.914.914,0,0,1,.91.91v2.985a.914.914,0,0,1-.91.91H178.86a.91.91,0,0,1-.91-.91v-2.985a.914.914,0,0,1,.91-.91h3.125l44.084-45.216V275.57h7.325v10.462h0Zm0,22.847,8.973-7.516-8.973-9.2v16.718Zm-7.325-16.718-8.967,9.2,8.967,7.516Z" transform="translate(-61.266 -89.776)" fill="#084a93" fill-rule="evenodd"/>
      <g id="Grupo_113747" data-name="Grupo 113747" transform="translate(147.461 136.346)">
        <g id="Grupo_113744" data-name="Grupo 113744" transform="translate(0 6.257)">
          <path id="Trazado_120231" data-name="Trazado 120231" d="M226.85,208.24l20.4,3.831-.165,25.73-20.066-4.162Z" transform="translate(-226.506 -207.897)" fill="#ffb30b" fill-rule="evenodd"/>
          <path id="Trazado_120232" data-name="Trazado 120232" d="M246.885,237.942a.378.378,0,0,1-.07-.006l-20.066-4.162a.346.346,0,0,1-.274-.331l-.165-25.4a.339.339,0,0,1,.121-.261.347.347,0,0,1,.28-.076l20.4,3.831a.341.341,0,0,1,.28.337l-.165,25.73a.325.325,0,0,1-.127.261.346.346,0,0,1-.216.076Zm-19.728-4.779,19.391,4.022.165-25.03L227,208.451l.165,24.705Z" transform="translate(-226.31 -207.701)" fill="#619fdf"/>
        </g>
        <g id="Grupo_113745" data-name="Grupo 113745" transform="translate(20.231 4.467)">
          <path id="Trazado_120233" data-name="Trazado 120233" d="M275.632,205.43l-16.827,5.619-.165,25.73,17.157-5.327Z" transform="translate(-258.296 -205.086)" fill="#c2def9" fill-rule="evenodd"/>
          <path id="Trazado_120234" data-name="Trazado 120234" d="M258.444,236.92a.385.385,0,0,1-.2-.064.338.338,0,0,1-.14-.28l.165-25.73a.334.334,0,0,1,.235-.318l16.82-5.619a.329.329,0,0,1,.305.045.335.335,0,0,1,.14.274l.165,26.023a.329.329,0,0,1-.242.325L258.539,236.9a.28.28,0,0,1-.1.013Zm.509-25.825-.165,25.017L275.257,231l-.165-25.3-16.146,5.4Z" transform="translate(-258.1 -204.889)" fill="#619fdf"/>
        </g>
        <g id="Grupo_113746" data-name="Grupo 113746" transform="translate(0.223)">
          <path id="Trazado_120235" data-name="Trazado 120235" d="M264.073,202.885,247.247,208.5l-20.4-3.831,18.316-6.243Z" transform="translate(-226.729 -198.074)" fill="#eef8fb" fill-rule="evenodd"/>
          <path id="Trazado_120236" data-name="Trazado 120236" d="M247.2,208.651l-.089-.019-20.4-3.831-.051-.656,18.411-6.275,19,4.48.032.656-16.9,5.651Zm-19.086-4.277,19.041,3.577,15.6-5.212-17.641-4.156-17,5.8Z" transform="translate(-226.66 -197.87)" fill="#619fdf"/>
        </g>
      </g>
      <g id="Grupo_113748" data-name="Grupo 113748" transform="translate(173.929 86.681)">
        <path id="Trazado_120237" data-name="Trazado 120237" d="M301.607,119.85a20.361,20.361,0,0,1,19.671,19.735l-5.371-.013a15,15,0,0,0-14.3-14.351V119.85Zm19.671,21.09a20.361,20.361,0,0,1-19.671,19.608v-5.371a15,15,0,0,0,14.3-14.255l5.371.013h0Zm-21.027,19.608a20.357,20.357,0,0,1-19.671-19.716l5.371.013a15,15,0,0,0,14.3,14.338v5.371h0ZM280.58,139.47a20.358,20.358,0,0,1,19.671-19.62v5.371a15,15,0,0,0-14.3,14.268l-5.371-.013Z" transform="translate(-272.51 -119.837)" fill="#a3cffb" fill-rule="evenodd"/>
        <path id="Trazado_120238" data-name="Trazado 120238" d="M301.145,119.84a20.46,20.46,0,0,1,19.767,19.824v.1h-.1l-5.371-.013h-.089v-.089A14.912,14.912,0,0,0,301.139,125.4h-.089V119.84h.1Zm13.67,6.141a20.185,20.185,0,0,0-13.581-5.944v5.18a15.088,15.088,0,0,1,14.3,14.345l5.18.013a20.245,20.245,0,0,0-5.9-13.6h0Zm6.09,15.057a20.456,20.456,0,0,1-19.76,19.7h-.1v-5.556h.089a14.92,14.92,0,0,0,14.211-14.173v-.089h.1l5.371.013h.1v.1h0Zm-6.135,13.606a20.231,20.231,0,0,0,5.944-13.517l-5.18-.013A15.1,15.1,0,0,1,301.24,155.37v5.18a20.2,20.2,0,0,0,13.536-5.9h0Zm-14.994,6.09a20.449,20.449,0,0,1-19.767-19.811v-.1h.1l5.371.013h.089v.089a14.9,14.9,0,0,0,14.211,14.243h.089v5.562h-.1ZM286.113,154.6a20.206,20.206,0,0,0,13.574,5.938v-5.18a15.09,15.09,0,0,1-14.3-14.332l-5.18-.013a20.177,20.177,0,0,0,5.906,13.587h0Zm-6.1-15.045a20.455,20.455,0,0,1,19.76-19.716h.1V125.4h-.089a14.907,14.907,0,0,0-14.211,14.179v.089h-.1l-5.371-.013h-.1v-.1h0Zm6.129-13.619a20.181,20.181,0,0,0-5.938,13.524l5.18.013a15.084,15.084,0,0,1,14.294-14.262v-5.18a20.211,20.211,0,0,0-13.543,5.906Z" transform="translate(-272.303 -119.834)" fill="#fff" fill-rule="evenodd"/>
        <path id="Trazado_120239" data-name="Trazado 120239" d="M327.891,152.9a14.993,14.993,0,0,1-14.338,14.3l-.013,5.371A20.367,20.367,0,0,0,333.262,152.9Z" transform="translate(-284.495 -131.854)" fill="#4f8dcb" fill-rule="evenodd"/>
        <path id="Trazado_120240" data-name="Trazado 120240" d="M327.515,153.071a15.09,15.09,0,0,1-14.325,14.3l-.013,5.18a20.265,20.265,0,0,0,19.525-19.48h-5.18Zm-4.544,9.775a14.858,14.858,0,0,0,4.359-9.877v-.089h5.562v.1a20.461,20.461,0,0,1-19.818,19.767h-.1v-.1l.013-5.371v-.089h.089a14.881,14.881,0,0,0,9.883-4.34Z" transform="translate(-284.291 -131.847)" fill="#fff" fill-rule="evenodd"/>
        <path id="Trazado_120241" data-name="Trazado 120241" d="M313.62,125.218a14.992,14.992,0,0,1,14.3,14.332l5.371.013A20.367,20.367,0,0,0,313.62,119.84v5.371Z" transform="translate(-284.524 -119.834)" fill="#ffb30b" fill-rule="evenodd"/>
        <path id="Trazado_120242" data-name="Trazado 120242" d="M313.251,125.208a15.089,15.089,0,0,1,14.3,14.332l5.18.013a20.265,20.265,0,0,0-19.48-19.525v5.18h0Zm9.775,4.544a14.871,14.871,0,0,0-9.877-4.359h-.089V119.83h.1a20.461,20.461,0,0,1,19.767,19.811v.1h-.1l-5.371-.013h-.089v-.089a14.822,14.822,0,0,0-4.34-9.883Z" transform="translate(-284.32 -119.83)" fill="#fff" fill-rule="evenodd"/>
        <path id="Trazado_120243" data-name="Trazado 120243" d="M285.938,139.521a14.992,14.992,0,0,1,14.332-14.3l.013-5.371a20.368,20.368,0,0,0-19.722,19.678h5.371Z" transform="translate(-272.503 -119.837)" fill="#1e77d0" fill-rule="evenodd"/>
        <path id="Trazado_120244" data-name="Trazado 120244" d="M285.388,139.511a15.09,15.09,0,0,1,14.325-14.3l.013-5.18a20.265,20.265,0,0,0-19.525,19.48h5.18Zm4.544-9.775a14.841,14.841,0,0,0-4.359,9.877v.089H280.01v-.1a20.461,20.461,0,0,1,19.818-19.767h.1v.1l-.013,5.371v.089h-.089a14.881,14.881,0,0,0-9.883,4.34Z" transform="translate(-272.303 -119.834)" fill="#fff" fill-rule="evenodd"/>
        <rect id="Rectángulo_40462" data-name="Rectángulo 40462" width="26.474" height="5.257" transform="translate(0.356 35.359)" fill="#619fdf"/>
        <path id="Trazado_120245" data-name="Trazado 120245" d="M294.381,175.561h-26.29v5.066h26.29v-5.066ZM268,175.37h26.57v5.441H267.9V175.37Z" transform="translate(-267.9 -140.024)" fill="#fff" fill-rule="evenodd"/>
        <path id="Trazado_120246" data-name="Trazado 120246" d="M300.241,167.171a14.993,14.993,0,0,1-14.3-14.338l-5.371-.013a20.353,20.353,0,0,0,19.671,19.716l29.854-.1v2.527c0,.8-.2,1.012.445.636l4.786-2.762,4.448-2.571c.694-.4.98-.331.331-.706L335.32,166.8l-4.455-2.571c-.694-.4-.776-.681-.776.064v2.883H300.235v-.013Z" transform="translate(-272.507 -131.825)" fill="#ffb30b" fill-rule="evenodd"/>
        <path id="Trazado_120247" data-name="Trazado 120247" d="M299.685,167.353a15.09,15.09,0,0,1-14.3-14.332l-5.18-.013a20.271,20.271,0,0,0,19.576,19.531l29.854-.108h.1v2.622c0,.191-.013.35-.019.471a.67.67,0,0,0,0,.267h0s.089-.045.325-.178h0l4.786-2.762h0l4.448-2.571c.165-.1.305-.165.42-.223a.743.743,0,0,0,.229-.134s-.083-.057-.318-.191h0l-4.786-2.762h0l-4.448-2.571h0c-.165-.1-.293-.185-.4-.255a.886.886,0,0,0-.229-.134v3.347H299.691v-.019h0Zm-9.775-4.544a14.871,14.871,0,0,0,9.877,4.359h.089v.013h29.663v-2.787c0-.407.032-.56.2-.56a.69.69,0,0,1,.337.172c.1.07.229.153.388.248h0l4.448,2.571h0l4.786,2.762h0c.35.2.471.312.388.452-.045.076-.153.127-.312.2-.108.051-.248.121-.407.21l-4.448,2.571h0l-4.786,2.762h0c-.35.2-.5.255-.585.115h0a.731.731,0,0,1-.019-.375c.006-.121.019-.274.019-.458v-2.431l-29.758.1h0a20.449,20.449,0,0,1-19.767-19.811v-.1h.1l5.371.013h.089v.089a14.881,14.881,0,0,0,4.34,9.883Z" transform="translate(-272.307 -131.829)" fill="#fff" fill-rule="evenodd"/>
      </g>
      <g id="Grupo_113749" data-name="Grupo 113749" transform="translate(123.124 86.681)">
        <path id="Trazado_120248" data-name="Trazado 120248" d="M221.767,119.846a20.359,20.359,0,0,1,19.671,19.729l-5.371-.013a15,15,0,0,0-14.3-14.351V119.84h0Zm19.671,21.09a20.371,20.371,0,0,1-19.671,19.614V155.18a15,15,0,0,0,14.3-14.255l5.371.013h0Zm-21.027,19.614a20.358,20.358,0,0,1-19.671-19.722l5.371.013a14.992,14.992,0,0,0,14.3,14.332v5.371h0ZM200.74,139.467a20.358,20.358,0,0,1,19.671-19.62v5.371a15,15,0,0,0-14.3,14.268l-5.371-.013Z" transform="translate(-192.677 -119.834)" fill="#a3cffb" fill-rule="evenodd"/>
        <path id="Trazado_120249" data-name="Trazado 120249" d="M221.309,119.836a20.46,20.46,0,0,1,19.767,19.824v.1h-.1l-5.371-.013h-.089v-.089A14.912,14.912,0,0,0,221.3,125.4h-.089v-5.562h.1Zm13.67,6.135a20.212,20.212,0,0,0-13.574-5.944v5.18A15.089,15.089,0,0,1,235.7,139.552l5.18.013a20.221,20.221,0,0,0-5.906-13.6h0Zm6.09,15.051a20.456,20.456,0,0,1-19.76,19.7h-.1v-5.556h.089A14.908,14.908,0,0,0,235.513,141v-.089h.1l5.371.013h.1v.1h0Zm-6.135,13.613a20.231,20.231,0,0,0,5.944-13.517l-5.18-.013A15.1,15.1,0,0,1,221.4,155.354v5.18a20.2,20.2,0,0,0,13.536-5.9h0Zm-14.994,6.09a20.461,20.461,0,0,1-19.76-19.818v-.1h.1l5.371.013h.089v.089a14.9,14.9,0,0,0,14.211,14.243h.089v5.562h-.1Zm-13.664-6.135a20.206,20.206,0,0,0,13.574,5.938v-5.18a15.09,15.09,0,0,1-14.3-14.325l-5.18-.013a20.177,20.177,0,0,0,5.906,13.587h0Zm-6.09-15.045a20.455,20.455,0,0,1,19.76-19.716h.1v5.556h-.089a14.907,14.907,0,0,0-14.211,14.179v.089h-.1l-5.371-.013h-.1v-.1h0Zm6.129-13.619a20.211,20.211,0,0,0-5.938,13.524l5.18.013a15.1,15.1,0,0,1,14.294-14.268v-5.18a20.211,20.211,0,0,0-13.543,5.906Z" transform="translate(-192.473 -119.83)" fill="#fff" fill-rule="evenodd"/>
        <path id="Trazado_120250" data-name="Trazado 120250" d="M248.055,152.9a14.987,14.987,0,0,1-14.332,14.3l-.013,5.371A20.363,20.363,0,0,0,253.432,152.9h-5.371Z" transform="translate(-204.665 -131.854)" fill="#4f8dcb" fill-rule="evenodd"/>
        <path id="Trazado_120251" data-name="Trazado 120251" d="M247.675,153.071a15.089,15.089,0,0,1-14.332,14.3l-.013,5.18a20.265,20.265,0,0,0,19.525-19.48Zm-4.544,9.775a14.857,14.857,0,0,0,4.359-9.877v-.089h5.562v.1a20.461,20.461,0,0,1-19.818,19.76h-.1v-.1l.013-5.371v-.089h.089a14.881,14.881,0,0,0,9.883-4.34Z" transform="translate(-204.457 -131.847)" fill="#fff" fill-rule="evenodd"/>
        <path id="Trazado_120252" data-name="Trazado 120252" d="M233.78,125.221a14.993,14.993,0,0,1,14.3,14.338l5.371.013A20.367,20.367,0,0,0,233.78,119.85Z" transform="translate(-204.69 -119.837)" fill="#ffb30b" fill-rule="evenodd"/>
        <path id="Trazado_120253" data-name="Trazado 120253" d="M233.415,125.208a15.1,15.1,0,0,1,14.3,14.332l5.18.013a20.265,20.265,0,0,0-19.48-19.525v5.18Zm9.775,4.544a14.825,14.825,0,0,0-9.871-4.359h-.089V119.83h.1a20.461,20.461,0,0,1,19.767,19.818v.1H253l-5.371-.013h-.089v-.089a14.838,14.838,0,0,0-4.34-9.883Z" transform="translate(-204.49 -119.83)" fill="#fff" fill-rule="evenodd"/>
        <path id="Trazado_120254" data-name="Trazado 120254" d="M206.108,139.521a14.992,14.992,0,0,1,14.332-14.3l.013-5.371a20.367,20.367,0,0,0-19.722,19.671H206.1Z" transform="translate(-192.673 -119.837)" fill="#1e77d0" fill-rule="evenodd"/>
        <path id="Trazado_120255" data-name="Trazado 120255" d="M205.548,139.511a15.1,15.1,0,0,1,14.332-14.3l.013-5.18a20.265,20.265,0,0,0-19.525,19.48Zm4.544-9.775a14.871,14.871,0,0,0-4.359,9.877v.089H200.17v-.1a20.461,20.461,0,0,1,19.811-19.767h.1v.1l-.013,5.371v.089h-.089A14.851,14.851,0,0,0,210.092,129.736Z" transform="translate(-192.469 -119.834)" fill="#fff" fill-rule="evenodd"/>
        <rect id="Rectángulo_40463" data-name="Rectángulo 40463" width="26.474" height="5.257" transform="translate(0.356 35.359)" fill="#619fdf"/>
        <path id="Trazado_120256" data-name="Trazado 120256" d="M214.544,175.561h-26.29v5.066h26.29v-5.066Zm-26.385-.191h26.576v5.441H188.07V175.37h.1Z" transform="translate(-188.07 -140.024)" fill="#fff" fill-rule="evenodd"/>
        <path id="Trazado_120257" data-name="Trazado 120257" d="M220.411,167.175a14.987,14.987,0,0,1-14.3-14.332l-5.371-.013a20.367,20.367,0,0,0,19.671,19.722l21.8-.076v-5.282h-21.8v-.013Z" transform="translate(-192.677 -131.829)" fill="#ffb30b" fill-rule="evenodd"/>
        <path id="Trazado_120258" data-name="Trazado 120258" d="M219.855,167.339a15.09,15.09,0,0,1-14.3-14.325l-5.18-.013a20.271,20.271,0,0,0,19.576,19.531l22.058-.076v.191l-22.058.076h0a20.461,20.461,0,0,1-19.76-19.818v-.1h.1l5.371.013h.089v.089a14.9,14.9,0,0,0,14.217,14.243h.089v.013h21.962v.191H219.861v-.019Z" transform="translate(-192.477 -131.821)" fill="#fff" fill-rule="evenodd"/>
      </g>
      <g id="Grupo_113750" data-name="Grupo 113750" transform="translate(99.152 80.234)">
        <rect id="Rectángulo_40464" data-name="Rectángulo 40464" width="13.364" height="4.614" transform="translate(9.99 41.455)" fill="#fabea7"/>
        <path id="Trazado_120259" data-name="Trazado 120259" d="M173.636,148.584a2.2,2.2,0,0,0,1.336-2.113v-.325c.159-9.043,8.1-11.576,8.744-21.574a14.829,14.829,0,0,0-.019-2.2c-1.241-7.586-8.451-12.677-16.553-12.677-9.228,0-17.3,6.612-16.712,15.993.611,9.705,8.184,12.162,8.331,20.931a2.1,2.1,0,0,0,1.877,1.966h12.989Z" transform="translate(-150.402 -109.7)" fill="#ffb30b" fill-rule="evenodd"/>
        <path id="Trazado_120260" data-name="Trazado 120260" d="M173.965,148.139l-3.456,3.01-6.377-1.54-2.947-1.47h-.038c-.305,0-.757-.643-.757-.948a15.665,15.665,0,0,0-2.622-8.343c-1.171-1.9-2.546-3.672-3.634-5.632a16.2,16.2,0,0,1-2.081-7.013,12.951,12.951,0,0,1,2.431-8.553,16.318,16.318,0,0,1,13.25-6.339c7.16,0,14.294,4.372,15.528,11.773a14.049,14.049,0,0,1,.013,2,16.473,16.473,0,0,1-2.215,7.293c-1.152,2.043-2.609,3.876-3.844,5.861a15.9,15.9,0,0,0-2.686,8.49v.325a1.169,1.169,0,0,1-.56,1.082Z" transform="translate(-150.992 -110.285)" fill="#fabea7" fill-rule="evenodd"/>
        <path id="Trazado_120261" data-name="Trazado 120261" d="M169.485,149.39l-1.266,1.209-4.073-.98-2.947-1.47h-.038c-.305,0-.757-.643-.757-.948a15.665,15.665,0,0,0-2.622-8.343c-1.171-1.9-2.546-3.672-3.628-5.632a16.2,16.2,0,0,1-2.081-7.013,12.951,12.951,0,0,1,2.431-8.553,16.318,16.318,0,0,1,13.25-6.339,17.968,17.968,0,0,1,4.474.573,14.654,14.654,0,0,1,6.561,10.176,16.753,16.753,0,0,1,.013,2.189,19.168,19.168,0,0,1-2.215,7.955c-1.152,2.227-2.609,4.226-3.844,6.389a18.463,18.463,0,0,0-2.686,9.26v.356a1.3,1.3,0,0,1-.56,1.177Z" transform="translate(-150.999 -110.289)" fill="#ffe1db" fill-rule="evenodd"/>
        <path id="Trazado_120262" data-name="Trazado 120262" d="M165.343,179.058a2.022,2.022,0,0,0,2,1.814h1.54l.6.98c.344.566.547.6,1.209.6h3.621c.662,0,.866-.032,1.209-.6l.6-.98h1.54a2.021,2.021,0,0,0,2-1.776v-.706a.525.525,0,0,0-.509-.4h-13.3a.519.519,0,0,0-.509.407.3.3,0,0,1,0,.076v.585h0Zm13.625-4.627H166.043a.716.716,0,0,0-.713.713v1.1a.712.712,0,0,0,.713.713h12.925a.716.716,0,0,0,.713-.713v-1.1a.712.712,0,0,0-.713-.713Zm-.032-3.621H166.068a.739.739,0,0,0-.738.738v1.146a.739.739,0,0,0,.738.738h12.868a.739.739,0,0,0,.738-.738v-1.146A.739.739,0,0,0,178.936,170.81Z" transform="translate(-155.83 -131.919)" fill="#ffb30b" fill-rule="evenodd"/>
        <path id="Trazado_120263" data-name="Trazado 120263" d="M172.764,157.791l1.368-16.553h1.986a3.1,3.1,0,0,0,2.2-.91h0a3.109,3.109,0,0,0-2.189-5.308A2.953,2.953,0,0,0,174,135.9a3.471,3.471,0,0,0-.98,2.17l-.153,1.769H166.8l-.153-1.769a3.543,3.543,0,0,0-.986-2.17,2.92,2.92,0,0,0-2.119-.885,3.121,3.121,0,0,0-2.2.916h0a3.088,3.088,0,0,0,0,4.391,3.12,3.12,0,0,0,2.2.91h1.986l1.368,16.553h1.394l-1.362-16.553h5.817l-1.362,16.553h1.394Zm1.489-17.947.146-1.655a2.1,2.1,0,0,1,.579-1.3,1.59,1.59,0,0,1,1.139-.471,1.737,1.737,0,0,1,1.209.5,1.705,1.705,0,0,1,0,2.418h0a1.7,1.7,0,0,1-1.209.5h-1.858Zm-8.865,0h-1.858a1.71,1.71,0,0,1-1.209-2.921h0a1.7,1.7,0,0,1,1.209-.5,1.543,1.543,0,0,1,1.133.471,2.1,2.1,0,0,1,.579,1.3l.146,1.655Z" transform="translate(-154.048 -118.906)" fill="#fff" fill-rule="evenodd"/>
        <path id="Trazado_120264" data-name="Trazado 120264" d="M162.54,117.865a.871.871,0,1,0-.681-1.6c-.363.153-.706.318-1.031.49s-.655.375-.974.585a.873.873,0,0,0,.961,1.457c.267-.178.547-.344.84-.5s.586-.3.878-.426h0Zm-3.838,2.787a.875.875,0,0,0-1.317-1.152,11.934,11.934,0,0,0-2.164,3.621,11.6,11.6,0,0,0-.751,4.13.872.872,0,0,0,1.744,0,9.863,9.863,0,0,1,.636-3.513,10.1,10.1,0,0,1,1.852-3.087Z" transform="translate(-151.881 -112.061)" fill="#fff" fill-rule="evenodd"/>
      </g>
      <g id="Grupo_113751" data-name="Grupo 113751" transform="translate(201.612 175.198)">
        <path id="Trazado_120265" data-name="Trazado 120265" d="M407.918,262.276c-2.73-.229-7.662.293-8.719.267l-82.847-2.049c-2.2-1.413-4.722,0-4.722,4.989v62.66a2.674,2.674,0,0,0,2.692,2.66l89.319-.261a7.779,7.779,0,0,0,4.55-2.011l-.28-66.256Z" transform="translate(-311.484 -259.304)" fill="#619fdf" fill-rule="evenodd"/>
        <path id="Trazado_120266" data-name="Trazado 120266" d="M406.612,262.268c-.433.038-.878.083-1.292.134a15.313,15.313,0,0,1-1.731.134l-87.3-2.049a1.061,1.061,0,0,0-.242.019c-.776.153-2.437-.694-3.43.414A5.611,5.611,0,0,0,311.4,264.3v63.857a2.755,2.755,0,0,0,.827,1.966,2.783,2.783,0,0,0,1.986.808l90.382-.261a1.575,1.575,0,0,0,.286-.032,10.953,10.953,0,0,0,2.393-.948v-.3a10.862,10.862,0,0,1-2.393.967,1.05,1.05,0,0,1-.229.025l-90.382.261a2.6,2.6,0,0,1-1.82-.745,2.509,2.509,0,0,1-.757-1.8V264.234a5.1,5.1,0,0,1,1.133-3.157c.948-1.063,2.533-.165,3.239-.305a.96.96,0,0,1,.185-.019l87.3,2.049a15.673,15.673,0,0,0,1.769-.134c.42-.045.872-.1,1.311-.134v-.28Z" transform="translate(-311.4 -259.436)" fill="#1e77d0" fill-rule="evenodd"/>
        <path id="Trazado_120267" data-name="Trazado 120267" d="M409.236,326.72V261.826a2.687,2.687,0,0,0-2.692-2.686l-91.082.261a2.707,2.707,0,0,0-2.692,2.7v64.894a2.692,2.692,0,0,0,2.692,2.686l91.082-.261A2.707,2.707,0,0,0,409.236,326.72Z" transform="translate(-311.898 -259)" fill="#a3cffb" fill-rule="evenodd"/>
        <path id="Trazado_120268" data-name="Trazado 120268" d="M408.546,327.64V262.746a1.082,1.082,0,0,0-1.076-1.076l-91.082.261a1.1,1.1,0,0,0-1.088,1.088v64.894a1.082,1.082,0,0,0,1.076,1.076l91.082-.261A1.1,1.1,0,0,0,408.546,327.64Z" transform="translate(-312.818 -259.92)" fill="#eef8fb" fill-rule="evenodd"/>
        <path id="Trazado_120269" data-name="Trazado 120269" d="M409.307,326.614V261.72a2.821,2.821,0,0,0-.821-1.986,2.762,2.762,0,0,0-1.986-.815l-91.057.261a2.826,2.826,0,0,0-2.024.853,2.893,2.893,0,0,0-.789,1.5,2.844,2.844,0,0,0-.051.522v64.894a2.8,2.8,0,0,0,2.813,2.8l91.057-.261a2.827,2.827,0,0,0,2.024-.853,2.893,2.893,0,0,0,.789-1.5,2.846,2.846,0,0,0,.051-.522h0Zm-.286-64.843v64.894a2.212,2.212,0,0,1-.045.465,2.542,2.542,0,0,1-.687,1.311,2.514,2.514,0,0,1-1.311.7,2.957,2.957,0,0,1-.484.051l-91.057.261a2.575,2.575,0,0,1-2.577-2.565V261.994a2.213,2.213,0,0,1,.045-.465,2.541,2.541,0,0,1,.687-1.311,2.514,2.514,0,0,1,1.311-.7,2.443,2.443,0,0,1,.484-.045l91.057-.261a2.575,2.575,0,0,1,2.577,2.565Z" transform="translate(-311.829 -258.92)" fill="#1e77d0" fill-rule="evenodd"/>
      </g>
      <g id="Grupo_113752" data-name="Grupo 113752" transform="translate(220.908 193.909)">
        <path id="Trazado_120270" data-name="Trazado 120270" d="M350.6,288.32a8.878,8.878,0,1,1-8.878,8.878A8.877,8.877,0,0,1,350.6,288.32Z" transform="translate(-341.72 -288.32)" fill="#c2def9" fill-rule="evenodd"/>
        <path id="Trazado_120271" data-name="Trazado 120271" d="M351.361,304.65a.426.426,0,0,1,0,.853,7.542,7.542,0,1,1,7.541-7.541.426.426,0,0,1-.853,0,6.687,6.687,0,1,0-6.689,6.689Z" transform="translate(-342.484 -289.084)" fill="#ffb30b" fill-rule="evenodd"/>
        <path id="Trazado_120272" data-name="Trazado 120272" d="M380.208,288.32a8.878,8.878,0,1,1-8.878,8.878A8.877,8.877,0,0,1,380.208,288.32Z" transform="translate(-352.486 -288.32)" fill="#c2def9" fill-rule="evenodd"/>
        <path id="Trazado_120273" data-name="Trazado 120273" d="M387.418,300.041a.427.427,0,0,1,.846.083h0a.423.423,0,0,1-.019.134,7.537,7.537,0,0,1-9.2,5.308.12.12,0,0,1-.051-.013,7.537,7.537,0,0,1-5.308-9.2.12.12,0,0,1,.013-.051,7.482,7.482,0,0,1,1.585-2.966h0a7.532,7.532,0,0,1,2.743-1.992.428.428,0,0,1,.331.789,6.631,6.631,0,0,0-2.431,1.769h0a6.571,6.571,0,0,0-1.406,2.647h0a6.689,6.689,0,0,0,4.716,8.191h.013a6.681,6.681,0,0,0,8.184-4.7Z" transform="translate(-353.249 -289.406)" fill="#ffb30b" fill-rule="evenodd"/>
        <path id="Trazado_120274" data-name="Trazado 120274" d="M409.818,288.32a8.878,8.878,0,1,1-8.878,8.878A8.877,8.877,0,0,1,409.818,288.32Z" transform="translate(-363.252 -288.32)" fill="#c2def9" fill-rule="evenodd"/>
        <path id="Trazado_120275" data-name="Trazado 120275" d="M414.013,292.833a.427.427,0,0,1,.56-.643,7.529,7.529,0,0,1,2.412,10.354v.013a7.549,7.549,0,0,1-10.38,2.431l-.019-.013a7.524,7.524,0,0,1-2.431-10.361.256.256,0,0,1,.064-.076h0a.419.419,0,0,1,.6,0,.427.427,0,0,1,.045.554,6.684,6.684,0,0,0,2.157,9.151l.057.038a6.684,6.684,0,0,0,9.152-2.157l.038-.057a6.684,6.684,0,0,0-2.157-9.151.419.419,0,0,1-.108-.076h0Z" transform="translate(-364.011 -289.696)" fill="#ffb30b" fill-rule="evenodd"/>
        <path id="Trazado_120276" data-name="Trazado 120276" d="M347.954,320.48h9.152a.9.9,0,0,1,.9.9v.636a.9.9,0,0,1-.9.9h-9.152a.9.9,0,0,1-.9-.9v-.636A.9.9,0,0,1,347.954,320.48Z" transform="translate(-343.658 -300.013)" fill="#c2def9"/>
        <path id="Trazado_120277" data-name="Trazado 120277" d="M377.574,320.48h9.151a.9.9,0,0,1,.9.9v.636a.9.9,0,0,1-.9.9h-9.151a.9.9,0,0,1-.9-.9v-.636A.9.9,0,0,1,377.574,320.48Z" transform="translate(-354.428 -300.013)" fill="#c2def9"/>
        <path id="Trazado_120278" data-name="Trazado 120278" d="M407.184,320.48h9.151a.9.9,0,0,1,.9.9v.636a.9.9,0,0,1-.9.9h-9.151a.9.9,0,0,1-.9-.9v-.636A.9.9,0,0,1,407.184,320.48Z" transform="translate(-365.194 -300.013)" fill="#c2def9"/>
      </g>
      <path id="Trazado_120279" data-name="Trazado 120279" d="M326.406,271.336h39.018a.7.7,0,0,1,.7.7h0a.7.7,0,0,1-.7.7H326.4a.7.7,0,0,1-.7-.7h0a.708.708,0,0,1,.7-.706Z" transform="translate(-114.987 -88.234)" fill="#c2def9"/>
      <path id="Trazado_120280" data-name="Trazado 120280" d="M326.41,279.13h39.018a.7.7,0,0,1,.7.7h0a.7.7,0,0,1-.7.7H326.41a.7.7,0,0,1-.7-.7h0A.7.7,0,0,1,326.41,279.13Z" transform="translate(-114.991 -91.07)" fill="#c2def9" fill-rule="evenodd"/>
      <path id="Trazado_120281" data-name="Trazado 120281" d="M326.41,331.21h77.864a.7.7,0,0,1,.7.7h0a.7.7,0,0,1-.7.7H326.41a.7.7,0,0,1-.7-.7h0A.7.7,0,0,1,326.41,331.21Z" transform="translate(-114.991 -110.006)" fill="#c2def9" fill-rule="evenodd"/>
      <path id="Trazado_120282" data-name="Trazado 120282" d="M326.41,339h77.864a.7.7,0,0,1,.7.7h0a.7.7,0,0,1-.7.7H326.41a.7.7,0,0,1-.7-.7h0A.7.7,0,0,1,326.41,339Z" transform="translate(-114.991 -112.838)" fill="#c2def9" fill-rule="evenodd"/>
      <path id="Trazado_120283" data-name="Trazado 120283" d="M326.41,347.26h77.864a.7.7,0,0,1,.7.7h0a.7.7,0,0,1-.7.7H326.41a.7.7,0,0,1-.7-.7h0A.7.7,0,0,1,326.41,347.26Z" transform="translate(-114.991 -115.842)" fill="#c2def9" fill-rule="evenodd"/>
      <rect id="Rectángulo_40465" data-name="Rectángulo 40465" width="79.27" height="1.406" rx="0.703" transform="translate(210.719 236.376)" fill="#c2def9"/>
      <path id="Trazado_120284" data-name="Trazado 120284" d="M260.735,95.961a.235.235,0,0,1,0-.471h45.242a.235.235,0,1,1,0,.471Zm-10.851,15.172a.234.234,0,0,1-.331-.038.241.241,0,0,1,.045-.331l10.552-8.159.14-.051h45.936a.235.235,0,0,1,.235.235.239.239,0,0,1-.235.235H260.372l-10.488,8.114h0Zm10.851-10.1a.235.235,0,0,1,0-.471h45.242a.235.235,0,1,1,0,.471Zm0-2.539a.235.235,0,0,1,0-.471h45.242a.235.235,0,1,1,0,.471Z" transform="translate(-87.284 -24.299)" fill="#ffb30b" fill-rule="evenodd"/>
      <path id="Trazado_120285" data-name="Trazado 120285" d="M302.6,202.1a.235.235,0,1,0,0,.471h45.242a.235.235,0,1,0,0-.471Zm-10.851-15.172a.232.232,0,0,0-.28.369l10.552,8.165.14.051H348.1a.235.235,0,0,0,0-.471H302.242l-10.488-8.114h0Zm10.851,10.1a.235.235,0,1,0,0,.471h45.242a.235.235,0,1,0,0-.471Zm0,2.539a.235.235,0,1,0,0,.471h45.242a.235.235,0,1,0,0-.471Z" transform="translate(-102.508 -57.527)" fill="#619fdf" fill-rule="evenodd"/>
      <path id="Trazado_120286" data-name="Trazado 120286" d="M116.452,314.767l-1.966,1.146a1.408,1.408,0,0,0-.509,1.909l.433.745c.515.885.286,1.279.134,1.426-.439.395-.846.815-1.254,1.241-.121.127-.5.547-1.5-.032l-.687-.4a1.4,1.4,0,0,0-1.909.5l-1.146,1.966a1.4,1.4,0,0,0,.509,1.909l.681.395c.936.547.916.827.8,1.222-.165.547-.337,1.095-.458,1.655-.108.5-.057.866-1.336.866h-.783a1.393,1.393,0,0,0-1.394,1.394v2.278a1.4,1.4,0,0,0,1.394,1.394h.783c1.279,0,1.228.363,1.336.866.121.566.293,1.114.458,1.655.121.4.14.675-.8,1.222l-.681.395a1.408,1.408,0,0,0-.509,1.909l1.146,1.966a1.4,1.4,0,0,0,1.909.5l.687-.4c1-.579,1.381-.153,1.5-.032.407.426.815.846,1.254,1.241.159.14.382.541-.134,1.426l-.433.745a1.4,1.4,0,0,0,.509,1.909l1.966,1.146a1.4,1.4,0,0,0,1.909-.5l.433-.745c.522-.9,1.031-.859,1.247-.789.63.2,1.209.331,1.858.5.235.064.643.236.643,1.3v.8a1.4,1.4,0,0,0,1.394,1.394h2.278a1.393,1.393,0,0,0,1.394-1.394v-.8c0-1.069.407-1.241.643-1.3.649-.172,1.228-.3,1.858-.5.216-.07.725-.108,1.247.789l.433.745a1.4,1.4,0,0,0,1.909.5l1.966-1.146a1.4,1.4,0,0,0,.5-1.909l-.433-.745c-.515-.885-.286-1.279-.127-1.426.439-.388.846-.815,1.254-1.241.121-.127.5-.547,1.5.032l.687.4a1.4,1.4,0,0,0,1.909-.5l1.146-1.966a1.4,1.4,0,0,0-.5-1.909l-.681-.395c-.936-.547-.916-.827-.8-1.222.165-.547.337-1.095.458-1.655.108-.5.057-.866,1.336-.866h.783a1.4,1.4,0,0,0,1.394-1.394v-2.278a1.393,1.393,0,0,0-1.394-1.394h-.783c-1.279,0-1.228-.363-1.336-.866-.121-.566-.293-1.114-.458-1.655-.121-.4-.146-.681.8-1.222l.681-.395a1.4,1.4,0,0,0,.5-1.909L140.96,321.3a1.4,1.4,0,0,0-1.909-.5l-.687.4c-1,.579-1.381.159-1.5.032-.407-.426-.815-.846-1.254-1.241-.159-.146-.382-.541.127-1.426l.433-.745a1.4,1.4,0,0,0-.5-1.909l-1.966-1.146a1.4,1.4,0,0,0-1.909.509l-.433.745c-.522.9-1.031.859-1.247.789-.63-.2-1.209-.331-1.858-.5-.235-.064-.643-.235-.643-1.3v-.8a1.393,1.393,0,0,0-1.394-1.394h-2.278a1.4,1.4,0,0,0-1.394,1.394v.8c0,1.069-.407,1.241-.643,1.3-.649.172-1.228.3-1.858.5-.216.07-.726.108-1.247-.789l-.433-.745a1.409,1.409,0,0,0-1.909-.509Zm8.623,14.084a3.007,3.007,0,1,1-3.01,3,3.005,3.005,0,0,1,3.01-3Zm-9.425,3.01a.643.643,0,1,1,1.286,0,8.148,8.148,0,0,0,8.14,8.14.643.643,0,0,1,0,1.286,9.43,9.43,0,0,1-9.431-9.425h0Zm18.729-1.521a.641.641,0,0,1-1.266.2,8.131,8.131,0,0,0-6.638-6.7.642.642,0,0,1,.216-1.266,9.42,9.42,0,0,1,7.688,7.764h0Zm-9.3-9.654a11.169,11.169,0,1,1-11.169,11.169A11.171,11.171,0,0,1,125.076,320.686Z" transform="translate(-35.127 -103.32)" fill="#619fdf" fill-rule="evenodd"/>
      <path id="Trazado_120287" data-name="Trazado 120287" d="M199.773,29.755l-1.1.643a.783.783,0,0,0-.286,1.069l.242.42c.286.5.165.719.076.8-.248.223-.471.458-.7.694-.07.07-.28.312-.84-.019l-.382-.223a.781.781,0,0,0-1.069.286l-.643,1.1a.785.785,0,0,0,.28,1.069l.382.223c.528.305.515.465.445.687-.089.305-.191.611-.255.929-.057.28-.032.484-.751.484h-.439a.782.782,0,0,0-.783.783v1.279a.782.782,0,0,0,.783.783h.439c.713,0,.687.2.751.484.064.318.165.624.255.929.064.223.083.382-.445.687l-.382.223a.786.786,0,0,0-.28,1.069l.643,1.1a.794.794,0,0,0,1.069.286l.382-.223c.56-.325.776-.089.84-.019.229.235.458.477.7.7.089.083.216.3-.076.8l-.242.42a.781.781,0,0,0,.286,1.069l1.1.643a.783.783,0,0,0,1.069-.286l.242-.42c.293-.5.579-.484.7-.439.35.115.675.185,1.037.28.134.032.363.134.363.725v.452a.782.782,0,0,0,.783.783h1.279a.782.782,0,0,0,.783-.783v-.452c0-.6.229-.694.363-.725.363-.1.687-.165,1.037-.28.121-.038.407-.057.7.439l.242.42a.783.783,0,0,0,1.069.286l1.1-.643a.783.783,0,0,0,.286-1.069l-.242-.42c-.286-.5-.165-.719-.076-.8.248-.223.471-.458.7-.7.07-.07.28-.305.84.019l.388.223a.783.783,0,0,0,1.069-.286l.643-1.1a.785.785,0,0,0-.28-1.069l-.382-.223c-.528-.305-.515-.465-.445-.687.089-.305.191-.611.255-.929.057-.28.032-.484.751-.484h.439a.782.782,0,0,0,.783-.783V38.7a.782.782,0,0,0-.783-.783h-.439c-.713,0-.687-.2-.751-.484-.064-.318-.165-.624-.255-.929-.07-.223-.083-.382.445-.687l.382-.223a.786.786,0,0,0,.28-1.069l-.643-1.1a.783.783,0,0,0-1.069-.286l-.388.223c-.56.325-.776.089-.84.019-.229-.235-.458-.477-.7-.694-.089-.076-.216-.305.076-.8l.242-.42a.781.781,0,0,0-.286-1.069l-1.1-.643a.786.786,0,0,0-1.069.28l-.242.42c-.293.5-.579.484-.7.445-.35-.115-.675-.185-1.037-.28-.134-.032-.363-.134-.363-.732v-.445a.782.782,0,0,0-.783-.783h-1.279a.782.782,0,0,0-.783.783v.445c0,.6-.229.694-.363.732-.363.1-.687.165-1.037.28-.121.038-.407.057-.7-.445l-.242-.42a.786.786,0,0,0-1.069-.28Zm4.837,7.9a1.686,1.686,0,1,1-1.686,1.686,1.689,1.689,0,0,1,1.686-1.686Zm-5.288,1.686a.363.363,0,1,1,.725,0A4.563,4.563,0,0,0,204.61,43.9a.363.363,0,0,1,.363.363.359.359,0,0,1-.363.363,5.28,5.28,0,0,1-5.282-5.282h0Zm10.5-.853a.361.361,0,1,1-.713.115,4.564,4.564,0,0,0-3.723-3.755.359.359,0,0,1-.293-.414.355.355,0,0,1,.414-.293,5.294,5.294,0,0,1,4.315,4.359h0ZM204.6,33.077a6.262,6.262,0,1,1-6.262,6.262A6.262,6.262,0,0,1,204.6,33.077Z" transform="translate(-67.084)" fill="#a3cffb" fill-rule="evenodd"/>
    </g>
  </g>
</svg>
