<svg xmlns="http://www.w3.org/2000/svg" width="210.138" height="312" viewBox="0 0 210.138 312">
  <g id="_1_2_D" data-name="1_2_D" transform="translate(-62.38 -11.46)">
    <path id="Trazado_117254" data-name="Trazado 117254" d="M276.876,260.44H145.148l-3.888,2.231H280.737Z" transform="translate(-8.219 -25.943)" fill="#5a92cd" fill-rule="evenodd"/>
    <path id="Trazado_117255" data-name="Trazado 117255" d="M273.476,257.95h-124l-3.879,2.231H277.328Z" transform="translate(-8.671 -25.683)" fill="#5a92cd" fill-rule="evenodd"/>
    <path id="Trazado_117256" data-name="Trazado 117256" d="M270.066,255.47H153.809l-3.879,2.222h124Z" transform="translate(-9.122 -25.425)" fill="#5a92cd" fill-rule="evenodd"/>
    <path id="Trazado_117257" data-name="Trazado 117257" d="M266.666,252.98H158.139l-3.879,2.231H270.518Z" transform="translate(-9.573 -25.165)" fill="#5a92cd" fill-rule="evenodd"/>
    <path id="Trazado_117258" data-name="Trazado 117258" d="M263.265,250.5H162.478l-3.888,2.222H267.117Z" transform="translate(-10.025 -24.907)" fill="#5a92cd" fill-rule="evenodd"/>
    <path id="Trazado_117259" data-name="Trazado 117259" d="M259.856,248.02H166.809l-3.879,2.222H263.717Z" transform="translate(-10.477 -24.648)" fill="#5a92cd" fill-rule="evenodd"/>
    <path id="Trazado_117260" data-name="Trazado 117260" d="M256.455,245.52H171.139l-3.879,2.24h93.047Z" transform="translate(-10.928 -24.388)" fill="#5a92cd" fill-rule="evenodd"/>
    <path id="Trazado_117261" data-name="Trazado 117261" d="M253.046,243.04H175.478l-3.888,2.222h85.316Z" transform="translate(-11.379 -24.13)" fill="#5a92cd" fill-rule="evenodd"/>
    <path id="Trazado_117262" data-name="Trazado 117262" d="M249.646,240.56H179.818l-3.888,2.222H253.5Z" transform="translate(-11.831 -23.871)" fill="#5a92cd" fill-rule="evenodd"/>
    <path id="Trazado_117263" data-name="Trazado 117263" d="M246.237,238.07H184.149L180.27,240.3H250.1Z" transform="translate(-12.284 -23.612)" fill="#5a92cd" fill-rule="evenodd"/>
    <path id="Trazado_117264" data-name="Trazado 117264" d="M242.836,235.59H188.479l-3.879,2.222h62.088Z" transform="translate(-12.735 -23.353)" fill="#5a92cd" fill-rule="evenodd"/>
    <path id="Trazado_117265" data-name="Trazado 117265" d="M239.427,233.1H192.818l-3.888,2.231h54.357Z" transform="translate(-13.186 -23.094)" fill="#5a92cd" fill-rule="evenodd"/>
    <path id="Trazado_117266" data-name="Trazado 117266" d="M236.027,230.61H197.149l-3.879,2.231h46.609Z" transform="translate(-13.638 -22.834)" fill="#5a92cd" fill-rule="evenodd"/>
    <path id="Trazado_117267" data-name="Trazado 117267" d="M232.617,228.13H201.488l-3.888,2.222h38.878Z" transform="translate(-14.089 -22.576)" fill="#5a92cd" fill-rule="evenodd"/>
    <path id="Trazado_117268" data-name="Trazado 117268" d="M229.208,225.64H205.819l-3.879,2.231h31.129Z" transform="translate(-14.542 -22.317)" fill="#5a92cd" fill-rule="evenodd"/>
    <path id="Trazado_117269" data-name="Trazado 117269" d="M225.584,223.16H210.83a18.285,18.285,0,0,0-3.2,1.451l-1.362.779h23.389l-2.607-1.5a11.794,11.794,0,0,0-1.469-.726Z" transform="translate(-14.993 -22.058)" fill="#5a92cd" fill-rule="evenodd"/>
    <path id="Trazado_117270" data-name="Trazado 117270" d="M211.36,223.011h14.754a18.964,18.964,0,0,0-7.086-1.281A23.783,23.783,0,0,0,211.36,223.011Z" transform="translate(-15.523 -21.909)" fill="#5a92cd" fill-rule="evenodd"/>
    <path id="Trazado_117271" data-name="Trazado 117271" d="M69.125,295.353h0l121.211-69.514a21.228,21.228,0,0,1,10.311-2.589,16.571,16.571,0,0,1,8.116,1.9l55.746,32.177h7.74v8.053c0,2.634-1.818,5.2-4.981,7.032L144.283,342.938a21.253,21.253,0,0,1-10.311,2.589,16.707,16.707,0,0,1-8.125-1.89L66.16,309.167c-2.446-1.406-3.78-3.458-3.78-5.769v-8.044Z" transform="translate(0 -22.068)" fill="#084a93" fill-rule="evenodd"/>
    <path id="Trazado_117272" data-name="Trazado 117272" d="M133.984,336.548a21.13,21.13,0,0,0,10.311-2.589l122.985-70.527c3.162-1.836,4.981-4.389,4.981-7.032,0-2.311-1.344-4.363-3.789-5.769L208.783,216.17a16.473,16.473,0,0,0-8.116-1.89,21.224,21.224,0,0,0-10.311,2.58L67.381,287.387c-3.162,1.827-4.981,4.4-4.981,7.032,0,2.311,1.344,4.363,3.78,5.769l59.687,34.462a16.534,16.534,0,0,0,8.125,1.89Z" transform="translate(-0.002 -21.133)" fill="#084a93" fill-rule="evenodd"/>
    <path id="Trazado_117273" data-name="Trazado 117273" d="M127.005,333.253,67.318,298.792c-4.228-2.446-3.7-6.745,1.182-9.567l122.985-70.536c4.882-2.813,12.344-3.126,16.572-.69l59.687,34.462c4.228,2.446,3.691,6.745-1.191,9.567L143.569,332.555c-4.882,2.822-12.335,3.135-16.563.69Z" transform="translate(-0.217 -21.349)" fill="#a0c6e9" fill-rule="evenodd"/>
    <path id="Trazado_117274" data-name="Trazado 117274" d="M70.19,290.194l72.229,41.7,122.752-70.545L192.933,219.64Z" transform="translate(-0.814 -21.691)" fill="#fff" fill-rule="evenodd"/>
    <path id="Trazado_117275" data-name="Trazado 117275" d="M188.99,228.446l73.241,42.282,15.318-9.379L205.312,219.64Z" transform="translate(-13.192 -21.691)" fill="#12263f" fill-rule="evenodd"/>
    <path id="Trazado_117276" data-name="Trazado 117276" d="M254.031,239.09c1.371,0,2.481.663,2.481,1.478s-1.111,1.487-2.481,1.487-2.481-.663-2.481-1.487,1.111-1.478,2.481-1.478Z" transform="translate(-19.711 -23.718)" fill="#fff" fill-rule="evenodd"/>
    <path id="Trazado_117277" data-name="Trazado 117277" d="M246.123,234.76c.985,0,1.792.475,1.792,1.066s-.8,1.066-1.792,1.066-1.783-.484-1.783-1.066S245.137,234.76,246.123,234.76Z" transform="translate(-18.959 -23.267)" fill="#fff" fill-rule="evenodd"/>
    <path id="Trazado_117278" data-name="Trazado 117278" d="M107.61,328.716a5.226,5.226,0,0,0,2.562-.645,2.52,2.52,0,0,0,1.415-2.105,2.11,2.11,0,0,0-1.156-1.827l-10.938-6.387a4.268,4.268,0,0,0-2.1-.5,5.136,5.136,0,0,0-2.562.654,2.5,2.5,0,0,0-1.415,2.105,2.134,2.134,0,0,0,1.156,1.836l10.938,6.378a4.232,4.232,0,0,0,2.087.5Z" transform="translate(-3.234 -31.862)" fill="#fff" fill-rule="evenodd"/>
    <path id="Trazado_117279" data-name="Trazado 117279" d="M192.224,240.315a.809.809,0,0,0,.726-.448.818.818,0,0,0-.349-1.1l-8.591-4.443V171.875a.82.82,0,0,0-1.639,0v63.441l9.478,4.9.376.09Z" transform="translate(-12.502 -16.63)" fill="#80a8d8" fill-rule="evenodd"/>
    <path id="Trazado_117280" data-name="Trazado 117280" d="M180.663,253.052a.816.816,0,0,0,.376-1.541l-8.591-4.443V223.275a.824.824,0,0,0-1.648,0v24.787l9.478,4.9.376.09Z" transform="translate(-11.297 -21.985)" fill="#80a8d8" fill-rule="evenodd"/>
    <path id="Trazado_117281" data-name="Trazado 117281" d="M167.645,254.821a.822.822,0,0,0,.385-1.55l-8.591-4.434V183.685a.82.82,0,0,0-1.639,0v66.146l9.478,4.9.367.09Z" transform="translate(-9.942 -17.86)" fill="#80a8d8" fill-rule="evenodd"/>
    <path id="Trazado_117282" data-name="Trazado 117282" d="M200.279,254.587l39.783,22.968a5.648,5.648,0,0,0,5.07-.206c1.5-.869,1.657-2.186.367-2.929l-39.783-22.968a5.677,5.677,0,0,0-5.07.206C199.15,252.517,198.989,253.834,200.279,254.587Z" transform="translate(-14.278 -24.954)" fill="#b7d9f2" fill-rule="evenodd"/>
    <path id="Trazado_117283" data-name="Trazado 117283" d="M187.749,261.816l39.783,22.968a5.622,5.622,0,0,0,5.07-.215c1.5-.86,1.657-2.177.367-2.92l-39.783-22.968a5.647,5.647,0,0,0-5.07.206c-1.487.869-1.657,2.186-.358,2.929Z" transform="translate(-12.973 -25.706)" fill="#b7d9f2" fill-rule="evenodd"/>
    <path id="Trazado_117284" data-name="Trazado 117284" d="M175.039,269.157l39.783,22.977a5.679,5.679,0,0,0,5.07-.215c1.5-.86,1.666-2.177.367-2.929l-39.783-22.968a5.65,5.65,0,0,0-5.07.215c-1.5.86-1.657,2.186-.367,2.92Z" transform="translate(-11.648 -26.472)" fill="#b7d9f2" fill-rule="evenodd"/>
    <path id="Trazado_117285" data-name="Trazado 117285" d="M162.509,276.4l39.783,22.968a5.648,5.648,0,0,0,5.07-.206c1.5-.86,1.657-2.177.367-2.929l-39.783-22.968a5.678,5.678,0,0,0-5.07.215c-1.5.86-1.657,2.177-.358,2.929Z" transform="translate(-10.342 -27.226)" fill="#b7d9f2" fill-rule="evenodd"/>
    <path id="Trazado_117286" data-name="Trazado 117286" d="M149.969,283.626l39.792,22.968a5.676,5.676,0,0,0,5.07-.206c1.487-.869,1.657-2.186.358-2.929l-39.783-22.968a5.622,5.622,0,0,0-5.07.215c-1.5.86-1.657,2.177-.367,2.92Z" transform="translate(-9.036 -27.979)" fill="#b7d9f2" fill-rule="evenodd"/>
    <path id="Trazado_117287" data-name="Trazado 117287" d="M137.439,290.866l39.783,22.968a5.679,5.679,0,0,0,5.07-.215c1.5-.86,1.657-2.177.367-2.92l-39.783-22.977a5.678,5.678,0,0,0-5.07.215c-1.5.86-1.657,2.177-.367,2.929Z" transform="translate(-7.73 -28.733)" fill="#b7d9f2" fill-rule="evenodd"/>
    <path id="Trazado_117288" data-name="Trazado 117288" d="M124.728,298.2l39.783,22.977a5.679,5.679,0,0,0,5.07-.215c1.5-.869,1.657-2.177.358-2.929l-39.783-22.968a5.651,5.651,0,0,0-5.07.215c-1.5.86-1.657,2.177-.367,2.92Z" transform="translate(-6.405 -29.498)" fill="#b7d9f2" fill-rule="evenodd"/>
    <path id="Trazado_117289" data-name="Trazado 117289" d="M112.2,305.437l39.783,22.968a5.647,5.647,0,0,0,5.07-.206c1.5-.86,1.657-2.177.367-2.929L117.627,302.3a5.659,5.659,0,0,0-5.061.215c-1.5.86-1.657,2.186-.367,2.929Z" transform="translate(-5.1 -30.252)" fill="#b7d9f2" fill-rule="evenodd"/>
    <path id="Trazado_117290" data-name="Trazado 117290" d="M192.175,246.768c-1.5.869-1.666,2.177-.367,2.929a5.648,5.648,0,0,0,5.07-.206c1.5-.869,1.666-2.177.358-2.92a5.648,5.648,0,0,0-5.07.206Z" transform="translate(-13.394 -24.445)" fill="#ffb30b" fill-rule="evenodd"/>
    <path id="Trazado_117291" data-name="Trazado 117291" d="M179.645,254.006c-1.5.86-1.666,2.177-.367,2.929a5.622,5.622,0,0,0,5.07-.215c1.5-.86,1.666-2.177.358-2.929a5.622,5.622,0,0,0-5.07.215Z" transform="translate(-12.089 -25.197)" fill="#ffb30b" fill-rule="evenodd"/>
    <path id="Trazado_117292" data-name="Trazado 117292" d="M167.115,261.237c-1.5.869-1.666,2.177-.367,2.929a5.676,5.676,0,0,0,5.07-.206c1.5-.869,1.666-2.177.367-2.929A5.647,5.647,0,0,0,167.115,261.237Z" transform="translate(-10.783 -25.951)" fill="#ffb30b" fill-rule="evenodd"/>
    <path id="Trazado_117293" data-name="Trazado 117293" d="M154.585,268.476c-1.5.869-1.666,2.177-.358,2.929a5.622,5.622,0,0,0,5.07-.215c1.5-.86,1.666-2.177.367-2.929a5.621,5.621,0,0,0-5.07.215Z" transform="translate(-9.478 -26.705)" fill="#b7d9f2" fill-rule="evenodd"/>
    <path id="Trazado_117294" data-name="Trazado 117294" d="M142.055,275.707c-1.5.869-1.666,2.177-.367,2.929a5.622,5.622,0,0,0,5.07-.215c1.5-.869,1.666-2.177.367-2.92A5.647,5.647,0,0,0,142.055,275.707Z" transform="translate(-8.172 -27.459)" fill="#b7d9f2" fill-rule="evenodd"/>
    <path id="Trazado_117295" data-name="Trazado 117295" d="M129.515,282.937c-1.5.869-1.666,2.177-.358,2.929a5.648,5.648,0,0,0,5.07-.206c1.5-.869,1.666-2.177.358-2.929A5.648,5.648,0,0,0,129.515,282.937Z" transform="translate(-6.866 -28.212)" fill="#b7d9f2" fill-rule="evenodd"/>
    <path id="Trazado_117296" data-name="Trazado 117296" d="M116.985,290.176c-1.5.86-1.666,2.177-.367,2.929a5.622,5.622,0,0,0,5.07-.215c1.5-.869,1.666-2.177.358-2.929a5.622,5.622,0,0,0-5.07.215Z" transform="translate(-5.56 -28.966)" fill="#b7d9f2" fill-rule="evenodd"/>
    <path id="Trazado_117297" data-name="Trazado 117297" d="M104.455,297.407c-1.5.869-1.666,2.177-.358,2.929a5.647,5.647,0,0,0,5.07-.206c1.5-.869,1.666-2.177.367-2.929a5.648,5.648,0,0,0-5.07.206Z" transform="translate(-4.255 -29.72)" fill="#b7d9f2" fill-rule="evenodd"/>
    <path id="Trazado_117298" data-name="Trazado 117298" d="M289.741,193.707,236.79,163.142V62.74L289.741,93.3Z" transform="translate(-18.173 -5.343)" fill="#fff" fill-rule="evenodd"/>
    <path id="Trazado_117299" data-name="Trazado 117299" d="M250.261,78.976,242.02,74.21v5.16l8.241,4.766v-5.16Zm0,80.183-8.241-4.766v5.16l8.241,4.766v-5.16Zm0-10.132-8.241-4.766v5.16l8.241,4.766v-5.16Zm0-10.069-8.241-4.766v5.16l8.241,4.766v-5.16Zm0-10.015-8.241-4.766v5.16l8.241,4.766v-5.16Zm0-10.06-8.241-4.766v5.16l8.241,4.766v-5.16h0Zm0-9.773v5.16L242.02,109.5v-5.16l8.241,4.766Zm0-10.06-8.241-4.766v5.16l8.241,4.766v-5.16Zm0-10.015L242.02,84.27v5.16l8.241,4.766Z" transform="translate(-18.718 -6.538)" fill="#ffb30b" fill-rule="evenodd"/>
    <path id="Trazado_117300" data-name="Trazado 117300" d="M255.11,81.78v5.16l31.855,18.4v-5.16L255.11,81.789h0Zm0,80.192v5.16l31.855,18.391v-5.16L255.11,161.972h0Zm0-10.132,31.855,18.391v5.16L255.11,157v-5.16h0Zm0-10.06,31.855,18.391v5.16L255.11,146.941V141.79h0Zm0-10.015v5.16l31.855,18.391v-5.16L255.11,131.766h0Zm0-10.06v5.16l31.855,18.4v-5.16L255.11,121.715h0Zm0-9.773,31.855,18.391v5.16L255.11,117.093v-5.16h0Zm0-10.06,31.855,18.391v5.16L255.11,107.033v-5.16h0Zm0-10.015,31.855,18.391v5.16l-31.855-18.4v-5.16Z" transform="translate(-20.082 -7.327)" fill="#b7d9f2" fill-rule="evenodd"/>
    <path id="Trazado_117301" data-name="Trazado 117301" d="M222.451,106.236,178.01,80.58V11.46l44.441,25.656Z" transform="translate(-12.048 0)" fill="#b7d9f2" fill-rule="evenodd"/>
    <path id="Trazado_117302" data-name="Trazado 117302" d="M218.683,99.011,182.77,78.273V19.92l35.913,20.729Z" transform="translate(-12.544 -0.881)" fill="#a0c6e9" fill-rule="evenodd"/>
    <path id="Trazado_117303" data-name="Trazado 117303" d="M216.019,71.826,198.138,61.5V32.438l17.88,10.329v29.06h0ZM186.26,26.23l8.833,5.1V81.134l-8.833-5.1V26.23Z" transform="translate(-12.908 -1.539)" fill="#e8e8e8" fill-rule="evenodd"/>
    <path id="Trazado_117304" data-name="Trazado 117304" d="M217.4,83.133,199.51,72.813V68.8L217.4,79.129Z" transform="translate(-14.288 -5.975)" fill="#fff" fill-rule="evenodd"/>
    <path id="Trazado_117305" data-name="Trazado 117305" d="M217.4,91.023,199.51,80.694v-4L217.4,87.019Z" transform="translate(-14.288 -6.797)" fill="#fff" fill-rule="evenodd"/>
    <path id="Trazado_117306" data-name="Trazado 117306" d="M217.4,99.023,199.51,88.7V84.69L217.4,95.019Z" transform="translate(-14.288 -7.63)" fill="#fff" fill-rule="evenodd"/>
    <path id="Trazado_117307" data-name="Trazado 117307" d="M264.37,224.848,231.1,205.642V187l33.27,19.2Z" transform="translate(-17.58 -18.29)" fill="#ffb30b" fill-rule="evenodd"/>
    <path id="Trazado_117308" data-name="Trazado 117308" d="M239.911,227.491l-33.261-19.2V180.04l33.261,19.206Z" transform="translate(-15.032 -17.565)" fill="#fff" fill-rule="evenodd"/>
    <path id="Trazado_117309" data-name="Trazado 117309" d="M202.911,144.454,149.96,113.889V34.87l52.951,30.565Z" transform="translate(-9.125 -2.439)" fill="#fff" fill-rule="evenodd"/>
    <path id="Trazado_117310" data-name="Trazado 117310" d="M198.781,137.557V68.437L154.34,42.79V111.9Z" transform="translate(-9.582 -3.264)" fill="#fff" fill-rule="evenodd"/>
    <path id="Trazado_117311" data-name="Trazado 117311" d="M175.4,58.438,157.05,47.85v31.3L175.4,89.738Z" transform="translate(-9.864 -3.792)" fill="#b9ddfc" fill-rule="evenodd"/>
    <path id="Trazado_117312" data-name="Trazado 117312" d="M175.4,98.278,157.05,87.69v26.7L175.4,124.982Z" transform="translate(-9.864 -7.943)" fill="#b7d9f2" fill-rule="evenodd"/>
    <path id="Trazado_117313" data-name="Trazado 117313" d="M198.976,72.076,181.49,61.98v2.983l17.486,10.1V72.067h0Zm0,53.076-17.486-10.1v2.983l17.486,10.1v-2.992h0Zm0-5.33v2.992l-17.486-10.1v-2.992l17.486,10.1Zm0-5.294v2.992l-17.486-10.1v-2.983l17.486,10.1h0Zm0-5.339-17.486-10.1v2.983l17.486,10.1V109.18h0Zm0-5.294L181.49,93.8v2.983l17.486,10.1v-2.992h0Zm0-5.33v2.992l-17.486-10.1V88.478l17.486,10.1h0Zm0-5.294v2.983l-17.486-10.1V83.175l17.486,10.1Zm0-5.276L181.49,77.9V80.89l17.486,10.1V88h0Zm0-5.294v2.992L181.49,75.6V72.613l17.486,10.1h0Zm0-5.33v2.992l-17.486-10.1V67.274Z" transform="translate(-12.411 -5.264)" fill="#b7d9f2" fill-rule="evenodd"/>
    <path id="Trazado_117314" data-name="Trazado 117314" d="M198.976,137.246l-17.486-10.1v2.983l17.486,10.1Z" transform="translate(-12.411 -12.054)" fill="#bdc7e5" fill-rule="evenodd"/>
    <path id="Trazado_117315" data-name="Trazado 117315" d="M178.25,125.24v40.195l27.089,15.641V140.881Z" transform="translate(-12.073 -11.855)" fill="#b7d9f2" fill-rule="evenodd"/>
    <path id="Trazado_117316" data-name="Trazado 117316" d="M125.05,118.28v46.546l40.159,23.183V141.472Z" transform="translate(-6.53 -11.13)" fill="#fff" fill-rule="evenodd"/>
    <path id="Trazado_117317" data-name="Trazado 117317" d="M140.89,131.66v38.9L163.8,183.8v-38.9Z" transform="translate(-8.18 -12.524)" fill="#727997" fill-rule="evenodd"/>
    <path id="Trazado_117318" data-name="Trazado 117318" d="M136.487,129.251l-8.017-4.631v38.9l8.017,4.64Z" transform="translate(-6.886 -11.791)" fill="#b7d9f2" fill-rule="evenodd"/>
    <path id="Trazado_117319" data-name="Trazado 117319" d="M167.64,183.77v40.2l27.089,15.641V199.42Z" transform="translate(-10.968 -17.954)" fill="#c9e3f6" fill-rule="evenodd"/>
    <path id="Trazado_117320" data-name="Trazado 117320" d="M170.6,189.88v32.33l21.786,12.577v-32.33Z" transform="translate(-11.276 -18.591)" fill="#fff" fill-rule="evenodd"/>
    <path id="Trazado_117321" data-name="Trazado 117321" d="M180.38,171.046a6.162,6.162,0,0,0,2.589,4.927c1.424.824,2.58-.054,2.58-1.953a6.2,6.2,0,0,0-2.58-4.936c-1.433-.824-2.589.054-2.589,1.953Z" transform="translate(-12.295 -16.391)" fill="#80a8d8" fill-rule="evenodd"/>
    <path id="Trazado_117322" data-name="Trazado 117322" d="M168.84,228.647a6.179,6.179,0,0,0,2.589,4.936c1.424.824,2.58-.054,2.58-1.953a6.2,6.2,0,0,0-2.58-4.936C170,225.879,168.849,226.748,168.84,228.647Z" transform="translate(-11.093 -22.395)" fill="#80a8d8" fill-rule="evenodd"/>
    <path id="Trazado_117323" data-name="Trazado 117323" d="M155.83,187.947a6.178,6.178,0,0,0,2.58,4.927c1.424.824,2.58-.045,2.58-1.944a6.2,6.2,0,0,0-2.58-4.936C156.986,185.179,155.83,186.048,155.83,187.947Z" transform="translate(-9.737 -18.154)" fill="#80a8d8" fill-rule="evenodd"/>
  </g>
</svg>
