<svg xmlns="http://www.w3.org/2000/svg" xmlns:xlink="http://www.w3.org/1999/xlink" width="382.154" height="380.493" viewBox="0 0 382.154 380.493">
  <defs>
    <linearGradient id="linear-gradient" y1="0.5" x2="1" y2="0.5" gradientUnits="objectBoundingBox">
      <stop offset="0" stop-color="#17e8f7"/>
      <stop offset="0.22" stop-color="#5ab0d7"/>
      <stop offset="0.67" stop-color="#e24098"/>
    </linearGradient>
  </defs>
  <g id="_1_2_B" data-name="1_2_B" transform="translate(-76.957 -416.177)">
    <g id="Grupo_112352" data-name="Grupo 112352" transform="translate(76.957 416.177)">
      <path id="Trazado_116969" data-name="Trazado 116969" d="M284.293,428.7,144.667,348.092a5.614,5.614,0,0,0-4.725-.575h0l-.257.076a.06.06,0,0,0-.061.03l-5.043,1.923,4.528,2.211c-.015.091-.045.167-.061.242L114.379,464.2c-1.136,5.179,1.136,11.237,5.088,13.508l136.28,78.672-.485,5.77,5.512-2.135a7.79,7.79,0,0,0,3.953-5.618L289.4,442.2c1.136-5.179-1.136-11.237-5.088-13.508Z" transform="translate(4.232 -347.232)" fill="#173d7a"/>
      <path id="Trazado_116970" data-name="Trazado 116970" d="M281.56,428.7,141.934,348.092a5.614,5.614,0,0,0-4.725-.575h0l-.257.076a.06.06,0,0,0-.061.03l-5.043,1.923,4.528,2.211c-.015.091-.045.167-.061.242L119.4,428.9l68.314,53.231,98.253-47.87a10.86,10.86,0,0,0-4.407-5.558Z" transform="translate(6.965 -347.232)" fill="#396caa"/>
      <path id="Trazado_116971" data-name="Trazado 116971" d="M226.575,416.684l10.631-4.528c.2-4.119-1.514-8.375-4.3-10.646l-16.825,7.072,10.495,8.087Z" transform="translate(56.696 -319.312)" fill="#274f89"/>
      <path id="Trazado_116972" data-name="Trazado 116972" d="M253.354,560.949,113.728,480.338c-3.953-2.287-6.224-8.329-5.088-13.508l24.669-112.2c1.136-5.179,5.27-7.527,9.207-5.255l139.626,80.611c3.953,2.287,6.224,8.329,5.088,13.508l-24.669,112.2c-1.136,5.179-5.27,7.527-9.207,5.255Z" transform="translate(1.279 -346.575)" fill="#d4ecff"/>
      <path id="Trazado_116973" data-name="Trazado 116973" d="M273.294,429.664,133.667,349.053a5.519,5.519,0,0,0-5.5-.242,5.75,5.75,0,0,1,4.165.727l139.626,80.611c3.953,2.287,6.224,8.329,5.088,13.508l-24.669,112.2a7.909,7.909,0,0,1-3.71,5.5c2.362-.515,4.331-2.65,5.058-5.982l24.669-112.2c1.136-5.179-1.136-11.237-5.088-13.508Z" transform="translate(11.476 -346.738)" fill="#fff"/>
      <path id="Trazado_116974" data-name="Trazado 116974" d="M248.381,550.672l-131.328-75.78c-3.619-2.09-5.694-7.617-4.664-12.357l22.746-103.4c1.045-4.74,4.816-6.89,8.435-4.8L274.9,430.111c3.619,2.09,5.694,7.617,4.664,12.357l-22.746,103.4C255.772,550.611,252,552.761,248.381,550.672Z" transform="translate(3.223 -343.991)" fill="#fff"/>
      <path id="Trazado_116975" data-name="Trazado 116975" d="M248.381,550.672l-131.328-75.78c-3.619-2.09-5.694-7.617-4.664-12.357l22.746-103.4c1.045-4.74,4.816-6.89,8.435-4.8L274.9,430.111c3.619,2.09,5.694,7.617,4.664,12.357l-22.746,103.4C255.772,550.611,252,552.761,248.381,550.672Z" transform="translate(3.223 -343.991)" fill="#173d7a"/>
      <path id="Trazado_116976" data-name="Trazado 116976" d="M249.529,550.152,118.2,474.372c-3.619-2.09-5.694-7.617-4.664-12.357l22.746-103.4a7.24,7.24,0,0,1,3.316-4.982c-2.075.53-3.8,2.484-4.452,5.452L112.4,462.484c-1.045,4.74,1.045,10.283,4.664,12.357l131.328,75.78a5.059,5.059,0,0,0,5.119.182A5.254,5.254,0,0,1,249.529,550.152Z" transform="translate(3.227 -343.941)" fill="#5793ce"/>
      <path id="Trazado_116977" data-name="Trazado 116977" d="M292.514,516.649l-19.081-2.514L150.222,443c-3.953-2.287-10.843-2-15.416.636L47.5,494.024l-11.54-1.53v6.542h0c-.076,1.514.787,2.968,2.65,4.043l139.626,80.611c3.953,2.287,10.843,2,15.416-.636l95.073-54.881c2.559-1.484,3.847-3.392,3.771-5.179h0v-6.36Z" transform="translate(-35.957 -298.762)" fill="#173d7a"/>
      <path id="Trazado_116978" data-name="Trazado 116978" d="M199.939,463.148l-8.753-5.058H94.947L47.5,485.47l-11.54-1.529v6.542h0c-.076,1.514.787,2.968,2.65,4.043l139.626,80.611a14.381,14.381,0,0,0,7.951,1.484l13.735-113.5Z" transform="translate(-35.957 -290.208)" fill="#396caa"/>
      <path id="Trazado_116979" data-name="Trazado 116979" d="M41.09,475.841l-5.119-.682V481.7h0c-.076,1.514.787,2.968,2.65,4.043l2.453,1.424V475.826Z" transform="translate(-35.952 -281.427)" fill="#5793ce"/>
      <path id="Trazado_116980" data-name="Trazado 116980" d="M130.85,541.062a17.885,17.885,0,0,0,13.1-.818V525.63h-13.1v15.416Z" transform="translate(12.855 -255.466)" fill="#274f89"/>
      <path id="Trazado_116981" data-name="Trazado 116981" d="M178.262,580.857,38.636,500.246c-3.953-2.287-3.453-6.27,1.105-8.9l95.073-54.881c4.558-2.635,11.464-2.923,15.416-.636l139.626,80.611c3.953,2.287,3.453,6.27-1.105,8.9l-95.073,54.881C189.121,582.856,182.215,583.144,178.262,580.857Z" transform="translate(-35.951 -302.455)" fill="#d4ecff"/>
      <path id="Trazado_116982" data-name="Trazado 116982" d="M288.739,502.274l-95.073,54.881c-4.558,2.635-11.464,2.923-15.416.636L38.623,477.18a5.138,5.138,0,0,1-2.453-2.68c-.621,1.863.167,3.756,2.453,5.073l139.626,80.611c3.953,2.287,10.843,2,15.416-.636l95.073-54.881c3.059-1.772,4.286-4.149,3.559-6.209A7.4,7.4,0,0,1,288.739,502.274Z" transform="translate(-35.953 -281.767)" fill="#fff"/>
      <g id="Grupo_112350" data-name="Grupo 112350" transform="translate(55.411 136.816)">
        <path id="Trazado_116983" data-name="Trazado 116983" d="M79.2,463.4l-6.315-3.65c-.5-.288-.439-.8.136-1.136l7.451-4.3a2.193,2.193,0,0,1,1.984-.076l6.315,3.65c.515.288.439.8-.136,1.136l-7.451,4.3A2.192,2.192,0,0,1,79.2,463.4Z" transform="translate(-72.547 -429.109)" fill="#5793ce"/>
        <path id="Trazado_116984" data-name="Trazado 116984" d="M85.64,467.121l-6.315-3.65c-.5-.288-.439-.8.136-1.136l7.451-4.3a2.192,2.192,0,0,1,1.984-.076l6.315,3.65c.5.288.439.8-.136,1.136l-7.451,4.3A2.192,2.192,0,0,1,85.64,467.121Z" transform="translate(-69.234 -427.196)" fill="#5793ce"/>
        <path id="Trazado_116985" data-name="Trazado 116985" d="M92.08,470.841l-6.315-3.65c-.5-.288-.439-.8.136-1.136l7.451-4.3a2.193,2.193,0,0,1,1.984-.076l6.315,3.65c.5.288.439.8-.136,1.136l-7.451,4.3A2.192,2.192,0,0,1,92.08,470.841Z" transform="translate(-65.921 -425.282)" fill="#5793ce"/>
        <path id="Trazado_116986" data-name="Trazado 116986" d="M100.99,467.539l-6.315-3.65c-.5-.288-.439-.8.136-1.136l6.254-3.619a2.193,2.193,0,0,1,1.984-.076l6.315,3.65c.5.288.439.8-.136,1.136l-6.254,3.619A2.193,2.193,0,0,1,100.99,467.539Z" transform="translate(-61.338 -426.63)" fill="#5793ce"/>
        <path id="Trazado_116987" data-name="Trazado 116987" d="M107.44,471.25l-6.315-3.65c-.5-.288-.439-.8.136-1.136l6.254-3.619a2.192,2.192,0,0,1,1.984-.076l6.315,3.65c.515.288.439.8-.136,1.136l-6.254,3.619A2.193,2.193,0,0,1,107.44,471.25Z" transform="translate(-58.02 -424.722)" fill="#5793ce"/>
        <path id="Trazado_116988" data-name="Trazado 116988" d="M113.88,474.969l-6.315-3.65c-.5-.288-.439-.8.136-1.136l6.254-3.619a2.193,2.193,0,0,1,1.984-.076l6.315,3.65c.5.288.439.8-.136,1.136l-6.254,3.619A2.193,2.193,0,0,1,113.88,474.969Z" transform="translate(-54.708 -422.808)" fill="#5793ce"/>
        <path id="Trazado_116989" data-name="Trazado 116989" d="M120.32,478.689,114,475.04c-.5-.288-.439-.8.136-1.136l6.254-3.619a2.192,2.192,0,0,1,1.984-.076l6.315,3.65c.5.288.439.8-.136,1.136l-6.254,3.619A2.192,2.192,0,0,1,120.32,478.689Z" transform="translate(-51.395 -420.895)" fill="#5793ce"/>
        <path id="Trazado_116990" data-name="Trazado 116990" d="M126.76,482.41l-6.315-3.65c-.5-.288-.439-.8.136-1.136L126.836,474a2.192,2.192,0,0,1,1.984-.076l6.315,3.65c.5.288.439.8-.136,1.136l-6.254,3.619a2.193,2.193,0,0,1-1.984.076Z" transform="translate(-48.082 -418.981)" fill="#5793ce"/>
        <path id="Trazado_116991" data-name="Trazado 116991" d="M133.21,486.129l-6.315-3.65c-.5-.288-.439-.8.136-1.136l6.254-3.619a2.192,2.192,0,0,1,1.984-.076l6.315,3.65c.5.288.439.8-.136,1.136l-6.254,3.62A2.192,2.192,0,0,1,133.21,486.129Z" transform="translate(-44.765 -417.067)" fill="#5793ce"/>
        <path id="Trazado_116992" data-name="Trazado 116992" d="M139.65,489.849l-6.315-3.65c-.5-.288-.439-.8.136-1.136l6.254-3.619a2.192,2.192,0,0,1,1.984-.076l6.315,3.65c.515.288.439.8-.136,1.136l-6.254,3.619A2.192,2.192,0,0,1,139.65,489.849Z" transform="translate(-41.452 -415.154)" fill="#5793ce"/>
        <path id="Trazado_116993" data-name="Trazado 116993" d="M146.09,493.57l-6.315-3.65c-.5-.288-.439-.8.136-1.136l6.254-3.619a2.192,2.192,0,0,1,1.984-.076l6.315,3.65c.5.288.439.8-.136,1.136l-6.254,3.619A2.193,2.193,0,0,1,146.09,493.57Z" transform="translate(-38.139 -413.241)" fill="#5793ce"/>
        <path id="Trazado_116994" data-name="Trazado 116994" d="M152.53,497.289l-6.315-3.65c-.5-.288-.439-.8.136-1.136l6.254-3.619a2.192,2.192,0,0,1,1.984-.076l6.315,3.65c.5.288.439.8-.136,1.136l-6.254,3.619A2.192,2.192,0,0,1,152.53,497.289Z" transform="translate(-34.827 -411.327)" fill="#5793ce"/>
        <path id="Trazado_116995" data-name="Trazado 116995" d="M158.98,501.009l-6.315-3.65c-.5-.288-.439-.8.136-1.136l6.254-3.619a2.192,2.192,0,0,1,1.984-.076l6.315,3.65c.5.288.439.8-.136,1.136l-6.254,3.619A2.192,2.192,0,0,1,158.98,501.009Z" transform="translate(-31.509 -409.413)" fill="#5793ce"/>
        <path id="Trazado_116996" data-name="Trazado 116996" d="M110.49,465.769l-6.315-3.65c-.5-.288-.439-.8.136-1.136l6.254-3.619a2.192,2.192,0,0,1,1.984-.076l6.315,3.65c.5.288.439.8-.136,1.136l-6.254,3.619A2.192,2.192,0,0,1,110.49,465.769Z" transform="translate(-56.451 -427.54)" fill="#5793ce"/>
        <path id="Trazado_116997" data-name="Trazado 116997" d="M103.95,462l-6.315-3.65c-.5-.288-.439-.8.136-1.136l6.254-3.619a2.192,2.192,0,0,1,1.984-.076l6.315,3.65c.5.288.439.8-.136,1.136l-6.254,3.619A2.193,2.193,0,0,1,103.95,462Z" transform="translate(-59.815 -429.48)" fill="#5793ce"/>
        <path id="Trazado_116998" data-name="Trazado 116998" d="M99.874,459.649l-13.6-7.86c-.5-.288-.439-.8.136-1.136l6.254-3.619a2.193,2.193,0,0,1,1.984-.076l13.614,7.86c.5.288.439.8-.136,1.136l-6.254,3.619a2.192,2.192,0,0,1-1.984.076Z" transform="translate(-65.659 -432.854)" fill="#5793ce"/>
        <path id="Trazado_116999" data-name="Trazado 116999" d="M103.585,454.545l-11.04-6.376c-.5-.288-.439-.8.136-1.136l6.254-3.619a2.192,2.192,0,0,1,1.984-.076l11.04,6.376c.5.288.439.8-.136,1.136l-6.254,3.619A2.193,2.193,0,0,1,103.585,454.545Z" transform="translate(-62.434 -434.716)" fill="#5793ce"/>
        <path id="Trazado_117000" data-name="Trazado 117000" d="M116.93,469.49l-6.315-3.65c-.5-.288-.439-.8.136-1.136l6.254-3.619a2.193,2.193,0,0,1,1.984-.076l6.315,3.65c.5.288.439.8-.136,1.136l-6.254,3.619A2.193,2.193,0,0,1,116.93,469.49Z" transform="translate(-53.139 -425.627)" fill="#5793ce"/>
        <path id="Trazado_117001" data-name="Trazado 117001" d="M123.37,473.21l-6.315-3.65c-.5-.288-.439-.8.136-1.136l6.254-3.619a2.192,2.192,0,0,1,1.984-.076l6.315,3.65c.5.288.439.8-.136,1.136l-6.254,3.619A2.192,2.192,0,0,1,123.37,473.21Z" transform="translate(-49.826 -423.713)" fill="#5793ce"/>
        <path id="Trazado_117002" data-name="Trazado 117002" d="M129.81,476.929l-6.315-3.65c-.5-.288-.439-.8.136-1.136l6.254-3.619a2.193,2.193,0,0,1,1.984-.076l6.315,3.65c.515.288.439.8-.136,1.136l-6.254,3.619A2.193,2.193,0,0,1,129.81,476.929Z" transform="translate(-46.513 -421.8)" fill="#5793ce"/>
        <path id="Trazado_117003" data-name="Trazado 117003" d="M136.26,480.65,129.945,477c-.5-.288-.439-.8.136-1.136l6.254-3.619a2.192,2.192,0,0,1,1.984-.076l6.315,3.65c.5.288.439.8-.136,1.136l-6.254,3.619A2.192,2.192,0,0,1,136.26,480.65Z" transform="translate(-43.196 -419.886)" fill="#5793ce"/>
        <path id="Trazado_117004" data-name="Trazado 117004" d="M142.7,484.369l-6.315-3.65c-.5-.288-.439-.8.136-1.136l6.254-3.619a2.192,2.192,0,0,1,1.984-.076l6.315,3.65c.5.288.439.8-.136,1.136l-6.254,3.619A2.192,2.192,0,0,1,142.7,484.369Z" transform="translate(-39.883 -417.973)" fill="#5793ce"/>
        <path id="Trazado_117005" data-name="Trazado 117005" d="M149.14,488.089l-6.315-3.65c-.5-.288-.439-.8.136-1.136l6.254-3.619a2.192,2.192,0,0,1,1.984-.076l6.315,3.65c.5.288.439.8-.136,1.136l-6.254,3.619A2.192,2.192,0,0,1,149.14,488.089Z" transform="translate(-36.57 -416.059)" fill="#5793ce"/>
        <path id="Trazado_117006" data-name="Trazado 117006" d="M155.58,491.809l-6.315-3.65c-.5-.288-.439-.8.136-1.136l6.254-3.62a2.192,2.192,0,0,1,1.984-.076l6.315,3.65c.5.288.439.8-.136,1.136l-6.254,3.619A2.192,2.192,0,0,1,155.58,491.809Z" transform="translate(-33.258 -414.146)" fill="#5793ce"/>
        <path id="Trazado_117007" data-name="Trazado 117007" d="M162.03,495.529l-6.315-3.65c-.5-.288-.439-.8.136-1.136l6.254-3.619a2.192,2.192,0,0,1,1.984-.076l6.315,3.65c.515.288.439.8-.136,1.136l-6.254,3.619A2.193,2.193,0,0,1,162.03,495.529Z" transform="translate(-29.94 -412.232)" fill="#5793ce"/>
        <path id="Trazado_117008" data-name="Trazado 117008" d="M168.47,499.249l-6.315-3.65c-.5-.288-.439-.8.136-1.136l6.254-3.619a2.193,2.193,0,0,1,1.984-.076l6.315,3.65c.5.288.439.8-.136,1.136l-6.254,3.619A2.192,2.192,0,0,1,168.47,499.249Z" transform="translate(-26.627 -410.319)" fill="#5793ce"/>
        <path id="Trazado_117009" data-name="Trazado 117009" d="M182.456,507.325l-13.781-7.966c-.5-.288-.439-.8.136-1.136l6.254-3.619a2.193,2.193,0,0,1,1.984-.076l13.781,7.966c.5.288.439.8-.136,1.136l-6.254,3.619A2.192,2.192,0,0,1,182.456,507.325Z" transform="translate(-23.274 -408.385)" fill="#5793ce"/>
        <path id="Trazado_117010" data-name="Trazado 117010" d="M194.265,499.664l-11.63-6.724c-.5-.288-.439-.8.136-1.136l6.254-3.619a2.192,2.192,0,0,1,1.984-.076l11.631,6.724c.5.288.439.8-.136,1.136l-6.254,3.619A2.192,2.192,0,0,1,194.265,499.664Z" transform="translate(-16.093 -411.687)" fill="#5793ce"/>
        <path id="Trazado_117011" data-name="Trazado 117011" d="M128.21,468.77l-6.315-3.65c-.5-.288-.439-.8.136-1.136l6.254-3.619a2.193,2.193,0,0,1,1.984-.076l6.315,3.65c.5.288.439.8-.136,1.136l-6.254,3.619a2.192,2.192,0,0,1-1.984.076Z" transform="translate(-47.336 -425.997)" fill="#5793ce"/>
        <path id="Trazado_117012" data-name="Trazado 117012" d="M121.61,464.949l-6.315-3.65c-.5-.288-.439-.8.136-1.136l6.254-3.619a2.192,2.192,0,0,1,1.984-.076l6.315,3.65c.5.288.439.8-.136,1.136l-6.254,3.619A2.192,2.192,0,0,1,121.61,464.949Z" transform="translate(-50.731 -427.962)" fill="#5793ce"/>
        <path id="Trazado_117013" data-name="Trazado 117013" d="M115,461.139l-6.315-3.65c-.5-.288-.439-.8.136-1.136l6.254-3.619a2.192,2.192,0,0,1,1.984-.076l6.315,3.65c.5.288.439.8-.136,1.136l-6.254,3.619A2.193,2.193,0,0,1,115,461.139Z" transform="translate(-54.132 -429.922)" fill="#5793ce"/>
        <path id="Trazado_117014" data-name="Trazado 117014" d="M108.4,457.329l-6.315-3.65c-.5-.288-.439-.8.136-1.136l6.254-3.619a2.192,2.192,0,0,1,1.984-.076l6.315,3.65c.515.288.439.8-.136,1.136l-6.254,3.619A2.192,2.192,0,0,1,108.4,457.329Z" transform="translate(-57.526 -431.882)" fill="#5793ce"/>
        <path id="Trazado_117015" data-name="Trazado 117015" d="M134.65,472.49l-6.315-3.65c-.5-.288-.439-.8.136-1.136l6.254-3.619a2.193,2.193,0,0,1,1.984-.076l6.315,3.65c.5.288.439.8-.136,1.136l-6.254,3.619A2.193,2.193,0,0,1,134.65,472.49Z" transform="translate(-44.024 -424.084)" fill="#5793ce"/>
        <path id="Trazado_117016" data-name="Trazado 117016" d="M141.1,476.2l-6.315-3.65c-.5-.288-.439-.8.136-1.136l6.254-3.619a2.192,2.192,0,0,1,1.984-.076l6.315,3.65c.5.288.439.8-.136,1.136l-6.254,3.619A2.193,2.193,0,0,1,141.1,476.2Z" transform="translate(-40.706 -422.175)" fill="#5793ce"/>
        <path id="Trazado_117017" data-name="Trazado 117017" d="M147.54,479.919l-6.315-3.65c-.5-.288-.439-.8.136-1.136l6.254-3.619a2.192,2.192,0,0,1,1.984-.076l6.315,3.65c.5.288.439.8-.136,1.136l-6.254,3.619A2.193,2.193,0,0,1,147.54,479.919Z" transform="translate(-37.393 -420.262)" fill="#5793ce"/>
        <path id="Trazado_117018" data-name="Trazado 117018" d="M153.98,483.639l-6.315-3.65c-.5-.288-.439-.8.136-1.136l6.254-3.619a2.193,2.193,0,0,1,1.984-.076l6.315,3.65c.5.288.439.8-.136,1.136l-6.254,3.619A2.192,2.192,0,0,1,153.98,483.639Z" transform="translate(-34.081 -418.348)" fill="#5793ce"/>
        <path id="Trazado_117019" data-name="Trazado 117019" d="M160.422,487.359l-6.315-3.65c-.515-.288-.439-.8.136-1.136l6.254-3.619a2.192,2.192,0,0,1,1.984-.076l6.315,3.65c.5.288.439.8-.136,1.136l-6.254,3.619A2.192,2.192,0,0,1,160.422,487.359Z" transform="translate(-30.77 -416.435)" fill="#5793ce"/>
        <path id="Trazado_117020" data-name="Trazado 117020" d="M166.87,491.079l-6.315-3.65c-.5-.288-.439-.8.136-1.136l6.254-3.62a2.193,2.193,0,0,1,1.984-.076l6.315,3.65c.5.288.439.8-.136,1.136L168.854,491A2.193,2.193,0,0,1,166.87,491.079Z" transform="translate(-27.45 -414.521)" fill="#5793ce"/>
        <path id="Trazado_117021" data-name="Trazado 117021" d="M173.31,494.8l-6.315-3.65c-.5-.288-.439-.8.136-1.136l6.254-3.619a2.193,2.193,0,0,1,1.984-.076l6.315,3.65c.5.288.439.8-.136,1.136l-6.254,3.619A2.192,2.192,0,0,1,173.31,494.8Z" transform="translate(-24.138 -412.608)" fill="#5793ce"/>
        <path id="Trazado_117022" data-name="Trazado 117022" d="M179.75,498.52l-6.315-3.65c-.5-.288-.439-.8.136-1.136l6.254-3.619a2.193,2.193,0,0,1,1.984-.076l6.315,3.65c.5.288.439.8-.136,1.136l-6.254,3.619A2.192,2.192,0,0,1,179.75,498.52Z" transform="translate(-20.825 -410.694)" fill="#5793ce"/>
        <path id="Trazado_117023" data-name="Trazado 117023" d="M186.19,502.239l-6.315-3.65c-.5-.288-.439-.8.136-1.136l6.254-3.619a2.192,2.192,0,0,1,1.984-.076l6.315,3.65c.5.288.439.8-.136,1.136l-6.254,3.619A2.192,2.192,0,0,1,186.19,502.239Z" transform="translate(-17.512 -408.781)" fill="#5793ce"/>
        <path id="Trazado_117024" data-name="Trazado 117024" d="M124.82,459.569l-6.315-3.65c-.5-.288-.439-.8.136-1.136l6.254-3.619a2.192,2.192,0,0,1,1.984-.076l6.315,3.65c.5.288.439.8-.136,1.136l-6.254,3.619A2.192,2.192,0,0,1,124.82,459.569Z" transform="translate(-49.08 -430.73)" fill="#5793ce"/>
        <path id="Trazado_117025" data-name="Trazado 117025" d="M118.41,455.859l-6.315-3.65c-.5-.288-.439-.8.136-1.136l6.254-3.619a2.192,2.192,0,0,1,1.984-.076l6.315,3.65c.5.288.439.8-.136,1.136l-6.254,3.619A2.192,2.192,0,0,1,118.41,455.859Z" transform="translate(-52.377 -432.638)" fill="#5793ce"/>
        <path id="Trazado_117026" data-name="Trazado 117026" d="M112,452.159l-6.315-3.65c-.5-.288-.439-.8.136-1.136l6.254-3.619a2.192,2.192,0,0,1,1.984-.076l6.315,3.65c.5.288.439.8-.136,1.136l-6.254,3.619A2.192,2.192,0,0,1,112,452.159Z" transform="translate(-55.675 -434.541)" fill="#5793ce"/>
        <path id="Trazado_117027" data-name="Trazado 117027" d="M105.59,448.459l-6.315-3.65c-.5-.288-.439-.8.136-1.136l6.254-3.619a2.193,2.193,0,0,1,1.984-.076l6.315,3.65c.5.288.439.8-.136,1.136l-6.254,3.619A2.192,2.192,0,0,1,105.59,448.459Z" transform="translate(-58.972 -436.444)" fill="#5793ce"/>
        <path id="Trazado_117028" data-name="Trazado 117028" d="M112.18,443.836l-6.315-3.65c-.5-.288-.439-.8.136-1.136l2.075-1.2a2.192,2.192,0,0,1,1.984-.076l6.315,3.65c.5.288.439.8-.136,1.136l-2.075,1.2A2.192,2.192,0,0,1,112.18,443.836Z" transform="translate(-55.582 -437.576)" fill="#5793ce"/>
        <path id="Trazado_117029" data-name="Trazado 117029" d="M120.54,448.666l-6.315-3.65c-.5-.288-.439-.8.136-1.136l2.075-1.2a2.192,2.192,0,0,1,1.984-.076l6.315,3.65c.5.288.439.8-.136,1.136l-2.075,1.2A2.192,2.192,0,0,1,120.54,448.666Z" transform="translate(-51.282 -435.092)" fill="#5793ce"/>
        <path id="Trazado_117030" data-name="Trazado 117030" d="M126.93,452.346l-6.315-3.65c-.5-.288-.439-.8.136-1.136l2.075-1.2a2.193,2.193,0,0,1,1.984-.076l6.315,3.65c.5.288.439.8-.136,1.136l-2.075,1.2A2.193,2.193,0,0,1,126.93,452.346Z" transform="translate(-47.995 -433.199)" fill="#5793ce"/>
        <path id="Trazado_117031" data-name="Trazado 117031" d="M133.31,456.036l-6.315-3.65c-.5-.288-.439-.8.136-1.136l2.075-1.2a2.192,2.192,0,0,1,1.984-.076l6.315,3.65c.5.288.439.8-.136,1.136l-2.075,1.2A2.193,2.193,0,0,1,133.31,456.036Z" transform="translate(-44.713 -431.301)" fill="#5793ce"/>
        <path id="Trazado_117032" data-name="Trazado 117032" d="M139.7,459.716l-6.315-3.65c-.5-.288-.439-.8.136-1.136l2.075-1.2a2.192,2.192,0,0,1,1.984-.076l6.315,3.65c.5.288.439.8-.136,1.136l-2.075,1.2A2.193,2.193,0,0,1,139.7,459.716Z" transform="translate(-41.426 -429.408)" fill="#5793ce"/>
        <path id="Trazado_117033" data-name="Trazado 117033" d="M175.33,480.3l-6.315-3.65c-.5-.288-.439-.8.136-1.136l2.075-1.2a2.192,2.192,0,0,1,1.984-.076l6.315,3.65c.5.288.439.8-.136,1.136l-2.075,1.2A2.193,2.193,0,0,1,175.33,480.3Z" transform="translate(-23.099 -418.822)" fill="#5793ce"/>
        <path id="Trazado_117034" data-name="Trazado 117034" d="M181.72,483.986l-6.315-3.65c-.5-.288-.439-.8.136-1.136l2.075-1.2a2.192,2.192,0,0,1,1.984-.076l6.315,3.65c.515.288.439.8-.136,1.136l-2.075,1.2A2.192,2.192,0,0,1,181.72,483.986Z" transform="translate(-19.812 -416.924)" fill="#5793ce"/>
        <path id="Trazado_117035" data-name="Trazado 117035" d="M188.1,487.666l-6.315-3.65c-.5-.288-.439-.8.136-1.136l2.075-1.2a2.193,2.193,0,0,1,1.984-.076l6.315,3.65c.5.288.439.8-.136,1.136l-2.075,1.2A2.192,2.192,0,0,1,188.1,487.666Z" transform="translate(-16.53 -415.031)" fill="#5793ce"/>
        <path id="Trazado_117036" data-name="Trazado 117036" d="M194.49,491.357l-6.315-3.65c-.5-.288-.439-.8.136-1.136l2.075-1.2a2.192,2.192,0,0,1,1.984-.076l6.315,3.65c.5.288.439.8-.136,1.136l-2.075,1.2A2.192,2.192,0,0,1,194.49,491.357Z" transform="translate(-13.243 -413.132)" fill="#5793ce"/>
        <path id="Trazado_117037" data-name="Trazado 117037" d="M131.26,463.289l-6.315-3.65c-.5-.288-.439-.8.136-1.136l6.254-3.619a2.192,2.192,0,0,1,1.984-.076l6.315,3.65c.5.288.439.8-.136,1.136l-6.254,3.619A2.193,2.193,0,0,1,131.26,463.289Z" transform="translate(-45.768 -428.816)" fill="#5793ce"/>
        <path id="Trazado_117038" data-name="Trazado 117038" d="M137.7,467l-6.315-3.65c-.5-.288-.439-.8.136-1.136l6.254-3.619a2.192,2.192,0,0,1,1.984-.076l6.315,3.65c.5.288.439.8-.136,1.136l-6.254,3.619A2.192,2.192,0,0,1,137.7,467Z" transform="translate(-42.455 -426.908)" fill="#5793ce"/>
        <path id="Trazado_117039" data-name="Trazado 117039" d="M144.15,470.719l-6.315-3.65c-.5-.288-.439-.8.136-1.136l6.254-3.619a2.192,2.192,0,0,1,1.984-.076l6.315,3.65c.5.288.439.8-.136,1.136l-6.254,3.619A2.193,2.193,0,0,1,144.15,470.719Z" transform="translate(-39.137 -424.994)" fill="#5793ce"/>
        <path id="Trazado_117040" data-name="Trazado 117040" d="M150.59,474.439l-6.315-3.65c-.5-.288-.439-.8.136-1.136l6.254-3.619a2.193,2.193,0,0,1,1.984-.076l6.315,3.65c.5.288.439.8-.136,1.136l-6.254,3.619A2.192,2.192,0,0,1,150.59,474.439Z" transform="translate(-35.825 -423.081)" fill="#5793ce"/>
        <path id="Trazado_117041" data-name="Trazado 117041" d="M157.03,478.159l-6.315-3.65c-.5-.288-.439-.8.136-1.136l6.254-3.619a2.192,2.192,0,0,1,1.984-.076l6.315,3.65c.5.288.439.8-.136,1.136l-6.254,3.619A2.192,2.192,0,0,1,157.03,478.159Z" transform="translate(-32.512 -421.167)" fill="#5793ce"/>
        <path id="Trazado_117042" data-name="Trazado 117042" d="M163.47,481.879l-6.315-3.65c-.5-.288-.439-.8.136-1.136l6.254-3.619a2.192,2.192,0,0,1,1.984-.076l6.315,3.65c.5.288.439.8-.136,1.136l-6.254,3.62A2.193,2.193,0,0,1,163.47,481.879Z" transform="translate(-29.199 -419.254)" fill="#5793ce"/>
        <path id="Trazado_117043" data-name="Trazado 117043" d="M169.92,485.6l-6.315-3.65c-.5-.288-.439-.8.136-1.136L170,477.195a2.193,2.193,0,0,1,1.984-.076l6.315,3.65c.5.288.439.8-.136,1.136l-6.254,3.619A2.193,2.193,0,0,1,169.92,485.6Z" transform="translate(-25.881 -417.34)" fill="#5793ce"/>
        <path id="Trazado_117044" data-name="Trazado 117044" d="M176.36,489.319l-6.315-3.65c-.5-.288-.439-.8.136-1.136l6.254-3.619a2.193,2.193,0,0,1,1.984-.076l6.315,3.65c.5.288.439.8-.136,1.136l-6.254,3.619A2.192,2.192,0,0,1,176.36,489.319Z" transform="translate(-22.569 -415.427)" fill="#5793ce"/>
        <path id="Trazado_117045" data-name="Trazado 117045" d="M182.8,493.04l-6.315-3.65c-.515-.288-.439-.8.136-1.136l6.254-3.619a2.192,2.192,0,0,1,1.984-.076l6.315,3.65c.5.288.439.8-.136,1.136l-6.254,3.619A2.193,2.193,0,0,1,182.8,493.04Z" transform="translate(-19.258 -413.513)" fill="#5793ce"/>
        <path id="Trazado_117046" data-name="Trazado 117046" d="M98.607,466.147,79.995,455.41c-.5-.288-.439-.8.136-1.136l6.254-3.619a2.192,2.192,0,0,1,1.984-.076l18.612,10.737c.5.288.439.8-.136,1.136l-6.254,3.619A2.193,2.193,0,0,1,98.607,466.147Z" transform="translate(-68.889 -430.992)" fill="#5793ce"/>
        <path id="Trazado_117047" data-name="Trazado 117047" d="M177.757,511.847,159.145,501.11c-.5-.288-.439-.8.136-1.136l6.254-3.619a2.192,2.192,0,0,1,1.984-.076l18.612,10.737c.5.288.439.8-.136,1.136l-6.254,3.619A2.192,2.192,0,0,1,177.757,511.847Z" transform="translate(-28.176 -407.485)" fill="#5793ce"/>
        <path id="Trazado_117048" data-name="Trazado 117048" d="M147.81,503.011l-6.315-3.65c-.5-.288-.439-.8.136-1.136l7.451-4.3a2.193,2.193,0,0,1,1.984-.076l6.315,3.65c.5.288.439.8-.136,1.136l-7.451,4.3A2.192,2.192,0,0,1,147.81,503.011Z" transform="translate(-37.255 -408.734)" fill="#5793ce"/>
        <path id="Trazado_117049" data-name="Trazado 117049" d="M102.306,476.742l-10.1-5.83c-.5-.288-.439-.8.136-1.136l7.451-4.3a2.193,2.193,0,0,1,1.984-.076l10.1,5.83c.5.288.439.8-.136,1.136l-7.451,4.3A2.192,2.192,0,0,1,102.306,476.742Z" transform="translate(-62.609 -423.369)" fill="#5793ce"/>
        <path id="Trazado_117050" data-name="Trazado 117050" d="M142.888,500.172l-10.1-5.83c-.515-.288-.439-.8.136-1.136l7.451-4.3a2.193,2.193,0,0,1,1.984-.076l10.1,5.83c.515.288.439.8-.136,1.136l-7.451,4.3A2.192,2.192,0,0,1,142.888,500.172Z" transform="translate(-41.737 -411.317)" fill="#5793ce"/>
        <path id="Trazado_117051" data-name="Trazado 117051" d="M111.606,482.112l-10.1-5.83c-.5-.288-.439-.8.136-1.136l7.451-4.3a2.193,2.193,0,0,1,1.984-.076l10.1,5.83c.5.288.439.8-.136,1.136l-7.451,4.3A2.193,2.193,0,0,1,111.606,482.112Z" transform="translate(-57.825 -420.606)" fill="#5793ce"/>
        <path id="Trazado_117052" data-name="Trazado 117052" d="M111.011,470.71l43.932,25.366a.6.6,0,0,1,0,1.136l-7.6,4.392a2.15,2.15,0,0,1-1.969,0L101.44,476.237Z" transform="translate(-57.684 -420.532)" fill="#5793ce"/>
        <path id="Trazado_117053" data-name="Trazado 117053" d="M165.28,506.636l7.042,4.058c.409.242.363.666-.121.939l-3.044,1.757a1.806,1.806,0,0,1-1.62.061l-7.042-4.059c-.409-.242-.363-.666.121-.939l3.044-1.757A1.806,1.806,0,0,1,165.28,506.636Z" transform="translate(-27.45 -402.137)" fill="#5793ce"/>
        <path id="Trazado_117054" data-name="Trazado 117054" d="M158.78,502.886l7.042,4.059c.409.242.363.666-.121.939l-3.044,1.757a1.806,1.806,0,0,1-1.62.061l-7.042-4.058c-.409-.242-.363-.666.121-.939l3.044-1.757A1.806,1.806,0,0,1,158.78,502.886Z" transform="translate(-30.794 -404.066)" fill="#5793ce"/>
        <path id="Trazado_117055" data-name="Trazado 117055" d="M152.34,499.166l7.042,4.059c.409.242.363.666-.121.939l-3.044,1.757a1.806,1.806,0,0,1-1.62.061l-7.042-4.059c-.409-.242-.363-.666.121-.939l3.044-1.757A1.806,1.806,0,0,1,152.34,499.166Z" transform="translate(-34.106 -405.98)" fill="#5793ce"/>
        <path id="Trazado_117056" data-name="Trazado 117056" d="M162.34,500.826l7.042,4.059c.409.242.363.666-.121.939l-3.044,1.757a1.806,1.806,0,0,1-1.62.061l-7.042-4.058c-.409-.242-.363-.666.121-.939l3.044-1.757A1.806,1.806,0,0,1,162.34,500.826Z" transform="translate(-28.962 -405.126)" fill="#5793ce"/>
      </g>
      <g id="Grupo_112351" data-name="Grupo 112351" transform="translate(148.142 49.881)">
        <path id="Trazado_117057" data-name="Trazado 117057" d="M153.061,392.739l-15.871-9.162.681-3.407,15.871,9.162Z" transform="translate(-132.026 -380.17)" fill="#d4ecff"/>
        <path id="Trazado_117058" data-name="Trazado 117058" d="M151.921,397.995l-15.871-9.162.681-3.423,15.871,9.162Z" transform="translate(-132.612 -377.475)" fill="#fff"/>
        <path id="Trazado_117059" data-name="Trazado 117059" d="M203.351,470.715l-15.871-9.162.681-3.423,15.871,9.162Z" transform="translate(-106.157 -340.068)" fill="#ffb30b"/>
        <path id="Trazado_117060" data-name="Trazado 117060" d="M149.651,408.469l-15.871-9.162.681-3.407,15.856,9.162Z" transform="translate(-133.78 -372.079)" fill="#ffb30b"/>
      </g>
    </g>
    <g id="Grupo_112377" data-name="Grupo 112377" transform="translate(304.936 596.64)">
      <g id="Grupo_112375" data-name="Grupo 112375" transform="translate(0 0)">
        <path id="Trazado_117144" data-name="Trazado 117144" d="M273.916,377.458,221.85,347.389l80.021-46.2,52.066,30.069Zm-47.963-30.069,47.963,27.695,75.917-43.837-47.963-27.695Z" transform="translate(-199.762 -177.427)" fill="#fff"/>
        <path id="Trazado_117145" data-name="Trazado 117145" d="M271.762,319.591a9.2,9.2,0,0,1-8.342,0c-2.306-1.334-2.306-3.482,0-4.816a9.2,9.2,0,0,1,8.342,0C274.068,316.109,274.068,318.257,271.762,319.591Z" transform="translate(-194.567 -175.786)" fill="#fff"/>
        <g id="Grupo_112374" data-name="Grupo 112374">
          <g id="Grupo_112373" data-name="Grupo 112373" transform="translate(20.46)">
            <path id="Trazado_117146" data-name="Trazado 117146" d="M343.675,250.578c-9.507-5.584-19.511-9.665-28.192-15.9v-.588a4.776,4.776,0,0,0-.972-.124c-.316-.237-.633-.463-.938-.7v.69a4.392,4.392,0,0,1-2.419-.531V255c0,31.312-19.036,67.779-42.446,81.287l-6.488,3.753c-7.291,4.205-14.345,5.731-20.449,4.5v4.4a26.129,26.129,0,0,0,4.228.35,30.3,30.3,0,0,0,5.449-.52l1.04,3.052s10.2,10.4,11.021,9.993,10.614,2.781,11.123,2.577,10.818-1.549,12.163-1.854,8.964-4.838,8.964-4.838l11.27-7.834,10.773-8.037,13.09-18.957,10.094-25.445,2.984-13.531s-.271-28.9-.305-33.3Z" transform="translate(-217.625 -186.284)" fill="#173d7a"/>
            <path id="Trazado_117147" data-name="Trazado 117147" d="M242.9,345.826c6.1,1.232,13.158-.294,20.449-4.5l6.488-3.753c23.4-13.508,42.446-49.975,42.446-81.287V234.708a4.492,4.492,0,0,0,2.419.531v-.69c.305.237.633.475.938.7a5.727,5.727,0,0,1,.859.1c-.339-.237-.69-.452-1.017-.69v-.588a4.771,4.771,0,0,0-.972-.124c-.316-.237-.633-.464-.938-.7v.69a4.392,4.392,0,0,1-2.419-.531v21.579c0,31.312-19.036,67.778-42.446,81.287l-6.488,3.753c-7.291,4.205-14.345,5.731-20.449,4.5v4.4c.373.057.757.1,1.13.147v-3.244Z" transform="translate(-217.625 -186.286)" fill="#fff"/>
            <path id="Trazado_117148" data-name="Trazado 117148" d="M337.146,277.62l-.294-.17c-3.81,28.316-21.025,58.046-41.644,69.949l-6.488,3.753c-9.586,5.539-18.765,6.409-25.92,2.509.271.181.554.35.836.509,7.2,4.16,16.549,3.346,26.316-2.295l6.488-3.753c20.618-11.9,37.846-41.632,41.644-69.949l.294.169a5.918,5.918,0,0,0,2.589.678c.034-.249.079-.5.113-.746a6.832,6.832,0,0,1-3.945-.644Z" transform="translate(-214.883 -180.522)" fill="#fff"/>
            <path id="Trazado_117149" data-name="Trazado 117149" d="M342.476,281.583V251.322l-9.382-3.968L298.82,232.84v30.148h0a2.066,2.066,0,0,0,1.221,1.741l33.652,19.431a7.839,7.839,0,0,0,7.054-.294,2.894,2.894,0,0,0,1.718-2.283h0Z" transform="translate(-210.186 -186.339)" fill="#396caa"/>
            <path id="Trazado_117150" data-name="Trazado 117150" d="M341.926,250.771l-10-3.968L298.27,232.3Z" transform="translate(-210.257 -186.41)" fill="#2c2660"/>
            <path id="Trazado_117151" data-name="Trazado 117151" d="M332.061,246.921v36.094a8.182,8.182,0,0,0,4.352-.983,2.9,2.9,0,0,0,1.718-2.283h0V249.487l-6.081-2.577Z" transform="translate(-205.853 -184.505)" fill="#173d7a"/>
            <path id="Trazado_117152" data-name="Trazado 117152" d="M333.683,254.406l-33.652-19.431c-1.809-1.04-1.583-2.871.509-4.069h0a7.839,7.839,0,0,1,7.054-.294l33.652,19.432c1.809,1.04,1.582,2.871-.509,4.069h0A7.839,7.839,0,0,1,333.683,254.406Z" transform="translate(-210.187 -186.722)" fill="#d4ecff"/>
            <path id="Trazado_117153" data-name="Trazado 117153" d="M302.273,194.978s-.09-.057-.124-.079a.337.337,0,0,0-.09-.045l-.283-.158h-.034c-8.534-4.714-19.251-3.843-30.238,2.509l-6.488,3.753c-24.6,14.2-44.605,52.349-44.605,85.028v28.441c0,17.645,5.878,31.154,16.131,37.077.531.305,1.085.588,1.639.859h-.011l28.2,16.368-8.037-9.88-3.244-14.367-.622-16.538-.158-10.2V295.029l2.012-11.44,2.159-9.269,4.476-11.847,4.25-9.021,3.945-5.641,5.335-8.964,3.629-4.409,5.482-4.25,4.013-3.549,10.2-7.653,9.247-4.431,8.037-2.159,7.314.2,7.461-.475-29.605-17.114Z" transform="translate(-220.41 -191.703)" fill="#d4ecff"/>
            <path id="Trazado_117154" data-name="Trazado 117154" d="M336.908,252.7l-.35-.61h.1l-.916-6.692c-.09-2.69-.169-5.053-.169-5.053s-3.4-16.278-3.606-16.583-4.838-8.241-4.838-8.241l-15.249-6.183s-9.586.622-9.586.927c0,.023.023.113.056.26-.588.124-1.176.271-1.752.441a56.382,56.382,0,0,1,2.871,18.708V236.2a1.142,1.142,0,0,0,.7,1.2l29.888,17.318c.972.565,1.842-.113,2.815-.667s.995-.78.023-1.334Z" transform="translate(-209.954 -189.403)" fill="#173d7a"/>
            <path id="Trazado_117155" data-name="Trazado 117155" d="M251.406,336.58c-.215.045-.43.068-.656.1l.554,1.65s.407.407,1.051,1.063l-.961-2.815Z" transform="translate(-216.454 -172.812)" fill="#2c2660"/>
            <path id="Trazado_117156" data-name="Trazado 117156" d="M304.612,237.5v-6.522a56.385,56.385,0,0,0-2.871-18.708c.576-.17,1.164-.305,1.752-.441a2.3,2.3,0,0,1-.056-.26c0-.305,9.586-.927,9.586-.927l14.763,5.98c-.384-.667-.644-1.108-.644-1.108l-15.249-6.183s-9.586.622-9.586.927c0,.023.023.113.057.26-.588.124-1.176.271-1.752.441a56.385,56.385,0,0,1,2.871,18.708v6.522a1.142,1.142,0,0,0,.7,1.2l.43.249v-.147Z" transform="translate(-209.952 -189.405)" fill="#fff"/>
            <path id="Trazado_117157" data-name="Trazado 117157" d="M345.23,253.9v-6.353c0-17.645-5.889-31.154-16.131-37.077-8.6-4.962-19.477-4.149-30.645,2.295l-6.488,3.753c-24.6,14.2-44.605,52.349-44.605,85.028v28.441c0,17.646,5.878,31.154,16.131,37.077a24.2,24.2,0,0,0,12.254,3.21c5.788,0,12.05-1.843,18.38-5.5l6.488-3.753c21.591-12.468,39.632-43.4,43.724-72.877a6.833,6.833,0,0,1-3.945-.644l-.294-.17c-3.81,28.316-21.025,58.046-41.644,69.949l-6.488,3.753c-9.767,5.641-19.115,6.455-26.316,2.295-8.874-5.121-13.96-17.272-13.96-33.324V301.557c0-31.312,19.036-67.778,42.446-81.287l6.488-3.753c5.663-3.267,11.18-4.917,16.21-4.917a19.962,19.962,0,0,1,10.106,2.623c8.874,5.121,13.96,17.272,13.96,33.324v7.37l.113.068a3.856,3.856,0,0,0,3.516,0,1.154,1.154,0,0,0,.7-1.085h0Z" transform="translate(-216.896 -189.675)" fill="url(#linear-gradient)"/>
            <path id="Trazado_117158" data-name="Trazado 117158" d="M345.23,253.9v-6.353c0-17.645-5.889-31.154-16.131-37.077-8.6-4.962-19.477-4.149-30.645,2.295l-6.488,3.753c-24.6,14.2-44.605,52.349-44.605,85.028v28.441c0,17.646,5.878,31.154,16.131,37.077a24.2,24.2,0,0,0,12.254,3.21c5.788,0,12.05-1.843,18.38-5.5l6.488-3.753c21.591-12.468,39.632-43.4,43.724-72.877a6.833,6.833,0,0,1-3.945-.644l-.294-.17c-3.81,28.316-21.025,58.046-41.644,69.949l-6.488,3.753c-9.767,5.641-19.115,6.455-26.316,2.295-8.874-5.121-13.96-17.272-13.96-33.324V301.557c0-31.312,19.036-67.778,42.446-81.287l6.488-3.753c5.663-3.267,11.18-4.917,16.21-4.917a19.962,19.962,0,0,1,10.106,2.623c8.874,5.121,13.96,17.272,13.96,33.324v7.37l.113.068a3.856,3.856,0,0,0,3.516,0,1.154,1.154,0,0,0,.7-1.085h0Z" transform="translate(-216.896 -189.675)" fill="#396caa"/>
            <path id="Trazado_117159" data-name="Trazado 117159" d="M327.752,209.84c-8.6-4.962-19.477-4.149-30.645,2.295l-6.488,3.753c-19.85,11.462-36.7,38.524-42.469,65.721a6.278,6.278,0,0,1,1.255.656c5.776-27.175,22.631-54.2,42.458-65.653l6.488-3.753c11-6.353,21.726-7.223,30.261-2.5-.283-.181-.565-.35-.859-.52Z" transform="translate(-216.793 -189.757)" fill="#fff"/>
            <path id="Trazado_117160" data-name="Trazado 117160" d="M250.447,334.26a8.436,8.436,0,0,1-.837.317c2.747,6.839,6.941,12.073,12.344,15.2.136.079.283.147.418.226-5.279-3.335-9.326-8.749-11.926-15.746Z" transform="translate(-216.602 -173.114)" fill="#17e8f7"/>
            <path id="Trazado_117161" data-name="Trazado 117161" d="M317.8,213.446c-.136-.079-.283-.147-.43-.226,8.376,5.381,13.158,17.272,13.158,32.827v7.37l.113.068a.16.16,0,0,1,.034.023l1.1.633v-7.37c0-16.052-5.087-28.2-13.96-33.324Z" transform="translate(-207.767 -188.898)" fill="#fff"/>
          </g>
          <path id="Trazado_117162" data-name="Trazado 117162" d="M269.576,278.027l-54.508-31.47a3.57,3.57,0,0,0-3.583-.316h0l-7.495,4.329,5.528,2.137v63.686c0,4.081,2.487,8.828,5.55,10.592l52.122,30.091-1.3,5.889,7.268-4.205h0c1.2-.667,1.967-2.249,1.967-4.51V288.6c0-4.081-2.487-8.828-5.55-10.592Z" transform="translate(-202.091 -184.637)" fill="#396caa"/>
          <path id="Trazado_117163" data-name="Trazado 117163" d="M272.453,354.472h0c1.2-.667,1.967-2.25,1.967-4.51V284.309a13.321,13.321,0,0,0-1.3-5.449L209.4,315.643c.9,2.973,2.781,5.765,4.962,7.031l52.122,30.091-1.3,5.889,7.268-4.205Z" transform="translate(-201.386 -180.338)" fill="#173d7a"/>
          <path id="Trazado_117164" data-name="Trazado 117164" d="M262.368,362.266,207.86,330.8c-3.063-1.763-5.55-6.511-5.55-10.592V254.55c0-4.081,2.487-5.957,5.55-4.194l54.508,31.47c3.063,1.763,5.55,6.511,5.55,10.592v65.653C267.918,362.152,265.431,364.029,262.368,362.266Z" transform="translate(-202.31 -184.142)" fill="#d4ecff"/>
          <path id="Trazado_117165" data-name="Trazado 117165" d="M263.556,281.175l-54.508-31.47c-1.662-.961-3.131-.814-4.149.136a4.038,4.038,0,0,1,2.623.6l54.508,31.47c3.063,1.763,5.55,6.511,5.55,10.592v65.653a5.41,5.41,0,0,1-1.39,4.047c1.729-.249,2.928-1.978,2.928-4.793V291.756c0-4.081-2.487-8.828-5.55-10.592Z" transform="translate(-201.972 -184.225)" fill="#fff"/>
          <path id="Trazado_117166" data-name="Trazado 117166" d="M260.72,358.946l-51.614-29.8c-2.905-1.673-5.256-6.161-5.256-10.038V256.95c0-3.866,2.351-5.641,5.256-3.968l51.614,29.8c2.905,1.673,5.256,6.161,5.256,10.038v62.16C265.977,358.844,263.625,360.619,260.72,358.946Z" transform="translate(-202.109 -183.795)" fill="#173d7a"/>
        </g>
        <path id="Trazado_117167" data-name="Trazado 117167" d="M251.1,357.351a9.2,9.2,0,0,1-8.342,0c-2.306-1.334-2.306-3.482,0-4.816a9.2,9.2,0,0,1,8.342,0C253.408,353.869,253.408,356.017,251.1,357.351Z" transform="translate(-197.261 -170.862)" fill="#fff"/>
      </g>
      <g id="Grupo_112376" data-name="Grupo 112376" transform="translate(19.511 100.914)">
        <path id="Trazado_117168" data-name="Trazado 117168" d="M229.246,298.671l-8.342-4.816a3.216,3.216,0,0,1-1.334-2.555v-9.156c0-.983.6-1.436,1.334-1.006l8.342,4.816a3.216,3.216,0,0,1,1.334,2.555v9.156C230.58,298.649,229.981,299.1,229.246,298.671Z" transform="translate(-219.57 -280.976)" fill="#ffb30b"/>
        <path id="Trazado_117169" data-name="Trazado 117169" d="M242.116,306.1l-8.342-4.816a3.216,3.216,0,0,1-1.334-2.555v-9.156c0-.983.6-1.436,1.334-1.006l8.342,4.815a3.216,3.216,0,0,1,1.334,2.555V305.1C243.45,306.079,242.851,306.531,242.116,306.1Z" transform="translate(-217.892 -280.008)" fill="#b3e0ff"/>
        <path id="Trazado_117170" data-name="Trazado 117170" d="M229.246,313.051l-8.342-4.816a3.216,3.216,0,0,1-1.334-2.555v-9.156c0-.983.6-1.436,1.334-1.006l8.342,4.816a3.216,3.216,0,0,1,1.334,2.555v9.156C230.58,313.029,229.981,313.481,229.246,313.051Z" transform="translate(-219.57 -279.101)" fill="#fff"/>
        <path id="Trazado_117171" data-name="Trazado 117171" d="M242.116,320.491l-8.342-4.816a3.216,3.216,0,0,1-1.334-2.555v-9.156c0-.983.6-1.436,1.334-1.006l8.342,4.816a3.216,3.216,0,0,1,1.334,2.555v9.156C243.45,320.469,242.851,320.921,242.116,320.491Z" transform="translate(-217.892 -278.131)" fill="#396caa"/>
      </g>
    </g>
  </g>
</svg>
