<svg xmlns="http://www.w3.org/2000/svg" xmlns:xlink="http://www.w3.org/1999/xlink" width="187" height="187" viewBox="0 0 187 187">
  <defs>
    <clipPath id="clip-path">
      <path id="Trazado_120624" data-name="Trazado 120624" d="M191.94,143.94a3.732,3.732,0,0,0-2.12-3.045v-.745a3.741,3.741,0,0,1,2.12,3.045Z" transform="translate(-189.82 -140.15)" fill="none"/>
    </clipPath>
    <clipPath id="clip-path-2">
      <path id="Trazado_120626" data-name="Trazado 120626" d="M160.05,141.534c0-1.163.78-2.327,2.344-3.195a11.873,11.873,0,0,1,10.775.11v.745a11.864,11.864,0,0,0-10.77-.11c-1.564.873-2.349,2.036-2.344,3.195v-.745Z" transform="translate(-160.05 -137.101)" fill="none"/>
    </clipPath>
    <linearGradient id="linear-gradient" y1="0.5" x2="1" y2="0.5" gradientUnits="objectBoundingBox">
      <stop offset="0.15" stop-color="#8d9ddf"/>
      <stop offset="0.44" stop-color="#a9b8f9"/>
      <stop offset="0.46" stop-color="#abbaf9"/>
      <stop offset="0.61" stop-color="#b6c3fa"/>
      <stop offset="0.77" stop-color="#bac6fb"/>
    </linearGradient>
    <linearGradient id="linear-gradient-2" y1="0.5" x2="1" y2="0.5" gradientUnits="objectBoundingBox">
      <stop offset="0.09" stop-color="#ff921c"/>
      <stop offset="0.36" stop-color="#ffac1c"/>
      <stop offset="0.74" stop-color="#ffb536"/>
    </linearGradient>
    <clipPath id="clip-path-3">
      <path id="Trazado_120632" data-name="Trazado 120632" d="M181.152,82.037a.974.974,0,0,0-.555-.8L180.46,32.27a.98.98,0,0,1,.555.8c.04,14.693.1,34.281.141,48.969Z" transform="translate(-180.46 -32.27)" fill="none"/>
    </clipPath>
    <clipPath id="clip-path-4">
      <path id="Trazado_120634" data-name="Trazado 120634" d="M172.644,32.625a1.019,1.019,0,0,1,.617-.837,3.1,3.1,0,0,1,2.825.031l.137,48.969a3.127,3.127,0,0,0-2.825-.031,1.019,1.019,0,0,0-.617.837c-.04-14.693-.1-34.281-.141-48.969Z" transform="translate(-172.64 -31.462)" fill="none"/>
    </clipPath>
    <clipPath id="clip-path-5">
      <path id="Trazado_120636" data-name="Trazado 120636" d="M172.781,83.062l-.141-48.969a.98.98,0,0,0,.555.8,3.113,3.113,0,0,0,2.825.026,1.019,1.019,0,0,0,.617-.837l.141,48.969a1.019,1.019,0,0,1-.617.837,3.1,3.1,0,0,1-2.825-.031.98.98,0,0,1-.555-.8Z" transform="translate(-172.64 -34.08)" fill="none"/>
    </clipPath>
    <linearGradient id="linear-gradient-3" x1="0.001" y1="0.5" x2="1" y2="0.5" xlink:href="#linear-gradient"/>
    <clipPath id="clip-path-6">
      <path id="Trazado_120640" data-name="Trazado 120640" d="M182.821,28.435a1.393,1.393,0,0,0-.8-1.141l-.013-3.913a1.412,1.412,0,0,1,.8,1.141C182.808,25.694,182.816,27.258,182.821,28.435Z" transform="translate(-182.01 -23.38)" fill="none"/>
    </clipPath>
    <clipPath id="clip-path-7">
      <path id="Trazado_120642" data-name="Trazado 120642" d="M170.83,23.9a1.454,1.454,0,0,1,.881-1.2,4.466,4.466,0,0,1,4.046.04l.013,3.913a4.453,4.453,0,0,0-4.046-.04,1.454,1.454,0,0,0-.881,1.2c0-1.172-.009-2.737-.013-3.913Z" transform="translate(-170.83 -22.236)" fill="none"/>
    </clipPath>
    <clipPath id="clip-path-8">
      <path id="Trazado_120644" data-name="Trazado 120644" d="M170.843,29.9l-.013-3.913a1.393,1.393,0,0,0,.8,1.141,4.453,4.453,0,0,0,4.046.04,1.454,1.454,0,0,0,.881-1.2l.013,3.913a1.454,1.454,0,0,1-.881,1.2,4.466,4.466,0,0,1-4.046-.04,1.412,1.412,0,0,1-.8-1.141Z" transform="translate(-170.83 -25.97)" fill="none"/>
    </clipPath>
    <linearGradient id="linear-gradient-4" x1="0" y1="0.5" x2="1" y2="0.5" xlink:href="#linear-gradient"/>
  </defs>
  <g id="Grupo_131834" data-name="Grupo 131834" transform="translate(-397 -5942)">
    <g id="Grupo_114925" data-name="Grupo 114925" transform="translate(406.92 5951.731)">
      <g id="Trazado_187974" data-name="Trazado 187974" transform="translate(0.08 0.269)" fill="#f3f9ff">
        <path d="M 83.5 172 C 77.49864959716797 172 71.49960327148438 171.3950958251953 65.66944885253906 170.2020721435547 C 59.98495101928711 169.0388488769531 54.39345169067383 167.3031463623047 49.05027389526367 165.0431823730469 C 43.80519866943359 162.82470703125 38.74672317504883 160.0791015625 34.01532363891602 156.8826293945312 C 29.33017539978027 153.7174072265625 24.92462539672852 150.08251953125 20.92104911804199 146.0789489746094 C 16.9174747467041 142.0753784179688 13.28260040283203 137.6698303222656 10.11737537384033 132.9846801757812 C 6.920899868011475 128.2532806396484 4.175300121307373 123.1948013305664 1.956825017929077 117.9497222900391 C -0.3031499981880188 112.6065521240234 -2.038850069046021 107.0150527954102 -3.202075004577637 101.3305511474609 C -4.395100116729736 95.50039672851562 -5 89.50135040283203 -5 83.5 C -5 77.49864959716797 -4.395100116729736 71.49960327148438 -3.202075004577637 65.66944885253906 C -2.038850069046021 59.98495101928711 -0.3031499981880188 54.39345169067383 1.956825017929077 49.05027389526367 C 4.175300121307373 43.80519866943359 6.920899868011475 38.74672317504883 10.11737537384033 34.01532363891602 C 13.28260040283203 29.33017539978027 16.9174747467041 24.92462539672852 20.92104911804199 20.92104911804199 C 24.92462539672852 16.9174747467041 29.33017539978027 13.28260040283203 34.01532363891602 10.11737537384033 C 38.74672317504883 6.920899868011475 43.80519866943359 4.175300121307373 49.05027389526367 1.956825017929077 C 54.39345169067383 -0.3031499981880188 59.98495101928711 -2.038850069046021 65.66944885253906 -3.202075004577637 C 71.49960327148438 -4.395100116729736 77.49864959716797 -5 83.5 -5 C 89.50135040283203 -5 95.50039672851562 -4.395100116729736 101.3305511474609 -3.202075004577637 C 107.0150527954102 -2.038850069046021 112.6065521240234 -0.3031499981880188 117.9497222900391 1.956825017929077 C 123.1948013305664 4.175300121307373 128.2532806396484 6.920899868011475 132.9846801757812 10.11737537384033 C 137.6698303222656 13.28260040283203 142.0753784179688 16.9174747467041 146.0789489746094 20.92104911804199 C 150.08251953125 24.92462539672852 153.7174072265625 29.33017539978027 156.8826293945312 34.01532363891602 C 160.0791015625 38.74672317504883 162.82470703125 43.80519866943359 165.0431823730469 49.05027389526367 C 167.3031463623047 54.39345169067383 169.0388488769531 59.98495101928711 170.2020721435547 65.66944885253906 C 171.3950958251953 71.49960327148438 172 77.49864959716797 172 83.5 C 172 89.50135040283203 171.3950958251953 95.50039672851562 170.2020721435547 101.3305511474609 C 169.0388488769531 107.0150527954102 167.3031463623047 112.6065521240234 165.0431823730469 117.9497222900391 C 162.82470703125 123.1948013305664 160.0791015625 128.2532806396484 156.8826293945312 132.9846801757812 C 153.7174072265625 137.6698303222656 150.08251953125 142.0753784179688 146.0789489746094 146.0789489746094 C 142.0753784179688 150.08251953125 137.6698303222656 153.7174072265625 132.9846801757812 156.8826293945312 C 128.2532806396484 160.0791015625 123.1948013305664 162.82470703125 117.9497222900391 165.0431823730469 C 112.6065521240234 167.3031463623047 107.0150527954102 169.0388488769531 101.3305511474609 170.2020721435547 C 95.50039672851562 171.3950958251953 89.50135040283203 172 83.5 172 Z" stroke="none"/>
        <path d="M 83.5 0 C 37.38421630859375 0 0 37.38421630859375 0 83.5 C 0 129.6157836914062 37.38421630859375 167 83.5 167 C 129.6157836914062 167 167 129.6157836914062 167 83.5 C 167 37.38421630859375 129.6157836914062 0 83.5 0 M 83.5 -10 C 135.0560607910156 -10 177 31.94393920898438 177 83.5 C 177 135.0560607910156 135.0560607910156 177 83.5 177 C 31.94393920898438 177 -10 135.0560607910156 -10 83.5 C -10 31.94393920898438 31.94393920898438 -10 83.5 -10 Z" stroke="none" fill="#fdb32b"/>
      </g>
    </g>
    <g id="priorizar" transform="translate(383.948 5944.594)">
      <g id="Grupo_113890" data-name="Grupo 113890" transform="translate(50.06 61.097)">
        <g id="Grupo_113887" data-name="Grupo 113887" transform="translate(62.877 1.609)">
          <path id="Trazado_120613" data-name="Trazado 120613" d="M215.88,203.149l-23.066-13.406-.075-34.894,23.066,13.4Z" transform="translate(-192.74 -139.281)" fill="#0020d9"/>
          <path id="Trazado_120614" data-name="Trazado 120614" d="M215.806,148.491l-23.066-13.4L219.7,119.52l23.066,13.406Z" transform="translate(-192.74 -119.52)" fill="#3856ff"/>
          <path id="Trazado_120615" data-name="Trazado 120615" d="M272.041,149.94l.079,34.9L245.155,200.4l-.075-34.9Z" transform="translate(-222.014 -136.534)" fill="#2c47e8"/>
        </g>
        <g id="Grupo_113888" data-name="Grupo 113888" transform="translate(31.381)">
          <path id="Trazado_120616" data-name="Trazado 120616" d="M144.468,219.26,121.4,205.854,121.27,151.2l23.066,13.406Z" transform="translate(-121.27 -135.631)" fill="#0f33ff"/>
          <path id="Trazado_120617" data-name="Trazado 120617" d="M144.336,144.845,121.27,131.439l26.97-15.569,23.066,13.406Z" transform="translate(-121.27 -115.87)" fill="#6178ff"/>
          <path id="Trazado_120618" data-name="Trazado 120618" d="M200.58,146.29l.132,54.654-26.97,15.569-.132-54.654Z" transform="translate(-150.544 -132.884)" fill="#3856ff"/>
        </g>
        <g id="Grupo_113889" data-name="Grupo 113889" transform="translate(0 36.304)">
          <path id="Trazado_120619" data-name="Trazado 120619" d="M73.209,283.478,50.144,270.072l-.084-36.5,23.066,13.406Z" transform="translate(-50.06 -218.005)" fill="#6682ff"/>
          <path id="Trazado_120620" data-name="Trazado 120620" d="M73.126,227.221,50.06,213.815,77.021,198.25l23.066,13.406Z" transform="translate(-50.06 -198.25)" fill="#b0bfff"/>
          <path id="Trazado_120621" data-name="Trazado 120621" d="M129.361,228.67l.084,36.5-26.961,15.565-.084-36.5Z" transform="translate(-79.334 -215.264)" fill="#879dff"/>
        </g>
      </g>
      <g id="Grupo_113917" data-name="Grupo 113917" transform="translate(98.526 17.94)">
        <g id="Grupo_113898" data-name="Grupo 113898" transform="translate(0 52.513)">
          <path id="Trazado_120622" data-name="Trazado 120622" d="M173.169,140.139c2.913,1.754,2.812,4.548-.225,6.24a11.873,11.873,0,0,1-10.775-.11c-2.913-1.754-2.812-4.548.225-6.24A11.873,11.873,0,0,1,173.169,140.139Z" transform="translate(-160.044 -138.046)" fill="#dadada"/>
          <g id="Grupo_113893" data-name="Grupo 113893" transform="translate(13.124 1.344)">
            <g id="Grupo_113892" data-name="Grupo 113892" clip-path="url(#clip-path)">
              <g id="Grupo_113891" data-name="Grupo 113891" transform="translate(-0.004)">
                <path id="Trazado_120623" data-name="Trazado 120623" d="M191.934,143.94V143.2a3.738,3.738,0,0,0-2.124-3.045v.745a3.738,3.738,0,0,1,2.124,3.045Z" transform="translate(-189.81 -140.15)" fill="#bebebe"/>
              </g>
            </g>
          </g>
          <g id="Grupo_113896" data-name="Grupo 113896" transform="translate(0.005)">
            <g id="Grupo_113895" data-name="Grupo 113895" clip-path="url(#clip-path-2)">
              <g id="Grupo_113894" data-name="Grupo 113894" transform="translate(0)">
                <path id="Trazado_120625" data-name="Trazado 120625" d="M173.169,139.194v-.745a11.873,11.873,0,0,0-10.775-.11c-1.564.873-2.349,2.036-2.344,3.195v.745c0-1.163.784-2.327,2.344-3.195a11.873,11.873,0,0,1,10.775.11Z" transform="translate(-160.05 -137.101)" fill="#bebebe"/>
              </g>
            </g>
          </g>
          <g id="Grupo_113897" data-name="Grupo 113897" transform="translate(0.005 4.393)">
            <path id="Trazado_120627" data-name="Trazado 120627" d="M160.05,147.854v-.745a3.723,3.723,0,0,0,2.12,3.045,11.873,11.873,0,0,0,10.775.11c1.564-.873,2.349-2.036,2.344-3.195v.745c0,1.163-.78,2.327-2.34,3.195a11.873,11.873,0,0,1-10.775-.11,3.722,3.722,0,0,1-2.12-3.045Z" transform="translate(-160.05 -147.07)" fill="url(#linear-gradient)"/>
          </g>
          <path id="Trazado_120628" data-name="Trazado 120628" d="M173.159,138.449c2.913,1.754,2.812,4.548-.225,6.24a11.873,11.873,0,0,1-10.775-.11c-2.913-1.754-2.812-4.548.225-6.24A11.873,11.873,0,0,1,173.159,138.449Z" transform="translate(-160.039 -137.101)" fill="#bac6fb"/>
        </g>
        <path id="Trazado_120629" data-name="Trazado 120629" d="M183.036,25.965a10.532,10.532,0,0,0-2.186,4.182v25.97a21.335,21.335,0,0,1,3.019-5.077c17.226-13.507,25.917-15.12,38.8-33.1-8.92,16.314-25.833-4.9-39.635,8.029Z" transform="translate(-171.679 -17.94)" fill="url(#linear-gradient-2)"/>
        <g id="Grupo_113907" data-name="Grupo 113907" transform="translate(5.553 5.959)">
          <path id="Trazado_120630" data-name="Trazado 120630" d="M176.408,142.938c.762.458.736,1.194-.057,1.635a3.1,3.1,0,0,1-2.825-.031c-.762-.458-.736-1.194.057-1.635A3.1,3.1,0,0,1,176.408,142.938Z" transform="translate(-172.825 -93.613)" fill="#ced6da"/>
          <g id="Grupo_113901" data-name="Grupo 113901" transform="translate(3.446 0.356)">
            <g id="Grupo_113900" data-name="Grupo 113900" clip-path="url(#clip-path-3)">
              <g id="Grupo_113899" data-name="Grupo 113899" transform="translate(-0.004 0)">
                <path id="Trazado_120631" data-name="Trazado 120631" d="M181.146,82.037l-.141-48.969a.98.98,0,0,0-.555-.8l.137,48.969a.98.98,0,0,1,.555.8h0Z" transform="translate(-180.45 -32.27)" fill="#b3babe"/>
              </g>
            </g>
          </g>
          <g id="Grupo_113904" data-name="Grupo 113904">
            <g id="Grupo_113903" data-name="Grupo 113903" clip-path="url(#clip-path-4)">
              <g id="Grupo_113902" data-name="Grupo 113902" transform="translate(0.004 0.003)">
                <path id="Trazado_120633" data-name="Trazado 120633" d="M176.228,80.791l-.137-48.969a3.127,3.127,0,0,0-2.825-.031,1.019,1.019,0,0,0-.617.837l.141,48.969a1.019,1.019,0,0,1,.617-.837,3.1,3.1,0,0,1,2.825.031h0Z" transform="translate(-172.65 -31.47)" fill="#b3babe"/>
              </g>
            </g>
          </g>
          <g id="Grupo_113906" data-name="Grupo 113906" transform="translate(0 1.154)">
            <g id="Grupo_113905" data-name="Grupo 113905" clip-path="url(#clip-path-5)">
              <path id="Trazado_120635" data-name="Trazado 120635" d="M172.781,83.062l-.141-48.969a.974.974,0,0,0,.555.8,3.113,3.113,0,0,0,2.825.026,1.019,1.019,0,0,0,.617-.837l.141,48.969a1.019,1.019,0,0,1-.617.837,3.1,3.1,0,0,1-2.825-.031.98.98,0,0,1-.555-.8h0Z" transform="translate(-172.64 -34.08)" fill="url(#linear-gradient-3)"/>
            </g>
          </g>
          <path id="Trazado_120637" data-name="Trazado 120637" d="M176.1,31.824c.762.458.736,1.194-.057,1.635a3.113,3.113,0,0,1-2.825-.026c-.762-.458-.736-1.194.057-1.635a3.1,3.1,0,0,1,2.825.031Z" transform="translate(-172.651 -31.468)" fill="#ced6da"/>
        </g>
        <g id="Grupo_113916" data-name="Grupo 113916" transform="translate(4.756 1.893)">
          <path id="Trazado_120638" data-name="Trazado 120638" d="M175.788,31.62c1.093.657,1.058,1.705-.084,2.344a4.466,4.466,0,0,1-4.046-.04c-1.093-.657-1.058-1.705.084-2.344A4.466,4.466,0,0,1,175.788,31.62Z" transform="translate(-170.848 -27.202)" fill="#dadada"/>
          <g id="Grupo_113910" data-name="Grupo 113910" transform="translate(4.927 0.504)">
            <g id="Grupo_113909" data-name="Grupo 113909" clip-path="url(#clip-path-6)">
              <g id="Grupo_113908" data-name="Grupo 113908">
                <path id="Trazado_120639" data-name="Trazado 120639" d="M182.821,28.435l-.013-3.913a1.393,1.393,0,0,0-.8-1.141l.013,3.913a1.4,1.4,0,0,1,.8,1.141Z" transform="translate(-182.01 -23.38)" fill="#bebebe"/>
              </g>
            </g>
          </g>
          <g id="Grupo_113913" data-name="Grupo 113913" transform="translate(0 0)">
            <g id="Grupo_113912" data-name="Grupo 113912" clip-path="url(#clip-path-7)">
              <g id="Grupo_113911" data-name="Grupo 113911" transform="translate(0 -0.002)">
                <path id="Trazado_120641" data-name="Trazado 120641" d="M175.77,26.651l-.013-3.913a4.453,4.453,0,0,0-4.046-.04,1.454,1.454,0,0,0-.881,1.2l.013,3.913a1.454,1.454,0,0,1,.881-1.2,4.466,4.466,0,0,1,4.046.04Z" transform="translate(-170.83 -22.232)" fill="#bebebe"/>
              </g>
            </g>
          </g>
          <g id="Grupo_113915" data-name="Grupo 113915" transform="translate(0 1.646)">
            <g id="Grupo_113914" data-name="Grupo 113914" clip-path="url(#clip-path-8)">
              <path id="Trazado_120643" data-name="Trazado 120643" d="M170.843,29.9l-.013-3.913a1.393,1.393,0,0,0,.8,1.141,4.453,4.453,0,0,0,4.046.04,1.454,1.454,0,0,0,.881-1.2l.013,3.913a1.454,1.454,0,0,1-.881,1.2,4.466,4.466,0,0,1-4.046-.04,1.412,1.412,0,0,1-.8-1.141h0Z" transform="translate(-170.83 -25.97)" fill="url(#linear-gradient-4)"/>
            </g>
          </g>
          <path id="Trazado_120645" data-name="Trazado 120645" d="M175.758,22.74c1.093.657,1.058,1.705-.084,2.344a4.466,4.466,0,0,1-4.046-.04c-1.093-.657-1.058-1.71.084-2.344a4.466,4.466,0,0,1,4.046.04Z" transform="translate(-170.831 -22.236)" fill="#bac6fb"/>
        </g>
      </g>
    </g>
  </g>
</svg>
