<svg xmlns="http://www.w3.org/2000/svg" xmlns:xlink="http://www.w3.org/1999/xlink" width="1240" height="600" viewBox="0 0 1240 600">
  <defs>
    <clipPath id="clip-path">
      <rect id="Rectángulo_40262" data-name="Rectángulo 40262" width="1240" height="600" rx="20" fill="none"/>
    </clipPath>
    <linearGradient id="linear-gradient" y1="0.5" x2="1" y2="0.5" gradientUnits="objectBoundingBox">
      <stop offset="0" stop-color="#e5ebed" stop-opacity="0.004"/>
      <stop offset="0.039" stop-color="#dbe7ec" stop-opacity="0.067"/>
      <stop offset="0.237" stop-color="#acd9e8" stop-opacity="0.345"/>
      <stop offset="0.427" stop-color="#86cde4" stop-opacity="0.58"/>
      <stop offset="0.603" stop-color="#68c4e2" stop-opacity="0.761"/>
      <stop offset="0.762" stop-color="#52bde0" stop-opacity="0.894"/>
      <stop offset="0.9" stop-color="#45b9df" stop-opacity="0.973"/>
      <stop offset="1" stop-color="#41b8df"/>
    </linearGradient>
    <linearGradient id="linear-gradient-2" y1="0.5" x2="1.551" y2="0.5" gradientUnits="objectBoundingBox">
      <stop offset="0.005" stop-color="#fff"/>
      <stop offset="0.126" stop-color="#fbfbfb" stop-opacity="0.82"/>
      <stop offset="0.306" stop-color="#f7f7f7" stop-opacity="0.573"/>
      <stop offset="0.479" stop-color="#f3f3f3" stop-opacity="0.369"/>
      <stop offset="0.639" stop-color="#f0f0f0" stop-opacity="0.208"/>
      <stop offset="0.784" stop-color="#eee" stop-opacity="0.094"/>
      <stop offset="0.909" stop-color="#ededed" stop-opacity="0.024"/>
      <stop offset="1" stop-color="#ededed" stop-opacity="0"/>
    </linearGradient>
    <linearGradient id="linear-gradient-6" x1="-0.881" y1="-2.822" x2="1.273" y2="-2.822" xlink:href="#linear-gradient-2"/>
    <linearGradient id="linear-gradient-7" x1="0.5" y1="1.702" x2="0.5" y2="-0.166" xlink:href="#linear-gradient-2"/>
    <linearGradient id="linear-gradient-9" x1="0.5" y1="1.597" x2="0.5" y2="-0.108" xlink:href="#linear-gradient-2"/>
    <linearGradient id="linear-gradient-10" x1="24.75" y1="1.597" x2="24.75" y2="-0.108" xlink:href="#linear-gradient-2"/>
    <linearGradient id="linear-gradient-11" y1="0.5" x2="1.551" y2="0.5" gradientUnits="objectBoundingBox">
      <stop offset="0.005" stop-color="#41b8df"/>
      <stop offset="0.048" stop-color="#4cbbdf" stop-opacity="0.933"/>
      <stop offset="0.244" stop-color="#7ccae3" stop-opacity="0.655"/>
      <stop offset="0.432" stop-color="#a4d6e7" stop-opacity="0.42"/>
      <stop offset="0.606" stop-color="#c3e0e9" stop-opacity="0.239"/>
      <stop offset="0.764" stop-color="#dae7eb" stop-opacity="0.106"/>
      <stop offset="0.901" stop-color="#e8ebec" stop-opacity="0.027"/>
      <stop offset="1" stop-color="#ededed" stop-opacity="0"/>
    </linearGradient>
    <linearGradient id="linear-gradient-13" x1="-5.135" y1="-1.503" x2="-2.982" y2="-1.503" xlink:href="#linear-gradient-2"/>
    <linearGradient id="linear-gradient-14" x1="0.421" y1="1.444" x2="0.421" y2="-0.418" xlink:href="#linear-gradient-2"/>
    <linearGradient id="linear-gradient-15" x1="1.74" y1="-0.98" x2="1.74" y2="-4.584" xlink:href="#linear-gradient-2"/>
    <linearGradient id="linear-gradient-16" x1="1.462" y1="4.785" x2="1.462" y2="1.181" xlink:href="#linear-gradient-2"/>
    <linearGradient id="linear-gradient-17" x1="0.5" y1="1.925" x2="0.5" y2="-0.289" gradientUnits="objectBoundingBox">
      <stop offset="0.005" stop-color="#fda000"/>
      <stop offset="0.122" stop-color="#faad29" stop-opacity="0.824"/>
      <stop offset="0.303" stop-color="#f6c064" stop-opacity="0.576"/>
      <stop offset="0.476" stop-color="#f2d095" stop-opacity="0.373"/>
      <stop offset="0.637" stop-color="#f0dcbb" stop-opacity="0.212"/>
      <stop offset="0.783" stop-color="#eee5d6" stop-opacity="0.094"/>
      <stop offset="0.909" stop-color="#edebe7" stop-opacity="0.024"/>
      <stop offset="1" stop-color="#ededed" stop-opacity="0"/>
    </linearGradient>
    <linearGradient id="linear-gradient-18" x1="0.686" y1="0.765" x2="0.368" y2="0.215" gradientUnits="objectBoundingBox">
      <stop offset="0" stop-color="#bed2e8"/>
      <stop offset="1" stop-color="#cee0f3"/>
    </linearGradient>
    <linearGradient id="linear-gradient-19" x1="0.816" y1="0.369" x2="0.36" y2="0.464" gradientUnits="objectBoundingBox">
      <stop offset="0" stop-color="#105b91"/>
      <stop offset="1" stop-color="#0a3c5f"/>
    </linearGradient>
    <linearGradient id="linear-gradient-20" x1="0.83" y1="0.457" x2="0.523" y2="0.493" xlink:href="#linear-gradient-19"/>
    <linearGradient id="linear-gradient-21" x1="0.607" y1="0.319" x2="0.394" y2="0.679" gradientUnits="objectBoundingBox">
      <stop offset="0" stop-color="#dbebfb"/>
      <stop offset="1" stop-color="#cfe1f4"/>
    </linearGradient>
    <linearGradient id="linear-gradient-22" x1="0.314" y1="0.914" x2="0.662" y2="0.176" xlink:href="#linear-gradient-18"/>
    <linearGradient id="linear-gradient-23" x1="0.289" y1="0.9" x2="0.707" y2="0.147" gradientUnits="objectBoundingBox">
      <stop offset="0" stop-color="#31adcc"/>
      <stop offset="1" stop-color="#198aa6"/>
    </linearGradient>
    <linearGradient id="linear-gradient-24" x1="0.552" y1="0.45" x2="0.187" y2="0.669" gradientUnits="objectBoundingBox">
      <stop offset="0" stop-color="#38251b"/>
      <stop offset="1" stop-color="#1c120d"/>
    </linearGradient>
    <linearGradient id="linear-gradient-25" x1="0.682" y1="0.535" x2="0.206" y2="0.425" gradientUnits="objectBoundingBox">
      <stop offset="0" stop-color="#4d3529"/>
      <stop offset="1" stop-color="#38251b"/>
    </linearGradient>
    <linearGradient id="linear-gradient-26" x1="0.555" y1="0.874" x2="0.289" y2="0.251" xlink:href="#linear-gradient-18"/>
  </defs>
  <g id="Grupo_132142" data-name="Grupo 132142" transform="translate(-180 -4356)">
    <g id="Grupo_131817" data-name="Grupo 131817" transform="translate(0 -40)">
      <rect id="Rectángulo_293749" data-name="Rectángulo 293749" width="1240" height="600" transform="translate(180 4396)" fill="#f3f9ff"/>
      <g id="Grupo_131816" data-name="Grupo 131816" transform="translate(714.046 4268.938)">
        <g id="Grupo_109308" data-name="Grupo 109308" transform="translate(-48.769 153.691)">
          <rect id="Rectángulo_40222" data-name="Rectángulo 40222" width="9.963" height="9.963" transform="translate(98.574 49.88) rotate(-45)" fill="#fff" style="mix-blend-mode: overlay;isolation: isolate"/>
          <rect id="Rectángulo_40223" data-name="Rectángulo 40223" width="9.963" height="9.963" transform="translate(231.029 49.88) rotate(-45)" fill="#fff" style="mix-blend-mode: overlay;isolation: isolate"/>
          <rect id="Rectángulo_40224" data-name="Rectángulo 40224" width="16.385" height="16.385" transform="matrix(0.707, -0.707, 0.707, 0.707, 221.335, 326.297)" fill="none" stroke="#fff" stroke-miterlimit="10" stroke-width="1" style="mix-blend-mode: overlay;isolation: isolate"/>
          <rect id="Rectángulo_40225" data-name="Rectángulo 40225" width="16.385" height="16.385" transform="translate(0 323.621) rotate(-45)" fill="#fff" style="mix-blend-mode: overlay;isolation: isolate"/>
          <rect id="Rectángulo_40226" data-name="Rectángulo 40226" width="7.955" height="7.955" transform="translate(239.037 340.857) rotate(-45)" fill="#fff" style="mix-blend-mode: overlay;isolation: isolate"/>
          <rect id="Rectángulo_40227" data-name="Rectángulo 40227" width="5.314" height="5.314" transform="translate(17.689 241.894) rotate(-45)" fill="#fff" style="mix-blend-mode: overlay;isolation: isolate"/>
          <rect id="Rectángulo_40228" data-name="Rectángulo 40228" width="5.314" height="5.314" transform="translate(33.659 241.894) rotate(-45)" fill="#fff" style="mix-blend-mode: overlay;isolation: isolate"/>
          <rect id="Rectángulo_40229" data-name="Rectángulo 40229" width="5.314" height="5.314" transform="translate(253.211 323.093) rotate(-45)" fill="#fff" style="mix-blend-mode: overlay;isolation: isolate"/>
          <rect id="Rectángulo_40230" data-name="Rectángulo 40230" width="4.65" height="4.65" transform="translate(11.943 133.013) rotate(-45)" fill="#fff" style="mix-blend-mode: overlay;isolation: isolate"/>
          <rect id="Rectángulo_40231" data-name="Rectángulo 40231" width="4.65" height="4.65" transform="translate(11.943 144.599) rotate(-45)" fill="#fff" style="mix-blend-mode: overlay;isolation: isolate"/>
          <rect id="Rectángulo_40232" data-name="Rectángulo 40232" width="4.65" height="4.65" transform="translate(20.711 138.962) rotate(-45)" fill="#fff" style="mix-blend-mode: overlay;isolation: isolate"/>
          <rect id="Rectángulo_40233" data-name="Rectángulo 40233" width="4.65" height="4.65" transform="translate(137.462 3.288) rotate(-45)" fill="#fff" style="mix-blend-mode: overlay;isolation: isolate"/>
          <rect id="Rectángulo_40234" data-name="Rectángulo 40234" width="4.65" height="4.65" transform="translate(106.932 303.894) rotate(-45)" fill="#fff" style="mix-blend-mode: overlay;isolation: isolate"/>
          <rect id="Rectángulo_40235" data-name="Rectángulo 40235" width="4.65" height="4.65" transform="translate(46.028 272.581) rotate(-45)" fill="#fff" style="mix-blend-mode: overlay;isolation: isolate"/>
          <rect id="Rectángulo_40236" data-name="Rectángulo 40236" width="4.65" height="4.65" transform="translate(262.871 24.894) rotate(-45)" fill="#fff" style="mix-blend-mode: overlay;isolation: isolate"/>
        </g>
        <g id="Grupo_109309" data-name="Grupo 109309" transform="translate(27.686 149.864)">
          <rect id="Rectángulo_40237" data-name="Rectángulo 40237" width="16.385" height="16.385" transform="translate(86.007 407.447) rotate(-45)" fill="#fff" style="mix-blend-mode: overlay;isolation: isolate"/>
          <rect id="Rectángulo_40238" data-name="Rectángulo 40238" width="16.385" height="16.385" transform="translate(0 20.184) rotate(-45)" fill="#aad5f4" style="mix-blend-mode: overlay;isolation: isolate"/>
          <rect id="Rectángulo_40239" data-name="Rectángulo 40239" width="16.385" height="16.385" transform="translate(87.211 75.178) rotate(-45)" fill="#fff" style="mix-blend-mode: overlay;isolation: isolate"/>
          <rect id="Rectángulo_40240" data-name="Rectángulo 40240" width="7.955" height="7.955" transform="translate(17.702 5.625) rotate(-45)" fill="#fff" style="mix-blend-mode: overlay;isolation: isolate"/>
          <rect id="Rectángulo_40241" data-name="Rectángulo 40241" width="5.314" height="5.314" transform="translate(55.744 200.642) rotate(-45)" fill="none" stroke="#fff" stroke-miterlimit="10" stroke-width="1" style="mix-blend-mode: overlay;isolation: isolate"/>
          <rect id="Rectángulo_40242" data-name="Rectángulo 40242" width="5.314" height="5.314" transform="translate(28.795 200.642) rotate(-45)" fill="#fff" style="mix-blend-mode: overlay;isolation: isolate"/>
          <rect id="Rectángulo_40243" data-name="Rectángulo 40243" width="5.314" height="5.314" transform="translate(31.876 23.388) rotate(-45)" fill="#fff" style="mix-blend-mode: overlay;isolation: isolate"/>
          <rect id="Rectángulo_40244" data-name="Rectángulo 40244" width="4.65" height="4.65" transform="translate(109.96 395.861) rotate(-45)" fill="#fff" style="mix-blend-mode: overlay;isolation: isolate"/>
          <rect id="Rectángulo_40245" data-name="Rectángulo 40245" width="4.65" height="4.65" transform="translate(61.201 94.906) rotate(-45)" fill="#fff" style="mix-blend-mode: overlay;isolation: isolate"/>
          <rect id="Rectángulo_40246" data-name="Rectángulo 40246" width="4.65" height="4.65" transform="translate(41.163 169.955) rotate(-45)" fill="#fff" style="mix-blend-mode: overlay;isolation: isolate"/>
        </g>
        <g id="Grupo_109326" data-name="Grupo 109326" transform="translate(-534.046 127.062)">
          <g id="Grupo_109325" data-name="Grupo 109325" clip-path="url(#clip-path)">
            <g id="Grupo_109311" data-name="Grupo 109311" transform="translate(-464.873 284.506)">
              <path id="Trazado_114475" data-name="Trazado 114475" d="M-277.35,1071.49,361.438,427.457H269.377L-369.41,1071.49Z" transform="translate(369.41 -427.457)" opacity="0.51" fill="url(#linear-gradient)" style="mix-blend-mode: overlay;isolation: isolate"/>
              <g id="Grupo_109310" data-name="Grupo 109310" transform="translate(335.511 103.074)">
                <path id="Trazado_114476" data-name="Trazado 114476" d="M362.625,569.436,395.5,536.287H331.626l-32.879,33.149Z" transform="translate(-6.595 -536.287)" opacity="0.51" fill="url(#linear-gradient-2)" style="mix-blend-mode: overlay;isolation: isolate"/>
                <path id="Trazado_114477" data-name="Trazado 114477" d="M282.777,586.287l-15.03,15.154h63.879l15.03-15.154Z" transform="translate(-4.716 -538.932)" opacity="0.51" fill="url(#linear-gradient-2)" style="mix-blend-mode: overlay;isolation: isolate"/>
                <path id="Trazado_114478" data-name="Trazado 114478" d="M207.565,648.287-12.253,869.91H51.626L271.444,648.287Z" transform="translate(12.253 -542.211)" opacity="0.51" fill="url(#linear-gradient-2)" style="mix-blend-mode: overlay;isolation: isolate"/>
                <path id="Trazado_114479" data-name="Trazado 114479" d="M300.626,632.441l15.03-15.154H251.777l-15.03,15.154Z" transform="translate(-2.838 -540.571)" opacity="0.51" fill="url(#linear-gradient-2)" style="mix-blend-mode: overlay;isolation: isolate"/>
              </g>
            </g>
            <g id="Grupo_109315" data-name="Grupo 109315" transform="translate(-288.901 -288.498)" opacity="0.67">
              <path id="Trazado_115924" data-name="Trazado 115924" d="M17.676-.119,110.292-.5a17.548,17.548,0,0,1,17.65,17.65l-.379,92.616a17.9,17.9,0,0,1-17.795,17.795l-92.616.379A17.548,17.548,0,0,1-.5,110.292l.379-92.616A17.9,17.9,0,0,1,17.676-.119Z" transform="translate(206.599 300.725) rotate(-45)" fill="url(#linear-gradient-6)" style="mix-blend-mode: overlay;isolation: isolate"/>
              <path id="Trazado_115925" data-name="Trazado 115925" d="M14.807-.1,180.531-.777a14.7,14.7,0,0,1,14.784,14.784l-.678,165.725a14.993,14.993,0,0,1-14.906,14.906l-165.725.678A14.7,14.7,0,0,1-.777,180.531L-.1,14.807A14.993,14.993,0,0,1,14.807-.1Z" transform="translate(159.156 300.725) rotate(-45)" fill="url(#linear-gradient-7)" style="mix-blend-mode: overlay;isolation: isolate"/>
              <path id="Trazado_115926" data-name="Trazado 115926" d="M14.807-.1,180.531-.777a14.7,14.7,0,0,1,14.784,14.784l-.678,165.725a14.993,14.993,0,0,1-14.906,14.906l-165.725.678A14.7,14.7,0,0,1-.777,180.531L-.1,14.807A14.993,14.993,0,0,1,14.807-.1Z" transform="translate(159.156 300.725) rotate(-45)" opacity="0.34" fill="url(#linear-gradient-7)" style="mix-blend-mode: overlay;isolation: isolate"/>
              <path id="Trazado_115927" data-name="Trazado 115927" d="M24.509-.164,298.832-1.286A24.332,24.332,0,0,1,323.3,23.186l-1.122,274.323a24.817,24.817,0,0,1-24.673,24.673L23.186,323.3A24.332,24.332,0,0,1-1.286,298.832L-.164,24.509A24.817,24.817,0,0,1,24.509-.164Z" transform="translate(69.015 300.725) rotate(-45)" fill="none" stroke="#707070" stroke-width="1" style="mix-blend-mode: overlay;isolation: isolate"/>
              <path id="Trazado_115928" data-name="Trazado 115928" d="M31.938-.214,389.405-1.676a31.707,31.707,0,0,1,31.89,31.89l-1.462,357.468a32.339,32.339,0,0,1-32.152,32.152L30.214,421.3a31.707,31.707,0,0,1-31.89-31.89L-.214,31.938A32.339,32.339,0,0,1,31.938-.214Z" transform="translate(0 300.725) rotate(-45)" fill="none" stroke="#fff" stroke-linecap="round" stroke-width="3" stroke-dasharray="0 5" style="mix-blend-mode: overlay;isolation: isolate"/>
              <line id="Línea_147" data-name="Línea 147" x1="254.468" y2="256.557" transform="translate(317.899 322.082)" fill="none" stroke="#fff" stroke-linecap="round" stroke-linejoin="round" stroke-width="3" stroke-dasharray="0 5" style="mix-blend-mode: overlay;isolation: isolate"/>
              <path id="Trazado_114480" data-name="Trazado 114480" d="M-44.4,117.324,109.816-38.152a18.051,18.051,0,0,1,25.675,0L289.7,117.324a18.411,18.411,0,0,1,0,25.885L135.49,298.687a18.051,18.051,0,0,1-25.675,0L-44.4,143.209A18.411,18.411,0,0,1-44.4,117.324Z" transform="translate(174.063 170.458)" fill="none" stroke="#707070" stroke-miterlimit="10" stroke-width="1" style="mix-blend-mode: overlay;isolation: isolate"/>
              <g id="Grupo_109314" data-name="Grupo 109314" transform="translate(111.358 242.028)">
                <g id="Grupo_109312" data-name="Grupo 109312" transform="translate(317.515)">
                  <path id="Trazado_114481" data-name="Trazado 114481" d="M327.314,131.287,274.457,78v30.253c34.346,36.009,34.185,20.964,0,56.891v30.252l52.857-53.29A7.691,7.691,0,0,0,327.314,131.287Z" transform="translate(-274.457 -77.996)" fill="url(#linear-gradient-9)" style="mix-blend-mode: overlay;isolation: isolate"/>
                  <path id="Trazado_114482" data-name="Trazado 114482" d="M327.314,131.287,274.457,78v30.253c34.346,36.009,34.185,20.964,0,56.891v30.252l52.857-53.29A7.691,7.691,0,0,0,327.314,131.287Z" transform="translate(-274.457 -77.996)" fill="none" stroke="#fff" stroke-miterlimit="10" stroke-width="1" style="mix-blend-mode: overlay;isolation: isolate"/>
                </g>
                <g id="Grupo_109313" data-name="Grupo 109313">
                  <path id="Trazado_114483" data-name="Trazado 114483" d="M-61.321,131.287-8.464,78v30.253c-34.346,36.009-34.185,20.964,0,56.891v30.252L-61.321,142.1A7.691,7.691,0,0,1-61.321,131.287Z" transform="translate(63.543 -77.996)" fill="url(#linear-gradient-10)" style="mix-blend-mode: overlay;isolation: isolate"/>
                  <path id="Trazado_114484" data-name="Trazado 114484" d="M-61.321,131.287-8.464,78v30.253c-34.346,36.009-34.185,20.964,0,56.891v30.252L-61.321,142.1A7.691,7.691,0,0,1-61.321,131.287Z" transform="translate(63.543 -77.996)" fill="none" stroke="#fff" stroke-miterlimit="10" stroke-width="1" style="mix-blend-mode: overlay;isolation: isolate"/>
                </g>
              </g>
              <line id="Línea_148" data-name="Línea 148" x1="117.973" y2="118.942" transform="translate(306.536 310.627)" fill="none" stroke="#707070" stroke-linecap="round" stroke-miterlimit="10" stroke-width="2" style="mix-blend-mode: color-dodge;isolation: isolate"/>
              <line id="Línea_149" data-name="Línea 149" x1="117.973" y2="118.942" transform="translate(169.072 172.033)" fill="none" stroke="#707070" stroke-linecap="round" stroke-miterlimit="10" stroke-width="2" style="mix-blend-mode: color-dodge;isolation: isolate"/>
              <path id="Trazado_115929" data-name="Trazado 115929" d="M17.676-.119,110.292-.5a17.548,17.548,0,0,1,17.65,17.65l-.379,92.616a17.9,17.9,0,0,1-17.795,17.795l-92.616.379A17.548,17.548,0,0,1-.5,110.292l.379-92.616A17.9,17.9,0,0,1,17.676-.119Z" transform="translate(206.599 300.725) rotate(-45)" fill="none" stroke="#fda000" stroke-width="2"/>
            </g>
            <g id="Grupo_109316" data-name="Grupo 109316" transform="translate(976.242 60.136)">
              <path id="Trazado_114485" data-name="Trazado 114485" d="M1603.569,224.343l-325.03,327.7h63.879l325.03-327.7Z" transform="translate(-1214.581 -224.343)" opacity="0.51" fill="url(#linear-gradient-11)" style="mix-blend-mode: overlay;isolation: isolate"/>
              <path id="Trazado_114486" data-name="Trazado 114486" d="M1230.181,659.14l145.236-146.429h44.152l46.5-46.879h-63.879L1210.454,659.14Z" transform="translate(-1074.696 -673.116)" fill="none" stroke="#fda000" stroke-miterlimit="10" stroke-width="2"/>
            </g>
            <g id="Grupo_114863" data-name="Grupo 114863" transform="translate(272.867 528.55) rotate(180)">
              <path id="Trazado_114485-2" data-name="Trazado 114485" d="M1603.569,224.343l-325.03,327.7h63.879l325.03-327.7Z" transform="translate(-1214.581 -224.343)" opacity="0.51" fill="url(#linear-gradient-11)" style="mix-blend-mode: overlay;isolation: isolate"/>
              <path id="Trazado_114486-2" data-name="Trazado 114486" d="M1230.181,659.14l145.236-146.429h44.152l46.5-46.879h-63.879L1210.454,659.14Z" transform="translate(-1074.696 -673.116)" fill="none" stroke="#fda000" stroke-miterlimit="10" stroke-width="2"/>
            </g>
            <g id="Grupo_109320" data-name="Grupo 109320" transform="translate(969.207 326.019)" opacity="0.69">
              <path id="Trazado_115930" data-name="Trazado 115930" d="M17.676-.119l84.008-.344a17.548,17.548,0,0,1,17.65,17.65L118.99,101.2A17.9,17.9,0,0,1,101.2,118.99l-84.008.344a17.548,17.548,0,0,1-17.65-17.65l.344-84.008A17.9,17.9,0,0,1,17.676-.119Z" transform="translate(192.709 280.504) rotate(-45)" fill="url(#linear-gradient-13)" style="mix-blend-mode: overlay;isolation: isolate"/>
              <path id="Trazado_115931" data-name="Trazado 115931" d="M14.807-.1,167.4-.723a14.7,14.7,0,0,1,14.784,14.784l-.624,152.59a14.993,14.993,0,0,1-14.906,14.906l-152.59.624A14.7,14.7,0,0,1-.723,167.4L-.1,14.807A14.993,14.993,0,0,1,14.807-.1Z" transform="translate(148.454 280.504) rotate(-45)" fill="url(#linear-gradient-14)" style="mix-blend-mode: overlay;isolation: isolate"/>
              <path id="Trazado_115932" data-name="Trazado 115932" d="M24.509-.164,277.089-1.2a24.332,24.332,0,0,1,24.473,24.473l-1.033,252.58a24.817,24.817,0,0,1-24.673,24.673l-252.58,1.033A24.332,24.332,0,0,1-1.2,277.089L-.164,24.509A24.817,24.817,0,0,1,24.509-.164Z" transform="translate(64.374 280.504) rotate(-45)" fill="none" stroke="#fda000" stroke-width="2"/>
              <path id="Trazado_115933" data-name="Trazado 115933" d="M31.938-.214,361.073-1.56a31.707,31.707,0,0,1,31.89,31.89l-1.346,329.135a32.339,32.339,0,0,1-32.152,32.152L30.33,392.963a31.707,31.707,0,0,1-31.89-31.89L-.214,31.938A32.339,32.339,0,0,1,31.938-.214Z" transform="translate(0 280.504) rotate(-45)" fill="none" stroke="#fff" stroke-linecap="round" stroke-width="1" stroke-dasharray="0 5" style="mix-blend-mode: overlay;isolation: isolate"/>
              <line id="Línea_150" data-name="Línea 150" x2="237.363" y2="239.312" transform="translate(296.523 21.27)" fill="none" stroke="#fff" stroke-linecap="round" stroke-linejoin="round" stroke-width="3" stroke-dasharray="0 5" style="mix-blend-mode: overlay;isolation: isolate"/>
              <path id="Trazado_114487" data-name="Trazado 114487" d="M708.642,528.292,852.486,673.319a17.172,17.172,0,0,1,0,24.145L708.642,842.49a16.837,16.837,0,0,1-23.949,0L540.848,697.463a17.172,17.172,0,0,1,0-24.145L684.693,528.292A16.839,16.839,0,0,1,708.642,528.292Z" transform="translate(-419.904 -404.887)" fill="none" stroke="#707070" stroke-miterlimit="10" stroke-width="1" style="mix-blend-mode: overlay;isolation: isolate"/>
              <g id="Grupo_109319" data-name="Grupo 109319" transform="translate(222.458 106.186)">
                <g id="Grupo_109317" data-name="Grupo 109317" transform="translate(0 298.605)">
                  <path id="Trazado_114488" data-name="Trazado 114488" d="M708.539,875.38l49.3-49.708H729.854c-33.316,32.3-19.4,32.148-52.635,0H649.231l49.3,49.708A7.033,7.033,0,0,0,708.539,875.38Z" transform="translate(-649.231 -825.672)" fill="url(#linear-gradient-15)" style="mix-blend-mode: overlay;isolation: isolate"/>
                  <path id="Trazado_114489" data-name="Trazado 114489" d="M708.539,875.38l49.3-49.708H729.854c-33.316,32.3-19.4,32.148-52.635,0H649.231l49.3,49.708A7.033,7.033,0,0,0,708.539,875.38Z" transform="translate(-649.231 -825.672)" fill="none" stroke="#fff" stroke-miterlimit="10" stroke-width="1" style="mix-blend-mode: overlay;isolation: isolate"/>
                </g>
                <g id="Grupo_109318" data-name="Grupo 109318">
                  <path id="Trazado_114490" data-name="Trazado 114490" d="M708.539,512.48l49.3,49.708H729.854c-33.316-32.3-19.4-32.148-52.635,0H649.231l49.3-49.708A7.033,7.033,0,0,1,708.539,512.48Z" transform="translate(-649.231 -510.391)" fill="url(#linear-gradient-16)" style="mix-blend-mode: overlay;isolation: isolate"/>
                  <path id="Trazado_114491" data-name="Trazado 114491" d="M708.539,512.48l49.3,49.708H729.854c-33.316-32.3-19.4-32.148-52.635,0H649.231l49.3-49.708A7.033,7.033,0,0,1,708.539,512.48Z" transform="translate(-649.231 -510.391)" fill="none" stroke="#fff" stroke-miterlimit="10" stroke-width="1" style="mix-blend-mode: overlay;isolation: isolate"/>
                </g>
              </g>
              <line id="Línea_151" data-name="Línea 151" x1="110.043" y1="110.947" transform="translate(157.56 289.739)" fill="none" stroke="#707070" stroke-linecap="round" stroke-miterlimit="10" stroke-width="2" style="mix-blend-mode: color-dodge;isolation: isolate"/>
              <line id="Línea_152" data-name="Línea 152" x1="110.043" y1="110.947" transform="translate(285.784 160.462)" fill="none" stroke="#707070" stroke-linecap="round" stroke-miterlimit="10" stroke-width="2" style="mix-blend-mode: color-dodge;isolation: isolate"/>
              <path id="Trazado_115934" data-name="Trazado 115934" d="M17.676-.119l84.008-.344a17.548,17.548,0,0,1,17.65,17.65L118.99,101.2A17.9,17.9,0,0,1,101.2,118.99l-84.008.344a17.548,17.548,0,0,1-17.65-17.65l.344-84.008A17.9,17.9,0,0,1,17.676-.119Z" transform="translate(192.709 280.504) rotate(-45)" stroke="#fda000" stroke-width="1" fill="url(#linear-gradient-17)"/>
            </g>
          </g>
        </g>
      </g>
    </g>
    <g id="info02" transform="translate(178.44 4353.917)">
      <g id="Layer_1" transform="translate(140.56 36.083)">
        <g id="Grupo_113854" data-name="Grupo 113854" transform="translate(267.033 141.945)">
          <path id="Trazado_120477" data-name="Trazado 120477" d="M439.056,187.336c4.571,1.1,6.181,2.674,9.353,5.4a28.639,28.639,0,0,0-1.869,4.053c-.45,1.16.585,4.293.105,6.133-2.539,9.832-20.315,44.339-26.784,51.574a10.956,10.956,0,0,1-5.97,3.287,9.787,9.787,0,0,1-5.855.776c-5.1-.9-10.991-5.2-12.285-11.3-5.165-17.441-10.2-39.327-10.522-56.864-.278-14.872,6.066-24.733,13.55-24.963,6.449-.192,14.058,7.561,15.447,16.07,1.763,10.733,3.076,20.785,4.006,31,5.711-8.011,11.269-15.38,14.4-18.945a20.683,20.683,0,0,1,3.958-2.894,9.09,9.09,0,0,0,2.463-3.325Z" transform="translate(-385.221 -165.426)" fill-rule="evenodd" fill="url(#linear-gradient-18)"/>
          <path id="Trazado_120478" data-name="Trazado 120478" d="M432.434,234.052c-4.868,9.113-9.774,17.326-12.573,20.45a10.956,10.956,0,0,1-5.97,3.287,9.787,9.787,0,0,1-5.855.776c-5.1-.9-10.991-5.2-12.285-11.3-5.165-17.441-10.2-39.327-10.522-56.864-.278-14.872,6.066-24.733,13.55-24.963,6.449-.192,14.058,7.561,15.447,16.07,1.754,10.723-3.134,27.8-10.292,41.781C406.7,249.6,413.652,247.018,432.434,234.052Z" transform="translate(-385.221 -165.427)" fill="#bdd1e7" fill-rule="evenodd" opacity="0.25"/>
        </g>
        <path id="Trazado_120479" data-name="Trazado 120479" d="M397.437,490.321l-96.594-55.014c-10.531-4.811-25.605-8.644-36.328-3.057-9.774,5.088-25.883,15.5-33,19.558-5.4,3.086-24.187,14.336-12.486,20.689,34.4,18.705,68.44,39.74,103.369,58.742,6.6,3.594,16.271,4.9,26.42,4.053,10.1-.843,20.459-3.785,28.6-8.519q8.711-5.06,17.124-9.966c7.58-4.408,11.6-9.631,11.988-14.451.393-4.715-2.635-9.075-9.1-12.026Z" transform="translate(-111.096 -34.5)" fill="#e5eff9" fill-rule="evenodd"/>
        <g id="Grupo_113855" data-name="Grupo 113855" transform="translate(165.346 227.158)">
          <path id="Trazado_120480" data-name="Trazado 120480" d="M287.246,384.573c-.508.441-1.246.834-2.079,1.485-1.648,7.781-2.386,10.119-1.658,10.723.594.5.479.192,1.006,1.6.719,1.917-4.609,11.787-5.175,14.7a10.038,10.038,0,0,0,1.112,7.254,37.981,37.981,0,0,0,9.736,11.145c3.335,2.578,6.737,3.977,9.267,2.894,3.114-1.342,2.012-4.159.987-6.947-.364-1-2.76-2.913-2.789-3.958-.211-5.941,3.066-11.777,5.242-17.374,2.271-4.418,4.542-7.072,6.852-10.34,3.22-4.552,3.967-8.73-.968-10.426-1.572-.546-5.9-3.9-7.714-3.4-3.459.949-9.861-.786-13.818,2.645Z" transform="translate(-279.106 -259.671)" fill="#04304f" fill-rule="evenodd"/>
          <path id="Trazado_120481" data-name="Trazado 120481" d="M405.024,340.464c3.651,6.123,2.856,12.3-1.955,15.811l-.086.115-.613.345a12.814,12.814,0,0,1-1.61.862c-5.97,3.057-15.112,6.535-20.68,8.72-22.232,8.72-56.059,17.9-71.037,27.081-7.2-3.459-10.694-11.739-7.522-17.69,16.032-11.681,37.756-27.023,47.032-32.591a28.735,28.735,0,0,1,8.059-2.951c-17.364-10.608-35.8-22.165-44.224-33.386-5.96-7.935-8.941-19.961-13.368-26.995,25.567,2.549,27.474-12.937,30.962-18.926,4.868,4.887,4.581,3.862,9.573,9.123,16.866,17.8,41.512,42.873,58.608,61.732a34.823,34.823,0,0,1,6.88,8.739Z" transform="translate(-279.937 -254.622)" fill-rule="evenodd" fill="url(#linear-gradient-19)"/>
          <path id="Trazado_120482" data-name="Trazado 120482" d="M377.36,364.925a15.889,15.889,0,0,1,.115,8.356,20,20,0,0,1-.172,2.2c-6.344,21.139-22.97,69.254-28.106,90.221-7.407,3.076-16.07.029-17.881-5.9,2.156-19.587,5.587-51.8,8.28-62.374,1.782-6.986,5.74-16.607,9.554-24.081-18.571-17.833-47.952-45.872-58.244-63.61-14-24.129-6.248-40.851,6.344-51.612,4.475-3.824,10.742-.211,12.716-3.776,8.232,10.627,16.664,25.586,22.884,39.308,8.672,19.137,40.075,57.3,44.531,71.276Z" transform="translate(-279.287 -254.35)" fill-rule="evenodd" fill="url(#linear-gradient-20)"/>
          <path id="Trazado_120483" data-name="Trazado 120483" d="M350.725,473.764c-2.52,5.357,11.106,27.339,14.269,31.91,2.8,4.034,2.674,6.852-1.974,7.791-3.661.748-10.474-3.373-14.671-6.114-7.867-5.146-9.468-11.585-11.921-13.991l-2.415-.307c-1.84-.632-7.954-6.123-8.672-8.5a53.539,53.539,0,0,1,1.294-7.072c2.377-7.379,3.718-4.6,7.733-9.592,6.2,2.932,2.626,5.232,16.367,5.874Z" transform="translate(-281.035 -263.261)" fill="#04304f" fill-rule="evenodd"/>
        </g>
        <g id="Grupo_113856" data-name="Grupo 113856" transform="translate(291.707 147.076)">
          <path id="Trazado_120484" data-name="Trazado 120484" d="M517.874,311.6c-14.939-8.27-28-28.307-29.189-44.761-.383-5.318-11.451-4.053-9.544-7.149,1.207-1.955,14.786-8.989,16.722-9.947,4.466-2.2,10.675-1.629,17.738,2.271,14.93,8.26,28,28.307,29.189,44.761.565,7.915-1.715,13.55-5.893,16.358-1.342.9-14.853,9.18-16.559,9.477-4.025.7,3-7.992-2.444-11.011Z" transform="translate(-413.805 -174.022)" fill="#0a3c5f" fill-rule="evenodd"/>
          <path id="Trazado_120485" data-name="Trazado 120485" d="M598.8,310.32l-10.2,4.111-10.56,8.5,5.4,5.079,9.161,2.98,9.861-3.306,10.9-9.3Z" transform="translate(-417.941 -176.603)" fill="#105b90" fill-rule="evenodd"/>
          <path id="Trazado_120486" data-name="Trazado 120486" d="M590.026,366.1l-11.48,5.913-9.276,6.7L580.4,395.768l8.682-4.427,12.074-8.184Z" transform="translate(-417.575 -178.93)" fill="#0a3c5f" fill-rule="evenodd"/>
          <path id="Trazado_120487" data-name="Trazado 120487" d="M519.75,383.992l3.124,17.431,20.747-12.611-1.15-16.032Z" transform="translate(-415.508 -179.209)" fill="#0a3c5f" fill-rule="evenodd"/>
          <path id="Trazado_120488" data-name="Trazado 120488" d="M431.886,217.94,411.13,230.551l14.556,11.423L446.442,226Z" transform="translate(-410.976 -172.748)" fill="#0d4d7a" fill-rule="evenodd"/>
          <path id="Trazado_120489" data-name="Trazado 120489" d="M532.551,344.305l20.44-16.789c-9.794,5.97-22.912.767-32.16-5.338-9.391-6.248-17.249-14.69-23.641-23.918-8.04-11.633-14.508-25.73-15.687-39.586-.834-9.746.977-20.747,9.382-25.854L466.8,244.5c-38.369,23.851,27.368,123.8,65.747,99.814Z" transform="translate(-412.814 -173.369)" fill="#0a3c5f" fill-rule="evenodd"/>
          <path id="Trazado_120490" data-name="Trazado 120490" d="M580.577,396.511a37.055,37.055,0,0,1-6.957,5.481l20.756-12.611a36.572,36.572,0,0,0,3.632-2.52,38.828,38.828,0,0,0,3.325-2.961c-.019,0-18.955,11.518-20.756,12.611Z" transform="translate(-417.756 -179.673)" fill="#d3e5f6" fill-rule="evenodd"/>
          <path id="Trazado_120491" data-name="Trazado 120491" d="M462.666,170.78,441.91,183.391l11.241,20.2,20.641-15.754Z" transform="translate(-412.26 -170.78)" fill="#13639b" fill-rule="evenodd"/>
          <path id="Trazado_120492" data-name="Trazado 120492" d="M441.527,183.391l20.756-12.611a38.832,38.832,0,0,0-8.787,3.891L432.74,187.281A39.212,39.212,0,0,1,441.527,183.391Z" transform="translate(-411.878 -170.78)" fill="#105b90" fill-rule="evenodd"/>
          <path id="Trazado_120493" data-name="Trazado 120493" d="M600.347,338.12l-22.826,9.813c-.815,9.669-1.811,22.529-8.251,29.611l20.756-12.611c6.449-7.11,9.525-17.105,10.321-26.812Z" transform="translate(-417.575 -177.763)" fill="#0d4d7a" fill-rule="evenodd"/>
          <path id="Trazado_120494" data-name="Trazado 120494" d="M483.265,204.114,504.021,191.5c-9.477-3.584-20.191-5.376-29.745-2.971L453.52,201.143C462.7,200.06,472.609,204.679,483.265,204.114Z" transform="translate(-412.745 -171.475)" fill="#13639b" fill-rule="evenodd"/>
          <path id="Trazado_120495" data-name="Trazado 120495" d="M577.21,321.148l20.756-12.611a154.942,154.942,0,0,0-15.189-40.947L558.15,278.112c6.813,12.822,14.451,34.44,19.06,43.046Z" transform="translate(-417.111 -174.82)" fill="#0d4d7a" fill-rule="evenodd"/>
          <path id="Trazado_120496" data-name="Trazado 120496" d="M506.06,200.236l3.574,17.326,20.756-12.611L529.231,188.9Z" transform="translate(-414.937 -171.536)" fill="#13639b" fill-rule="evenodd"/>
          <path id="Trazado_120497" data-name="Trazado 120497" d="M507.537,200.928l20.756-12.611a127.128,127.128,0,0,0-24.177-13.377L483.36,187.551C490.834,192.419,497.188,199.558,507.537,200.928Z" transform="translate(-413.99 -170.954)" fill="#084a93" fill-rule="evenodd"/>
          <path id="Trazado_120498" data-name="Trazado 120498" d="M541.161,250.143l15.582-3.1,5.443-10.311a163.426,163.426,0,0,0-31.767-31.067L506.97,219.076C518.853,227.71,532.1,238.615,541.161,250.143Z" transform="translate(-414.975 -172.235)" fill="#0d4d7a" fill-rule="evenodd"/>
          <path id="Trazado_120499" data-name="Trazado 120499" d="M571.3,273.089l20.756-12.611a226.412,226.412,0,0,0-18.456-28.3L552.84,244.791c3.028,3.967,5.069,8.854,7.867,13.071,3.469,5.232,7.609,9.832,10.589,15.237Z" transform="translate(-416.889 -173.342)" fill="#084a93" fill-rule="evenodd"/>
          <path id="Trazado_120500" data-name="Trazado 120500" d="M502.542,335.376c-22.385-12.39-41.963-42.413-43.736-67.069s14.93-34.6,37.315-22.213,41.963,42.423,43.736,67.079-14.94,34.594-37.315,22.213h0Zm-1.533-18.284c14.93,8.26,26.084,1.639,24.905-14.824-1.179-16.444-14.249-36.5-29.189-44.761s-26.084-1.629-24.906,14.824,14.25,36.491,29.189,44.761Zm84.615,8.624-14.556-8.059a154.74,154.74,0,0,0-15.189-40.947l9.5-5.635a228.161,228.161,0,0,0-18.456-28.3l-9.487,5.644a163.139,163.139,0,0,0-31.767-31.067l-1.15-16.051a143.058,143.058,0,0,0-12.151-7.59,111.235,111.235,0,0,0-12.036-5.788l1.159,16.051c-11.183-4.207-21.3-5.1-29.745-2.971L440.619,183.95a36.937,36.937,0,0,0-15.744,9.372L436,210.36c-5.711,6.325-9.343,15.39-10.321,26.832l-14.556-8.059a98.2,98.2,0,0,0,.125,12.85,125.563,125.563,0,0,0,1.792,13.79l14.556,8.059a154.555,154.555,0,0,0,15.189,40.937l-9.487,5.644a228.159,228.159,0,0,0,18.456,28.3l9.487-5.644a162.865,162.865,0,0,0,31.767,31.067l1.15,16.032a137.352,137.352,0,0,0,12.16,7.609,109.893,109.893,0,0,0,12.017,5.769l-1.15-16.032c11.183,4.207,21.3,5.1,29.745,2.98l11.126,17.057a36.937,36.937,0,0,0,15.744-9.372L562.683,371.12c5.711-6.305,9.343-15.371,10.321-26.812l14.556,8.059a100.047,100.047,0,0,0-.125-12.86,125.235,125.235,0,0,0-1.792-13.77Z" transform="translate(-410.969 -171.33)" fill="#084a93" fill-rule="evenodd"/>
          <path id="Trazado_120501" data-name="Trazado 120501" d="M613.977,318.73,593.22,331.341c-.834,8.989.9,18.016,1.917,26.63l20.756-12.611A111.879,111.879,0,0,0,613.977,318.73Z" transform="translate(-418.565 -176.954)" fill="#0d4d7a" fill-rule="evenodd"/>
        </g>
        <g id="Grupo_113857" data-name="Grupo 113857" transform="translate(373.363)">
          <path id="Trazado_120502" data-name="Trazado 120502" d="M718.649,182.57l-12.084,4.878L694.06,197.509l17.249,9.544,11.672-3.919,12.908-11.02Z" transform="translate(-504.438 -24.196)" fill="#31accb" fill-rule="evenodd"/>
          <path id="Trazado_120503" data-name="Trazado 120503" d="M708.26,248.64l-13.6,7-10.982,7.934,13.167,20.2,10.282-5.242,14.307-9.688Z" transform="translate(-504.005 -26.953)" fill="#31accb" fill-rule="evenodd"/>
          <path id="Trazado_120504" data-name="Trazado 120504" d="M625.02,269.832l3.7,20.641,24.58-14.93-1.37-18.993Z" transform="translate(-501.557 -27.283)" fill="#167b92" fill-rule="evenodd"/>
          <path id="Trazado_120505" data-name="Trazado 120505" d="M520.95,73.16,496.37,88.09l17.239,9.544,24.58-14.939Z" transform="translate(-496.189 -19.631)" fill="#1d8fab" fill-rule="evenodd"/>
          <path id="Trazado_120506" data-name="Trazado 120506" d="M640.19,222.829l24.216-19.894c-11.6,7.072-27.138.91-38.091-6.325-11.126-7.4-20.43-17.4-28-28.327-9.525-13.78-17.182-30.473-18.581-46.888-.987-11.538,1.15-24.58,11.116-30.626L562.331,104.6C516.89,132.848,594.74,251.233,640.21,222.82Z" transform="translate(-498.367 -20.366)" fill="#167b92" fill-rule="evenodd"/>
          <path id="Trazado_120507" data-name="Trazado 120507" d="M697.061,284.66a43.634,43.634,0,0,1-8.241,6.5l24.58-14.93a44.188,44.188,0,0,0,4.3-2.99,42.558,42.558,0,0,0,3.938-3.507C721.622,269.73,699.189,283.366,697.061,284.66Z" transform="translate(-504.22 -27.833)" fill="#167b92" fill-rule="evenodd"/>
          <path id="Trazado_120508" data-name="Trazado 120508" d="M557.41,17.3,532.83,32.239l13.31,23.918L570.586,37.5Z" transform="translate(-497.71 -17.3)" fill="#31accb" fill-rule="evenodd"/>
          <path id="Trazado_120509" data-name="Trazado 120509" d="M532.377,32.24l24.58-14.93a45.655,45.655,0,0,0-10.407,4.609l-24.58,14.93a46.217,46.217,0,0,1,10.407-4.609Z" transform="translate(-497.257 -17.3)" fill="#167b92" fill-rule="evenodd"/>
          <path id="Trazado_120510" data-name="Trazado 120510" d="M720.477,215.5l-27.033,11.624c-.968,11.451-2.147,26.678-9.774,35.073l24.58-14.939c7.637-8.423,11.288-20.258,12.218-31.767Z" transform="translate(-504.005 -25.57)" fill="#1d8fab" fill-rule="evenodd"/>
          <path id="Trazado_120511" data-name="Trazado 120511" d="M581.806,56.78l24.58-14.939c-11.221-4.245-23.919-6.363-35.226-3.517l-24.58,14.93C557.9,50.417,570.594,52.554,581.806,56.78Z" transform="translate(-498.284 -18.123)" fill="#1d8fab" fill-rule="evenodd"/>
          <path id="Trazado_120512" data-name="Trazado 120512" d="M693.077,195.4l24.58-14.939c-3.392-16.616-9.909-33.29-17.987-48.5L670.5,144.418C678.569,159.606,689.685,178.82,693.077,195.4Z" transform="translate(-503.455 -22.085)" fill="#1d8fab" fill-rule="evenodd"/>
          <path id="Trazado_120513" data-name="Trazado 120513" d="M608.81,52.185,613.036,72.7l24.589-14.93-1.37-19.012Z" transform="translate(-500.881 -18.195)" fill="#167b92" fill-rule="evenodd"/>
          <path id="Trazado_120514" data-name="Trazado 120514" d="M610.553,53.01l24.58-14.93A150.232,150.232,0,0,0,606.49,22.23L581.91,37.16A150.759,150.759,0,0,1,610.553,53.01Z" transform="translate(-499.758 -17.506)" fill="#31accb" fill-rule="evenodd"/>
          <path id="Trazado_120515" data-name="Trazado 120515" d="M650.842,110.327l18.13-2.721,6.449-12.218A193.85,193.85,0,0,0,637.8,58.59L613.22,73.52a193.852,193.852,0,0,1,37.622,36.8Z" transform="translate(-501.065 -19.023)" fill="#1d8fab" fill-rule="evenodd"/>
          <path id="Trazado_120516" data-name="Trazado 120516" d="M686.068,138.47l24.58-14.939A267.741,267.741,0,0,0,688.79,90.01l-24.58,14.93a272.05,272.05,0,0,1,21.858,33.52Z" transform="translate(-503.193 -20.334)" fill="#31accb" fill-rule="evenodd"/>
          <path id="Trazado_120517" data-name="Trazado 120517" d="M604.647,212.25c-26.515-14.681-49.706-50.233-51.8-79.441s17.68-40.985,44.205-26.3c26.5,14.671,49.706,50.252,51.8,79.441,2.1,29.208-17.7,40.976-44.2,26.3h0Zm98.4-11.442-17.239-9.544c-3.277-16.013-9.544-32.591-17.987-48.5l11.241-6.67a271.28,271.28,0,0,0-21.858-33.52l-11.241,6.689a193.186,193.186,0,0,0-37.622-36.8l-1.37-19.012a166.157,166.157,0,0,0-14.393-8.989,137.035,137.035,0,0,0-14.25-6.861l1.37,19.012c-13.243-4.983-25.231-6.037-35.226-3.526L531.3,32.89a43.826,43.826,0,0,0-18.648,11.1l13.167,20.181c-6.765,7.484-11.068,18.226-12.218,31.786l-17.239-9.544a117.714,117.714,0,0,0,.144,15.217,149.167,149.167,0,0,0,2.118,16.329l17.239,9.544c3.277,16.013,9.535,32.591,17.987,48.489l-11.241,6.689a270.182,270.182,0,0,0,21.858,33.52l11.241-6.689a192.92,192.92,0,0,0,37.622,36.8L594.7,265.3a162.959,162.959,0,0,0,14.4,9.017,130.888,130.888,0,0,0,14.23,6.832l-1.361-18.993c13.243,4.983,25.231,6.037,35.226,3.526l13.176,20.2a43.884,43.884,0,0,0,18.648-11.1l-13.176-20.2c6.765-7.465,11.068-18.207,12.218-31.767l17.239,9.544a118.019,118.019,0,0,0-.144-15.237,148.847,148.847,0,0,0-2.118-16.31Z" transform="translate(-496.181 -17.951)" fill="#00defc" fill-rule="evenodd"/>
          <path id="Trazado_120518" data-name="Trazado 120518" d="M736.64,192.53l-24.58,14.939a134.165,134.165,0,0,1,2.271,31.546l24.58-14.939A132.648,132.648,0,0,0,736.64,192.53Z" transform="translate(-505.189 -24.612)" fill="#1d8fab" fill-rule="evenodd"/>
        </g>
        <g id="Grupo_113858" data-name="Grupo 113858" transform="translate(468.628 251.048)">
          <path id="Trazado_120519" data-name="Trazado 120519" d="M828.419,452.25l-12.649,5.1-13.08,10.531,18.044,9.995,12.218-4.1,13.512-11.528Z" transform="translate(-604.236 -286.498)" fill="#eca729" fill-rule="evenodd"/>
          <path id="Trazado_120520" data-name="Trazado 120520" d="M817.55,521.4l-14.24,7.331-11.49,8.3,13.79,21.149,10.761-5.481,14.959-10.148Z" transform="translate(-603.783 -289.383)" fill="#eca729" fill-rule="evenodd"/>
          <path id="Trazado_120521" data-name="Trazado 120521" d="M730.43,543.585l3.871,21.6,25.72-15.629-1.428-19.875Z" transform="translate(-601.221 -289.729)" fill="#df9816" fill-rule="evenodd"/>
          <path id="Trazado_120522" data-name="Trazado 120522" d="M621.51,337.74l-25.73,15.629,18.044,9.985,25.73-15.629Z" transform="translate(-595.602 -281.719)" fill="#df9816" fill-rule="evenodd"/>
          <path id="Trazado_120523" data-name="Trazado 120523" d="M746.3,494.382l25.337-20.814c-12.132,7.4-28.4.949-39.874-6.622-11.643-7.743-21.389-18.217-29.3-29.649-9.966-14.422-17.987-31.9-19.443-49.073-1.035-12.074,1.207-25.72,11.624-32.054l-29.85,14.479c-47.559,29.572,33.923,153.467,81.5,123.732Z" transform="translate(-597.881 -282.488)" fill="#df9816" fill-rule="evenodd"/>
          <path id="Trazado_120524" data-name="Trazado 120524" d="M805.834,559.1a45.5,45.5,0,0,1-8.625,6.794l25.73-15.629a45.449,45.449,0,0,0,4.5-3.124,46.531,46.531,0,0,0,4.13-3.67c-.019,0-23.5,14.269-25.729,15.629Z" transform="translate(-604.008 -290.304)" fill="#df9816" fill-rule="evenodd"/>
          <path id="Trazado_120525" data-name="Trazado 120525" d="M659.67,279.28l-25.73,15.629,13.933,25.03,25.586-19.52Z" transform="translate(-597.195 -279.28)" fill="#df9816" fill-rule="evenodd"/>
          <path id="Trazado_120526" data-name="Trazado 120526" d="M633.466,294.909,659.2,279.28a48.479,48.479,0,0,0-10.9,4.82l-25.73,15.629A48.43,48.43,0,0,1,633.466,294.909Z" transform="translate(-596.72 -279.28)" fill="#eca729" fill-rule="evenodd"/>
          <path id="Trazado_120527" data-name="Trazado 120527" d="M830.333,486.71l-28.288,12.17c-1.006,11.978-2.252,27.924-10.225,36.7l25.73-15.629c7.992-8.816,11.815-21.207,12.793-33.243Z" transform="translate(-603.783 -287.936)" fill="#df9816" fill-rule="evenodd"/>
          <path id="Trazado_120528" data-name="Trazado 120528" d="M685.194,320.6l25.73-15.629c-11.748-4.437-25.03-6.66-36.874-3.689L648.32,316.91C660.164,313.94,673.446,316.173,685.194,320.6Z" transform="translate(-597.795 -280.142)" fill="#eca729" fill-rule="evenodd"/>
          <path id="Trazado_120529" data-name="Trazado 120529" d="M801.661,465.669,827.39,450.04c-3.555-17.393-10.368-34.833-18.83-50.76L778.03,412.312c8.452,15.888,20.085,36,23.631,53.357Z" transform="translate(-603.207 -284.287)" fill="#df9816" fill-rule="evenodd"/>
          <path id="Trazado_120530" data-name="Trazado 120530" d="M713.46,315.788l4.427,21.475,25.73-15.629-1.428-19.894Z" transform="translate(-600.513 -280.217)" fill="#eca729" fill-rule="evenodd"/>
          <path id="Trazado_120531" data-name="Trazado 120531" d="M715.285,316.647l25.73-15.629A157.465,157.465,0,0,0,711.04,284.43l-25.73,15.629A158,158,0,0,1,715.285,316.647Z" transform="translate(-599.338 -279.495)" fill="#df9816" fill-rule="evenodd"/>
          <path id="Trazado_120532" data-name="Trazado 120532" d="M757.455,376.642l18.974-2.846,6.756-12.783A202.594,202.594,0,0,0,743.809,322.5l-25.73,15.629A203.137,203.137,0,0,1,757.455,376.642Z" transform="translate(-600.706 -281.083)" fill="#df9816" fill-rule="evenodd"/>
          <path id="Trazado_120533" data-name="Trazado 120533" d="M794.323,406.1l25.72-15.629A279.837,279.837,0,0,0,797.17,355.39l-25.73,15.629A283.761,283.761,0,0,1,794.314,406.1Z" transform="translate(-602.932 -282.456)" fill="#eca729" fill-rule="evenodd"/>
          <path id="Trazado_120534" data-name="Trazado 120534" d="M709.107,483.316c-27.752-15.361-52.015-52.571-54.219-83.14-2.194-30.55,18.5-42.892,46.265-27.531,27.732,15.352,52.015,52.59,54.21,83.14,2.194,30.569-18.523,42.883-46.256,27.531Zm102.986-11.978-18.044-9.985c-3.431-16.76-9.985-34.115-18.83-50.76l11.768-6.986a283.381,283.381,0,0,0-22.874-35.082l-11.758,7a202.169,202.169,0,0,0-39.375-38.513l-1.428-19.894a176.885,176.885,0,0,0-15.055-9.41,140.965,140.965,0,0,0-14.911-7.177l1.428,19.894c-13.866-5.213-26.4-6.315-36.874-3.689L632.349,295.6a45.806,45.806,0,0,0-19.52,11.614l13.79,21.12c-7.082,7.839-11.576,19.079-12.793,33.262l-18.044-9.985a123.592,123.592,0,0,0,.153,15.926,156.329,156.329,0,0,0,2.223,17.086l18.044,9.985c3.431,16.76,9.985,34.114,18.83,50.741l-11.768,7a282.3,282.3,0,0,0,22.874,35.082l11.768-7a201.9,201.9,0,0,0,39.375,38.513l1.428,19.875a170.869,170.869,0,0,0,15.074,9.439,136.772,136.772,0,0,0,14.892,7.149l-1.428-19.875c13.866,5.223,26.4,6.315,36.874,3.689l13.79,21.139a45.8,45.8,0,0,0,19.52-11.614l-13.79-21.139c7.082-7.819,11.576-19.06,12.793-33.243l18.044,9.985a123.9,123.9,0,0,0-.153-15.946,153.677,153.677,0,0,0-2.223-17.067Z" transform="translate(-595.595 -279.961)" fill="#ffb30b" fill-rule="evenodd"/>
          <path id="Trazado_120535" data-name="Trazado 120535" d="M847.25,462.68,821.52,478.309a139.993,139.993,0,0,1,2.376,33.013l25.73-15.629A138.943,138.943,0,0,0,847.25,462.68Z" transform="translate(-605.022 -286.933)" fill="#df9816" fill-rule="evenodd"/>
        </g>
        <g id="Grupo_113859" data-name="Grupo 113859" transform="translate(592.713 158.949)">
          <path id="Trazado_120536" data-name="Trazado 120536" d="M823.774,313.191c-13.8-7.637-25.854-26.132-26.947-41.33-.355-4.906-10.57-3.747-8.816-6.6,1.112-1.811,13.655-8.3,15.438-9.18,4.121-2.041,9.861-1.5,16.377,2.1,13.79,7.628,25.854,26.142,26.947,41.33.527,7.3-1.581,12.515-5.443,15.1-1.236.834-13.722,8.471-15.294,8.749-3.718.652,2.769-7.379-2.262-10.158Z" transform="translate(-727.7 -186.163)" fill="#c3d8ee" fill-rule="evenodd"/>
          <path id="Trazado_120537" data-name="Trazado 120537" d="M898.5,312l-9.42,3.8-9.746,7.839,13.435,7.446,9.1-3.057,10.062-8.586Z" transform="translate(-731.519 -188.546)" fill="#daeafa" fill-rule="evenodd"/>
          <path id="Trazado_120538" data-name="Trazado 120538" d="M890.4,363.51l-10.608,5.462-8.557,6.181L881.5,390.9l8.011-4.082,11.154-7.561Z" transform="translate(-731.181 -190.695)" fill="#daeafa" fill-rule="evenodd"/>
          <path id="Trazado_120539" data-name="Trazado 120539" d="M825.51,380.029l2.875,16.089,19.165-11.643-1.064-14.805Z" transform="translate(-729.274 -190.952)" fill="#c3d8ee" fill-rule="evenodd"/>
          <path id="Trazado_120540" data-name="Trazado 120540" d="M744.376,226.71,725.22,238.353l13.435,7.436,19.165-11.643Z" transform="translate(-725.089 -184.987)" fill="#d3e5f6" fill-rule="evenodd"/>
          <path id="Trazado_120541" data-name="Trazado 120541" d="M837.329,343.388l18.878-15.5c-9.037,5.51-21.159.709-29.7-4.926a83.1,83.1,0,0,1-21.829-22.088c-7.427-10.742-13.4-23.756-14.489-36.549-.767-9,.9-19.156,8.663-23.871l-22.232,10.781c-35.427,22.021,25.27,114.312,60.706,92.157Z" transform="translate(-726.786 -185.56)" fill="#c3d8ee" fill-rule="evenodd"/>
          <path id="Trazado_120542" data-name="Trazado 120542" d="M881.67,391.583a33.915,33.915,0,0,1-6.43,5.06L894.405,385a34.9,34.9,0,0,0,3.354-2.329,34.434,34.434,0,0,0,3.076-2.731C900.816,379.94,883.328,390.567,881.67,391.583Z" transform="translate(-731.349 -191.381)" fill="#d3e5f6" fill-rule="evenodd"/>
          <path id="Trazado_120543" data-name="Trazado 120543" d="M772.8,183.17,753.64,194.813l10.378,18.638,19.05-14.537Z" transform="translate(-726.275 -183.17)" fill="#daeafa" fill-rule="evenodd"/>
          <path id="Trazado_120544" data-name="Trazado 120544" d="M753.287,194.813l19.165-11.643a36.035,36.035,0,0,0-8.117,3.594L745.17,198.407A36.225,36.225,0,0,1,753.287,194.813Z" transform="translate(-725.921 -183.17)" fill="#d3e5f6" fill-rule="evenodd"/>
          <path id="Trazado_120545" data-name="Trazado 120545" d="M899.921,337.67l-21.072,9.065c-.757,8.922-1.677,20.794-7.618,27.339L890.4,362.432C896.346,355.868,899.192,346.639,899.921,337.67Z" transform="translate(-731.181 -189.617)" fill="#c3d8ee" fill-rule="evenodd"/>
          <path id="Trazado_120546" data-name="Trazado 120546" d="M791.814,213.939,810.979,202.3c-8.749-3.306-18.648-4.964-27.464-2.75L764.35,211.189C773.166,208.975,783.065,210.643,791.814,213.939Z" transform="translate(-726.722 -183.811)" fill="#d3e5f6" fill-rule="evenodd"/>
          <path id="Trazado_120547" data-name="Trazado 120547" d="M878.563,322l19.165-11.643A143.077,143.077,0,0,0,883.7,272.54l-22.74,9.707c6.3,11.835,14.959,26.812,17.6,39.74Z" transform="translate(-730.753 -186.899)" fill="#c3d8ee" fill-rule="evenodd"/>
          <path id="Trazado_120548" data-name="Trazado 120548" d="M812.87,210.355l3.3,16,19.165-11.643L834.268,199.9Z" transform="translate(-728.746 -183.868)" fill="#d3e5f6" fill-rule="evenodd"/>
          <path id="Trazado_120549" data-name="Trazado 120549" d="M814.228,211.005l19.165-11.643a116.872,116.872,0,0,0-22.328-12.352L791.9,198.653a117.44,117.44,0,0,1,22.328,12.362Z" transform="translate(-727.871 -183.33)" fill="#daeafa" fill-rule="evenodd"/>
          <path id="Trazado_120550" data-name="Trazado 120550" d="M845.633,255.694l14.135-2.118,5.031-9.525a150.943,150.943,0,0,0-29.323-28.691L816.31,227a150.942,150.942,0,0,1,29.323,28.691Z" transform="translate(-728.89 -184.513)" fill="#d3e5f6" fill-rule="evenodd"/>
          <path id="Trazado_120551" data-name="Trazado 120551" d="M873.1,277.625l19.156-11.643a209.22,209.22,0,0,0-17.038-26.132L856.05,251.493c2.8,3.661,4.686,8.174,7.264,12.065,3.2,4.83,7.034,9.075,9.774,14.067Z" transform="translate(-730.548 -185.535)" fill="#daeafa" fill-rule="evenodd"/>
          <path id="Trazado_120552" data-name="Trazado 120552" d="M809.619,335.142c-20.67-11.442-38.743-39.155-40.382-61.924s13.78-31.949,34.459-20.507c20.66,11.432,38.743,39.174,40.382,61.933s-13.8,31.939-34.459,20.507h0ZM808.2,318.258c13.789,7.628,24.091,1.514,22.989-13.684s-13.157-33.693-26.947-41.33-24.091-1.5-23,13.684,13.157,33.693,26.947,41.33h0Zm78.128,7.963-13.445-7.436a143.221,143.221,0,0,0-14.02-37.8l8.768-5.2a211.358,211.358,0,0,0-17.038-26.132l-8.759,5.213a150.646,150.646,0,0,0-29.323-28.681l-1.064-14.815a129.964,129.964,0,0,0-11.221-7,105.958,105.958,0,0,0-11.106-5.347l1.064,14.815c-10.33-3.881-19.664-4.705-27.464-2.741L752.448,195.34a34.072,34.072,0,0,0-14.537,8.653l10.273,15.735c-5.271,5.836-8.624,14.211-9.525,24.771l-13.435-7.436a91.44,91.44,0,0,0,.115,11.863,117.191,117.191,0,0,0,1.648,12.726l13.445,7.436a142.915,142.915,0,0,0,14.02,37.794l-8.759,5.213a212.077,212.077,0,0,0,17.038,26.132l8.759-5.213a150.7,150.7,0,0,0,29.323,28.691l1.064,14.805a127.59,127.59,0,0,0,11.231,7.034,101.958,101.958,0,0,0,11.1,5.328l-1.064-14.805c10.33,3.891,19.664,4.705,27.464,2.75l10.273,15.744a34.072,34.072,0,0,0,14.537-8.653l-10.263-15.754c5.28-5.826,8.624-14.192,9.525-24.762l13.445,7.436a91.576,91.576,0,0,0-.115-11.873,114.753,114.753,0,0,0-1.658-12.716Z" transform="translate(-725.083 -183.678)" fill-rule="evenodd" fill="url(#linear-gradient-21)"/>
          <path id="Trazado_120553" data-name="Trazado 120553" d="M912.515,319.77,893.35,331.413A104.333,104.333,0,0,1,895.113,356l19.165-11.643A103.752,103.752,0,0,0,912.515,319.77Z" transform="translate(-732.104 -188.87)" fill="#d3e5f6" fill-rule="evenodd"/>
        </g>
        <g id="Grupo_113860" data-name="Grupo 113860" transform="translate(433.883 96.977)">
          <path id="Trazado_120554" data-name="Trazado 120554" d="M609.715,196.158c-17.306-9.583-32.447-32.792-33.817-51.862-.441-6.162-13.263-4.705-11.058-8.289,1.4-2.271,24.963-15.007,27.2-16.109,5.165-2.559,11.3-1.619,19.472,2.9,17.3,9.573,32.447,32.8,33.817,51.862.661,9.171-.91,15.438-5.75,18.677-1.552,1.045-25.04,15.217-27.014,15.562-4.667.815,3.478-9.257-2.837-12.755Z" transform="translate(-559.555 -118.5)" fill="#167b92" fill-rule="evenodd"/>
          <path id="Trazado_120555" data-name="Trazado 120555" d="M593.253,206.234c-17.306-9.583-32.447-32.792-33.817-51.862s11.547-26.755,28.854-17.172,32.447,32.8,33.817,51.862S610.55,215.808,593.253,206.234Z" transform="translate(-559.336 -119.108)" fill="#289ebc" fill-rule="evenodd"/>
        </g>
        <g id="Grupo_113861" data-name="Grupo 113861" transform="translate(641.207 228.834)">
          <path id="Trazado_120556" data-name="Trazado 120556" d="M815.584,317.286c-13.7-7.59-25.691-25.969-26.774-41.072-.355-4.878-10.5-3.728-8.759-6.564,1.1-1.792,19.769-11.883,21.532-12.755,16.358-8.088,53.06,47.827,37.641,58.167-1.227.824-19.827,12.055-21.389,12.323-3.7.642,2.75-7.331-2.242-10.1Z" transform="translate(-775.862 -256.099)" fill="#c3d8ee" fill-rule="evenodd"/>
          <path id="Trazado_120557" data-name="Trazado 120557" d="M802.55,325.257c-13.713-7.59-25.691-25.969-26.784-41.072s9.142-21.187,22.855-13.6,25.691,25.979,26.774,41.072-9.151,21.178-22.855,13.6Z" transform="translate(-775.688 -256.567)" fill="#d3e5f6" fill-rule="evenodd"/>
        </g>
        <g id="Grupo_113862" data-name="Grupo 113862" transform="translate(341.164 224.119)">
          <path id="Trazado_120558" data-name="Trazado 120558" d="M506.381,318.384c-15.054-8.327-28.212-28.509-29.4-45.087-.383-5.357-11.538-4.092-9.621-7.206,1.207-1.974,21.7-13.042,23.641-14.01,18.533-9.171,55.494,54.363,41.33,63.859-1.351.9-21.772,13.234-23.487,13.531C504.79,330.18,511.872,321.421,506.381,318.384Z" transform="translate(-462.77 -251.178)" fill="#0d4d7a" fill-rule="evenodd"/>
          <path id="Trazado_120559" data-name="Trazado 120559" d="M492.066,327.141c-15.054-8.327-28.212-28.509-29.4-45.087s10.033-23.257,25.088-14.93,28.211,28.518,29.4,45.087-10.043,23.257-25.088,14.93Z" transform="translate(-462.58 -251.694)" fill="#0f588c" fill-rule="evenodd"/>
        </g>
        <g id="Grupo_113863" data-name="Grupo 113863" transform="translate(513.49 349.189)">
          <path id="Trazado_120560" data-name="Trazado 120560" d="M705.037,478.351C683.514,466.44,664.694,437.577,663,413.869c-.546-7.657-16.492-5.845-13.751-10.3,1.734-2.817,31.029-18.658,33.808-20.028,6.42-3.181,15.38-2.348,25.548,3.277,21.5,11.9,40.334,40.784,42.039,64.482.815,11.394-2.472,19.52-8.49,23.554-1.936,1.294-31.134,18.916-33.578,19.347-5.8,1.006,4.322-11.509-3.526-15.859Z" transform="translate(-642.682 -381.695)" fill="#eca729" fill-rule="evenodd"/>
          <path id="Trazado_120561" data-name="Trazado 120561" d="M684.574,490.889c-21.523-11.911-40.343-40.774-42.039-64.482s14.355-33.262,35.878-21.35c21.5,11.9,40.334,40.784,42.039,64.482s-14.365,33.252-35.868,21.35Z" transform="translate(-642.41 -382.456)" fill="#fac533" fill-rule="evenodd"/>
        </g>
        <path id="Trazado_120562" data-name="Trazado 120562" d="M524.014,310.705c5.318-10.455,2.041-30.368-6.689-46.294-7.446-13.579-18.361-24.359-28.4-24.254a18.955,18.955,0,0,0-9.449,2.3,21.284,21.284,0,0,0-6.7,6.238,26.221,26.221,0,0,0-3.335,6.65c16.779-14.422,30.128-4.446,40.755,11.336,9.4,13.952,15.38,32.591,13.828,44.023h0Zm201.62-188.444c.709-19.29,1.9-38.57,2.693-57.86l12.716,21.111,6.986-4.207L725,43.06,699.473,79.685l6.689,4.667,14.029-20.124c-.8,16.885-1.591,33.674-2.444,50.587-3.7,72.541-8.854,174.032,40.209,209.5-2.118,44.8-6.305,86.58-16.109,115-3.364,9.774-7.465,17.862-12.448,23.784-4.322,5.136-12.113,10.943-18.849,12-4.763,2.836-8.845,6.162-16.022,6.056,27.148,9.132,44.186-7.733,55.024-39.184C759.3,413.7,763.62,372.983,765.843,329.19c1.437.757,2.9,1.466,4.427,2.118,12.975,5.558,23.075,6.066,30.856,3.469A28.353,28.353,0,0,0,816.6,321.841a51.249,51.249,0,0,0,6.2-18.5c4.073-27.253-22.51-56.7-44.128-51.948-10.244,2.252-17.134,10.407-17.508,22.634-.326,14.24-2.2,26.142-2.779,40.257C718.917,279.6,722.1,189.877,725.5,122.2l.115.086h0ZM522.068,313.513a16.7,16.7,0,0,0,6.056-2.022c12.333-6.947,18.447-21.427,21.36-42.346,3.057-21.925,2.578-50.683,1.9-85.066-.479-24.292,2.166-38.791,6.718-47.952a30.063,30.063,0,0,1,22.845-16.751c10.991-1.8,22.251,3.3,31.949,13.3,9.219,9.506,17.105,23.564,21.906,40.238a128.352,128.352,0,0,1,3.258,14.547c6.325,38.618,7.465,86.513,8.529,131.341.556,23.324,1.092,45.805,2.29,65.575a34.531,34.531,0,0,0-7.695,5.769c-1.533-21.312-2.118-45.738-2.721-71.152-1.054-44.521-2.185-92.1-8.433-130.229a119.4,119.4,0,0,0-3.066-13.627c-4.427-15.38-11.586-28.231-19.9-36.8a42.107,42.107,0,0,0-11.039-8.414c-9.2-4.667-21.906-7.867-35.322,3.1-3.7,3.565-5.587,9.611-5.021,17.584a54.61,54.61,0,0,0,4.053,16.406c-.278,4.973-.364,10.57-.24,16.9.69,34.785,1.169,63.878-1.964,86.34C554.247,293.734,547,310.2,532.082,318.6a24.858,24.858,0,0,1-12.055,3.181,31.89,31.89,0,0,1-9.861-1.524c2.319-1.15,7.245-4.006,11.883-6.746h0Zm245.279-23.075A45.708,45.708,0,0,1,763,274.828c-.45-6.315,1.073-11.049,4.006-13.866,8.969-6.612,18.015-3.383,21.609-2.367,15.706,4.456,28.844,25.461,26.151,43.544a43.243,43.243,0,0,1-5.117,15.524,20.4,20.4,0,0,1-11.078,9.381c-5.989,2-14.144,1.447-25.1-3.239a55.154,55.154,0,0,1-7.177-3.718c.431-9.794.776-19.712,1.054-29.639Z" transform="translate(-121.702 -18.375)" fill="#b7d504" fill-rule="evenodd"/>
        <g id="Grupo_113869" data-name="Grupo 113869" transform="translate(175.632 103.171)">
          <path id="Trazado_120563" data-name="Trazado 120563" d="M390.642,324.909a4.062,4.062,0,1,1-3.249-7.446l55.283-24.273,4.7,1.064,13.416,15.5,23.65-14.039a4.071,4.071,0,0,1,4.149,7l-26.563,15.773-5.146-.843-13.675-15.8-52.552,23.075Z" transform="translate(-293.809 -131.983)" fill="#13639b" fill-rule="evenodd"/>
          <g id="Grupo_113868" data-name="Grupo 113868">
            <path id="Trazado_120564" data-name="Trazado 120564" d="M400.109,167.974c11.978,7.733,10.33,23.171,4.255,34.354-12.419,22.836-25.672,35.763-41.464,50.846a133.318,133.318,0,0,1-17.69,14.575c-10.56,8.212-47.243,7.8-55.359-5.4a27.612,27.612,0,0,0,2.137-6.679,32.205,32.205,0,0,1,2.386-13.722c8.308-19.443,20.152-40.065,29.074-54.8,6.411-10.579,13.809-17.4,23.928-19.233,8.471-1.524,43.161-6.095,52.724.077Z" transform="translate(-289.84 -126.628)" fill-rule="evenodd" fill="url(#linear-gradient-22)"/>
            <path id="Trazado_120565" data-name="Trazado 120565" d="M379.362,237.018c-5.2,5.558-10.666,10.819-16.473,16.358a133.326,133.326,0,0,1-17.69,14.575c-10.56,8.212-47.243,7.8-55.359-5.4a27.613,27.613,0,0,0,2.137-6.679,32.206,32.206,0,0,1,2.386-13.722c8.308-19.443,20.152-40.065,29.084-54.8,5.06-8.356,10.733-14.365,17.872-17.421,5.587.853,9.861,2.741,12.994,6.133,6.315,6.832,8,19.827,9.027,40.3.738,14.757,7.877,19.875,16.022,20.67Z" transform="translate(-289.84 -126.84)" fill="#bdd1e7" fill-rule="evenodd" opacity="0.25"/>
            <g id="Grupo_113866" data-name="Grupo 113866" transform="translate(59.068)">
              <path id="Trazado_120566" data-name="Trazado 120566" d="M387.731,194.9c.211,12.122-3.2,19.779-8.969,26.094-16.885,18.466-19.539,22.826-27.282,48.211a40.481,40.481,0,0,0,7.8,14.9,69.148,69.148,0,0,1,10.982-14.537c-1.294-12.994,9.056-28.758,15.869-39.567,5.453-8.644,9.966-19.06,5.941-35.044,2.884-4.552,3.641-6.037,2.817-6.947-.968-1.073-.91-.393-4.763-1.3-2.309-.546-6.085-1.179-6.325,1.524-.182,2.07.68,4.552,3.929,6.66Z" transform="translate(-351.48 -127.52)" fill-rule="evenodd" fill="url(#linear-gradient-23)"/>
              <g id="Grupo_113865" data-name="Grupo 113865" transform="translate(18.123)">
                <path id="Trazado_120567" data-name="Trazado 120567" d="M395.2,181.156c.517-.556,1.064-1.092,1.629-1.687,1.6-1.687,3.469-5.759,6.775-9.87l-14.968-13.713-3.047-3.3c-1.591,7.168-5.807,12.17-9.918,16.291-3.1,6.373,9.123,13.665,15.534,17.623,1.342-1.351,2.415-3.632,4.006-5.347Z" transform="translate(-370.592 -126.116)" fill="#e7a376" fill-rule="evenodd"/>
                <path id="Trazado_120568" data-name="Trazado 120568" d="M391.88,187.551c.68-.834,1.514-2.75,2.472-4.341.862-1.418,3.459-4.753,3.785-5.74,1.437.91-.45,10.119.125,14.441-2.147-2.817-3.287-3.373-6.392-4.37Z" transform="translate(-371.289 -127.155)" fill="#daeafa" fill-rule="evenodd"/>
                <path id="Trazado_120569" data-name="Trazado 120569" d="M376.351,168.31c-1.9,6.7,7.791,14.863,14.709,18.888-2.511,1.6-5.721,3.584-6.334,5.788-4.734-3.1-12.735-8.375-14.163-16.156-.977-5.318,2.434-7.887,5.788-8.519Z" transform="translate(-370.393 -126.772)" fill="#daeafa" fill-rule="evenodd"/>
                <path id="Trazado_120570" data-name="Trazado 120570" d="M394.607,177.036c-1.476-2.166-5.318-6.9-6.593-8.979-2.779-4.542-.776-8.059.45-14.355-2.626-4.168-3.019-6.785-2.376-9.3,1.524-5.97,7.235-10.752,12.908-12.314,4.964-1.37,9.631-.412,14.077,2.654,8.634,5.951,10.637,12.649,7.791,21.044a25.492,25.492,0,0,1-2.127,4.006c-1.188,1.437-1.754,1.524-2.463,2.578a5.831,5.831,0,0,0-.891,2.932c-.24,3.124-8.969,14.441-11.423,15.026a9.815,9.815,0,0,1-9.353-3.287Z" transform="translate(-371.036 -125.235)" fill="#f0b186" fill-rule="evenodd"/>
                <path id="Trazado_120571" data-name="Trazado 120571" d="M413.237,151.069c-1.629-2.252-7.685-10.685-10.215-14.547-2.587-3.948-5.443-8.2-9.65-7.427-4.3,1.955-8.1,7.475-9.238,11.068-1.629,5.136-.632,10.857,1.3,17.335.728,2.434,3.967-4.36,5.184-5.51-.374,2.817-.048,4.264.632,4.82.489.4.93,1.035,2.5-1.984,2.405-4.638,4.993-4.245,5.52-7.829.412-2.875,1.869-1.744,2.894-2.434,3.325,1.936,5.587,5.251,11.078,6.516Z" transform="translate(-370.932 -125.132)" fill-rule="evenodd" fill="url(#linear-gradient-24)"/>
                <path id="Trazado_120572" data-name="Trazado 120572" d="M390.31,149.192c-2.913-3.086-5.1,1.006-5.865,3.785-.527,1.907.958,2.53.757,4.14a3.65,3.65,0,0,0,1.7,3.871c2.194,1.083,2.549-2.836,2.961-4.245C391.21,154.788,392.159,151.147,390.31,149.192Z" transform="translate(-370.974 -125.929)" fill="#f0b186" fill-rule="evenodd"/>
                <path id="Trazado_120573" data-name="Trazado 120573" d="M393.39,129.1c2.329,2.137,4.168,6.717,6.986,10.857,3.871,5.7,8.969,10.991,14.259,12.151,3.038.671,6.8.115,7.81-.862C437.6,136.68,405.5,116.087,393.39,129.09Z" transform="translate(-371.352 -124.964)" fill-rule="evenodd" fill="url(#linear-gradient-25)"/>
                <g id="Grupo_113864" data-name="Grupo 113864" transform="translate(29.589 32.971)">
                  <path id="Trazado_120574" data-name="Trazado 120574" d="M407.995,176.539c-.374-.182-.585-.048-1.073-.105a3.8,3.8,0,0,0-1.533-.364c-1.054-.029-1.38.46-2.923.3-.46-.048-.412.048-.038.383a9.786,9.786,0,0,0,4.274,1.37c.776,0,.68-.441,1.15-.661.355-.163.882-.565.144-.93Z" transform="translate(-401.306 -160.067)" fill="#ea9f6f" fill-rule="evenodd"/>
                  <path id="Trazado_120575" data-name="Trazado 120575" d="M406.953,162.159a7.234,7.234,0,0,1-5.683-2.789A5.076,5.076,0,0,0,406.953,162.159Z" transform="translate(-401.27 -159.37)" fill="#aa6f48" fill-rule="evenodd"/>
                  <path id="Trazado_120576" data-name="Trazado 120576" d="M413.714,163.32c1.878.527,1.9.632,3.709.268-1.37.767-2.242.6-3.843.019Z" transform="translate(-401.784 -159.535)" fill="#aa6f48" fill-rule="evenodd"/>
                  <path id="Trazado_120577" data-name="Trazado 120577" d="M412.205,165.01c-.326,2.118-.69,3.124-.259,4.849.747,2.971-.431,3.641-3.066,3.076,2.932.172,2.894-.7,2.616-3.21-.172-1.572.105-2.415.709-4.705Z" transform="translate(-401.588 -159.605)" fill="#aa6f48" fill-rule="evenodd"/>
                  <path id="Trazado_120578" data-name="Trazado 120578" d="M416.282,164.028c-.661.776-1.706.709-2.012-.278A5.284,5.284,0,0,0,416.282,164.028Z" transform="translate(-401.812 -159.553)" fill="#aa6f48" fill-rule="evenodd"/>
                  <path id="Trazado_120579" data-name="Trazado 120579" d="M402.82,161.04c.077,1.006.977,1.572,1.792.949A5.407,5.407,0,0,1,402.82,161.04Z" transform="translate(-401.335 -159.44)" fill="#aa6f48" fill-rule="evenodd"/>
                </g>
              </g>
            </g>
            <g id="Grupo_113867" data-name="Grupo 113867" transform="translate(37.099 43.758)">
              <path id="Trazado_120580" data-name="Trazado 120580" d="M410.435,309.594a7.373,7.373,0,0,1,3.028,3.546c.565,1.581-1.457,5.117-2.712,6.229-2.108,1.878-15.045,9.525-17.287,4.312-.355-.824,2.741-1.859,1.4-4.408-1.275-2.415-3.661-.853-5.826-4.331-.556-.891-.738-1.294-.077-7.618-.585-2.319-1.083-2.894-2.52-6.6l8.692-4.13c5.2,7.436,7.542,8.04,15.294,13Z" transform="translate(-330.97 -175.883)" fill="#f0b186" fill-rule="evenodd"/>
              <path id="Trazado_120581" data-name="Trazado 120581" d="M334.261,257.43c-2.856-2.654-3.776-5.453-3.9-10-1.907-18.092-2.865-40.525,0-57.832,4.523-27.32,30.511-22.088,30.128-3.459-.4,19.51-2.6,37.421-5.73,57.094,9.477,9.362,29.064,32.562,34.737,40.889a19.356,19.356,0,0,1,2.012,4.082c.383.958,1.418,1.859,2.817,3.076-2.194,4.149-6.085,5.261-9.506,7.657a31.1,31.1,0,0,0-3.526-2.951c-1.006-.719-2.683.316-4.36-.613-8.605-4.743-36.05-29.055-42.7-37.928Z" transform="translate(-328.554 -170.627)" fill-rule="evenodd" fill="url(#linear-gradient-26)"/>
            </g>
          </g>
        </g>
        <path id="Trazado_120582" data-name="Trazado 120582" d="M254.5,68.5,221.62,44V65.187H106.56v55.647H221.62v21.187l32.878-24.5,32.888-24.513Z" transform="translate(-106.56 -18.414)" fill="#00defc"/>
        <path id="Trazado_120583" data-name="Trazado 120583" d="M254.5,313.9,221.62,289.4v21.2H106.56v55.637H221.62v21.2L254.5,362.919l32.888-24.5Z" transform="translate(-106.56 -28.654)" fill="#084a93"/>
        <path id="Trazado_120584" data-name="Trazado 120584" d="M954.208,514.169l32.878,24.513v-21.2h115.472V461.847H987.087v-21.2l-32.878,24.513-32.878,24.5Z" transform="translate(-140.559 -34.965)" fill="#ffb30b"/>
        <path id="Trazado_120585" data-name="Trazado 120585" d="M954.208,268.769l32.878,24.5V272.084h115.472V216.437H987.087V195.25l-32.878,24.5L921.33,244.266Z" transform="translate(-140.559 -24.725)" fill="#b9ddfc"/>
      </g>
    </g>
    <path id="Trazado_191832" data-name="Trazado 191832" d="M6.135-12.8,7.356-3.92,11.646-12.8h4.008L13.438,0H10.415l.545-3.138,1.3-5.783L7.778,0h-2L4.333-9.255,3.524-2.839,3.023,0H.018L2.232-12.8ZM21.155-1.037A3.148,3.148,0,0,1,18.589.185a2.492,2.492,0,0,1-2.1-.976,3.6,3.6,0,0,1-.549-2.566L16.963-9.51h2.892L18.809-3.315a2.064,2.064,0,0,0,0,.466.766.766,0,0,0,.853.748,1.868,1.868,0,0,0,1.556-.722L22.395-9.51H25.3L23.651,0H20.962Zm9.413-1.687q.114-.58-.9-.87l-.624-.158a4.806,4.806,0,0,1-2.241-1.134,2.244,2.244,0,0,1-.668-1.731,2.758,2.758,0,0,1,1.217-2.228,4.633,4.633,0,0,1,2.861-.839,4.292,4.292,0,0,1,2.72.853A2.781,2.781,0,0,1,34-6.583l-2.883-.009q.035-1.125-.993-1.125a1.417,1.417,0,0,0-.817.259,1.007,1.007,0,0,0-.448.69q-.149.712,1.257.976A7.3,7.3,0,0,1,32-5.12a2.821,2.821,0,0,1,1.02.945,2.35,2.35,0,0,1,.325,1.354,2.541,2.541,0,0,1-.562,1.538A3.642,3.642,0,0,1,31.232-.2a5.557,5.557,0,0,1-2.2.378,4.469,4.469,0,0,1-1.912-.431A3.408,3.408,0,0,1,25.739-1.4a2.979,2.979,0,0,1-.514-1.666l2.689.018A1.111,1.111,0,0,0,29.18-1.8a1.661,1.661,0,0,0,.914-.242A1.045,1.045,0,0,0,30.568-2.725Zm9.1-9.149L39.252-9.51h1.521l-.36,2.057H38.892l-.738,4.368a1.164,1.164,0,0,0,.057.677q.119.229.593.246a6.873,6.873,0,0,0,.756-.044L39.349-.062a4.673,4.673,0,0,1-1.556.22A2.563,2.563,0,0,1,35.78-.633a2.7,2.7,0,0,1-.545-2.1l.773-4.72H34.831l.352-2.057H36.36l.413-2.364Z" transform="translate(368 4468.788)" fill="#12263f"/>
    <path id="Trazado_191829" data-name="Trazado 191829" d="M7.049-3.463Q7.242-4.456,5.977-5L4.535-5.6Q1.5-6.961,1.652-9.308a3.274,3.274,0,0,1,.738-1.912,4.385,4.385,0,0,1,1.872-1.305,6.889,6.889,0,0,1,2.61-.448,4.439,4.439,0,0,1,3.054,1.107,3.679,3.679,0,0,1,1.138,2.874H8.077a1.79,1.79,0,0,0-.312-1.182,1.351,1.351,0,0,0-1.112-.461,2.33,2.33,0,0,0-1.336.352,1.426,1.426,0,0,0-.686.993q-.167.879,1.305,1.441a14.352,14.352,0,0,1,2.14.967,3.534,3.534,0,0,1,1.969,3.393,3.474,3.474,0,0,1-.712,1.942A4.115,4.115,0,0,1,7.554-.255,6.576,6.576,0,0,1,5,.185,6.164,6.164,0,0,1,3.076-.141a4.235,4.235,0,0,1-1.521-.9,3.9,3.9,0,0,1-1.23-3.12l3.015.009a2.064,2.064,0,0,0,.378,1.49,1.816,1.816,0,0,0,1.45.505A2.176,2.176,0,0,0,6.429-2.5,1.441,1.441,0,0,0,7.049-3.463Zm8.042-5.01a3.107,3.107,0,0,1,2.452-1.222,2.472,2.472,0,0,1,2.123,1.046,3.981,3.981,0,0,1,.5,2.742L19.178,0H16.286l.993-5.948a3.079,3.079,0,0,0,.018-.563.878.878,0,0,0-.967-.9,1.873,1.873,0,0,0-1.389.572L13.729,0H10.837l2.347-13.5h2.892Zm11.3-1.213a3.994,3.994,0,0,1,2.206.637,3.59,3.59,0,0,1,1.367,1.727,5.33,5.33,0,0,1,.312,2.461l-.018.193a5.636,5.636,0,0,1-1.626,3.533,4.575,4.575,0,0,1-3.41,1.31,3.977,3.977,0,0,1-2.188-.628,3.612,3.612,0,0,1-1.367-1.709,5.179,5.179,0,0,1-.321-2.443,5.863,5.863,0,0,1,1.6-3.727A4.547,4.547,0,0,1,26.394-9.686ZM24.24-4.6l-.026.518q-.123,1.957,1.2,1.992,1.705.053,1.978-2.764l.035-.8a2.155,2.155,0,0,0-.294-1.259,1.073,1.073,0,0,0-.918-.487,1.512,1.512,0,0,0-1.314.654A4.278,4.278,0,0,0,24.24-4.6ZM36.624-1.037A3.148,3.148,0,0,1,34.058.185a2.492,2.492,0,0,1-2.1-.976A3.6,3.6,0,0,1,31.4-3.357L32.432-9.51h2.892L34.277-3.315a2.064,2.064,0,0,0,0,.466.766.766,0,0,0,.853.748,1.868,1.868,0,0,0,1.556-.722L37.863-9.51h2.909L39.12,0H36.431ZM43.726,0h-2.9l2.338-13.5h2.9Zm2.312-4.772a6.917,6.917,0,0,1,1.371-3.6,3.4,3.4,0,0,1,2.865-1.31,2.592,2.592,0,0,1,2.013,1.02l.923-4.834h2.9L53.771,0H51.2l.123-1.028A2.968,2.968,0,0,1,48.955.185,2.62,2.62,0,0,1,46.806-.831a4.476,4.476,0,0,1-.831-2.676,8.231,8.231,0,0,1,.035-1.081Zm2.883.2a6.9,6.9,0,0,0-.062.984q0,1.459.984,1.485a1.844,1.844,0,0,0,1.521-.817l.65-3.647a1.171,1.171,0,0,0-1.16-.835,1.478,1.478,0,0,0-1.305.7A4.507,4.507,0,0,0,48.92-4.57Z" transform="translate(1182 4613.788)" fill="#12263f"/>
    <path id="Trazado_191831" data-name="Trazado 191831" d="M10.45-4.808,13.122-12.8h3.041L11.522,0H8.411L7.893-7.251,5.133,0H2.021L1.38-12.8H4.307l.176,7.954L7.418-12.8H9.976Zm9.976-4.878a3.994,3.994,0,0,1,2.206.637A3.59,3.59,0,0,1,24-7.321a5.33,5.33,0,0,1,.312,2.461l-.018.193a5.636,5.636,0,0,1-1.626,3.533,4.575,4.575,0,0,1-3.41,1.31,3.977,3.977,0,0,1-2.188-.628A3.612,3.612,0,0,1,15.7-2.162a5.179,5.179,0,0,1-.321-2.443,5.863,5.863,0,0,1,1.6-3.727A4.547,4.547,0,0,1,20.426-9.686ZM18.272-4.6l-.026.518q-.123,1.957,1.2,1.992,1.705.053,1.978-2.764l.035-.8a2.155,2.155,0,0,0-.294-1.259,1.073,1.073,0,0,0-.918-.487,1.512,1.512,0,0,0-1.314.654A4.278,4.278,0,0,0,18.272-4.6ZM30.656-1.037A3.148,3.148,0,0,1,28.09.185a2.492,2.492,0,0,1-2.1-.976,3.6,3.6,0,0,1-.549-2.566L26.464-9.51h2.892L28.31-3.315a2.064,2.064,0,0,0,0,.466.766.766,0,0,0,.853.748,1.868,1.868,0,0,0,1.556-.722L31.9-9.51H34.8L33.152,0H30.463ZM37.758,0h-2.9L37.2-13.5h2.9Zm2.312-4.772a6.917,6.917,0,0,1,1.371-3.6,3.4,3.4,0,0,1,2.865-1.31,2.592,2.592,0,0,1,2.013,1.02l.923-4.834h2.9L47.8,0H45.229l.123-1.028A2.968,2.968,0,0,1,42.987.185,2.62,2.62,0,0,1,40.838-.831a4.476,4.476,0,0,1-.831-2.676,8.231,8.231,0,0,1,.035-1.081Zm2.883.2a6.9,6.9,0,0,0-.062.984q0,1.459.984,1.485A1.844,1.844,0,0,0,45.4-2.918l.65-3.647a1.171,1.171,0,0,0-1.16-.835,1.478,1.478,0,0,0-1.305.7A4.507,4.507,0,0,0,42.952-4.57Z" transform="translate(363 4707.788)" fill="#fff"/>
    <path id="Trazado_191830" data-name="Trazado 191830" d="M10.74-4.359a4.614,4.614,0,0,1-.883,2.391A5,5,0,0,1,7.835-.36,6.259,6.259,0,0,1,5.124.176,4.215,4.215,0,0,1,1.969-1.116,5.193,5.193,0,0,1,.712-4.5a11.02,11.02,0,0,1,.312-3.1A8.2,8.2,0,0,1,2.3-10.525a5.855,5.855,0,0,1,2.083-1.863A5.407,5.407,0,0,1,7-12.981a4.577,4.577,0,0,1,3.309,1.257,4.92,4.92,0,0,1,1.323,3.366l-3-.009a2.465,2.465,0,0,0-.422-1.67,1.852,1.852,0,0,0-1.389-.536q-2.373-.079-2.892,3.691A20.283,20.283,0,0,0,3.7-4.447Q3.656-2.285,5.3-2.224A2.348,2.348,0,0,0,7-2.747,2.615,2.615,0,0,0,7.8-4.324Zm6.24-5.326a3.994,3.994,0,0,1,2.206.637,3.59,3.59,0,0,1,1.367,1.727,5.33,5.33,0,0,1,.312,2.461l-.018.193a5.636,5.636,0,0,1-1.626,3.533,4.575,4.575,0,0,1-3.41,1.31,3.977,3.977,0,0,1-2.188-.628,3.612,3.612,0,0,1-1.367-1.709,5.179,5.179,0,0,1-.321-2.443,5.863,5.863,0,0,1,1.6-3.727A4.547,4.547,0,0,1,16.98-9.686ZM14.827-4.6l-.026.518Q14.678-2.127,16-2.092q1.705.053,1.978-2.764l.035-.8a2.155,2.155,0,0,0-.294-1.259A1.073,1.073,0,0,0,16.8-7.4a1.512,1.512,0,0,0-1.314.654A4.278,4.278,0,0,0,14.827-4.6ZM27.211-1.037A3.148,3.148,0,0,1,24.645.185a2.492,2.492,0,0,1-2.1-.976,3.6,3.6,0,0,1-.549-2.566L23.019-9.51H25.91L24.864-3.315a2.064,2.064,0,0,0,0,.466.766.766,0,0,0,.853.748,1.868,1.868,0,0,0,1.556-.722L28.45-9.51h2.909L29.707,0H27.018ZM34.313,0h-2.9L33.75-13.5h2.9Zm2.312-4.772A6.917,6.917,0,0,1,38-8.376a3.4,3.4,0,0,1,2.865-1.31,2.592,2.592,0,0,1,2.013,1.02L43.8-13.5h2.9L44.358,0H41.783l.123-1.028A2.968,2.968,0,0,1,39.542.185,2.62,2.62,0,0,1,37.393-.831a4.476,4.476,0,0,1-.831-2.676A8.231,8.231,0,0,1,36.6-4.588Zm2.883.2a6.9,6.9,0,0,0-.062.984q0,1.459.984,1.485a1.844,1.844,0,0,0,1.521-.817l.65-3.647A1.171,1.171,0,0,0,41.44-7.4a1.478,1.478,0,0,0-1.305.7A4.507,4.507,0,0,0,39.507-4.57Z" transform="translate(1187 4849.788)" fill="#12263f"/>
  </g>
</svg>
