<svg xmlns="http://www.w3.org/2000/svg" width="187" height="187" viewBox="0 0 187 187">
  <g id="Grupo_131835" data-name="Grupo 131835" transform="translate(-1017 -5940)">
    <g id="Grupo_114924" data-name="Grupo 114924" transform="translate(1026.92 5949.731)">
      <g id="Elipse_157" data-name="Elipse 157" transform="translate(0.08 0.269)" fill="#f3f9ff" stroke="#26defc" stroke-linejoin="round" stroke-width="10">
        <circle cx="83.5" cy="83.5" r="83.5" stroke="none"/>
        <circle cx="83.5" cy="83.5" r="88.5" fill="none"/>
      </g>
    </g>
    <g id="tabla01" transform="translate(959.532 5925.96)">
      <g id="Grupo_113878" data-name="Grupo 113878" transform="translate(126.013 37.299)">
        <path id="Trazado_120587" data-name="Trazado 120587" d="M140.2,86.482v3.642c0,2.787,1.968,3.906,4.394,2.507L174.943,75.11a9.691,9.691,0,0,0,4.394-7.578V63.89L140.2,86.487Z" transform="translate(-140.19 -51.986)" fill="#f6981e"/>
        <path id="Trazado_120588" data-name="Trazado 120588" d="M177.491,42.207l-7.929,4.577c0-5.646-3.987-7.914-8.906-5.076l-1.806,1.043c-4.918,2.838-8.906,9.714-8.906,15.36l-7.929,4.577a4.05,4.05,0,0,0-1.836,3.164v9.135l39.137-22.6V43.255c0-1.165-.824-1.633-1.836-1.048ZM159.756,53.467c-1.414.814-2.558.163-2.558-1.46a5.624,5.624,0,0,1,2.558-4.41c1.414-.814,2.558-.163,2.558,1.46A5.624,5.624,0,0,1,159.756,53.467Z" transform="translate(-140.18 -40.485)" fill="#bac6fb"/>
        <path id="Trazado_120589" data-name="Trazado 120589" d="M215.174,43.56l1.572.905-1.511,2.467L214.33,44.7Z" transform="translate(-176.617 -41.996)" fill="#bac6fb"/>
        <path id="Trazado_120590" data-name="Trazado 120590" d="M142.76,119.207l1.572.905.865-.565-.9-2.238Z" transform="translate(-141.448 -78.236)" fill="#f6981e"/>
      </g>
      <g id="Grupo_113879" data-name="Grupo 113879" transform="translate(127.549 38.184)">
        <path id="Trazado_120591" data-name="Trazado 120591" d="M143.22,88.222v3.642c0,2.787,1.968,3.906,4.394,2.507L177.963,76.85a9.691,9.691,0,0,0,4.394-7.578V65.63l-39.137,22.6Z" transform="translate(-143.21 -53.726)" fill="#f6be40"/>
        <path id="Trazado_120592" data-name="Trazado 120592" d="M180.511,43.947l-7.929,4.577c0-5.646-3.987-7.914-8.906-5.076l-1.806,1.043c-4.918,2.838-8.906,9.714-8.906,15.36l-7.929,4.577a4.05,4.05,0,0,0-1.836,3.164v9.135l39.137-22.6V44.995c0-1.165-.824-1.633-1.836-1.048ZM162.776,55.207c-1.414.814-2.558.163-2.558-1.46a5.624,5.624,0,0,1,2.558-4.41c1.414-.814,2.558-.163,2.558,1.46A5.624,5.624,0,0,1,162.776,55.207Z" transform="translate(-143.2 -42.225)" fill="#94a4e6"/>
      </g>
      <path id="Trazado_120593" data-name="Trazado 120593" d="M114.422,184.08,111.35,182.3V77.974L187.514,34l3.072,1.77Z" fill="#2e3c78"/>
      <path id="Trazado_120594" data-name="Trazado 120594" d="M193.554,141.816,117.39,185.79V81.454L193.554,37.48Z" transform="translate(-2.968 -1.71)" fill="#084a93"/>
      <g id="Grupo_113884" data-name="Grupo 113884" transform="translate(119.091 47.254)">
        <path id="Trazado_120595" data-name="Trazado 120595" d="M193.391,149.407,126.57,187.985V98.638L193.391,60.06Z" transform="translate(-126.57 -60.06)" fill="#f4f6ff"/>
        <path id="Trazado_120596" data-name="Trazado 120596" d="M161.664,171.046,144.9,180.724V161.489l16.764-9.679v19.236Zm-14.272,5.376,11.779-6.8V156.108l-11.779,6.8Z" transform="translate(-135.577 -105.145)" fill="#c5dceb"/>
        <path id="Trazado_120597" data-name="Trazado 120597" d="M161.664,238.521,144.9,248.2V228.959l16.764-9.679v19.241ZM147.392,243.9l11.779-6.8V223.583l-11.779,6.8Z" transform="translate(-135.577 -138.299)" fill="#c5dceb"/>
        <g id="Grupo_113880" data-name="Grupo 113880" transform="translate(33.507 24.54)">
          <path id="Trazado_120598" data-name="Trazado 120598" d="M194.286,158.627l-1.836-1.058,3.886-8.509,1.836,1.063Z" transform="translate(-192.45 -128.334)" fill="#ff600b"/>
          <path id="Trazado_120599" data-name="Trazado 120599" d="M208.5,151.695l-1.836-1.063-6.571-1.572,1.836,1.063Z" transform="translate(-196.204 -128.334)" fill="#ff600b"/>
          <path id="Trazado_120600" data-name="Trazado 120600" d="M221.614,108.31,205.13,137.763l4.862,2.487,18.32-28.4-1.836-1.058Z" transform="translate(-198.681 -108.31)" fill="#ff600b"/>
        </g>
        <g id="Grupo_113881" data-name="Grupo 113881" transform="translate(36.732 62.325)">
          <path id="Trazado_120601" data-name="Trazado 120601" d="M215.274,182.6,198.79,212.059l4.862,2.482,16.479-29.453Z" transform="translate(-198.79 -182.6)" fill="#12263f"/>
          <path id="Trazado_120602" data-name="Trazado 120602" d="M203.652,195.8l16.479,10.421-4.857,8.1L198.79,203.9Z" transform="translate(-198.79 -189.086)" fill="#12263f"/>
        </g>
        <g id="Grupo_113882" data-name="Grupo 113882" transform="translate(35.343 25.603)">
          <path id="Trazado_120603" data-name="Trazado 120603" d="M207.371,162.36l-11.311-2.706,3.886-8.5,11.311,2.706Z" transform="translate(-196.06 -130.424)" fill="#ffb30b"/>
          <path id="Trazado_120604" data-name="Trazado 120604" d="M225.224,110.4,208.74,139.853l4.862,2.482,16.484-29.453Z" transform="translate(-202.291 -110.4)" fill="#ffb30b"/>
        </g>
        <g id="Grupo_113883" data-name="Grupo 113883" transform="translate(38.568 63.388)">
          <path id="Trazado_120605" data-name="Trazado 120605" d="M218.884,184.69,202.4,214.143l4.862,2.487,16.484-29.459Z" transform="translate(-202.4 -184.69)" fill="#084a93"/>
          <path id="Trazado_120606" data-name="Trazado 120606" d="M207.262,197.88,223.746,208.3l-4.862,8.1L202.4,205.977Z" transform="translate(-202.4 -191.171)" fill="#084a93"/>
        </g>
      </g>
      <g id="Grupo_113885" data-name="Grupo 113885" transform="translate(131.389 40.401)">
        <path id="Trazado_120607" data-name="Trazado 120607" d="M150.77,92.582v3.642c0,2.787,1.968,3.906,4.394,2.507L185.513,81.21a9.691,9.691,0,0,0,4.394-7.578V69.99l-39.137,22.6Z" transform="translate(-150.76 -58.086)" fill="#bac6fb"/>
        <path id="Trazado_120608" data-name="Trazado 120608" d="M153.29,125.007l1.577.91,1.068-.865-.905-2.233Z" transform="translate(-151.998 -84.047)" fill="#f6981e"/>
        <path id="Trazado_120609" data-name="Trazado 120609" d="M188.061,48.307l-7.929,4.577c0-5.646-3.987-7.914-8.906-5.076l-1.806,1.043c-4.918,2.838-8.906,9.714-8.906,15.36l-7.929,4.577a4.05,4.05,0,0,0-1.836,3.164v9.135l39.137-22.6V49.355c0-1.165-.824-1.633-1.836-1.048ZM170.326,59.567c-1.414.814-2.558.163-2.558-1.46a5.624,5.624,0,0,1,2.558-4.41c1.414-.814,2.558-.163,2.558,1.46A5.624,5.624,0,0,1,170.326,59.567Z" transform="translate(-150.75 -46.585)" fill="#bac6fb"/>
        <path id="Trazado_120610" data-name="Trazado 120610" d="M225.776,49.73l1.49.86L225.735,53l-.905-2.233Z" transform="translate(-187.152 -48.131)" fill="#bac6fb"/>
      </g>
      <g id="Grupo_113886" data-name="Grupo 113886" transform="translate(132.925 41.286)">
        <path id="Trazado_120611" data-name="Trazado 120611" d="M153.79,94.332v3.642c0,2.787,1.968,3.906,4.394,2.507L188.533,82.96a9.691,9.691,0,0,0,4.394-7.578V71.74l-39.137,22.6Z" transform="translate(-153.78 -59.831)" fill="#bac6fb"/>
        <path id="Trazado_120612" data-name="Trazado 120612" d="M191.081,50.047l-7.929,4.577c0-5.646-3.987-7.914-8.906-5.076l-1.806,1.043c-4.918,2.838-8.906,9.714-8.906,15.36l-7.929,4.577a4.05,4.05,0,0,0-1.836,3.164v9.135l39.137-22.6V51.095c0-1.165-.824-1.633-1.836-1.048ZM173.346,61.307c-1.414.814-2.558.163-2.558-1.46a5.624,5.624,0,0,1,2.558-4.41c1.414-.814,2.558-.163,2.558,1.46A5.624,5.624,0,0,1,173.346,61.307Z" transform="translate(-153.77 -48.325)" fill="#d2daff"/>
      </g>
    </g>
  </g>
</svg>
