<svg xmlns="http://www.w3.org/2000/svg" width="248.436" height="277.258" viewBox="0 0 248.436 277.258">
  <g id="Grupo_131834" data-name="Grupo 131834" transform="translate(-11708 -1541)">
    <g id="_3b" data-name="3b" transform="translate(11640.37 1532.46)">
      <g id="Grupo_114050" data-name="Grupo 114050" transform="translate(88.14 81.736)">
        <path id="Trazado_121257" data-name="Trazado 121257" d="M118.428,290.359c4.917,1.729,12.39,7.771,18,8.635s12.978,2.607,18.6,2.607,47.128,16.864,54.478,14.271,9.369-1.729,13.116-6.921,3.174-18.3,3.174-18.3-35.74-19.282-40.5-19.3-9.086,0-9.086,0-21.178-4.336-32.421-3.043-41.506,1.729-44.535,5.621-4.706,13.327-2.113,17.22,16.363-2.513,21.28-.784Z" transform="translate(-95.87 -152.777)" fill="#12263f"/>
        <g id="Grupo_114047" data-name="Grupo 114047" transform="translate(57.308 38.78)">
          <path id="Trazado_121258" data-name="Trazado 121258" d="M175.338,201.32s3.246.646,10.161-1.946,15.782-7.844,17.728-9.87,10.6-20.183,5.4-22.347-5.04-2.251-8.933,0-8.577,9.078-8.577,9.078-6.464,3.486-9.943,7.2c-9.078,9.688-5.839,17.874-5.839,17.874Z" transform="translate(-174.777 -163.481)" fill="#ffa15c"/>
          <path id="Trazado_121259" data-name="Trazado 121259" d="M210.958,162.727s-9.078.77-11.243,5.186a39.843,39.843,0,0,1-5.585,8.156,10.549,10.549,0,0,0-3.711,12.673c3.145,8.178,6.95,8.178,6.95,8.178s6.885-2.2,11.424-6.311,14.918-26.589,2.164-27.889Z" transform="translate(-178.832 -162.72)" fill="#00defc"/>
        </g>
        <path id="Trazado_121260" data-name="Trazado 121260" d="M214.324,164.607s-8.933,2.31-10.378,21.04-4.9,18.157-3.174,27.1,8.323,24.5,5.462,27.671-1.169,6.34,0,10.088,11.177,15.273,17.416,16.719,20.074,2.593,23.538,0,5.767-3.174,7.2-4.9-.291-12.681,0-16.719,8.359-27.1,10.088-31.709,6.05-21.331,0-25.652-42.952-21.331-42.952-21.331l-7.2-2.31Z" transform="translate(-124.455 -124.454)" fill="#b9ddfc"/>
        <g id="Grupo_114048" data-name="Grupo 114048" transform="translate(81.776 13.147)">
          <path id="Trazado_121261" data-name="Trazado 121261" d="M221.387,178.6s4.038,4.321,3.312,6.486.29,6.776,2.593,7.786,9.224,2.31,12.107-3.174,6.486-10.524,8.069-10.524,1.583-.574,1.583-.574-1.583-1.155-3.893-2.593-4.757-8.214-4.757-8.214L221.38,178.6Z" transform="translate(-212.001 -138.474)" fill="#ffa15c"/>
          <path id="Trazado_121262" data-name="Trazado 121262" d="M212.231,136.42s-4.321,8.65-3.457,10.161,1.227,1.155.646,2.811a10.906,10.906,0,0,0-.763,6.268c.545,2.665,1.322,6.486,1.692,7.924s-.225,4.321,0,4.9,2.535,2.665,4.408,2.52,12.252-2.738,14.126-3.965,5.621-7.2,5.621-7.2-.218,1.227,2.375-.291,5.258-2.949,5.476-5.832-1.133-3.668-1.133-3.668,5.89-14.714-2.186-19.181-19.239-6.34-26.807,5.549Z" transform="translate(-208.467 -127.426)" fill="#ffc69c"/>
        </g>
        <path id="Trazado_121263" data-name="Trazado 121263" d="M270.407,209.652s3.929,29.472,6,34.774,8.41,16.828,13.022,13.654,7.5-7.786,5.476-16.145-3.748-13.545-3.748-14.409.211-27.039-6.093-28.506-11.2.261-14.663,10.64Z" transform="translate(-143.644 -133.752)" fill="#ffa15c"/>
        <path id="Trazado_121264" data-name="Trazado 121264" d="M288.435,260.632a19.041,19.041,0,0,1,6.573-5.236c4.016-1.83,6.05-1.3,8.933-2.31s10.524-5.186,12.4-5.331,7.2.864,6.2,3.029-7.924,8.8-13.69,13.545-14.591,9.136-16.515,8.171-7.938-3.413-3.886-11.875Z" transform="translate(-148.206 -147.212)" fill="#ffc69c"/>
        <path id="Trazado_121265" data-name="Trazado 121265" d="M322.275,248.473a8.514,8.514,0,0,0-.145,7.059c1.7,3.581,5.767,5.331,7.64,5.912a86.047,86.047,0,0,0,11.243,2.164c8.5.189,5.7-1.511,5.948-1.656s-3.646-.654-4.51-1.227,6.34-1.3,6.34-1.3,1.3-1.3,0-2.019a15.594,15.594,0,0,0-2.883-1.162l4.14-1.031s1.4-1.837,0-2.273-4.568.436-4.568.436-4.851-.922-5.425-1.213,3.123-.806,5.57-1.816a68.275,68.275,0,0,0,6.166-3.152s-.69-1.765-3.138-.886a30.906,30.906,0,0,0-4.379,2l-7.909-.988-3-1.743s.145-.566,2.164-1.14,6.478-1.017,7.2-1.438c2.281-1.336.719-2.767.719-3.116s-5.106,1.242-7.1.661-7.749.436-9.485,2.164a61.889,61.889,0,0,0-4.612,5.767Z" transform="translate(-157.608 -145.047)" fill="#ffc69c"/>
        <path id="Trazado_121266" data-name="Trazado 121266" d="M271.469,197.615a22.748,22.748,0,0,0-4.539,15.056c.436,9.3,4.539,18.81,4.539,18.81a7.928,7.928,0,0,0,10.56,3.675c7.386-3.029,9.333-8.65,9.333-8.65s0-15.782-1.3-22.7c-1.148-6.115-8.062-12.274-18.593-6.2Z" transform="translate(-142.686 -132.805)" fill="#00defc"/>
        <path id="Trazado_121267" data-name="Trazado 121267" d="M132.989,140.325a16.216,16.216,0,0,0,2.375,5.4c1.729,2.375,14.271,24.156,15.564,28.4s7.517,13.465,10.378,11.809,9.732-10.763,7.786-14.315-.261-4.278-8.345-11.628-18.9-24.86-18.9-24.86,1.155-3.246,1.729-5.048-.363-5.839-.363-6.05.5-4.83.5-4.83-.574-4.249-1.082-4.9-2.448-.363-2.811,1.01a7.542,7.542,0,0,0,0,3.029l-1.373,6.34-4.394-2.215-3.312-5.425s-1.656-4.038-1.729-4.249-.29-2.738-1.3-3.246a1.908,1.908,0,0,0-1.8,0,6.209,6.209,0,0,1,.5,2.883,22.735,22.735,0,0,0,.574,4.975l2.811,5.4s-4.539,4.321-5.113,5.186a13.478,13.478,0,0,0-1.155,5.113c.145.792,8.911,7.51,9.442,7.2Z" transform="translate(-103.437 -109.323)" fill="#ffc69c"/>
        <path id="Trazado_121268" data-name="Trazado 121268" d="M122.125,136.967l-2.448,1.438-5.476-2.448s-2.811-4.111-3.457-4.467-1.946-1.227-1.082-2.237,3.029-.864,4.183.937a7.241,7.241,0,0,0,2.4,2.52c.2.109,5.883,1.511,5.883,1.511v2.738Z" transform="translate(-99.566 -114.608)" fill="#ffc69c"/>
        <path id="Trazado_121269" data-name="Trazado 121269" d="M127.231,128.352l-4.612,1.3-5.04-4.467a42.421,42.421,0,0,0-2.375-4.757c-.436-.363-.864-2.738-.864-4.183s.073-2.375,1.01-1.8a4.285,4.285,0,0,1,1.438,1.8s-1.01-3.174-.363-3.246,1.489-.995,2.222.835a38.252,38.252,0,0,0,2.142,4.212l2.7,3.13,4.757,3.087-1.01,4.082Z" transform="translate(-100.925 -110.248)" fill="#ffc69c"/>
        <path id="Trazado_121270" data-name="Trazado 121270" d="M151.974,325.817s10.378-1.845,13.116-2.963,5.621-1.118,6.631,1.482a28.225,28.225,0,0,0,2.3,4.6l-4.757,7.081-1.416,1.438s-17.031-1.082-20.924.683-10.371,7.379-8.359-1.4c1.075-4.692,3.384-8.861,13.407-10.916Z" transform="translate(-107.454 -167.579)" fill="#fff"/>
        <path id="Trazado_121271" data-name="Trazado 121271" d="M153.887,328.587s10.378-1.845,13.116-2.963,5.621-1.118,6.631,1.482a28.269,28.269,0,0,0,2.31,4.6l-4.757,7.081-1.416,1.438s-17.031-1.082-20.924.683-10.371,2.97-8.359-1.4,3.384-8.861,13.407-10.916Z" transform="translate(-107.979 -168.337)" fill="#2a3463"/>
        <path id="Trazado_121272" data-name="Trazado 121272" d="M223.442,327.594c1.394,6.217,1.126,21.345,2.767,26.1s7.7,13.835,17.648,8.214,12.826-17.728,13.545-24.642,0-19.457,0-19.457-8.8-10.378-21.766-7.35-13.6,10.923-12.2,17.133Z" transform="translate(-130.646 -164.229)" fill="#12263f"/>
        <path id="Trazado_121273" data-name="Trazado 121273" d="M190.036,333.085s-.908-4.162-7.59-2.869-7.677,6.486-7.677,6.486,25.906,22.522,33.859,25.514,7.64,8.744,14.845,6.965,12.39-12.013,7.2-20.081-40.642-16.014-40.642-16.014Z" transform="translate(-117.467 -169.72)" fill="#12263f"/>
        <g id="Grupo_114049" data-name="Grupo 114049" transform="translate(52.851 163.91)">
          <path id="Trazado_121274" data-name="Trazado 121274" d="M171.61,348.2s8.352,6.82,8.94,10.378c1.627,9.9-1.845,14.983,1.039,16.574s8.163-1.148,9.318-3.6,2.76-3.174,3.7-9.441-3.7-10.734-1.975-15.637,1.837-3.6-.015-5.912-9.442-3.878-9.442-3.878L171.617,348.2Z" transform="translate(-169.453 -335.467)" fill="#fff"/>
          <path id="Trazado_121275" data-name="Trazado 121275" d="M168.64,346.449s7.64,7.016,8.94,10.378c4.445,11.526-.886,15.419,2,17s7.2-1.583,8.359-4.038,2.76-3.174,3.7-9.442-3.7-10.734-1.975-15.637,1.837-3.6-.015-5.912-14.968-3.791-14.968-3.791l-6.035,11.431Z" transform="translate(-168.64 -335.01)" fill="#727997"/>
        </g>
        <path id="Trazado_121276" data-name="Trazado 121276" d="M105.869,280.891s8.679-1.779,21.694,10.124a365.184,365.184,0,0,0,28.971,23.35s4.517,11.243-3.159,18.157a16.439,16.439,0,0,1-4.459,2.883s-49.982-33.038-51.565-41.013c-3.944-19.8,8.526-13.5,8.526-13.5Z" transform="translate(-96.064 -156.026)" fill="#12263f"/>
      </g>
      <path id="Trazado_121277" data-name="Trazado 121277" d="M222.583,125.97s-12.223,4.372-12.913,8.737,11.5,6.551,17.017,9.659a15.019,15.019,0,0,1,6.9,8.621s3.682-4.212,4.946-4.35a6.545,6.545,0,0,1,3.021.828s6.522-16.486-2.331-20.394-13.334-4.445-16.632-3.1Z" transform="translate(-38.873 -31.962)" fill="#084a93"/>
      <path id="Trazado_121278" data-name="Trazado 121278" d="M208.978,169.87s.632,3.087.893,4.212.065,4.561,2.019,5.708,6.631,1.147,10.153,0,3.849,0,6.624-2.876,5.621-5.462,5.621-5.462-.668,5.345-3.544,6.958-10,6.9-15.637,6.9-6.9-4.772-7.357-5.636S208.978,169.87,208.978,169.87Z" transform="translate(-38.333 -44.161)" fill="#12263f"/>
      <g id="Grupo_114053" data-name="Grupo 114053" transform="translate(227.33 56.191)">
        <g id="Grupo_114051" data-name="Grupo 114051">
          <path id="Trazado_121279" data-name="Trazado 121279" d="M318.692,133.816l-31.172-18V80.05l31.172,18Z" transform="translate(-287.52 -75.765)" fill="#f6b735"/>
          <path id="Trazado_121280" data-name="Trazado 121280" d="M338.088,134.612l-7.7,4.35V103.193l7.7-4.343Z" transform="translate(-299.255 -80.911)" fill="#f7991d"/>
          <path id="Trazado_121281" data-name="Trazado 121281" d="M318.782,96.374,287.61,78.384l7.5-4.234,31.172,17.99Z" transform="translate(-287.545 -74.15)" fill="#fad445"/>
        </g>
        <g id="Grupo_114052" data-name="Grupo 114052" transform="translate(8.911 20.866)">
          <path id="Trazado_121282" data-name="Trazado 121282" d="M299.8,115.089v-3.363l2.128,1.235V102.88l3.653,2.113v11.766c0,.98-.6,1.322-1.46.828l-4.329-2.5Z" transform="translate(-299.79 -102.88)" fill="#084a93"/>
          <path id="Trazado_121283" data-name="Trazado 121283" d="M309.147,111.312v-2.818c0-.98.6-1.322,1.474-.821l6.369,3.682V113l-.574,1.4-3.6-2.077v.61L316,117.217a4.118,4.118,0,0,1,.988,2.854v3.05c0,.98-.6,1.322-1.46.828l-6.384-3.682V116.9l4.176,2.411v-.886l-3.188-4.256a4.152,4.152,0,0,1-.988-2.854Z" transform="translate(-302.349 -104.129)" fill="#084a93"/>
        </g>
      </g>
      <g id="Grupo_114056" data-name="Grupo 114056" transform="translate(118.396 16.166)">
        <g id="Grupo_114054" data-name="Grupo 114054" transform="translate(0 0)">
          <path id="Trazado_121284" data-name="Trazado 121284" d="M168.694,78.706l-31.164-18V24.94l31.164,18Z" transform="translate(-137.53 -20.655)" fill="#f6b735"/>
          <path id="Trazado_121285" data-name="Trazado 121285" d="M188.091,79.5l-7.691,4.35V48.083l7.691-4.343Z" transform="translate(-149.265 -25.801)" fill="#f7991d"/>
          <path id="Trazado_121286" data-name="Trazado 121286" d="M168.782,41.271l-31.172-18,7.5-4.234,31.172,17.99Z" transform="translate(-137.552 -19.04)" fill="#fad445"/>
        </g>
        <g id="Grupo_114055" data-name="Grupo 114055" transform="translate(5.244 18.741)">
          <path id="Trazado_121287" data-name="Trazado 121287" d="M152.586,48.749v1.67l-.566,1.38-3.6-2.077v6.7l4.176,2.411v3.363l-6.369-3.675a3.066,3.066,0,0,1-1.474-2.527v-10.1c0-.98.6-1.322,1.474-.821l6.369,3.682Z" transform="translate(-144.75 -44.844)" fill="#084a93"/>
          <path id="Trazado_121288" data-name="Trazado 121288" d="M158.771,63.371l-2.331-1.344V59.318l2.331,1.344V58l-2.331-1.344V53.944l2.331,1.344V52.6l2.382,1.373V56.66L163.463,58V55.309l2.382,1.373v2.687l2.331,1.344v2.709l-2.331-1.344v2.673l2.331,1.344V68.8l-2.331-1.344v2.673l-2.382-1.38V66.08l-2.31-1.336v2.673l-2.382-1.38V63.363Zm2.382-1.329,2.31,1.336V60.712l-2.31-1.336v2.673Z" transform="translate(-147.95 -46.967)" fill="#084a93"/>
        </g>
      </g>
      <g id="Grupo_114079" data-name="Grupo 114079" transform="translate(67.63 102.41)">
        <g id="Grupo_114057" data-name="Grupo 114057">
          <path id="Trazado_121289" data-name="Trazado 121289" d="M98.794,197.459,67.63,179.469V143.7l31.164,18Z" transform="translate(-67.63 -139.408)" fill="#f6b735"/>
          <path id="Trazado_121290" data-name="Trazado 121290" d="M118.188,198.259l-7.7,4.343V166.84l7.7-4.35Z" transform="translate(-79.362 -144.551)" fill="#f7991d"/>
          <path id="Trazado_121291" data-name="Trazado 121291" d="M98.882,160.021l-31.172-18,7.5-4.234,31.164,18Z" transform="translate(-67.652 -137.79)" fill="#fad445"/>
        </g>
        <g id="Grupo_114058" data-name="Grupo 114058">
          <path id="Trazado_121292" data-name="Trazado 121292" d="M98.794,197.459,67.63,179.469V143.7l31.164,18Z" transform="translate(-67.63 -139.408)" fill="#f6b735"/>
          <path id="Trazado_121293" data-name="Trazado 121293" d="M118.188,198.259l-7.7,4.343V166.84l7.7-4.35Z" transform="translate(-79.362 -144.551)" fill="#f7991d"/>
          <path id="Trazado_121294" data-name="Trazado 121294" d="M98.882,160.021l-31.172-18,7.5-4.234,31.164,18Z" transform="translate(-67.652 -137.79)" fill="#fad445"/>
        </g>
        <g id="Grupo_114059" data-name="Grupo 114059">
          <path id="Trazado_121295" data-name="Trazado 121295" d="M98.794,197.459,67.63,179.469V143.7l31.164,18Z" transform="translate(-67.63 -139.408)" fill="#f6b735"/>
          <path id="Trazado_121296" data-name="Trazado 121296" d="M118.188,198.259l-7.7,4.343V166.84l7.7-4.35Z" transform="translate(-79.362 -144.551)" fill="#f7991d"/>
          <path id="Trazado_121297" data-name="Trazado 121297" d="M98.882,160.021l-31.172-18,7.5-4.234,31.164,18Z" transform="translate(-67.652 -137.79)" fill="#fad445"/>
        </g>
        <g id="Grupo_114060" data-name="Grupo 114060">
          <path id="Trazado_121298" data-name="Trazado 121298" d="M98.794,197.459,67.63,179.469V143.7l31.164,18Z" transform="translate(-67.63 -139.408)" fill="#f6b735"/>
          <path id="Trazado_121299" data-name="Trazado 121299" d="M118.188,198.259l-7.7,4.343V166.84l7.7-4.35Z" transform="translate(-79.362 -144.551)" fill="#f7991d"/>
          <path id="Trazado_121300" data-name="Trazado 121300" d="M98.882,160.021l-31.172-18,7.5-4.234,31.164,18Z" transform="translate(-67.652 -137.79)" fill="#fad445"/>
        </g>
        <g id="Grupo_114061" data-name="Grupo 114061">
          <path id="Trazado_121301" data-name="Trazado 121301" d="M98.794,197.459,67.63,179.469V143.7l31.164,18Z" transform="translate(-67.63 -139.408)" fill="#f6b735"/>
          <path id="Trazado_121302" data-name="Trazado 121302" d="M118.188,198.259l-7.7,4.343V166.84l7.7-4.35Z" transform="translate(-79.362 -144.551)" fill="#f7991d"/>
          <path id="Trazado_121303" data-name="Trazado 121303" d="M98.882,160.021l-31.172-18,7.5-4.234,31.164,18Z" transform="translate(-67.652 -137.79)" fill="#fad445"/>
        </g>
        <g id="Grupo_114062" data-name="Grupo 114062">
          <path id="Trazado_121304" data-name="Trazado 121304" d="M98.794,197.459,67.63,179.469V143.7l31.164,18Z" transform="translate(-67.63 -139.408)" fill="#f6b735"/>
          <path id="Trazado_121305" data-name="Trazado 121305" d="M118.188,198.259l-7.7,4.343V166.84l7.7-4.35Z" transform="translate(-79.362 -144.551)" fill="#f7991d"/>
          <path id="Trazado_121306" data-name="Trazado 121306" d="M98.882,160.021l-31.172-18,7.5-4.234,31.164,18Z" transform="translate(-67.652 -137.79)" fill="#fad445"/>
        </g>
        <g id="Grupo_114063" data-name="Grupo 114063">
          <path id="Trazado_121307" data-name="Trazado 121307" d="M98.794,197.459,67.63,179.469V143.7l31.164,18Z" transform="translate(-67.63 -139.408)" fill="#f6b735"/>
          <path id="Trazado_121308" data-name="Trazado 121308" d="M118.188,198.259l-7.7,4.343V166.84l7.7-4.35Z" transform="translate(-79.362 -144.551)" fill="#f7991d"/>
          <path id="Trazado_121309" data-name="Trazado 121309" d="M98.882,160.021l-31.172-18,7.5-4.234,31.164,18Z" transform="translate(-67.652 -137.79)" fill="#fad445"/>
        </g>
        <g id="Grupo_114064" data-name="Grupo 114064">
          <path id="Trazado_121310" data-name="Trazado 121310" d="M98.794,197.459,67.63,179.469V143.7l31.164,18Z" transform="translate(-67.63 -139.408)" fill="#f6b735"/>
          <path id="Trazado_121311" data-name="Trazado 121311" d="M118.188,198.259l-7.7,4.343V166.84l7.7-4.35Z" transform="translate(-79.362 -144.551)" fill="#f7991d"/>
          <path id="Trazado_121312" data-name="Trazado 121312" d="M98.882,160.021l-31.172-18,7.5-4.234,31.164,18Z" transform="translate(-67.652 -137.79)" fill="#fad445"/>
        </g>
        <g id="Grupo_114065" data-name="Grupo 114065">
          <path id="Trazado_121313" data-name="Trazado 121313" d="M98.794,197.459,67.63,179.469V143.7l31.164,18Z" transform="translate(-67.63 -139.408)" fill="#f6b735"/>
          <path id="Trazado_121314" data-name="Trazado 121314" d="M118.188,198.259l-7.7,4.343V166.84l7.7-4.35Z" transform="translate(-79.362 -144.551)" fill="#f7991d"/>
          <path id="Trazado_121315" data-name="Trazado 121315" d="M98.882,160.021l-31.172-18,7.5-4.234,31.164,18Z" transform="translate(-67.652 -137.79)" fill="#fad445"/>
        </g>
        <g id="Grupo_114066" data-name="Grupo 114066">
          <path id="Trazado_121316" data-name="Trazado 121316" d="M98.794,197.459,67.63,179.469V143.7l31.164,18Z" transform="translate(-67.63 -139.408)" fill="#f6b735"/>
          <path id="Trazado_121317" data-name="Trazado 121317" d="M118.188,198.259l-7.7,4.343V166.84l7.7-4.35Z" transform="translate(-79.362 -144.551)" fill="#f7991d"/>
          <path id="Trazado_121318" data-name="Trazado 121318" d="M98.882,160.021l-31.172-18,7.5-4.234,31.164,18Z" transform="translate(-67.652 -137.79)" fill="#fad445"/>
        </g>
        <g id="Grupo_114067" data-name="Grupo 114067">
          <path id="Trazado_121319" data-name="Trazado 121319" d="M98.794,197.459,67.63,179.469V143.7l31.164,18Z" transform="translate(-67.63 -139.408)" fill="#f6b735"/>
          <path id="Trazado_121320" data-name="Trazado 121320" d="M118.188,198.259l-7.7,4.343V166.84l7.7-4.35Z" transform="translate(-79.362 -144.551)" fill="#f7991d"/>
          <path id="Trazado_121321" data-name="Trazado 121321" d="M98.882,160.021l-31.172-18,7.5-4.234,31.164,18Z" transform="translate(-67.652 -137.79)" fill="#fad445"/>
        </g>
        <g id="Grupo_114068" data-name="Grupo 114068">
          <path id="Trazado_121322" data-name="Trazado 121322" d="M98.794,197.459,67.63,179.469V143.7l31.164,18Z" transform="translate(-67.63 -139.408)" fill="#f6b735"/>
          <path id="Trazado_121323" data-name="Trazado 121323" d="M118.188,198.259l-7.7,4.343V166.84l7.7-4.35Z" transform="translate(-79.362 -144.551)" fill="#f7991d"/>
          <path id="Trazado_121324" data-name="Trazado 121324" d="M98.882,160.021l-31.172-18,7.5-4.234,31.164,18Z" transform="translate(-67.652 -137.79)" fill="#fad445"/>
        </g>
        <g id="Grupo_114069" data-name="Grupo 114069">
          <path id="Trazado_121325" data-name="Trazado 121325" d="M98.794,197.459,67.63,179.469V143.7l31.164,18Z" transform="translate(-67.63 -139.408)" fill="#f6b735"/>
          <path id="Trazado_121326" data-name="Trazado 121326" d="M118.188,198.259l-7.7,4.343V166.84l7.7-4.35Z" transform="translate(-79.362 -144.551)" fill="#f7991d"/>
          <path id="Trazado_121327" data-name="Trazado 121327" d="M98.882,160.021l-31.172-18,7.5-4.234,31.164,18Z" transform="translate(-67.652 -137.79)" fill="#fad445"/>
        </g>
        <g id="Grupo_114070" data-name="Grupo 114070">
          <path id="Trazado_121328" data-name="Trazado 121328" d="M98.794,197.459,67.63,179.469V143.7l31.164,18Z" transform="translate(-67.63 -139.408)" fill="#f6b735"/>
          <path id="Trazado_121329" data-name="Trazado 121329" d="M118.188,198.259l-7.7,4.343V166.84l7.7-4.35Z" transform="translate(-79.362 -144.551)" fill="#f7991d"/>
          <path id="Trazado_121330" data-name="Trazado 121330" d="M98.882,160.021l-31.172-18,7.5-4.234,31.164,18Z" transform="translate(-67.652 -137.79)" fill="#fad445"/>
        </g>
        <g id="Grupo_114071" data-name="Grupo 114071">
          <path id="Trazado_121331" data-name="Trazado 121331" d="M98.794,197.459,67.63,179.469V143.7l31.164,18Z" transform="translate(-67.63 -139.408)" fill="#f6b735"/>
          <path id="Trazado_121332" data-name="Trazado 121332" d="M118.188,198.259l-7.7,4.343V166.84l7.7-4.35Z" transform="translate(-79.362 -144.551)" fill="#f7991d"/>
          <path id="Trazado_121333" data-name="Trazado 121333" d="M98.882,160.021l-31.172-18,7.5-4.234,31.164,18Z" transform="translate(-67.652 -137.79)" fill="#fad445"/>
        </g>
        <g id="Grupo_114072" data-name="Grupo 114072">
          <path id="Trazado_121334" data-name="Trazado 121334" d="M98.794,197.459,67.63,179.469V143.7l31.164,18Z" transform="translate(-67.63 -139.408)" fill="#f6b735"/>
          <path id="Trazado_121335" data-name="Trazado 121335" d="M118.188,198.259l-7.7,4.343V166.84l7.7-4.35Z" transform="translate(-79.362 -144.551)" fill="#f7991d"/>
          <path id="Trazado_121336" data-name="Trazado 121336" d="M98.882,160.021l-31.172-18,7.5-4.234,31.164,18Z" transform="translate(-67.652 -137.79)" fill="#fad445"/>
        </g>
        <g id="Grupo_114073" data-name="Grupo 114073">
          <path id="Trazado_121337" data-name="Trazado 121337" d="M98.794,197.459,67.63,179.469V143.7l31.164,18Z" transform="translate(-67.63 -139.408)" fill="#f6b735"/>
          <path id="Trazado_121338" data-name="Trazado 121338" d="M118.188,198.259l-7.7,4.343V166.84l7.7-4.35Z" transform="translate(-79.362 -144.551)" fill="#f7991d"/>
          <path id="Trazado_121339" data-name="Trazado 121339" d="M98.882,160.021l-31.172-18,7.5-4.234,31.164,18Z" transform="translate(-67.652 -137.79)" fill="#fad445"/>
        </g>
        <g id="Grupo_114074" data-name="Grupo 114074">
          <path id="Trazado_121340" data-name="Trazado 121340" d="M98.794,197.459,67.63,179.469V143.7l31.164,18Z" transform="translate(-67.63 -139.408)" fill="#f6b735"/>
          <path id="Trazado_121341" data-name="Trazado 121341" d="M118.188,198.259l-7.7,4.343V166.84l7.7-4.35Z" transform="translate(-79.362 -144.551)" fill="#f7991d"/>
          <path id="Trazado_121342" data-name="Trazado 121342" d="M98.882,160.021l-31.172-18,7.5-4.234,31.164,18Z" transform="translate(-67.652 -137.79)" fill="#fad445"/>
        </g>
        <g id="Grupo_114075" data-name="Grupo 114075">
          <path id="Trazado_121343" data-name="Trazado 121343" d="M98.794,197.459,67.63,179.469V143.7l31.164,18Z" transform="translate(-67.63 -139.408)" fill="#f6b735"/>
          <path id="Trazado_121344" data-name="Trazado 121344" d="M118.188,198.259l-7.7,4.343V166.84l7.7-4.35Z" transform="translate(-79.362 -144.551)" fill="#f7991d"/>
          <path id="Trazado_121345" data-name="Trazado 121345" d="M98.882,160.021l-31.172-18,7.5-4.234,31.164,18Z" transform="translate(-67.652 -137.79)" fill="#fad445"/>
        </g>
        <g id="Grupo_114076" data-name="Grupo 114076">
          <path id="Trazado_121346" data-name="Trazado 121346" d="M98.794,197.459,67.63,179.469V143.7l31.164,18Z" transform="translate(-67.63 -139.408)" fill="#f6b735"/>
          <path id="Trazado_121347" data-name="Trazado 121347" d="M118.188,198.259l-7.7,4.343V166.84l7.7-4.35Z" transform="translate(-79.362 -144.551)" fill="#f7991d"/>
          <path id="Trazado_121348" data-name="Trazado 121348" d="M98.882,160.021l-31.172-18,7.5-4.234,31.164,18Z" transform="translate(-67.652 -137.79)" fill="#fad445"/>
        </g>
        <g id="Grupo_114077" data-name="Grupo 114077">
          <path id="Trazado_121349" data-name="Trazado 121349" d="M98.794,197.459,67.63,179.469V143.7l31.164,18Z" transform="translate(-67.63 -139.408)" fill="#f6b735"/>
          <path id="Trazado_121350" data-name="Trazado 121350" d="M118.188,198.259l-7.7,4.343V166.84l7.7-4.35Z" transform="translate(-79.362 -144.551)" fill="#f7991d"/>
          <path id="Trazado_121351" data-name="Trazado 121351" d="M98.882,160.021l-31.172-18,7.5-4.234,31.164,18Z" transform="translate(-67.652 -137.79)" fill="#fad445"/>
        </g>
        <g id="Grupo_114078" data-name="Grupo 114078" transform="translate(1.569 18.832)">
          <path id="Trazado_121352" data-name="Trazado 121352" d="M73.458,175.086v4.191l-3.668-2.121V163.72l7.321,4.227a3.056,3.056,0,0,1,1.474,2.527v5.89c0,.98-.6,1.344-1.474.835Zm0-3.363,1.46.842v-2.513l-1.46-.842Z" transform="translate(-69.79 -163.72)" fill="#084a93"/>
          <path id="Trazado_121353" data-name="Trazado 121353" d="M88.637,179.474v-4.881l3.653,2.106v13.443l-3.653-2.113v-5.2l-1.474-.85v5.2l-3.653-2.113V171.63l3.653,2.113v4.881Z" transform="translate(-73.546 -165.885)" fill="#084a93"/>
          <path id="Trazado_121354" data-name="Trazado 121354" d="M101.1,191.046v4.191l-3.675-2.121V179.68l7.328,4.227a3.066,3.066,0,0,1,1.474,2.527v5.89c0,.98-.6,1.344-1.474.835l-3.653-2.113Zm0-3.363,1.46.842v-2.513l-1.46-.842Z" transform="translate(-77.356 -168.089)" fill="#084a93"/>
        </g>
      </g>
      <g id="Grupo_114082" data-name="Grupo 114082" transform="translate(179.083 8.54)">
        <g id="Grupo_114080" data-name="Grupo 114080">
          <path id="Trazado_121355" data-name="Trazado 121355" d="M252.254,68.216l-31.164-18V14.45l31.164,18Z" transform="translate(-221.09 -10.158)" fill="#f6b735"/>
          <path id="Trazado_121356" data-name="Trazado 121356" d="M271.648,69.012l-7.7,4.35V37.593l7.7-4.343Z" transform="translate(-232.822 -15.304)" fill="#f7991d"/>
          <path id="Trazado_121357" data-name="Trazado 121357" d="M252.342,30.771,221.17,12.781l7.5-4.241,31.164,18Z" transform="translate(-221.112 -8.54)" fill="#fad445"/>
        </g>
        <g id="Grupo_114081" data-name="Grupo 114081" transform="translate(3.37 17.441)">
          <path id="Trazado_121358" data-name="Trazado 121358" d="M233.574,36.444v1.67L233,39.494l-3.6-2.077v6.7l4.176,2.411v3.363L227.2,46.22a3.044,3.044,0,0,1-1.474-2.52V33.6c0-.98.6-1.322,1.474-.821l6.369,3.675Z" transform="translate(-225.73 -32.554)" fill="#084a93"/>
          <path id="Trazado_121359" data-name="Trazado 121359" d="M240.4,46.907V43.53l2.368,1.365v3.377l2.963,1.714V52.7l-2.963-1.714v3.4L240.4,53.015v-3.4l-2.949-1.7V45.208l2.949,1.707Z" transform="translate(-228.938 -35.559)" fill="#084a93"/>
          <path id="Trazado_121360" data-name="Trazado 121360" d="M252.709,54.017V50.64l2.368,1.365v3.377l2.963,1.714v2.709l-2.963-1.714v3.4l-2.368-1.365v-3.4l-2.949-1.707V52.31l2.949,1.7Z" transform="translate(-232.308 -37.505)" fill="#084a93"/>
        </g>
      </g>
      <g id="Grupo_114085" data-name="Grupo 114085" transform="translate(263.149 125.499)">
        <g id="Grupo_114083" data-name="Grupo 114083" transform="translate(0 0)">
          <path id="Trazado_121361" data-name="Trazado 121361" d="M368,229.249l-31.164-18V175.49L368,193.48Z" transform="translate(-336.84 -171.198)" fill="#f6b735"/>
          <path id="Trazado_121362" data-name="Trazado 121362" d="M387.4,230.042l-7.691,4.35V198.623l7.691-4.343Z" transform="translate(-348.575 -176.341)" fill="#f7991d"/>
          <path id="Trazado_121363" data-name="Trazado 121363" d="M368.092,191.811l-31.172-18,7.5-4.234,31.172,17.99Z" transform="translate(-336.862 -169.58)" fill="#fad445"/>
        </g>
        <g id="Grupo_114084" data-name="Grupo 114084" transform="translate(3.827 17.238)">
          <path id="Trazado_121364" data-name="Trazado 121364" d="M349.954,197.219v1.67l-.566,1.38-3.61-2.084v6.7l4.176,2.411v3.363l-6.369-3.682a3.044,3.044,0,0,1-1.474-2.52v-10.1c0-.98.6-1.322,1.474-.821Z" transform="translate(-342.11 -193.314)" fill="#084a93"/>
          <path id="Trazado_121365" data-name="Trazado 121365" d="M353.827,203.942v-2.818c0-.98.6-1.322,1.474-.821l6.369,3.675v1.656l-.566,1.4-3.61-2.084v.617l3.188,4.278a4.129,4.129,0,0,1,.988,2.854v3.05c0,.98-.6,1.322-1.46.828l-6.391-3.689v-3.363L358,211.938v-.879l-3.181-4.256a4.163,4.163,0,0,1-.988-2.854Z" transform="translate(-345.315 -195.165)" fill="#084a93"/>
          <path id="Trazado_121366" data-name="Trazado 121366" d="M365.54,210.7v-2.818c0-.98.6-1.322,1.474-.821l6.369,3.682v1.649l-.566,1.4-3.6-2.077v.61l3.188,4.278a4.118,4.118,0,0,1,.988,2.854v3.05c0,.98-.6,1.322-1.46.828l-6.384-3.682v-3.363l4.176,2.411v-.886l-3.181-4.256a4.152,4.152,0,0,1-.988-2.854Z" transform="translate(-348.523 -197.015)" fill="#084a93"/>
        </g>
      </g>
      <g id="Grupo_114088" data-name="Grupo 114088" transform="translate(277.239 210.073)">
        <g id="Grupo_114086" data-name="Grupo 114086">
          <path id="Trazado_121367" data-name="Trazado 121367" d="M387.412,345.706l-31.172-18V291.94l31.172,18Z" transform="translate(-356.24 -287.648)" fill="#f6b735"/>
          <path id="Trazado_121368" data-name="Trazado 121368" d="M406.8,346.5l-7.691,4.35V315.08l7.691-4.35Z" transform="translate(-367.975 -292.791)" fill="#f7991d"/>
          <path id="Trazado_121369" data-name="Trazado 121369" d="M387.494,308.261l-31.164-17.99,7.5-4.241,31.172,18Z" transform="translate(-356.265 -286.03)" fill="#fad445"/>
        </g>
        <g id="Grupo_114087" data-name="Grupo 114087" transform="translate(3.355 17.978)">
          <path id="Trazado_121370" data-name="Trazado 121370" d="M360.867,314.652v-2.818c0-.98.6-1.322,1.474-.821l6.369,3.682v1.649l-.567,1.4-3.61-2.077v.61l3.188,4.278a4.118,4.118,0,0,1,.988,2.854v3.05c0,.98-.6,1.322-1.46.828l-6.391-3.682v-3.363l4.176,2.411v-.886l-3.181-4.256a4.152,4.152,0,0,1-.988-2.854Z" transform="translate(-360.86 -310.784)" fill="#084a93"/>
          <path id="Trazado_121371" data-name="Trazado 121371" d="M378.836,333.975l.741,1.729v1.67l-2.782-1.612-.552-3.3-1.729-.995a3.044,3.044,0,0,1-1.474-2.52v-10.1c0-.98.6-1.322,1.474-.821l5.846,3.377a3.066,3.066,0,0,1,1.474,2.527v10.1c0,.98-.6,1.322-1.474.821l-1.525-.879Zm-2.128-11.286v6.7l1.46.842v-6.7Z" transform="translate(-364.194 -312.706)" fill="#084a93"/>
          <path id="Trazado_121372" data-name="Trazado 121372" d="M386.99,325.01l3.653,2.106V337.2l3.689,2.128v3.363l-7.343-4.241Z" transform="translate(-368.013 -314.678)" fill="#084a93"/>
        </g>
      </g>
    </g>
  </g>
</svg>
